<?xml version="1.0" encoding="UTF-8" standalone="no"?>
<!-- Created with Inkscape (http://www.inkscape.org/) -->

<svg
   xmlns:dc="http://purl.org/dc/elements/1.1/"
   xmlns:cc="http://creativecommons.org/ns#"
   xmlns:rdf="http://www.w3.org/1999/02/22-rdf-syntax-ns#"
   xmlns:svg="http://www.w3.org/2000/svg"
   xmlns="http://www.w3.org/2000/svg"
   xmlns:sodipodi="http://sodipodi.sourceforge.net/DTD/sodipodi-0.dtd"
   xmlns:inkscape="http://www.inkscape.org/namespaces/inkscape"
   sodipodi:docname="document-print-preview-symbolic.svg"
   inkscape:version="0.92.3 (2405546, 2018-03-11)"
   version="1.1"
   id="svg2"
   viewBox="0 0 256 256"
   height="256"
   width="256">
  <sodipodi:namedview
     inkscape:window-maximized="1"
     inkscape:window-y="0"
     inkscape:window-x="0"
     inkscape:window-height="1048"
     inkscape:window-width="1920"
     units="px"
     showgrid="true"
     inkscape:current-layer="layer1"
     inkscape:document-units="px"
     inkscape:cy="128"
     inkscape:cx="128"
     inkscape:zoom="3.3046875"
     inkscape:pageshadow="2"
     inkscape:pageopacity="0.0"
     borderopacity="1.0"
     bordercolor="#666666"
     pagecolor="#ffffff"
     id="base" />
  <defs
     id="defs4">
    <inkscape:path-effect
       effect="spiro"
       id="path-effect4176"
       is_visible="true" />
    <inkscape:path-effect
       is_visible="true"
       id="path-effect4172"
       effect="spiro" />
    <inkscape:path-effect
       is_visible="true"
       id="path-effect4829"
       effect="spiro" />
    <inkscape:path-effect
       is_visible="true"
       id="path-effect4153"
       effect="spiro" />
    <inkscape:path-effect
       is_visible="true"
       id="path-effect4175"
       effect="spiro" />
    <clipPath
       clipPathUnits="userSpaceOnUse"
       id="clipPath4174">
      <circle
         style="fill:#cc2828;fill-opacity:1;stroke:none;stroke-width:0;stroke-linecap:round;stroke-linejoin:round;stroke-miterlimit:4;stroke-dasharray:none;stroke-opacity:1"
         id="circle4176"
         cx="128"
         cy="924.36218"
         r="128" />
    </clipPath>
    <clipPath
       clipPathUnits="userSpaceOnUse"
       id="clipPath4183">
      <circle
         style="fill:#cc2828;fill-opacity:1;stroke:none;stroke-width:0;stroke-linecap:round;stroke-linejoin:round;stroke-miterlimit:4;stroke-dasharray:none;stroke-opacity:1"
         id="circle4185"
         cx="-924.36218"
         cy="128.00002"
         r="128"
         transform="matrix(0,-1,1,0,0,0)" />
    </clipPath>
    <clipPath
       clipPathUnits="userSpaceOnUse"
       id="clipPath4187">
      <circle
         style="fill:#cc2828;fill-opacity:1;stroke:none;stroke-width:0;stroke-linecap:round;stroke-linejoin:round;stroke-miterlimit:4;stroke-dasharray:none;stroke-opacity:1"
         id="circle4189"
         cx="128"
         cy="924.36218"
         r="128" />
    </clipPath>
    <clipPath
       clipPathUnits="userSpaceOnUse"
       id="clipPath4209">
      <circle
         style="fill:#cc2828;fill-opacity:1;stroke:none;stroke-width:0;stroke-linecap:round;stroke-linejoin:round;stroke-miterlimit:4;stroke-dasharray:none;stroke-opacity:1"
         id="circle4211"
         cx="-924.36218"
         cy="128"
         r="128"
         transform="matrix(0,-1,1,0,0,0)" />
    </clipPath>
    <clipPath
       clipPathUnits="userSpaceOnUse"
       id="clipPath4213">
      <circle
         style="fill:#cc2828;fill-opacity:1;stroke:none;stroke-width:0;stroke-linecap:round;stroke-linejoin:round;stroke-miterlimit:4;stroke-dasharray:none;stroke-opacity:1"
         id="circle4215"
         cx="128"
         cy="924.36218"
         r="128" />
    </clipPath>
    <clipPath
       id="clipPath4381"
       clipPathUnits="userSpaceOnUse">
      <circle
         transform="matrix(0.77780341,0.62850764,-0.62850764,0.77780341,0,0)"
         style="fill:#d83838;fill-opacity:1;stroke:none;stroke-width:0;stroke-linecap:round;stroke-linejoin:round;stroke-miterlimit:4;stroke-dasharray:none;stroke-opacity:1"
         id="circle4383"
         cx="686.50537"
         cy="640.4978"
         r="128" />
    </clipPath>
    <clipPath
       id="clipPath4857"
       clipPathUnits="userSpaceOnUse">
      <circle
         style="fill:#68bdff;fill-opacity:1;stroke:none;stroke-width:0;stroke-linecap:round;stroke-linejoin:round;stroke-miterlimit:4;stroke-dasharray:none;stroke-opacity:1"
         id="circle4859"
         cx="128"
         cy="924.36218"
         r="128" />
    </clipPath>
    <clipPath
       id="clipPath5081"
       clipPathUnits="userSpaceOnUse">
      <circle
         transform="scale(-1,1)"
         r="128"
         cy="924.36218"
         cx="-127.94974"
         id="circle5083"
         style="fill:#68bdff;fill-opacity:1;stroke:none;stroke-width:0;stroke-linecap:round;stroke-linejoin:round;stroke-miterlimit:4;stroke-dasharray:none;stroke-opacity:1" />
    </clipPath>
    <clipPath
       id="clipPath5081-7"
       clipPathUnits="userSpaceOnUse">
      <circle
         transform="scale(-1,1)"
         r="128"
         cy="924.36218"
         cx="-127.94974"
         id="circle5083-5"
         style="fill:#68bdff;fill-opacity:1;stroke:none;stroke-width:0;stroke-linecap:round;stroke-linejoin:round;stroke-miterlimit:4;stroke-dasharray:none;stroke-opacity:1" />
    </clipPath>
    <clipPath
       clipPathUnits="userSpaceOnUse"
       id="clipPath4286">
      <circle
         style="fill:#ff7b68;fill-opacity:1;stroke:none;stroke-width:0;stroke-linecap:round;stroke-linejoin:round;stroke-miterlimit:4;stroke-dasharray:none;stroke-opacity:1"
         id="circle4288"
         cx="125"
         cy="927.36218"
         r="128" />
    </clipPath>
    <clipPath
       id="clipPath4298"
       clipPathUnits="userSpaceOnUse">
      <circle
         r="128"
         cy="924.36218"
         cx="128"
         id="circle4300"
         style="fill:#df241d;fill-opacity:1;stroke:none;stroke-width:71;stroke-linecap:butt;stroke-miterlimit:4;stroke-dasharray:none;stroke-opacity:1" />
    </clipPath>
    <clipPath
       clipPathUnits="userSpaceOnUse"
       id="clipPath4292">
      <circle
         r="128"
         cy="128.00002"
         cx="-920.63922"
         id="circle4294"
         style="fill:#df241d;fill-opacity:1;stroke:none;stroke-width:71;stroke-linecap:butt;stroke-miterlimit:4;stroke-dasharray:none;stroke-opacity:1"
         transform="matrix(0,-1,1,0,0,0)" />
    </clipPath>
    <clipPath
       id="clipPath4753"
       clipPathUnits="userSpaceOnUse">
      <circle
         transform="matrix(0.77485215,-0.63214251,0.63214251,0.77485215,0,0)"
         r="120.95755"
         cy="798.66675"
         cx="-486.26294"
         id="circle4755"
         style="fill:#1f9c4a;fill-opacity:1;stroke:none;stroke-width:71;stroke-linecap:butt;stroke-miterlimit:4;stroke-dasharray:none;stroke-opacity:1" />
    </clipPath>
    <clipPath
       id="clipPath4774"
       clipPathUnits="userSpaceOnUse">
      <circle
         transform="matrix(-0.81688221,0.57680453,0.57680453,0.81688221,0,0)"
         r="120.95754"
         cy="385.71805"
         cx="850.09076"
         id="circle4776"
         style="fill:#1f9c4a;fill-opacity:1;stroke:none;stroke-width:71;stroke-linecap:butt;stroke-miterlimit:4;stroke-dasharray:none;stroke-opacity:1" />
    </clipPath>
    <clipPath
       id="clipPath4780"
       clipPathUnits="userSpaceOnUse">
      <circle
         transform="matrix(-0.81688221,0.57680453,0.57680453,0.81688221,0,0)"
         r="120.95754"
         cy="385.71805"
         cx="850.09076"
         id="circle4782"
         style="fill:#1f9c4a;fill-opacity:1;stroke:none;stroke-width:71;stroke-linecap:butt;stroke-miterlimit:4;stroke-dasharray:none;stroke-opacity:1" />
    </clipPath>
    <clipPath
       id="clipPath5092"
       clipPathUnits="userSpaceOnUse">
      <path
         style="opacity:0.91000001;fill:#38bae1;fill-opacity:1;stroke:none;stroke-width:0;stroke-linecap:round;stroke-linejoin:round;stroke-miterlimit:4;stroke-dasharray:none;stroke-opacity:1;filter:url(#filter4298)"
         d="m 10.42124,864.27189 42.534575,-0.0913 21.267287,-0.0456 c 7.245384,-0.0152 14.490768,-0.0305 21.736152,-0.0456 8.394956,-10.58827 10.291846,-15.47699 14.084686,-17.71727 3.79283,-2.24028 9.4816,-1.8321 25.46032,-1.82658 23.36644,-0.007 109.60565,-0.67788 109.60565,-0.67788 l -0.0879,12.1518 -0.0879,12.1518 -0.0879,12.15181 -0.0879,12.1518 -0.0879,12.1518 -0.0879,12.1518 -0.0879,12.15181 -0.0879,12.1518 -0.0879,12.1518 -0.0879,12.1518 -0.0879,12.15181 -0.0879,12.1518 -0.0879,12.15181 -0.0879,12.1518 c 0,0 0.59382,8.1589 -0.0879,12.1518 -0.58177,3.4075 -0.78038,7.5176 -3.36995,9.8075 -2.83121,2.5035 -7.3341,1.9515 -11.09295,2.3443 -4.76571,0.4981 -14.375,0 -14.375,0 l -14.375,0 -14.375,0 -14.37501,0 -14.375,0 -14.375,0 -14.375,0 -14.375,0 -14.375,0 -14.375001,0 c 0,0 -9.583334,0 -14.375001,0 -4.791667,0 -9.583334,0 -14.375001,0 -4.791667,0 -9.500662,0.094 -14.375001,0 -4.874339,-0.093 -10.854147,0.062 -15.030858,-0.571 -4.176712,-0.6329 -7.699545,-0.5576 -9.968228,-2.7111 -2.268683,-2.1535 -2.21606,-4.4991 -2.972258,-7.5945 -0.756198,-3.0955 -0.95689,-7.246 -1.188915,-10.8765 -0.232024,-3.6305 -0.136752,-7.251 -0.205128,-10.8765 -0.06838,-3.6255 -0.136752,-7.25106 -0.205128,-10.87658 -0.06838,-3.62552 -0.136753,-7.25102 -0.205129,-10.87653 -0.06838,-3.62551 -0.136752,-7.25103 -0.205128,-10.87654 -0.06838,-3.62551 -0.205129,-10.87653 -0.205129,-10.87653 L 12.062467,951.28418 11.857339,940.40764 11.65221,929.53111 11.447082,918.65457 11.241954,907.77803 11.036825,896.9015 10.831697,886.02496 10.626568,875.14843 Z"
         id="path5094"
         inkscape:connector-curvature="0"
         sodipodi:nodetypes="cccccccccccccccccccccssscccccccccazzzzzzzzzzzsccccccccc"
         transform="matrix(1.2315339,0,0,1.0608965,-109.24268,-939.37809)" />
    </clipPath>
    <filter
       style="color-interpolation-filters:sRGB"
       inkscape:label="Drop Shadow"
       id="filter4298">
      <feFlood
         flood-opacity="0.498039"
         flood-color="rgb(0,0,0)"
         result="flood"
         id="feFlood4300" />
      <feComposite
         in="flood"
         in2="SourceGraphic"
         operator="in"
         result="composite1"
         id="feComposite4302" />
      <feGaussianBlur
         in="composite1"
         stdDeviation="1.6"
         result="blur"
         id="feGaussianBlur4304" />
      <feOffset
         dx="-2.77556e-17"
         dy="-7.7"
         result="offset"
         id="feOffset4306" />
      <feComposite
         in="SourceGraphic"
         in2="offset"
         operator="over"
         result="composite2"
         id="feComposite4308" />
    </filter>
    <clipPath
       id="clipPath4270"
       clipPathUnits="userSpaceOnUse">
      <path
         style="opacity:0.91000001;fill:#38bae1;fill-opacity:1;stroke:#38bae1;stroke-width:0;stroke-linecap:round;stroke-linejoin:round;stroke-miterlimit:4;stroke-dasharray:none;stroke-opacity:0;filter:url(#filter4298)"
         d="m 10.42124,864.27189 42.534575,-0.0913 21.267287,-0.0456 c 7.245384,-0.0152 14.490768,-0.0305 21.736152,-0.0456 8.394956,-10.58827 10.291846,-15.47699 14.084686,-17.71727 3.79283,-2.24028 9.4816,-1.8321 25.46032,-1.82658 23.36644,-0.007 109.60565,-0.67788 109.60565,-0.67788 l -0.0879,12.1518 -0.0879,12.1518 -0.0879,12.15181 -0.0879,12.1518 -0.0879,12.1518 -0.0879,12.1518 -0.0879,12.15181 -0.0879,12.1518 -0.0879,12.1518 -0.0879,12.1518 -0.0879,12.15181 -0.0879,12.1518 -0.0879,12.15181 -0.0879,12.1518 c 0,0 0.59382,8.1589 -0.0879,12.1518 -0.58177,3.4075 -0.78038,7.5176 -3.36995,9.8075 -2.83121,2.5035 -7.3341,1.9515 -11.09295,2.3443 -4.76571,0.4981 -14.375,0 -14.375,0 l -14.375,0 -14.375,0 -14.37501,0 -14.375,0 -14.375,0 -14.375,0 -14.375,0 -14.375,0 -14.375001,0 c 0,0 -9.583334,0 -14.375001,0 -4.791667,0 -9.583334,0 -14.375001,0 -4.791667,0 -9.500662,0.094 -14.375001,0 -4.874339,-0.093 -10.854147,0.062 -15.030858,-0.571 -4.176712,-0.6329 -7.699545,-0.5576 -9.968228,-2.7111 -2.268683,-2.1535 -2.21606,-4.4991 -2.972258,-7.5945 -0.756198,-3.0955 -0.95689,-7.246 -1.188915,-10.8765 -0.232024,-3.6305 -0.136752,-7.251 -0.205128,-10.8765 -0.06838,-3.6255 -0.136752,-7.25106 -0.205128,-10.87658 -0.06838,-3.62552 -0.136753,-7.25102 -0.205129,-10.87653 -0.06838,-3.62551 -0.136752,-7.25103 -0.205128,-10.87654 -0.06838,-3.62551 -0.205129,-10.87653 -0.205129,-10.87653 L 12.062467,951.28418 11.857339,940.40764 11.65221,929.53111 11.447082,918.65457 11.241954,907.77803 11.036825,896.9015 10.831697,886.02496 10.626568,875.14843 Z"
         id="path4272"
         inkscape:connector-curvature="0"
         sodipodi:nodetypes="cccccccccccccccccccccssscccccccccazzzzzzzzzzzsccccccccc"
         transform="matrix(1.0110039,0,0,0.87092225,-1.4059192,107.89621)" />
    </clipPath>
    <clipPath
       id="clipPath5671"
       clipPathUnits="userSpaceOnUse">
      <circle
         style="opacity:1;fill:#747474;fill-opacity:1;stroke:none;stroke-width:3.5;stroke-linecap:round;stroke-linejoin:round;stroke-miterlimit:4;stroke-dasharray:none;stroke-opacity:1"
         id="circle5673"
         cx="128"
         cy="924.36218"
         r="128" />
    </clipPath>
    <clipPath
       id="clipPath6449"
       clipPathUnits="userSpaceOnUse">
      <path
         style="opacity:0.93500001;fill:#38bae1;fill-opacity:1;stroke:none;stroke-width:0;stroke-linecap:round;stroke-linejoin:round;stroke-miterlimit:4;stroke-dasharray:none;stroke-opacity:1;filter:url(#filter4298)"
         d="m 10.42124,864.27189 42.534575,-0.0913 21.267287,-0.0456 c 7.245384,-0.0152 14.490768,-0.0305 21.736152,-0.0456 8.394956,-10.58827 10.291846,-15.47699 14.084686,-17.71727 3.79283,-2.24028 9.4816,-1.8321 25.46032,-1.82658 23.36644,-0.007 109.60565,-0.67788 109.60565,-0.67788 l -0.0879,12.1518 -0.0879,12.1518 -0.0879,12.15181 -0.0879,12.1518 -0.0879,12.1518 -0.0879,12.1518 -0.0879,12.15181 -0.0879,12.1518 -0.0879,12.1518 -0.0879,12.1518 -0.0879,12.15181 -0.0879,12.1518 -0.0879,12.15181 -0.0879,12.1518 c 0,0 0.59382,8.1589 -0.0879,12.1518 -0.58177,3.4075 -0.78038,7.5176 -3.36995,9.8075 -2.83121,2.5035 -7.3341,1.9515 -11.09295,2.3443 -4.76571,0.4981 -14.375,0 -14.375,0 l -14.375,0 -14.375,0 -14.37501,0 -14.375,0 -14.375,0 -14.375,0 -14.375,0 -14.375,0 -14.375001,0 c 0,0 -9.583334,0 -14.375001,0 -4.791667,0 -9.583334,0 -14.375001,0 -4.791667,0 -9.500662,0.094 -14.375001,0 -4.874339,-0.093 -10.854147,0.062 -15.030858,-0.571 -4.176712,-0.6329 -7.699545,-0.5576 -9.968228,-2.7111 -2.268683,-2.1535 -2.21606,-4.4991 -2.972258,-7.5945 -0.756198,-3.0955 -0.95689,-7.246 -1.188915,-10.8765 -0.232024,-3.6305 -0.136752,-7.251 -0.205128,-10.8765 -0.06838,-3.6255 -0.136752,-7.25106 -0.205128,-10.87658 -0.06838,-3.62552 -0.136753,-7.25102 -0.205129,-10.87653 -0.06838,-3.62551 -0.136752,-7.25103 -0.205128,-10.87654 -0.06838,-3.62551 -0.205129,-10.87653 -0.205129,-10.87653 L 12.062467,951.28418 11.857339,940.40764 11.65221,929.53111 11.447082,918.65457 11.241954,907.77803 11.036825,896.9015 10.831697,886.02496 10.626568,875.14843 Z"
         id="path6451"
         inkscape:connector-curvature="0"
         sodipodi:nodetypes="cccccccccccccccccccccssscccccccccazzzzzzzzzzzsccccccccc"
         transform="matrix(1.0110039,0,0,0.87092225,25.157891,106.06954)" />
    </clipPath>
    <clipPath
       id="clipPath6537"
       clipPathUnits="userSpaceOnUse">
      <circle
         style="opacity:1;fill:#dedede;fill-opacity:1;stroke:none;stroke-width:3.5;stroke-linecap:round;stroke-linejoin:round;stroke-miterlimit:4;stroke-dasharray:none;stroke-opacity:1"
         id="circle6539"
         cx="128"
         cy="924.36218"
         r="128" />
    </clipPath>
    <clipPath
       clipPathUnits="userSpaceOnUse"
       id="clipPath4361">
      <circle
         style="opacity:1;fill:#eaa26e;fill-opacity:1;stroke:none;stroke-width:3.5;stroke-linecap:round;stroke-linejoin:round;stroke-miterlimit:4;stroke-dasharray:none;stroke-opacity:1"
         id="circle4363"
         cx="128"
         cy="924.36218"
         r="128" />
    </clipPath>
    <clipPath
       clipPathUnits="userSpaceOnUse"
       id="clipPath1090">
      <circle
         r="128"
         cy="128.00002"
         cx="128"
         id="circle1092"
         style="opacity:1;fill:#eaa26e;fill-opacity:1;stroke:none;stroke-width:3.5;stroke-linecap:round;stroke-linejoin:round;stroke-miterlimit:4;stroke-dasharray:none;stroke-opacity:1" />
    </clipPath>
  </defs>
  <metadata
     id="metadata7">
    <rdf:RDF>
      <cc:Work
         rdf:about="">
        <dc:format>image/svg+xml</dc:format>
        <dc:type
           rdf:resource="http://purl.org/dc/dcmitype/StillImage" />
        <dc:title />
      </cc:Work>
    </rdf:RDF>
  </metadata>
  <g
     transform="translate(0,-796.36216)"
     id="layer1"
     inkscape:groupmode="layer"
     inkscape:label="Layer 1">
    <path
       style="opacity:1;fill:#eaa26e;fill-opacity:1;stroke:none;stroke-width:3.5;stroke-linecap:round;stroke-linejoin:round;stroke-miterlimit:4;stroke-dasharray:none;stroke-opacity:1"
       d="m 128,796.36214 a 128,128 0 0 0 -128,128 128,128 0 0 0 128,128.00006 128,128 0 0 0 128,-128.00006 128,128 0 0 0 -128,-128 z m -26.31055,35 h 53.34571 c 12.99033,0 23.44726,10.45889 23.44726,23.44922 v 38.48437 c 32.73483,5.84563 57.66602,34.49985 57.66602,68.89063 -2e-5,38.60074 -31.39931,70.00004 -70,70.00004 -24.09732,0 -45.3871,-12.2377 -57.98438,-30.8242 H 72.96485 c -12.99035,0 -23.44727,-10.45895 -23.44727,-23.44928 v -99.1211 z m -33.55078,36.85547 c -1.26558,0 -2.28515,1.01957 -2.28515,2.28515 0,1.26559 1.01957,2.2832 2.28515,2.2832 h 58.33985 c 1.26558,0 2.28515,-1.01761 2.28515,-2.2832 0,-1.26558 -1.01957,-2.28515 -2.28515,-2.28515 z m 0,14.23437 c -1.26557,0 -2.28515,1.01763 -2.28515,2.2832 0,1.26558 1.01958,2.28516 2.28515,2.28516 h 71.69531 c 1.26557,0 2.28516,-1.01958 2.28516,-2.28516 0,-1.26557 -1.01959,-2.2832 -2.28516,-2.2832 z m 92.9668,9.93555 c -0.61075,0.0441 -1.22377,0.0788 -1.83008,0.13867 0.60669,-0.0594 1.21899,-0.0949 1.83008,-0.13867 z m -3.99024,0.40039 c -0.38909,0.0508 -0.7809,0.0932 -1.16796,0.15039 0.38706,-0.0568 0.77888,-0.10001 1.16796,-0.15039 z m -3.58007,0.55859 c -0.27958,0.0514 -0.56143,0.0956 -0.83985,0.15039 0.27852,-0.0544 0.56016,-0.0993 0.83985,-0.15039 z m -3.55469,0.74414 c -0.1449,0.0346 -0.29099,0.0661 -0.43555,0.10156 0.14456,-0.0353 0.29064,-0.0672 0.43555,-0.10156 z m -3.32813,0.87891 c -0.0714,0.0208 -0.14355,0.0395 -0.21484,0.0606 0.0713,-0.021 0.14341,-0.0398 0.21484,-0.0606 z m -3.16406,1.00195 c -0.037,0.0127 -0.0744,0.0243 -0.11133,0.0371 0.037,-0.0128 0.0744,-0.0244 0.11133,-0.0371 z m -75.34961,1.06446 c -1.26557,0 -2.28515,1.01958 -2.28515,2.28515 0,1.26557 1.01958,2.28516 2.28515,2.28516 h 63.00391 c 2.95586,-1.71456 6.04596,-3.21825 9.2539,-4.49219 -0.18097,-0.0458 -0.36692,-0.0781 -0.5625,-0.0781 z m 98.00977,5.15039 a 60,60 0 0 0 -3.91406,0.13867 c -0.20972,0.0135 -0.41784,0.0313 -0.62696,0.0469 a 60,60 0 0 0 -5.55078,0.67578 c -0.0498,0.008 -0.10067,0.013 -0.15039,0.0215 a 60,60 0 0 0 -5.80273,1.30469 c 1.89902,-0.52379 3.83252,-0.96721 5.80273,-1.30469 -8.01664,1.37344 -15.47988,4.32935 -22.06641,8.53906 3.33959,-2.13285 6.91068,-3.93236 10.66016,-5.37695 1.82653,-0.70372 3.69138,-1.33096 5.59961,-1.85742 a 60,60 0 0 0 -5.59961,1.85742 60,60 0 0 0 -10.68359,5.41992 60,60 0 0 1 0.0449,-0.0293 h -0.0449 c -2.17056,1.38867 -4.23823,2.92055 -6.20508,4.56835 h 0.0976 a 60,60 0 0 1 0.0274,-0.0215 60,60 0 0 0 -9.54102,10.08008 60,60 0 0 1 0.0273,-0.041 h -0.0996 c -1.10419,1.47243 -2.14408,2.99497 -3.11133,4.56836 h 0.10156 a 60,60 0 0 1 0.0215,-0.0312 60,60 0 0 0 -4.96875,10.04688 h -0.0937 c -0.56897,1.49489 -1.077,3.01853 -1.52735,4.56836 h 0.0527 a 60,60 0 0 0 -2.0293,10.05664 60,60 0 0 1 0.002,-0.0391 h -0.0195 c -0.16966,1.5069 -0.29137,3.02898 -0.34766,4.56836 h 0.0566 a 60,60 0 0 0 -0.11133,2.24024 60,60 0 0 0 0,0.0781 60,60 0 0 0 0,0.0352 c 5.4e-4,0.29459 0.0187,0.58534 0.0234,0.87891 a 60,60 0 0 0 14.62695,38.18368 h -0.11524 c 10.99393,12.753 27.2622,20.8242 45.46485,20.8242 33.19629,0 59.99999,-26.80375 60,-60.00007 0,-28.9665 -20.41016,-53.061 -47.66602,-58.73242 v 0.0332 a 60,60 0 0 0 -12.33398,-1.30078 z m 12.33398,1.26758 c -1.9903,-0.41415 -4.01617,-0.733 -6.07422,-0.94532 2.05726,0.21387 4.0842,0.53125 6.07422,0.94532 z m -71.93164,51.92382 c 0.0128,-0.1139 0.0237,-0.22808 0.0371,-0.34179 -0.0135,0.11445 -0.032,0.22714 -0.0449,0.34179 z m 8.46094,-24.60156 h -0.006 c -0.0281,0.0457 -0.054,0.0929 -0.082,0.13867 0.0286,-0.0467 0.0592,-0.092 0.0879,-0.13867 z m 3.11133,-4.56836 c 0.0669,-0.0892 0.13575,-0.17682 0.20312,-0.26562 -0.0684,0.0901 -0.14305,0.17511 -0.21094,0.26562 z m 9.48828,-10.01758 h -0.0195 c -0.0775,0.0649 -0.14945,0.13587 -0.22657,0.20118 0.0808,-0.0684 0.16492,-0.13316 0.2461,-0.20118 z m 28.44531,-13.14257 c 0.90066,-0.15189 1.80671,-0.28692 2.7207,-0.39844 -0.93668,0.11402 -1.86634,0.24951 -2.78906,0.40625 a 60,60 0 0 1 0.0684,-0.008 z m -87.91797,8.57422 c -1.26557,0 -2.28515,1.01958 -2.28515,2.28515 0,1.26556 1.01958,2.28323 2.28515,2.2832 h 45.3086 c 1.3877,-1.58799 2.8455,-3.11136 4.36914,-4.56835 z m 39.68945,11.9082 c -0.082,0.12302 -0.159,0.24946 -0.24023,0.37305 0.0811,-0.12366 0.15837,-0.24994 0.24023,-0.37305 z m -39.68945,2.67773 c -1.26557,0 -2.28515,1.01764 -2.28515,2.28321 0,1.26557 1.01958,2.28515 2.28515,2.28515 h 35.48047 c 0.7842,-1.55487 1.61566,-3.08229 2.50977,-4.56836 z m 65.57617,6.27149 h 66.66602 v 33.33203 h -66.66602 z m -31.23828,0.67773 c -0.02,0.0437 -0.0406,0.0871 -0.0605,0.13086 0.0199,-0.0437 0.0405,-0.0872 0.0605,-0.13086 z m 8.63086,5.08399 c -0.3091,0.71142 -0.59881,1.43267 -0.88086,2.1582 0.2823,-0.72553 0.57119,-1.44706 0.88086,-2.1582 z m -42.96875,2.55078 c -1.26557,0 -2.28515,1.01958 -2.28515,2.28515 0,1.26558 1.01958,2.28321 2.28515,2.28321 h 30.06641 c 0.38241,-1.54387 0.8156,-3.06653 1.29883,-4.56836 z m 29.19141,8.66211 c -0.0794,0.42819 -0.15897,0.85625 -0.23047,1.28711 0.0712,-0.43106 0.1514,-0.85873 0.23047,-1.28711 z m -0.47266,2.86914 c -0.0747,0.5252 -0.14028,1.05313 -0.20312,1.58203 0.0626,-0.52871 0.12873,-1.05697 0.20312,-1.58203 z m 31.41016,0.17578 h 2.59765 v 15.83594 h 72.72657 v -15.83594 h 0.43554 c 6.71514,0 12.1211,5.40595 12.1211,12.12109 v 15.15235 c 0,6.71515 -5.40596,12.12105 -12.1211,12.12105 h -75.75976 c -6.71515,0 -12.11914,-5.4059 -12.11914,-12.12105 v -15.15235 c 0,-6.71514 5.40399,-12.12109 12.11914,-12.12109 z m -60.12891,2.8789 c -1.26557,0 -2.28515,1.01763 -2.28515,2.28321 0,1.26556 1.01958,2.28515 2.28515,2.28515 h 28.06641 c 0.0486,-1.53497 0.13296,-3.05957 0.2793,-4.56836 z m 28.00977,6.8086 c 0,1.09925 0.0336,2.19034 0.084,3.27734 -0.0503,-1.08664 -0.084,-2.17847 -0.084,-3.27734 z m 0.13476,4.15234 c 0.0471,0.8005 0.10775,1.59751 0.18165,2.39063 -0.0739,-0.79359 -0.13454,-1.58966 -0.18165,-2.39063 z m 1.43165,10.55664 c 0.15682,0.73028 0.32442,1.45605 0.5039,2.17774 -0.17936,-0.72137 -0.34717,-1.4478 -0.5039,-2.17774 z m 0.74218,3.1211 c 0.25862,0.98095 0.5323,1.95619 0.83203,2.91991 -0.29979,-0.96405 -0.57337,-1.93862 -0.83203,-2.91991 z m 0.84571,2.96871 c 0.30337,0.973 0.63425,1.9344 0.97851,2.8887 -0.3442,-0.9543 -0.67519,-1.9158 -0.97851,-2.8887 z m 1.35351,3.8868 c 0.24698,0.653 0.50177,1.3017 0.76758,1.9453 -0.26569,-0.6435 -0.52071,-1.2925 -0.76758,-1.9453 z m 1.16211,2.8925 c 0.34806,0.8088 0.71054,1.6096 1.08789,2.4024 -0.37737,-0.7929 -0.73983,-1.5935 -1.08789,-2.4024 z m 1.29102,2.8399 c 0.42453,0.8762 0.87247,1.7382 1.33203,2.5937 -0.45936,-0.8552 -0.9077,-1.7177 -1.33203,-2.5937 z m 1.82421,3.4863 c 0.34352,0.6177 0.69516,1.2298 1.05664,1.8359 -0.36135,-0.6059 -0.71324,-1.2183 -1.05664,-1.8359 z m 1.58203,2.709 c 0.45857,0.7441 0.93075,1.47975 1.41602,2.20515 -0.48547,-0.7258 -0.95726,-1.46075 -1.41602,-2.20515 z"
       id="path5667"
       inkscape:connector-curvature="0" />
  </g>
</svg>
