<?xml version="1.0" encoding="UTF-8" standalone="no"?>
<!-- Created with Inkscape (http://www.inkscape.org/) -->

<svg
   width="256"
   height="256"
   viewBox="0 0 256 256"
   id="svg2"
   version="1.1"
   inkscape:version="1.2.1 (9c6d41e410, 2022-07-14)"
   sodipodi:docname="edit-cut-symbolic.svg"
   xmlns:inkscape="http://www.inkscape.org/namespaces/inkscape"
   xmlns:sodipodi="http://sodipodi.sourceforge.net/DTD/sodipodi-0.dtd"
   xmlns="http://www.w3.org/2000/svg"
   xmlns:svg="http://www.w3.org/2000/svg"
   xmlns:rdf="http://www.w3.org/1999/02/22-rdf-syntax-ns#"
   xmlns:cc="http://creativecommons.org/ns#"
   xmlns:dc="http://purl.org/dc/elements/1.1/">
  <sodipodi:namedview
     id="base"
     pagecolor="#ffffff"
     bordercolor="#666666"
     borderopacity="1.0"
     inkscape:pageopacity="0.0"
     inkscape:pageshadow="2"
     inkscape:zoom="3.3632812"
     inkscape:cx="122.05343"
     inkscape:cy="127.85134"
     inkscape:document-units="px"
     inkscape:current-layer="layer1"
     showgrid="true"
     units="px"
     inkscape:window-width="1920"
     inkscape:window-height="1048"
     inkscape:window-x="0"
     inkscape:window-y="0"
     inkscape:window-maximized="1"
     inkscape:showpageshadow="2"
     inkscape:pagecheckerboard="0"
     inkscape:deskcolor="#d1d1d1">
    <inkscape:grid
       type="xygrid"
       id="grid4191"
       spacingx="5"
       spacingy="5" />
  </sodipodi:namedview>
  <defs
     id="defs4">
    <inkscape:path-effect
       effect="spiro"
       id="path-effect4176"
       is_visible="true" />
    <inkscape:path-effect
       is_visible="true"
       id="path-effect4172"
       effect="spiro" />
    <inkscape:path-effect
       is_visible="true"
       id="path-effect4829"
       effect="spiro" />
    <inkscape:path-effect
       is_visible="true"
       id="path-effect4153"
       effect="spiro" />
    <inkscape:path-effect
       is_visible="true"
       id="path-effect4175"
       effect="spiro" />
    <clipPath
       clipPathUnits="userSpaceOnUse"
       id="clipPath4174">
      <circle
         style="fill:#cc2828;fill-opacity:1;stroke:none;stroke-width:0;stroke-linecap:round;stroke-linejoin:round;stroke-miterlimit:4;stroke-dasharray:none;stroke-opacity:1"
         id="circle4176"
         cx="128"
         cy="924.36218"
         r="128" />
    </clipPath>
    <clipPath
       clipPathUnits="userSpaceOnUse"
       id="clipPath4183">
      <circle
         style="fill:#cc2828;fill-opacity:1;stroke:none;stroke-width:0;stroke-linecap:round;stroke-linejoin:round;stroke-miterlimit:4;stroke-dasharray:none;stroke-opacity:1"
         id="circle4185"
         cx="-924.36218"
         cy="128.00002"
         r="128"
         transform="matrix(0,-1,1,0,0,0)" />
    </clipPath>
    <clipPath
       clipPathUnits="userSpaceOnUse"
       id="clipPath4187">
      <circle
         style="fill:#cc2828;fill-opacity:1;stroke:none;stroke-width:0;stroke-linecap:round;stroke-linejoin:round;stroke-miterlimit:4;stroke-dasharray:none;stroke-opacity:1"
         id="circle4189"
         cx="128"
         cy="924.36218"
         r="128" />
    </clipPath>
    <clipPath
       clipPathUnits="userSpaceOnUse"
       id="clipPath4209">
      <circle
         style="fill:#cc2828;fill-opacity:1;stroke:none;stroke-width:0;stroke-linecap:round;stroke-linejoin:round;stroke-miterlimit:4;stroke-dasharray:none;stroke-opacity:1"
         id="circle4211"
         cx="-924.36218"
         cy="128"
         r="128"
         transform="matrix(0,-1,1,0,0,0)" />
    </clipPath>
    <clipPath
       clipPathUnits="userSpaceOnUse"
       id="clipPath4213">
      <circle
         style="fill:#cc2828;fill-opacity:1;stroke:none;stroke-width:0;stroke-linecap:round;stroke-linejoin:round;stroke-miterlimit:4;stroke-dasharray:none;stroke-opacity:1"
         id="circle4215"
         cx="128"
         cy="924.36218"
         r="128" />
    </clipPath>
    <clipPath
       id="clipPath4381"
       clipPathUnits="userSpaceOnUse">
      <circle
         transform="matrix(0.77780341,0.62850764,-0.62850764,0.77780341,0,0)"
         style="fill:#d83838;fill-opacity:1;stroke:none;stroke-width:0;stroke-linecap:round;stroke-linejoin:round;stroke-miterlimit:4;stroke-dasharray:none;stroke-opacity:1"
         id="circle4383"
         cx="686.50537"
         cy="640.4978"
         r="128" />
    </clipPath>
    <clipPath
       id="clipPath4857"
       clipPathUnits="userSpaceOnUse">
      <circle
         style="fill:#68bdff;fill-opacity:1;stroke:none;stroke-width:0;stroke-linecap:round;stroke-linejoin:round;stroke-miterlimit:4;stroke-dasharray:none;stroke-opacity:1"
         id="circle4859"
         cx="128"
         cy="924.36218"
         r="128" />
    </clipPath>
    <clipPath
       id="clipPath5081"
       clipPathUnits="userSpaceOnUse">
      <circle
         transform="scale(-1,1)"
         r="128"
         cy="924.36218"
         cx="-127.94974"
         id="circle5083"
         style="fill:#68bdff;fill-opacity:1;stroke:none;stroke-width:0;stroke-linecap:round;stroke-linejoin:round;stroke-miterlimit:4;stroke-dasharray:none;stroke-opacity:1" />
    </clipPath>
    <clipPath
       id="clipPath5081-7"
       clipPathUnits="userSpaceOnUse">
      <circle
         transform="scale(-1,1)"
         r="128"
         cy="924.36218"
         cx="-127.94974"
         id="circle5083-5"
         style="fill:#68bdff;fill-opacity:1;stroke:none;stroke-width:0;stroke-linecap:round;stroke-linejoin:round;stroke-miterlimit:4;stroke-dasharray:none;stroke-opacity:1" />
    </clipPath>
    <clipPath
       clipPathUnits="userSpaceOnUse"
       id="clipPath4286">
      <circle
         style="fill:#ff7b68;fill-opacity:1;stroke:none;stroke-width:0;stroke-linecap:round;stroke-linejoin:round;stroke-miterlimit:4;stroke-dasharray:none;stroke-opacity:1"
         id="circle4288"
         cx="125"
         cy="927.36218"
         r="128" />
    </clipPath>
    <clipPath
       clipPathUnits="userSpaceOnUse"
       id="clipPath4812">
      <circle
         r="128"
         cy="920.82867"
         cx="-124.29127"
         id="circle4814"
         style="fill:#ff6049;fill-opacity:1;stroke:none;stroke-width:31.56804466;stroke-linecap:round;stroke-linejoin:round;stroke-miterlimit:4;stroke-dasharray:none;stroke-opacity:1"
         transform="scale(-1,1)" />
    </clipPath>
    <clipPath
       clipPathUnits="userSpaceOnUse"
       id="clipPath4818">
      <circle
         r="128"
         cy="920.82867"
         cx="124.29128"
         id="circle4820"
         style="fill:#ff6049;fill-opacity:1;stroke:none;stroke-width:31.56804466;stroke-linecap:round;stroke-linejoin:round;stroke-miterlimit:4;stroke-dasharray:none;stroke-opacity:1" />
    </clipPath>
  </defs>
  <metadata
     id="metadata7">
    <rdf:RDF>
      <cc:Work
         rdf:about="">
        <dc:format>image/svg+xml</dc:format>
        <dc:type
           rdf:resource="http://purl.org/dc/dcmitype/StillImage" />
        <dc:title />
      </cc:Work>
    </rdf:RDF>
  </metadata>
  <g
     transform="translate(0,-796.36216)"
     id="layer1"
     inkscape:groupmode="layer"
     inkscape:label="Layer 1">
    <path
       id="path364"
       style="fill:#b5ffff;fill-rule:nonzero;stroke-width:113.856;fill-opacity:1"
       d="M 128 796.36216 A 128 128 0 0 0 0 924.36216 A 128 128 0 0 0 128 1052.3622 A 128 128 0 0 0 256 924.36216 A 128 128 0 0 0 128 796.36216 z M 112.07031 839.36216 C 117.92234 839.36216 122.69531 844.13513 122.69531 849.98716 L 122.69531 911.95396 L 144.98242 927.02036 C 148.55169 913.32413 161.08637 903.11411 175.82031 903.11411 C 193.33482 903.11411 207.69531 917.47446 207.69531 934.98911 C 207.69531 952.50379 193.33482 966.86411 175.82031 966.86411 C 169.71907 966.86411 164.03366 965.12192 159.17773 962.13364 C 159.13841 962.13364 159.09523 962.09021 159.05273 962.04771 L 158.01562 961.38364 L 147.72266 954.452 L 122.69531 937.60239 L 122.69531 977.48716 C 122.69531 995.00181 108.33497 1009.3622 90.820312 1009.3622 C 73.305654 1009.3622 58.945312 995.00181 58.945312 977.48716 C 58.945313 959.9725 73.30565 945.61216 90.820312 945.61216 C 94.555639 945.61216 98.124996 946.27617 101.44531 947.43833 L 101.44531 849.98716 C 101.44531 844.13513 106.21827 839.36216 112.07031 839.36216 z M 59.001953 871.24888 C 61.089471 871.25861 63.135749 871.88045 64.878906 873.06333 L 90.820312 890.49497 L 90.820312 916.14341 L 53.009766 890.66099 C 50.685545 889.12524 49.067523 886.67614 48.486328 883.89536 C 48.320573 882.98225 48.277843 882.06977 48.320312 881.15708 C 48.486374 879.28942 49.065451 877.46223 50.103516 875.92661 C 51.680696 873.60239 54.129497 871.98393 56.910156 871.44419 C 57.605349 871.3093 58.306114 871.24563 59.001953 871.24888 z M 175.82227 919.04771 C 175.28296 919.04771 174.74247 919.09114 174.24414 919.13364 L 174.20312 919.13364 C 173.74625 919.17507 173.33157 919.25558 172.91602 919.34068 C 172.41758 919.42355 171.91989 919.50696 171.46289 919.67271 C 166.10897 921.12537 161.95848 925.27579 160.50586 930.62974 C 160.34009 931.08681 160.26118 931.58259 160.17578 932.08091 C 160.09301 932.49636 160.01085 932.91115 159.96875 933.36802 C 159.92545 933.90756 159.88281 934.44742 159.88281 934.98716 L 159.88477 934.98521 C 159.88477 935.73225 159.92437 936.43637 160.00977 937.10044 L 160.17383 937.22544 C 161.29446 944.77917 167.56248 950.46472 175.19922 950.83872 C 175.19922 950.83872 175.20009 950.88169 175.24219 950.88169 C 175.40796 950.92419 175.61506 950.92466 175.82227 950.92466 C 177.27488 950.92466 178.64513 950.71514 179.93164 950.38364 C 185.49324 948.93101 189.76808 944.65756 191.2207 939.13755 C 191.55337 937.80943 191.75977 936.43786 191.75977 934.98521 C 191.75977 933.53256 191.55223 932.1649 191.2207 930.83677 C 189.76808 925.31666 185.49324 921.04137 179.93164 919.58872 C 178.64513 919.25615 177.27488 919.04771 175.82227 919.04771 z M 90.822266 961.54771 C 90.283163 961.54771 89.742464 961.59114 89.244141 961.63364 L 89.203125 961.63364 C 88.746368 961.67507 88.331455 961.75568 87.916016 961.84068 C 87.417488 961.92355 86.91976 962.00695 86.462891 962.17271 C 81.108962 963.62536 76.95851 967.77579 75.505859 973.12974 C 75.340116 973.58681 75.258878 974.0826 75.173828 974.58091 C 75.090956 974.99636 75.009267 975.41115 74.966797 975.86802 C 74.924337 976.40757 74.882812 976.94741 74.882812 977.48716 L 74.884766 977.48521 C 74.884766 978.93785 75.09233 980.30748 75.423828 981.6356 C 76.876479 987.1556 81.151346 991.43095 86.712891 992.88364 C 87.999582 993.21635 89.369626 993.42466 90.822266 993.42466 C 92.274914 993.42466 93.643099 993.21514 94.929688 992.88364 C 100.49123 991.43106 104.76611 987.1556 106.21875 981.6356 C 106.5513 980.30748 106.75977 978.93785 106.75977 977.48521 C 106.71822 973.00282 104.8091 968.72781 101.44727 965.6981 L 101.44727 965.57505 C 100.61724 964.86945 99.745145 964.24608 98.791016 963.66489 C 97.628957 963.00042 96.341791 962.46272 95.013672 962.08872 L 94.888672 962.08872 C 93.560543 961.71472 92.233374 961.54771 90.822266 961.54771 z " />
  </g>
</svg>
