<?xml version="1.0" encoding="UTF-8" standalone="no"?>
<svg
   sodipodi:docname="go-bottom-symbolic.svg"
   inkscape:version="1.2.1 (9c6d41e410, 2022-07-14)"
   version="1.1"
   id="svg2"
   viewBox="0 0 256 256"
   height="256"
   width="256"
   xmlns:inkscape="http://www.inkscape.org/namespaces/inkscape"
   xmlns:sodipodi="http://sodipodi.sourceforge.net/DTD/sodipodi-0.dtd"
   xmlns="http://www.w3.org/2000/svg"
   xmlns:svg="http://www.w3.org/2000/svg"
   xmlns:rdf="http://www.w3.org/1999/02/22-rdf-syntax-ns#"
   xmlns:cc="http://creativecommons.org/ns#"
   xmlns:dc="http://purl.org/dc/elements/1.1/">
  <sodipodi:namedview
     inkscape:window-maximized="1"
     inkscape:window-y="0"
     inkscape:window-x="0"
     inkscape:window-height="1048"
     inkscape:window-width="1920"
     units="px"
     showgrid="true"
     inkscape:current-layer="g1594"
     inkscape:document-units="px"
     inkscape:cy="128"
     inkscape:cx="89.688073"
     inkscape:zoom="3.40625"
     inkscape:pageshadow="2"
     inkscape:pageopacity="0.0"
     borderopacity="1.0"
     bordercolor="#666666"
     pagecolor="#ffffff"
     id="base"
     inkscape:document-rotation="0"
     inkscape:showpageshadow="2"
     inkscape:pagecheckerboard="0"
     inkscape:deskcolor="#d1d1d1">
    <inkscape:grid
       type="xygrid"
       id="grid4191"
       spacingx="5"
       spacingy="5" />
  </sodipodi:namedview>
  <defs
     id="defs4">
    <inkscape:path-effect
       is_visible="true"
       id="path-effect4829"
       effect="spiro" />
    <inkscape:path-effect
       is_visible="true"
       id="path-effect4153"
       effect="spiro" />
    <inkscape:path-effect
       is_visible="true"
       id="path-effect4175"
       effect="spiro" />
    <clipPath
       clipPathUnits="userSpaceOnUse"
       id="clipPath4174">
      <circle
         style="fill:#cc2828;fill-opacity:1;stroke:none;stroke-width:0;stroke-linecap:round;stroke-linejoin:round;stroke-miterlimit:4;stroke-dasharray:none;stroke-opacity:1"
         id="circle4176"
         cx="128"
         cy="924.36218"
         r="128" />
    </clipPath>
    <clipPath
       clipPathUnits="userSpaceOnUse"
       id="clipPath4183">
      <circle
         style="fill:#cc2828;fill-opacity:1;stroke:none;stroke-width:0;stroke-linecap:round;stroke-linejoin:round;stroke-miterlimit:4;stroke-dasharray:none;stroke-opacity:1"
         id="circle4185"
         cx="-924.36218"
         cy="128.00002"
         r="128"
         transform="matrix(0,-1,1,0,0,0)" />
    </clipPath>
    <clipPath
       clipPathUnits="userSpaceOnUse"
       id="clipPath4187">
      <circle
         style="fill:#cc2828;fill-opacity:1;stroke:none;stroke-width:0;stroke-linecap:round;stroke-linejoin:round;stroke-miterlimit:4;stroke-dasharray:none;stroke-opacity:1"
         id="circle4189"
         cx="128"
         cy="924.36218"
         r="128" />
    </clipPath>
    <clipPath
       clipPathUnits="userSpaceOnUse"
       id="clipPath4209">
      <circle
         style="fill:#cc2828;fill-opacity:1;stroke:none;stroke-width:0;stroke-linecap:round;stroke-linejoin:round;stroke-miterlimit:4;stroke-dasharray:none;stroke-opacity:1"
         id="circle4211"
         cx="-924.36218"
         cy="128"
         r="128"
         transform="matrix(0,-1,1,0,0,0)" />
    </clipPath>
    <clipPath
       clipPathUnits="userSpaceOnUse"
       id="clipPath4213">
      <circle
         style="fill:#cc2828;fill-opacity:1;stroke:none;stroke-width:0;stroke-linecap:round;stroke-linejoin:round;stroke-miterlimit:4;stroke-dasharray:none;stroke-opacity:1"
         id="circle4215"
         cx="128"
         cy="924.36218"
         r="128" />
    </clipPath>
    <clipPath
       id="clipPath4381"
       clipPathUnits="userSpaceOnUse">
      <circle
         transform="matrix(0.77780341,0.62850764,-0.62850764,0.77780341,0,0)"
         style="fill:#d83838;fill-opacity:1;stroke:none;stroke-width:0;stroke-linecap:round;stroke-linejoin:round;stroke-miterlimit:4;stroke-dasharray:none;stroke-opacity:1"
         id="circle4383"
         cx="686.50537"
         cy="640.4978"
         r="128" />
    </clipPath>
    <clipPath
       id="clipPath4857"
       clipPathUnits="userSpaceOnUse">
      <circle
         style="fill:#68bdff;fill-opacity:1;stroke:none;stroke-width:0;stroke-linecap:round;stroke-linejoin:round;stroke-miterlimit:4;stroke-dasharray:none;stroke-opacity:1"
         id="circle4859"
         cx="128"
         cy="924.36218"
         r="128" />
    </clipPath>
    <clipPath
       clipPathUnits="userSpaceOnUse"
       id="clipPath5081">
      <circle
         style="fill:#68bdff;fill-opacity:1;stroke:none;stroke-width:0;stroke-linecap:round;stroke-linejoin:round;stroke-miterlimit:4;stroke-dasharray:none;stroke-opacity:1"
         id="circle5083"
         cx="-127.94974"
         cy="924.36218"
         r="128"
         transform="scale(-1,1)" />
    </clipPath>
  </defs>
  <metadata
     id="metadata7">
    <rdf:RDF>
      <cc:Work
         rdf:about="">
        <dc:format>image/svg+xml</dc:format>
        <dc:type
           rdf:resource="http://purl.org/dc/dcmitype/StillImage" />
        <dc:title />
      </cc:Work>
    </rdf:RDF>
  </metadata>
  <g
     transform="translate(0,-796.36216)"
     id="layer1"
     inkscape:groupmode="layer"
     inkscape:label="Layer 1">
    <g
       id="g1594">
      <path
         id="path486"
         style="fill:#68bdff;stroke-width:105.994;fill-opacity:1"
         d="M 128 796.36216 A 128 128 0 0 0 0 924.36216 A 128 128 0 0 0 128 1052.3622 A 128 128 0 0 0 256 924.36216 A 128 128 0 0 0 128 796.36216 z M 53.667969 868.36216 L 128 942.53208 L 202.33203 868.36216 L 225.16602 891.19614 L 128 988.36216 L 30.833984 891.19614 L 53.667969 868.36216 z M 220.63867 1000.6434 C 198.62932 1027.3417 165.30237 1044.3622 128 1044.3622 C 91.535449 1044.3622 58.869694 1028.0985 36.861328 1002.4286 L 220.63867 1000.6434 z " />
      <path
         style="fill:#b5ffff;stroke-width:181.02"
         d="m 146.34961,1051.0301 a 128,128 0 0 1 -0.375,0.047 128,128 0 0 0 0.375,-0.047 z"
         id="path484" />
      <path
         style="fill:#b5ffff;stroke-width:181.02"
         d="m 164.30664,1047.0848 a 128,128 0 0 1 -0.64062,0.1778 128,128 0 0 0 0.64062,-0.1778 z"
         id="path482" />
      <path
         style="fill:#b5ffff;stroke-width:181.02"
         d="m 181.50781,1040.6122 a 128,128 0 0 1 -0.82422,0.3671 128,128 0 0 0 0.82422,-0.3671 z"
         id="path480" />
      <path
         style="fill:#b5ffff;stroke-width:181.02"
         d="m 197.55859,1031.7743 a 128,128 0 0 1 -0.83203,0.5273 128,128 0 0 0 0.83203,-0.5273 z"
         id="path478" />
      <path
         style="fill:#b5ffff;stroke-width:181.02"
         d="m 212.19336,1020.7274 a 128,128 0 0 1 -0.81641,0.7051 128,128 0 0 0 0.81641,-0.7051 z"
         id="path474" />
      <path
         style="fill:#b5ffff;stroke-width:181.02"
         d="m 225.07031,1007.7391 a 128,128 0 0 1 -0.70508,0.8164 128,128 0 0 0 0.70508,-0.8164 z"
         id="path472" />
      <path
         style="fill:#b5ffff;stroke-width:181.02"
         d="m 235.93945,993.08872 a 128,128 0 0 1 -0.52734,0.83203 128,128 0 0 0 0.52734,-0.83203 z"
         id="path470" />
      <path
         style="fill:#b5ffff;stroke-width:181.02"
         d="m 244.61719,977.04575 a 128,128 0 0 1 -0.36719,0.82422 128,128 0 0 0 0.36719,-0.82422 z"
         id="path468" />
      <path
         style="fill:#b5ffff;stroke-width:181.02"
         d="m 250.90039,960.02818 a 128,128 0 0 1 -0.17773,0.64062 128,128 0 0 0 0.17773,-0.64062 z"
         id="path466" />
      <path
         style="fill:#b5ffff;stroke-width:181.02"
         d="m 254.71484,942.33677 a 128,128 0 0 1 -0.0469,0.375 128,128 0 0 0 0.0469,-0.375 z"
         id="path464" />
      <g
         transform="matrix(-1,0,0,1,256,-4e-5)"
         id="g842" />
    </g>
  </g>
</svg>
