<?xml version="1.0" encoding="UTF-8" standalone="no"?>
<!-- Created with Inkscape (http://www.inkscape.org/) -->

<svg
   xmlns:dc="http://purl.org/dc/elements/1.1/"
   xmlns:cc="http://creativecommons.org/ns#"
   xmlns:rdf="http://www.w3.org/1999/02/22-rdf-syntax-ns#"
   xmlns:svg="http://www.w3.org/2000/svg"
   xmlns="http://www.w3.org/2000/svg"
   xmlns:sodipodi="http://sodipodi.sourceforge.net/DTD/sodipodi-0.dtd"
   xmlns:inkscape="http://www.inkscape.org/namespaces/inkscape"
   width="256"
   height="256"
   viewBox="0 0 256 256"
   id="svg2"
   version="1.1"
   inkscape:version="0.92.4 (unknown)"
   sodipodi:docname="help-about.svg">
  <sodipodi:namedview
     id="base"
     pagecolor="#ffffff"
     bordercolor="#666666"
     borderopacity="1.0"
     inkscape:pageopacity="0.0"
     inkscape:pageshadow="2"
     inkscape:zoom="3.3359375"
     inkscape:cx="63.250585"
     inkscape:cy="127.99998"
     inkscape:document-units="px"
     inkscape:current-layer="layer1"
     showgrid="true"
     units="px"
     inkscape:window-width="1920"
     inkscape:window-height="1048"
     inkscape:window-x="0"
     inkscape:window-y="0"
     inkscape:window-maximized="1">
    <inkscape:grid
       type="xygrid"
       id="grid4136"
       spacingx="5"
       spacingy="5" />
  </sodipodi:namedview>
  <defs
     id="defs4">
    <clipPath
       clipPathUnits="userSpaceOnUse"
       id="clipPath4828">
      <circle
         r="128"
         cy="924.36218"
         cx="128"
         id="circle4830"
         style="opacity:1;fill:#68bdff;fill-opacity:1;stroke:none;stroke-width:52.82038116;stroke-linecap:round;stroke-linejoin:round;stroke-miterlimit:4;stroke-dasharray:none;stroke-opacity:1" />
    </clipPath>
    <clipPath
       clipPathUnits="userSpaceOnUse"
       id="clipPath4851">
      <path
         id="path4853"
         d="m 128,796.36216 a 128,128 0 0 0 -87.652344,34.83789 l 86.988284,87.51367 90.69336,-85.25976 A 128,128 0 0 0 128,796.36216 Z M 23.730469,850.28404 A 128,128 0 0 0 0,924.36216 128,128 0 0 0 128,1052.3622 128,128 0 0 0 256,924.36216 128,128 0 0 0 234.1582,852.93052 l -95.94336,90.19922 c -0.48074,0.45195 -0.99482,0.84265 -1.52148,1.20508 -0.25351,0.30378 -0.51825,0.602 -0.80469,0.88672 -4.95863,4.92876 -12.91888,4.90394 -17.84765,-0.0547 L 23.730469,850.28404 Z"
         style="opacity:1;fill:#68bdff;fill-opacity:1;stroke:none;stroke-width:52.82038116;stroke-linecap:round;stroke-linejoin:round;stroke-miterlimit:4;stroke-dasharray:none;stroke-opacity:1"
         inkscape:connector-curvature="0" />
    </clipPath>
    <clipPath
       clipPathUnits="userSpaceOnUse"
       id="clipPath4147">
      <path
         id="path4149"
         d="M 23.730469,850.28404 A 128,128 0 0 0 0,924.36216 128,128 0 0 0 128,1052.3622 128,128 0 0 0 256,924.36216 128,128 0 0 0 234.1582,852.93052 l -95.94336,90.19922 c -0.48074,0.45195 -0.99482,0.84265 -1.52148,1.20508 -0.25351,0.30378 -0.51825,0.602 -0.80469,0.88672 -4.95863,4.92876 -12.91888,4.90394 -17.84765,-0.0547 l -94.310551,-94.8828 z"
         style="opacity:1;fill:#fff168;fill-opacity:1;stroke:none;stroke-width:52.82038116;stroke-linecap:round;stroke-linejoin:round;stroke-miterlimit:4;stroke-dasharray:none;stroke-opacity:1"
         inkscape:connector-curvature="0" />
    </clipPath>
    <filter
       style="color-interpolation-filters:sRGB"
       inkscape:label="Drop Shadow"
       id="filter5743">
      <feFlood
         flood-opacity="0.498039"
         flood-color="rgb(0,0,0)"
         result="flood"
         id="feFlood5745" />
      <feComposite
         in="flood"
         in2="SourceGraphic"
         operator="in"
         result="composite1"
         id="feComposite5747" />
      <feGaussianBlur
         in="composite1"
         stdDeviation="3.7"
         result="blur"
         id="feGaussianBlur5749" />
      <feOffset
         dx="-3.7"
         dy="-4"
         result="offset"
         id="feOffset5751" />
      <feComposite
         in="SourceGraphic"
         in2="offset"
         operator="over"
         result="composite2"
         id="feComposite5753" />
    </filter>
    <inkscape:path-effect
       is_visible="true"
       id="path-effect4208"
       effect="spiro" />
    <clipPath
       id="clipPath4273"
       clipPathUnits="userSpaceOnUse">
      <path
         inkscape:connector-curvature="0"
         id="path4275"
         d="m 128,796.36216 a 128,128 0 0 0 -87.652344,34.83789 l 86.988284,87.51367 90.69336,-85.25976 A 128,128 0 0 0 128,796.36216 Z M 23.730469,850.28404 A 128,128 0 0 0 0,924.36216 128,128 0 0 0 128,1052.3622 128,128 0 0 0 256,924.36216 128,128 0 0 0 234.1582,852.93052 l -95.94336,90.19922 c -0.48074,0.45195 -0.99482,0.84265 -1.52148,1.20508 -0.25351,0.30378 -0.51825,0.602 -0.80469,0.88672 -4.95863,4.92876 -12.91888,4.90394 -17.84765,-0.0547 L 23.730469,850.28404 Z"
         style="opacity:1;fill:#0592ff;fill-opacity:1;stroke:none;stroke-width:52.82038116;stroke-linecap:round;stroke-linejoin:round;stroke-miterlimit:4;stroke-dasharray:none;stroke-opacity:1" />
    </clipPath>
    <clipPath
       clipPathUnits="userSpaceOnUse"
       id="clipPath973">
      <circle
         style="fill:#f0e482;fill-opacity:1;stroke:none;stroke-width:41.80462646;stroke-miterlimit:4;stroke-dasharray:none;stroke-opacity:1"
         id="circle975"
         cx="128"
         cy="924.36218"
         r="128" />
    </clipPath>
  </defs>
  <metadata
     id="metadata7">
    <rdf:RDF>
      <cc:Work
         rdf:about="">
        <dc:format>image/svg+xml</dc:format>
        <dc:type
           rdf:resource="http://purl.org/dc/dcmitype/StillImage" />
        <dc:title />
      </cc:Work>
    </rdf:RDF>
  </metadata>
  <g
     inkscape:label="Layer 1"
     inkscape:groupmode="layer"
     id="layer1"
     transform="translate(0,-796.36216)">
    <path
       d="m 256,-924.36218 a 128,128 0 0 1 -64,110.85125 128,128 0 0 1 -128.000003,0 A 128,128 0 0 1 0,-924.36219 l 128,1e-5 z"
       sodipodi:end="3.1415927"
       sodipodi:start="0"
       sodipodi:ry="128"
       sodipodi:rx="128"
       sodipodi:cy="-924.36218"
       sodipodi:cx="128"
       sodipodi:type="arc"
       style="fill:#a49519;fill-opacity:1;stroke:none;stroke-width:41.80462646;stroke-miterlimit:4;stroke-dasharray:none;stroke-opacity:1"
       id="path848"
       transform="scale(1,-1)" />
    <path
       id="path858"
       style="fill:#e1cf39;fill-opacity:1;stroke:none;stroke-width:41.80462646;stroke-miterlimit:4;stroke-dasharray:none;stroke-opacity:1"
       sodipodi:type="arc"
       sodipodi:cx="128"
       sodipodi:cy="924.36218"
       sodipodi:rx="128"
       sodipodi:ry="128"
       sodipodi:start="0"
       sodipodi:end="3.1415927"
       d="m 256,924.36218 a 128,128 0 0 1 -64,110.85122 128,128 0 0 1 -128.000003,0 A 128,128 0 0 1 0,924.36218 l 128,0 z" />
    <path
       d="m 128,1009.3622 c -13.7784,0 -20.30924,-45.20518 -30.052038,-54.94798 C 88.205161,944.67142 43,938.14059 43,924.36218 43,910.58378 88.205161,904.05295 97.947962,894.31014 107.69076,884.56734 114.2216,839.36218 128,839.36218 c 13.7784,0 20.30924,45.20516 30.05204,54.94796 9.7428,9.7428 54.94796,16.27364 54.94796,30.05204 0,13.7784 -45.20516,20.30924 -54.94796,30.05204 -9.7428,9.7428 -16.27364,54.94798 -30.05204,54.94798 z"
       inkscape:randomized="0"
       inkscape:rounded="0.22"
       inkscape:flatsided="false"
       sodipodi:arg2="2.3561945"
       sodipodi:arg1="1.5707963"
       sodipodi:r2="42.5"
       sodipodi:r1="85"
       sodipodi:cy="924.36216"
       sodipodi:cx="128"
       sodipodi:sides="4"
       id="path862"
       style="fill:#ffffff;fill-opacity:1;stroke:none;stroke-width:16.19047546;stroke-miterlimit:4;stroke-dasharray:none;stroke-opacity:1"
       sodipodi:type="star" />
  </g>
</svg>
