<?xml version="1.0" encoding="UTF-8" standalone="no"?>
<!-- Created with Inkscape (http://www.inkscape.org/) -->

<svg
   xmlns:dc="http://purl.org/dc/elements/1.1/"
   xmlns:cc="http://creativecommons.org/ns#"
   xmlns:rdf="http://www.w3.org/1999/02/22-rdf-syntax-ns#"
   xmlns:svg="http://www.w3.org/2000/svg"
   xmlns="http://www.w3.org/2000/svg"
   xmlns:sodipodi="http://sodipodi.sourceforge.net/DTD/sodipodi-0.dtd"
   xmlns:inkscape="http://www.inkscape.org/namespaces/inkscape"
   width="256"
   height="256"
   viewBox="0 0 256 256"
   id="svg2"
   version="1.1"
   inkscape:version="0.91 r13725"
   sodipodi:docname="process-stop-symbolic.svg">
  <defs
     id="defs4">
    <inkscape:path-effect
       is_visible="true"
       id="path-effect4172"
       effect="spiro" />
    <inkscape:path-effect
       effect="spiro"
       id="path-effect4176"
       is_visible="true" />
  </defs>
  <sodipodi:namedview
     id="base"
     pagecolor="#ffffff"
     bordercolor="#666666"
     borderopacity="1.0"
     inkscape:pageopacity="0.0"
     inkscape:pageshadow="2"
     inkscape:zoom="3.3632812"
     inkscape:cx="73.886178"
     inkscape:cy="128"
     inkscape:document-units="px"
     inkscape:current-layer="layer1"
     showgrid="false"
     units="px"
     inkscape:window-width="1920"
     inkscape:window-height="1054"
     inkscape:window-x="0"
     inkscape:window-y="0"
     inkscape:window-maximized="1" />
  <metadata
     id="metadata7">
    <rdf:RDF>
      <cc:Work
         rdf:about="">
        <dc:format>image/svg+xml</dc:format>
        <dc:type
           rdf:resource="http://purl.org/dc/dcmitype/StillImage" />
        <dc:title />
      </cc:Work>
    </rdf:RDF>
  </metadata>
  <g
     inkscape:label="Layer 1"
     inkscape:groupmode="layer"
     id="layer1"
     transform="translate(0,-796.36216)">
    <path
       style="fill:#d10803;fill-opacity:1;stroke:#841100;stroke-width:0;stroke-linecap:round;stroke-linejoin:round;stroke-miterlimit:4;stroke-dasharray:none;stroke-opacity:1"
       d="m 37.490357,1014.8718 a 128,128 0 0 0 181.019293,0 128,128 0 0 0 3e-5,-181.01932 128,128 0 0 0 -181.019326,0 128,128 0 0 0 3e-6,181.01932 z m 25.10229,-25.10227 c -7.165246,-7.16525 -6.24468,-19.62273 2.064695,-27.93211 L 102.13261,924.36215 64.65734,886.88688 c -8.309368,-8.30938 -9.229936,-20.76686 -2.064695,-27.9321 7.165254,-7.16526 19.622729,-6.24468 27.932103,2.06469 l 37.475272,37.47527 37.47528,-37.47527 c 8.30937,-8.30937 20.76684,-9.22994 27.93209,-2.0647 7.16524,7.16525 6.24471,19.62271 -2.06468,27.9321 l -37.47527,37.47528 37.47527,37.47527 c 8.30941,8.30941 9.22996,20.76689 2.06472,27.93214 -7.16525,7.16525 -19.6228,6.24461 -27.93214,-2.06473 l -37.47527,-37.47527 -37.47528,37.47527 c -8.309365,8.30938 -20.766844,9.22994 -27.932093,2.0647 z"
       id="path4136"
       inkscape:connector-curvature="0" />
  </g>
</svg>
