<?xml version="1.0" encoding="UTF-8" standalone="no"?>
<!-- Created with Inkscape (http://www.inkscape.org/) -->

<svg
   xmlns:dc="http://purl.org/dc/elements/1.1/"
   xmlns:cc="http://creativecommons.org/ns#"
   xmlns:rdf="http://www.w3.org/1999/02/22-rdf-syntax-ns#"
   xmlns:svg="http://www.w3.org/2000/svg"
   xmlns="http://www.w3.org/2000/svg"
   xmlns:sodipodi="http://sodipodi.sourceforge.net/DTD/sodipodi-0.dtd"
   xmlns:inkscape="http://www.inkscape.org/namespaces/inkscape"
   width="256"
   height="256"
   viewBox="0 0 256 256"
   id="svg2"
   version="1.1"
   inkscape:version="0.92.4 (unknown)"
   sodipodi:docname="format-text-italic.svg">
  <sodipodi:namedview
     id="base"
     pagecolor="#ffffff"
     bordercolor="#666666"
     borderopacity="1.0"
     inkscape:pageopacity="0.0"
     inkscape:pageshadow="2"
     inkscape:zoom="3.3359375"
     inkscape:cx="10.791569"
     inkscape:cy="128"
     inkscape:document-units="px"
     inkscape:current-layer="layer1"
     showgrid="true"
     units="px"
     inkscape:window-width="1920"
     inkscape:window-height="1048"
     inkscape:window-x="0"
     inkscape:window-y="0"
     inkscape:window-maximized="1">
    <inkscape:grid
       type="xygrid"
       id="grid4191"
       spacingx="5"
       spacingy="5" />
  </sodipodi:namedview>
  <defs
     id="defs4">
    <inkscape:path-effect
       is_visible="true"
       id="path-effect4829"
       effect="spiro" />
    <inkscape:path-effect
       is_visible="true"
       id="path-effect4153"
       effect="spiro" />
    <inkscape:path-effect
       is_visible="true"
       id="path-effect4175"
       effect="spiro" />
    <clipPath
       clipPathUnits="userSpaceOnUse"
       id="clipPath4174">
      <circle
         style="fill:#cc2828;fill-opacity:1;stroke:none;stroke-width:0;stroke-linecap:round;stroke-linejoin:round;stroke-miterlimit:4;stroke-dasharray:none;stroke-opacity:1"
         id="circle4176"
         cx="128"
         cy="924.36218"
         r="128" />
    </clipPath>
    <clipPath
       clipPathUnits="userSpaceOnUse"
       id="clipPath4183">
      <circle
         style="fill:#cc2828;fill-opacity:1;stroke:none;stroke-width:0;stroke-linecap:round;stroke-linejoin:round;stroke-miterlimit:4;stroke-dasharray:none;stroke-opacity:1"
         id="circle4185"
         cx="-924.36218"
         cy="128.00002"
         r="128"
         transform="matrix(0,-1,1,0,0,0)" />
    </clipPath>
    <clipPath
       clipPathUnits="userSpaceOnUse"
       id="clipPath4187">
      <circle
         style="fill:#cc2828;fill-opacity:1;stroke:none;stroke-width:0;stroke-linecap:round;stroke-linejoin:round;stroke-miterlimit:4;stroke-dasharray:none;stroke-opacity:1"
         id="circle4189"
         cx="128"
         cy="924.36218"
         r="128" />
    </clipPath>
    <clipPath
       clipPathUnits="userSpaceOnUse"
       id="clipPath4209">
      <circle
         style="fill:#cc2828;fill-opacity:1;stroke:none;stroke-width:0;stroke-linecap:round;stroke-linejoin:round;stroke-miterlimit:4;stroke-dasharray:none;stroke-opacity:1"
         id="circle4211"
         cx="-924.36218"
         cy="128"
         r="128"
         transform="matrix(0,-1,1,0,0,0)" />
    </clipPath>
    <clipPath
       clipPathUnits="userSpaceOnUse"
       id="clipPath4213">
      <circle
         style="fill:#cc2828;fill-opacity:1;stroke:none;stroke-width:0;stroke-linecap:round;stroke-linejoin:round;stroke-miterlimit:4;stroke-dasharray:none;stroke-opacity:1"
         id="circle4215"
         cx="128"
         cy="924.36218"
         r="128" />
    </clipPath>
    <clipPath
       id="clipPath4381"
       clipPathUnits="userSpaceOnUse">
      <circle
         transform="matrix(0.77780341,0.62850764,-0.62850764,0.77780341,0,0)"
         style="fill:#d83838;fill-opacity:1;stroke:none;stroke-width:0;stroke-linecap:round;stroke-linejoin:round;stroke-miterlimit:4;stroke-dasharray:none;stroke-opacity:1"
         id="circle4383"
         cx="686.50537"
         cy="640.4978"
         r="128" />
    </clipPath>
    <clipPath
       id="clipPath4857"
       clipPathUnits="userSpaceOnUse">
      <circle
         style="fill:#68bdff;fill-opacity:1;stroke:none;stroke-width:0;stroke-linecap:round;stroke-linejoin:round;stroke-miterlimit:4;stroke-dasharray:none;stroke-opacity:1"
         id="circle4859"
         cx="128"
         cy="924.36218"
         r="128" />
    </clipPath>
    <clipPath
       clipPathUnits="userSpaceOnUse"
       id="clipPath5081">
      <circle
         style="fill:#68bdff;fill-opacity:1;stroke:none;stroke-width:0;stroke-linecap:round;stroke-linejoin:round;stroke-miterlimit:4;stroke-dasharray:none;stroke-opacity:1"
         id="circle5083"
         cx="-127.94974"
         cy="924.36218"
         r="128"
         transform="scale(-1,1)" />
    </clipPath>
    <inkscape:path-effect
       is_visible="true"
       id="path-effect4168"
       effect="spiro" />
    <inkscape:path-effect
       fuse_tolerance="0"
       vertical_pattern="false"
       prop_units="false"
       tang_offset="0"
       normal_offset="0"
       spacing="0"
       scale_y_rel="false"
       prop_scale="1"
       copytype="single_stretched"
       pattern="m 0,790.36216 1,0"
       is_visible="true"
       id="path-effect4170"
       effect="skeletal" />
    <inkscape:path-effect
       is_visible="true"
       id="path-effect4174"
       effect="spiro" />
    <inkscape:path-effect
       fuse_tolerance="0"
       vertical_pattern="false"
       prop_units="false"
       tang_offset="0"
       normal_offset="0"
       spacing="0"
       scale_y_rel="false"
       prop_scale="1"
       copytype="single_stretched"
       pattern="m 0,802.36216 1,0"
       is_visible="true"
       id="path-effect4176"
       effect="skeletal" />
    <clipPath
       id="clipPath3479"
       clipPathUnits="userSpaceOnUse">
      <circle
         style="fill:#68bdff;fill-opacity:1;stroke:none;stroke-width:0;stroke-linecap:round;stroke-linejoin:round;stroke-miterlimit:4;stroke-dasharray:none;stroke-opacity:1"
         id="circle3481"
         cx="128"
         cy="924.36218"
         r="128" />
    </clipPath>
    <clipPath
       clipPathUnits="userSpaceOnUse"
       id="clipPath4421">
      <circle
         style="fill:#82adce;fill-opacity:1;stroke:none;stroke-width:0;stroke-linecap:round;stroke-linejoin:round;stroke-miterlimit:4;stroke-dasharray:none;stroke-opacity:1"
         id="circle4423"
         cx="127.8719"
         cy="922.36218"
         r="128" />
    </clipPath>
    <clipPath
       id="clipPath3472"
       clipPathUnits="userSpaceOnUse">
      <circle
         style="fill:#ee5858;fill-opacity:1;stroke:none;stroke-width:0;stroke-linecap:round;stroke-linejoin:round;stroke-miterlimit:4;stroke-dasharray:none;stroke-opacity:1"
         id="circle3474"
         cx="128"
         cy="924.36218"
         r="128" />
    </clipPath>
    <clipPath
       clipPathUnits="userSpaceOnUse"
       id="clipPath5269">
      <path
         style="fill:#ee5858;fill-opacity:1;stroke:none;stroke-width:0;stroke-linecap:round;stroke-linejoin:round;stroke-miterlimit:4;stroke-dasharray:none;stroke-opacity:1"
         d="M 256,924.36218 A 128,128 0 0 1 128,1052.3622 128,128 0 0 1 0,924.36218 a 128,128 0 0 1 128,-128 128,128 0 0 1 128,128 z"
         id="path5271"
         inkscape:connector-curvature="0" />
    </clipPath>
    <clipPath
       id="clipPath1179"
       clipPathUnits="userSpaceOnUse">
      <path
         inkscape:connector-curvature="0"
         style="fill:#ee5858;fill-opacity:1;stroke:none;stroke-width:0;stroke-linecap:round;stroke-linejoin:round;stroke-miterlimit:4;stroke-dasharray:none;stroke-opacity:1"
         d="M 256,924.36218 A 128,128 0 0 1 128,1052.3622 128,128 0 0 1 0,924.36218 a 128,128 0 0 1 128,-128 128,128 0 0 1 128,128 z"
         id="path1181" />
    </clipPath>
    <clipPath
       clipPathUnits="userSpaceOnUse"
       id="clipPath3937">
      <path
         style="fill:#ee5858;fill-opacity:1;stroke:none;stroke-width:0;stroke-linecap:round;stroke-linejoin:round;stroke-miterlimit:4;stroke-dasharray:none;stroke-opacity:1"
         d="M 256,924.36218 A 128,128 0 0 1 128,1052.3622 128,128 0 0 1 0,924.36218 a 128,128 0 0 1 128,-128 128,128 0 0 1 128,128 z"
         id="path3939"
         inkscape:connector-curvature="0" />
    </clipPath>
  </defs>
  <metadata
     id="metadata7">
    <rdf:RDF>
      <cc:Work
         rdf:about="">
        <dc:format>image/svg+xml</dc:format>
        <dc:type
           rdf:resource="http://purl.org/dc/dcmitype/StillImage" />
        <dc:title />
      </cc:Work>
    </rdf:RDF>
  </metadata>
  <g
     transform="translate(0,-796.36216)"
     id="layer1"
     inkscape:groupmode="layer"
     inkscape:label="Layer 1">
    <g
       id="g2150"
       transform="translate(275,19.999977)">
      <path
         transform="scale(1,-1)"
         id="path867"
         style="fill:#ae2020;fill-opacity:1;stroke:none;stroke-width:31.56804466;stroke-linecap:round;stroke-linejoin:round;stroke-miterlimit:4;stroke-dasharray:none;stroke-opacity:1"
         sodipodi:type="arc"
         sodipodi:cx="-147"
         sodipodi:cy="-904.36218"
         sodipodi:rx="128"
         sodipodi:ry="128"
         sodipodi:start="0"
         sodipodi:end="3.1415927"
         d="m -19,-904.36218 a 128,128 0 0 1 -64.000002,110.85125 128,128 0 0 1 -127.999998,0 128,128 0 0 1 -64,-110.85126 l 128,1e-5 z" />
      <path
         d="m -19,904.36218 a 128,128 0 0 1 -64.000002,110.85122 128,128 0 0 1 -127.999998,0 128,128 0 0 1 -64,-110.85122 l 128,0 z"
         sodipodi:end="3.1415927"
         sodipodi:start="0"
         sodipodi:ry="128"
         sodipodi:rx="128"
         sodipodi:cy="904.36218"
         sodipodi:cx="-147"
         sodipodi:type="arc"
         style="fill:#ee5858;fill-opacity:1;stroke:none;stroke-width:31.56804466;stroke-linecap:round;stroke-linejoin:round;stroke-miterlimit:4;stroke-dasharray:none;stroke-opacity:1"
         id="path4172" />
    </g>
    <g
       aria-label="a"
       style="font-style:italic;font-variant:normal;font-weight:normal;font-stretch:normal;line-height:0%;font-family:sans-serif;-inkscape-font-specification:'sans-serif Italic';letter-spacing:0px;word-spacing:0px;fill:#fffbfb;fill-opacity:1;stroke:none;stroke-width:1px;stroke-linecap:butt;stroke-linejoin:miter;stroke-opacity:1"
       id="text5152">
      <path
         d="m 200.10424,912.77922 -18.09845,92.51928 h -26.64093 l 4.92278,-24.61388 q -11.7278,14.47877 -26.78571,21.71818 -14.91313,7.0946 -33.30116,7.0946 -20.704629,0 -34.025092,-12.59656 -13.175675,-12.74131 -13.175675,-32.57722 0,-28.37838 22.586871,-44.88417 22.73166,-16.50579 62.548256,-16.50579 h 37.06564 l 1.44788,-7.09459 q 0.28957,-1.1583 0.43436,-2.46139 0.14479,-1.44788 0.14479,-4.34363 0,-12.8861 -10.5695,-19.9807 -10.42471,-7.23938 -29.39189,-7.23938 -13.03089,0 -26.78571,3.33012 -13.610043,3.33011 -28.088806,9.99035 l 4.633204,-24.6139 q 15.057912,-5.64672 29.391892,-8.39769 14.47876,-2.89575 27.94401,-2.89575 28.66796,0 43.58108,12.45174 Q 203,864.13057 203,887.87575 q 0,4.77799 -0.72394,11.29343 -0.72394,6.37066 -2.17182,13.61004 z m -28.81274,11.00386 h -26.64092 q -32.72201,0 -48.503861,8.83205 -15.637065,8.68726 -15.637065,27.07529 0,12.74131 7.96332,19.98069 8.108108,7.23938 22.297296,7.23938 21.71815,0 37.93436,-15.49227 16.21622,-15.63707 21.42857,-41.69884 z"
         style="font-size:296.52508545px;line-height:1.25;fill:#fffbfb;fill-opacity:1"
         id="path862" />
      <path
         id="path865"
         style="font-size:296.52508545px;line-height:1.25;fill:#fffbfb;fill-opacity:1"
         d="m 200.10424,912.77922 -18.09845,92.51928 h -26.64093 l 4.92278,-24.61388 q -11.7278,14.47877 -26.78571,21.71818 -14.91313,7.0946 -33.30116,7.0946 -20.704629,0 -34.025092,-12.59656 -13.175675,-12.74131 -13.175675,-32.57722 0,-28.37838 22.586871,-44.88417 22.73166,-16.50579 62.548256,-16.50579 h 37.06564 l 1.44788,-7.09459 q 0.28957,-1.1583 0.43436,-2.46139 0.14479,-1.44788 0.14479,-4.34363 0,-12.8861 -10.5695,-19.9807 -10.42471,-7.23938 -29.39189,-7.23938 -13.03089,0 -26.78571,3.33012 -13.610043,3.33011 -28.088806,9.99035 l 4.633204,-24.6139 q 15.057912,-5.64672 29.391892,-8.39769 14.47876,-2.89575 27.94401,-2.89575 28.66796,0 43.58108,12.45174 Q 203,864.13057 203,887.87575 q 0,4.77799 -0.72394,11.29343 -0.72394,6.37066 -2.17182,13.61004 z m -28.81274,11.00386 h -26.64092 q -32.72201,0 -48.503861,8.83205 -15.637065,8.68726 -15.637065,27.07529 0,12.74131 7.96332,19.98069 8.108108,7.23938 22.297296,7.23938 21.71815,0 37.93436,-15.49227 16.21622,-15.63707 21.42857,-41.69884 z" />
    </g>
    <g
       clip-path="url(#clipPath1179)"
       id="g871"
       style="font-style:italic;font-variant:normal;font-weight:normal;font-stretch:normal;line-height:0%;font-family:sans-serif;-inkscape-font-specification:'sans-serif Italic';letter-spacing:0px;word-spacing:0px;fill:#ffffff;fill-opacity:1;stroke:none;stroke-width:1px;stroke-linecap:butt;stroke-linejoin:miter;stroke-opacity:1"
       aria-label="a" />
  </g>
</svg>
