<?xml version="1.0" encoding="UTF-8" standalone="no"?>
<svg
   xmlns:dc="http://purl.org/dc/elements/1.1/"
   xmlns:cc="http://creativecommons.org/ns#"
   xmlns:rdf="http://www.w3.org/1999/02/22-rdf-syntax-ns#"
   xmlns:svg="http://www.w3.org/2000/svg"
   xmlns="http://www.w3.org/2000/svg"
   xmlns:sodipodi="http://sodipodi.sourceforge.net/DTD/sodipodi-0.dtd"
   xmlns:inkscape="http://www.inkscape.org/namespaces/inkscape"
   width="256"
   height="256"
   viewBox="0 0 256 256"
   id="svg2"
   version="1.1"
   inkscape:version="1.0.1 (3bc2e813f5, 2020-09-07)"
   sodipodi:docname="emblem-dropbox-syncing.svg">
  <sodipodi:namedview
     id="base"
     pagecolor="#ffffff"
     bordercolor="#666666"
     borderopacity="1.0"
     inkscape:pageopacity="0.0"
     inkscape:pageshadow="2"
     inkscape:zoom="3.34375"
     inkscape:cx="128"
     inkscape:cy="128.00002"
     inkscape:document-units="px"
     inkscape:current-layer="layer1"
     showgrid="true"
     units="px"
     inkscape:window-width="1920"
     inkscape:window-height="1048"
     inkscape:window-x="0"
     inkscape:window-y="0"
     inkscape:window-maximized="1"
     inkscape:document-rotation="0">
    <inkscape:grid
       type="xygrid"
       id="grid4136"
       spacingx="5"
       spacingy="5" />
  </sodipodi:namedview>
  <defs
     id="defs4">
    <clipPath
       clipPathUnits="userSpaceOnUse"
       id="clipPath4241">
      <circle
         style="fill:#01a3d2;fill-opacity:1;stroke:none;stroke-width:20;stroke-miterlimit:4;stroke-dasharray:none;stroke-opacity:1"
         id="circle4243"
         cx="128"
         cy="924.36218"
         r="128" />
    </clipPath>
    <clipPath
       clipPathUnits="userSpaceOnUse"
       id="clipPath4979">
      <circle
         r="112.97391"
         cy="916.50555"
         cx="122.07819"
         id="circle4981"
         style="opacity:1;fill:#d1d1d1;fill-opacity:1;stroke:none;stroke-width:5.80000019;stroke-miterlimit:4;stroke-dasharray:none;stroke-opacity:1" />
    </clipPath>
    <clipPath
       clipPathUnits="userSpaceOnUse"
       id="clipPath4150">
      <circle
         r="97.146431"
         cy="917.15973"
         cx="121.79414"
         id="circle4152"
         style="opacity:1;fill:#7de05d;fill-opacity:1;stroke:none;stroke-width:5.80000019;stroke-miterlimit:4;stroke-dasharray:none;stroke-opacity:1" />
    </clipPath>
    <clipPath
       id="clipPath4843"
       clipPathUnits="userSpaceOnUse">
      <circle
         r="109.77983"
         cy="921.96045"
         cx="134.43372"
         id="circle4845"
         style="opacity:1;fill:#7de05d;fill-opacity:1;stroke:none;stroke-width:5.80000019;stroke-miterlimit:4;stroke-dasharray:none;stroke-opacity:1" />
    </clipPath>
    <clipPath
       clipPathUnits="userSpaceOnUse"
       id="clipPath950">
      <circle
         r="128"
         cy="924.36218"
         cx="128"
         id="circle952"
         style="opacity:1;fill:#678fee;fill-opacity:1;stroke:none;stroke-width:5.80000019;stroke-miterlimit:4;stroke-dasharray:none;stroke-opacity:1" />
    </clipPath>
  </defs>
  <metadata
     id="metadata7">
    <rdf:RDF>
      <cc:Work
         rdf:about="">
        <dc:format>image/svg+xml</dc:format>
        <dc:type
           rdf:resource="http://purl.org/dc/dcmitype/StillImage" />
        <dc:title />
      </cc:Work>
    </rdf:RDF>
  </metadata>
  <g
     inkscape:label="Layer 1"
     inkscape:groupmode="layer"
     id="layer1"
     transform="translate(0,-796.36216)">
    <path
       style="opacity:1;fill:#174ed0;fill-opacity:1;stroke:none;stroke-width:5.8;stroke-miterlimit:4;stroke-dasharray:none;stroke-opacity:1"
       id="path1504"
       sodipodi:type="arc"
       sodipodi:cx="128"
       sodipodi:cy="-924.36218"
       sodipodi:rx="128"
       sodipodi:ry="128"
       sodipodi:start="0"
       sodipodi:end="3.1415927"
       sodipodi:arc-type="slice"
       d="m 256,-924.36218 a 128,128 0 0 1 -64,110.85125 128,128 0 0 1 -128.000003,0 A 128,128 0 0 1 0,-924.36218 h 128 z"
       transform="scale(1,-1)" />
    <path
       style="opacity:1;fill:#678fee;fill-opacity:1;stroke:none;stroke-width:5.8;stroke-miterlimit:4;stroke-dasharray:none;stroke-opacity:1"
       id="path4138"
       sodipodi:type="arc"
       sodipodi:cx="128"
       sodipodi:cy="924.36218"
       sodipodi:rx="128"
       sodipodi:ry="128"
       sodipodi:start="0"
       sodipodi:end="3.1415927"
       sodipodi:arc-type="slice"
       d="m 256,924.36218 a 128,128 0 0 1 -64,110.85122 128,128 0 0 1 -128.000003,0 A 128,128 0 0 1 0,924.36218 h 128 z" />
    <g
       id="g4516"
       transform="matrix(-1.1659701,0,0,-1.1659701,284.7457,1999.3405)" />
    <path
       d="M 128,851.6349 V 824.36218 L 91.636377,860.7258 128,897.08942 V 869.8167 c 30.09089,0 54.54543,24.45454 54.54543,54.54544 0,9.18184 -2.27272,17.90911 -6.36363,25.45456 l 13.27272,13.27272 c 7.09091,-11.18181 11.27272,-24.45453 11.27272,-38.72728 0,-40.1818 -32.54545,-72.72724 -72.72724,-72.72724 z m 0,127.27273 c -30.090898,0 -54.545435,-24.45457 -54.545435,-54.54549 0,-9.18181 2.272727,-17.90908 6.363634,-25.45453 L 66.545477,885.63488 c -7.090906,11.18182 -11.272722,24.45454 -11.272722,38.72726 0,40.18186 32.545441,72.72732 72.727245,72.72732 v 27.27264 L 164.36361,987.99854 128,951.63488 Z"
       id="path916"
       style="stroke-width:9.09091;fill:#ffffff;fill-opacity:1" />
  </g>
</svg>
