<?xml version="1.0" encoding="UTF-8" standalone="no"?>
<svg
   xmlns:dc="http://purl.org/dc/elements/1.1/"
   xmlns:cc="http://creativecommons.org/ns#"
   xmlns:rdf="http://www.w3.org/1999/02/22-rdf-syntax-ns#"
   xmlns:svg="http://www.w3.org/2000/svg"
   xmlns="http://www.w3.org/2000/svg"
   xmlns:sodipodi="http://sodipodi.sourceforge.net/DTD/sodipodi-0.dtd"
   xmlns:inkscape="http://www.inkscape.org/namespaces/inkscape"
   width="256"
   height="256"
   viewBox="0 0 256 256"
   id="svg2"
   version="1.1"
   inkscape:version="1.0 (4035a4fb49, 2020-05-01)"
   sodipodi:docname="applications-games.svg">
  <sodipodi:namedview
     inkscape:document-rotation="0"
     id="base"
     pagecolor="#ffffff"
     bordercolor="#666666"
     borderopacity="1.0"
     inkscape:pageopacity="0.0"
     inkscape:pageshadow="2"
     inkscape:zoom="2.0507812"
     inkscape:cx="128"
     inkscape:cy="128"
     inkscape:document-units="px"
     inkscape:current-layer="layer1"
     showgrid="true"
     units="px"
     inkscape:window-width="1920"
     inkscape:window-height="1048"
     inkscape:window-x="0"
     inkscape:window-y="0"
     inkscape:window-maximized="1">
    <inkscape:grid
       spacingy="5"
       spacingx="5"
       id="grid4168"
       type="xygrid" />
  </sodipodi:namedview>
  <defs
     id="defs4">
    <clipPath
       id="clipPath5002"
       clipPathUnits="userSpaceOnUse">
      <g
         id="g5004">
        <path
           style="fill:#0f9d58;fill-opacity:1;stroke:none;stroke-width:4.85768509;stroke-linejoin:round;stroke-miterlimit:4;stroke-dasharray:none;stroke-opacity:1"
           d="M 88.118406,249.43519 C 46.103287,235.29134 14.771284,201.68742 4.1335861,159.36053 1.3377997,148.23623 0.92261224,144.16281 0.92582381,127.88908 0.92787958,117.47222 1.134384,112.01362 1.6577819,108.54099 4.4653598,89.913336 12.17654,70.638106 23.042737,55.086148 c 3.958678,-5.665755 8.344812,-10.93092 9.101533,-10.925587 0.32809,0.0023 10.488643,18.309713 22.579009,40.683112 12.090365,22.373397 22.374546,41.334697 22.853732,42.136217 0.479186,0.80151 0.924733,2.44098 0.990103,3.64326 0.343424,6.31639 2.524175,14.20976 5.6424,20.42304 2.954444,5.88693 5.065381,8.73258 10.434696,14.06652 6.71418,6.66995 12.88853,10.28643 21.73204,12.72904 3.16587,0.87442 5.10478,1.05037 11.57517,1.05037 8.82596,0 12.60219,-0.76201 19.26429,-3.88733 2.04584,-0.95974 3.93661,-1.66536 4.20172,-1.56805 0.2651,0.0973 -11.0555,17.66459 -25.1569,39.0384 l -25.6389,38.86148 -3.094121,0.11221 c -2.554618,0.0927 -4.195204,-0.25845 -9.409103,-2.01364 z"
           id="path5006"
           inkscape:connector-curvature="0"
           transform="translate(0,796.36216)" />
        <path
           style="fill:#f4b400;fill-opacity:1;stroke:none;stroke-width:4.85768509;stroke-linejoin:round;stroke-miterlimit:4;stroke-dasharray:none;stroke-opacity:1"
           d="m 112.35984,1051.5167 c -10.0014,-1.4495 -12.15632,-1.8201 -12.531784,-2.1556 -0.248854,-0.2223 1.738304,-3.7475 4.550294,-8.0722 7.16635,-11.0213 49.77231,-74.64801 50.25856,-75.05489 3.57509,-2.99158 8.63523,-8.0414 10.57512,-10.55356 3.36154,-4.35318 7.55784,-12.9141 9.06523,-18.494 6.19314,-22.92535 -2.59253,-47.15185 -21.69967,-59.83688 l -2.96081,-1.96565 17.02469,0.29584 c 9.36358,0.1627 31.17032,0.43384 48.45941,0.60252 l 31.43471,0.30668 1.54584,4.18869 c 2.24597,6.08579 4.67816,15.0947 5.93451,21.9816 1.52517,8.36049 1.92536,28.85896 0.73851,37.82758 -3.0805,23.27845 -12.81326,45.72018 -27.80202,64.10577 -20.47622,25.1166 -51.4599,42.1974 -84.14612,46.3885 -5.31244,0.6812 -26.64601,0.9864 -30.44647,0.4356 z"
           id="path5008"
           inkscape:connector-curvature="0" />
        <path
           style="fill:#db4437;fill-opacity:1;stroke:none;stroke-width:10;stroke-linejoin:round;stroke-miterlimit:4;stroke-dasharray:none;stroke-opacity:1"
           d="M 67.989788,108.87302 C 41.284246,59.575543 33.290284,45.149038 32.233625,44.344765 31.651257,43.901497 32.811213,42.549931 38.695603,36.815353 53.43581,22.450419 68.809334,13.040746 87.839196,6.7360352 101.68742,2.1480329 112.58238,0.43719165 127.95142,0.43719165 c 21.3099,0 37.80488,3.80960275 56.83492,13.12633035 25.29351,12.383198 46.19421,33.578863 58.51993,59.345832 1.61138,3.368591 2.92978,6.372442 2.92978,6.675231 0,0.560033 -10.54865,0.49527 -71.16508,-0.436914 l -24.28843,-0.373518 -3.93063,-1.764495 c -6.75732,-3.033425 -10.64587,-3.839529 -18.6576,-3.867747 -5.0296,-0.01773 -7.97946,0.207636 -10.31642,0.788106 -14.50826,3.603659 -26.283291,12.94777 -33.291614,26.418653 -3.58502,6.89086 -5.24713,13.08166 -6.331628,23.58317 l -0.33738,3.26696 -9.92748,-18.32578 z"
           id="path5010"
           inkscape:connector-curvature="0"
           transform="translate(0,796.36216)" />
      </g>
    </clipPath>
    <clipPath
       clipPathUnits="userSpaceOnUse"
       id="clipPath4271">
      <circle
         style="fill:#292929;fill-opacity:0.26020412;stroke:none;stroke-width:10;stroke-linejoin:round;stroke-miterlimit:4;stroke-dasharray:none;stroke-opacity:0.25882353"
         id="circle4273"
         cx="128"
         cy="128.00002"
         r="128" />
    </clipPath>
    <clipPath
       id="clipPath4363"
       clipPathUnits="userSpaceOnUse">
      <circle
         style="fill:#4285f4;fill-opacity:1;stroke:none;stroke-width:10;stroke-linejoin:round;stroke-miterlimit:4;stroke-dasharray:none;stroke-opacity:0.25882353"
         id="circle4365"
         cx="128"
         cy="924.36218"
         r="128" />
    </clipPath>
    <clipPath
       clipPathUnits="userSpaceOnUse"
       id="clipPath4452">
      <circle
         style="fill:#4285f4;fill-opacity:1;stroke:none;stroke-width:10;stroke-linejoin:round;stroke-miterlimit:4;stroke-dasharray:none;stroke-opacity:0.25882353"
         id="circle4454"
         cx="128"
         cy="924.36218"
         r="128" />
    </clipPath>
    <clipPath
       id="clipPath5069"
       clipPathUnits="userSpaceOnUse">
      <circle
         style="fill:#f4b400;fill-opacity:1;stroke:none;stroke-width:25;stroke-linecap:round;stroke-linejoin:round;stroke-miterlimit:4;stroke-dasharray:none;stroke-opacity:0.25882353"
         id="circle5071"
         cx="128"
         cy="924.36218"
         r="128" />
    </clipPath>
    <clipPath
       clipPathUnits="userSpaceOnUse"
       id="clipPath5087">
      <ellipse
         style="fill:#958add;fill-opacity:1;stroke:none;stroke-width:25;stroke-linecap:round;stroke-linejoin:round;stroke-miterlimit:4;stroke-dasharray:none;stroke-opacity:0.25882353"
         id="circle5089"
         cx="0"
         cy="1.5925938e-05"
         rx="91.707687"
         ry="90.131454" />
    </clipPath>
    <clipPath
       id="clipPath4596"
       clipPathUnits="userSpaceOnUse">
      <circle
         style="fill:#958add;fill-opacity:1;stroke:none;stroke-width:25;stroke-linecap:round;stroke-linejoin:round;stroke-miterlimit:4;stroke-dasharray:none;stroke-opacity:0.25882353"
         id="circle4598"
         cx="128"
         cy="924.36218"
         r="128" />
    </clipPath>
  </defs>
  <metadata
     id="metadata7">
    <rdf:RDF>
      <cc:Work
         rdf:about="">
        <dc:format>image/svg+xml</dc:format>
        <dc:type
           rdf:resource="http://purl.org/dc/dcmitype/StillImage" />
        <dc:title />
      </cc:Work>
    </rdf:RDF>
  </metadata>
  <g
     inkscape:label="Layer 1"
     inkscape:groupmode="layer"
     id="layer1"
     transform="translate(0,-796.36216)">
    <path
       transform="scale(1,-1)"
       style="fill:#1341ad;fill-opacity:1;stroke:none;stroke-width:25;stroke-linecap:round;stroke-linejoin:round;stroke-miterlimit:4;stroke-dasharray:none;stroke-opacity:0.258824"
       id="path952"
       sodipodi:type="arc"
       sodipodi:cx="128"
       sodipodi:cy="-924.36218"
       sodipodi:rx="128"
       sodipodi:ry="128"
       sodipodi:start="0"
       sodipodi:end="3.1415927"
       sodipodi:open="true"
       sodipodi:arc-type="arc"
       d="m 256,-924.36218 a 128,128 0 0 1 -64,110.85125 128,128 0 0 1 -128.000003,0 A 128,128 0 0 1 0,-924.36218" />
    <path
       style="fill:none;fill-rule:evenodd;stroke:none;stroke-width:1px;stroke-linecap:butt;stroke-linejoin:miter;stroke-opacity:1"
       d="M 154.47438,968.80998 101.03985,1048.476 0.4857685,1048.9618 0,842.0244 l 33.032258,-2.42884 45.176471,83.55218 21.373814,35.4611 26.717267,13.11575 z"
       id="path4913"
       inkscape:connector-curvature="0" />
    <path
       d="m 256,924.36218 a 128,128 0 0 1 -64,110.85122 128,128 0 0 1 -128.000003,0 A 128,128 0 0 1 0,924.36218"
       sodipodi:arc-type="arc"
       sodipodi:open="true"
       sodipodi:end="3.1415927"
       sodipodi:start="0"
       sodipodi:ry="128"
       sodipodi:rx="128"
       sodipodi:cy="924.36218"
       sodipodi:cx="128"
       sodipodi:type="arc"
       id="path4152"
       style="fill:#3369e8;fill-opacity:1;stroke:none;stroke-width:25;stroke-linecap:round;stroke-linejoin:round;stroke-miterlimit:4;stroke-dasharray:none;stroke-opacity:0.258824" />
    <path
       inkscape:connector-curvature="0"
       id="path4244"
       d="m 44.13845,985.74247 c -4.47339,-4.76171 -5.52152,-13.04906 -4.89765,-38.72484 1.46513,-60.29832 12.62392,-86.10831 37.32078,-86.32194 5.32667,-0.0461 7.36748,0.55333 15.49999,4.55252 13.25178,6.51659 19.0017,7.77225 35.50999,7.75464 16.84919,-0.018 23.37235,-1.40786 36.13166,-7.69852 8.24555,-4.06527 10.24014,-4.65381 15.58965,-4.60005 7.05526,0.0709 12.34263,2.06185 18.24486,6.87006 11.95104,9.73581 19.37693,43.24649 19.38607,87.48319 0.005,24.57785 -2.78606,32.96009 -10.97511,32.96009 -4.81398,0 -10.23122,-3.55836 -22.20238,-14.58384 -5.3245,-4.90388 -12.14893,-10.4105 -15.1654,-12.23694 -22.44207,-13.58839 -58.85498,-13.60442 -81.24315,-0.0358 -2.98115,1.80676 -9.80558,7.26997 -15.1654,12.14045 -5.35982,4.87049 -11.73479,10.17409 -14.16658,11.78577 -5.54829,3.67716 -10.79543,3.92506 -13.86733,0.65517 z m 59.59914,-51.97484 c 0.28809,-3.48087 0.53927,-3.7511 3.5,-3.76531 4.76295,-0.0229 5.87228,-1.14784 5.50883,-5.58648 -0.3054,-3.72969 -0.49212,-3.91983 -4.3192,-4.39821 -3.80952,-0.47619 -4.02381,-0.69048 -4.5,-4.5 -0.45974,-3.67792 -0.76695,-4.02562 -3.81532,-4.31823 -4.29742,-0.4125 -6.18467,1.24772 -6.18467,5.44067 0,3.25814 -0.1376,3.37756 -3.8916,3.37756 -3.28741,0 -3.9863,0.37736 -4.50163,2.4306 -0.33552,1.33683 -0.17045,3.58683 0.36684,5 0.79403,2.08846 1.63665,2.5694 4.50163,2.5694 3.06129,0 3.52476,0.31797 3.52476,2.41821 0,4.74353 0.96108,5.70576 5.37668,5.3831 3.98013,-0.29085 4.13409,-0.43153 4.43368,-4.05131 z m 54.55385,2.87118 c 6.76791,-2.82781 9.76794,-11.15115 6.28292,-17.43142 -4.40675,-7.9413 -17.06971,-8.07463 -21.13021,-0.22249 -3.50726,6.78229 -0.86699,14.66573 5.89826,17.61132 3.94148,1.71612 4.93242,1.72084 8.94903,0.0426 z m 26.43578,-26.82118 c 0.66,-0.66 1.2,-2.145 1.2,-3.3 0,-1.155 -0.54,-2.64 -1.2,-3.3 -0.66,-0.66 -2.145,-1.2 -3.3,-1.2 -1.155,0 -2.64,0.54 -3.3,1.2 -0.66,0.66 -1.2,2.145 -1.2,3.3 0,1.155 0.54,2.64 1.2,3.3 0.66,0.66 2.145,1.2 3.3,1.2 1.155,0 2.64,-0.54 3.3,-1.2 z M 83.09117,899.16017 c 5.23257,-5.85627 4.31049,-14.63598 -1.96928,-18.75065 -3.35077,-2.19551 -10.28101,-2.22056 -13.59502,-0.0491 -5.97322,3.91381 -7.20593,13.22393 -2.43162,18.3649 3.23201,3.48022 5.61236,4.33559 10.79953,3.88073 3.43621,-0.30131 5.09752,-1.09679 7.19639,-3.44584 z m 49.91297,0.93438 c 3.93001,-3.93001 3.93001,-8.22383 0,-12.15384 -4.95601,-4.95601 -12.02907,-3.6752 -14.675,2.65741 -1.23534,2.95659 -1.23656,3.87951 -0.009,6.81738 2.66577,6.38008 9.6997,7.6634 14.68404,2.67905 z m 36.72308,-5.27692 c 0.66,-0.66 1.2,-2.145 1.2,-3.3 0,-1.155 -0.54,-2.64 -1.2,-3.3 -0.66,-0.66 -2.145,-1.2 -3.3,-1.2 -1.155,0 -2.64,0.54 -3.3,1.2 -0.66,0.66 -1.2,2.145 -1.2,3.3 0,1.155 0.54,2.64 1.2,3.3 0.66,0.66 2.145,1.2 3.3,1.2 1.155,0 2.64,-0.54 3.3,-1.2 z m 29,0 c 0.66,-0.66 1.2,-2.145 1.2,-3.3 0,-1.155 -0.54,-2.64 -1.2,-3.3 -0.66,-0.66 -2.145,-1.2 -3.3,-1.2 -1.155,0 -2.64,0.54 -3.3,1.2 -0.66,0.66 -1.2,2.145 -1.2,3.3 0,1.155 0.54,2.64 1.2,3.3 0.66,0.66 2.145,1.2 3.3,1.2 1.155,0 2.64,-0.54 3.3,-1.2 z m -14,-14 c 2.805,-2.805 0.69173,-7.8 -3.3,-7.8 -2.68046,0 -4.5,1.81954 -4.5,4.5 0,2.68046 1.81954,4.5 4.5,4.5 1.155,0 2.64,-0.54 3.3,-1.2 z"
       style="fill:#ffffff;fill-opacity:1" />
  </g>
</svg>
