<?xml version="1.0" encoding="UTF-8" standalone="no"?>
<!-- Created with Inkscape (http://www.inkscape.org/) -->

<svg
   sodipodi:docname="preferences-plugins.svg"
   inkscape:version="1.2.1 (9c6d41e410, 2022-07-14)"
   version="1.1"
   id="svg2"
   viewBox="0 0 256 256"
   height="256"
   width="256"
   xmlns:inkscape="http://www.inkscape.org/namespaces/inkscape"
   xmlns:sodipodi="http://sodipodi.sourceforge.net/DTD/sodipodi-0.dtd"
   xmlns:xlink="http://www.w3.org/1999/xlink"
   xmlns="http://www.w3.org/2000/svg"
   xmlns:svg="http://www.w3.org/2000/svg"
   xmlns:rdf="http://www.w3.org/1999/02/22-rdf-syntax-ns#"
   xmlns:cc="http://creativecommons.org/ns#"
   xmlns:dc="http://purl.org/dc/elements/1.1/">
  <sodipodi:namedview
     inkscape:window-maximized="0"
     inkscape:window-y="50"
     inkscape:window-x="56"
     inkscape:window-height="936"
     inkscape:window-width="1505"
     units="px"
     showgrid="true"
     inkscape:current-layer="layer1"
     inkscape:document-units="px"
     inkscape:cy="128"
     inkscape:cx="55.915789"
     inkscape:zoom="2.96875"
     inkscape:pageshadow="2"
     inkscape:pageopacity="0.0"
     borderopacity="1.0"
     bordercolor="#666666"
     pagecolor="#ffffff"
     id="base"
     inkscape:showpageshadow="2"
     inkscape:pagecheckerboard="0"
     inkscape:deskcolor="#d1d1d1">
    <inkscape:grid
       spacingy="5"
       spacingx="5"
       id="grid4168"
       type="xygrid" />
  </sodipodi:namedview>
  <defs
     id="defs4">
    <clipPath
       id="clipPath5002"
       clipPathUnits="userSpaceOnUse">
      <g
         id="g5004">
        <path
           style="fill:#0f9d58;fill-opacity:1;stroke:none;stroke-width:4.85768509;stroke-linejoin:round;stroke-miterlimit:4;stroke-dasharray:none;stroke-opacity:1"
           d="M 88.118406,249.43519 C 46.103287,235.29134 14.771284,201.68742 4.1335861,159.36053 1.3377997,148.23623 0.92261224,144.16281 0.92582381,127.88908 0.92787958,117.47222 1.134384,112.01362 1.6577819,108.54099 4.4653598,89.913336 12.17654,70.638106 23.042737,55.086148 c 3.958678,-5.665755 8.344812,-10.93092 9.101533,-10.925587 0.32809,0.0023 10.488643,18.309713 22.579009,40.683112 12.090365,22.373397 22.374546,41.334697 22.853732,42.136217 0.479186,0.80151 0.924733,2.44098 0.990103,3.64326 0.343424,6.31639 2.524175,14.20976 5.6424,20.42304 2.954444,5.88693 5.065381,8.73258 10.434696,14.06652 6.71418,6.66995 12.88853,10.28643 21.73204,12.72904 3.16587,0.87442 5.10478,1.05037 11.57517,1.05037 8.82596,0 12.60219,-0.76201 19.26429,-3.88733 2.04584,-0.95974 3.93661,-1.66536 4.20172,-1.56805 0.2651,0.0973 -11.0555,17.66459 -25.1569,39.0384 l -25.6389,38.86148 -3.094121,0.11221 c -2.554618,0.0927 -4.195204,-0.25845 -9.409103,-2.01364 z"
           id="path5006"
           inkscape:connector-curvature="0"
           transform="translate(0,796.36216)" />
        <path
           style="fill:#f4b400;fill-opacity:1;stroke:none;stroke-width:4.85768509;stroke-linejoin:round;stroke-miterlimit:4;stroke-dasharray:none;stroke-opacity:1"
           d="m 112.35984,1051.5167 c -10.0014,-1.4495 -12.15632,-1.8201 -12.531784,-2.1556 -0.248854,-0.2223 1.738304,-3.7475 4.550294,-8.0722 7.16635,-11.0213 49.77231,-74.64801 50.25856,-75.05489 3.57509,-2.99158 8.63523,-8.0414 10.57512,-10.55356 3.36154,-4.35318 7.55784,-12.9141 9.06523,-18.494 6.19314,-22.92535 -2.59253,-47.15185 -21.69967,-59.83688 l -2.96081,-1.96565 17.02469,0.29584 c 9.36358,0.1627 31.17032,0.43384 48.45941,0.60252 l 31.43471,0.30668 1.54584,4.18869 c 2.24597,6.08579 4.67816,15.0947 5.93451,21.9816 1.52517,8.36049 1.92536,28.85896 0.73851,37.82758 -3.0805,23.27845 -12.81326,45.72018 -27.80202,64.10577 -20.47622,25.1166 -51.4599,42.1974 -84.14612,46.3885 -5.31244,0.6812 -26.64601,0.9864 -30.44647,0.4356 z"
           id="path5008"
           inkscape:connector-curvature="0" />
        <path
           style="fill:#db4437;fill-opacity:1;stroke:none;stroke-width:10;stroke-linejoin:round;stroke-miterlimit:4;stroke-dasharray:none;stroke-opacity:1"
           d="M 67.989788,108.87302 C 41.284246,59.575543 33.290284,45.149038 32.233625,44.344765 31.651257,43.901497 32.811213,42.549931 38.695603,36.815353 53.43581,22.450419 68.809334,13.040746 87.839196,6.7360352 101.68742,2.1480329 112.58238,0.43719165 127.95142,0.43719165 c 21.3099,0 37.80488,3.80960275 56.83492,13.12633035 25.29351,12.383198 46.19421,33.578863 58.51993,59.345832 1.61138,3.368591 2.92978,6.372442 2.92978,6.675231 0,0.560033 -10.54865,0.49527 -71.16508,-0.436914 l -24.28843,-0.373518 -3.93063,-1.764495 c -6.75732,-3.033425 -10.64587,-3.839529 -18.6576,-3.867747 -5.0296,-0.01773 -7.97946,0.207636 -10.31642,0.788106 -14.50826,3.603659 -26.283291,12.94777 -33.291614,26.418653 -3.58502,6.89086 -5.24713,13.08166 -6.331628,23.58317 l -0.33738,3.26696 -9.92748,-18.32578 z"
           id="path5010"
           inkscape:connector-curvature="0"
           transform="translate(0,796.36216)" />
      </g>
    </clipPath>
    <clipPath
       clipPathUnits="userSpaceOnUse"
       id="clipPath4271">
      <circle
         style="fill:#292929;fill-opacity:0.26020412;stroke:none;stroke-width:10;stroke-linejoin:round;stroke-miterlimit:4;stroke-dasharray:none;stroke-opacity:0.25882353"
         id="circle4273"
         cx="128"
         cy="128.00002"
         r="128" />
    </clipPath>
    <clipPath
       id="clipPath4363"
       clipPathUnits="userSpaceOnUse">
      <circle
         style="fill:#4285f4;fill-opacity:1;stroke:none;stroke-width:10;stroke-linejoin:round;stroke-miterlimit:4;stroke-dasharray:none;stroke-opacity:0.25882353"
         id="circle4365"
         cx="128"
         cy="924.36218"
         r="128" />
    </clipPath>
    <clipPath
       clipPathUnits="userSpaceOnUse"
       id="clipPath4452">
      <circle
         style="fill:#4285f4;fill-opacity:1;stroke:none;stroke-width:10;stroke-linejoin:round;stroke-miterlimit:4;stroke-dasharray:none;stroke-opacity:0.25882353"
         id="circle4454"
         cx="128"
         cy="924.36218"
         r="128" />
    </clipPath>
    <clipPath
       id="clipPath5069"
       clipPathUnits="userSpaceOnUse">
      <circle
         style="fill:#f4b400;fill-opacity:1;stroke:none;stroke-width:25;stroke-linecap:round;stroke-linejoin:round;stroke-miterlimit:4;stroke-dasharray:none;stroke-opacity:0.25882353"
         id="circle5071"
         cx="128"
         cy="924.36218"
         r="128" />
    </clipPath>
    <clipPath
       clipPathUnits="userSpaceOnUse"
       id="clipPath5087">
      <ellipse
         style="fill:#958add;fill-opacity:1;stroke:none;stroke-width:25;stroke-linecap:round;stroke-linejoin:round;stroke-miterlimit:4;stroke-dasharray:none;stroke-opacity:0.25882353"
         id="circle5089"
         cx="0"
         cy="1.5925938e-05"
         rx="91.707687"
         ry="90.131454" />
    </clipPath>
    <linearGradient
       xlink:href="#linearGradient3203"
       id="linearGradient3917"
       gradientUnits="userSpaceOnUse"
       gradientTransform="matrix(0.47949058,0,0,0.47861213,-270.84046,232.18377)"
       x1="592"
       y1="-154"
       x2="592"
       y2="-183.62457" />
    <linearGradient
       id="linearGradient3203">
      <stop
         style="stop-color:#154d92;stop-opacity:1"
         offset="0"
         id="stop3199" />
      <stop
         style="stop-color:#2074db;stop-opacity:1"
         offset="1"
         id="stop3201" />
    </linearGradient>
  </defs>
  <metadata
     id="metadata7">
    <rdf:RDF>
      <cc:Work
         rdf:about="">
        <dc:format>image/svg+xml</dc:format>
        <dc:type
           rdf:resource="http://purl.org/dc/dcmitype/StillImage" />
      </cc:Work>
    </rdf:RDF>
  </metadata>
  <g
     inkscape:label="Layer 1"
     inkscape:groupmode="layer"
     id="layer1"
     transform="translate(0,-796.36216)">
    <path
       id="path533"
       style="fill:#e6a621;fill-opacity:1;stroke:none;stroke-width:25;stroke-linecap:round;stroke-linejoin:round;stroke-miterlimit:4;stroke-dasharray:none;stroke-opacity:0.258824"
       sodipodi:type="arc"
       sodipodi:cx="128"
       sodipodi:cy="-924.36218"
       sodipodi:rx="128"
       sodipodi:ry="128"
       sodipodi:start="0"
       sodipodi:end="3.1415927"
       sodipodi:arc-type="slice"
       d="m 256,-924.36218 a 128,128 0 0 1 -64,110.85125 128,128 0 0 1 -128.000003,0 A 128,128 0 0 1 0,-924.36218 h 128 z"
       transform="scale(1,-1)" />
    <path
       style="fill:none;fill-rule:evenodd;stroke:none;stroke-width:1px;stroke-linecap:butt;stroke-linejoin:miter;stroke-opacity:1"
       d="M 154.47438,968.80998 101.03985,1048.476 0.4857685,1048.9618 0,842.0244 l 33.032258,-2.42884 45.176471,83.55218 21.373814,35.4611 26.717267,13.11575 z"
       id="path4913"
       inkscape:connector-curvature="0" />
    <path
       id="path4152"
       style="fill:#ecbb55;fill-opacity:1;stroke:none;stroke-width:25;stroke-linecap:round;stroke-linejoin:round;stroke-miterlimit:4;stroke-dasharray:none;stroke-opacity:0.258824"
       sodipodi:type="arc"
       sodipodi:cx="128"
       sodipodi:cy="924.36218"
       sodipodi:rx="128"
       sodipodi:ry="128"
       sodipodi:start="0"
       sodipodi:end="3.1415927"
       sodipodi:arc-type="slice"
       d="m 256,924.36218 a 128,128 0 0 1 -64,110.85122 128,128 0 0 1 -128.000003,0 A 128,128 0 0 1 0,924.36218 h 128 z" />
    <g
       id="g8"
       transform="matrix(3.622898,0,0,3.622898,35.25381,831.61597)"
       style="stroke:none;fill:#f6f5fc;fill-opacity:1">
      <path
         id="path3913"
         d="m 10.473545,9.2153279 0.73336,6.3112701 c 0.15336,1.31987 0.41717,2.63554 0.39321,3.96388 -0.012,0.66417 -0.12225,1.34116 -0.44523,1.92371 -0.1615,0.29126 -0.37637,0.5557 -0.64182,0.75937 -0.26545,0.203676 -0.5826,0.345136 -0.91591,0.387456 -0.54012,0.0686 -1.07796,-0.12197 -1.5748,-0.342276 -0.4968397,-0.22032 -0.9892597,-0.477 -1.5283597,-0.553 -0.52629,-0.0742 -1.07294,0.0331 -1.54386,0.2769 -0.47091,0.24381 -0.86656,0.620376 -1.15446,1.062076 -0.5758,0.88341 -0.70923,1.99441 -0.56624,3.03571 0.10842,0.78949 0.37781,1.57739 0.90369,2.18124 0.26293,0.30193 0.58795,0.55355 0.95608,0.71576 0.36812,0.16222 0.77976,0.23309 1.17976,0.18413 0.55504,-0.0679 1.05295,-0.35549 1.55686,-0.59529 0.2519597,-0.1199 0.5106897,-0.22957 0.7824597,-0.2947 0.27176,-0.0651 0.55839,-0.0845 0.83117,-0.0236 0.29424,0.0656 0.56363,0.22359 0.77889,0.43242 0.21527,0.20884 0.3779,0.46714 0.49344,0.74253 0.23107,0.55078 0.27472,1.15838 0.30322,1.75397 0.17068,3.56708 -0.1022,7.15468 -0.81055,10.65645 2.4459,0.85498 4.96199,1.51369 7.51539,1.96755 0.84637,0.15043 1.72478,0.27742 2.55848,0.069 0.41685,-0.1042 0.81611,-0.29423 1.13377,-0.58064 0.31766,-0.2864 0.54975,-0.67272 0.61548,-1.09269 0.0491,-0.31366 0.006,-0.63664 -0.0893,-0.93987 -0.0948,-0.30324 -0.23974,-0.58881 -0.39602,-0.86608 -0.31258,-0.55454 -0.67976,-1.0983 -0.80157,-1.72157 -0.1084,-0.55466 -0.009,-1.14088 0.24356,-1.64771 0.25245,-0.50683 0.65264,-0.93543 1.12276,-1.25672 0.94024,-0.64261 2.1217,-0.84796 3.2648,-0.85714 1.04722,-0.009 2.13007,0.14645 3.01888,0.69385 0.44441,0.27371 0.83215,0.64423 1.09442,1.09215 0.26228,0.44793 0.39488,0.97466 0.34167,1.48951 -0.0409,0.39608 -0.18831,0.7745 -0.36818,1.13075 -0.17987,0.35626 -0.39311,0.69512 -0.57787,1.04892 -0.18475,0.35381 -0.3422,0.72723 -0.39943,1.12134 -0.0572,0.39411 -0.007,0.81296 0.19927,1.1547 0.147,0.24303 0.36671,0.43742 0.61003,0.58687 0.24332,0.14943 0.51069,0.25639 0.78035,0.35198 1.73962,0.61659 3.64078,0.78179 5.46257,0.47467 1.8218,-0.30711 3.56005,-1.08585 4.99451,-2.23753 l -0.93079,-6.88961 c -0.16368,-1.21147 -0.41018,-2.42215 -0.37743,-3.64396 0.0164,-0.61089 0.12246,-1.23066 0.41049,-1.77142 0.14401,-0.27039 0.33358,-0.51858 0.56781,-0.718 0.23425,-0.19942 0.51399,-0.34916 0.81505,-0.41861 0.28715,-0.0662 0.58821,-0.0588 0.87847,-0.008 0.29027,0.0513 0.57108,0.14543 0.84568,0.25159 0.54921,0.21233 1.08808,0.47659 1.67249,0.55471 0.53999,0.0722 1.09885,-0.022 1.59271,-0.24968 0.49385,-0.22761 0.92257,-0.58604 1.24778,-1.01818 0.6504,-0.86428 0.86958,-1.99946 0.73587,-3.06846 -0.10894,-0.871 -0.45149,-2.10408 -1.06191,-2.741466 -0.30522,-0.31868 -0.6747,-0.57906 -1.08493,-0.74691 -0.41023,-0.16784 -0.86126,-0.24186 -1.30318,-0.19957 -0.58833,0.0563 -1.1348,0.31124 -1.68674,0.52027 -0.27597,0.10453 -0.55736,0.19861 -0.84811,0.25099 -0.29075,0.0524 -0.59223,0.0622 -0.88071,-9.9e-4 -0.4367,-0.0961 -0.82678,0.0157 -1.1094,-0.32702 -0.28262,-0.34278 -0.46197,-0.7615 -0.55611,-1.19377 -0.18827,-0.86454 -0.0447,-1.76141 0.0828,-2.63675 0.42737,-2.93472 0.66797,-5.89601 0.71991,-8.8605301 -2.61078,-0.82852 -5.30205,-1.4090595 -8.02469,-1.7310095 -0.8378,-0.0991 -1.70845,-0.17059 -2.50734,0.0977 -0.39945,0.13417 -0.77384,0.35501 -1.05489,0.6659995 -0.28104,0.31098 -0.46385,0.71543 -0.47273,1.13231 -0.006,0.29375 0.0724,0.58507 0.19632,0.85213 0.12391,0.2670701 0.29217,0.5117701 0.47174,0.7459101 0.35913,0.4683 0.7728,0.90993 0.9982,1.45369 0.24733,0.59664 0.24319,1.28304 0.0297,1.8923 -0.21352,0.60927 -0.62828,1.14123 -1.14354,1.5367 -0.51527,0.39546 -1.12793,0.65795 -1.76336,0.80394 -0.63544,0.146 -1.29395,0.17806 -1.94522,0.14052 -1.05059,-0.0606 -2.12136,-0.31629 -2.96158,-0.94255 -0.42012,-0.31313 -0.77531,-0.71661 -1.00359,-1.18518 -0.22829,-0.46855 -0.3261,-1.00302 -0.24827,-1.51735 0.10575,-0.69894 0.51658,-1.3086 0.86265,-1.92702 0.17304,-0.3092 0.33283,-0.62831 0.43188,-0.9678301 0.099,-0.33952 0.13547,-0.7022 0.0601,-1.04761 -0.0787,-0.36059 -0.27794,-0.69064 -0.54359,-0.9497 -0.26566,-0.2590695 -0.59567,-0.4490495 -0.94634,-0.5752795 -0.70134,-0.25248 -1.468,-0.25188 -2.21313,-0.20875 -2.7737,0.16054 -5.51343,0.8746795 -8.00649,2.0869495 z"
         style="display:inline;fill:#f6f5fc;fill-opacity:1;fill-rule:nonzero;stroke:none;stroke-width:1;enable-background:new" />
    </g>
  </g>
</svg>
