<?xml version="1.0" encoding="UTF-8" standalone="no"?>
<!-- Created with Inkscape (http://www.inkscape.org/) -->

<svg
   xmlns:dc="http://purl.org/dc/elements/1.1/"
   xmlns:cc="http://creativecommons.org/ns#"
   xmlns:rdf="http://www.w3.org/1999/02/22-rdf-syntax-ns#"
   xmlns:svg="http://www.w3.org/2000/svg"
   xmlns="http://www.w3.org/2000/svg"
   xmlns:sodipodi="http://sodipodi.sourceforge.net/DTD/sodipodi-0.dtd"
   xmlns:inkscape="http://www.inkscape.org/namespaces/inkscape"
   sodipodi:docname="abricotine.svg"
   inkscape:version="0.92.3 (2405546, 2018-03-11)"
   version="1.1"
   id="svg2"
   viewBox="0 0 256 256"
   height="256"
   width="256">
  <sodipodi:namedview
     inkscape:window-maximized="1"
     inkscape:window-y="0"
     inkscape:window-x="0"
     inkscape:window-height="1048"
     inkscape:window-width="1920"
     units="px"
     showgrid="true"
     inkscape:current-layer="layer1"
     inkscape:document-units="px"
     inkscape:cy="128"
     inkscape:cx="20.629129"
     inkscape:zoom="2.0117188"
     inkscape:pageshadow="2"
     inkscape:pageopacity="0.0"
     borderopacity="1.0"
     bordercolor="#666666"
     pagecolor="#ffffff"
     id="base">
    <inkscape:grid
       type="xygrid"
       id="grid4168"
       spacingx="5"
       spacingy="5" />
  </sodipodi:namedview>
  <defs
     id="defs4">
    <clipPath
       clipPathUnits="userSpaceOnUse"
       id="clipPath5002">
      <g
         id="g5004">
        <path
           transform="translate(0,796.36216)"
           inkscape:connector-curvature="0"
           id="path5006"
           d="M 88.118406,249.43519 C 46.103287,235.29134 14.771284,201.68742 4.1335861,159.36053 1.3377997,148.23623 0.92261224,144.16281 0.92582381,127.88908 0.92787958,117.47222 1.134384,112.01362 1.6577819,108.54099 4.4653598,89.913336 12.17654,70.638106 23.042737,55.086148 c 3.958678,-5.665755 8.344812,-10.93092 9.101533,-10.925587 0.32809,0.0023 10.488643,18.309713 22.579009,40.683112 12.090365,22.373397 22.374546,41.334697 22.853732,42.136217 0.479186,0.80151 0.924733,2.44098 0.990103,3.64326 0.343424,6.31639 2.524175,14.20976 5.6424,20.42304 2.954444,5.88693 5.065381,8.73258 10.434696,14.06652 6.71418,6.66995 12.88853,10.28643 21.73204,12.72904 3.16587,0.87442 5.10478,1.05037 11.57517,1.05037 8.82596,0 12.60219,-0.76201 19.26429,-3.88733 2.04584,-0.95974 3.93661,-1.66536 4.20172,-1.56805 0.2651,0.0973 -11.0555,17.66459 -25.1569,39.0384 l -25.6389,38.86148 -3.094121,0.11221 c -2.554618,0.0927 -4.195204,-0.25845 -9.409103,-2.01364 z"
           style="fill:#0f9d58;fill-opacity:1;stroke:none;stroke-width:4.85768509;stroke-linejoin:round;stroke-miterlimit:4;stroke-dasharray:none;stroke-opacity:1" />
        <path
           inkscape:connector-curvature="0"
           id="path5008"
           d="m 112.35984,1051.5167 c -10.0014,-1.4495 -12.15632,-1.8201 -12.531784,-2.1556 -0.248854,-0.2223 1.738304,-3.7475 4.550294,-8.0722 7.16635,-11.0213 49.77231,-74.64801 50.25856,-75.05489 3.57509,-2.99158 8.63523,-8.0414 10.57512,-10.55356 3.36154,-4.35318 7.55784,-12.9141 9.06523,-18.494 6.19314,-22.92535 -2.59253,-47.15185 -21.69967,-59.83688 l -2.96081,-1.96565 17.02469,0.29584 c 9.36358,0.1627 31.17032,0.43384 48.45941,0.60252 l 31.43471,0.30668 1.54584,4.18869 c 2.24597,6.08579 4.67816,15.0947 5.93451,21.9816 1.52517,8.36049 1.92536,28.85896 0.73851,37.82758 -3.0805,23.27845 -12.81326,45.72018 -27.80202,64.10577 -20.47622,25.1166 -51.4599,42.1974 -84.14612,46.3885 -5.31244,0.6812 -26.64601,0.9864 -30.44647,0.4356 z"
           style="fill:#f4b400;fill-opacity:1;stroke:none;stroke-width:4.85768509;stroke-linejoin:round;stroke-miterlimit:4;stroke-dasharray:none;stroke-opacity:1" />
        <path
           transform="translate(0,796.36216)"
           inkscape:connector-curvature="0"
           id="path5010"
           d="M 67.989788,108.87302 C 41.284246,59.575543 33.290284,45.149038 32.233625,44.344765 31.651257,43.901497 32.811213,42.549931 38.695603,36.815353 53.43581,22.450419 68.809334,13.040746 87.839196,6.7360352 101.68742,2.1480329 112.58238,0.43719165 127.95142,0.43719165 c 21.3099,0 37.80488,3.80960275 56.83492,13.12633035 25.29351,12.383198 46.19421,33.578863 58.51993,59.345832 1.61138,3.368591 2.92978,6.372442 2.92978,6.675231 0,0.560033 -10.54865,0.49527 -71.16508,-0.436914 l -24.28843,-0.373518 -3.93063,-1.764495 c -6.75732,-3.033425 -10.64587,-3.839529 -18.6576,-3.867747 -5.0296,-0.01773 -7.97946,0.207636 -10.31642,0.788106 -14.50826,3.603659 -26.283291,12.94777 -33.291614,26.418653 -3.58502,6.89086 -5.24713,13.08166 -6.331628,23.58317 l -0.33738,3.26696 -9.92748,-18.32578 z"
           style="fill:#db4437;fill-opacity:1;stroke:none;stroke-width:10;stroke-linejoin:round;stroke-miterlimit:4;stroke-dasharray:none;stroke-opacity:1" />
      </g>
    </clipPath>
    <clipPath
       id="clipPath4271"
       clipPathUnits="userSpaceOnUse">
      <circle
         r="128"
         cy="128.00002"
         cx="128"
         id="circle4273"
         style="fill:#292929;fill-opacity:0.26020412;stroke:none;stroke-width:10;stroke-linejoin:round;stroke-miterlimit:4;stroke-dasharray:none;stroke-opacity:0.25882353" />
    </clipPath>
    <clipPath
       clipPathUnits="userSpaceOnUse"
       id="clipPath4363">
      <circle
         r="128"
         cy="924.36218"
         cx="128"
         id="circle4365"
         style="fill:#4285f4;fill-opacity:1;stroke:none;stroke-width:10;stroke-linejoin:round;stroke-miterlimit:4;stroke-dasharray:none;stroke-opacity:0.25882353" />
    </clipPath>
    <clipPath
       id="clipPath4452"
       clipPathUnits="userSpaceOnUse">
      <circle
         r="128"
         cy="924.36218"
         cx="128"
         id="circle4454"
         style="fill:#4285f4;fill-opacity:1;stroke:none;stroke-width:10;stroke-linejoin:round;stroke-miterlimit:4;stroke-dasharray:none;stroke-opacity:0.25882353" />
    </clipPath>
    <clipPath
       clipPathUnits="userSpaceOnUse"
       id="clipPath5177">
      <circle
         r="128"
         cy="924.36218"
         cx="128"
         id="circle5179"
         style="fill:#4285f4;fill-opacity:1;stroke:none;stroke-width:10;stroke-linejoin:round;stroke-miterlimit:4;stroke-dasharray:none;stroke-opacity:0.25882353" />
    </clipPath>
    <clipPath
       id="clipPath4342"
       clipPathUnits="userSpaceOnUse">
      <circle
         r="128"
         cy="933.48718"
         cx="128"
         id="circle4344"
         style="fill:#4285f4;fill-opacity:1;stroke:none;stroke-width:10;stroke-linejoin:round;stroke-miterlimit:4;stroke-dasharray:none;stroke-opacity:0.25882353" />
    </clipPath>
    <clipPath
       clipPathUnits="userSpaceOnUse"
       id="clipPath4681">
      <circle
         r="128"
         cy="930.43964"
         cx="127.00293"
         id="circle4683"
         style="fill:#9d5fad;fill-opacity:1;stroke:none;stroke-width:10;stroke-linejoin:round;stroke-miterlimit:4;stroke-dasharray:none;stroke-opacity:0.25882353" />
    </clipPath>
    <clipPath
       id="clipPath4235"
       clipPathUnits="userSpaceOnUse">
      <circle
         r="128"
         cy="924.36218"
         cx="128"
         id="circle4237"
         style="fill:#0f9d58;fill-opacity:1;stroke:none;stroke-width:10;stroke-linejoin:round;stroke-miterlimit:4;stroke-dasharray:none;stroke-opacity:0.25882353" />
    </clipPath>
    <clipPath
       clipPathUnits="userSpaceOnUse"
       id="clipPath4771">
      <circle
         r="128"
         cy="924.36218"
         cx="128"
         id="circle4773"
         style="fill:#0f9d58;fill-opacity:1;stroke:none;stroke-width:10;stroke-linejoin:round;stroke-miterlimit:4;stroke-dasharray:none;stroke-opacity:0.25882353" />
    </clipPath>
    <clipPath
       id="clipPath4842"
       clipPathUnits="userSpaceOnUse">
      <circle
         r="128"
         cy="924.36218"
         cx="128"
         id="circle4844"
         style="fill:#0f9d58;fill-opacity:1;stroke:none;stroke-width:10;stroke-linejoin:round;stroke-miterlimit:4;stroke-dasharray:none;stroke-opacity:0.25882353" />
    </clipPath>
    <clipPath
       clipPathUnits="userSpaceOnUse"
       id="clipPath4458">
      <circle
         r="128"
         cy="924.36218"
         cx="128"
         id="circle4460"
         style="fill:#ff3b38;fill-opacity:1;stroke:none;stroke-width:10;stroke-linejoin:round;stroke-miterlimit:4;stroke-dasharray:none;stroke-opacity:0.25882353" />
    </clipPath>
    <clipPath
       id="clipPath4783"
       clipPathUnits="userSpaceOnUse">
      <circle
         r="128"
         cy="924.36218"
         cx="128"
         id="circle4785"
         style="fill:#ff3b38;fill-opacity:1;stroke:none;stroke-width:10;stroke-linejoin:round;stroke-miterlimit:4;stroke-dasharray:none;stroke-opacity:0.25882353" />
    </clipPath>
    <clipPath
       clipPathUnits="userSpaceOnUse"
       id="clipPath4789">
      <circle
         r="128"
         cy="924.36218"
         cx="102.64714"
         id="circle4791"
         style="fill:#80b4ff;fill-opacity:1;stroke:none;stroke-width:10;stroke-linejoin:round;stroke-miterlimit:4;stroke-dasharray:none;stroke-opacity:0.25882353" />
    </clipPath>
    <clipPath
       id="clipPath4721"
       clipPathUnits="userSpaceOnUse">
      <circle
         r="128"
         cy="924.36218"
         cx="128"
         id="circle4723"
         style="fill:#557ae6;fill-opacity:1;stroke:none;stroke-width:10;stroke-linejoin:round;stroke-miterlimit:4;stroke-dasharray:none;stroke-opacity:0.25882353" />
    </clipPath>
    <clipPath
       clipPathUnits="userSpaceOnUse"
       id="clipPath4491">
      <circle
         r="128"
         cy="924.36218"
         cx="128"
         id="circle4493"
         style="fill:#990000;fill-opacity:1;stroke:none;stroke-width:10;stroke-linejoin:round;stroke-miterlimit:4;stroke-dasharray:none;stroke-opacity:0.25882353" />
    </clipPath>
    <clipPath
       id="clipPath1102"
       clipPathUnits="userSpaceOnUse">
      <circle
         r="128"
         cy="924.36218"
         cx="128"
         id="circle1104"
         style="fill:#b40000;fill-opacity:1;stroke:none;stroke-width:10;stroke-linejoin:round;stroke-miterlimit:4;stroke-dasharray:none;stroke-opacity:0.25882353" />
    </clipPath>
    <clipPath
       id="clipPath1102-3"
       clipPathUnits="userSpaceOnUse">
      <circle
         r="128"
         cy="924.36218"
         cx="128"
         id="circle1104-6"
         style="fill:#b40000;fill-opacity:1;stroke:none;stroke-width:10;stroke-linejoin:round;stroke-miterlimit:4;stroke-dasharray:none;stroke-opacity:0.25882353" />
    </clipPath>
    <linearGradient
       id="linearGradient3959">
      <stop
         id="stop3961"
         offset="0"
         style="stop-color:#ff6600;stop-opacity:1;" />
      <stop
         id="stop3963"
         offset="1"
         style="stop-color:#ff8737;stop-opacity:1;" />
    </linearGradient>
    <clipPath
       clipPathUnits="userSpaceOnUse"
       id="clipPath1156">
      <circle
         r="28.13175"
         cy="46.041836"
         cx="-44.076553"
         id="circle1158"
         style="fill:#ff822e;fill-opacity:1;stroke:none;stroke-width:2.19779301;stroke-linejoin:round;stroke-miterlimit:4;stroke-dasharray:none;stroke-opacity:0.25882353" />
    </clipPath>
  </defs>
  <metadata
     id="metadata7">
    <rdf:RDF>
      <cc:Work
         rdf:about="">
        <dc:format>image/svg+xml</dc:format>
        <dc:type
           rdf:resource="http://purl.org/dc/dcmitype/StillImage" />
        <dc:title />
      </cc:Work>
    </rdf:RDF>
  </metadata>
  <g
     transform="translate(0,-796.36216)"
     id="layer1"
     inkscape:groupmode="layer"
     inkscape:label="Layer 1">
    <g
       id="g905"
       transform="translate(180,89.999977)">
      <path
         d="M 76,834.36218 A 128,128 0 0 1 11.999998,945.21344 128,128 0 0 1 -116,945.21343 128,128 0 0 1 -180,834.36218 l 128,0 z"
         sodipodi:end="3.1415927"
         sodipodi:start="0"
         sodipodi:ry="128"
         sodipodi:rx="128"
         sodipodi:cy="834.36218"
         sodipodi:cx="-52"
         sodipodi:type="arc"
         id="path892"
         style="opacity:0.98999999;fill:#ff822e;fill-opacity:1;stroke:none;stroke-width:26.73832893;stroke-miterlimit:4;stroke-dasharray:none;stroke-opacity:1" />
      <path
         transform="scale(1,-1)"
         style="opacity:0.98999999;fill:#d75600;fill-opacity:1;stroke:none;stroke-width:26.73832893;stroke-miterlimit:4;stroke-dasharray:none;stroke-opacity:1"
         id="path894"
         sodipodi:type="arc"
         sodipodi:cx="-52"
         sodipodi:cy="-834.36218"
         sodipodi:rx="128"
         sodipodi:ry="128"
         sodipodi:start="0"
         sodipodi:end="3.1415927"
         d="m 76,-834.36218 a 128,128 0 0 1 -64.000002,110.85125 128,128 0 0 1 -127.999998,0 128,128 0 0 1 -64,-110.85126 l 128,1e-5 z" />
    </g>
    <g
       style="fill:#ffffff;fill-opacity:1;stroke:#ffffff;stroke-width:1.17708576;stroke-miterlimit:4;stroke-dasharray:none;stroke-opacity:1"
       transform="matrix(4.5500192,0,0,4.5500192,328.54917,714.87093)"
       id="g3883">
      <rect
         style="fill:#ffffff;fill-opacity:1;fill-rule:nonzero;stroke:#ffffff;stroke-width:1.26486015;stroke-miterlimit:4;stroke-dasharray:none;stroke-opacity:1"
         id="rect3789"
         width="4.6187968"
         height="9"
         x="-45.696789"
         y="5.9341817"
         transform="matrix(0.86602641,-0.49999826,0,1,0,0)" />
      <rect
         style="fill:#ffffff;fill-opacity:1;fill-rule:nonzero;stroke:#ffffff;stroke-width:1.26486015;stroke-miterlimit:4;stroke-dasharray:none;stroke-opacity:1"
         id="rect3791"
         width="4.6187968"
         height="21"
         x="-45.599209"
         y="21.811039"
         transform="matrix(0.86602641,-0.49999826,0,1,0,0)" />
      <rect
         style="fill:#ffffff;fill-opacity:1;fill-rule:nonzero;stroke:#ffffff;stroke-width:1.26486015;stroke-miterlimit:4;stroke-dasharray:none;stroke-opacity:1"
         id="rect3789-6"
         width="4.6187968"
         height="9"
         x="-21.307566"
         y="-87.89035"
         transform="matrix(-0.8660244,-0.50000174,0.8660254,-0.5,0,0)" />
      <rect
         style="fill:#ffffff;fill-opacity:1;fill-rule:nonzero;stroke:#ffffff;stroke-width:1.26486015;stroke-miterlimit:4;stroke-dasharray:none;stroke-opacity:1"
         id="rect3791-7"
         width="4.6187968"
         height="21"
         x="16.057619"
         y="51.265236"
         transform="matrix(0.8660244,0.50000174,-0.8660254,0.5,0,0)" />
      <rect
         style="fill:#ffffff;fill-opacity:1;fill-rule:nonzero;stroke:#ffffff;stroke-width:1.26486015;stroke-miterlimit:4;stroke-dasharray:none;stroke-opacity:1"
         id="rect3789-6-9"
         width="4.6187968"
         height="9"
         x="73.020905"
         y="30.817549"
         transform="matrix(-2.009992e-6,1,-0.8660254,-0.5,0,0)" />
      <rect
         style="fill:#ffffff;fill-opacity:1;fill-rule:nonzero;stroke:#ffffff;stroke-width:1.26486015;stroke-miterlimit:4;stroke-dasharray:none;stroke-opacity:1"
         id="rect3791-7-1"
         width="4.6187968"
         height="21"
         x="73.246056"
         y="46.728584"
         transform="matrix(-2.009992e-6,1,-0.8660254,-0.5,0,0)" />
    </g>
  </g>
</svg>
