<?xml version="1.0" encoding="UTF-8" standalone="no"?>
<!-- Created with Inkscape (http://www.inkscape.org/) -->

<svg
   xmlns:dc="http://purl.org/dc/elements/1.1/"
   xmlns:cc="http://creativecommons.org/ns#"
   xmlns:rdf="http://www.w3.org/1999/02/22-rdf-syntax-ns#"
   xmlns:svg="http://www.w3.org/2000/svg"
   xmlns="http://www.w3.org/2000/svg"
   xmlns:sodipodi="http://sodipodi.sourceforge.net/DTD/sodipodi-0.dtd"
   xmlns:inkscape="http://www.inkscape.org/namespaces/inkscape"
   width="256"
   height="256"
   viewBox="0 0 256 256"
   id="svg4149"
   version="1.1"
   inkscape:version="0.92.3 (2405546, 2018-03-11)"
   sodipodi:docname="alchemy.svg">
  <sodipodi:namedview
     id="base"
     pagecolor="#ffffff"
     bordercolor="#666666"
     borderopacity="1.0"
     inkscape:pageopacity="0.0"
     inkscape:pageshadow="2"
     inkscape:zoom="2.0507812"
     inkscape:cx="25.112378"
     inkscape:cy="128"
     inkscape:document-units="px"
     inkscape:current-layer="layer1"
     showgrid="false"
     units="px"
     inkscape:window-width="1920"
     inkscape:window-height="1048"
     inkscape:window-x="0"
     inkscape:window-y="0"
     inkscape:window-maximized="1" />
  <defs
     id="defs4151">
    <clipPath
       clipPathUnits="userSpaceOnUse"
       id="clipPath4863">
      <circle
         style="fill:#e9e9e9;fill-opacity:1;stroke:none;stroke-width:20;stroke-miterlimit:4;stroke-dasharray:none;stroke-opacity:1"
         id="circle4865"
         cx="128"
         cy="924.36218"
         r="77.263145" />
    </clipPath>
    <clipPath
       id="clipPath4227"
       clipPathUnits="userSpaceOnUse">
      <circle
         style="fill:#e9e9e9;fill-opacity:1;stroke:none;stroke-width:20;stroke-miterlimit:4;stroke-dasharray:none;stroke-opacity:1"
         id="circle4229"
         cx="128"
         cy="924.36218"
         r="77.263145" />
    </clipPath>
    <clipPath
       clipPathUnits="userSpaceOnUse"
       id="clipPath5543">
      <circle
         style="fill:#9e9fe9;fill-opacity:1;stroke:none;stroke-width:20;stroke-miterlimit:4;stroke-dasharray:none;stroke-opacity:1"
         id="circle5545"
         cx="128"
         cy="924.36218"
         r="128" />
    </clipPath>
    <clipPath
       id="clipPath6248"
       clipPathUnits="userSpaceOnUse">
      <circle
         style="fill:#77c445;fill-opacity:1;stroke:none;stroke-width:20;stroke-miterlimit:4;stroke-dasharray:none;stroke-opacity:1"
         id="circle6250"
         cx="128"
         cy="924.36218"
         r="128" />
    </clipPath>
    <clipPath
       id="clipPath4624"
       clipPathUnits="userSpaceOnUse">
      <path
         inkscape:connector-curvature="0"
         id="path4626"
         d="m 151.20117,0.24318 -105.78125,0 c -7.804357,0 -14.087891,6.28158 -14.087891,14.08594 l 0,227.33994 c 0,7.8043 6.283534,14.0878 14.087891,14.0878 l 165.16211,0 c 7.80436,0 14.08594,-6.2835 14.08594,-14.0878 l 0,-154.82237 -73.4668,-86.60351 z"
         style="fill:#0f9d58;fill-opacity:1" />
    </clipPath>
    <clipPath
       id="clipPath6409"
       clipPathUnits="userSpaceOnUse">
      <circle
         style="fill:#77c445;fill-opacity:1;stroke:none;stroke-width:20;stroke-miterlimit:4;stroke-dasharray:none;stroke-opacity:1"
         id="circle6411"
         cx="128"
         cy="924.36218"
         r="128" />
    </clipPath>
    <clipPath
       clipPathUnits="userSpaceOnUse"
       id="clipPath4702">
      <circle
         style="fill:#a7c7e9;fill-opacity:1;stroke:none;stroke-width:20;stroke-miterlimit:4;stroke-dasharray:none;stroke-opacity:1"
         id="circle4704"
         cx="122.14857"
         cy="919.97363"
         r="128" />
    </clipPath>
    <clipPath
       clipPathUnits="userSpaceOnUse"
       id="clipPath5426">
      <circle
         style="fill:#33cc33;fill-opacity:1;stroke:none;stroke-width:20;stroke-miterlimit:4;stroke-dasharray:none;stroke-opacity:1"
         id="circle5428"
         cx="122.14857"
         cy="123.61145"
         r="128" />
    </clipPath>
  </defs>
  <metadata
     id="metadata4154">
    <rdf:RDF>
      <cc:Work
         rdf:about="">
        <dc:format>image/svg+xml</dc:format>
        <dc:type
           rdf:resource="http://purl.org/dc/dcmitype/StillImage" />
        <dc:title />
      </cc:Work>
    </rdf:RDF>
  </metadata>
  <g
     transform="translate(0,-796.36216)"
     id="layer1"
     inkscape:groupmode="layer"
     inkscape:label="Layer 1">
    <g
       id="g884"
       transform="translate(201.14286,13.409523)">
      <path
         d="m 54.85714,910.95264 a 128,128 0 0 1 -64.0000021,110.85126 128,128 0 0 1 -127.9999979,0 128,128 0 0 1 -64,-110.85127 l 128,10e-6 z"
         sodipodi:end="3.1415927"
         sodipodi:start="0"
         sodipodi:ry="128"
         sodipodi:rx="128"
         sodipodi:cy="910.95264"
         sodipodi:cx="-73.14286"
         sodipodi:type="arc"
         id="path862"
         style="opacity:0.98999999;fill:#33cc33;fill-opacity:1;stroke:none;stroke-width:25.08277512;stroke-miterlimit:4;stroke-dasharray:none;stroke-opacity:1" />
      <path
         transform="scale(1,-1)"
         style="opacity:0.98999999;fill:#006600;fill-opacity:1;stroke:none;stroke-width:25.08277512;stroke-miterlimit:4;stroke-dasharray:none;stroke-opacity:1"
         id="path864"
         sodipodi:type="arc"
         sodipodi:cx="-73.14286"
         sodipodi:cy="-910.95264"
         sodipodi:rx="128"
         sodipodi:ry="128"
         sodipodi:start="0"
         sodipodi:end="3.1415927"
         d="m 54.85714,-910.95264 a 128,128 0 0 1 -64.0000021,110.85126 128,128 0 0 1 -127.9999979,-1e-5 128,128 0 0 1 -64,-110.85125 l 128,0 z" />
    </g>
    <g
       style="fill:#ffffff;fill-opacity:1"
       id="g4532"
       transform="matrix(1.1769048,0,0,1.1769048,-18.638568,-155.67539)">
      <path
         style="fill:#ffffff;fill-opacity:1;stroke:none;stroke-width:0.21942857;stroke-linecap:butt;stroke-linejoin:bevel;stroke-miterlimit:4;stroke-dasharray:none;stroke-opacity:1"
         d="m 57.815309,148.92717 c 2.328818,-2.43596 12.353882,-12.61196 22.277919,-22.61333 18.768201,-18.91446 21.451532,-21.73234 23.050652,-24.20649 1.14423,-1.77035 1.37253,-2.5136 1.70747,-5.558779 0.14011,-1.273904 0.30625,-2.563047 0.3692,-2.864761 l 0.11445,-0.548572 16.66807,0 16.66807,0 0.1036,3.230476 c 0.12094,3.771376 0.3971,4.501746 2.84814,7.532806 3.1077,3.84312 13.94013,15.07238 33.65705,34.89005 l 14.25099,14.32381 -1.60974,0 c -1.58577,0 -1.62118,-0.0145 -2.37935,-0.97172 -0.42329,-0.53445 -2.29212,-2.39959 -4.15295,-4.14476 l -3.38334,-3.17304 -56.39325,0.0139 -56.393242,0.0138 -3.99396,4.25281 -3.993958,4.25281 -1.825018,0 -1.825018,0 4.234215,-4.42902 z m 96.516121,-24.01996 c 0,-0.0919 -3.92974,-4.1239 -8.73274,-8.96 -4.80301,-4.83611 -9.18915,-9.40311 -9.74699,-10.14889 -1.55845,-2.08352 -1.75646,-2.89609 -1.75646,-7.208021 l 0,-3.748394 -12.19048,0 -12.19047,0 0,3.025897 c 0,6.073678 -0.68162,7.084758 -13.591732,20.161428 -3.654456,3.7016 -6.644463,6.80103 -6.644463,6.88762 0,0.0866 14.592005,0.15744 32.426665,0.15744 17.83467,0 32.42667,-0.0752 32.42667,-0.16708 z"
         id="path4534"
         inkscape:connector-curvature="0"
         transform="translate(0,796.36216)" />
      <ellipse
         style="fill:#ffffff;fill-opacity:1;stroke:#ffffff;stroke-width:0.95160538;stroke-linecap:butt;stroke-linejoin:bevel;stroke-miterlimit:4;stroke-dasharray:none;stroke-opacity:1"
         id="ellipse4536"
         cx="121.98584"
         cy="874.78772"
         rx="5.9066978"
         ry="5.9066973" />
      <circle
         cy="857.29089"
         cx="138.85405"
         id="circle4538"
         style="fill:#ffffff;fill-opacity:1;stroke:#ffffff;stroke-width:0.64484024;stroke-linecap:butt;stroke-linejoin:bevel;stroke-miterlimit:4;stroke-dasharray:none;stroke-opacity:1"
         r="4.0025797" />
    </g>
  </g>
</svg>
