<?xml version="1.0" encoding="UTF-8" standalone="no"?>
<!-- Created with Inkscape (http://www.inkscape.org/) -->

<svg
   xmlns:dc="http://purl.org/dc/elements/1.1/"
   xmlns:cc="http://creativecommons.org/ns#"
   xmlns:rdf="http://www.w3.org/1999/02/22-rdf-syntax-ns#"
   xmlns:svg="http://www.w3.org/2000/svg"
   xmlns="http://www.w3.org/2000/svg"
   xmlns:sodipodi="http://sodipodi.sourceforge.net/DTD/sodipodi-0.dtd"
   xmlns:inkscape="http://www.inkscape.org/namespaces/inkscape"
   width="256"
   height="256"
   viewBox="0 0 256 256"
   id="svg4149"
   version="1.1"
   inkscape:version="0.92.3 (2405546, 2018-03-11)"
   sodipodi:docname="amazon-mp3-store-source.svg">
  <sodipodi:namedview
     id="base"
     pagecolor="#ffffff"
     bordercolor="#666666"
     borderopacity="1.0"
     inkscape:pageopacity="0.0"
     inkscape:pageshadow="2"
     inkscape:zoom="2.0507812"
     inkscape:cx="25.112378"
     inkscape:cy="128"
     inkscape:document-units="px"
     inkscape:current-layer="layer1"
     showgrid="false"
     units="px"
     inkscape:window-width="1920"
     inkscape:window-height="1048"
     inkscape:window-x="0"
     inkscape:window-y="0"
     inkscape:window-maximized="1" />
  <defs
     id="defs4151">
    <clipPath
       clipPathUnits="userSpaceOnUse"
       id="clipPath4863">
      <circle
         style="fill:#e9e9e9;fill-opacity:1;stroke:none;stroke-width:20;stroke-miterlimit:4;stroke-dasharray:none;stroke-opacity:1"
         id="circle4865"
         cx="128"
         cy="924.36218"
         r="77.263145" />
    </clipPath>
    <clipPath
       id="clipPath4227"
       clipPathUnits="userSpaceOnUse">
      <circle
         style="fill:#e9e9e9;fill-opacity:1;stroke:none;stroke-width:20;stroke-miterlimit:4;stroke-dasharray:none;stroke-opacity:1"
         id="circle4229"
         cx="128"
         cy="924.36218"
         r="77.263145" />
    </clipPath>
    <clipPath
       clipPathUnits="userSpaceOnUse"
       id="clipPath5543">
      <circle
         style="fill:#9e9fe9;fill-opacity:1;stroke:none;stroke-width:20;stroke-miterlimit:4;stroke-dasharray:none;stroke-opacity:1"
         id="circle5545"
         cx="128"
         cy="924.36218"
         r="128" />
    </clipPath>
    <clipPath
       id="clipPath6248"
       clipPathUnits="userSpaceOnUse">
      <circle
         style="fill:#77c445;fill-opacity:1;stroke:none;stroke-width:20;stroke-miterlimit:4;stroke-dasharray:none;stroke-opacity:1"
         id="circle6250"
         cx="128"
         cy="924.36218"
         r="128" />
    </clipPath>
    <clipPath
       id="clipPath4624"
       clipPathUnits="userSpaceOnUse">
      <path
         inkscape:connector-curvature="0"
         id="path4626"
         d="m 151.20117,0.24318 -105.78125,0 c -7.804357,0 -14.087891,6.28158 -14.087891,14.08594 l 0,227.33994 c 0,7.8043 6.283534,14.0878 14.087891,14.0878 l 165.16211,0 c 7.80436,0 14.08594,-6.2835 14.08594,-14.0878 l 0,-154.82237 -73.4668,-86.60351 z"
         style="fill:#0f9d58;fill-opacity:1" />
    </clipPath>
    <clipPath
       id="clipPath6409"
       clipPathUnits="userSpaceOnUse">
      <circle
         style="fill:#77c445;fill-opacity:1;stroke:none;stroke-width:20;stroke-miterlimit:4;stroke-dasharray:none;stroke-opacity:1"
         id="circle6411"
         cx="128"
         cy="924.36218"
         r="128" />
    </clipPath>
    <clipPath
       clipPathUnits="userSpaceOnUse"
       id="clipPath4544">
      <circle
         style="fill:#0f9d97;fill-opacity:1;stroke:none;stroke-width:20;stroke-miterlimit:4;stroke-dasharray:none;stroke-opacity:1"
         id="circle4546"
         cx="128"
         cy="128.00002"
         r="128" />
    </clipPath>
    <clipPath
       id="clipPath4250"
       clipPathUnits="userSpaceOnUse">
      <circle
         style="fill:#b70a01;fill-opacity:1;stroke:none;stroke-width:20;stroke-miterlimit:4;stroke-dasharray:none;stroke-opacity:1"
         id="circle4252"
         cx="128"
         cy="924.36218"
         r="128" />
    </clipPath>
    <clipPath
       clipPathUnits="userSpaceOnUse"
       id="clipPath4241">
      <circle
         style="fill:#01a3d2;fill-opacity:1;stroke:none;stroke-width:20;stroke-miterlimit:4;stroke-dasharray:none;stroke-opacity:1"
         id="circle4243"
         cx="128"
         cy="924.36218"
         r="128" />
    </clipPath>
    <clipPath
       id="clipPath4247"
       clipPathUnits="userSpaceOnUse">
      <circle
         style="fill:#01a3d2;fill-opacity:1;stroke:none;stroke-width:20;stroke-miterlimit:4;stroke-dasharray:none;stroke-opacity:1"
         id="circle4249"
         cx="128"
         cy="924.36218"
         r="128" />
    </clipPath>
    <clipPath
       clipPathUnits="userSpaceOnUse"
       id="clipPath4884">
      <circle
         style="fill:#dcdcdc;fill-opacity:1;stroke:none;stroke-width:20;stroke-miterlimit:4;stroke-dasharray:none;stroke-opacity:1"
         id="circle4886"
         cx="128"
         cy="924.36218"
         r="128" />
    </clipPath>
  </defs>
  <metadata
     id="metadata4154">
    <rdf:RDF>
      <cc:Work
         rdf:about="">
        <dc:format>image/svg+xml</dc:format>
        <dc:type
           rdf:resource="http://purl.org/dc/dcmitype/StillImage" />
        <dc:title />
      </cc:Work>
    </rdf:RDF>
  </metadata>
  <g
     transform="translate(0,-796.36216)"
     id="layer1"
     inkscape:groupmode="layer"
     inkscape:label="Layer 1">
    <g
       id="g966"
       transform="translate(250.39239,49.980934)">
      <path
         d="m 5.6076126,874.38123 a 128,128 0 0 1 -64.0000016,110.85125 128,128 0 0 1 -128.000001,0 128,128 0 0 1 -64,-110.85126 l 128,10e-6 z"
         sodipodi:end="3.1415927"
         sodipodi:start="0"
         sodipodi:ry="128"
         sodipodi:rx="128"
         sodipodi:cy="874.38123"
         sodipodi:cx="-122.39239"
         sodipodi:type="arc"
         id="path862"
         style="opacity:0.98999999;fill:#fab358;fill-opacity:1;stroke:none;stroke-width:25.08277512;stroke-miterlimit:4;stroke-dasharray:none;stroke-opacity:1" />
      <path
         transform="scale(1,-1)"
         style="opacity:0.98999999;fill:#f8981d;fill-opacity:1;stroke:none;stroke-width:25.08277512;stroke-miterlimit:4;stroke-dasharray:none;stroke-opacity:1"
         id="path864"
         sodipodi:type="arc"
         sodipodi:cx="-122.39239"
         sodipodi:cy="-874.38123"
         sodipodi:rx="128"
         sodipodi:ry="128"
         sodipodi:start="0"
         sodipodi:end="3.1415927"
         d="m 5.6076126,-874.38123 a 128,128 0 0 1 -64.0000016,110.85126 128,128 0 0 1 -128.000001,-10e-6 128,128 0 0 1 -64,-110.85125 l 128,0 z" />
    </g>
    <path
       inkscape:connector-curvature="0"
       style="fill:#ffffff;fill-opacity:1"
       d="m 113.56977,1008.3634 c -6.7636,-1.0572 -15.077162,-3.031 -18.901441,-4.4877 -1.504654,-0.5731 -3.295317,-1.2293 -3.979251,-1.4581 -3.954829,-1.3234 -11.752465,-5.0751 -16.414412,-7.89759 -0.957507,-0.5797 -2.076672,-1.20746 -2.487032,-1.39505 -0.410359,-0.18761 -0.858026,-0.47445 -0.994813,-0.63751 -0.13678,-0.16299 -0.920202,-0.71898 -1.740923,-1.23539 -8.192241,-5.15458 -25.186424,-20.52971 -25.919349,-23.44999 -0.667856,-2.6609 1.307657,-4.19131 3.248194,-2.51638 1.132654,0.97763 9.001703,6.28588 9.318282,6.28588 0.146648,0 0.860876,0.42149 1.587031,0.93665 1.558105,1.10529 5.826261,3.45471 11.019733,6.0658 10.209626,5.13302 27.167711,10.75711 37.305481,12.37224 10.62333,1.69247 14.45578,2.0138 24.0189,2.0138 9.78705,0 14.81264,-0.47488 25.47303,-2.40699 4.79565,-0.8692 18.67173,-4.86426 21.88589,-6.30118 0.82072,-0.36692 2.7233,-1.15229 4.22795,-1.74525 1.50465,-0.59298 4.99503,-2.17679 7.7564,-3.51957 6.92836,-3.3691 9.15542,-3.22979 9.15542,0.57263 0,1.4052 -0.36864,2.17255 -1.61657,3.36501 -7.04852,6.73518 -16.63966,12.98853 -26.36254,17.18819 -1.0259,0.4431 -2.59273,1.12 -3.48185,1.5042 -2.4598,1.0629 -10.25904,3.6038 -13.05692,4.2538 -1.36786,0.3178 -3.34175,0.8021 -4.38641,1.0761 -9.20611,2.4149 -25.20143,3.0503 -35.6548,1.4164 z"
       id="path4478" />
    <path
       inkscape:connector-curvature="0"
       style="fill:#ffffff;fill-opacity:1"
       d="m 198.73639,995.32274 c -0.4664,-0.56962 1.75703,-7.64303 4.13301,-13.1484 0.37592,-0.87105 0.83382,-3.24268 1.01757,-5.27031 0.31297,-3.45378 0.25949,-3.75722 -0.84675,-4.80488 -1.16198,-1.10044 -1.33163,-1.11389 -10.63154,-0.84305 -5.19789,0.15132 -10.0103,0.34024 -10.69423,0.4197 -1.02254,0.11885 -1.27083,-0.0919 -1.39723,-1.1852 -0.13028,-1.12712 0.21055,-1.54393 2.23713,-2.73575 3.33481,-1.96119 5.14272,-2.58072 10.84915,-3.71775 7.28676,-1.45193 15.96066,-0.62199 18.61621,1.78124 3.10099,2.80638 -1.68188,20.42873 -6.9899,25.75399 -0.46631,0.46783 -1.14658,1.26249 -1.51171,1.76592 -0.81455,1.12304 -2.9191,2.60625 -3.6981,2.60625 -0.31598,0 -0.80361,-0.2798 -1.08361,-0.62176 z"
       id="path4480" />
    <path
       sodipodi:nodetypes="ccscccccccccsscccccscssccsccccccsscccccsscccccccccccccccc"
       inkscape:connector-curvature="0"
       style="fill:#ffffff;fill-opacity:1"
       d="m 127.35344,839.45549 c -6.05252,0.0219 -12.30554,0.35584 -15.02582,0.98237 -18.271427,4.20833 -28.532567,11.36194 -34.681658,24.19054 -2.731746,5.69914 -4.211866,15.21248 -2.988583,16.91598 h 5.442455 5.367844 8.704611 6.503591 2.42485 2.70672 c 1.86142,-5.63326 3.65679,-11.10939 7.66835,-13.60821 4.15922,-2.59078 12.29005,-3.36448 17.31803,-1.64975 2.78034,0.94819 6.08154,3.69737 7.26628,6.0518 1.46642,2.91421 2.37097,7.96179 2.37097,13.24343 v 5.21864 l -7.83415,0.8746 c -4.30878,0.48178 -9.84864,1.18338 -12.31081,1.55853 -2.46216,0.37514 -5.4839,0.81385 -6.71498,0.97408 -2.81958,0.36709 -9.98853,2.08256 -12.93257,3.09637 -16.887244,5.81516 -26.544139,16.2991 -29.918992,32.48478 -1.314934,6.3064 -0.615059,17.73742 1.413462,23.1294 1.38792,3.68923 3.823674,8.70461 4.227955,8.70461 0.220729,0 0.40207,0.25491 0.40207,0.56372 0,0.74075 3.223756,4.30627 5.4466,6.02278 0.970041,0.74903 1.989627,1.53792 2.2632,1.75335 2.625472,2.06754 8.674409,4.43471 13.678675,5.3554 7.92798,1.45859 21.06472,0.30049 28.10346,-2.47873 2.43888,-0.963 6.61969,-3.14777 7.21239,-3.76787 0.13678,-0.14304 0.9202,-0.68271 1.74093,-1.20205 1.52807,-0.96699 1.86613,-1.257 6.89322,-5.8321 1.60382,-1.45961 3.05873,-2.69309 3.23314,-2.74403 0.17441,-0.0509 1.32642,1.47789 2.5575,3.39896 2.37783,3.71057 6.4646,8.29898 9.64554,10.82688 2.18291,1.73476 5.38597,1.85197 6.94711,0.78755 l 1.09429,-0.74611 1.15647,-0.91191 4.53469,-4.06629 4.53054,-3.9378 3.20413,-2.77304 c 6.69562,-5.55119 7.03707,-6.63319 3.66008,-11.49838 -8.63964,-12.44704 -8.04122,-9.04468 -8.41446,-47.9417 -0.29479,-30.7229 -0.35123,-32.24333 -1.36786,-35.89202 -2.74712,-9.85919 -8.34307,-16.72285 -17.28073,-21.1978 -4.49248,-2.24931 -6.20048,-2.9171 -9.20202,-3.5979 -1.50465,-0.34131 -3.8549,-0.97892 -5.22277,-1.41348 -1.91921,-0.6097 -7.77123,-0.89655 -13.82375,-0.8746 z m 13.20199,71.2825 -0.28601,8.90357 c -0.25556,7.87754 -0.86656,12.51775 -2.08496,15.86726 -2.26595,6.2293 -6.48212,11.39509 -11.37817,13.93568 -2.6443,1.37204 -8.22803,2.02808 -11.04242,1.2974 -2.52456,-0.6554 -5.98317,-3.36976 -7.51912,-5.89842 -3.46821,-5.70989 -3.45772,-15.42856 0.0208,-21.7325 1.04604,-1.89574 4.27281,-5.37541 6.13053,-6.61551 4.41361,-2.94632 11.72334,-4.92216 20.00402,-5.401 l 6.15541,-0.35648 z"
       id="path4482" />
  </g>
</svg>
