<?xml version="1.0" encoding="UTF-8" standalone="no"?>
<!-- Created with Inkscape (http://www.inkscape.org/) -->

<svg
   xmlns:dc="http://purl.org/dc/elements/1.1/"
   xmlns:cc="http://creativecommons.org/ns#"
   xmlns:rdf="http://www.w3.org/1999/02/22-rdf-syntax-ns#"
   xmlns:svg="http://www.w3.org/2000/svg"
   xmlns="http://www.w3.org/2000/svg"
   xmlns:sodipodi="http://sodipodi.sourceforge.net/DTD/sodipodi-0.dtd"
   xmlns:inkscape="http://www.inkscape.org/namespaces/inkscape"
   width="256"
   height="256"
   viewBox="0 0 256 256"
   id="svg2"
   version="1.1"
   inkscape:version="0.92.3 (2405546, 2018-03-11)"
   sodipodi:docname="amule.svg">
  <sodipodi:namedview
     id="base"
     pagecolor="#ffffff"
     bordercolor="#666666"
     borderopacity="1.0"
     inkscape:pageopacity="0.0"
     inkscape:pageshadow="2"
     inkscape:zoom="2.0507812"
     inkscape:cx="25.112378"
     inkscape:cy="128"
     inkscape:document-units="px"
     inkscape:current-layer="layer1"
     showgrid="false"
     units="px"
     inkscape:window-width="1920"
     inkscape:window-height="1048"
     inkscape:window-x="0"
     inkscape:window-y="0"
     inkscape:window-maximized="1" />
  <defs
     id="defs4">
    <marker
       inkscape:isstock="true"
       style="overflow:visible;"
       id="Arrow1Mend"
       refX="0.0"
       refY="0.0"
       orient="auto"
       inkscape:stockid="Arrow1Mend">
      <path
         transform="scale(0.4) rotate(180) translate(10,0)"
         style="fill-rule:evenodd;stroke:#000000;stroke-width:1pt;stroke-opacity:1;fill:#000000;fill-opacity:1"
         d="M 0.0,0.0 L 5.0,-5.0 L -12.5,0.0 L 5.0,5.0 L 0.0,0.0 z "
         id="path5459" />
    </marker>
    <marker
       inkscape:stockid="Arrow1Mend"
       orient="auto"
       refY="0.0"
       refX="0.0"
       id="marker7388"
       style="overflow:visible;"
       inkscape:isstock="true">
      <path
         id="path7390"
         d="M 0.0,0.0 L 5.0,-5.0 L -12.5,0.0 L 5.0,5.0 L 0.0,0.0 z "
         style="fill-rule:evenodd;stroke:#000000;stroke-width:1pt;stroke-opacity:1;fill:none;fill-opacity:1"
         transform="scale(0.4) rotate(180) translate(10,0)" />
    </marker>
    <clipPath
       clipPathUnits="userSpaceOnUse"
       id="clipPath5002">
      <g
         id="g5004">
        <path
           transform="translate(0,796.36216)"
           inkscape:connector-curvature="0"
           id="path5006"
           d="M 88.118406,249.43519 C 46.103287,235.29134 14.771284,201.68742 4.1335861,159.36053 1.3377997,148.23623 0.92261224,144.16281 0.92582381,127.88908 0.92787958,117.47222 1.134384,112.01362 1.6577819,108.54099 4.4653598,89.913336 12.17654,70.638106 23.042737,55.086148 c 3.958678,-5.665755 8.344812,-10.93092 9.101533,-10.925587 0.32809,0.0023 10.488643,18.309713 22.579009,40.683112 12.090365,22.373397 22.374546,41.334697 22.853732,42.136217 0.479186,0.80151 0.924733,2.44098 0.990103,3.64326 0.343424,6.31639 2.524175,14.20976 5.6424,20.42304 2.954444,5.88693 5.065381,8.73258 10.434696,14.06652 6.71418,6.66995 12.88853,10.28643 21.73204,12.72904 3.16587,0.87442 5.10478,1.05037 11.57517,1.05037 8.82596,0 12.60219,-0.76201 19.26429,-3.88733 2.04584,-0.95974 3.93661,-1.66536 4.20172,-1.56805 0.2651,0.0973 -11.0555,17.66459 -25.1569,39.0384 l -25.6389,38.86148 -3.094121,0.11221 c -2.554618,0.0927 -4.195204,-0.25845 -9.409103,-2.01364 z"
           style="fill:#0f9d58;fill-opacity:1;stroke:none;stroke-width:4.85768509;stroke-linejoin:round;stroke-miterlimit:4;stroke-dasharray:none;stroke-opacity:1" />
        <path
           inkscape:connector-curvature="0"
           id="path5008"
           d="m 112.35984,1051.5167 c -10.0014,-1.4495 -12.15632,-1.8201 -12.531784,-2.1556 -0.248854,-0.2223 1.738304,-3.7475 4.550294,-8.0722 7.16635,-11.0213 49.77231,-74.64801 50.25856,-75.05489 3.57509,-2.99158 8.63523,-8.0414 10.57512,-10.55356 3.36154,-4.35318 7.55784,-12.9141 9.06523,-18.494 6.19314,-22.92535 -2.59253,-47.15185 -21.69967,-59.83688 l -2.96081,-1.96565 17.02469,0.29584 c 9.36358,0.1627 31.17032,0.43384 48.45941,0.60252 l 31.43471,0.30668 1.54584,4.18869 c 2.24597,6.08579 4.67816,15.0947 5.93451,21.9816 1.52517,8.36049 1.92536,28.85896 0.73851,37.82758 -3.0805,23.27845 -12.81326,45.72018 -27.80202,64.10577 -20.47622,25.1166 -51.4599,42.1974 -84.14612,46.3885 -5.31244,0.6812 -26.64601,0.9864 -30.44647,0.4356 z"
           style="fill:#f4b400;fill-opacity:1;stroke:none;stroke-width:4.85768509;stroke-linejoin:round;stroke-miterlimit:4;stroke-dasharray:none;stroke-opacity:1" />
        <path
           transform="translate(0,796.36216)"
           inkscape:connector-curvature="0"
           id="path5010"
           d="M 67.989788,108.87302 C 41.284246,59.575543 33.290284,45.149038 32.233625,44.344765 31.651257,43.901497 32.811213,42.549931 38.695603,36.815353 53.43581,22.450419 68.809334,13.040746 87.839196,6.7360352 101.68742,2.1480329 112.58238,0.43719165 127.95142,0.43719165 c 21.3099,0 37.80488,3.80960275 56.83492,13.12633035 25.29351,12.383198 46.19421,33.578863 58.51993,59.345832 1.61138,3.368591 2.92978,6.372442 2.92978,6.675231 0,0.560033 -10.54865,0.49527 -71.16508,-0.436914 l -24.28843,-0.373518 -3.93063,-1.764495 c -6.75732,-3.033425 -10.64587,-3.839529 -18.6576,-3.867747 -5.0296,-0.01773 -7.97946,0.207636 -10.31642,0.788106 -14.50826,3.603659 -26.283291,12.94777 -33.291614,26.418653 -3.58502,6.89086 -5.24713,13.08166 -6.331628,23.58317 l -0.33738,3.26696 -9.92748,-18.32578 z"
           style="fill:#db4437;fill-opacity:1;stroke:none;stroke-width:10;stroke-linejoin:round;stroke-miterlimit:4;stroke-dasharray:none;stroke-opacity:1" />
      </g>
    </clipPath>
    <radialGradient
       id="SVGID21"
       cx="278.95999"
       cy="216.92"
       r="322.22"
       gradientTransform="matrix(0.7100982,0,0,-0.69667735,-12.931184,1000.262)"
       gradientUnits="userSpaceOnUse">
      <stop
         offset="0.119"
         stop-color="#ffffff"
         id="stop131" />
      <stop
         offset="0.122"
         stop-color="#fffffa"
         id="stop133" />
      <stop
         offset="0.25"
         stop-color="#ffe560"
         id="stop135" />
      <stop
         offset="0.287"
         stop-color="#ffdf56"
         id="stop137" />
      <stop
         offset="0.347"
         stop-color="#f8d03b"
         id="stop139" />
      <stop
         offset="0.406"
         stop-color="#f0be1b"
         id="stop141" />
      <stop
         offset="0.473"
         stop-color="#eb9d23"
         id="stop143" />
      <stop
         offset="0.548"
         stop-color="#e57c27"
         id="stop145" />
      <stop
         offset="0.765"
         stop-color="#dd5626"
         id="stop147" />
      <stop
         offset="0.903"
         stop-color="#c33a28"
         id="stop149" />
      <stop
         offset="1"
         stop-color="#b02228"
         id="stop151" />
    </radialGradient>
    <clipPath
       clipPathUnits="userSpaceOnUse"
       id="clipPath6128">
      <circle
         r="128"
         cy="925.362"
         cx="128"
         id="circle6130"
         style="opacity:1;fill:#4285f4;fill-opacity:1;stroke:none;stroke-width:20.51976967;stroke-linecap:round;stroke-linejoin:round;stroke-miterlimit:4;stroke-dasharray:none;stroke-opacity:1" />
    </clipPath>
    <clipPath
       id="clipPath6618"
       clipPathUnits="userSpaceOnUse">
      <circle
         r="128"
         cy="925.362"
         cx="128"
         id="circle6620"
         style="opacity:1;fill:#4285f4;fill-opacity:1;stroke:none;stroke-width:20.51976967;stroke-linecap:round;stroke-linejoin:round;stroke-miterlimit:4;stroke-dasharray:none;stroke-opacity:1" />
    </clipPath>
    <clipPath
       id="clipPath5300"
       clipPathUnits="userSpaceOnUse">
      <circle
         r="128"
         cy="925.362"
         cx="128"
         id="circle5302"
         style="opacity:1;fill:#3f71aa;fill-opacity:1;stroke:none;stroke-width:20.51976967;stroke-linecap:round;stroke-linejoin:round;stroke-miterlimit:4;stroke-dasharray:none;stroke-opacity:1" />
    </clipPath>
    <clipPath
       id="clipPath5390"
       clipPathUnits="userSpaceOnUse">
      <circle
         r="128"
         cy="925.362"
         cx="128"
         id="circle5392"
         style="opacity:1;fill:#3f71aa;fill-opacity:1;stroke:none;stroke-width:20.51976967;stroke-linecap:round;stroke-linejoin:round;stroke-miterlimit:4;stroke-dasharray:none;stroke-opacity:1" />
    </clipPath>
    <clipPath
       clipPathUnits="userSpaceOnUse"
       id="clipPath5032">
      <circle
         r="128"
         cy="927.04407"
         cx="128"
         id="circle5034"
         style="opacity:1;fill:#aa9a3f;fill-opacity:1;stroke:none;stroke-width:20.51976967;stroke-linecap:round;stroke-linejoin:round;stroke-miterlimit:4;stroke-dasharray:none;stroke-opacity:1" />
    </clipPath>
    <clipPath
       clipPathUnits="userSpaceOnUse"
       id="clipPath5052">
      <circle
         r="128"
         cy="934.16028"
         cx="115.78784"
         id="circle5054"
         style="opacity:1;fill:#aa9a3f;fill-opacity:1;stroke:none;stroke-width:20.51976967;stroke-linecap:round;stroke-linejoin:round;stroke-miterlimit:4;stroke-dasharray:none;stroke-opacity:1" />
    </clipPath>
  </defs>
  <metadata
     id="metadata7">
    <rdf:RDF>
      <cc:Work
         rdf:about="">
        <dc:format>image/svg+xml</dc:format>
        <dc:type
           rdf:resource="http://purl.org/dc/dcmitype/StillImage" />
        <dc:title />
      </cc:Work>
    </rdf:RDF>
  </metadata>
  <g
     transform="translate(0,-796.36216)"
     id="layer1"
     inkscape:groupmode="layer"
     inkscape:label="Layer 1">
    <g
       id="g921"
       transform="translate(279.64954,38.765724)">
      <path
         d="m -23.649536,885.59644 a 128,128 0 0 1 -64.000002,110.85125 128,128 0 0 1 -128.000002,0 128,128 0 0 1 -64,-110.85126 l 128,10e-6 z"
         sodipodi:end="3.1415927"
         sodipodi:start="0"
         sodipodi:ry="128"
         sodipodi:rx="128"
         sodipodi:cy="885.59644"
         sodipodi:cx="-151.64954"
         sodipodi:type="arc"
         id="path862"
         style="opacity:0.98999999;fill:#31a4ef;fill-opacity:1;stroke:none;stroke-width:25.08277512;stroke-miterlimit:4;stroke-dasharray:none;stroke-opacity:1" />
      <path
         transform="scale(1,-1)"
         style="opacity:0.98999999;fill:#20659b;fill-opacity:1;stroke:none;stroke-width:25.08277512;stroke-miterlimit:4;stroke-dasharray:none;stroke-opacity:1"
         id="path864"
         sodipodi:type="arc"
         sodipodi:cx="-151.64954"
         sodipodi:cy="-885.59644"
         sodipodi:rx="128"
         sodipodi:ry="128"
         sodipodi:start="0"
         sodipodi:end="3.1415927"
         d="m -23.649536,-885.59644 a 128,128 0 0 1 -64.000002,110.85126 128,128 0 0 1 -128.000002,-10e-6 128,128 0 0 1 -64,-110.85125 l 128,0 z" />
    </g>
    <path
       inkscape:connector-curvature="0"
       id="path4913"
       d="M 154.47438,968.80998 101.03985,1048.476 0.4857685,1048.9618 0,842.0244 l 33.032258,-2.42884 45.176471,83.55218 21.373814,35.4611 26.717267,13.11575 z"
       style="fill:none;fill-rule:evenodd;stroke:none;stroke-width:1px;stroke-linecap:butt;stroke-linejoin:miter;stroke-opacity:1" />
    <path
       id="path4685"
       d="m 105.7663,833.81242 c -5.11004,0.062 -10.401865,1.77745 -14.138064,4.62874 -3.000265,2.2896 -4.758177,5.12717 -4.824747,7.90629 -0.0687,2.86786 1.667312,5.41953 4.870219,7.04295 6.848581,3.47215 17.750172,1.67652 23.779642,-3.81644 5.68334,-5.1778 4.61178,-11.52243 -1.9088,-14.34915 -2.21308,-0.95973 -4.90579,-1.44715 -7.77825,-1.41239 0,0 0,0 0,0 m 77.60084,17.71696 c -5.56654,0.0825 -10.49693,2.181 -13.1565,5.6721 -4.53598,5.95291 -1.36107,14.31875 7.67284,18.48054 9.40139,4.33093 20.56527,2.06802 24.3445,-4.78335 1.72862,-3.13287 1.57947,-6.77247 -0.32164,-10.10313 -1.83801,-3.22014 -5.18163,-5.91629 -9.2869,-7.55578 -2.92208,-1.16689 -6.12334,-1.75678 -9.2523,-1.71038 0,0 0,0 0,0 m -71.39926,16.96654 c -14.401228,0.24324 -29.715935,6.24048 -41.487097,16.7056 -10.033927,8.9211 -17.050561,20.656 -18.987926,32.94768 -2.147329,13.62381 2.124382,26.6034 12.541032,35.29313 23.891456,19.93242 64.217421,9.05857 82.805011,-20.37408 15.19767,-24.06572 7.73209,-49.57404 -12.49724,-59.74824 -6.58863,-3.31373 -14.29508,-4.96075 -22.37378,-4.82409 0,0 0,0 0,0 m 62.86388,82.50776 c -8.59692,0.24486 -16.46128,5.31121 -21.06382,13.83227 -8.0767,14.95039 -4.26798,36.80385 10.08952,48.01825 15.3402,11.9814 34.13487,5.4871 40.3346,-13.25229 5.568,-16.83082 -1.74877,-36.32332 -15.14689,-44.59474 -4.47629,-2.76424 -9.38558,-4.14005 -14.21341,-4.00349 0,0 0,0 0,0"
       style="opacity:1;fill:#798289;fill-opacity:1;stroke:none;stroke-width:30;stroke-linecap:round;stroke-linejoin:round;stroke-miterlimit:4;stroke-dasharray:none;stroke-opacity:1"
       inkscape:connector-curvature="0" />
    <path
       inkscape:connector-curvature="0"
       style="opacity:1;fill:#fdfeff;fill-opacity:1;stroke:none;stroke-width:30;stroke-linecap:round;stroke-linejoin:round;stroke-miterlimit:4;stroke-dasharray:none;stroke-opacity:1"
       d="m 104.74153,829.81242 c -5.110035,0.062 -10.401857,1.77745 -14.138056,4.62874 -3.000265,2.2896 -4.758177,5.12717 -4.824747,7.90629 -0.0687,2.86786 1.667312,5.41953 4.870219,7.04295 6.848581,3.47215 17.750174,1.67652 23.779644,-3.81644 5.68334,-5.1778 4.61178,-11.52243 -1.9088,-14.34915 -2.21309,-0.95973 -4.9058,-1.44715 -7.77826,-1.41239 0,0 0,0 0,0 m 77.60085,17.71696 c -5.56654,0.0825 -10.49693,2.181 -13.1565,5.6721 -4.53598,5.95291 -1.36107,14.31875 7.67284,18.48054 9.40139,4.33093 20.56527,2.06802 24.3445,-4.78335 1.72862,-3.13287 1.57947,-6.77247 -0.32164,-10.10313 -1.83801,-3.22014 -5.18163,-5.91629 -9.2869,-7.55578 -2.92208,-1.16689 -6.12334,-1.75678 -9.2523,-1.71038 0,0 0,0 0,0 m -71.39926,16.96654 c -14.40123,0.24324 -29.715937,6.24048 -41.487099,16.7056 -10.033927,8.9211 -17.050561,20.656 -18.987926,32.94768 -2.147329,13.62381 2.124382,26.6034 12.541032,35.29313 23.891456,19.93242 64.217423,9.05857 82.805013,-20.37408 15.19767,-24.06572 7.73209,-49.57404 -12.49724,-59.74824 -6.58863,-3.31373 -14.29508,-4.96075 -22.37378,-4.82409 0,0 0,0 0,0 m 62.86388,82.50776 c -8.59692,0.24486 -16.46128,5.31121 -21.06382,13.83227 -8.0767,14.95039 -4.26798,36.80386 10.08952,48.01825 15.3402,11.9814 34.13487,5.4871 40.3346,-13.25229 5.568,-16.83082 -1.74877,-36.32332 -15.14689,-44.59474 -4.47629,-2.76424 -9.38558,-4.14005 -14.21341,-4.00349 0,0 0,0 0,0"
       id="path4227" />
    <g
       id="g4275"
       style="stroke:#ffffff;stroke-width:5.19999981;stroke-miterlimit:4;stroke-dasharray:none;stroke-opacity:1"
       transform="translate(3.9226494,8.7314373)">
      <path
         inkscape:connector-curvature="0"
         id="path4271"
         d="M 183.5984,848.93295 C 149.44852,868.11396 134.6541,871.02696 99.287712,887.905 L 96.998344,827.2512"
         style="fill:none;fill-rule:evenodd;stroke:#ffffff;stroke-width:5.19999981;stroke-linecap:butt;stroke-linejoin:miter;stroke-miterlimit:4;stroke-dasharray:none;stroke-opacity:1"
         sodipodi:nodetypes="ccc" />
      <path
         inkscape:connector-curvature="0"
         id="path4273"
         d="m 98.507213,887.0648 74.191567,97.05274"
         style="fill:none;fill-rule:evenodd;stroke:#ffffff;stroke-width:5.19999981;stroke-linecap:butt;stroke-linejoin:miter;stroke-miterlimit:4;stroke-dasharray:none;stroke-opacity:1"
         sodipodi:nodetypes="cc" />
    </g>
    <g
       transform="matrix(0.25496597,0.11700227,-0.11700227,0.25496597,242.42522,688.51235)"
       style="font-style:normal;font-weight:normal;font-size:40px;line-height:125%;font-family:sans-serif;letter-spacing:0px;word-spacing:0px;fill:#20659b;fill-opacity:1;stroke:none;stroke-width:1px;stroke-linecap:butt;stroke-linejoin:miter;stroke-opacity:1"
       id="text4691">
      <path
         style="fill:#20659b;fill-opacity:1"
         inkscape:connector-curvature="0"
         d="m -61.745291,878.46104 c 0,0 2.637517,12.34098 2.637517,12.34098 0,0 -124.383656,-2.55196 -124.383656,-2.55196 -5.03774,19.59812 -4.08725,37.06379 4.0977,50.76131 9.21492,15.00381 25.9687,23.39325 49.54754,23.94989 13.67906,0.32293 26.8786,-1.51222 39.333178,-5.42602 12.252509,-3.8082 23.778977,-9.48008 34.395282,-16.79799 0,0 7.97133,42.7126 7.97133,42.7126 -12.452028,7.75988 -26.09462,13.83596 -40.745046,18.02135 -15.029864,4.2936 -30.605374,6.2808 -46.416944,5.878 -39.51096,-1.0067 -66.27564,-17.85534 -78.58899,-46.37221 -10.26263,-24.03831 -7.64149,-50.82051 4.39861,-77.89249 10.00805,-22.50297 22.522,-37.27866 37.71214,-46.74822 13.80708,-8.60362 29.08298,-12.44124 46.83162,-12.12571 15.93994,0.28338 28.824254,4.2164 39.325278,12.33068 11.59912,8.84921 19.670421,22.20234 23.884441,41.91979 0,0 0,0 0,0 m -26.388894,-7.28969 c -1.301976,-11.5832 -5.590486,-20.02764 -12.633605,-25.96659 -6.55262,-5.58871 -14.84214,-8.35611 -25.14633,-8.54469 -11.65721,-0.21334 -21.52904,2.12903 -29.97084,7.23679 -8.85711,5.40964 -15.77521,13.71373 -20.76765,25.65 0,0 88.518443,1.62468 88.518443,1.62468 0,0 -1.8e-5,-1.9e-4 -1.8e-5,-1.9e-4"
         id="path4696" />
    </g>
  </g>
</svg>
