<?xml version="1.0" encoding="UTF-8" standalone="no"?>
<!-- Created with Inkscape (http://www.inkscape.org/) -->

<svg
   xmlns:dc="http://purl.org/dc/elements/1.1/"
   xmlns:cc="http://creativecommons.org/ns#"
   xmlns:rdf="http://www.w3.org/1999/02/22-rdf-syntax-ns#"
   xmlns:svg="http://www.w3.org/2000/svg"
   xmlns="http://www.w3.org/2000/svg"
   xmlns:sodipodi="http://sodipodi.sourceforge.net/DTD/sodipodi-0.dtd"
   xmlns:inkscape="http://www.inkscape.org/namespaces/inkscape"
   width="256"
   height="256"
   viewBox="0 0 256 256"
   id="svg4149"
   version="1.1"
   inkscape:version="0.92.3 (2405546, 2018-03-11)"
   sodipodi:docname="assistant.svg">
  <sodipodi:namedview
     id="base"
     pagecolor="#ffffff"
     bordercolor="#666666"
     borderopacity="1.0"
     inkscape:pageopacity="0.0"
     inkscape:pageshadow="2"
     inkscape:zoom="3.3125"
     inkscape:cx="128"
     inkscape:cy="127.99998"
     inkscape:document-units="px"
     inkscape:current-layer="layer1"
     showgrid="false"
     units="px"
     inkscape:window-width="1920"
     inkscape:window-height="1048"
     inkscape:window-x="0"
     inkscape:window-y="0"
     inkscape:window-maximized="1" />
  <defs
     id="defs4151">
    <clipPath
       id="clipPath4863"
       clipPathUnits="userSpaceOnUse">
      <circle
         r="77.263145"
         cy="924.36218"
         cx="128"
         id="circle4865"
         style="fill:#e9e9e9;fill-opacity:1;stroke:none;stroke-width:20;stroke-miterlimit:4;stroke-dasharray:none;stroke-opacity:1" />
    </clipPath>
    <clipPath
       clipPathUnits="userSpaceOnUse"
       id="clipPath4227">
      <circle
         r="77.263145"
         cy="924.36218"
         cx="128"
         id="circle4229"
         style="fill:#e9e9e9;fill-opacity:1;stroke:none;stroke-width:20;stroke-miterlimit:4;stroke-dasharray:none;stroke-opacity:1" />
    </clipPath>
    <clipPath
       id="clipPath5543"
       clipPathUnits="userSpaceOnUse">
      <circle
         r="128"
         cy="924.36218"
         cx="128"
         id="circle5545"
         style="fill:#9e9fe9;fill-opacity:1;stroke:none;stroke-width:20;stroke-miterlimit:4;stroke-dasharray:none;stroke-opacity:1" />
    </clipPath>
    <clipPath
       clipPathUnits="userSpaceOnUse"
       id="clipPath6248">
      <circle
         r="128"
         cy="924.36218"
         cx="128"
         id="circle6250"
         style="fill:#77c445;fill-opacity:1;stroke:none;stroke-width:20;stroke-miterlimit:4;stroke-dasharray:none;stroke-opacity:1" />
    </clipPath>
  </defs>
  <metadata
     id="metadata4154">
    <rdf:RDF>
      <cc:Work
         rdf:about="">
        <dc:format>image/svg+xml</dc:format>
        <dc:type
           rdf:resource="http://purl.org/dc/dcmitype/StillImage" />
        <dc:title />
      </cc:Work>
    </rdf:RDF>
  </metadata>
  <g
     inkscape:label="Layer 1"
     inkscape:groupmode="layer"
     id="layer1"
     transform="translate(0,-796.36216)">
    <g
       id="g900"
       transform="translate(80,20.528298)">
      <path
         transform="scale(1,-1)"
         d="m 176,-903.83386 a 128,128 0 0 1 -64,110.85125 128,128 0 0 1 -128.000003,0 A 128,128 0 0 1 -80,-903.83387 l 128,1e-5 z"
         sodipodi:end="3.1415927"
         sodipodi:start="0"
         sodipodi:ry="128"
         sodipodi:rx="128"
         sodipodi:cy="-903.83386"
         sodipodi:cx="48"
         sodipodi:type="arc"
         id="path915"
         style="opacity:1;fill:#49802a;fill-opacity:1;stroke:none;stroke-width:59.1206665;stroke-miterlimit:4;stroke-dasharray:none;stroke-opacity:1" />
      <path
         style="opacity:1;fill:#77c445;fill-opacity:1;stroke:none;stroke-width:59.1206665;stroke-miterlimit:4;stroke-dasharray:none;stroke-opacity:1"
         id="path917"
         sodipodi:type="arc"
         sodipodi:cx="48"
         sodipodi:cy="903.83386"
         sodipodi:rx="128"
         sodipodi:ry="128"
         sodipodi:start="0"
         sodipodi:end="3.1415927"
         d="m 176,903.83386 a 128,128 0 0 1 -64,110.85124 128,128 0 0 1 -128.000003,0 A 128,128 0 0 1 -80,903.83386 l 128,0 z" />
    </g>
    <path
       style="fill:#ffffff;fill-opacity:1"
       d="m 106.10496,996.20101 c -13.222486,-2.84936 -19.141826,-8.82813 -21.528966,-21.74514 -1.11817,-6.05051 -2.01599,-7.25398 -5.43064,-7.27945 -1.12909,-0.008 -5.79093,-1.82298 -10.35964,-4.03236 -14.50074,-7.01239 -24.33186,-19.02769 -28.68909,-35.06291 -2.14851,-7.90684 -2.42459,-25.16798 -0.52654,-32.92004 5.08838,-20.78204 20.73526,-36.86557 40.3679,-41.49443 19.80589,-4.66971 40.868196,0.71662 54.204466,13.86187 11.57515,11.40935 16.51808,23.02117 17.2965,40.63256 0.58419,13.21701 -0.79241,20.41558 -5.9282,31 -5.99959,12.36463 -21.68061,24.80323 -34.68067,27.50962 -3.29833,0.68666 -3.35809,0.79063 -2.88205,5.0141 1.43396,12.722 13.64251,18.306 33.06482,15.12332 l 4.81459,-0.78896 -0.31459,3.81851 -0.3146,3.8185 -6.5,1.2311 c -8.71167,1.65001 -27.51554,2.40791 -32.59329,1.31371 z m -0.93498,-38.46364 c 9.30672,-3.8886 16.93448,-15.02565 20.13075,-29.39229 2.00183,-8.99784 1.46359,-31.94461 -0.92143,-39.2834 -5.33845,-16.42659 -14.73977,-25.46081 -27.720246,-26.63784 -11.90986,-1.07995 -21.43993,4.83712 -27.44679,17.04129 -5.13885,10.44063 -6.81051,19.63601 -6.21659,34.19598 0.91162,22.3486 8.05707,36.87695 21.20258,43.10976 5.85933,2.77814 15.5653,3.22545 20.971726,0.9665 z m 80.52827,9.54996 c -4.52373,-0.97702 -6.91823,-2.3211 -10,-5.61319 l -2.5,-2.67061 -0.5,-30.67121 -0.5,-30.67121 -5.25,-0.30226 c -5.05837,-0.29123 -5.25,-0.40823 -5.25,-3.20549 0,-2.48293 0.83243,-3.38367 5.75,-6.22188 5.2408,-3.02476 6.1485,-4.09116 10.25,-12.04208 l 4.5,-8.72342 5.25,-0.002 5.25,-0.002 0,10.5 0,10.5 12.5,0 12.5,0 0,4.5 0,4.5 -12.5,0 -12.5,0 0.002,24.75 c 0.002,33.18028 0.69767,34.59385 16.74859,34.03648 l 8.25015,-0.28648 -1.5e-4,3.59311 -1.4e-4,3.59312 -7.75,2.11335 c -8.92578,2.43398 -19.19231,3.41899 -24.25,2.32664 z"
       id="path6044"
       inkscape:connector-curvature="0" />
    <g
       style="font-style:normal;font-weight:normal;font-size:180px;line-height:125%;font-family:sans-serif;letter-spacing:0px;word-spacing:0px;fill:#2dbbff;fill-opacity:1;stroke:none;stroke-width:1px;stroke-linecap:butt;stroke-linejoin:miter;stroke-opacity:1"
       id="text4202"
       transform="matrix(1.284818,0,0,1,-42.870426,-1.4545455)">
      <path
         d="m 126.0016,961.67432 17.8418,0 0,22.32422 -17.8418,0 0,-22.32422 z m 17.31446,-12.91993 -16.78711,0 0,-13.53515 q 0,-8.87695 2.46093,-14.58985 2.46094,-5.71289 10.3711,-13.27148 l 7.91015,-7.82227 q 5.00977,-4.6582 7.20703,-8.78906 2.28516,-4.13086 2.28516,-8.4375 0,-7.82226 -5.80078,-12.65625 -5.71289,-4.83398 -15.20508,-4.83398 -6.94336,0 -14.85351,3.07617 -7.82227,3.07617 -16.34766,8.96484 l 0,-16.52343 q 8.26172,-5.00977 16.69922,-7.47071 8.52539,-2.46093 17.57812,-2.46093 16.17188,0 25.92774,8.52539 9.84375,8.52539 9.84375,22.5 0,6.67968 -3.16406,12.74414 -3.16407,5.97656 -11.07422,13.53515 l -7.73438,7.5586 q -4.13086,4.13086 -5.88867,6.5039 -1.66992,2.28516 -2.37305,4.48242 -0.52734,1.84571 -0.79101,4.48243 -0.26367,2.63672 -0.26367,7.20703 l 0,10.81054 z"
         id="path4210"
         style="fill:#2dbbff;fill-opacity:1"
         inkscape:connector-curvature="0" />
    </g>
  </g>
</svg>
