<?xml version="1.0" encoding="UTF-8" standalone="no"?>
<!-- Created with Inkscape (http://www.inkscape.org/) -->

<svg
   xmlns:dc="http://purl.org/dc/elements/1.1/"
   xmlns:cc="http://creativecommons.org/ns#"
   xmlns:rdf="http://www.w3.org/1999/02/22-rdf-syntax-ns#"
   xmlns:svg="http://www.w3.org/2000/svg"
   xmlns="http://www.w3.org/2000/svg"
   xmlns:xlink="http://www.w3.org/1999/xlink"
   xmlns:sodipodi="http://sodipodi.sourceforge.net/DTD/sodipodi-0.dtd"
   xmlns:inkscape="http://www.inkscape.org/namespaces/inkscape"
   width="256"
   height="256"
   viewBox="0 0 256 256"
   id="svg2"
   version="1.1"
   inkscape:version="0.92.3 (2405546, 2018-03-11)"
   sodipodi:docname="aqualung.svg">
  <sodipodi:namedview
     id="base"
     pagecolor="#ffffff"
     bordercolor="#666666"
     borderopacity="1.0"
     inkscape:pageopacity="0.0"
     inkscape:pageshadow="2"
     inkscape:zoom="3.3124999"
     inkscape:cx="128"
     inkscape:cy="152.15092"
     inkscape:document-units="px"
     inkscape:current-layer="layer1"
     showgrid="true"
     units="px"
     inkscape:window-width="1920"
     inkscape:window-height="1048"
     inkscape:window-x="0"
     inkscape:window-y="0"
     inkscape:window-maximized="1"
     showguides="false">
    <inkscape:grid
       spacingy="5"
       spacingx="5"
       id="grid4168"
       type="xygrid" />
  </sodipodi:namedview>
  <defs
     id="defs4">
    <inkscape:path-effect
       is_visible="true"
       id="path-effect4884"
       effect="spiro" />
    <inkscape:path-effect
       is_visible="true"
       id="path-effect4880"
       effect="spiro" />
    <inkscape:path-effect
       fuse_tolerance="0"
       vertical_pattern="false"
       prop_units="false"
       tang_offset="0"
       normal_offset="0"
       spacing="0"
       scale_y_rel="false"
       prop_scale="1"
       copytype="single_stretched"
       pattern="M 0,0 1,0"
       is_visible="true"
       id="path-effect4235"
       effect="skeletal" />
    <clipPath
       id="clipPath5002"
       clipPathUnits="userSpaceOnUse">
      <g
         id="g5004">
        <path
           style="fill:#0f9d58;fill-opacity:1;stroke:none;stroke-width:4.85768509;stroke-linejoin:round;stroke-miterlimit:4;stroke-dasharray:none;stroke-opacity:1"
           d="M 88.118406,249.43519 C 46.103287,235.29134 14.771284,201.68742 4.1335861,159.36053 1.3377997,148.23623 0.92261224,144.16281 0.92582381,127.88908 0.92787958,117.47222 1.134384,112.01362 1.6577819,108.54099 4.4653598,89.913336 12.17654,70.638106 23.042737,55.086148 c 3.958678,-5.665755 8.344812,-10.93092 9.101533,-10.925587 0.32809,0.0023 10.488643,18.309713 22.579009,40.683112 12.090365,22.373397 22.374546,41.334697 22.853732,42.136217 0.479186,0.80151 0.924733,2.44098 0.990103,3.64326 0.343424,6.31639 2.524175,14.20976 5.6424,20.42304 2.954444,5.88693 5.065381,8.73258 10.434696,14.06652 6.71418,6.66995 12.88853,10.28643 21.73204,12.72904 3.16587,0.87442 5.10478,1.05037 11.57517,1.05037 8.82596,0 12.60219,-0.76201 19.26429,-3.88733 2.04584,-0.95974 3.93661,-1.66536 4.20172,-1.56805 0.2651,0.0973 -11.0555,17.66459 -25.1569,39.0384 l -25.6389,38.86148 -3.094121,0.11221 c -2.554618,0.0927 -4.195204,-0.25845 -9.409103,-2.01364 z"
           id="path5006"
           inkscape:connector-curvature="0"
           transform="translate(0,796.36216)" />
        <path
           style="fill:#f4b400;fill-opacity:1;stroke:none;stroke-width:4.85768509;stroke-linejoin:round;stroke-miterlimit:4;stroke-dasharray:none;stroke-opacity:1"
           d="m 112.35984,1051.5167 c -10.0014,-1.4495 -12.15632,-1.8201 -12.531784,-2.1556 -0.248854,-0.2223 1.738304,-3.7475 4.550294,-8.0722 7.16635,-11.0213 49.77231,-74.64801 50.25856,-75.05489 3.57509,-2.99158 8.63523,-8.0414 10.57512,-10.55356 3.36154,-4.35318 7.55784,-12.9141 9.06523,-18.494 6.19314,-22.92535 -2.59253,-47.15185 -21.69967,-59.83688 l -2.96081,-1.96565 17.02469,0.29584 c 9.36358,0.1627 31.17032,0.43384 48.45941,0.60252 l 31.43471,0.30668 1.54584,4.18869 c 2.24597,6.08579 4.67816,15.0947 5.93451,21.9816 1.52517,8.36049 1.92536,28.85896 0.73851,37.82758 -3.0805,23.27845 -12.81326,45.72018 -27.80202,64.10577 -20.47622,25.1166 -51.4599,42.1974 -84.14612,46.3885 -5.31244,0.6812 -26.64601,0.9864 -30.44647,0.4356 z"
           id="path5008"
           inkscape:connector-curvature="0" />
        <path
           style="fill:#db4437;fill-opacity:1;stroke:none;stroke-width:10;stroke-linejoin:round;stroke-miterlimit:4;stroke-dasharray:none;stroke-opacity:1"
           d="M 67.989788,108.87302 C 41.284246,59.575543 33.290284,45.149038 32.233625,44.344765 31.651257,43.901497 32.811213,42.549931 38.695603,36.815353 53.43581,22.450419 68.809334,13.040746 87.839196,6.7360352 101.68742,2.1480329 112.58238,0.43719165 127.95142,0.43719165 c 21.3099,0 37.80488,3.80960275 56.83492,13.12633035 25.29351,12.383198 46.19421,33.578863 58.51993,59.345832 1.61138,3.368591 2.92978,6.372442 2.92978,6.675231 0,0.560033 -10.54865,0.49527 -71.16508,-0.436914 l -24.28843,-0.373518 -3.93063,-1.764495 c -6.75732,-3.033425 -10.64587,-3.839529 -18.6576,-3.867747 -5.0296,-0.01773 -7.97946,0.207636 -10.31642,0.788106 -14.50826,3.603659 -26.283291,12.94777 -33.291614,26.418653 -3.58502,6.89086 -5.24713,13.08166 -6.331628,23.58317 l -0.33738,3.26696 -9.92748,-18.32578 z"
           id="path5010"
           inkscape:connector-curvature="0"
           transform="translate(0,796.36216)" />
      </g>
    </clipPath>
    <clipPath
       clipPathUnits="userSpaceOnUse"
       id="clipPath4271">
      <circle
         style="fill:#292929;fill-opacity:0.26020412;stroke:none;stroke-width:10;stroke-linejoin:round;stroke-miterlimit:4;stroke-dasharray:none;stroke-opacity:0.25882353"
         id="circle4273"
         cx="128"
         cy="128.00002"
         r="128" />
    </clipPath>
    <clipPath
       id="clipPath4363"
       clipPathUnits="userSpaceOnUse">
      <circle
         style="fill:#4285f4;fill-opacity:1;stroke:none;stroke-width:10;stroke-linejoin:round;stroke-miterlimit:4;stroke-dasharray:none;stroke-opacity:0.25882353"
         id="circle4365"
         cx="128"
         cy="924.36218"
         r="128" />
    </clipPath>
    <clipPath
       clipPathUnits="userSpaceOnUse"
       id="clipPath4452">
      <circle
         style="fill:#4285f4;fill-opacity:1;stroke:none;stroke-width:10;stroke-linejoin:round;stroke-miterlimit:4;stroke-dasharray:none;stroke-opacity:0.25882353"
         id="circle4454"
         cx="128"
         cy="924.36218"
         r="128" />
    </clipPath>
    <clipPath
       id="clipPath5177"
       clipPathUnits="userSpaceOnUse">
      <circle
         style="fill:#4285f4;fill-opacity:1;stroke:none;stroke-width:10;stroke-linejoin:round;stroke-miterlimit:4;stroke-dasharray:none;stroke-opacity:0.25882353"
         id="circle5179"
         cx="128"
         cy="924.36218"
         r="128" />
    </clipPath>
    <clipPath
       clipPathUnits="userSpaceOnUse"
       id="clipPath4342">
      <circle
         style="fill:#4285f4;fill-opacity:1;stroke:none;stroke-width:10;stroke-linejoin:round;stroke-miterlimit:4;stroke-dasharray:none;stroke-opacity:0.25882353"
         id="circle4344"
         cx="128"
         cy="933.48718"
         r="128" />
    </clipPath>
    <clipPath
       id="clipPath4681"
       clipPathUnits="userSpaceOnUse">
      <circle
         style="fill:#9d5fad;fill-opacity:1;stroke:none;stroke-width:10;stroke-linejoin:round;stroke-miterlimit:4;stroke-dasharray:none;stroke-opacity:0.25882353"
         id="circle4683"
         cx="127.00293"
         cy="930.43964"
         r="128" />
    </clipPath>
    <clipPath
       clipPathUnits="userSpaceOnUse"
       id="clipPath4480">
      <circle
         style="fill:#df7618;fill-opacity:1;stroke:none;stroke-width:10;stroke-linejoin:round;stroke-miterlimit:4;stroke-dasharray:none;stroke-opacity:0.25882353"
         id="circle4482"
         cx="128"
         cy="924.36218"
         r="128" />
    </clipPath>
    <filter
       style="color-interpolation-filters:sRGB"
       inkscape:label="Drop Shadow"
       id="filter4301">
      <feFlood
         flood-opacity="0.498039"
         flood-color="rgb(0,0,0)"
         result="flood"
         id="feFlood4303" />
      <feComposite
         in="flood"
         in2="SourceGraphic"
         operator="in"
         result="composite1"
         id="feComposite4305" />
      <feGaussianBlur
         in="composite1"
         stdDeviation="3.7"
         result="blur"
         id="feGaussianBlur4307" />
      <feOffset
         dx="3.8"
         dy="3.7"
         result="offset"
         id="feOffset4309" />
      <feComposite
         in="SourceGraphic"
         in2="offset"
         operator="over"
         result="composite2"
         id="feComposite4311" />
    </filter>
    <clipPath
       id="clipPath5827"
       clipPathUnits="userSpaceOnUse">
      <circle
         style="fill:#df7618;fill-opacity:1;stroke:none;stroke-width:10;stroke-linejoin:round;stroke-miterlimit:4;stroke-dasharray:none;stroke-opacity:0.25882353"
         id="circle5829"
         cx="128"
         cy="924.36218"
         r="128" />
    </clipPath>
    <clipPath
       clipPathUnits="userSpaceOnUse"
       id="clipPath5688">
      <circle
         style="fill:#ffeb4f;fill-opacity:1;stroke:none;stroke-width:10;stroke-linejoin:round;stroke-miterlimit:4;stroke-dasharray:none;stroke-opacity:0.25882353"
         id="circle5690"
         cx="126.04952"
         cy="923.87457"
         r="128" />
    </clipPath>
    <radialGradient
       cx="22.999998"
       cy="28.5"
       r="3"
       fx="22.999998"
       fy="28.5"
       id="radialGradient14259"
       xlink:href="#linearGradient8285"
       gradientUnits="userSpaceOnUse"
       gradientTransform="matrix(5.4254368,0,0,10.549462,84.596486,606.82174)" />
    <linearGradient
       id="linearGradient8285">
      <stop
         id="stop8287"
         style="stop-color:#ff6c6c;stop-opacity:1"
         offset="0" />
      <stop
         id="stop8289"
         style="stop-color:#cc0000;stop-opacity:1"
         offset="1" />
    </linearGradient>
    <radialGradient
       cx="22.999998"
       cy="28.5"
       r="3"
       fx="22.999998"
       fy="28.5"
       id="radialGradient11865"
       xlink:href="#linearGradient8285"
       gradientUnits="userSpaceOnUse"
       gradientTransform="matrix(5.4254349,0,0,10.549462,-78.166576,605.99277)" />
    <radialGradient
       cx="22.999998"
       cy="28.5"
       r="3"
       fx="22.999998"
       fy="28.5"
       id="radialGradient17172"
       xlink:href="#linearGradient8285"
       gradientUnits="userSpaceOnUse"
       gradientTransform="matrix(9.04239,0,0,14.065945,-79.974999,533.72914)" />
    <clipPath
       id="clipPath5888"
       clipPathUnits="userSpaceOnUse">
      <circle
         style="fill:#eed60b;fill-opacity:1;stroke:none;stroke-width:10;stroke-linejoin:round;stroke-miterlimit:4;stroke-dasharray:none;stroke-opacity:0.25882353"
         id="circle5890"
         cx="126.04952"
         cy="923.87457"
         r="128" />
    </clipPath>
    <clipPath
       clipPathUnits="userSpaceOnUse"
       id="clipPath5301">
      <circle
         style="fill:#2c2255;fill-opacity:1;stroke:none;stroke-width:10;stroke-linejoin:round;stroke-miterlimit:4;stroke-dasharray:none;stroke-opacity:0.25882353"
         id="circle5303"
         cx="126.04952"
         cy="923.87457"
         r="128" />
    </clipPath>
    <clipPath
       id="clipPath4313"
       clipPathUnits="userSpaceOnUse">
      <circle
         r="128"
         cy="128.00002"
         cx="128"
         id="circle4315"
         style="fill:#f7941e;fill-opacity:1;stroke:none;stroke-width:10;stroke-linejoin:round;stroke-miterlimit:4;stroke-dasharray:none;stroke-opacity:0.25882353" />
    </clipPath>
    <filter
       id="filter3326"
       style="color-interpolation-filters:sRGB">
      <feGaussianBlur
         stdDeviation="0.35326172"
         id="feGaussianBlur3328" />
    </filter>
    <clipPath
       id="clipPath3126">
      <path
         style="fill:none;stroke:#000000;stroke-width:1px;stroke-linecap:butt;stroke-linejoin:miter;stroke-opacity:1"
         id="path3128"
         d="m 30,94 2,2 3,10 1,-12 3,15 0,-19 2,5 3,14 0,-19 2,2 3,17 3,-23 6.615678,25.91971 L 59,96 l 2,-6 2,25 6,-25 2,21 5,-22 5,24 1,-18 3,-6 1,23 5,-22 3,10 1,-9 3,6 0,-19 -3,8 L 94,69 92,82 90,78 89,64 84,83 83,79 80,49 77,75 75,83 71,56 67,79 65,85 64,43.695313 58,90 52,48 49,84 47,80 45,56 44,80 41,87 39,63 37,82 34,77 34,91 30,76 30,94 Z"
         inkscape:connector-curvature="0" />
    </clipPath>
    <filter
       id="filter3282"
       style="color-interpolation-filters:sRGB">
      <feGaussianBlur
         stdDeviation="1.3375"
         id="feGaussianBlur3284" />
    </filter>
    <filter
       id="filter3242"
       height="1.1844211"
       width="1.2002286"
       y="-0.092210524"
       x="-0.10011429"
       style="color-interpolation-filters:sRGB">
      <feGaussianBlur
         stdDeviation="2.92"
         id="feGaussianBlur3244" />
    </filter>
    <clipPath
       clipPathUnits="userSpaceOnUse"
       id="clipPath3668">
      <circle
         r="128"
         cy="929.9884"
         cx="129.58571"
         id="circle3670"
         style="fill:#f7941e;fill-opacity:1;stroke:none;stroke-width:10;stroke-linejoin:round;stroke-miterlimit:4;stroke-dasharray:none;stroke-opacity:0.25882353" />
    </clipPath>
  </defs>
  <metadata
     id="metadata7">
    <rdf:RDF>
      <cc:Work
         rdf:about="">
        <dc:format>image/svg+xml</dc:format>
        <dc:type
           rdf:resource="http://purl.org/dc/dcmitype/StillImage" />
        <dc:title />
      </cc:Work>
    </rdf:RDF>
  </metadata>
  <g
     inkscape:label="Layer 1"
     inkscape:groupmode="layer"
     id="layer1"
     transform="translate(0,-796.36216)">
    <g
       id="g921">
      <path
         transform="scale(1,-1)"
         d="m 256,-924.36218 a 128,128 0 0 1 -64,110.85125 128,128 0 0 1 -128.000003,0 A 128,128 0 0 1 0,-924.36219 l 128,1e-5 z"
         sodipodi:end="3.1415927"
         sodipodi:start="0"
         sodipodi:ry="128"
         sodipodi:rx="128"
         sodipodi:cy="-924.36218"
         sodipodi:cx="128"
         sodipodi:type="arc"
         id="path915"
         style="opacity:1;fill:#204a87;fill-opacity:1;stroke:none;stroke-width:59.1206665;stroke-miterlimit:4;stroke-dasharray:none;stroke-opacity:1" />
      <path
         style="opacity:1;fill:#2e6ac2;fill-opacity:1;stroke:none;stroke-width:59.1206665;stroke-miterlimit:4;stroke-dasharray:none;stroke-opacity:1"
         id="path917"
         sodipodi:type="arc"
         sodipodi:cx="128"
         sodipodi:cy="924.36218"
         sodipodi:rx="128"
         sodipodi:ry="128"
         sodipodi:start="0"
         sodipodi:end="3.1415927"
         d="m 256,924.36218 a 128,128 0 0 1 -64,110.85122 128,128 0 0 1 -128.000003,0 A 128,128 0 0 1 0,924.36218 l 128,0 z" />
    </g>
    <path
       transform="matrix(0,-1,-1,0,0,0)"
       d="m -893.17163,-79.87571 a 47.5,47.5 0 0 1 -23.75,41.136208 47.5,47.5 0 0 1 -47.5,-2e-6 47.5,47.5 0 0 1 -23.75,-41.136208 l 47.5,2e-6 z"
       sodipodi:end="3.1415927"
       sodipodi:start="0"
       sodipodi:ry="47.5"
       sodipodi:rx="47.5"
       sodipodi:cy="-79.87571"
       sodipodi:cx="-940.67163"
       sodipodi:type="arc"
       id="path3411"
       style="fill:#ffffff;fill-opacity:1;stroke:none;stroke-width:1;stroke-miterlimit:4;stroke-dasharray:none;stroke-opacity:1" />
    <path
       style="fill:#ffffff;fill-opacity:1;stroke:none;stroke-width:1;stroke-miterlimit:4;stroke-dasharray:none;stroke-opacity:1"
       id="path3413"
       sodipodi:type="arc"
       sodipodi:cx="940.67163"
       sodipodi:cy="180.12428"
       sodipodi:rx="47.5"
       sodipodi:ry="47.5"
       sodipodi:start="0"
       sodipodi:end="3.1415927"
       d="m 988.17163,180.12428 a 47.5,47.5 0 0 1 -23.75,41.13621 47.5,47.5 0 0 1 -47.5,0 47.5,47.5 0 0 1 -23.75,-41.13621 l 47.5,0 z"
       transform="matrix(0,1,1,0,0,0)" />
    <path
       style="fill:none;fill-opacity:1;stroke:#ffffff;stroke-width:9.80000019;stroke-miterlimit:4;stroke-dasharray:none;stroke-opacity:1"
       id="path3415"
       sodipodi:type="arc"
       sodipodi:cx="129.91904"
       sodipodi:cy="-895.24182"
       sodipodi:rx="55"
       sodipodi:ry="47.5"
       sodipodi:start="0"
       sodipodi:end="3.1415927"
       d="m 184.91904,-895.24182 a 55,47.5 0 0 1 -27.5,41.13621 55,47.5 0 0 1 -55,-1e-5 55,47.5 0 0 1 -27.500003,-41.1362"
       transform="scale(1,-1)"
       sodipodi:open="true" />
    <rect
       style="fill:#ffffff;fill-opacity:1;stroke:none;stroke-width:9.80000019;stroke-miterlimit:4;stroke-dasharray:none;stroke-opacity:1"
       id="rect3417"
       width="10"
       height="97.314285"
       x="84.926666"
       y="892.59119"
       ry="5.4063492" />
    <rect
       ry="5.4063492"
       y="892.59119"
       x="163.92094"
       height="97.314285"
       width="10"
       id="rect3419"
       style="fill:#ffffff;fill-opacity:1;stroke:none;stroke-width:9.80000019;stroke-miterlimit:4;stroke-dasharray:none;stroke-opacity:1" />
    <g
       id="g3421"
       transform="matrix(0.88403132,0,0,1.0101456,15.574128,-9.1587613)">
      <path
         inkscape:connector-curvature="0"
         style="display:inline;fill:#f3e517;fill-opacity:1;fill-rule:evenodd;stroke:none;filter:url(#filter3242)"
         id="path3423"
         d="m 126.52006,901.88403 c -2.29445,5.74224 -4.50442,15.24479 -7.17342,4.31292 -2.00161,-7.76464 -6.2787,4.8657 -9.38908,7.03083 -6.27323,4.76866 -9.74509,11.48841 -12.53125,18.6875 -7.377751,-6.27336 -4.610431,3.79488 -5.0625,8.71875 0.402184,7.38089 -0.800512,15.45209 0.59375,22.40625 5.854747,5.10155 10.08988,13.15352 18.80206,13.04976 5.95944,2.07139 5.21305,-6.94006 10.61669,0.53774 4.97291,6.81603 8.04398,2.83082 11.29009,-0.52223 4.74327,7.26056 6.19602,-8.68733 10.19741,-1.53402 6.18418,2.40622 11.72912,3.55166 12.74374,-4.61035 1.26996,-6.4463 12.35304,-6.57697 9.75626,-14.32715 -0.36218,-8.04099 0.71936,-16.65598 -0.53125,-24.34375 -4.19751,-3.27608 -7.43607,-10.84123 -12.21875,-11.5 -5.91751,2.87171 -3.63746,-9.78966 -6.07262,-13.51643 -0.7962,-9.78592 -2.89232,-5.3611 -5.17112,1.34977 -1.26088,9.66116 -6.56137,5.05567 -9.26886,-1.26738 -2.40851,-2.02486 -5.15299,-12.72355 -6.58115,-4.47221 z" />
      <g
         transform="translate(64.992381,859.63403)"
         style="display:inline;fill:#ff0101;fill-opacity:1;filter:url(#filter3326)"
         id="g3425">
        <g
           style="fill:#ff0101;fill-opacity:1"
           id="g3427"
           clip-path="url(#clipPath3126)">
          <path
             inkscape:connector-curvature="0"
             style="fill:#ff0101;fill-opacity:1;fill-rule:evenodd;stroke:none"
             id="path3429"
             d="M 28,116 V 43 h 72 v 73 z" />
          <path
             inkscape:connector-curvature="0"
             style="fill:#ff0101;fill-opacity:1;fill-rule:evenodd;stroke:none;filter:url(#filter3282)"
             id="path3431"
             d="m 29,80 8,5 3,-9 5,6 6,-10 2,12 2,-8 3,6 1,-6 c 0,0 3,8 3,7 0,-1 4,-15 4,-15 l 4,13 6,-12 3,13 5,-9 3,9 5,-5 6,6 v 8 l -4,3 -6,-2 -4,-2 -1,10 -2,-10 -4,9 -6,-9 -2,9 -4,-6 -5,13 -3,-15 -6,3 -4,-6 -2,10 -4,-5 -4,5 -2,-3 -6,1 z" />
        </g>
      </g>
    </g>
  </g>
</svg>
