<?xml version="1.0" encoding="UTF-8" standalone="no"?>
<!-- Created with Inkscape (http://www.inkscape.org/) -->

<svg
   xmlns:dc="http://purl.org/dc/elements/1.1/"
   xmlns:cc="http://creativecommons.org/ns#"
   xmlns:rdf="http://www.w3.org/1999/02/22-rdf-syntax-ns#"
   xmlns:svg="http://www.w3.org/2000/svg"
   xmlns="http://www.w3.org/2000/svg"
   xmlns:sodipodi="http://sodipodi.sourceforge.net/DTD/sodipodi-0.dtd"
   xmlns:inkscape="http://www.inkscape.org/namespaces/inkscape"
   width="256"
   height="256"
   viewBox="0 0 256 256"
   id="svg4149"
   version="1.1"
   inkscape:version="0.92.3 (2405546, 2018-03-11)"
   sodipodi:docname="blender.svg">
  <sodipodi:namedview
     id="base"
     pagecolor="#ffffff"
     bordercolor="#666666"
     borderopacity="1.0"
     inkscape:pageopacity="0.0"
     inkscape:pageshadow="2"
     inkscape:zoom="3.3125"
     inkscape:cx="62.792453"
     inkscape:cy="128"
     inkscape:document-units="px"
     inkscape:current-layer="layer1"
     showgrid="false"
     units="px"
     inkscape:window-width="1920"
     inkscape:window-height="1048"
     inkscape:window-x="0"
     inkscape:window-y="0"
     inkscape:window-maximized="1" />
  <defs
     id="defs4151">
    <clipPath
       id="clipPath4863"
       clipPathUnits="userSpaceOnUse">
      <circle
         r="77.263145"
         cy="924.36218"
         cx="128"
         id="circle4865"
         style="fill:#e9e9e9;fill-opacity:1;stroke:none;stroke-width:20;stroke-miterlimit:4;stroke-dasharray:none;stroke-opacity:1" />
    </clipPath>
    <clipPath
       clipPathUnits="userSpaceOnUse"
       id="clipPath4227">
      <circle
         r="77.263145"
         cy="924.36218"
         cx="128"
         id="circle4229"
         style="fill:#e9e9e9;fill-opacity:1;stroke:none;stroke-width:20;stroke-miterlimit:4;stroke-dasharray:none;stroke-opacity:1" />
    </clipPath>
    <clipPath
       id="clipPath5543"
       clipPathUnits="userSpaceOnUse">
      <circle
         r="128"
         cy="924.36218"
         cx="128"
         id="circle5545"
         style="fill:#9e9fe9;fill-opacity:1;stroke:none;stroke-width:20;stroke-miterlimit:4;stroke-dasharray:none;stroke-opacity:1" />
    </clipPath>
    <clipPath
       clipPathUnits="userSpaceOnUse"
       id="clipPath6248">
      <circle
         r="128"
         cy="924.36218"
         cx="128"
         id="circle6250"
         style="fill:#77c445;fill-opacity:1;stroke:none;stroke-width:20;stroke-miterlimit:4;stroke-dasharray:none;stroke-opacity:1" />
    </clipPath>
    <clipPath
       clipPathUnits="userSpaceOnUse"
       id="clipPath4624">
      <path
         style="fill:#0f9d58;fill-opacity:1"
         d="m 151.20117,0.24318 -105.78125,0 c -7.804357,0 -14.087891,6.28158 -14.087891,14.08594 l 0,227.33994 c 0,7.8043 6.283534,14.0878 14.087891,14.0878 l 165.16211,0 c 7.80436,0 14.08594,-6.2835 14.08594,-14.0878 l 0,-154.82237 -73.4668,-86.60351 z"
         id="path4626"
         inkscape:connector-curvature="0" />
    </clipPath>
    <clipPath
       clipPathUnits="userSpaceOnUse"
       id="clipPath6409">
      <circle
         r="128"
         cy="924.36218"
         cx="128"
         id="circle6411"
         style="fill:#77c445;fill-opacity:1;stroke:none;stroke-width:20;stroke-miterlimit:4;stroke-dasharray:none;stroke-opacity:1" />
    </clipPath>
    <clipPath
       id="clipPath4544"
       clipPathUnits="userSpaceOnUse">
      <circle
         r="128"
         cy="128.00002"
         cx="128"
         id="circle4546"
         style="fill:#0f9d97;fill-opacity:1;stroke:none;stroke-width:20;stroke-miterlimit:4;stroke-dasharray:none;stroke-opacity:1" />
    </clipPath>
    <clipPath
       clipPathUnits="userSpaceOnUse"
       id="clipPath4250">
      <circle
         r="128"
         cy="924.36218"
         cx="128"
         id="circle4252"
         style="fill:#b70a01;fill-opacity:1;stroke:none;stroke-width:20;stroke-miterlimit:4;stroke-dasharray:none;stroke-opacity:1" />
    </clipPath>
    <clipPath
       id="clipPath4241"
       clipPathUnits="userSpaceOnUse">
      <circle
         r="128"
         cy="924.36218"
         cx="128"
         id="circle4243"
         style="fill:#01a3d2;fill-opacity:1;stroke:none;stroke-width:20;stroke-miterlimit:4;stroke-dasharray:none;stroke-opacity:1" />
    </clipPath>
    <clipPath
       clipPathUnits="userSpaceOnUse"
       id="clipPath4247">
      <circle
         r="128"
         cy="924.36218"
         cx="128"
         id="circle4249"
         style="fill:#01a3d2;fill-opacity:1;stroke:none;stroke-width:20;stroke-miterlimit:4;stroke-dasharray:none;stroke-opacity:1" />
    </clipPath>
    <clipPath
       id="clipPath4274"
       clipPathUnits="userSpaceOnUse">
      <circle
         r="128"
         cy="924.36218"
         cx="128"
         id="circle4276"
         style="fill:#f77e08;fill-opacity:1;stroke:none;stroke-width:20;stroke-miterlimit:4;stroke-dasharray:none;stroke-opacity:1" />
    </clipPath>
    <clipPath
       clipPathUnits="userSpaceOnUse"
       id="clipPath1090">
      <circle
         r="128"
         cy="924.36218"
         cx="128"
         id="circle1092"
         style="fill:#f5792a;fill-opacity:1;stroke:none;stroke-width:20;stroke-miterlimit:4;stroke-dasharray:none;stroke-opacity:1" />
    </clipPath>
  </defs>
  <metadata
     id="metadata4154">
    <rdf:RDF>
      <cc:Work
         rdf:about="">
        <dc:format>image/svg+xml</dc:format>
        <dc:type
           rdf:resource="http://purl.org/dc/dcmitype/StillImage" />
        <dc:title />
      </cc:Work>
    </rdf:RDF>
  </metadata>
  <g
     inkscape:label="Layer 1"
     inkscape:groupmode="layer"
     id="layer1"
     transform="translate(0,-796.36216)">
    <g
       id="g911"
       transform="translate(36.226418,63.094338)">
      <path
         transform="scale(1,-1)"
         d="m 219.77358,-861.26782 a 128,128 0 0 1 -64,110.85125 128,128 0 0 1 -128.000001,0 128,128 0 0 1 -63.999997,-110.85126 l 128,10e-6 z"
         sodipodi:end="3.1415927"
         sodipodi:start="0"
         sodipodi:ry="128"
         sodipodi:rx="128"
         sodipodi:cy="-861.26782"
         sodipodi:cx="91.773582"
         sodipodi:type="arc"
         id="path876"
         style="opacity:1;fill:#ca550a;fill-opacity:1;stroke:none;stroke-width:34.60464478;stroke-miterlimit:4;stroke-dasharray:none;stroke-opacity:1" />
      <path
         style="opacity:1;fill:#f5792a;fill-opacity:1;stroke:none;stroke-width:34.60464478;stroke-miterlimit:4;stroke-dasharray:none;stroke-opacity:1"
         id="path878"
         sodipodi:type="arc"
         sodipodi:cx="91.773582"
         sodipodi:cy="861.26782"
         sodipodi:rx="128"
         sodipodi:ry="128"
         sodipodi:start="0"
         sodipodi:end="3.1415927"
         d="m 219.77358,861.26782 a 128,128 0 0 1 -64,110.85125 128,128 0 0 1 -128.000001,0 128,128 0 0 1 -63.999997,-110.85125 l 128,0 z" />
    </g>
    <path
       inkscape:connector-curvature="0"
       style="fill:#f5792a;fill-opacity:1;stroke:none;stroke-width:20;stroke-miterlimit:4;stroke-dasharray:none;stroke-opacity:1"
       d="m 153.80859,902.31138 c -8.89054,0.012 -17.38889,2.95331 -24.06054,8.39258 -3.40929,2.78261 -6.16498,6.07571 -8.16797,9.71289 -2.04198,3.70614 -3.31583,7.796 -3.68164,12.08984 -0.38381,4.3898 0.19829,8.74 1.68554,12.83594 1.52024,4.17391 3.98453,8.08694 7.33985,11.49023 6.86955,6.9835 16.47971,10.91959 26.89648,10.90039 10.40478,-0.021 20.01522,-3.98888 26.88477,-10.98437 3.35532,-3.42129 5.81075,-7.33468 7.33398,-11.51758 1.48725,-4.10195 2.06622,-8.44628 1.69141,-12.83008 -0.37781,-4.30583 -1.64734,-8.37994 -3.69531,-12.08008 -2.003,-3.63718 -4.76181,-6.91493 -8.16211,-9.68554 -6.67765,-5.41828 -15.16793,-8.33862 -24.06446,-8.32422 z"
       id="path1110" />
    <path
       id="path3026"
       style="fill:#0d528a;fill-opacity:1;fill-rule:nonzero;stroke:none;stroke-width:2.99849534"
       d="m 131.61908,932.95927 c 0.31784,-5.66715 3.09745,-10.66264 7.28335,-14.20387 4.11093,-3.47825 9.63716,-5.60419 15.67313,-5.60419 6.02698,0 11.5562,2.12594 15.66414,5.60419 4.1889,3.54123 6.96251,8.53672 7.28335,14.19788 0.31784,5.82907 -2.02099,11.23836 -6.13193,15.25035 -4.18889,4.08095 -10.14391,6.64466 -16.81556,6.64466 -6.67465,0 -12.64165,-2.56371 -16.83055,-6.64466 -4.10794,-4.01199 -6.44377,-9.42128 -6.12593,-15.24436"
       inkscape:connector-curvature="0" />
    <path
       id="path3028"
       style="fill:#ffffff;fill-opacity:1;fill-rule:nonzero;stroke:none;stroke-width:2.99849534"
       d="m 95.067416,944.41653 c 0.0391,2.22188 0.746625,6.53072 1.8081,9.89803 2.23088,7.12742 6.014984,13.72111 11.283334,19.5352 5.40329,5.97 12.05695,10.77059 19.7421,14.17388 8.07495,3.58021 16.82755,5.40029 25.91899,5.3853 9.07945,-0.012 17.82906,-1.87106 25.907,-5.47525 7.68515,-3.43628 14.33281,-8.25786 19.7301,-14.23386 5.25936,-5.83207 9.04046,-12.43776 11.27434,-19.56518 1.12744,-3.60419 1.83508,-7.25636 2.11994,-10.92652 0.28186,-3.61319 0.16192,-7.22937 -0.35082,-10.84556 -1.0015,-7.04946 -3.43928,-13.65814 -7.1904,-19.68512 -3.43627,-5.53822 -7.86205,-10.38978 -13.12441,-14.47074 l 0.0144,-0.005 -53.10935,-40.77954 c -0.0451,-0.036 -0.084,-0.0748 -0.13505,-0.10507 -3.48725,-2.67766 -9.34631,-2.66566 -13.17539,0.0144 -3.87705,2.70765 -4.31783,7.1904 -0.87256,10.02098 l -0.012,0.012 22.14688,18.01196 -67.511128,0.0748 c -0.03286,0 -0.06309,0 -0.08996,0 -5.5802,0.002 -10.944508,3.66417 -12.002977,8.29384 -1.094451,4.71364 2.695647,8.62367 8.497736,8.64167 l -0.0048,0.0216 34.215839,-0.066 -61.061368,46.86948 c -0.07484,0.06 -0.161919,0.11706 -0.233883,0.17703 -5.760109,4.40779 -7.619176,11.74511 -3.990997,16.38378 3.679154,4.72263 11.511224,4.73162 17.331303,0.0271 L 95.51767,938.52868 c 0,0 -0.488755,3.67915 -0.449774,5.88904 z m 85.637034,12.33281 c -6.86955,6.99549 -16.47973,10.9625 -26.88451,10.98349 -10.41677,0.0192 -20.02695,-3.91604 -26.8965,-10.89954 -3.35532,-3.40329 -5.82008,-7.31632 -7.34032,-11.49023 -1.48725,-4.09594 -2.06896,-8.44676 -1.68515,-12.83656 0.36581,-4.29384 1.64017,-8.38379 3.68215,-12.08993 2.00299,-3.63718 4.75861,-6.92952 8.1679,-9.71213 6.67165,-5.43927 15.16939,-8.38079 24.05993,-8.39279 8.89653,-0.0144 17.38827,2.90555 24.06592,8.32383 3.4003,2.77061 6.15891,6.04796 8.16191,9.68514 2.04797,3.70014 3.31633,7.7751 3.69414,12.08093 0.37481,4.3838 -0.2039,8.72862 -1.69115,12.83057 -1.52323,4.1829 -3.979,8.09593 -7.33432,11.51722"
       inkscape:connector-curvature="0" />
    <g
       id="g1102" />
  </g>
</svg>
