<?xml version="1.0" encoding="UTF-8" standalone="no"?>
<!-- Created with Inkscape (http://www.inkscape.org/) -->

<svg
   xmlns:dc="http://purl.org/dc/elements/1.1/"
   xmlns:cc="http://creativecommons.org/ns#"
   xmlns:rdf="http://www.w3.org/1999/02/22-rdf-syntax-ns#"
   xmlns:svg="http://www.w3.org/2000/svg"
   xmlns="http://www.w3.org/2000/svg"
   xmlns:sodipodi="http://sodipodi.sourceforge.net/DTD/sodipodi-0.dtd"
   xmlns:inkscape="http://www.inkscape.org/namespaces/inkscape"
   width="256"
   height="256"
   viewBox="0 0 256 256"
   id="svg2"
   version="1.1"
   inkscape:version="0.92.3 (2405546, 2018-03-11)"
   sodipodi:docname="bluegriffon.svg">
  <sodipodi:namedview
     id="base"
     pagecolor="#ffffff"
     bordercolor="#666666"
     borderopacity="1.0"
     inkscape:pageopacity="0.0"
     inkscape:pageshadow="2"
     inkscape:zoom="3.3125"
     inkscape:cx="128"
     inkscape:cy="127.99998"
     inkscape:document-units="px"
     inkscape:current-layer="layer1"
     showgrid="false"
     units="px"
     inkscape:window-width="1920"
     inkscape:window-height="1048"
     inkscape:window-x="0"
     inkscape:window-y="0"
     inkscape:window-maximized="1" />
  <defs
     id="defs4">
    <clipPath
       clipPathUnits="userSpaceOnUse"
       id="clipPath5002">
      <g
         id="g5004">
        <path
           transform="translate(0,796.36216)"
           inkscape:connector-curvature="0"
           id="path5006"
           d="M 88.118406,249.43519 C 46.103287,235.29134 14.771284,201.68742 4.1335861,159.36053 1.3377997,148.23623 0.92261224,144.16281 0.92582381,127.88908 0.92787958,117.47222 1.134384,112.01362 1.6577819,108.54099 4.4653598,89.913336 12.17654,70.638106 23.042737,55.086148 c 3.958678,-5.665755 8.344812,-10.93092 9.101533,-10.925587 0.32809,0.0023 10.488643,18.309713 22.579009,40.683112 12.090365,22.373397 22.374546,41.334697 22.853732,42.136217 0.479186,0.80151 0.924733,2.44098 0.990103,3.64326 0.343424,6.31639 2.524175,14.20976 5.6424,20.42304 2.954444,5.88693 5.065381,8.73258 10.434696,14.06652 6.71418,6.66995 12.88853,10.28643 21.73204,12.72904 3.16587,0.87442 5.10478,1.05037 11.57517,1.05037 8.82596,0 12.60219,-0.76201 19.26429,-3.88733 2.04584,-0.95974 3.93661,-1.66536 4.20172,-1.56805 0.2651,0.0973 -11.0555,17.66459 -25.1569,39.0384 l -25.6389,38.86148 -3.094121,0.11221 c -2.554618,0.0927 -4.195204,-0.25845 -9.409103,-2.01364 z"
           style="fill:#0f9d58;fill-opacity:1;stroke:none;stroke-width:4.85768509;stroke-linejoin:round;stroke-miterlimit:4;stroke-dasharray:none;stroke-opacity:1" />
        <path
           inkscape:connector-curvature="0"
           id="path5008"
           d="m 112.35984,1051.5167 c -10.0014,-1.4495 -12.15632,-1.8201 -12.531784,-2.1556 -0.248854,-0.2223 1.738304,-3.7475 4.550294,-8.0722 7.16635,-11.0213 49.77231,-74.64801 50.25856,-75.05489 3.57509,-2.99158 8.63523,-8.0414 10.57512,-10.55356 3.36154,-4.35318 7.55784,-12.9141 9.06523,-18.494 6.19314,-22.92535 -2.59253,-47.15185 -21.69967,-59.83688 l -2.96081,-1.96565 17.02469,0.29584 c 9.36358,0.1627 31.17032,0.43384 48.45941,0.60252 l 31.43471,0.30668 1.54584,4.18869 c 2.24597,6.08579 4.67816,15.0947 5.93451,21.9816 1.52517,8.36049 1.92536,28.85896 0.73851,37.82758 -3.0805,23.27845 -12.81326,45.72018 -27.80202,64.10577 -20.47622,25.1166 -51.4599,42.1974 -84.14612,46.3885 -5.31244,0.6812 -26.64601,0.9864 -30.44647,0.4356 z"
           style="fill:#f4b400;fill-opacity:1;stroke:none;stroke-width:4.85768509;stroke-linejoin:round;stroke-miterlimit:4;stroke-dasharray:none;stroke-opacity:1" />
        <path
           transform="translate(0,796.36216)"
           inkscape:connector-curvature="0"
           id="path5010"
           d="M 67.989788,108.87302 C 41.284246,59.575543 33.290284,45.149038 32.233625,44.344765 31.651257,43.901497 32.811213,42.549931 38.695603,36.815353 53.43581,22.450419 68.809334,13.040746 87.839196,6.7360352 101.68742,2.1480329 112.58238,0.43719165 127.95142,0.43719165 c 21.3099,0 37.80488,3.80960275 56.83492,13.12633035 25.29351,12.383198 46.19421,33.578863 58.51993,59.345832 1.61138,3.368591 2.92978,6.372442 2.92978,6.675231 0,0.560033 -10.54865,0.49527 -71.16508,-0.436914 l -24.28843,-0.373518 -3.93063,-1.764495 c -6.75732,-3.033425 -10.64587,-3.839529 -18.6576,-3.867747 -5.0296,-0.01773 -7.97946,0.207636 -10.31642,0.788106 -14.50826,3.603659 -26.283291,12.94777 -33.291614,26.418653 -3.58502,6.89086 -5.24713,13.08166 -6.331628,23.58317 l -0.33738,3.26696 -9.92748,-18.32578 z"
           style="fill:#db4437;fill-opacity:1;stroke:none;stroke-width:10;stroke-linejoin:round;stroke-miterlimit:4;stroke-dasharray:none;stroke-opacity:1" />
      </g>
    </clipPath>
    <radialGradient
       id="SVGID21"
       cx="278.95999"
       cy="216.92"
       r="322.22"
       gradientTransform="matrix(0.7100982,0,0,-0.69667735,-12.931184,1000.262)"
       gradientUnits="userSpaceOnUse">
      <stop
         offset="0.119"
         stop-color="#ffffff"
         id="stop131" />
      <stop
         offset="0.122"
         stop-color="#fffffa"
         id="stop133" />
      <stop
         offset="0.25"
         stop-color="#ffe560"
         id="stop135" />
      <stop
         offset="0.287"
         stop-color="#ffdf56"
         id="stop137" />
      <stop
         offset="0.347"
         stop-color="#f8d03b"
         id="stop139" />
      <stop
         offset="0.406"
         stop-color="#f0be1b"
         id="stop141" />
      <stop
         offset="0.473"
         stop-color="#eb9d23"
         id="stop143" />
      <stop
         offset="0.548"
         stop-color="#e57c27"
         id="stop145" />
      <stop
         offset="0.765"
         stop-color="#dd5626"
         id="stop147" />
      <stop
         offset="0.903"
         stop-color="#c33a28"
         id="stop149" />
      <stop
         offset="1"
         stop-color="#b02228"
         id="stop151" />
    </radialGradient>
    <clipPath
       clipPathUnits="userSpaceOnUse"
       id="clipPath6128">
      <circle
         r="128"
         cy="925.362"
         cx="128"
         id="circle6130"
         style="opacity:1;fill:#4285f4;fill-opacity:1;stroke:none;stroke-width:20.51976967;stroke-linecap:round;stroke-linejoin:round;stroke-miterlimit:4;stroke-dasharray:none;stroke-opacity:1" />
    </clipPath>
    <clipPath
       id="clipPath6618"
       clipPathUnits="userSpaceOnUse">
      <circle
         r="128"
         cy="925.362"
         cx="128"
         id="circle6620"
         style="opacity:1;fill:#4285f4;fill-opacity:1;stroke:none;stroke-width:20.51976967;stroke-linecap:round;stroke-linejoin:round;stroke-miterlimit:4;stroke-dasharray:none;stroke-opacity:1" />
    </clipPath>
    <clipPath
       clipPathUnits="userSpaceOnUse"
       id="clipPath5341">
      <circle
         r="105.04402"
         cy="912.04022"
         cx="126.18787"
         id="circle5343"
         style="opacity:1;fill:#4285f4;fill-opacity:1;stroke:none;stroke-width:20.51976967;stroke-linecap:round;stroke-linejoin:round;stroke-miterlimit:4;stroke-dasharray:none;stroke-opacity:1" />
    </clipPath>
  </defs>
  <metadata
     id="metadata7">
    <rdf:RDF>
      <cc:Work
         rdf:about="">
        <dc:format>image/svg+xml</dc:format>
        <dc:type
           rdf:resource="http://purl.org/dc/dcmitype/StillImage" />
        <dc:title />
      </cc:Work>
    </rdf:RDF>
  </metadata>
  <g
     transform="translate(0,-796.36216)"
     id="layer1"
     inkscape:groupmode="layer"
     inkscape:label="Layer 1">
    <g
       id="g1038"
       transform="translate(69.769737,6.2837909)">
      <path
         d="m 186.23026,918.07837 a 128,128 0 0 1 -64,110.85123 128,128 0 0 1 -128.0000007,0 128,128 0 0 1 -63.9999963,-110.85124 l 128,10e-6 z"
         sodipodi:end="3.1415927"
         sodipodi:start="0"
         sodipodi:ry="128"
         sodipodi:rx="128"
         sodipodi:cy="918.07837"
         sodipodi:cx="58.230263"
         sodipodi:type="arc"
         id="path875"
         style="opacity:1;fill:#4285f4;fill-opacity:1;stroke:none;stroke-width:18.14134598;stroke-miterlimit:4;stroke-dasharray:none;stroke-opacity:1" />
      <path
         transform="scale(1,-1)"
         style="opacity:1;fill:#0a47ad;fill-opacity:1;stroke:none;stroke-width:18.14134598;stroke-miterlimit:4;stroke-dasharray:none;stroke-opacity:1"
         id="path877"
         sodipodi:type="arc"
         sodipodi:cx="58.230263"
         sodipodi:cy="-918.07837"
         sodipodi:rx="128"
         sodipodi:ry="128"
         sodipodi:start="0"
         sodipodi:end="3.1415927"
         d="m 186.23026,-918.07837 a 128,128 0 0 1 -64,110.85125 128,128 0 0 1 -128.0000007,0 128,128 0 0 1 -63.9999963,-110.85126 l 128,1e-5 z" />
    </g>
    <path
       inkscape:connector-curvature="0"
       id="path4913"
       d="M 154.47438,968.80998 101.03985,1048.476 0.4857685,1048.9618 0,842.0244 l 33.032258,-2.42884 45.176471,83.55218 21.373814,35.4611 26.717267,13.11575 z"
       style="fill:none;fill-rule:evenodd;stroke:none;stroke-width:1px;stroke-linecap:butt;stroke-linejoin:miter;stroke-opacity:1" />
    <path
       inkscape:connector-curvature="0"
       style="fill:#ffffff;fill-opacity:1"
       d="m 127.45355,995.14464 c -2.71171,-2.84833 -4.62125,-4.35626 -4.24343,-3.35097 2.7401,7.29062 2.73249,7.31122 -2.69545,7.31122 -4.27686,0 -5.84398,-0.74441 -9.71331,-4.61369 -10.04195,-10.04196 -9.5271,-27.66998 1.44454,-49.45863 7.19243,-14.28352 17.75794,-21.47696 31.54472,-21.47696 l 8.11377,0 0.74947,-8.83439 c 0.63741,-7.51331 0.19546,-10.90167 -2.95548,-22.65887 -2.03773,-7.60346 -3.38704,-14.65298 -2.99846,-15.66559 1.18358,-3.08435 6.93186,-0.79356 12.15719,4.84484 2.62429,2.83175 4.40406,4.1381 3.95504,2.903 -2.70894,-7.45151 -2.5408,-8.11192 2.06538,-8.11192 5.33937,0 6.39675,1.69958 7.58355,12.18955 0.75208,6.64755 1.05199,7.36168 2.0219,4.81446 0.62636,-1.64496 0.89288,-7.65174 0.59226,-13.3484 -0.42338,-8.0231 -1.31374,-11.98577 -3.95037,-17.58162 -3.1149,-6.6109 -3.25494,-7.48931 -1.64986,-10.34895 2.40454,-4.28398 4.92264,-4.44594 9.4816,-0.60981 10.68533,8.9911 11.84708,23.18278 4.28149,52.30185 -0.56814,2.18672 -0.49691,2.21998 0.69341,0.32371 0.72962,-1.16235 2.451,-7.1941 3.82528,-13.4039 1.9996,-9.03541 2.3412,-13.52607 1.71021,-22.4829 -0.71892,-10.20526 -0.58417,-11.30169 1.52793,-12.43205 3.53439,-1.89155 7.03217,1.29813 9.53817,8.69799 4.2722,12.61519 1.72183,25.63844 -8.50569,43.43362 -6.34959,11.04781 -10.75959,19.62499 -10.09029,19.62499 1.46262,0 14.64699,-24.37208 19.11628,-35.33756 2.86814,-7.03705 5.66208,-13.3033 6.20875,-13.92501 0.55823,-0.63487 2.13461,1.4483 3.59611,4.75229 3.41849,7.72806 2.65291,14.34321 -2.91614,25.19767 -2.35507,4.59018 -4.13757,8.34578 -3.96111,8.34578 0.17645,0 2.6883,-3.42713 5.58187,-7.61585 2.89357,-4.18872 5.47038,-7.87415 5.72623,-8.18984 0.25585,-0.31568 0.97531,0.23266 1.5988,1.21854 1.76512,2.79107 1.37057,12.34859 -0.76901,18.62789 -2.16523,6.3546 -10.54435,16.37271 -17.06451,20.40239 -7.78087,4.80885 -3.32473,3.84971 5.59353,-1.20395 4.81525,-2.72862 9.25423,-4.96113 9.86441,-4.96113 3.28452,0 -0.78008,11.08128 -6.03651,16.45727 -4.43693,4.53786 -12.85199,7.73803 -28.59146,10.8731 -5.24639,1.04499 -10.45563,2.48692 -11.5761,3.2043 -3.78236,2.42161 13.24833,0.17396 23.97679,-3.16438 5.59518,-1.74102 10.48223,-2.85631 10.86014,-2.47841 1.31234,1.31234 -2.01382,6.58082 -6.3279,10.02311 -2.38617,1.90398 -7.76771,4.65434 -11.95896,6.11191 -7.51834,2.61463 -7.55722,2.65142 -2.90175,2.74528 3.97495,0.0802 4.488,0.37314 3.255,1.85882 -3.47475,4.18682 -11.7648,5.92172 -25.05505,5.24342 -7.02506,-0.35854 -12.77281,-0.50364 -12.77281,-0.32245 0,0.18119 3.3017,1.56419 7.33711,3.07334 8.4637,3.16521 9.62081,4.36529 6.49345,6.73458 -3.67529,2.78439 -12.72866,2.17838 -19.24896,-1.28851 l -5.78137,-3.07397 2.53739,4.10558 c 2.89941,4.69136 2.42307,5.69797 -2.69622,5.69797 -2.698,0 -4.91832,-1.34146 -8.57157,-5.17876 z"
       id="path4387" />
    <path
       inkscape:connector-curvature="0"
       style="fill:#ffffff;fill-opacity:1"
       d="m 62.889829,987.97877 c -3.398882,-1.97586 -5.655385,-8.27085 -4.270481,-11.91343 1.571463,-4.13326 -0.574311,-13.02719 -5.980436,-24.78802 -3.07699,-6.69388 -4.982168,-9.44366 -6.543029,-9.44366 -2.653759,0 -5.006324,-3.94134 -3.967865,-6.64753 2.172464,-5.66134 8.522714,-4.02295 11.408267,2.94339 2.38793,5.76497 3.674064,4.40291 3.693676,-3.91171 0.0099,-4.18872 0.706961,-8.97761 1.549068,-10.64196 1.491151,-2.94714 7.422575,-6.05926 8.842383,-4.63944 0.389771,0.38977 -0.147872,4.85548 -1.194761,9.92379 -2.535791,12.27655 -2.457045,12.74127 1.51422,8.93656 3.771605,-3.61342 9.305958,-4.32217 12.949026,-1.65829 3.723702,2.72283 1.4041,6.4132 -5.618286,8.93843 -13.976061,5.02572 -12.184367,11.05566 7.135324,24.01392 5.875789,3.94105 9.888296,10.93377 7.751397,13.50857 -2.162744,2.60597 -5.567893,0.90418 -14.856689,-7.42491 -4.784408,-4.29009 -8.954432,-7.54464 -9.266722,-7.23235 -0.31229,0.31228 0.100578,3.35391 0.91749,6.75917 1.421162,5.92408 0.844344,14.69615 -0.961238,14.61824 -0.472278,-0.0204 -1.867883,-0.62372 -3.101344,-1.34077 z"
       id="path4389" />
    <path
       inkscape:connector-curvature="0"
       style="fill:#928484;fill-opacity:1"
       d="m 54.252694,986.22321 c -2.081478,-2.08148 -2.525637,-4.17784 -0.885165,-4.17784 1.179575,0 5.063005,4.04583 5.063005,5.27473 0,1.45117 -2.210019,0.87094 -4.17784,-1.09689 z"
       id="path4391" />
    <path
       inkscape:connector-curvature="0"
       style="fill:#928484;fill-opacity:1"
       d="m 93.612664,983.6826 c -2.120875,-2.55966 -2.098369,-14.63671 0.03449,-18.53515 1.50906,-2.75821 1.711045,-2.50151 4.604121,5.85098 2.83006,8.17055 2.89935,8.92875 1.071021,11.71914 -2.299781,3.50991 -3.441211,3.70283 -5.709675,0.96503 z"
       id="path4393" />
    <path
       inkscape:connector-curvature="0"
       style="fill:#928484;fill-opacity:1"
       d="m 38.382887,942.74757 c -0.510518,-1.17285 -0.510518,-3.09204 0,-4.26488 0.884016,-2.0309 0.952504,-2.0309 1.438254,0 0.280522,1.17284 0.280522,3.09203 0,4.26488 -0.48575,2.03089 -0.554238,2.03089 -1.438254,0 z"
       id="path4395" />
    <path
       inkscape:connector-curvature="0"
       style="fill:#928484;fill-opacity:1"
       d="m 78.61844,932.17603 c -1.16791,-1.29052 -1.938323,-3.2247 -1.71203,-4.29818 0.375921,-1.78328 0.648142,-1.78515 3.15315,-0.0216 1.50794,1.06161 2.741708,2.9958 2.741708,4.29818 0,3.00586 -1.475203,3.01347 -4.182828,0.0216 z"
       id="path4397" />
    <path
       inkscape:connector-curvature="0"
       style="fill:#ffffff;fill-opacity:1"
       d="m 106.91025,927.46158 c 6.36658,-4.75141 8.08208,-6.31796 6.35444,-5.80263 -1.00529,0.29986 -5.94037,1.70724 -10.96683,3.12753 -5.026464,1.42029 -10.235711,2.89393 -11.576101,3.27476 -2.379156,0.67596 -2.383604,0.63252 -0.187313,-1.82756 2.871664,-3.21658 10.581644,-6.79426 18.834794,-8.73998 6.22105,-1.46665 6.3847,-1.60902 4.38685,-3.81663 -4.21608,-4.6587 -13.23955,-5.33059 -17.86302,-1.33009 -2.801647,2.42414 -3.897392,1.14428 -3.897392,-4.55229 0,-6.61611 2.37661,-9.0131 8.166502,-8.23651 4.06849,0.54569 4.57876,0.34676 3.97663,-1.55038 -0.78322,-2.46775 2.11136,-3.64104 9.12588,-3.69909 5.11753,-0.0424 6.29449,-0.78573 8.23494,-5.20123 1.61365,-3.67184 5.72956,-5.76358 11.34097,-5.76358 4.1345,0 4.39346,0.72144 1.44385,4.02222 -1.77197,1.98293 -1.03055,1.83082 4.38604,-0.89988 3.58516,-1.8074 6.7073,-3.09737 6.93808,-2.86659 0.71152,0.71153 -1.9045,11.00269 -3.82648,15.05295 -1.00093,2.1093 -3.16591,4.55547 -4.81107,5.43593 -1.64517,0.88046 -2.99121,1.96186 -2.99121,2.4031 0,0.44124 2.83475,2.13069 6.29945,3.75433 7.48731,3.50875 12.37172,9.10845 9.51859,10.91255 -3.02824,1.91481 -4.85492,1.32746 -6.10608,-1.96335 l -1.19455,-3.14189 -4.42723,2.73617 c -3.63307,2.24535 -5.02239,2.51153 -7.74503,1.48385 -2.97779,-1.12399 -3.64378,-0.84378 -6.4989,2.73442 -2.38577,2.99001 -4.72799,4.31851 -9.36829,5.31367 -9.05405,1.94175 -11.00377,1.71964 -7.54752,-0.8598 z"
       id="path4399" />
    <path
       inkscape:connector-curvature="0"
       style="fill:#928484;fill-opacity:1"
       d="m 51.910186,921.69396 c 0.868625,-2.26361 5.199241,-4.74106 6.320077,-3.6156 0.853398,0.85693 -4.198749,5.47725 -5.989163,5.47725 -0.574914,0 -0.723827,-0.83774 -0.330914,-1.86165 z"
       id="path4401" />
  </g>
</svg>
