<?xml version="1.0" encoding="UTF-8" standalone="no"?>
<!-- Created with Inkscape (http://www.inkscape.org/) -->

<svg
   xmlns:dc="http://purl.org/dc/elements/1.1/"
   xmlns:cc="http://creativecommons.org/ns#"
   xmlns:rdf="http://www.w3.org/1999/02/22-rdf-syntax-ns#"
   xmlns:svg="http://www.w3.org/2000/svg"
   xmlns="http://www.w3.org/2000/svg"
   xmlns:sodipodi="http://sodipodi.sourceforge.net/DTD/sodipodi-0.dtd"
   xmlns:inkscape="http://www.inkscape.org/namespaces/inkscape"
   sodipodi:docname="brave-browser.svg"
   inkscape:version="0.92.4 (unknown)"
   version="1.1"
   id="svg2"
   viewBox="0 0 256 256"
   height="256"
   width="256">
  <sodipodi:namedview
     inkscape:window-maximized="1"
     inkscape:window-y="0"
     inkscape:window-x="0"
     inkscape:window-height="1048"
     inkscape:window-width="1920"
     units="px"
     showgrid="true"
     inkscape:current-layer="layer1"
     inkscape:document-units="px"
     inkscape:cy="127.99998"
     inkscape:cx="129.50943"
     inkscape:zoom="3.3125"
     inkscape:pageshadow="2"
     inkscape:pageopacity="0.0"
     borderopacity="1.0"
     bordercolor="#666666"
     pagecolor="#ffffff"
     id="base">
    <inkscape:grid
       spacingy="5"
       spacingx="5"
       id="grid4168"
       type="xygrid" />
  </sodipodi:namedview>
  <defs
     id="defs4">
    <clipPath
       id="clipPath5002"
       clipPathUnits="userSpaceOnUse">
      <g
         id="g5004">
        <path
           style="fill:#0f9d58;fill-opacity:1;stroke:none;stroke-width:4.85768509;stroke-linejoin:round;stroke-miterlimit:4;stroke-dasharray:none;stroke-opacity:1"
           d="M 88.118406,249.43519 C 46.103287,235.29134 14.771284,201.68742 4.1335861,159.36053 1.3377997,148.23623 0.92261224,144.16281 0.92582381,127.88908 0.92787958,117.47222 1.134384,112.01362 1.6577819,108.54099 4.4653598,89.913336 12.17654,70.638106 23.042737,55.086148 c 3.958678,-5.665755 8.344812,-10.93092 9.101533,-10.925587 0.32809,0.0023 10.488643,18.309713 22.579009,40.683112 12.090365,22.373397 22.374546,41.334697 22.853732,42.136217 0.479186,0.80151 0.924733,2.44098 0.990103,3.64326 0.343424,6.31639 2.524175,14.20976 5.6424,20.42304 2.954444,5.88693 5.065381,8.73258 10.434696,14.06652 6.71418,6.66995 12.88853,10.28643 21.73204,12.72904 3.16587,0.87442 5.10478,1.05037 11.57517,1.05037 8.82596,0 12.60219,-0.76201 19.26429,-3.88733 2.04584,-0.95974 3.93661,-1.66536 4.20172,-1.56805 0.2651,0.0973 -11.0555,17.66459 -25.1569,39.0384 l -25.6389,38.86148 -3.094121,0.11221 c -2.554618,0.0927 -4.195204,-0.25845 -9.409103,-2.01364 z"
           id="path5006"
           inkscape:connector-curvature="0"
           transform="translate(0,796.36216)" />
        <path
           style="fill:#f4b400;fill-opacity:1;stroke:none;stroke-width:4.85768509;stroke-linejoin:round;stroke-miterlimit:4;stroke-dasharray:none;stroke-opacity:1"
           d="m 112.35984,1051.5167 c -10.0014,-1.4495 -12.15632,-1.8201 -12.531784,-2.1556 -0.248854,-0.2223 1.738304,-3.7475 4.550294,-8.0722 7.16635,-11.0213 49.77231,-74.64801 50.25856,-75.05489 3.57509,-2.99158 8.63523,-8.0414 10.57512,-10.55356 3.36154,-4.35318 7.55784,-12.9141 9.06523,-18.494 6.19314,-22.92535 -2.59253,-47.15185 -21.69967,-59.83688 l -2.96081,-1.96565 17.02469,0.29584 c 9.36358,0.1627 31.17032,0.43384 48.45941,0.60252 l 31.43471,0.30668 1.54584,4.18869 c 2.24597,6.08579 4.67816,15.0947 5.93451,21.9816 1.52517,8.36049 1.92536,28.85896 0.73851,37.82758 -3.0805,23.27845 -12.81326,45.72018 -27.80202,64.10577 -20.47622,25.1166 -51.4599,42.1974 -84.14612,46.3885 -5.31244,0.6812 -26.64601,0.9864 -30.44647,0.4356 z"
           id="path5008"
           inkscape:connector-curvature="0" />
        <path
           style="fill:#db4437;fill-opacity:1;stroke:none;stroke-width:10;stroke-linejoin:round;stroke-miterlimit:4;stroke-dasharray:none;stroke-opacity:1"
           d="M 67.989788,108.87302 C 41.284246,59.575543 33.290284,45.149038 32.233625,44.344765 31.651257,43.901497 32.811213,42.549931 38.695603,36.815353 53.43581,22.450419 68.809334,13.040746 87.839196,6.7360352 101.68742,2.1480329 112.58238,0.43719165 127.95142,0.43719165 c 21.3099,0 37.80488,3.80960275 56.83492,13.12633035 25.29351,12.383198 46.19421,33.578863 58.51993,59.345832 1.61138,3.368591 2.92978,6.372442 2.92978,6.675231 0,0.560033 -10.54865,0.49527 -71.16508,-0.436914 l -24.28843,-0.373518 -3.93063,-1.764495 c -6.75732,-3.033425 -10.64587,-3.839529 -18.6576,-3.867747 -5.0296,-0.01773 -7.97946,0.207636 -10.31642,0.788106 -14.50826,3.603659 -26.283291,12.94777 -33.291614,26.418653 -3.58502,6.89086 -5.24713,13.08166 -6.331628,23.58317 l -0.33738,3.26696 -9.92748,-18.32578 z"
           id="path5010"
           inkscape:connector-curvature="0"
           transform="translate(0,796.36216)" />
      </g>
    </clipPath>
    <clipPath
       clipPathUnits="userSpaceOnUse"
       id="clipPath4271">
      <circle
         style="fill:#292929;fill-opacity:0.26020412;stroke:none;stroke-width:10;stroke-linejoin:round;stroke-miterlimit:4;stroke-dasharray:none;stroke-opacity:0.25882353"
         id="circle4273"
         cx="128"
         cy="128.00002"
         r="128" />
    </clipPath>
    <clipPath
       id="clipPath4363"
       clipPathUnits="userSpaceOnUse">
      <circle
         style="fill:#4285f4;fill-opacity:1;stroke:none;stroke-width:10;stroke-linejoin:round;stroke-miterlimit:4;stroke-dasharray:none;stroke-opacity:0.25882353"
         id="circle4365"
         cx="128"
         cy="924.36218"
         r="128" />
    </clipPath>
    <clipPath
       clipPathUnits="userSpaceOnUse"
       id="clipPath4452">
      <circle
         style="fill:#4285f4;fill-opacity:1;stroke:none;stroke-width:10;stroke-linejoin:round;stroke-miterlimit:4;stroke-dasharray:none;stroke-opacity:0.25882353"
         id="circle4454"
         cx="128"
         cy="924.36218"
         r="128" />
    </clipPath>
    <clipPath
       id="clipPath5177"
       clipPathUnits="userSpaceOnUse">
      <circle
         style="fill:#4285f4;fill-opacity:1;stroke:none;stroke-width:10;stroke-linejoin:round;stroke-miterlimit:4;stroke-dasharray:none;stroke-opacity:0.25882353"
         id="circle5179"
         cx="128"
         cy="924.36218"
         r="128" />
    </clipPath>
    <clipPath
       clipPathUnits="userSpaceOnUse"
       id="clipPath4342">
      <circle
         style="fill:#4285f4;fill-opacity:1;stroke:none;stroke-width:10;stroke-linejoin:round;stroke-miterlimit:4;stroke-dasharray:none;stroke-opacity:0.25882353"
         id="circle4344"
         cx="128"
         cy="933.48718"
         r="128" />
    </clipPath>
    <clipPath
       id="clipPath4681"
       clipPathUnits="userSpaceOnUse">
      <circle
         style="fill:#9d5fad;fill-opacity:1;stroke:none;stroke-width:10;stroke-linejoin:round;stroke-miterlimit:4;stroke-dasharray:none;stroke-opacity:0.25882353"
         id="circle4683"
         cx="127.00293"
         cy="930.43964"
         r="128" />
    </clipPath>
    <clipPath
       clipPathUnits="userSpaceOnUse"
       id="clipPath4235">
      <circle
         style="fill:#0f9d58;fill-opacity:1;stroke:none;stroke-width:10;stroke-linejoin:round;stroke-miterlimit:4;stroke-dasharray:none;stroke-opacity:0.25882353"
         id="circle4237"
         cx="128"
         cy="924.36218"
         r="128" />
    </clipPath>
    <clipPath
       id="clipPath4771"
       clipPathUnits="userSpaceOnUse">
      <circle
         style="fill:#0f9d58;fill-opacity:1;stroke:none;stroke-width:10;stroke-linejoin:round;stroke-miterlimit:4;stroke-dasharray:none;stroke-opacity:0.25882353"
         id="circle4773"
         cx="128"
         cy="924.36218"
         r="128" />
    </clipPath>
    <clipPath
       clipPathUnits="userSpaceOnUse"
       id="clipPath4842">
      <circle
         style="fill:#0f9d58;fill-opacity:1;stroke:none;stroke-width:10;stroke-linejoin:round;stroke-miterlimit:4;stroke-dasharray:none;stroke-opacity:0.25882353"
         id="circle4844"
         cx="128"
         cy="924.36218"
         r="128" />
    </clipPath>
    <clipPath
       id="clipPath4458"
       clipPathUnits="userSpaceOnUse">
      <circle
         style="fill:#ff3b38;fill-opacity:1;stroke:none;stroke-width:10;stroke-linejoin:round;stroke-miterlimit:4;stroke-dasharray:none;stroke-opacity:0.25882353"
         id="circle4460"
         cx="128"
         cy="924.36218"
         r="128" />
    </clipPath>
    <clipPath
       clipPathUnits="userSpaceOnUse"
       id="clipPath4783">
      <circle
         style="fill:#ff3b38;fill-opacity:1;stroke:none;stroke-width:10;stroke-linejoin:round;stroke-miterlimit:4;stroke-dasharray:none;stroke-opacity:0.25882353"
         id="circle4785"
         cx="128"
         cy="924.36218"
         r="128" />
    </clipPath>
    <clipPath
       id="clipPath4789"
       clipPathUnits="userSpaceOnUse">
      <circle
         style="fill:#80b4ff;fill-opacity:1;stroke:none;stroke-width:10;stroke-linejoin:round;stroke-miterlimit:4;stroke-dasharray:none;stroke-opacity:0.25882353"
         id="circle4791"
         cx="102.64714"
         cy="924.36218"
         r="128" />
    </clipPath>
    <clipPath
       clipPathUnits="userSpaceOnUse"
       id="clipPath4721">
      <circle
         style="fill:#557ae6;fill-opacity:1;stroke:none;stroke-width:10;stroke-linejoin:round;stroke-miterlimit:4;stroke-dasharray:none;stroke-opacity:0.25882353"
         id="circle4723"
         cx="128"
         cy="924.36218"
         r="128" />
    </clipPath>
    <clipPath
       id="clipPath4491"
       clipPathUnits="userSpaceOnUse">
      <circle
         style="fill:#990000;fill-opacity:1;stroke:none;stroke-width:10;stroke-linejoin:round;stroke-miterlimit:4;stroke-dasharray:none;stroke-opacity:0.25882353"
         id="circle4493"
         cx="128"
         cy="924.36218"
         r="128" />
    </clipPath>
    <clipPath
       clipPathUnits="userSpaceOnUse"
       id="clipPath1102">
      <circle
         style="fill:#b40000;fill-opacity:1;stroke:none;stroke-width:10;stroke-linejoin:round;stroke-miterlimit:4;stroke-dasharray:none;stroke-opacity:0.25882353"
         id="circle1104"
         cx="128"
         cy="924.36218"
         r="128" />
    </clipPath>
    <clipPath
       clipPathUnits="userSpaceOnUse"
       id="clipPath1102-3">
      <circle
         style="fill:#b40000;fill-opacity:1;stroke:none;stroke-width:10;stroke-linejoin:round;stroke-miterlimit:4;stroke-dasharray:none;stroke-opacity:0.25882353"
         id="circle1104-6"
         cx="128"
         cy="924.36218"
         r="128" />
    </clipPath>
    <linearGradient
       gradientUnits="userSpaceOnUse"
       gradientTransform="matrix(0.91491466,0,0,1.0929981,-29.098337,47.860694)"
       x1="2.6667932e-05"
       y1="27.044248"
       x2="53.33589"
       y2="27.044248"
       id="linearGradient-1">
      <stop
         stop-color="#FF5500"
         offset="0%"
         id="stop6" />
      <stop
         stop-color="#FF5500"
         offset="40.9877232%"
         id="stop8" />
      <stop
         stop-color="#FF2000"
         offset="58.1981215%"
         id="stop10" />
      <stop
         stop-color="#FF2000"
         offset="100%"
         id="stop12" />
    </linearGradient>
    <linearGradient
       gradientUnits="userSpaceOnUse"
       x1="0.021484375"
       y1="0.50705516"
       x2="1"
       y2="0.50705516"
       id="linearGradient-2"
       gradientTransform="translate(0,-796.36216)">
      <stop
         stop-color="#FF452A"
         offset="0%"
         id="stop15" />
      <stop
         stop-color="#FF2000"
         offset="100%"
         id="stop17" />
    </linearGradient>
  </defs>
  <metadata
     id="metadata7">
    <rdf:RDF>
      <cc:Work
         rdf:about="">
        <dc:format>image/svg+xml</dc:format>
        <dc:type
           rdf:resource="http://purl.org/dc/dcmitype/StillImage" />
        <dc:title />
      </cc:Work>
    </rdf:RDF>
  </metadata>
  <g
     inkscape:label="Layer 1"
     inkscape:groupmode="layer"
     id="layer1"
     transform="translate(0,-796.36216)">
    <path
       d="m 256,-924.36218 a 128,128 0 0 1 -64,110.85125 128,128 0 0 1 -128.000003,0 A 128,128 0 0 1 0,-924.36219 l 128,1e-5 z"
       sodipodi:end="3.1415927"
       sodipodi:start="0"
       sodipodi:ry="128"
       sodipodi:rx="128"
       sodipodi:cy="-924.36218"
       sodipodi:cx="128"
       sodipodi:type="arc"
       style="fill:#e8371d;fill-opacity:1;stroke:none;stroke-width:10;stroke-linejoin:round;stroke-miterlimit:4;stroke-dasharray:none;stroke-opacity:0.25882353"
       id="path864"
       transform="scale(1,-1)" />
    <path
       id="path4152"
       style="fill:#fb542b;fill-opacity:1;stroke:none;stroke-width:10;stroke-linejoin:round;stroke-miterlimit:4;stroke-dasharray:none;stroke-opacity:0.25882353"
       sodipodi:type="arc"
       sodipodi:cx="128"
       sodipodi:cy="924.36218"
       sodipodi:rx="128"
       sodipodi:ry="128"
       sodipodi:start="0"
       sodipodi:end="3.1415927"
       d="m 256,924.36218 a 128,128 0 0 1 -64,110.85122 128,128 0 0 1 -128.000003,0 A 128,128 0 0 1 0,924.36218 l 128,0 z" />
    <g
       id="g7706"
       transform="matrix(1.5302,0,0,1.5302,-67.867374,-483.30069)">
      <path
         id="path7698"
         d="m 127.99997,945.47248 c 0.98994,0 7.33283,2.28139 12.42281,4.9646 5.08959,2.68358 8.77822,4.58118 9.95744,5.33295 1.17886,0.75212 0.45977,2.1699 -0.61399,2.94334 -1.07411,0.77348 -15.50684,12.15983 -16.90744,13.41827 -1.40099,1.25882 -3.45928,3.33748 -4.85882,3.33748 -1.39954,0 -3.45822,-2.07866 -4.85882,-3.33748 -1.40099,-1.25844 -15.83336,-12.64479 -16.90748,-13.41827 -1.07411,-0.77344 -1.79285,-2.19121 -0.61399,-2.94334 1.17922,-0.75177 4.86785,-2.64937 9.95783,-5.33295 5.08924,-2.68321 11.43248,-4.9646 12.42246,-4.9646 z"
         style="fill:#ffffff;fill-rule:evenodd;stroke-width:2.96054673"
         inkscape:connector-curvature="0" />
      <path
         id="Mask"
         d="m 128.02067,864.37277 c 0.25905,0.003 3.07624,0.0805 7.2039,1.48231 4.33403,1.47187 9.02925,3.3117 11.19625,3.3117 2.16703,0 18.2391,-3.12774 18.2391,-3.12774 0,0 19.04668,23.45787 19.04668,28.4714 0,5.01355 -2.396,6.33677 -4.805,8.94309 -2.40902,2.60627 -12.93027,13.98896 -14.28141,15.45052 -1.35113,1.46191 -4.16392,3.67818 -2.50939,7.66732 1.65451,3.98913 4.0953,9.06521 1.3811,14.21382 -2.71456,5.14857 -7.36463,8.58502 -10.34427,8.01687 -2.97964,-0.56849 -9.97731,-4.29416 -12.55065,-5.996 -2.57333,-1.70184 -10.72928,-8.55485 -10.72928,-11.17698 0,-2.62177 8.43077,-7.32955 9.98814,-8.39922 1.55811,-1.06929 8.66232,-5.20929 8.80786,-6.83422 0.14507,-1.62531 0.09,-2.10184 -2.00665,-6.11708 -2.0966,-4.01562 -5.87228,-9.37395 -5.24384,-12.93919 0.62843,-3.56485 6.71777,-5.41865 11.06338,-7.09071 4.34487,-1.67167 12.71138,-4.82919 13.75624,-5.32005 1.04558,-0.49124 0.77543,-0.95892 -2.39094,-1.26471 -3.16568,-0.30577 -12.15014,-1.5208 -16.20067,-0.37054 -4.0505,1.15029 -10.97054,2.90033 -11.53106,3.82834 -0.56055,0.92801 -1.05499,0.95928 -0.47929,4.1606 0.57536,3.2013 3.53913,18.56242 3.8266,21.29089 0.28776,2.72847 0.85056,4.53225 -2.037,5.20488 -2.8879,0.67264 -7.74891,1.84057 -9.41931,1.84057 -1.6704,0 -6.53177,-1.16793 -9.41931,-1.84057 -2.88792,-0.67263 -2.32521,-2.47641 -2.03735,-5.20488 0.28776,-2.72847 3.25124,-18.08959 3.82695,-21.29089 0.57535,-3.20132 0.0808,-3.23259 -0.47929,-4.1606 -0.56052,-0.92801 -7.48091,-2.67805 -11.53144,-3.82834 -4.05051,-1.15026 -13.034611,0.0648 -16.200651,0.37054 -3.16601,0.30579 -3.43616,0.77347 -2.39094,1.26471 1.04522,0.49086 9.41173,3.64838 13.756631,5.32005 4.34522,1.67206 10.43492,3.52586 11.06335,7.09071 0.62844,3.56524 -3.14759,8.92357 -5.24384,12.93919 -2.0966,4.01524 -2.15219,4.49177 -2.00665,6.11708 0.14506,1.62493 7.24975,5.76493 8.8075,6.83422 1.55773,1.06967 9.98815,5.77745 9.98815,8.39922 0,2.62213 -8.15557,9.47514 -10.7289,11.17698 -2.57337,1.70184 -9.57104,5.42751 -12.55068,5.996 -2.979641,0.56815 -7.629711,-2.8683 -10.344271,-8.01687 -2.7142,-5.1486 -0.27326,-10.22469 1.38074,-14.21382 1.65453,-3.98914 -1.1579,-6.20541 -2.50939,-7.66732 -1.35078,-1.46157 -11.87241,-12.84425 -14.28141,-15.45052 -2.409,-2.60632 -4.80464,-3.92954 -4.80464,-8.94309 0,-5.01352 19.04668,-28.4714 19.04668,-28.4714 0,0 16.072071,3.12774 18.239101,3.12774 2.167,0 6.86222,-1.83983 11.19625,-3.3117 4.33403,-1.47186 7.22341,-1.48255 7.22341,-1.48255 z"
         style="fill:#ffffff;fill-rule:evenodd;stroke-width:2.96054673"
         inkscape:connector-curvature="0" />
    </g>
    <g
       transform="matrix(1.5302,0,0,1.5302,-67.867374,-483.30069)"
       id="g7712">
      <path
         style="fill:#ffffff;fill-rule:evenodd;stroke-width:4.53022861"
         d="M 128 43 C 128 43 123.5792 43.017291 116.94727 45.269531 C 110.31533 47.521787 103.1304 50.335938 99.814453 50.335938 C 96.498464 50.335938 71.904297 45.550781 71.904297 45.550781 C 71.904297 45.550781 42.759766 81.445497 42.759766 89.117188 C 42.759766 96.788922 46.425076 98.812592 50.111328 102.80078 C 53.79758 106.7889 69.89788 124.20686 71.964844 126.44336 C 74.032894 128.68037 78.336449 132.0716 75.804688 138.17578 C 73.273735 144.27995 69.538137 152.04739 73.691406 159.92578 C 77.845226 167.80412 84.962038 173.06274 89.521484 172.19336 C 94.08093 171.32346 104.78879 165.62369 108.72656 163.01953 C 112.66427 160.41538 125.14258 149.9284 125.14258 145.91602 C 125.14258 141.90418 112.24301 134.70126 109.85938 133.06445 C 107.47569 131.42823 96.604785 125.09194 96.382812 122.60547 C 96.160107 120.11842 96.244908 119.39021 99.453125 113.24609 C 102.66081 107.10139 108.4382 98.900845 107.47656 93.445312 C 106.51494 87.990379 97.195931 85.154289 90.546875 82.595703 C 83.898307 80.037714 71.097443 75.206192 69.498047 74.455078 C 67.898651 73.703383 68.311621 72.987451 73.15625 72.519531 C 78.000924 72.051688 91.747222 70.192997 97.945312 71.953125 C 104.14343 73.713299 114.73409 76.390506 115.5918 77.810547 C 116.44885 79.230588 117.20462 79.279075 116.32422 84.177734 C 115.44327 89.076364 110.90908 112.58075 110.46875 116.75586 C 110.02827 120.93096 109.16684 123.69144 113.58594 124.7207 C 118.00445 125.74998 125.44395 127.53711 128 127.53711 C 130.55605 127.53711 137.995 125.74998 142.41406 124.7207 C 146.83261 123.69144 145.97158 120.93096 145.53125 116.75586 C 145.09136 112.58075 140.5562 89.076364 139.67578 84.177734 C 138.79485 79.279075 139.55045 79.230588 140.4082 77.810547 C 141.26591 76.390506 151.85466 73.713299 158.05273 71.953125 C 164.25086 70.192997 177.99963 72.051642 182.84375 72.519531 C 187.68893 72.987451 188.1019 73.703383 186.50195 74.455078 C 184.90311 75.206192 172.10167 80.037714 165.45312 82.595703 C 158.80347 85.154289 149.48506 87.990379 148.52344 93.445312 C 147.5618 98.900845 153.33864 107.10139 156.54688 113.24609 C 159.75517 119.39021 159.83917 120.11842 159.61719 122.60547 C 159.39448 125.09194 148.52486 131.42823 146.14062 133.06445 C 143.75754 134.70126 130.85547 141.90418 130.85547 145.91602 C 130.85547 149.9284 143.33573 160.41538 147.27344 163.01953 C 151.21116 165.62369 161.91907 171.32346 166.47852 172.19336 C 171.03796 173.06274 178.15477 167.80412 182.30859 159.92578 C 186.46186 152.04738 182.72704 144.27995 180.19531 138.17578 C 177.66355 132.0716 181.96766 128.68037 184.03516 126.44336 C 186.10267 124.20688 202.20239 106.7889 205.88867 102.80078 C 209.57492 98.812592 213.24023 96.788922 213.24023 89.117188 C 213.24023 81.445482 184.0957 45.550781 184.0957 45.550781 C 184.0957 45.550781 159.50154 50.335938 156.18555 50.335938 C 152.8696 50.335938 145.68467 47.521787 139.05273 45.269531 C 132.73659 43.124482 128.4257 43.004591 128.0293 43 L 128 43 z M 127.99805 167.09961 C 126.48318 167.09961 116.77779 170.58946 108.99023 174.69531 C 101.20155 178.80173 95.556396 181.70706 93.751953 182.85742 C 91.948062 184.00833 93.047803 186.17585 94.691406 187.35938 C 96.335025 188.54295 118.41871 205.96691 120.5625 207.89258 C 122.7057 209.81882 125.85647 213 127.99805 213 C 130.13962 213 133.2898 209.81882 135.43359 207.89258 C 137.57679 205.96691 159.66108 188.54295 161.30469 187.35938 C 162.94776 186.17585 164.04803 184.00832 162.24414 182.85742 C 160.4397 181.70706 154.7959 178.80173 147.00781 174.69531 C 139.21913 170.58946 129.51285 167.09961 127.99805 167.09961 z "
         transform="matrix(0.65350935,0,0,0.65350935,44.351963,836.27163)"
         id="path7708" />
    </g>
  </g>
</svg>
