<?xml version="1.0" encoding="UTF-8" standalone="no"?>
<!-- Created with Inkscape (http://www.inkscape.org/) -->

<svg
   xmlns:dc="http://purl.org/dc/elements/1.1/"
   xmlns:cc="http://creativecommons.org/ns#"
   xmlns:rdf="http://www.w3.org/1999/02/22-rdf-syntax-ns#"
   xmlns:svg="http://www.w3.org/2000/svg"
   xmlns="http://www.w3.org/2000/svg"
   xmlns:sodipodi="http://sodipodi.sourceforge.net/DTD/sodipodi-0.dtd"
   xmlns:inkscape="http://www.inkscape.org/namespaces/inkscape"
   width="256"
   height="256"
   viewBox="0 0 256 256"
   id="svg4149"
   version="1.1"
   inkscape:version="0.92.3 (2405546, 2018-03-11)"
   sodipodi:docname="builder.svg">
  <sodipodi:namedview
     id="base"
     pagecolor="#ffffff"
     bordercolor="#666666"
     borderopacity="1.0"
     inkscape:pageopacity="0.0"
     inkscape:pageshadow="2"
     inkscape:zoom="3.3125"
     inkscape:cx="128"
     inkscape:cy="79.698113"
     inkscape:document-units="px"
     inkscape:current-layer="layer1"
     showgrid="false"
     units="px"
     inkscape:window-width="1920"
     inkscape:window-height="1048"
     inkscape:window-x="0"
     inkscape:window-y="0"
     inkscape:window-maximized="1" />
  <defs
     id="defs4151">
    <clipPath
       clipPathUnits="userSpaceOnUse"
       id="clipPath4863">
      <circle
         style="fill:#e9e9e9;fill-opacity:1;stroke:none;stroke-width:20;stroke-miterlimit:4;stroke-dasharray:none;stroke-opacity:1"
         id="circle4865"
         cx="128"
         cy="924.36218"
         r="77.263145" />
    </clipPath>
    <clipPath
       id="clipPath4227"
       clipPathUnits="userSpaceOnUse">
      <circle
         style="fill:#e9e9e9;fill-opacity:1;stroke:none;stroke-width:20;stroke-miterlimit:4;stroke-dasharray:none;stroke-opacity:1"
         id="circle4229"
         cx="128"
         cy="924.36218"
         r="77.263145" />
    </clipPath>
    <clipPath
       clipPathUnits="userSpaceOnUse"
       id="clipPath5543">
      <circle
         style="fill:#9e9fe9;fill-opacity:1;stroke:none;stroke-width:20;stroke-miterlimit:4;stroke-dasharray:none;stroke-opacity:1"
         id="circle5545"
         cx="128"
         cy="924.36218"
         r="128" />
    </clipPath>
    <clipPath
       id="clipPath6248"
       clipPathUnits="userSpaceOnUse">
      <circle
         style="fill:#77c445;fill-opacity:1;stroke:none;stroke-width:20;stroke-miterlimit:4;stroke-dasharray:none;stroke-opacity:1"
         id="circle6250"
         cx="128"
         cy="924.36218"
         r="128" />
    </clipPath>
    <clipPath
       id="clipPath4624"
       clipPathUnits="userSpaceOnUse">
      <path
         inkscape:connector-curvature="0"
         id="path4626"
         d="m 151.20117,0.24318 -105.78125,0 c -7.804357,0 -14.087891,6.28158 -14.087891,14.08594 l 0,227.33994 c 0,7.8043 6.283534,14.0878 14.087891,14.0878 l 165.16211,0 c 7.80436,0 14.08594,-6.2835 14.08594,-14.0878 l 0,-154.82237 -73.4668,-86.60351 z"
         style="fill:#0f9d58;fill-opacity:1" />
    </clipPath>
    <clipPath
       id="clipPath6409"
       clipPathUnits="userSpaceOnUse">
      <circle
         style="fill:#77c445;fill-opacity:1;stroke:none;stroke-width:20;stroke-miterlimit:4;stroke-dasharray:none;stroke-opacity:1"
         id="circle6411"
         cx="128"
         cy="924.36218"
         r="128" />
    </clipPath>
    <clipPath
       clipPathUnits="userSpaceOnUse"
       id="clipPath4544">
      <circle
         style="fill:#0f9d97;fill-opacity:1;stroke:none;stroke-width:20;stroke-miterlimit:4;stroke-dasharray:none;stroke-opacity:1"
         id="circle4546"
         cx="128"
         cy="128.00002"
         r="128" />
    </clipPath>
    <clipPath
       id="clipPath4250"
       clipPathUnits="userSpaceOnUse">
      <circle
         style="fill:#b70a01;fill-opacity:1;stroke:none;stroke-width:20;stroke-miterlimit:4;stroke-dasharray:none;stroke-opacity:1"
         id="circle4252"
         cx="128"
         cy="924.36218"
         r="128" />
    </clipPath>
    <clipPath
       clipPathUnits="userSpaceOnUse"
       id="clipPath4241">
      <circle
         style="fill:#01a3d2;fill-opacity:1;stroke:none;stroke-width:20;stroke-miterlimit:4;stroke-dasharray:none;stroke-opacity:1"
         id="circle4243"
         cx="128"
         cy="924.36218"
         r="128" />
    </clipPath>
    <clipPath
       id="clipPath4247"
       clipPathUnits="userSpaceOnUse">
      <circle
         style="fill:#01a3d2;fill-opacity:1;stroke:none;stroke-width:20;stroke-miterlimit:4;stroke-dasharray:none;stroke-opacity:1"
         id="circle4249"
         cx="128"
         cy="924.36218"
         r="128" />
    </clipPath>
    <clipPath
       clipPathUnits="userSpaceOnUse"
       id="clipPath4274">
      <circle
         style="fill:#f77e08;fill-opacity:1;stroke:none;stroke-width:20;stroke-miterlimit:4;stroke-dasharray:none;stroke-opacity:1"
         id="circle4276"
         cx="128"
         cy="924.36218"
         r="128" />
    </clipPath>
    <clipPath
       id="clipPath4856"
       clipPathUnits="userSpaceOnUse">
      <circle
         style="fill:#fffc59;fill-opacity:1;stroke:none;stroke-width:20;stroke-miterlimit:4;stroke-dasharray:none;stroke-opacity:1"
         id="circle4858"
         cx="128"
         cy="924.36218"
         r="128" />
    </clipPath>
    <clipPath
       clipPathUnits="userSpaceOnUse"
       id="clipPath4871">
      <circle
         style="fill:#fffc59;fill-opacity:1;stroke:none;stroke-width:20;stroke-miterlimit:4;stroke-dasharray:none;stroke-opacity:1"
         id="circle4873"
         cx="128"
         cy="128.00002"
         r="128" />
    </clipPath>
  </defs>
  <metadata
     id="metadata4154">
    <rdf:RDF>
      <cc:Work
         rdf:about="">
        <dc:format>image/svg+xml</dc:format>
        <dc:type
           rdf:resource="http://purl.org/dc/dcmitype/StillImage" />
        <dc:title />
      </cc:Work>
    </rdf:RDF>
  </metadata>
  <g
     transform="translate(0,-796.36216)"
     id="layer1"
     inkscape:groupmode="layer"
     inkscape:label="Layer 1">
    <g
       id="g881">
      <path
         d="m 256,924.36218 a 128,128 0 0 1 -64,110.85122 128,128 0 0 1 -128.000003,0 A 128,128 0 0 1 0,924.36218 l 128,0 z"
         sodipodi:end="3.1415927"
         sodipodi:start="0"
         sodipodi:ry="128"
         sodipodi:rx="128"
         sodipodi:cy="924.36218"
         sodipodi:cx="128"
         sodipodi:type="arc"
         id="path875"
         style="opacity:1;fill:#c5ba46;fill-opacity:1;stroke:none;stroke-width:18.14134598;stroke-miterlimit:4;stroke-dasharray:none;stroke-opacity:1" />
      <path
         transform="scale(1,-1)"
         style="opacity:1;fill:#9a8d33;fill-opacity:1;stroke:none;stroke-width:18.14134598;stroke-miterlimit:4;stroke-dasharray:none;stroke-opacity:1"
         id="path877"
         sodipodi:type="arc"
         sodipodi:cx="128"
         sodipodi:cy="-924.36218"
         sodipodi:rx="128"
         sodipodi:ry="128"
         sodipodi:start="0"
         sodipodi:end="3.1415927"
         d="m 256,-924.36218 a 128,128 0 0 1 -64,110.85125 128,128 0 0 1 -128.000003,0 A 128,128 0 0 1 0,-924.36219 l 128,1e-5 z" />
    </g>
    <path
       inkscape:connector-curvature="0"
       id="path4284"
       d="m 107.74963,839.36343 c -4.74735,0 -8.44418,1.97068 -11.69824,6.2343 -2.25688,2.95711 -2.64289,4.37341 -2.79858,10.25603 l -0.18074,6.82578 -11.382396,20.10314 c -8.834887,15.60222 -12.284388,20.83955 -15.411433,23.40193 -5.08142,4.16382 -8.819515,11.59234 -9.093128,18.07126 l -0.204473,4.83775 -3.271411,0.006 c -9.324065,0.0158 -17.760084,6.0668 -17.757277,12.73698 0.0035,8.18162 6.115949,14.36354 14.202899,14.36354 5.320792,0 8.939914,-1.65196 14.710407,-6.71625 l 4.145855,-3.63835 6.438773,6.34567 c 6.159257,6.07014 6.418902,6.50416 5.973251,9.98583 -0.53702,4.19545 -1.121065,4.68047 -8.08542,6.71079 -10.536971,3.07181 -17.759107,8.55475 -17.759107,13.4818 0,1.12476 -0.841215,3.11443 -1.869381,4.42152 -6.461623,8.21465 3.56073,17.84505 22.041884,21.18205 l 0,0 c 4.070699,0.7351 12.448167,1.3594 18.617107,1.3875 18.90099,0.086 33.35069,-3.6288 40.05655,-10.29801 3.22172,-3.20418 3.55124,-3.95886 3.10347,-7.1015 -1.25979,-8.84187 -2.59318,-13.94111 -4.21158,-16.10879 -2.28372,-3.05879 -8.45683,-6.15247 -16.04854,-8.0416 -6.45403,-1.60603 -8.9538,-3.09612 -6.54282,-3.90124 3.23865,-1.08153 11.87505,-11.15606 13.39963,-15.6305 2.04063,-5.98893 1.96041,-14.002 -0.18803,-18.71934 -1.77718,-3.90214 -7.04737,-9.20963 -12.11628,-12.20391 -1.63088,-0.9634 -2.95762,-2.1865 -2.94827,-2.71826 0.0316,-1.84499 8.16758,-36.10057 8.70063,-36.63363 0.29475,-0.29474 2.88512,0.43666 5.75601,1.62658 4.71466,1.95412 5.63298,2.05301 9.50024,1.01867 3.03594,-0.81199 4.63041,-0.85539 5.47852,-0.15152 0.65784,0.54596 1.55568,0.90643 1.99535,0.80142 0.43967,-0.10505 4.16447,3.17159 8.27711,7.28217 5.14225,5.13969 8.84565,7.99487 11.85887,9.14243 4.22979,1.61089 4.50166,1.60899 7.82254,-0.0712 1.89205,-0.95725 4.00451,-2.79311 4.69536,-4.0783 2.6053,-4.84661 5.06595,-10.68137 5.06595,-12.01405 0,-3.02574 1.17782,0.0947 2.72375,7.21829 l 1.62839,7.50672 -2.68175,1.11177 c -1.47496,0.61095 -3.7348,1.93931 -5.02213,2.95193 -2.04555,1.60903 -2.26772,2.32908 -1.75985,5.71585 l 0.58053,3.87568 -5.25214,2.57588 c -5.12807,2.51504 -5.23818,2.65153 -4.65885,5.73956 0.63706,3.39586 -0.31401,5.86994 -3.92314,10.20857 -1.20882,1.45315 -2.19798,3.43565 -2.19798,4.40692 0,5.49898 11.03297,17.14981 15.72725,16.60717 3.48907,-0.40332 3.65389,-3.23875 0.67729,-11.62338 -2.66504,-7.507 -2.51566,-8.54545 1.84382,-12.90492 1.27318,-1.27319 2.31481,-3.37834 2.31481,-4.6771 0,-2.46236 0.54431,-2.72638 7.50489,-3.64565 l 3.29881,-0.43631 3.02678,9.72295 c 2.71857,8.73613 3.24766,9.72114 5.22842,9.72114 2.47713,0 3.37365,-2.65288 3.37365,-9.99314 0,-3.87859 0.13831,-4.10925 2.0994,-3.48682 2.72323,0.8643 4.36717,3.07892 4.45438,6.00245 0.0383,1.2852 1.22506,5.91191 2.63794,10.28158 2.61916,8.10036 4.22347,9.72652 7.50308,7.598 2.59541,-1.68447 3.97884,-17.91663 1.8639,-21.86845 -0.58791,-1.09851 -2.48065,-3.32909 -4.20611,-4.95641 -2.45167,-2.31222 -3.13632,-3.70692 -3.13632,-6.38582 0,-3.16605 -0.3172,-3.56405 -4.15316,-5.20834 -3.64658,-1.56312 -4.22371,-2.21508 -4.72455,-5.34161 -0.82766,-5.16647 -1.6569,-6.26446 -5.46758,-7.23106 -1.87743,-0.47623 -3.41381,-1.2324 -3.41381,-1.68135 0,-1.39824 2.60915,-5.9426 4.14404,-7.21646 2.48897,-2.06565 1.73153,-5.58075 -1.99352,-9.25744 -3.38404,-3.3401 -3.45026,-3.54276 -3.18744,-9.70835 0.42647,-10.00495 -3.53325,-14.73798 -12.32622,-14.73049 -2.25866,0.002 -5.21256,0.78633 -6.94993,1.84565 -2.71118,1.65306 -3.76795,1.75231 -10.28158,0.95658 -18.23054,-2.22711 -19.99366,-2.58628 -22.03275,-4.49453 -2.68803,-2.51555 -28.82082,-11.39701 -33.53562,-11.39701 z m 41.25593,16.54874 c 4.04161,0.0551 10.0404,0.64016 10.74346,1.30528 0.5302,0.5016 -1.35268,0.78979 -4.67345,0.71381 -6.54156,-0.14973 -9.76677,-0.68017 -9.76677,-1.60468 0,-0.23685 0.83474,-0.36341 2.10487,-0.40345 0.4763,-0.0151 1.01453,-0.0189 1.59189,-0.0115 z m 13.10575,5.44567 c 4.95407,0.0649 5.63003,0.75147 5.63003,2.88439 0,1.23507 -0.52061,2.16378 -1.16836,2.0848 -2.78456,-0.33968 -12.71578,-1.70871 -16.40088,-2.26187 -6.68714,-1.00378 -3.98087,-2.2994 5.42559,-2.59597 2.73573,-0.0863 4.86225,-0.13296 6.51362,-0.11137 z m -10.25969,6.15033 c 1.10118,0 2.20236,0.0515 3.03775,0.15518 1.67075,0.20734 0.30377,0.37788 -3.03775,0.37788 -3.34152,0 -4.7085,-0.17054 -3.03774,-0.37788 0.83537,-0.10367 1.93657,-0.15518 3.03774,-0.15518 z m 18.66824,4.70265 1.35274,2.97203 c 2.50953,5.51692 0.2247,15.61168 -4.24078,18.73943 -2.66208,1.86456 -3.3152,1.86607 -7.04305,0.0274 -3.7255,-1.83756 -17.48611,-15.89534 -16.74043,-17.10189 0.3063,-0.4956 0.14768,-1.15509 -0.35233,-1.46411 -0.50004,-0.30903 -0.68711,-1.14229 -0.41441,-1.85295 0.38991,-1.01606 3.37435,-1.29608 13.96741,-1.30711 l 13.47085,-0.0128 z m 18.87817,4.20976 c 0.78686,0.0405 1.67006,0.79014 3.44119,2.56126 l 3.19839,3.19841 -2.03186,2.85335 c -1.11774,1.56973 -2.58651,4.44868 -3.26228,6.3986 -1.43356,4.13656 -1.71409,3.59418 -3.4558,-6.65783 -1.0088,-5.93799 -0.95779,-6.56807 0.628,-7.72762 0.57377,-0.41956 1.01025,-0.65045 1.48236,-0.62617 z M 55.377796,932.87254 c 1.825152,-0.0216 3.004885,0.27355 3.004885,0.8927 0,0.51259 1.534062,2.63154 3.410151,4.70814 3.219288,3.56337 3.337524,3.91353 2.103045,6.23978 -0.719414,1.35565 -3.176602,3.65312 -5.462086,5.1061 -4.750577,3.02014 -10.540825,3.51398 -13.868822,1.18297 -2.432163,-1.70357 -4.876085,-6.066 -4.876085,-8.7043 0,-3.1669 4.308171,-7.28177 8.812002,-8.41585 2.580107,-0.64968 5.051747,-0.98794 6.87691,-1.00954 z"
       style="fill:#ffffff;fill-opacity:1" />
  </g>
</svg>
