<?xml version="1.0" encoding="UTF-8" standalone="no"?>
<!-- Created with Inkscape (http://www.inkscape.org/) -->

<svg
   xmlns:dc="http://purl.org/dc/elements/1.1/"
   xmlns:cc="http://creativecommons.org/ns#"
   xmlns:rdf="http://www.w3.org/1999/02/22-rdf-syntax-ns#"
   xmlns:svg="http://www.w3.org/2000/svg"
   xmlns="http://www.w3.org/2000/svg"
   xmlns:sodipodi="http://sodipodi.sourceforge.net/DTD/sodipodi-0.dtd"
   xmlns:inkscape="http://www.inkscape.org/namespaces/inkscape"
   sodipodi:docname="cockatrice.svg"
   inkscape:version="0.92.3 (2405546, 2018-03-11)"
   version="1.1"
   id="svg2"
   viewBox="0 0 256 256"
   height="256"
   width="256">
  <sodipodi:namedview
     inkscape:window-maximized="1"
     inkscape:window-y="0"
     inkscape:window-x="0"
     inkscape:window-height="1048"
     inkscape:window-width="1920"
     units="px"
     showgrid="true"
     inkscape:current-layer="layer1"
     inkscape:document-units="px"
     inkscape:cy="128"
     inkscape:cx="65.263646"
     inkscape:zoom="3.3632812"
     inkscape:pageshadow="2"
     inkscape:pageopacity="0.0"
     borderopacity="1.0"
     bordercolor="#666666"
     pagecolor="#ffffff"
     id="base">
    <inkscape:grid
       id="grid4183"
       type="xygrid" />
  </sodipodi:namedview>
  <defs
     id="defs4">
    <clipPath
       id="clipPath5002"
       clipPathUnits="userSpaceOnUse">
      <g
         id="g5004">
        <path
           style="fill:#0f9d58;fill-opacity:1;stroke:none;stroke-width:4.85768509;stroke-linejoin:round;stroke-miterlimit:4;stroke-dasharray:none;stroke-opacity:1"
           d="M 88.118406,249.43519 C 46.103287,235.29134 14.771284,201.68742 4.1335861,159.36053 1.3377997,148.23623 0.92261224,144.16281 0.92582381,127.88908 0.92787958,117.47222 1.134384,112.01362 1.6577819,108.54099 4.4653598,89.913336 12.17654,70.638106 23.042737,55.086148 c 3.958678,-5.665755 8.344812,-10.93092 9.101533,-10.925587 0.32809,0.0023 10.488643,18.309713 22.579009,40.683112 12.090365,22.373397 22.374546,41.334697 22.853732,42.136217 0.479186,0.80151 0.924733,2.44098 0.990103,3.64326 0.343424,6.31639 2.524175,14.20976 5.6424,20.42304 2.954444,5.88693 5.065381,8.73258 10.434696,14.06652 6.71418,6.66995 12.88853,10.28643 21.73204,12.72904 3.16587,0.87442 5.10478,1.05037 11.57517,1.05037 8.82596,0 12.60219,-0.76201 19.26429,-3.88733 2.04584,-0.95974 3.93661,-1.66536 4.20172,-1.56805 0.2651,0.0973 -11.0555,17.66459 -25.1569,39.0384 l -25.6389,38.86148 -3.094121,0.11221 c -2.554618,0.0927 -4.195204,-0.25845 -9.409103,-2.01364 z"
           id="path5006"
           inkscape:connector-curvature="0"
           transform="translate(0,796.36216)" />
        <path
           style="fill:#f4b400;fill-opacity:1;stroke:none;stroke-width:4.85768509;stroke-linejoin:round;stroke-miterlimit:4;stroke-dasharray:none;stroke-opacity:1"
           d="m 112.35984,1051.5167 c -10.0014,-1.4495 -12.15632,-1.8201 -12.531784,-2.1556 -0.248854,-0.2223 1.738304,-3.7475 4.550294,-8.0722 7.16635,-11.0213 49.77231,-74.64801 50.25856,-75.05489 3.57509,-2.99158 8.63523,-8.0414 10.57512,-10.55356 3.36154,-4.35318 7.55784,-12.9141 9.06523,-18.494 6.19314,-22.92535 -2.59253,-47.15185 -21.69967,-59.83688 l -2.96081,-1.96565 17.02469,0.29584 c 9.36358,0.1627 31.17032,0.43384 48.45941,0.60252 l 31.43471,0.30668 1.54584,4.18869 c 2.24597,6.08579 4.67816,15.0947 5.93451,21.9816 1.52517,8.36049 1.92536,28.85896 0.73851,37.82758 -3.0805,23.27845 -12.81326,45.72018 -27.80202,64.10577 -20.47622,25.1166 -51.4599,42.1974 -84.14612,46.3885 -5.31244,0.6812 -26.64601,0.9864 -30.44647,0.4356 z"
           id="path5008"
           inkscape:connector-curvature="0" />
        <path
           style="fill:#db4437;fill-opacity:1;stroke:none;stroke-width:10;stroke-linejoin:round;stroke-miterlimit:4;stroke-dasharray:none;stroke-opacity:1"
           d="M 67.989788,108.87302 C 41.284246,59.575543 33.290284,45.149038 32.233625,44.344765 31.651257,43.901497 32.811213,42.549931 38.695603,36.815353 53.43581,22.450419 68.809334,13.040746 87.839196,6.7360352 101.68742,2.1480329 112.58238,0.43719165 127.95142,0.43719165 c 21.3099,0 37.80488,3.80960275 56.83492,13.12633035 25.29351,12.383198 46.19421,33.578863 58.51993,59.345832 1.61138,3.368591 2.92978,6.372442 2.92978,6.675231 0,0.560033 -10.54865,0.49527 -71.16508,-0.436914 l -24.28843,-0.373518 -3.93063,-1.764495 c -6.75732,-3.033425 -10.64587,-3.839529 -18.6576,-3.867747 -5.0296,-0.01773 -7.97946,0.207636 -10.31642,0.788106 -14.50826,3.603659 -26.283291,12.94777 -33.291614,26.418653 -3.58502,6.89086 -5.24713,13.08166 -6.331628,23.58317 l -0.33738,3.26696 -9.92748,-18.32578 z"
           id="path5010"
           inkscape:connector-curvature="0"
           transform="translate(0,796.36216)" />
      </g>
    </clipPath>
    <clipPath
       clipPathUnits="userSpaceOnUse"
       id="clipPath4253">
      <circle
         style="fill:#bababa;fill-opacity:1;stroke:none;stroke-width:0.1;stroke-linecap:round;stroke-linejoin:round;stroke-miterlimit:4;stroke-dasharray:none;stroke-opacity:1"
         id="circle4255"
         cx="128"
         cy="924.36218"
         r="128" />
    </clipPath>
    <clipPath
       id="clipPath4350"
       clipPathUnits="userSpaceOnUse">
      <circle
         style="fill:#7e7e7e;fill-opacity:1;stroke:none;stroke-width:0.1;stroke-linecap:round;stroke-linejoin:round;stroke-miterlimit:4;stroke-dasharray:none;stroke-opacity:1"
         id="circle4352"
         cx="128"
         cy="924.36218"
         r="128" />
    </clipPath>
    <clipPath
       clipPathUnits="userSpaceOnUse"
       id="clipPath4303">
      <circle
         style="fill:#a8c6d4;fill-opacity:1;stroke:none;stroke-width:0.1;stroke-linecap:round;stroke-linejoin:round;stroke-miterlimit:4;stroke-dasharray:none;stroke-opacity:1"
         id="circle4305"
         cx="128"
         cy="924.36218"
         r="128" />
    </clipPath>
    <clipPath
       id="clipPath4476"
       clipPathUnits="userSpaceOnUse">
      <circle
         style="fill:#58b8f8;fill-opacity:1;stroke:none;stroke-width:0.1;stroke-linecap:round;stroke-linejoin:round;stroke-miterlimit:4;stroke-dasharray:none;stroke-opacity:1"
         id="circle4478"
         cx="16.908138"
         cy="918.48175"
         r="125.57204" />
    </clipPath>
    <clipPath
       clipPathUnits="userSpaceOnUse"
       id="clipPath4586">
      <circle
         style="fill:#55b5f4;fill-opacity:1;stroke:none;stroke-width:0.1;stroke-linecap:round;stroke-linejoin:round;stroke-miterlimit:4;stroke-dasharray:none;stroke-opacity:1"
         id="circle4588"
         cx="128"
         cy="924.36218"
         r="128" />
    </clipPath>
  </defs>
  <metadata
     id="metadata7">
    <rdf:RDF>
      <cc:Work
         rdf:about="">
        <dc:format>image/svg+xml</dc:format>
        <dc:type
           rdf:resource="http://purl.org/dc/dcmitype/StillImage" />
        <dc:title />
      </cc:Work>
    </rdf:RDF>
  </metadata>
  <g
     inkscape:label="Layer 1"
     inkscape:groupmode="layer"
     id="layer1"
     transform="translate(0,-796.36216)">
    <g
       id="g927"
       transform="translate(123,11.999977)">
      <path
         d="m 133,912.36218 a 128,128 0 0 1 -64.000002,110.85122 128,128 0 0 1 -128.000001,0 A 128,128 0 0 1 -123,912.36218 l 128,0 z"
         sodipodi:end="3.1415927"
         sodipodi:start="0"
         sodipodi:ry="128"
         sodipodi:rx="128"
         sodipodi:cy="912.36218"
         sodipodi:cx="5"
         sodipodi:type="arc"
         id="path912"
         style="opacity:1;fill:#7ad153;fill-opacity:1;stroke:none;stroke-width:18.30127525;stroke-miterlimit:4;stroke-dasharray:none;stroke-opacity:1" />
      <path
         transform="scale(1,-1)"
         style="opacity:1;fill:#27a244;fill-opacity:1;stroke:none;stroke-width:18.30127525;stroke-miterlimit:4;stroke-dasharray:none;stroke-opacity:1"
         id="path914"
         sodipodi:type="arc"
         sodipodi:cx="5"
         sodipodi:cy="-912.36218"
         sodipodi:rx="128"
         sodipodi:ry="128"
         sodipodi:start="0"
         sodipodi:end="3.1415927"
         d="m 133,-912.36218 a 128,128 0 0 1 -64.000002,110.85125 128,128 0 0 1 -128.000001,0 A 128,128 0 0 1 -123,-912.36219 l 128,1e-5 z" />
    </g>
    <path
       inkscape:connector-curvature="0"
       id="path4292"
       d="m 110.01638,839.60464 1.84876,6.17971 c 1.44009,4.80658 1.44852,7.17889 0.0344,10.28224 l -1.83583,4.03362 -5.49018,-4.81793 c -6.449274,-5.66262 -10.127714,-5.99577 -17.297974,-1.56431 -5.93727,3.66945 -5.60717,6.10644 0.82741,6.10644 2.3813,0 4.7712,0.44025 5.30919,0.97825 2.16807,2.16809 -4.10005,9.99117 -19.05191,23.78795 -9.16151,8.45378 -15.74227,15.75007 -15.74227,17.44879 0,1.60546 -1.7678,4.55818 -3.93018,6.56324 -3.52817,3.27149 -3.75287,4.15306 -2.20212,8.60159 1.493,4.28278 1.25133,5.62477 -1.75822,9.8513 -3.12619,4.39031 -3.31336,5.63213 -1.82721,12.12667 1.16411,5.08712 1.16786,11.20102 0.0132,20.58176 -1.8276,14.84353 -0.44883,24.95821 7.89485,49.35574 l 50.467504,0 c -4.62651,-7.1238 -10.659274,-20.44895 -11.475964,-26.28316 -0.47072,-3.36267 -0.0282,-3.58708 6.115074,-3.12863 5.98138,0.44636 6.79833,0.0677 8.49385,-3.90433 4.69722,-11.00444 8.80926,-12.20923 17.65995,-5.17559 3.24026,2.57502 7.59643,4.68431 9.68324,4.68431 3.7931,0 3.79506,-0.002 2.70633,-12.48435 -0.71718,-8.22149 -0.54013,-12.48436 0.51712,-12.48436 0.88305,0 5.29542,4.03673 9.80821,8.97218 7.23456,7.91211 15.8985,22.84208 19.42683,33.47982 0.8902,2.68393 1.49229,0.83848 2.39604,-7.33893 1.11386,-10.07872 0.83243,-11.86322 -3.63715,-23.02518 -3.68556,-9.20399 -4.41189,-12.53272 -3.02953,-13.91509 3.15708,-3.15708 23.55153,-2.11873 32.0922,1.63328 4.14827,1.82237 8.20605,3.31393 9.01527,3.31393 4.00646,0 -4.95753,-10.55123 -20.61189,-24.25767 -9.58962,-8.39633 -17.81736,-16.73001 -18.28053,-18.52185 -0.46315,-1.79183 -3.17548,-7.74757 -6.02886,-13.2342 -2.85339,-5.48664 -5.18853,-10.88113 -5.18853,-11.98878 0,-2.05071 0.73048,-2.37792 11.70435,-5.21438 3.43336,-0.88744 7.18198,-3.12568 8.33009,-4.97307 2.05234,-3.30237 1.96814,-3.34171 -5.1713,-2.27106 l -7.26134,1.09027 5.56344,-8.08875 c 3.06041,-4.44904 5.53903,-9.23847 5.51174,-10.64424 -0.0413,-2.12538 -0.44025,-2.0309 -2.37018,0.56453 -5.3326,7.17139 -7.1042,8.58434 -10.77352,8.58434 l -3.86123,0 3.06829,-7.15361 c 1.68619,-3.93367 3.06401,-9.55132 3.06401,-12.48438 l 0,-5.2661 -5.84357,0 -0.75415,6.66667 c -0.41735,3.70266 -1.74042,8.78516 -2.94332,11.29496 -2.18332,4.55531 -6.57343,6.78642 -8.19219,4.1672 -0.4705,-0.76126 -1.33129,-6.06672 -1.91768,-11.79055 l -1.06012,-10.33828 -5.48589,0 -1.04718,5.78324 c -0.58351,3.21879 -2.67732,7.50332 -4.65418,9.51948 l -3.59403,3.66731 -1.10754,-7.37771 c -0.6084,-4.05714 -1.47435,-8.34171 -1.92629,-9.51948 -0.52151,-1.359 0.57424,-1.92269 3.86984,-2.07284 l -20.06892,0 z"
       style="fill:#ffffff;fill-opacity:1;stroke:none;stroke-width:30;stroke-miterlimit:4;stroke-dasharray:none;stroke-opacity:1" />
    <path
       id="path4290"
       d="m -5.9930723,855.55345 3.8339842,0 0.00586,-0.0312 -2.9824214,0 c -0.3444833,0 -0.5856819,0.0189 -0.8574218,0.0312 z"
       style="fill:#3793cf;fill-opacity:1;stroke:none;stroke-width:30;stroke-miterlimit:4;stroke-dasharray:none;stroke-opacity:1" />
    <path
       id="path4288"
       d="m 0.32723986,855.55345 6.73828104,0 0.00391,-0.0312 -3.373047,0 -3.37304704,0 0.003906,0.0312 z"
       style="fill:#3793cf;fill-opacity:1;stroke:none;stroke-width:30;stroke-miterlimit:4;stroke-dasharray:none;stroke-opacity:1" />
  </g>
</svg>
