<?xml version="1.0" encoding="UTF-8" standalone="no"?>
<!-- Created with Inkscape (http://www.inkscape.org/) -->

<svg
   xmlns:dc="http://purl.org/dc/elements/1.1/"
   xmlns:cc="http://creativecommons.org/ns#"
   xmlns:rdf="http://www.w3.org/1999/02/22-rdf-syntax-ns#"
   xmlns:svg="http://www.w3.org/2000/svg"
   xmlns="http://www.w3.org/2000/svg"
   xmlns:sodipodi="http://sodipodi.sourceforge.net/DTD/sodipodi-0.dtd"
   xmlns:inkscape="http://www.inkscape.org/namespaces/inkscape"
   sodipodi:docname="conky-logomark-violet.svg"
   inkscape:version="0.92.4 (unknown)"
   version="1.1"
   id="svg2"
   viewBox="0 0 256 256"
   height="256"
   width="256">
  <sodipodi:namedview
     inkscape:window-maximized="1"
     inkscape:window-y="0"
     inkscape:window-x="0"
     inkscape:window-height="1048"
     inkscape:window-width="1920"
     units="px"
     showgrid="true"
     inkscape:current-layer="layer1"
     inkscape:document-units="px"
     inkscape:cy="127.99998"
     inkscape:cx="62.638298"
     inkscape:zoom="3.3046875"
     inkscape:pageshadow="2"
     inkscape:pageopacity="0.0"
     borderopacity="1.0"
     bordercolor="#666666"
     pagecolor="#ffffff"
     id="base">
    <inkscape:grid
       type="xygrid"
       id="grid4168"
       spacingx="5"
       spacingy="5" />
  </sodipodi:namedview>
  <defs
     id="defs4">
    <clipPath
       id="clipPath5002"
       clipPathUnits="userSpaceOnUse">
      <g
         id="g5004">
        <path
           style="fill:#0f9d58;fill-opacity:1;stroke:none;stroke-width:4.85768509;stroke-linejoin:round;stroke-miterlimit:4;stroke-dasharray:none;stroke-opacity:1"
           d="M 88.118406,249.43519 C 46.103287,235.29134 14.771284,201.68742 4.1335861,159.36053 1.3377997,148.23623 0.92261224,144.16281 0.92582381,127.88908 0.92787958,117.47222 1.134384,112.01362 1.6577819,108.54099 4.4653598,89.913336 12.17654,70.638106 23.042737,55.086148 c 3.958678,-5.665755 8.344812,-10.93092 9.101533,-10.925587 0.32809,0.0023 10.488643,18.309713 22.579009,40.683112 12.090365,22.373397 22.374546,41.334697 22.853732,42.136217 0.479186,0.80151 0.924733,2.44098 0.990103,3.64326 0.343424,6.31639 2.524175,14.20976 5.6424,20.42304 2.954444,5.88693 5.065381,8.73258 10.434696,14.06652 6.71418,6.66995 12.88853,10.28643 21.73204,12.72904 3.16587,0.87442 5.10478,1.05037 11.57517,1.05037 8.82596,0 12.60219,-0.76201 19.26429,-3.88733 2.04584,-0.95974 3.93661,-1.66536 4.20172,-1.56805 0.2651,0.0973 -11.0555,17.66459 -25.1569,39.0384 l -25.6389,38.86148 -3.094121,0.11221 c -2.554618,0.0927 -4.195204,-0.25845 -9.409103,-2.01364 z"
           id="path5006"
           inkscape:connector-curvature="0"
           transform="translate(0,796.36216)" />
        <path
           style="fill:#f4b400;fill-opacity:1;stroke:none;stroke-width:4.85768509;stroke-linejoin:round;stroke-miterlimit:4;stroke-dasharray:none;stroke-opacity:1"
           d="m 112.35984,1051.5167 c -10.0014,-1.4495 -12.15632,-1.8201 -12.531784,-2.1556 -0.248854,-0.2223 1.738304,-3.7475 4.550294,-8.0722 7.16635,-11.0213 49.77231,-74.64801 50.25856,-75.05489 3.57509,-2.99158 8.63523,-8.0414 10.57512,-10.55356 3.36154,-4.35318 7.55784,-12.9141 9.06523,-18.494 6.19314,-22.92535 -2.59253,-47.15185 -21.69967,-59.83688 l -2.96081,-1.96565 17.02469,0.29584 c 9.36358,0.1627 31.17032,0.43384 48.45941,0.60252 l 31.43471,0.30668 1.54584,4.18869 c 2.24597,6.08579 4.67816,15.0947 5.93451,21.9816 1.52517,8.36049 1.92536,28.85896 0.73851,37.82758 -3.0805,23.27845 -12.81326,45.72018 -27.80202,64.10577 -20.47622,25.1166 -51.4599,42.1974 -84.14612,46.3885 -5.31244,0.6812 -26.64601,0.9864 -30.44647,0.4356 z"
           id="path5008"
           inkscape:connector-curvature="0" />
        <path
           style="fill:#db4437;fill-opacity:1;stroke:none;stroke-width:10;stroke-linejoin:round;stroke-miterlimit:4;stroke-dasharray:none;stroke-opacity:1"
           d="M 67.989788,108.87302 C 41.284246,59.575543 33.290284,45.149038 32.233625,44.344765 31.651257,43.901497 32.811213,42.549931 38.695603,36.815353 53.43581,22.450419 68.809334,13.040746 87.839196,6.7360352 101.68742,2.1480329 112.58238,0.43719165 127.95142,0.43719165 c 21.3099,0 37.80488,3.80960275 56.83492,13.12633035 25.29351,12.383198 46.19421,33.578863 58.51993,59.345832 1.61138,3.368591 2.92978,6.372442 2.92978,6.675231 0,0.560033 -10.54865,0.49527 -71.16508,-0.436914 l -24.28843,-0.373518 -3.93063,-1.764495 c -6.75732,-3.033425 -10.64587,-3.839529 -18.6576,-3.867747 -5.0296,-0.01773 -7.97946,0.207636 -10.31642,0.788106 -14.50826,3.603659 -26.283291,12.94777 -33.291614,26.418653 -3.58502,6.89086 -5.24713,13.08166 -6.331628,23.58317 l -0.33738,3.26696 -9.92748,-18.32578 z"
           id="path5010"
           inkscape:connector-curvature="0"
           transform="translate(0,796.36216)" />
      </g>
    </clipPath>
    <clipPath
       clipPathUnits="userSpaceOnUse"
       id="clipPath4271">
      <circle
         style="fill:#292929;fill-opacity:0.26020412;stroke:none;stroke-width:10;stroke-linejoin:round;stroke-miterlimit:4;stroke-dasharray:none;stroke-opacity:0.25882353"
         id="circle4273"
         cx="128"
         cy="128.00002"
         r="128" />
    </clipPath>
    <clipPath
       id="clipPath4363"
       clipPathUnits="userSpaceOnUse">
      <circle
         style="fill:#4285f4;fill-opacity:1;stroke:none;stroke-width:10;stroke-linejoin:round;stroke-miterlimit:4;stroke-dasharray:none;stroke-opacity:0.25882353"
         id="circle4365"
         cx="128"
         cy="924.36218"
         r="128" />
    </clipPath>
    <clipPath
       clipPathUnits="userSpaceOnUse"
       id="clipPath4452">
      <circle
         style="fill:#4285f4;fill-opacity:1;stroke:none;stroke-width:10;stroke-linejoin:round;stroke-miterlimit:4;stroke-dasharray:none;stroke-opacity:0.25882353"
         id="circle4454"
         cx="128"
         cy="924.36218"
         r="128" />
    </clipPath>
    <clipPath
       id="clipPath5177"
       clipPathUnits="userSpaceOnUse">
      <circle
         style="fill:#4285f4;fill-opacity:1;stroke:none;stroke-width:10;stroke-linejoin:round;stroke-miterlimit:4;stroke-dasharray:none;stroke-opacity:0.25882353"
         id="circle5179"
         cx="128"
         cy="924.36218"
         r="128" />
    </clipPath>
    <clipPath
       clipPathUnits="userSpaceOnUse"
       id="clipPath4342">
      <circle
         style="fill:#4285f4;fill-opacity:1;stroke:none;stroke-width:10;stroke-linejoin:round;stroke-miterlimit:4;stroke-dasharray:none;stroke-opacity:0.25882353"
         id="circle4344"
         cx="128"
         cy="933.48718"
         r="128" />
    </clipPath>
    <clipPath
       id="clipPath4681"
       clipPathUnits="userSpaceOnUse">
      <circle
         style="fill:#9d5fad;fill-opacity:1;stroke:none;stroke-width:10;stroke-linejoin:round;stroke-miterlimit:4;stroke-dasharray:none;stroke-opacity:0.25882353"
         id="circle4683"
         cx="127.00293"
         cy="930.43964"
         r="128" />
    </clipPath>
    <clipPath
       clipPathUnits="userSpaceOnUse"
       id="clipPath4235">
      <circle
         style="fill:#0f9d58;fill-opacity:1;stroke:none;stroke-width:10;stroke-linejoin:round;stroke-miterlimit:4;stroke-dasharray:none;stroke-opacity:0.25882353"
         id="circle4237"
         cx="128"
         cy="924.36218"
         r="128" />
    </clipPath>
    <clipPath
       id="clipPath4771"
       clipPathUnits="userSpaceOnUse">
      <circle
         style="fill:#0f9d58;fill-opacity:1;stroke:none;stroke-width:10;stroke-linejoin:round;stroke-miterlimit:4;stroke-dasharray:none;stroke-opacity:0.25882353"
         id="circle4773"
         cx="128"
         cy="924.36218"
         r="128" />
    </clipPath>
    <clipPath
       clipPathUnits="userSpaceOnUse"
       id="clipPath4842">
      <circle
         style="fill:#0f9d58;fill-opacity:1;stroke:none;stroke-width:10;stroke-linejoin:round;stroke-miterlimit:4;stroke-dasharray:none;stroke-opacity:0.25882353"
         id="circle4844"
         cx="128"
         cy="924.36218"
         r="128" />
    </clipPath>
    <clipPath
       id="clipPath4458"
       clipPathUnits="userSpaceOnUse">
      <circle
         style="fill:#ff3b38;fill-opacity:1;stroke:none;stroke-width:10;stroke-linejoin:round;stroke-miterlimit:4;stroke-dasharray:none;stroke-opacity:0.25882353"
         id="circle4460"
         cx="128"
         cy="924.36218"
         r="128" />
    </clipPath>
    <clipPath
       clipPathUnits="userSpaceOnUse"
       id="clipPath4783">
      <circle
         style="fill:#ff3b38;fill-opacity:1;stroke:none;stroke-width:10;stroke-linejoin:round;stroke-miterlimit:4;stroke-dasharray:none;stroke-opacity:0.25882353"
         id="circle4785"
         cx="128"
         cy="924.36218"
         r="128" />
    </clipPath>
    <clipPath
       id="clipPath4789"
       clipPathUnits="userSpaceOnUse">
      <circle
         style="fill:#80b4ff;fill-opacity:1;stroke:none;stroke-width:10;stroke-linejoin:round;stroke-miterlimit:4;stroke-dasharray:none;stroke-opacity:0.25882353"
         id="circle4791"
         cx="102.64714"
         cy="924.36218"
         r="128" />
    </clipPath>
    <clipPath
       clipPathUnits="userSpaceOnUse"
       id="clipPath4721">
      <circle
         style="fill:#557ae6;fill-opacity:1;stroke:none;stroke-width:10;stroke-linejoin:round;stroke-miterlimit:4;stroke-dasharray:none;stroke-opacity:0.25882353"
         id="circle4723"
         cx="128"
         cy="924.36218"
         r="128" />
    </clipPath>
    <clipPath
       id="clipPath4491"
       clipPathUnits="userSpaceOnUse">
      <circle
         style="fill:#990000;fill-opacity:1;stroke:none;stroke-width:10;stroke-linejoin:round;stroke-miterlimit:4;stroke-dasharray:none;stroke-opacity:0.25882353"
         id="circle4493"
         cx="128"
         cy="924.36218"
         r="128" />
    </clipPath>
    <clipPath
       clipPathUnits="userSpaceOnUse"
       id="clipPath1102">
      <circle
         style="fill:#b40000;fill-opacity:1;stroke:none;stroke-width:10;stroke-linejoin:round;stroke-miterlimit:4;stroke-dasharray:none;stroke-opacity:0.25882353"
         id="circle1104"
         cx="128"
         cy="924.36218"
         r="128" />
    </clipPath>
    <clipPath
       clipPathUnits="userSpaceOnUse"
       id="clipPath1102-3">
      <circle
         style="fill:#b40000;fill-opacity:1;stroke:none;stroke-width:10;stroke-linejoin:round;stroke-miterlimit:4;stroke-dasharray:none;stroke-opacity:0.25882353"
         id="circle1104-6"
         cx="128"
         cy="924.36218"
         r="128" />
    </clipPath>
    <clipPath
       clipPathUnits="userSpaceOnUse"
       id="clipPath1403">
      <circle
         style="fill:#583494;fill-opacity:1;stroke:none;stroke-width:5.55555534;stroke-linejoin:round;stroke-miterlimit:4;stroke-dasharray:none;stroke-opacity:0.25882353"
         id="circle1405"
         cx="128"
         cy="924.36218"
         r="71.111115" />
    </clipPath>
  </defs>
  <metadata
     id="metadata7">
    <rdf:RDF>
      <cc:Work
         rdf:about="">
        <dc:format>image/svg+xml</dc:format>
        <dc:type
           rdf:resource="http://purl.org/dc/dcmitype/StillImage" />
        <dc:title />
      </cc:Work>
    </rdf:RDF>
  </metadata>
  <g
     inkscape:label="Layer 1"
     inkscape:groupmode="layer"
     id="layer1"
     transform="translate(0,-796.36216)">
    <path
       id="path1022"
       style="fill:#583494;fill-opacity:1;stroke:none;stroke-width:10;stroke-linejoin:round;stroke-miterlimit:4;stroke-dasharray:none;stroke-opacity:0.25882353"
       sodipodi:type="arc"
       sodipodi:cx="128"
       sodipodi:cy="-924.36218"
       sodipodi:rx="128"
       sodipodi:ry="128"
       sodipodi:start="0"
       sodipodi:end="3.1415927"
       d="m 256,-924.36218 a 128,128 0 0 1 -64,110.85125 128,128 0 0 1 -128.000003,0 A 128,128 0 0 1 0,-924.36219 l 128,1e-5 z"
       transform="scale(1,-1)" />
    <path
       id="path4152"
       style="fill:#b19dcb;fill-opacity:1;stroke:none;stroke-width:10;stroke-linejoin:round;stroke-miterlimit:4;stroke-dasharray:none;stroke-opacity:0.25882353"
       sodipodi:type="arc"
       sodipodi:cx="128"
       sodipodi:cy="924.36218"
       sodipodi:rx="128"
       sodipodi:ry="128"
       sodipodi:start="0"
       sodipodi:end="3.1415927"
       d="m 256,924.36218 a 128,128 0 0 1 -64,110.85122 128,128 0 0 1 -128.000003,0 A 128,128 0 0 1 0,924.36218 l 128,0 z" />
    <g
       id="g893">
      <g
         id="g881">
        <g
           id="XMLID_757_"
           transform="matrix(0.24196801,0,0,0.24196801,7.4515395,803.33933)"
           style="fill:#c3c3c3;fill-opacity:1">
          <path
             style="fill:#c3c3c3;fill-opacity:1"
             inkscape:connector-curvature="0"
             d="M 824.3,531.6 C 824.3,602 767.3,659 696.9,659 H 299.5 C 229.1,659 172.1,602 172.1,531.6 V 331.7 c 0,-70.4 57,-127.4 127.4,-127.4 h 397.3 c 70.4,0 127.4,57 127.4,127.4 v 199.9 z"
             class="st0"
             id="XMLID_758_" />
        </g>
        <g
           id="XMLID_738_"
           transform="matrix(0.24196801,0,0,0.24196801,7.4515395,803.33933)"
           style="fill:#5d5d5d;fill-opacity:1">
          <path
             style="opacity:0.4;fill:#5d5d5d;fill-opacity:1"
             inkscape:connector-curvature="0"
             d="m 443.6,484.5 v 120.2 h -98.2 c -9.7,0 -19.5,0.3 -29.4,0.4 -1.3,0 -2.6,0 -4,0 h -0.6 c -7,0 -14,-0.2 -20.9,-0.8 0,0 0,0 0,0 -7.1,-1.3 -14,-3.2 -20.8,-5.6 -5.2,-2.5 -10.3,-5.3 -15.2,-8.5 -1,-0.7 -2,-1.4 -3,-2.1 -2.7,-2.3 -5.3,-4.7 -7.8,-7.1 -2.5,-2.5 -4.8,-5.1 -7.1,-7.7 -0.7,-1 -1.4,-2.1 -2.1,-3.1 -3.2,-4.8 -5.9,-9.8 -8.4,-14.9 -2.5,-6.9 -4.4,-13.9 -5.8,-21.1 v -0.1 c -0.8,-8 -1.1,-16.2 -1.2,-24.3 v -0.1 c -0.2,-16.9 0.7,-33.9 0.7,-50.4 h 11.1 c 2.7,0 4.8,11.4 4.8,25.5 v 46.4 c 0,-10.3 2.2,-18.7 4.9,-18.7 h 20.1 c 2.7,0 4.8,8.4 4.8,18.7 V 386.4 c 0,-25.8 2.2,-46.7 4.9,-46.7 h 20.1 c 2.7,0 4.9,20.9 4.9,46.7 v 98.2 c 0,-14.1 2.2,-25.5 4.8,-25.5 h 20.1 c 2.7,0 4.8,11.4 4.8,25.5 v 87.2 c 0,-7 2.2,-12.7 4.8,-12.7 H 350 c 2.7,0 4.8,5.7 4.8,12.7 V 468.9 c 0,-15.3 2.2,-27.7 4.9,-27.7 h 20.1 c 1.8,0 3.3,5.5 4.1,13.6 v -32.4 c 0,-19.1 2.2,-34.5 4.9,-34.5 h 20.1 c 2.7,0 4.9,15.5 4.9,34.5 v 62.1 c 0,-14.1 2.2,-25.5 4.8,-25.5 h 20.1 c 2.7,0.1 4.9,11.5 4.9,25.5 z"
             class="st1"
             id="XMLID_790_" />
          <path
             style="opacity:0.4;fill:#5d5d5d;fill-opacity:1"
             inkscape:connector-curvature="0"
             d="m 781.7,512.2 c -0.9,3.5 -1.4,7.1 -1.4,11 0,3.7 -0.2,7.3 -0.5,11 -1.4,7.1 -3.2,14 -5.7,20.8 -2.5,5.2 -5.3,10.2 -8.5,15.1 -0.7,1 -1.4,2.1 -2.1,3.1 -2.3,2.6 -4.6,5.3 -7.1,7.8 -2.5,2.5 -5.1,4.7 -7.7,7 -1,0.7 -2.1,1.5 -3.2,2.2 -4.9,3.2 -10,6 -15.2,8.5 -6.8,2.4 -13.7,4.3 -20.7,5.6 0,0 0,0 0,0 -6,0.5 -12.1,0.7 -18.1,0.7 h -4.8 c -7.9,0 -15.7,-0.2 -23.4,-0.2 h -193 V 339.2 c 0,-25.8 2.2,-46.7 4.8,-46.7 h 20.1 c 2.7,0 4.8,20.9 4.8,46.7 v 170.1 c 0,-12.1 2.2,-21.8 4.9,-21.8 H 525 c 2.7,0 4.8,9.8 4.8,21.8 v 39.3 c 0,-8.9 2.2,-16.1 4.9,-16.1 h 20.1 c 2.7,0 4.9,7.2 4.9,16.1 V 578 c 0,-6.5 2.2,-11.8 4.8,-11.8 h 20.1 c 2.7,0 4.8,5.3 4.8,11.8 V 406 c 0,-25.8 2.2,-46.7 4.8,-46.7 h 20.1 c 2.7,0 4.8,20.9 4.8,46.7 v 78.5 c 0,-14.1 2.2,-25.5 4.9,-25.5 h 20.1 c 2.7,0 4.9,11.4 4.9,25.5 v 87.2 c 0,-7 2.2,-12.7 4.8,-12.7 h 20.1 c 2.7,0 4.9,5.7 4.9,12.7 V 468.9 c 0,-15.3 2.2,-27.7 4.8,-27.7 h 20.1 c 1.8,0 3.3,5.5 4.1,13.6 v -32.4 c 0,-19.1 2.2,-34.5 4.8,-34.5 h 20.1 c 2.7,0 4.8,15.5 4.8,34.5 v 62.1 c 0,-14.1 2.2,-25.5 4.9,-25.5 h 20.1 c 2.7,0 4.8,11.4 4.8,25.5 v 28.8 c 0.5,-0.7 1.1,-1.2 1.7,-1.2 h 12.7 z"
             class="st1"
             id="XMLID_788_" />
          <path
             style="opacity:0.4;fill:#5d5d5d;fill-opacity:1"
             inkscape:connector-curvature="0"
             d="m 823.9,369.1 v 108.4 c -11.5,1 -22,5.8 -29.8,13.3 V 355.7 c 7.4,7.5 17.1,12.6 27.8,13.3 v 0 c 0.7,0 1.3,0.1 2,0.1 z"
             class="st1"
             id="XMLID_789_" />
        </g>
        <g
           style="fill:#ffffff;fill-opacity:1"
           id="XMLID_750_"
           transform="matrix(0.24196801,0,0,0.24196801,6.9797018,803.38396)">
          <path
             style="fill:#ffffff;fill-opacity:1"
             inkscape:connector-curvature="0"
             d="m 871.9,523.1 c 0,1.5 0,3.1 -0.1,4.7 -0.9,28 -8.3,55.3 -21.9,79.8 -7.4,13.5 -16.7,25.7 -27.3,36.4 -5.3,5.4 -10.9,10.4 -16.8,14.9 -28.5,22.2 -63.9,35.4 -100.7,37.2 -4.1,0.2 -8.1,0.3 -12.2,0.3 h -4.6 c -6.5,0 -13,-0.2 -19.4,-0.2 H 321.3 c -20.7,0 -40.8,-0.2 -61.3,-5 -24.4,-5.7 -46.7,-17 -65.7,-32.3 -6.1,-4.9 -12,-10.3 -17.4,-16 -18,-18.9 -31.9,-41.7 -40.3,-66.6 -7.6,-22.2 -8.3,-45.1 -8.4,-68.2 0,-4.6 0,-9.2 0,-13.7 v -88.2 c 0,-24.1 0,-48.1 0,-72.2 0,-2.6 0,-5.3 0,-7.9 0,-47.9 18.4,-95.1 53.6,-128.2 33.3,-31.2 76.5,-47.9 122.1,-47.9 15.6,0 31.2,0 46.8,0 h 340.4 c 34.2,0 67.9,6.9 97.5,25 51.4,31.6 83,87.9 83.5,148.2 0,1.1 0,2.3 -0.1,3.4 -1.6,23.8 -21.9,41.1 -45.3,42.4 -0.1,0 -0.3,0 -0.4,0 -0.7,0 -1.5,0 -2.2,0 -0.7,0 -1.3,0 -2,-0.1 v 0 c -10.7,-0.7 -20.5,-5.8 -27.8,-13.3 -8.4,-8.6 -13.7,-20.4 -13.8,-32.5 v -0.8 c -0.1,-3.4 -0.2,-6.8 -0.5,-10.1 -1.4,-7.1 -3.2,-14.1 -5.8,-20.9 -2.5,-5.2 -5.2,-10.2 -8.4,-15 -0.7,-1 -1.4,-2 -2.1,-3.1 -2.3,-2.7 -4.6,-5.3 -7.1,-7.7 -2.5,-2.5 -5.2,-4.8 -7.8,-7.1 -1,-0.7 -2,-1.4 -3.1,-2.1 -4.8,-3.2 -9.9,-6 -15,-8.5 -6.8,-2.5 -13.9,-4.4 -21,-5.7 -7,-0.6 -14,-0.8 -21,-0.9 h -4.6 c -9.8,0 -19.6,0.4 -29.3,0.4 h -318 c -7.7,0 -15.6,-0.2 -23.4,-0.2 h -0.1 c -1.1,0 -2.3,0 -3.5,0 -6.5,0 -13,0.2 -19.4,0.7 -7.1,1.3 -14.1,3.2 -20.9,5.7 -5.2,2.5 -10.2,5.3 -15,8.5 -1,0.7 -2,1.4 -3,2.1 -2.7,2.3 -5.3,4.6 -7.8,7.2 -2.5,2.5 -4.8,5.2 -7.2,7.8 -0.7,1 -1.4,2 -2.1,3 -3.1,4.8 -5.9,9.7 -8.4,14.9 -2.5,6.8 -4.4,13.7 -5.8,20.8 -0.3,3.4 -0.4,6.9 -0.5,10.3 0,0.2 0,0.4 0,0.6 -0.1,3.9 -0.1,7.8 0,11.7 v 0.5 c 0,2.8 0,5.6 0,8.4 v 115.5 c 0,16.6 -0.9,33.5 -0.7,50.4 v 0.1 c 0.1,8.2 0.4,16.3 1.2,24.3 v 0.1 c 1.4,7.2 3.3,14.2 5.8,21.1 2.5,5.1 5.2,10.1 8.4,14.9 0.7,1.1 1.4,2.1 2.1,3.1 2.3,2.6 4.6,5.2 7.1,7.7 2.5,2.5 5.2,4.8 7.8,7.1 1,0.7 2,1.4 3,2.1 4.9,3.2 10,6 15.2,8.5 6.8,2.4 13.7,4.3 20.8,5.6 0,0 0,0 0,0 6.9,0.6 13.9,0.8 20.9,0.8 h 0.6 c 1.3,0 2.6,0 4,0 9.9,0 19.7,-0.4 29.4,-0.4 h 317.8 c 7.7,0 15.5,0.2 23.4,0.2 h 4.8 c 6.1,0 12.1,-0.2 18.1,-0.7 0,0 0,0 0,0 7.1,-1.3 14,-3.2 20.7,-5.6 5.2,-2.5 10.3,-5.3 15.2,-8.5 1.1,-0.7 2.1,-1.4 3.2,-2.2 2.6,-2.3 5.2,-4.6 7.7,-7 2.5,-2.5 4.8,-5.1 7.1,-7.8 0.7,-1 1.4,-2 2.1,-3.1 3.2,-4.8 6,-9.9 8.5,-15.1 2.5,-6.8 4.4,-13.7 5.7,-20.8 0.3,-3.7 0.5,-7.3 0.5,-11 0,-3.8 0.5,-7.5 1.4,-11 2.1,-8.3 6.5,-15.7 12.4,-21.4 7.8,-7.5 18.3,-12.4 29.8,-13.3 0.5,0 1.1,-0.1 1.6,-0.1 v 0 c 0.2,0 0.4,0 0.5,0 1.3,-0.1 2.7,0 4,0 23.2,1.7 42.3,23.4 42.1,46 z"
             class="st2"
             id="XMLID_798_" />
        </g>
      </g>
      <path
         id="XMLID_752_"
         class="st2"
         d="m 161.2827,1005.8628 c -1.86316,2.0325 -4.42802,3.0488 -7.04127,3.1698 -3.14558,0.1451 -6.36376,-0.9679 -8.61407,-3.1698 -0.79849,-0.7985 -1.64538,-1.5244 -2.49226,-2.2745 -0.36295,-0.242 -0.70171,-0.484 -1.06466,-0.7259 -1.45181,-0.9679 -2.97621,-1.7906 -4.52481,-2.5407 -2.12931,-0.79847 -4.30702,-1.37921 -6.55732,-1.79054 -0.94367,-0.0968 -1.88736,-0.12096 -2.83103,-0.14526 -1.30663,-0.0241 -2.63745,0.0243 -3.94408,0.14526 -2.2261,0.38714 -4.42802,0.99207 -6.55733,1.79054 -1.57279,0.7501 -3.073,1.5728 -4.52481,2.5407 -0.36295,0.2419 -0.7259,0.5081 -1.08885,0.7501 -0.84688,0.7017 -1.66957,1.4518 -2.46807,2.2503 -2.03253,2.0083 -4.57319,3.0246 -7.13806,3.1456 -3.024598,0.1452 -6.121786,-0.9437 -8.541472,-3.1456 -4.379616,-4.0167 -4.13766,-11.59028 0,-15.67954 6.266972,-6.19437 14.130932,-10.57401 22.624002,-12.63072 v -14.71166 c 0,-6.21858 5.08133,-10.81598 11.08215,-11.08215 0.33874,-0.0241 0.65331,0 0.96786,0 5.54107,0.33876 10.11427,5.58947 10.11427,11.08215 v 14.71166 c 8.49307,2.05671 16.35703,6.43635 22.624,12.63072 4.40383,4.35543 4.01667,11.27574 -0.0241,15.67954 z"
         inkscape:connector-curvature="0"
         style="fill:#ffffff;fill-opacity:1;stroke-width:0.24196801" />
    </g>
  </g>
</svg>
