<?xml version="1.0" encoding="UTF-8" standalone="no"?>
<!-- Created with Inkscape (http://www.inkscape.org/) -->

<svg
   xmlns:dc="http://purl.org/dc/elements/1.1/"
   xmlns:cc="http://creativecommons.org/ns#"
   xmlns:rdf="http://www.w3.org/1999/02/22-rdf-syntax-ns#"
   xmlns:svg="http://www.w3.org/2000/svg"
   xmlns="http://www.w3.org/2000/svg"
   xmlns:sodipodi="http://sodipodi.sourceforge.net/DTD/sodipodi-0.dtd"
   xmlns:inkscape="http://www.inkscape.org/namespaces/inkscape"
   width="256"
   height="256"
   viewBox="0 0 256 256"
   id="svg2"
   version="1.1"
   inkscape:version="0.92.4 (unknown)"
   sodipodi:docname="darktable.svg">
  <sodipodi:namedview
     id="base"
     pagecolor="#ffffff"
     bordercolor="#666666"
     borderopacity="1.0"
     inkscape:pageopacity="0.0"
     inkscape:pageshadow="2"
     inkscape:zoom="2.9789614"
     inkscape:cx="55.491508"
     inkscape:cy="128"
     inkscape:document-units="px"
     inkscape:current-layer="layer1"
     showgrid="true"
     units="px"
     inkscape:window-width="1920"
     inkscape:window-height="1048"
     inkscape:window-x="0"
     inkscape:window-y="0"
     inkscape:window-maximized="1"
     inkscape:document-rotation="0">
    <inkscape:grid
       spacingy="5"
       spacingx="5"
       id="grid4168"
       type="xygrid" />
  </sodipodi:namedview>
  <defs
     id="defs4">
    <clipPath
       id="clipPath5002"
       clipPathUnits="userSpaceOnUse">
      <g
         id="g5004">
        <path
           style="fill:#0f9d58;fill-opacity:1;stroke:none;stroke-width:4.85768509;stroke-linejoin:round;stroke-miterlimit:4;stroke-dasharray:none;stroke-opacity:1"
           d="M 88.118406,249.43519 C 46.103287,235.29134 14.771284,201.68742 4.1335861,159.36053 1.3377997,148.23623 0.92261224,144.16281 0.92582381,127.88908 0.92787958,117.47222 1.134384,112.01362 1.6577819,108.54099 4.4653598,89.913336 12.17654,70.638106 23.042737,55.086148 c 3.958678,-5.665755 8.344812,-10.93092 9.101533,-10.925587 0.32809,0.0023 10.488643,18.309713 22.579009,40.683112 12.090365,22.373397 22.374546,41.334697 22.853732,42.136217 0.479186,0.80151 0.924733,2.44098 0.990103,3.64326 0.343424,6.31639 2.524175,14.20976 5.6424,20.42304 2.954444,5.88693 5.065381,8.73258 10.434696,14.06652 6.71418,6.66995 12.88853,10.28643 21.73204,12.72904 3.16587,0.87442 5.10478,1.05037 11.57517,1.05037 8.82596,0 12.60219,-0.76201 19.26429,-3.88733 2.04584,-0.95974 3.93661,-1.66536 4.20172,-1.56805 0.2651,0.0973 -11.0555,17.66459 -25.1569,39.0384 l -25.6389,38.86148 -3.094121,0.11221 c -2.554618,0.0927 -4.195204,-0.25845 -9.409103,-2.01364 z"
           id="path5006"
           inkscape:connector-curvature="0"
           transform="translate(0,796.36216)" />
        <path
           style="fill:#f4b400;fill-opacity:1;stroke:none;stroke-width:4.85768509;stroke-linejoin:round;stroke-miterlimit:4;stroke-dasharray:none;stroke-opacity:1"
           d="m 112.35984,1051.5167 c -10.0014,-1.4495 -12.15632,-1.8201 -12.531784,-2.1556 -0.248854,-0.2223 1.738304,-3.7475 4.550294,-8.0722 7.16635,-11.0213 49.77231,-74.64801 50.25856,-75.05489 3.57509,-2.99158 8.63523,-8.0414 10.57512,-10.55356 3.36154,-4.35318 7.55784,-12.9141 9.06523,-18.494 6.19314,-22.92535 -2.59253,-47.15185 -21.69967,-59.83688 l -2.96081,-1.96565 17.02469,0.29584 c 9.36358,0.1627 31.17032,0.43384 48.45941,0.60252 l 31.43471,0.30668 1.54584,4.18869 c 2.24597,6.08579 4.67816,15.0947 5.93451,21.9816 1.52517,8.36049 1.92536,28.85896 0.73851,37.82758 -3.0805,23.27845 -12.81326,45.72018 -27.80202,64.10577 -20.47622,25.1166 -51.4599,42.1974 -84.14612,46.3885 -5.31244,0.6812 -26.64601,0.9864 -30.44647,0.4356 z"
           id="path5008"
           inkscape:connector-curvature="0" />
        <path
           style="fill:#db4437;fill-opacity:1;stroke:none;stroke-width:10;stroke-linejoin:round;stroke-miterlimit:4;stroke-dasharray:none;stroke-opacity:1"
           d="M 67.989788,108.87302 C 41.284246,59.575543 33.290284,45.149038 32.233625,44.344765 31.651257,43.901497 32.811213,42.549931 38.695603,36.815353 53.43581,22.450419 68.809334,13.040746 87.839196,6.7360352 101.68742,2.1480329 112.58238,0.43719165 127.95142,0.43719165 c 21.3099,0 37.80488,3.80960275 56.83492,13.12633035 25.29351,12.383198 46.19421,33.578863 58.51993,59.345832 1.61138,3.368591 2.92978,6.372442 2.92978,6.675231 0,0.560033 -10.54865,0.49527 -71.16508,-0.436914 l -24.28843,-0.373518 -3.93063,-1.764495 c -6.75732,-3.033425 -10.64587,-3.839529 -18.6576,-3.867747 -5.0296,-0.01773 -7.97946,0.207636 -10.31642,0.788106 -14.50826,3.603659 -26.283291,12.94777 -33.291614,26.418653 -3.58502,6.89086 -5.24713,13.08166 -6.331628,23.58317 l -0.33738,3.26696 -9.92748,-18.32578 z"
           id="path5010"
           inkscape:connector-curvature="0"
           transform="translate(0,796.36216)" />
      </g>
    </clipPath>
    <clipPath
       clipPathUnits="userSpaceOnUse"
       id="clipPath4271">
      <circle
         style="fill:#292929;fill-opacity:0.26020412;stroke:none;stroke-width:10;stroke-linejoin:round;stroke-miterlimit:4;stroke-dasharray:none;stroke-opacity:0.25882353"
         id="circle4273"
         cx="128"
         cy="128.00002"
         r="128" />
    </clipPath>
    <clipPath
       id="clipPath4363"
       clipPathUnits="userSpaceOnUse">
      <circle
         style="fill:#4285f4;fill-opacity:1;stroke:none;stroke-width:10;stroke-linejoin:round;stroke-miterlimit:4;stroke-dasharray:none;stroke-opacity:0.25882353"
         id="circle4365"
         cx="128"
         cy="924.36218"
         r="128" />
    </clipPath>
    <clipPath
       clipPathUnits="userSpaceOnUse"
       id="clipPath4452">
      <circle
         style="fill:#4285f4;fill-opacity:1;stroke:none;stroke-width:10;stroke-linejoin:round;stroke-miterlimit:4;stroke-dasharray:none;stroke-opacity:0.25882353"
         id="circle4454"
         cx="128"
         cy="924.36218"
         r="128" />
    </clipPath>
    <clipPath
       id="clipPath4368"
       clipPathUnits="userSpaceOnUse">
      <circle
         style="fill:#b0ceff;fill-opacity:1;stroke:none;stroke-width:10;stroke-linejoin:round;stroke-miterlimit:4;stroke-dasharray:none;stroke-opacity:0.25882353"
         id="circle4370"
         cx="128"
         cy="924.36218"
         r="128" />
    </clipPath>
    <clipPath
       id="clipPath-284952804">
      <g
         id="g5628"
         transform="translate(0,-1004.3622)">
        <path
           id="path5630"
           transform="matrix(15.333333,0,0,11.5,414.99999,878.8622)"
           d="m -24,13 c 0,1.105 -0.672,2 -1.5,2 -0.828,0 -1.5,-0.895 -1.5,-2 0,-1.105 0.672,-2 1.5,-2 0.828,0 1.5,0.895 1.5,2 z"
           inkscape:connector-curvature="0"
           style="fill:#1890d0" />
      </g>
    </clipPath>
    <clipPath
       clipPathUnits="userSpaceOnUse"
       id="clipPath4286">
      <circle
         style="fill:#00c3ff;fill-opacity:1;stroke:none;stroke-width:10;stroke-linejoin:round;stroke-miterlimit:4;stroke-dasharray:none;stroke-opacity:0.25882353"
         id="circle4288"
         cx="128"
         cy="128.00002"
         r="128" />
    </clipPath>
    <clipPath
       id="clipPath4263"
       clipPathUnits="userSpaceOnUse">
      <circle
         transform="matrix(0.98480775,-0.17364818,0.17364818,0.98480775,0,0)"
         style="fill:#00c3ff;fill-opacity:1;stroke:none;stroke-width:10;stroke-linejoin:round;stroke-miterlimit:4;stroke-dasharray:none;stroke-opacity:0.25882353"
         id="circle4265"
         cx="-34.452808"
         cy="932.54675"
         r="128" />
    </clipPath>
    <clipPath
       id="clipPath4608"
       clipPathUnits="userSpaceOnUse">
      <circle
         style="fill:#00c3ff;fill-opacity:1;stroke:none;stroke-width:10;stroke-linejoin:round;stroke-miterlimit:4;stroke-dasharray:none;stroke-opacity:0.25882353"
         id="circle4610"
         cx="154.80824"
         cy="944.67395"
         r="67.351463" />
    </clipPath>
    <clipPath
       clipPathUnits="userSpaceOnUse"
       id="clipPath5376">
      <circle
         style="fill:#fdac64;fill-opacity:1;stroke:none;stroke-width:10;stroke-linejoin:round;stroke-miterlimit:4;stroke-dasharray:none;stroke-opacity:0.25882353"
         id="circle5378"
         cx="128"
         cy="924.36218"
         r="128" />
    </clipPath>
    <clipPath
       id="clipPath4615"
       clipPathUnits="userSpaceOnUse">
      <circle
         style="fill:#ff973b;fill-opacity:1;stroke:none;stroke-width:10;stroke-linejoin:round;stroke-miterlimit:4;stroke-dasharray:none;stroke-opacity:0.25882353"
         id="circle4617"
         cx="128"
         cy="924.36218"
         r="128" />
    </clipPath>
    <clipPath
       id="clipPath4637"
       clipPathUnits="userSpaceOnUse">
      <circle
         style="fill:#ff973b;fill-opacity:1;stroke:none;stroke-width:10;stroke-linejoin:round;stroke-miterlimit:4;stroke-dasharray:none;stroke-opacity:0.25882353"
         id="circle4639"
         cx="128"
         cy="924.36218"
         r="128" />
    </clipPath>
    <clipPath
       id="clipPath4643"
       clipPathUnits="userSpaceOnUse">
      <circle
         style="fill:#ff973b;fill-opacity:1;stroke:none;stroke-width:10;stroke-linejoin:round;stroke-miterlimit:4;stroke-dasharray:none;stroke-opacity:0.25882353"
         id="circle4645"
         cx="128"
         cy="924.36218"
         r="128" />
    </clipPath>
    <clipPath
       id="clipPath4647"
       clipPathUnits="userSpaceOnUse">
      <circle
         style="fill:#ff973b;fill-opacity:1;stroke:none;stroke-width:10;stroke-linejoin:round;stroke-miterlimit:4;stroke-dasharray:none;stroke-opacity:0.25882353"
         id="circle4649"
         cx="128"
         cy="924.36218"
         r="128" />
    </clipPath>
    <clipPath
       id="clipPath4651"
       clipPathUnits="userSpaceOnUse">
      <circle
         style="fill:#ff973b;fill-opacity:1;stroke:none;stroke-width:10;stroke-linejoin:round;stroke-miterlimit:4;stroke-dasharray:none;stroke-opacity:0.25882353"
         id="circle4653"
         cx="128"
         cy="924.36218"
         r="128" />
    </clipPath>
    <clipPath
       id="clipPath4715"
       clipPathUnits="userSpaceOnUse">
      <g
         id="g4729">
        <path
           inkscape:connector-curvature="0"
           id="path4717"
           transform="translate(0,796.36216)"
           d="M 128,0 A 128,128 0 0 0 64.773438,16.888672 L 128.34766,127 191.77148,17.144531 A 128,128 0 0 0 128,0 Z"
           style="fill:#d6061c;fill-opacity:1;stroke:none;stroke-width:10;stroke-linejoin:round;stroke-miterlimit:4;stroke-dasharray:none;stroke-opacity:0.25882353" />
        <path
           inkscape:connector-curvature="0"
           id="path4719"
           transform="translate(0,796.36216)"
           d="M 63.904297,17.386719 A 128,128 0 0 0 0.0390625,127.19922 H 127.30469 Z"
           style="fill:#c916c9;fill-opacity:1;stroke:none;stroke-width:10;stroke-linejoin:round;stroke-miterlimit:4;stroke-dasharray:none;stroke-opacity:0.25882353" />
        <path
           inkscape:connector-curvature="0"
           id="path4721"
           transform="translate(0,796.36216)"
           d="M 192.62305,17.666016 129.03711,127.79883 H 255.99219 A 128,128 0 0 0 192.62305,17.666016 Z"
           style="fill:#f97411;fill-opacity:1;stroke:none;stroke-width:10;stroke-linejoin:round;stroke-miterlimit:4;stroke-dasharray:none;stroke-opacity:0.25882353" />
        <path
           inkscape:connector-curvature="0"
           id="path4723"
           transform="translate(0,796.36216)"
           d="M 0.0078125,128.19922 A 128,128 0 0 0 63.375,238.33203 l 63.58398,-110.13281 z"
           style="fill:#1d7be6;fill-opacity:1;stroke:none;stroke-width:10;stroke-linejoin:round;stroke-miterlimit:4;stroke-dasharray:none;stroke-opacity:0.25882353" />
        <path
           inkscape:connector-curvature="0"
           id="path4725"
           transform="translate(0,796.36216)"
           d="m 128.69141,128.79883 63.40039,109.8164 a 128,128 0 0 0 63.86914,-109.8164 z"
           style="fill:#f0e32a;fill-opacity:1;stroke:none;stroke-width:10;stroke-linejoin:round;stroke-miterlimit:4;stroke-dasharray:none;stroke-opacity:0.25882353" />
        <path
           inkscape:connector-curvature="0"
           id="path4727"
           transform="translate(0,796.36216)"
           d="M 127.65234,129 64.228516,238.85547 A 128,128 0 0 0 128,256 128,128 0 0 0 191.22461,239.11133 Z"
           style="fill:#25aa23;fill-opacity:1;stroke:none;stroke-width:10;stroke-linejoin:round;stroke-miterlimit:4;stroke-dasharray:none;stroke-opacity:0.25882353" />
      </g>
    </clipPath>
    <clipPath
       clipPathUnits="userSpaceOnUse"
       id="clipPath3982">
      <g
         id="g3996"
         transform="translate(-1.25e-6)">
        <path
           id="path3984"
           transform="translate(0,796.36216)"
           d="M 128,0 A 128,128 0 0 0 64.773438,16.888672 L 128.34766,127 191.77148,17.144531 A 128,128 0 0 0 128,0 Z"
           style="fill:#d6061c;fill-opacity:1;stroke:none;stroke-width:10;stroke-linejoin:round;stroke-miterlimit:4;stroke-dasharray:none;stroke-opacity:0.25882353"
           inkscape:connector-curvature="0" />
        <path
           id="path3986"
           transform="translate(0,796.36216)"
           d="M 63.904297,17.386719 A 128,128 0 0 0 0.0390625,127.19922 H 127.30469 Z"
           style="fill:#c916c9;fill-opacity:1;stroke:none;stroke-width:10;stroke-linejoin:round;stroke-miterlimit:4;stroke-dasharray:none;stroke-opacity:0.25882353"
           inkscape:connector-curvature="0" />
        <path
           id="path3988"
           transform="translate(0,796.36216)"
           d="M 192.62305,17.666016 129.03711,127.79883 H 255.99219 A 128,128 0 0 0 192.62305,17.666016 Z"
           style="fill:#f97411;fill-opacity:1;stroke:none;stroke-width:10;stroke-linejoin:round;stroke-miterlimit:4;stroke-dasharray:none;stroke-opacity:0.25882353"
           inkscape:connector-curvature="0" />
        <path
           id="path3990"
           transform="translate(0,796.36216)"
           d="M 0.0078125,128.19922 A 128,128 0 0 0 63.375,238.33203 l 63.58398,-110.13281 z"
           style="fill:#1d7be6;fill-opacity:1;stroke:none;stroke-width:10;stroke-linejoin:round;stroke-miterlimit:4;stroke-dasharray:none;stroke-opacity:0.25882353"
           inkscape:connector-curvature="0" />
        <path
           id="path3992"
           transform="translate(0,796.36216)"
           d="m 128.69141,128.79883 63.40039,109.8164 a 128,128 0 0 0 63.86914,-109.8164 z"
           style="fill:#f0e32a;fill-opacity:1;stroke:none;stroke-width:10;stroke-linejoin:round;stroke-miterlimit:4;stroke-dasharray:none;stroke-opacity:0.25882353"
           inkscape:connector-curvature="0" />
        <path
           id="path3994"
           transform="translate(0,796.36216)"
           d="M 127.65234,129 64.228516,238.85547 A 128,128 0 0 0 128,256 128,128 0 0 0 191.22461,239.11133 Z"
           style="fill:#25aa23;fill-opacity:1;stroke:none;stroke-width:10;stroke-linejoin:round;stroke-miterlimit:4;stroke-dasharray:none;stroke-opacity:0.25882353"
           inkscape:connector-curvature="0" />
      </g>
    </clipPath>
    <clipPath
       clipPathUnits="userSpaceOnUse"
       id="clipPath4827">
      <circle
         style="fill:#0f0f0f;fill-opacity:1;stroke:none;stroke-width:73.90083313;stroke-miterlimit:4;stroke-dasharray:none;stroke-opacity:1"
         id="circle4829"
         cx="136"
         cy="921.36218"
         r="128" />
    </clipPath>
    <clipPath
       clipPathUnits="userSpaceOnUse"
       id="clipPath5288">
      <circle
         style="fill:#7d7d7d;fill-opacity:0.56730772;stroke:none;stroke-width:7.31428528;stroke-opacity:1"
         id="circle5290"
         cx="128"
         cy="924.36218"
         r="128" />
    </clipPath>
    <linearGradient
       id="linearGradient4163">
      <stop
         style="stop-color:#ff7004;stop-opacity:1;"
         offset="0"
         id="stop4165" />
      <stop
         style="stop-color:#ba4704;stop-opacity:1;"
         offset="1"
         id="stop4167" />
    </linearGradient>
    <linearGradient
       id="linearGradient4105">
      <stop
         style="stop-color:#f7f10e;stop-opacity:1;"
         offset="0"
         id="stop4107" />
      <stop
         style="stop-color:#c58907;stop-opacity:1;"
         offset="1"
         id="stop4109" />
    </linearGradient>
    <linearGradient
       id="linearGradient4123">
      <stop
         style="stop-color:#17b414;stop-opacity:1;"
         offset="0"
         id="stop4125" />
      <stop
         style="stop-color:#176314;stop-opacity:1;"
         offset="1"
         id="stop4127" />
    </linearGradient>
    <linearGradient
       id="linearGradient4133">
      <stop
         style="stop-color:#1476e6;stop-opacity:1;"
         offset="0"
         id="stop4135" />
      <stop
         style="stop-color:#143e9a;stop-opacity:1;"
         offset="1"
         id="stop4137" />
    </linearGradient>
    <linearGradient
       id="linearGradient4143">
      <stop
         style="stop-color:#d000d0;stop-opacity:1;"
         offset="0"
         id="stop4145" />
      <stop
         style="stop-color:#760076;stop-opacity:1;"
         offset="1"
         id="stop4147" />
    </linearGradient>
    <linearGradient
       id="linearGradient4153">
      <stop
         style="stop-color:#d70016;stop-opacity:1;"
         offset="0"
         id="stop4155" />
      <stop
         style="stop-color:#8d0016;stop-opacity:1;"
         offset="1"
         id="stop4157" />
    </linearGradient>
    <clipPath
       clipPathUnits="userSpaceOnUse"
       id="clipPath4668">
      <circle
         style="fill:#0f0f0f;fill-opacity:1;stroke:none;stroke-width:127.72316742;stroke-miterlimit:4;stroke-dasharray:none;stroke-opacity:1"
         id="circle4670"
         cx="256"
         cy="256.00003"
         r="221.22302" />
    </clipPath>
    <linearGradient
       id="linearGradient4206">
      <stop
         style="stop-color:#ffffff;stop-opacity:1;"
         offset="0"
         id="stop4208" />
      <stop
         style="stop-color:#b0b0b0;stop-opacity:1;"
         offset="1"
         id="stop4210" />
    </linearGradient>
    <clipPath
       clipPathUnits="userSpaceOnUse"
       id="clipPath4632">
      <circle
         style="fill:#0f0f0f;fill-opacity:1;stroke:none;stroke-width:73.90083313;stroke-miterlimit:4;stroke-dasharray:none;stroke-opacity:1"
         id="circle4634"
         cx="128"
         cy="924.36218"
         r="128" />
    </clipPath>
    <clipPath
       clipPathUnits="userSpaceOnUse"
       id="clipPath4632-9">
      <circle
         style="fill:#0f0f0f;fill-opacity:1;stroke:none;stroke-width:73.90083313;stroke-miterlimit:4;stroke-dasharray:none;stroke-opacity:1"
         id="circle4634-4"
         cx="128"
         cy="924.36218"
         r="128" />
    </clipPath>
    <clipPath
       clipPathUnits="userSpaceOnUse"
       id="clipPath4632-9-0">
      <circle
         style="fill:#0f0f0f;fill-opacity:1;stroke:none;stroke-width:73.90083313;stroke-miterlimit:4;stroke-dasharray:none;stroke-opacity:1"
         id="circle4634-4-8"
         cx="128"
         cy="924.36218"
         r="128" />
    </clipPath>
    <clipPath
       clipPathUnits="userSpaceOnUse"
       id="clipPath1013">
      <circle
         r="128"
         cy="924.36218"
         cx="128"
         id="circle1015"
         style="fill:#4a4a4a;fill-opacity:1;stroke-width:2.22608685" />
    </clipPath>
    <clipPath
       clipPathUnits="userSpaceOnUse"
       id="clipPath1027">
      <circle
         r="128"
         cy="924.36218"
         cx="128"
         id="circle1029"
         style="fill:#4a4a4a;fill-opacity:1;stroke-width:2.22608685" />
    </clipPath>
    <clipPath
       clipPathUnits="userSpaceOnUse"
       id="clipPath1031">
      <circle
         style="fill:#4a4a4a;fill-opacity:1;stroke-width:2.22608685"
         id="circle1033"
         cx="128"
         cy="924.36218"
         r="128" />
    </clipPath>
    <clipPath
       clipPathUnits="userSpaceOnUse"
       id="clipPath1035">
      <circle
         r="128"
         cy="924.36218"
         cx="128"
         id="circle1037"
         style="fill:#4a4a4a;fill-opacity:1;stroke-width:2.22608685" />
    </clipPath>
    <clipPath
       clipPathUnits="userSpaceOnUse"
       id="clipPath1039">
      <circle
         style="fill:#4a4a4a;fill-opacity:1;stroke-width:2.22608685"
         id="circle1041"
         cx="128"
         cy="924.36218"
         r="128" />
    </clipPath>
    <clipPath
       clipPathUnits="userSpaceOnUse"
       id="clipPath1043">
      <circle
         r="128"
         cy="924.36218"
         cx="128"
         id="circle1045"
         style="fill:#4a4a4a;fill-opacity:1;stroke-width:2.22608685" />
    </clipPath>
  </defs>
  <metadata
     id="metadata7">
    <rdf:RDF>
      <cc:Work
         rdf:about="">
        <dc:format>image/svg+xml</dc:format>
        <dc:type
           rdf:resource="http://purl.org/dc/dcmitype/StillImage" />
        <dc:title />
      </cc:Work>
    </rdf:RDF>
  </metadata>
  <g
     inkscape:label="Layer 1"
     inkscape:groupmode="layer"
     id="layer1"
     transform="translate(0,-796.36216)">
    <path
       d="m 256,-924.36218 a 128,128 0 0 1 -64,110.85125 128,128 0 0 1 -128.000003,0 A 128,128 0 0 1 0,-924.36219 l 128,1e-5 z"
       sodipodi:end="3.1415927"
       sodipodi:start="0"
       sodipodi:ry="128"
       sodipodi:rx="128"
       sodipodi:cy="-924.36218"
       sodipodi:cx="128"
       sodipodi:type="arc"
       id="path916"
       style="fill:#2e2e2e;fill-opacity:1;stroke-width:2.22608685"
       transform="scale(1,-1)" />
    <path
       style="fill:#666666;fill-opacity:1;stroke-width:2.22608685"
       id="path953"
       sodipodi:type="arc"
       sodipodi:cx="128"
       sodipodi:cy="924.36218"
       sodipodi:rx="128"
       sodipodi:ry="128"
       sodipodi:start="0"
       sodipodi:end="3.1415927"
       d="m 256,924.36218 a 128,128 0 0 1 -64,110.85122 128,128 0 0 1 -128.000003,0 A 128,128 0 0 1 0,924.36218 l 128,0 z" />
    <circle
       cy="924.36218"
       cx="128"
       style="display:inline;fill:#ffffff;fill-opacity:1;stroke:none;stroke-width:0.859375"
       id="path4204"
       r="27.5" />
    <path
       style="display:inline;fill:#ff7004;fill-opacity:1;fill-rule:nonzero;stroke:none;stroke-width:0.60858524"
       d="M 153.06836 2.4960938 L 122.96875 88.183594 L 241.13672 68.302734 A 128 128 0 0 0 153.06836 2.4960938 z "
       transform="translate(0,796.36216)"
       id="path3902" />
    <path
       style="display:inline;fill:#f7f10e;fill-opacity:1;fill-rule:nonzero;stroke:none;stroke-width:0.60858524"
       d="M 249.08398 86.984375 L 159.9668 103.73438 L 236.21875 196.07227 A 128 128 0 0 0 256 128 A 128 128 0 0 0 249.08398 86.984375 z "
       transform="translate(0,796.36216)"
       id="path3905" />
    <path
       style="display:inline;fill:#17b414;fill-opacity:1;fill-rule:nonzero;stroke:none;stroke-width:0.60858524"
       d="M 164.99805 143.55273 L 123.1582 255.75781 A 128 128 0 0 0 128 256 A 128 128 0 0 0 224.09766 212.39453 L 164.99805 143.55273 z "
       transform="translate(0,796.36216)"
       id="path3909" />
    <path
       style="display:inline;fill:#1476e6;fill-opacity:1;fill-rule:nonzero;stroke:none;stroke-width:0.60858524"
       d="M 133.03125 167.81641 L 14.863281 187.69727 A 128 128 0 0 0 102.93164 253.50391 L 133.03125 167.81641 z "
       transform="translate(0,796.36216)"
       id="path3913" />
    <path
       style="display:inline;fill:#d000d0;fill-opacity:1;fill-rule:nonzero;stroke:none;stroke-width:0.60858524"
       d="M 19.78125 59.927734 A 128 128 0 0 0 0 128 A 128 128 0 0 0 6.9160156 169.01562 L 96.033203 152.26562 L 19.78125 59.927734 z "
       transform="translate(0,796.36216)"
       id="path3917" />
    <path
       style="display:inline;fill:#d70016;fill-opacity:1;fill-rule:nonzero;stroke:none;stroke-width:0.60858524"
       d="M 128 0 A 128 128 0 0 0 31.902344 43.605469 L 91.001953 112.44727 L 132.8418 0.2421875 A 128 128 0 0 0 128 0 z "
       transform="translate(0,796.36216)"
       id="path3921" />
  </g>
</svg>
