<?xml version="1.0" encoding="UTF-8" standalone="no"?>
<!-- Created with Inkscape (http://www.inkscape.org/) -->

<svg
   xmlns:dc="http://purl.org/dc/elements/1.1/"
   xmlns:cc="http://creativecommons.org/ns#"
   xmlns:rdf="http://www.w3.org/1999/02/22-rdf-syntax-ns#"
   xmlns:svg="http://www.w3.org/2000/svg"
   xmlns="http://www.w3.org/2000/svg"
   xmlns:sodipodi="http://sodipodi.sourceforge.net/DTD/sodipodi-0.dtd"
   xmlns:inkscape="http://www.inkscape.org/namespaces/inkscape"
   sodipodi:docname="dbeaver.svg"
   inkscape:version="0.92.3 (2405546, 2018-03-11)"
   version="1.1"
   id="svg2"
   viewBox="0 0 256 256"
   height="256"
   width="256">
  <sodipodi:namedview
     inkscape:window-maximized="1"
     inkscape:window-y="0"
     inkscape:window-x="0"
     inkscape:window-height="1048"
     inkscape:window-width="1920"
     units="px"
     showgrid="true"
     inkscape:current-layer="layer1"
     inkscape:document-units="px"
     inkscape:cy="155.68371"
     inkscape:cx="45.9907"
     inkscape:zoom="2.7234698"
     inkscape:pageshadow="2"
     inkscape:pageopacity="0.0"
     borderopacity="1.0"
     bordercolor="#666666"
     pagecolor="#ffffff"
     id="base"
     inkscape:document-rotation="0" />
  <defs
     id="defs4">
    <clipPath
       clipPathUnits="userSpaceOnUse"
       id="clipPath5002">
      <g
         id="g5004">
        <path
           transform="translate(0,796.36216)"
           inkscape:connector-curvature="0"
           id="path5006"
           d="M 88.118406,249.43519 C 46.103287,235.29134 14.771284,201.68742 4.1335861,159.36053 1.3377997,148.23623 0.92261224,144.16281 0.92582381,127.88908 0.92787958,117.47222 1.134384,112.01362 1.6577819,108.54099 4.4653598,89.913336 12.17654,70.638106 23.042737,55.086148 c 3.958678,-5.665755 8.344812,-10.93092 9.101533,-10.925587 0.32809,0.0023 10.488643,18.309713 22.579009,40.683112 12.090365,22.373397 22.374546,41.334697 22.853732,42.136217 0.479186,0.80151 0.924733,2.44098 0.990103,3.64326 0.343424,6.31639 2.524175,14.20976 5.6424,20.42304 2.954444,5.88693 5.065381,8.73258 10.434696,14.06652 6.71418,6.66995 12.88853,10.28643 21.73204,12.72904 3.16587,0.87442 5.10478,1.05037 11.57517,1.05037 8.82596,0 12.60219,-0.76201 19.26429,-3.88733 2.04584,-0.95974 3.93661,-1.66536 4.20172,-1.56805 0.2651,0.0973 -11.0555,17.66459 -25.1569,39.0384 l -25.6389,38.86148 -3.094121,0.11221 c -2.554618,0.0927 -4.195204,-0.25845 -9.409103,-2.01364 z"
           style="fill:#0f9d58;fill-opacity:1;stroke:none;stroke-width:4.85768509;stroke-linejoin:round;stroke-miterlimit:4;stroke-dasharray:none;stroke-opacity:1" />
        <path
           inkscape:connector-curvature="0"
           id="path5008"
           d="m 112.35984,1051.5167 c -10.0014,-1.4495 -12.15632,-1.8201 -12.531784,-2.1556 -0.248854,-0.2223 1.738304,-3.7475 4.550294,-8.0722 7.16635,-11.0213 49.77231,-74.64801 50.25856,-75.05489 3.57509,-2.99158 8.63523,-8.0414 10.57512,-10.55356 3.36154,-4.35318 7.55784,-12.9141 9.06523,-18.494 6.19314,-22.92535 -2.59253,-47.15185 -21.69967,-59.83688 l -2.96081,-1.96565 17.02469,0.29584 c 9.36358,0.1627 31.17032,0.43384 48.45941,0.60252 l 31.43471,0.30668 1.54584,4.18869 c 2.24597,6.08579 4.67816,15.0947 5.93451,21.9816 1.52517,8.36049 1.92536,28.85896 0.73851,37.82758 -3.0805,23.27845 -12.81326,45.72018 -27.80202,64.10577 -20.47622,25.1166 -51.4599,42.1974 -84.14612,46.3885 -5.31244,0.6812 -26.64601,0.9864 -30.44647,0.4356 z"
           style="fill:#f4b400;fill-opacity:1;stroke:none;stroke-width:4.85768509;stroke-linejoin:round;stroke-miterlimit:4;stroke-dasharray:none;stroke-opacity:1" />
        <path
           transform="translate(0,796.36216)"
           inkscape:connector-curvature="0"
           id="path5010"
           d="M 67.989788,108.87302 C 41.284246,59.575543 33.290284,45.149038 32.233625,44.344765 31.651257,43.901497 32.811213,42.549931 38.695603,36.815353 53.43581,22.450419 68.809334,13.040746 87.839196,6.7360352 101.68742,2.1480329 112.58238,0.43719165 127.95142,0.43719165 c 21.3099,0 37.80488,3.80960275 56.83492,13.12633035 25.29351,12.383198 46.19421,33.578863 58.51993,59.345832 1.61138,3.368591 2.92978,6.372442 2.92978,6.675231 0,0.560033 -10.54865,0.49527 -71.16508,-0.436914 l -24.28843,-0.373518 -3.93063,-1.764495 c -6.75732,-3.033425 -10.64587,-3.839529 -18.6576,-3.867747 -5.0296,-0.01773 -7.97946,0.207636 -10.31642,0.788106 -14.50826,3.603659 -26.283291,12.94777 -33.291614,26.418653 -3.58502,6.89086 -5.24713,13.08166 -6.331628,23.58317 l -0.33738,3.26696 -9.92748,-18.32578 z"
           style="fill:#db4437;fill-opacity:1;stroke:none;stroke-width:10;stroke-linejoin:round;stroke-miterlimit:4;stroke-dasharray:none;stroke-opacity:1" />
      </g>
    </clipPath>
    <clipPath
       id="clipPath4271"
       clipPathUnits="userSpaceOnUse">
      <circle
         r="128"
         cy="128.00002"
         cx="128"
         id="circle4273"
         style="fill:#292929;fill-opacity:0.26020412;stroke:none;stroke-width:10;stroke-linejoin:round;stroke-miterlimit:4;stroke-dasharray:none;stroke-opacity:0.25882353" />
    </clipPath>
    <clipPath
       clipPathUnits="userSpaceOnUse"
       id="clipPath4363">
      <circle
         r="128"
         cy="924.36218"
         cx="128"
         id="circle4365"
         style="fill:#4285f4;fill-opacity:1;stroke:none;stroke-width:10;stroke-linejoin:round;stroke-miterlimit:4;stroke-dasharray:none;stroke-opacity:0.25882353" />
    </clipPath>
    <clipPath
       id="clipPath4452"
       clipPathUnits="userSpaceOnUse">
      <circle
         r="128"
         cy="924.36218"
         cx="128"
         id="circle4454"
         style="fill:#4285f4;fill-opacity:1;stroke:none;stroke-width:10;stroke-linejoin:round;stroke-miterlimit:4;stroke-dasharray:none;stroke-opacity:0.25882353" />
    </clipPath>
    <clipPath
       clipPathUnits="userSpaceOnUse"
       id="clipPath5177">
      <circle
         r="128"
         cy="924.36218"
         cx="128"
         id="circle5179"
         style="fill:#4285f4;fill-opacity:1;stroke:none;stroke-width:10;stroke-linejoin:round;stroke-miterlimit:4;stroke-dasharray:none;stroke-opacity:0.25882353" />
    </clipPath>
    <clipPath
       id="clipPath4342"
       clipPathUnits="userSpaceOnUse">
      <circle
         r="128"
         cy="933.48718"
         cx="128"
         id="circle4344"
         style="fill:#4285f4;fill-opacity:1;stroke:none;stroke-width:10;stroke-linejoin:round;stroke-miterlimit:4;stroke-dasharray:none;stroke-opacity:0.25882353" />
    </clipPath>
    <clipPath
       clipPathUnits="userSpaceOnUse"
       id="clipPath4681">
      <circle
         r="128"
         cy="930.43964"
         cx="127.00293"
         id="circle4683"
         style="fill:#9d5fad;fill-opacity:1;stroke:none;stroke-width:10;stroke-linejoin:round;stroke-miterlimit:4;stroke-dasharray:none;stroke-opacity:0.25882353" />
    </clipPath>
    <clipPath
       id="clipPath4235"
       clipPathUnits="userSpaceOnUse">
      <circle
         r="128"
         cy="924.36218"
         cx="128"
         id="circle4237"
         style="fill:#0f9d58;fill-opacity:1;stroke:none;stroke-width:10;stroke-linejoin:round;stroke-miterlimit:4;stroke-dasharray:none;stroke-opacity:0.25882353" />
    </clipPath>
    <clipPath
       clipPathUnits="userSpaceOnUse"
       id="clipPath4771">
      <circle
         r="128"
         cy="924.36218"
         cx="128"
         id="circle4773"
         style="fill:#0f9d58;fill-opacity:1;stroke:none;stroke-width:10;stroke-linejoin:round;stroke-miterlimit:4;stroke-dasharray:none;stroke-opacity:0.25882353" />
    </clipPath>
    <clipPath
       id="clipPath4842"
       clipPathUnits="userSpaceOnUse">
      <circle
         r="128"
         cy="924.36218"
         cx="128"
         id="circle4844"
         style="fill:#0f9d58;fill-opacity:1;stroke:none;stroke-width:10;stroke-linejoin:round;stroke-miterlimit:4;stroke-dasharray:none;stroke-opacity:0.25882353" />
    </clipPath>
    <clipPath
       clipPathUnits="userSpaceOnUse"
       id="clipPath4458">
      <circle
         r="128"
         cy="924.36218"
         cx="128"
         id="circle4460"
         style="fill:#ff3b38;fill-opacity:1;stroke:none;stroke-width:10;stroke-linejoin:round;stroke-miterlimit:4;stroke-dasharray:none;stroke-opacity:0.25882353" />
    </clipPath>
    <clipPath
       id="clipPath4783"
       clipPathUnits="userSpaceOnUse">
      <circle
         r="128"
         cy="924.36218"
         cx="128"
         id="circle4785"
         style="fill:#ff3b38;fill-opacity:1;stroke:none;stroke-width:10;stroke-linejoin:round;stroke-miterlimit:4;stroke-dasharray:none;stroke-opacity:0.25882353" />
    </clipPath>
    <clipPath
       clipPathUnits="userSpaceOnUse"
       id="clipPath4789">
      <circle
         r="128"
         cy="924.36218"
         cx="102.64714"
         id="circle4791"
         style="fill:#80b4ff;fill-opacity:1;stroke:none;stroke-width:10;stroke-linejoin:round;stroke-miterlimit:4;stroke-dasharray:none;stroke-opacity:0.25882353" />
    </clipPath>
    <clipPath
       id="clipPath4721"
       clipPathUnits="userSpaceOnUse">
      <circle
         r="128"
         cy="924.36218"
         cx="128"
         id="circle4723"
         style="fill:#557ae6;fill-opacity:1;stroke:none;stroke-width:10;stroke-linejoin:round;stroke-miterlimit:4;stroke-dasharray:none;stroke-opacity:0.25882353" />
    </clipPath>
    <clipPath
       clipPathUnits="userSpaceOnUse"
       id="clipPath4491">
      <circle
         r="128"
         cy="924.36218"
         cx="128"
         id="circle4493"
         style="fill:#990000;fill-opacity:1;stroke:none;stroke-width:10;stroke-linejoin:round;stroke-miterlimit:4;stroke-dasharray:none;stroke-opacity:0.25882353" />
    </clipPath>
    <clipPath
       id="clipPath1102"
       clipPathUnits="userSpaceOnUse">
      <circle
         r="128"
         cy="924.36218"
         cx="128"
         id="circle1104"
         style="fill:#b40000;fill-opacity:1;stroke:none;stroke-width:10;stroke-linejoin:round;stroke-miterlimit:4;stroke-dasharray:none;stroke-opacity:0.25882353" />
    </clipPath>
    <clipPath
       clipPathUnits="userSpaceOnUse"
       id="clipPath4861">
      <circle
         style="fill:#897263;fill-opacity:1;stroke-width:11.48308563"
         id="circle4863"
         cx="129.25"
         cy="924.35864"
         r="83.223335" />
    </clipPath>
  </defs>
  <metadata
     id="metadata7">
    <rdf:RDF>
      <cc:Work
         rdf:about="">
        <dc:format>image/svg+xml</dc:format>
        <dc:type
           rdf:resource="http://purl.org/dc/dcmitype/StillImage" />
        <dc:title />
      </cc:Work>
    </rdf:RDF>
  </metadata>
  <g
     transform="translate(0,-796.36216)"
     id="layer1"
     inkscape:groupmode="layer"
     inkscape:label="Layer 1">
    <g
       id="g937"
       transform="translate(164.0186,55.36747)">
      <path
         d="m 91.9814,868.99469 a 128,127.99999 0 0 1 -64.000002,110.85125 128,127.99999 0 0 1 -127.999998,-1e-5 128,127.99999 0 0 1 -64,-110.85125 l 128,10e-6 z"
         sodipodi:end="3.1415927"
         sodipodi:start="0"
         sodipodi:ry="127.99999"
         sodipodi:rx="128"
         sodipodi:cy="868.99469"
         sodipodi:cx="-36.0186"
         sodipodi:type="arc"
         id="path956"
         style="opacity:1;fill:#897263;fill-opacity:1;stroke:none;stroke-width:47.40198898;stroke-miterlimit:4;stroke-dasharray:none;stroke-opacity:1" />
      <path
         transform="scale(1,-1)"
         style="opacity:1;fill:#5b4c42;fill-opacity:1;stroke:none;stroke-width:47.40198898;stroke-miterlimit:4;stroke-dasharray:none;stroke-opacity:1"
         id="path958"
         sodipodi:type="arc"
         sodipodi:cx="-36.0186"
         sodipodi:cy="-868.99469"
         sodipodi:rx="128"
         sodipodi:ry="127.99999"
         sodipodi:start="0"
         sodipodi:end="3.1415927"
         d="m 91.9814,-868.99469 a 128,127.99999 0 0 1 -64.000002,110.85125 128,127.99999 0 0 1 -127.999998,-10e-6 128,127.99999 0 0 1 -64,-110.85125 l 128,10e-6 z" />
    </g>
    <path
       id="circle4429"
       d="m 117.8526,851.33821 c -0.58523,-10e-4 -1.19943,0.0177 -1.84743,0.0541 -2.32352,0.13051 -4.02935,0.31477 -5.9809,0.64886 -6.03315,1.03282 -11.593807,3.18183 -16.611922,6.41347 l -0.898195,0.57676 -0.216277,-0.23131 c -0.119813,-0.12698 -1.134621,-1.25644 -2.252969,-2.50831 -1.513637,-1.69437 -2.248215,-2.43685 -2.874809,-2.90784 -2.359753,-1.77367 -5.140713,-2.41922 -7.897417,-1.83242 -2.821217,0.60053 -4.844125,2.14666 -7.041295,5.38311 -3.918868,5.7725 -5.518025,8.2379 -6.043977,9.3183 -0.922503,1.89499 -1.357267,3.50987 -1.550047,5.76461 -0.341958,3.99948 0.969557,8.23836 3.466577,11.20177 0.242286,0.28754 1.659106,1.88381 3.148156,3.54769 2.304635,2.5752 2.697454,3.05523 2.631472,3.22626 -0.04263,0.11043 -4.759577,12.22674 -10.480834,26.92454 l -10.402732,26.72328 0.108139,1.99764 c 0.117921,2.18764 0.182492,2.77503 0.546721,4.92349 1.207209,7.12087 4.43082,14.1176 9.300276,20.18665 4.847734,6.04198 11.058026,11.15104 18.822847,15.48544 10.257473,5.72581 23.129476,9.5193 36.320946,10.70614 1.78521,0.16061 2.87796,0.22952 6.77695,0.42655 1.18153,0.0598 7.43871,-0.0306 9.13205,-0.13211 12.65844,-0.75888 23.97911,-3.4226 34.40142,-8.09569 18.77258,-8.41713 31.22199,-22.56928 33.93579,-38.57692 0.36423,-2.14846 0.42875,-2.73584 0.54672,-4.92349 l 0.10812,-1.99764 -10.40273,-26.72328 c -5.72125,-14.6978 -10.43822,-26.81395 -10.48083,-26.92454 -0.066,-0.17103 0.32684,-0.65106 2.63147,-3.22626 3.26214,-3.64513 3.45129,-3.8689 4.08239,-4.80935 2.28407,-3.40374 3.13451,-8.0427 2.22595,-12.14202 -0.58767,-2.65148 -1.14122,-3.72366 -4.56905,-8.84667 -3.51616,-5.25505 -3.98616,-5.89971 -4.99859,-6.85806 -1.97716,-1.87155 -4.13361,-2.74276 -6.77094,-2.73661 -2.34331,0.006 -4.22804,0.68215 -6.1431,2.20792 -0.55665,0.44349 -2.08853,2.0838 -4.78532,5.12476 l -0.29138,0.33044 -0.9042,-0.57977 c -2.6549,-1.70981 -5.58157,-3.17686 -8.39909,-4.20855 -0.5287,-0.19361 -1.11267,-0.40989 -1.29771,-0.48064 -0.18504,-0.0708 -1.02856,-0.3268 -1.87447,-0.56775 -3.72551,-1.06119 -6.85474,-1.574 -11.02756,-1.80838 -5.18396,-0.29118 -8.21531,0.57782 -11.39405,3.2623 l -0.60078,0.50767 -0.60079,-0.50767 c -2.78139,-2.34892 -5.44987,-3.30863 -9.54661,-3.31638 z m -0.95525,3.85709 c 2.64196,-0.10971 4.47103,0.21226 6.08003,1.06641 1.0501,0.55745 1.63885,1.02498 3.47858,2.74862 l 1.54404,1.44491 1.54103,-1.44491 c 1.83973,-1.72364 2.43149,-2.19117 3.48159,-2.74862 1.609,-0.85415 3.43807,-1.17607 6.08004,-1.06641 8.23606,0.34196 15.22528,2.4579 21.3702,6.46453 5.08405,3.3149 9.34146,8.14749 11.54424,13.1063 0.22311,0.50226 6.41039,16.35598 13.74915,35.23051 l 13.34362,34.31729 -0.0841,1.44191 c -0.19025,3.26537 -0.75569,6.24723 -1.78436,9.42043 -4.6705,14.40775 -18.24267,26.56815 -36.94276,33.10069 -2.55817,0.89366 -6.97398,2.20613 -7.07734,2.10278 -0.0214,-0.0214 0.27692,-0.24753 0.66086,-0.50166 0.38394,-0.25413 1.17275,-0.81682 1.75433,-1.24965 8.44763,-6.28728 13.80556,-15.15224 15.77382,-26.09845 1.75578,-9.76448 0.63377,-21.70304 -3.07005,-32.63508 -2.65475,-7.83563 -6.38244,-14.79319 -11.01554,-20.56214 -0.5054,-0.62928 -1.09843,-1.39233 -1.31875,-1.69725 -0.72297,-1.00052 -12.4521,-15.7001 -12.90503,-16.17334 -0.5665,-0.59188 -1.27492,-1.06156 -2.09677,-1.39084 l -0.65186,-0.26134 H 128 115.6477 l -0.65187,0.26134 c -0.82006,0.32857 -1.52909,0.79767 -2.09976,1.39084 -0.45523,0.47321 -12.14921,15.13242 -12.89002,16.15833 -0.225734,0.31261 -0.825366,1.08298 -1.330763,1.71226 -1.035371,1.28922 -2.177051,2.83822 -3.046023,4.13346 -2.20289,3.28352 -4.774184,8.16806 -6.371397,12.10297 -5.328445,13.12724 -6.873604,27.67407 -4.18152,39.36396 2.345142,10.18341 8.050219,18.72329 16.329543,24.44627 0.62609,0.43277 1.21005,0.83975 1.29771,0.90419 0.25593,0.18804 0.003,0.14181 -1.42687,-0.25533 -13.102575,-3.63996 -24.150852,-9.84713 -32.100376,-18.03881 -7.468094,-7.6956 -11.64814,-16.68322 -12.202107,-26.23363 l -0.08411,-1.44191 13.307566,-34.22117 c 7.319184,-18.82164 13.520707,-34.70043 13.779188,-35.28457 2.592365,-5.85844 7.743059,-11.21388 14.127653,-14.6924 5.527526,-3.01154 11.684166,-4.62534 18.792806,-4.92049 z m -21.868871,26.88249 c -1.659365,0.099 -3.506955,1.24611 -5.03465,3.28632 -1.41528,1.89009 -2.23142,4.13201 -2.337083,6.41948 -0.130271,2.82085 0.840426,4.79948 2.688554,5.48525 0.661691,0.24557 1.890147,0.20465 2.706564,-0.0901 3.446987,-1.24447 6.280162,-6.0317 6.086047,-10.28558 -0.0789,-1.72739 -0.542863,-2.96291 -1.435905,-3.83006 -0.748882,-0.72718 -1.677899,-1.04473 -2.673527,-0.9853 z m 65.519491,0.003 c -0.84111,0.0428 -1.61609,0.36679 -2.24997,0.9823 -0.89306,0.86716 -1.35701,2.10267 -1.43591,3.83006 -0.20417,4.47409 2.85163,9.36535 6.51261,10.42676 0.71859,0.20832 1.96697,0.11735 2.60743,-0.18924 0.69858,-0.33434 1.46004,-1.14102 1.8144,-1.92254 1.41235,-3.11488 0.13935,-8.0885 -2.82973,-11.05761 -1.4309,-1.43089 -3.01701,-2.14092 -4.41883,-2.06973 z m -51.44292,31.13603 c 2.14846,0.003 3.45004,1.06957 4.04936,3.31637 0.45255,1.69661 0.19871,4.48768 -0.58577,6.43751 -0.21856,0.54309 -0.22266,0.58085 -0.0661,0.75399 0.0907,0.10043 0.33825,0.27415 0.54972,0.3875 0.38034,0.20384 0.45308,0.20725 6.70485,0.23432 l 6.32039,0.027 v 2.25898 c 0,2.50444 -0.0943,3.21724 -0.58877,4.45787 -0.74447,1.86762 -2.3638,3.48114 -4.24159,4.22959 -1.43533,0.57199 -1.57386,0.58153 -8.50424,0.58277 -6.72905,10e-4 -6.78861,0.006 -7.70517,0.47462 -0.56311,0.28788 -1.28584,1.02364 -1.5861,1.61615 -0.53652,1.05878 -0.64239,-0.10797 1.46595,16.32053 1.05825,8.24606 1.99244,15.2821 2.07272,15.63565 0.44534,1.96069 1.89376,3.51996 3.85109,4.14247 l 0.67289,0.21327 H 128 144.48576 l 0.67289,-0.21327 c 1.95733,-0.62251 3.40575,-2.18178 3.85109,-4.14247 0.0803,-0.35355 1.01447,-7.38959 2.07273,-15.63565 2.10833,-16.42848 2.00247,-15.26175 1.46594,-16.32053 -0.30026,-0.59253 -1.02299,-1.32827 -1.58609,-1.61615 -0.91656,-0.46897 -0.97613,-0.4734 -7.70518,-0.47462 -6.93038,-0.001 -7.0689,-0.0108 -8.50423,-0.58277 -1.8778,-0.74845 -3.49713,-2.36197 -4.2416,-4.22959 -0.49451,-1.24057 -0.58877,-1.95343 -0.58877,-4.45787 v -2.25898 l 6.32035,-0.0271 c 6.25177,-0.0271 6.3245,-0.0304 6.70484,-0.23432 0.21148,-0.11335 0.45898,-0.28707 0.54973,-0.38751 0.15651,-0.17313 0.15241,-0.21089 -0.0661,-0.75398 -0.78449,-1.94983 -1.03832,-4.74091 -0.58577,-6.43751 0.59932,-2.2468 1.90088,-3.3133 4.04935,-3.31637 1.92845,-0.003 3.81267,0.92803 5.4522,2.69155 l 0.69391,0.74799 0.85313,-0.92823 c 0.46873,-0.50948 1.0527,-1.23758 1.29771,-1.61913 0.24504,-0.38156 0.46735,-0.69539 0.49565,-0.69693 0.0283,-0.002 0.33457,0.39715 0.6819,0.88617 5.93919,8.3623 10.02466,19.08029 11.41807,29.96756 2.05815,16.08104 -1.45011,28.78522 -10.41474,37.7328 -6.28113,6.26918 -14.68808,10.15642 -24.42825,11.29191 -1.93658,0.22579 -6.08905,0.3283 -7.87639,0.19526 -10.5065,-0.78214 -19.7317,-4.79072 -26.440913,-11.48717 -4.897349,-4.88804 -8.134395,-10.82928 -9.789916,-17.97872 -2.684231,-11.59211 -0.786902,-26.75756 4.935509,-39.46009 1.190097,-2.64178 3.220481,-6.35565 4.650142,-8.50723 0.830951,-1.25056 1.829828,-2.64517 1.889498,-2.63748 0.0283,0.003 0.25369,0.31994 0.50166,0.70293 0.24798,0.38297 0.83195,1.10978 1.29771,1.61613 l 0.84712,0.92222 0.69391,-0.74799 c 1.63953,-1.76352 3.52374,-2.69463 5.4522,-2.69155 z m 7.35972,26.53102 h 9.61269 v 15.3803 15.3803 h -7.13741 c -6.78256,-3.5e-4 -7.15089,-0.0108 -7.42881,-0.18024 -0.39472,-0.2407 -0.78653,-0.71723 -0.85313,-1.04237 -0.0483,-0.2361 -3.80602,-29.34565 -3.80602,-29.48392 0,-0.0303 4.32571,-0.0541 9.61268,-0.0541 z m 13.45777,0 h 9.61269 c 5.28698,0 9.61269,0.0223 9.61269,0.048 0,0.3344 -3.78474,29.31603 -3.86011,29.55902 -0.1195,0.38525 -0.48977,0.82068 -0.86814,1.01835 -0.21663,0.1132 -1.43742,0.13519 -7.37773,0.13519 h -7.1194 v -15.3803 z"
       style="fill:#c42626;fill-opacity:1;stroke:none;stroke-width:15.38030243;stroke-linejoin:round;stroke-miterlimit:4;stroke-dasharray:none;stroke-opacity:0.25882353"
       inkscape:connector-curvature="0" />
    <path
       inkscape:connector-curvature="0"
       id="path4427"
       d="m 124.87588,997.36723 c -3.89899,-0.19704 -4.99174,-0.2658 -6.77695,-0.42642 -13.19147,-1.18684 -26.063965,-4.9816 -36.321432,-10.70741 -7.764821,-4.3344 -13.973842,-9.44256 -18.821577,-15.48454 -4.869456,-6.06905 -8.092892,-13.06578 -9.300101,-20.18664 -0.364228,-2.14846 -0.429562,-2.73602 -0.547478,-4.92367 l -0.107663,-1.99747 10.402285,-26.72328 c 5.721257,-14.6978 10.437162,-26.81369 10.479788,-26.9242 0.06598,-0.17103 -0.325227,-0.65094 -2.629862,-3.22614 -1.48905,-1.66387 -2.905601,-3.26049 -3.147887,-3.54802 -2.497019,-2.96343 -3.808999,-7.20238 -3.467041,-11.20186 0.19278,-2.25474 0.626833,-3.86974 1.549336,-5.76474 0.525953,-1.0804 2.124964,-3.54571 6.043833,-9.31821 2.19717,-3.23645 4.219549,-4.78272 7.040765,-5.38325 2.756704,-0.5868 5.539079,0.0588 7.898833,1.83243 0.626578,0.47099 1.361433,1.21447 2.87507,2.90884 1.118348,1.25187 2.131341,2.38003 2.251108,2.50701 l 0.217754,0.23087 0.896425,-0.5773 c 5.018116,-3.23163 10.580034,-5.37787 16.613184,-6.41069 1.95155,-0.33409 3.6563,-0.51936 5.97982,-0.64987 5.18396,-0.29118 8.21639,0.57667 11.39511,3.26115 l 0.6008,0.50737 0.60079,-0.50737 c 3.17874,-2.68448 6.21116,-3.55233 11.39512,-3.26115 4.17282,0.23438 7.30097,0.7475 11.02648,1.8087 0.84592,0.24094 1.68943,0.49598 1.87448,0.56675 0.18504,0.0707 0.76901,0.28705 1.29771,0.48066 2.81752,1.0317 5.74517,2.49836 8.40007,4.20817 l 0.90218,0.58101 0.29329,-0.33071 c 2.6968,-3.04096 4.22837,-4.68128 4.78501,-5.12478 1.91506,-1.52577 3.79923,-2.20341 6.14254,-2.20914 2.63732,-0.006 4.79436,0.86538 6.77151,2.73694 1.01244,0.95834 1.48173,1.60222 4.9979,6.85727 3.42782,5.12301 3.98234,6.1966 4.57001,8.84809 0.90856,4.09931 0.0581,8.73776 -2.22593,12.14152 -0.6311,0.94044 -0.8219,1.16518 -4.08404,4.81031 -2.30463,2.5752 -2.69585,3.05511 -2.62986,3.22614 0.0426,0.11059 4.75852,12.2264 10.47978,26.9242 l 10.40228,26.72328 -0.10766,1.99747 c -0.11797,2.18765 -0.18324,2.77521 -0.54748,4.92367 -2.71379,16.00763 -15.16264,30.15894 -33.93522,38.57607 -10.42231,4.67309 -21.74259,7.33726 -34.40103,8.09614 -1.69334,0.10151 -7.95052,0.1925 -9.13205,0.13274 z m 8.06921,-4.07701 c 9.74018,-1.1355 18.14759,-5.02123 24.42872,-11.29041 8.96462,-8.94758 12.47058,-21.65286 10.41243,-37.73391 -1.39341,-10.88727 -5.47614,-21.60526 -11.41533,-29.96756 -0.34734,-0.48903 -0.65467,-0.88774 -0.68297,-0.88598 -0.0283,0.002 -0.25193,0.31535 -0.49696,0.69691 -0.24501,0.38155 -0.82899,1.11058 -1.29772,1.62005 l -0.8522,0.9263 -0.69498,-0.74755 c -1.63952,-1.76352 -3.52276,-2.69284 -5.45121,-2.69001 -2.14847,0.003 -3.44945,1.06844 -4.04877,3.31524 -0.45255,1.6966 -0.19856,4.48657 0.58593,6.43639 0.21851,0.5431 0.22187,0.58207 0.0654,0.75521 -0.0907,0.10043 -0.33812,0.27529 -0.5496,0.38863 -0.38034,0.20381 -0.45308,0.20634 -6.70485,0.23336 l -6.32034,0.0274 v 2.25975 c 0,2.50443 0.0938,3.21488 0.58833,4.45546 0.74447,1.86761 2.36406,3.48337 4.24185,4.23183 1.43533,0.57207 1.57299,0.58151 8.50337,0.58275 6.72905,10e-4 6.79098,0.005 7.70753,0.4736 0.56311,0.28787 1.28421,1.0232 1.58447,1.61571 0.53652,1.05878 0.64136,-0.10766 -1.46698,16.32082 -1.05825,8.24606 -1.98981,15.2821 -2.07011,15.63565 -0.44533,1.9607 -1.89502,3.51927 -3.85235,4.14178 l -0.67289,0.214 H 128 111.51424 l -0.67289,-0.214 c -1.95733,-0.62251 -3.40701,-2.18108 -3.85235,-4.14178 -0.0803,-0.35355 -1.01185,-7.38959 -2.07011,-15.63565 -2.10833,-16.42843 -2.0035,-15.26204 -1.46697,-16.32082 0.30025,-0.59251 1.02136,-1.32784 1.58446,-1.61571 0.91656,-0.46858 0.97848,-0.47238 7.70753,-0.4736 6.93038,-10e-4 7.06805,-0.0108 8.50337,-0.58275 1.8778,-0.74846 3.49739,-2.36422 4.24186,-4.23183 0.49452,-1.24064 0.58832,-1.95109 0.58832,-4.45552 v -2.25975 l -6.32033,-0.0274 c -6.25177,-0.0271 -6.32452,-0.0295 -6.70486,-0.23337 -0.21148,-0.11335 -0.45879,-0.28821 -0.5496,-0.38863 -0.15657,-0.17313 -0.15319,-0.21211 0.0654,-0.7552 0.78448,-1.94982 1.03847,-4.73979 0.58592,-6.43639 -0.59932,-2.2468 -1.90029,-3.31208 -4.04875,-3.31524 -1.92846,-0.003 -3.8117,0.92649 -5.45123,2.69001 l -0.69497,0.74755 -0.84686,-0.92064 c -0.46576,-0.50635 -1.04973,-1.23399 -1.29771,-1.61696 -0.24798,-0.38299 -0.47402,-0.69914 -0.50232,-0.70259 -0.0597,-0.008 -1.058395,1.38667 -1.889347,2.63723 -1.42966,2.15158 -3.459445,5.86545 -4.649542,8.50723 -5.722411,12.70253 -7.618925,27.86799 -4.934693,39.46009 1.65552,7.14944 4.890367,13.09179 9.787717,17.97983 6.709215,6.69645 15.935435,10.70437 26.441935,11.4865 1.78735,0.13304 5.94038,0.0297 7.87696,-0.19609 z m -30.24164,-3.00662 c -0.0877,-0.0644 -0.67163,-0.47119 -1.29771,-0.90396 -8.279328,-5.72298 -13.983559,-14.26305 -16.328701,-24.44645 -2.692079,-11.6899 -1.14674,-26.23672 4.181704,-39.36397 1.597214,-3.93491 4.169046,-8.8202 6.371952,-12.10372 0.868956,-1.29524 2.009544,-2.84315 3.044915,-4.13237 0.505397,-0.62928 1.103583,-1.39993 1.32932,-1.71253 0.74081,-1.02592 12.43603,-15.68457 12.89126,-16.15778 0.57067,-0.59317 1.2797,-1.0631 2.09977,-1.39167 l 0.65174,-0.26113 H 128 140.35231 l 0.65174,0.26113 c 0.82184,0.32928 1.53097,0.79979 2.09747,1.39167 0.45293,0.47324 12.18043,15.17125 12.9034,16.17177 0.22032,0.30492 0.81408,1.06926 1.31947,1.69854 4.6331,5.76895 8.36001,12.72617 11.01476,20.5618 3.70382,10.93205 4.82752,22.87061 3.07174,32.63508 -1.96827,10.94621 -7.32678,19.81205 -15.77441,26.09933 -0.58157,0.43283 -1.37152,0.99491 -1.75546,1.24903 -0.38395,0.25413 -0.68058,0.47955 -0.65922,0.50092 0.10336,0.10336 4.51866,-1.20746 7.07684,-2.10111 18.70009,-6.53254 32.27316,-18.69413 36.94367,-33.10187 1.02866,-3.17321 1.59323,-6.15539 1.78348,-9.42076 l 0.084,-1.44158 -13.3432,-34.3173 c -7.33876,-18.87452 -13.52575,-34.72825 -13.74885,-35.23051 -2.20278,-4.9588 -6.45956,-9.7921 -11.54361,-13.107 -6.14492,-4.00663 -13.13542,-6.12043 -21.37148,-6.4624 -2.64197,-0.10966 -4.47038,0.21051 -6.07938,1.06466 -1.0501,0.55745 -1.64101,1.02389 -3.48074,2.74753 l -1.54254,1.4452 -1.54254,-1.4452 c -1.83973,-1.72364 -2.43064,-2.19008 -3.48074,-2.74753 -1.609,-0.85415 -3.43741,-1.17437 -6.07937,-1.06466 -7.10864,0.29515 -13.26528,1.90627 -18.792811,4.91781 -6.384594,3.47851 -11.536027,8.83653 -14.128392,14.69497 -0.258481,0.58414 -6.458389,16.46161 -13.777573,35.28326 l -13.307609,34.22117 0.08362,1.44158 c 0.553966,9.55041 4.734448,18.53771 12.202541,26.2333 7.949525,8.19169 18.997026,14.40058 32.099604,18.04054 1.42975,0.3972 1.68265,0.44225 1.42672,0.25421 z M 90.344008,897.26976 c -1.848128,-0.68576 -2.817871,-2.66525 -2.687585,-5.48611 0.105663,-2.28746 0.922142,-4.5302 2.337422,-6.42029 2.444299,-3.26434 5.710814,-4.23904 7.707823,-2.29991 0.893042,0.86716 1.355973,2.103 1.434813,3.83039 0.194114,4.25388 -2.638137,9.04128 -6.085125,10.28575 -0.816417,0.29476 -2.045657,0.3357 -2.707348,0.0901 z m 73.030692,0.0506 c -3.66098,-1.06141 -6.71535,-5.9525 -6.51116,-10.42658 0.0789,-1.72739 0.54174,-2.96323 1.43479,-3.83039 1.69035,-1.64135 4.37981,-1.2034 6.66924,1.08604 2.96909,2.9691 4.24181,7.94304 2.82947,11.05793 -0.35436,0.78151 -1.11759,1.59038 -1.81617,1.92472 -0.64046,0.30653 -1.88758,0.39661 -2.60617,0.18828 z m -37.29724,57.80788 v -15.3803 h -9.61269 c -5.28697,0 -9.61268,0.0249 -9.61268,0.0552 0,0.13826 3.7584,29.24593 3.80676,29.48204 0.0666,0.32513 0.45658,0.80354 0.8513,1.04424 0.27792,0.16949 0.64736,0.17837 7.4299,0.17872 h 7.13741 v -15.3803 z m 18.34098,15.2447 c 0.37837,-0.19767 0.74995,-0.63267 0.86948,-1.01792 0.0754,-0.24299 3.86,-29.22585 3.86,-29.56025 0,-0.0258 -4.32571,-0.0469 -9.61269,-0.0469 h -9.61269 v 15.38031 15.3803 h 7.11816 c 5.9403,0 7.16111,-0.0225 7.37774,-0.13566 z"
       style="fill:#000000;stroke-width:0.09612688" />
    <path
       style="fill:#000000;stroke-width:0.09612688"
       d="m 124.87588,997.36723 c -3.89899,-0.19704 -4.99174,-0.2658 -6.77695,-0.42642 -13.19147,-1.18684 -26.063965,-4.9816 -36.321432,-10.70741 -7.764821,-4.3344 -13.973842,-9.44256 -18.821577,-15.48454 -4.869456,-6.06905 -8.092892,-13.06578 -9.300101,-20.18664 -0.364228,-2.14846 -0.429562,-2.73602 -0.547478,-4.92367 l -0.107663,-1.99747 10.402285,-26.72328 c 5.721257,-14.6978 10.437162,-26.81369 10.479788,-26.9242 0.06598,-0.17103 -0.325227,-0.65094 -2.629862,-3.22614 -1.48905,-1.66387 -2.905601,-3.26049 -3.147887,-3.54802 -2.497019,-2.96343 -3.808999,-7.20238 -3.467041,-11.20186 0.19278,-2.25474 0.626833,-3.86974 1.549336,-5.76474 0.525953,-1.0804 2.124964,-3.54571 6.043833,-9.31821 2.19717,-3.23645 4.219549,-4.78272 7.040765,-5.38325 2.756704,-0.5868 5.539079,0.0588 7.898833,1.83243 0.626578,0.47099 1.361433,1.21447 2.87507,2.90884 1.118348,1.25187 2.131341,2.38003 2.251108,2.50701 l 0.217754,0.23087 0.896425,-0.5773 c 5.018116,-3.23163 10.580034,-5.37787 16.613184,-6.41069 1.95155,-0.33409 3.6563,-0.51936 5.97982,-0.64987 5.18396,-0.29118 8.21639,0.57667 11.39511,3.26115 l 0.6008,0.50737 0.60079,-0.50737 c 3.17874,-2.68448 6.21116,-3.55233 11.39512,-3.26115 4.17282,0.23438 7.30097,0.7475 11.02648,1.8087 0.84592,0.24094 1.68943,0.49598 1.87448,0.56675 0.18504,0.0707 0.76901,0.28705 1.29771,0.48066 2.81752,1.0317 5.74517,2.49836 8.40007,4.20817 l 0.90218,0.58101 0.29329,-0.33071 c 2.6968,-3.04096 4.22837,-4.68128 4.78501,-5.12478 1.91506,-1.52577 3.79923,-2.20341 6.14254,-2.20914 2.63732,-0.006 4.79436,0.86538 6.77151,2.73694 1.01244,0.95834 1.48173,1.60222 4.9979,6.85727 3.42782,5.12301 3.98234,6.1966 4.57001,8.84809 0.90856,4.09931 0.0581,8.73776 -2.22593,12.14152 -0.6311,0.94044 -0.8219,1.16518 -4.08404,4.81031 -2.30463,2.5752 -2.69585,3.05511 -2.62986,3.22614 0.0426,0.11059 4.75852,12.2264 10.47978,26.9242 l 10.40228,26.72328 -0.10766,1.99747 c -0.11797,2.18765 -0.18324,2.77521 -0.54748,4.92367 -2.71379,16.00763 -15.16264,30.15894 -33.93522,38.57607 -10.42231,4.67309 -21.74259,7.33726 -34.40103,8.09614 -1.69334,0.10151 -7.95052,0.1925 -9.13205,0.13274 z m 8.06921,-4.07701 c 9.74018,-1.1355 18.14759,-5.02123 24.42872,-11.29041 8.96462,-8.94758 12.47058,-21.65286 10.41243,-37.73391 -1.39341,-10.88727 -5.47614,-21.60526 -11.41533,-29.96756 -0.34734,-0.48903 -0.65467,-0.88774 -0.68297,-0.88598 -0.0283,0.002 -0.25193,0.31535 -0.49696,0.69691 -0.24501,0.38155 -0.82899,1.11058 -1.29772,1.62005 l -0.8522,0.9263 -0.69498,-0.74755 c -1.63952,-1.76352 -3.52276,-2.69284 -5.45121,-2.69001 -2.14847,0.003 -3.44945,1.06844 -4.04877,3.31524 -0.45255,1.6966 -0.19856,4.48657 0.58593,6.43639 0.21851,0.5431 0.22187,0.58207 0.0654,0.75521 -0.0907,0.10043 -0.33812,0.27529 -0.5496,0.38863 -0.38034,0.20381 -0.45308,0.20634 -6.70485,0.23336 l -6.32034,0.0274 v 2.25975 c 0,2.50443 0.0938,3.21488 0.58833,4.45546 0.74447,1.86761 2.36406,3.48337 4.24185,4.23183 1.43533,0.57207 1.57299,0.58151 8.50337,0.58275 6.72905,10e-4 6.79098,0.005 7.70753,0.4736 0.56311,0.28787 1.28421,1.0232 1.58447,1.61571 0.53652,1.05878 0.64136,-0.10766 -1.46698,16.32082 -1.05825,8.24606 -1.98981,15.2821 -2.07011,15.63565 -0.44533,1.9607 -1.89502,3.51927 -3.85235,4.14178 l -0.67289,0.214 H 128 111.51424 l -0.67289,-0.214 c -1.95733,-0.62251 -3.40701,-2.18108 -3.85235,-4.14178 -0.0803,-0.35355 -1.01185,-7.38959 -2.07011,-15.63565 -2.10833,-16.42843 -2.0035,-15.26204 -1.46697,-16.32082 0.30025,-0.59251 1.02136,-1.32784 1.58446,-1.61571 0.91656,-0.46858 0.97848,-0.47238 7.70753,-0.4736 6.93038,-10e-4 7.06805,-0.0108 8.50337,-0.58275 1.8778,-0.74846 3.49739,-2.36422 4.24186,-4.23183 0.49452,-1.24064 0.58832,-1.95109 0.58832,-4.45552 v -2.25975 l -6.32033,-0.0274 c -6.25177,-0.0271 -6.32452,-0.0295 -6.70486,-0.23337 -0.21148,-0.11335 -0.45879,-0.28821 -0.5496,-0.38863 -0.15657,-0.17313 -0.15319,-0.21211 0.0654,-0.7552 0.78448,-1.94982 1.03847,-4.73979 0.58592,-6.43639 -0.59932,-2.2468 -1.90029,-3.31208 -4.04875,-3.31524 -1.92846,-0.003 -3.8117,0.92649 -5.45123,2.69001 l -0.69497,0.74755 -0.84686,-0.92064 c -0.46576,-0.50635 -1.04973,-1.23399 -1.29771,-1.61696 -0.24798,-0.38299 -0.47402,-0.69914 -0.50232,-0.70259 -0.0597,-0.008 -1.058395,1.38667 -1.889347,2.63723 -1.42966,2.15158 -3.459445,5.86545 -4.649542,8.50723 -5.722411,12.70253 -7.618925,27.86799 -4.934693,39.46009 1.65552,7.14944 4.890367,13.09179 9.787717,17.97983 6.709215,6.69645 15.935435,10.70437 26.441935,11.4865 1.78735,0.13304 5.94038,0.0297 7.87696,-0.19609 z m -30.24164,-3.00662 c -0.0877,-0.0644 -0.67163,-0.47119 -1.29771,-0.90396 -8.279328,-5.72298 -13.983559,-14.26305 -16.328701,-24.44645 -2.692079,-11.6899 -1.14674,-26.23672 4.181704,-39.36397 1.597214,-3.93491 4.169046,-8.8202 6.371952,-12.10372 0.868956,-1.29524 2.009544,-2.84315 3.044915,-4.13237 0.505397,-0.62928 1.103583,-1.39993 1.32932,-1.71253 0.74081,-1.02592 12.43603,-15.68457 12.89126,-16.15778 0.57067,-0.59317 1.2797,-1.0631 2.09977,-1.39167 l 0.65174,-0.26113 H 128 140.35231 l 0.65174,0.26113 c 0.82184,0.32928 1.53097,0.79979 2.09747,1.39167 0.45293,0.47324 12.18043,15.17125 12.9034,16.17177 0.22032,0.30492 0.81408,1.06926 1.31947,1.69854 4.6331,5.76895 8.36001,12.72617 11.01476,20.5618 3.70382,10.93205 4.82752,22.87061 3.07174,32.63508 -1.96827,10.94621 -7.32678,19.81205 -15.77441,26.09933 -0.58157,0.43283 -1.37152,0.99491 -1.75546,1.24903 -0.38395,0.25413 -0.68058,0.47955 -0.65922,0.50092 0.10336,0.10336 4.51866,-1.20746 7.07684,-2.10111 18.70009,-6.53254 32.27316,-18.69413 36.94367,-33.10187 1.02866,-3.17321 1.59323,-6.15539 1.78348,-9.42076 l 0.084,-1.44158 -13.3432,-34.3173 c -7.33876,-18.87452 -13.52575,-34.72825 -13.74885,-35.23051 -2.20278,-4.9588 -6.45956,-9.7921 -11.54361,-13.107 -6.14492,-4.00663 -13.13542,-6.12043 -21.37148,-6.4624 -2.64197,-0.10966 -4.47038,0.21051 -6.07938,1.06466 -1.0501,0.55745 -1.64101,1.02389 -3.48074,2.74753 l -1.54254,1.4452 -1.54254,-1.4452 c -1.83973,-1.72364 -2.43064,-2.19008 -3.48074,-2.74753 -1.609,-0.85415 -3.43741,-1.17437 -6.07937,-1.06466 -7.10864,0.29515 -13.26528,1.90627 -18.792811,4.91781 -6.384594,3.47851 -11.536027,8.83653 -14.128392,14.69497 -0.258481,0.58414 -6.458389,16.46161 -13.777573,35.28326 l -13.307609,34.22117 0.08362,1.44158 c 0.553966,9.55041 4.734448,18.53771 12.202541,26.2333 7.949525,8.19169 18.997026,14.40058 32.099604,18.04054 1.42975,0.3972 1.68265,0.44225 1.42672,0.25421 z M 90.344008,897.26976 c -1.848128,-0.68576 -2.817871,-2.66525 -2.687585,-5.48611 0.105663,-2.28746 0.922142,-4.5302 2.337422,-6.42029 2.444299,-3.26434 5.710814,-4.23904 7.707823,-2.29991 0.893042,0.86716 1.355973,2.103 1.434813,3.83039 0.194114,4.25388 -2.638137,9.04128 -6.085125,10.28575 -0.816417,0.29476 -2.045657,0.3357 -2.707348,0.0901 z m 73.030692,0.0506 c -3.66098,-1.06141 -6.71535,-5.9525 -6.51116,-10.42658 0.0789,-1.72739 0.54174,-2.96323 1.43479,-3.83039 1.69035,-1.64135 4.37981,-1.2034 6.66924,1.08604 2.96909,2.9691 4.24181,7.94304 2.82947,11.05793 -0.35436,0.78151 -1.11759,1.59038 -1.81617,1.92472 -0.64046,0.30653 -1.88758,0.39661 -2.60617,0.18828 z m -37.29724,57.80788 v -15.3803 h -9.61269 c -5.28697,0 -9.61268,0.0249 -9.61268,0.0552 0,0.13826 3.7584,29.24593 3.80676,29.48204 0.0666,0.32513 0.45658,0.80354 0.8513,1.04424 0.27792,0.16949 0.64736,0.17837 7.4299,0.17872 h 7.13741 v -15.3803 z m 18.34098,15.2447 c 0.37837,-0.19767 0.74995,-0.63267 0.86948,-1.01792 0.0754,-0.24299 3.86,-29.22585 3.86,-29.56025 0,-0.0258 -4.32571,-0.0469 -9.61269,-0.0469 h -9.61269 v 15.38031 15.3803 h 7.11816 c 5.9403,0 7.16111,-0.0225 7.37774,-0.13566 z"
       id="path4435"
       inkscape:connector-curvature="0" />
    <path
       id="path4476"
       d="m 117.8526,851.33821 c 4.09674,0.008 6.76523,0.96746 9.54662,3.31637 l 0.60078,0.50767 0.60079,-0.50767 c 3.17874,-2.68447 6.21009,-3.55348 11.39405,-3.2623 4.17281,0.23438 7.30204,0.74719 11.02755,1.80839 0.84592,0.24094 1.68943,0.49698 1.87448,0.56774 0.18504,0.0707 0.76901,0.28703 1.29771,0.48064 2.81752,1.03169 5.74419,2.49874 8.39909,4.20855 l 0.90419,0.57977 0.29138,-0.33044 c 2.6968,-3.04096 4.22868,-4.68127 4.78532,-5.12476 1.91506,-1.52577 3.7998,-2.20218 6.14311,-2.20792 2.63732,-0.006 4.79378,0.86507 6.77093,2.73662 1.01244,0.95834 1.48243,1.603 4.9986,6.85805 3.42782,5.12301 3.98137,6.19519 4.56904,8.84668 0.90856,4.09931 0.0581,8.73827 -2.22594,12.14202 -0.6311,0.94045 -0.82025,1.16421 -4.0824,4.80935 -2.30463,2.5752 -2.69744,3.05523 -2.63146,3.22626 0.0426,0.11058 4.75957,12.22674 10.48083,26.92454 L 203,943.64105 l -0.10813,1.99764 c -0.11796,2.18764 -0.18248,2.77503 -0.54672,4.92349 -2.71379,16.00764 -15.16321,30.15979 -33.93579,38.57692 -10.42231,4.67309 -21.74298,7.33681 -34.40141,8.09569 -1.69334,0.10151 -7.95053,0.19194 -9.13206,0.13211 -3.89898,-0.19703 -4.99174,-0.26594 -6.77694,-0.42656 -13.19147,-1.18683 -26.063478,-4.98032 -36.320946,-10.70613 -7.764821,-4.3344 -13.975113,-9.44346 -18.822847,-15.48544 -4.869456,-6.06905 -8.093067,-13.06578 -9.300276,-20.18665 -0.364229,-2.14846 -0.428805,-2.73585 -0.546721,-4.9235 l -0.108139,-1.99763 10.402732,-26.72328 c 5.721257,-14.6978 10.438208,-26.81403 10.480834,-26.92454 0.06598,-0.17103 -0.326837,-0.65106 -2.631472,-3.22627 -1.48905,-1.66387 -2.90587,-3.26014 -3.148156,-3.54768 -2.49702,-2.96342 -3.808535,-7.2023 -3.466577,-11.20178 0.19278,-2.25473 0.627544,-3.86962 1.550047,-5.76461 0.525952,-1.0804 2.125109,-3.54579 6.043977,-9.3183 2.19717,-3.23644 4.220078,-4.78258 7.041295,-5.3831 2.756704,-0.58681 5.537659,0.0588 7.897413,1.83242 0.626593,0.47099 1.361172,1.21346 2.874809,2.90783 1.118348,1.25187 2.133201,2.38134 2.252968,2.50832 l 0.216278,0.2313 0.898194,-0.57676 c 5.018116,-3.23163 10.578767,-5.38065 16.611927,-6.41347 1.95154,-0.33409 3.65737,-0.51835 5.98089,-0.64885 0.648,-0.0364 1.2622,-0.0552 1.84744,-0.0541 z"
       style="fill:#000000;fill-opacity:1;stroke:none;stroke-width:15.38030243;stroke-linejoin:round;stroke-miterlimit:4;stroke-dasharray:none;stroke-opacity:0.25882353"
       inkscape:connector-curvature="0" />
    <path
       id="path4474"
       d="m 116.89735,855.1953 c -7.10864,0.29515 -13.26528,1.90895 -18.792811,4.92049 -6.384594,3.47852 -11.535288,8.83396 -14.127653,14.6924 -0.258481,0.58414 -6.459999,16.46293 -13.779183,35.28457 l -13.307567,34.22117 0.08412,1.44191 c 0.553968,9.55041 4.734014,18.53803 12.202107,26.23363 7.949525,8.19168 18.997797,14.39885 32.100377,18.03881 1.42975,0.3972 1.6828,0.44337 1.42686,0.25533 -0.0877,-0.0644 -0.67162,-0.47142 -1.2977,-0.90419 -8.279329,-5.72298 -13.984406,-14.26286 -16.329548,-24.44627 -2.692079,-11.68989 -1.146925,-26.23672 4.18152,-39.36396 1.597213,-3.93491 4.168507,-8.81945 6.371397,-12.10297 0.868972,-1.29524 2.010652,-2.84424 3.046023,-4.13346 0.505397,-0.62928 1.105029,-1.39965 1.330768,-1.71226 0.74081,-1.02591 12.43479,-15.68512 12.89002,-16.15833 0.57067,-0.59317 1.2797,-1.06227 2.09976,-1.39084 l 0.65187,-0.26134 H 128 140.35231 l 0.65186,0.26134 c 0.82185,0.32928 1.53026,0.79896 2.09677,1.39084 0.45293,0.47324 12.18206,15.17282 12.90502,16.17334 0.22033,0.30492 0.81336,1.06797 1.31876,1.69725 4.6331,5.76895 8.36079,12.72651 11.01554,20.56214 3.70382,10.93204 4.82583,22.8706 3.07004,32.63508 -1.96826,10.94621 -7.32619,19.81117 -15.77382,26.09845 -0.58157,0.43283 -1.37038,0.99552 -1.75432,1.24965 -0.38394,0.25413 -0.68223,0.48028 -0.66086,0.50166 0.10335,0.10335 4.51916,-1.20912 7.07734,-2.10278 18.70009,-6.53254 32.27225,-18.69294 36.94276,-33.10069 1.02866,-3.1732 1.5941,-6.15506 1.78436,-9.42043 l 0.0841,-1.44191 -13.34363,-34.31729 c -7.33877,-18.87453 -13.52605,-34.72825 -13.74916,-35.23051 -2.20278,-4.95881 -6.46019,-9.7914 -11.54424,-13.1063 -6.14492,-4.00663 -13.13414,-6.12257 -21.3702,-6.46453 -2.64197,-0.10966 -4.47104,0.21226 -6.08004,1.06641 -1.0501,0.55745 -1.64186,1.02498 -3.48159,2.74862 l -1.541,1.44491 -1.54404,-1.44491 c -1.83973,-1.72364 -2.42848,-2.19117 -3.47858,-2.74862 -1.609,-0.85415 -3.43807,-1.17612 -6.08003,-1.06641 z"
       style="fill:#d6aa70;fill-opacity:1;stroke:none;stroke-width:15.38030243;stroke-linejoin:round;stroke-miterlimit:4;stroke-dasharray:none;stroke-opacity:0.25882353"
       inkscape:connector-curvature="0" />
    <path
       id="path4472"
       d="m 95.028479,882.07779 c 0.995628,-0.0594 1.924645,0.25811 2.673527,0.98529 0.893042,0.86716 1.35705,2.10267 1.435905,3.83007 0.194115,4.25388 -2.63906,9.04111 -6.086047,10.28557 -0.816417,0.29477 -2.044873,0.33569 -2.706564,0.0901 -1.848128,-0.68576 -2.81884,-2.66439 -2.688554,-5.48524 0.105663,-2.28747 0.921803,-4.5294 2.337083,-6.41948 1.527695,-2.04021 3.375285,-3.18729 5.03465,-3.28633 z"
       style="fill:#000000;fill-opacity:1;stroke:none;stroke-width:15.38030243;stroke-linejoin:round;stroke-miterlimit:4;stroke-dasharray:none;stroke-opacity:0.25882353"
       inkscape:connector-curvature="0" />
    <path
       id="path4469"
       d="m 160.54797,882.08079 c 1.40182,-0.0712 2.98793,0.63883 4.41883,2.06973 2.96909,2.9691 4.24208,7.94272 2.82973,11.0576 -0.35436,0.78152 -1.11582,1.5882 -1.8144,1.92254 -0.64046,0.30653 -1.88884,0.39756 -2.60743,0.18924 -3.66098,-1.06141 -6.71678,-5.95267 -6.51261,-10.42675 0.0789,-1.7274 0.54285,-2.96291 1.43591,-3.83007 0.63388,-0.6155 1.40886,-0.93958 2.24997,-0.98229 z"
       style="fill:#000000;fill-opacity:1;stroke:none;stroke-width:15.38030243;stroke-linejoin:round;stroke-miterlimit:4;stroke-dasharray:none;stroke-opacity:0.25882353"
       inkscape:connector-curvature="0" />
    <path
       id="path4467"
       d="m 109.10505,913.21689 c -1.92845,-0.003 -3.81266,0.92803 -5.45219,2.69155 l -0.69391,0.74799 -0.84712,-0.92222 c -0.46576,-0.50635 -1.04974,-1.23316 -1.29771,-1.61613 -0.24798,-0.38298 -0.47336,-0.69948 -0.50166,-0.70293 -0.0597,-0.008 -1.058551,1.38692 -1.889502,2.63748 -1.429661,2.15158 -3.460045,5.86545 -4.650142,8.50723 -5.722411,12.70253 -7.61974,27.86798 -4.935508,39.46009 1.65552,7.14944 4.892566,13.09068 9.789916,17.97872 6.709206,6.69645 15.934406,10.70503 26.440906,11.48717 1.78735,0.13304 5.93981,0.0306 7.87639,-0.19526 9.74018,-1.13549 18.14713,-5.02273 24.42826,-11.29191 8.96462,-8.94758 12.47289,-21.65175 10.41474,-37.7328 -1.39341,-10.88727 -5.47888,-21.60526 -11.41807,-29.96756 -0.34734,-0.48902 -0.65361,-0.88792 -0.68191,-0.88617 -0.0283,0.002 -0.2506,0.31537 -0.49564,0.69693 -0.24501,0.38155 -0.82898,1.10966 -1.29771,1.61913 l -0.85313,0.92823 -0.69392,-0.74799 c -1.63952,-1.76352 -3.52375,-2.69438 -5.45219,-2.69155 -2.14848,0.003 -3.45003,1.06957 -4.04936,3.31637 -0.45255,1.69661 -0.19871,4.48768 0.58578,6.43751 0.2185,0.54309 0.2226,0.58085 0.0661,0.75399 -0.0907,0.10043 -0.33824,0.27416 -0.54972,0.3875 -0.38034,0.20382 -0.45307,0.2073 -6.70484,0.23432 l -6.32035,0.0271 v 2.25898 c 0,2.50444 0.0943,3.2173 0.58877,4.45787 0.74447,1.86762 2.3638,3.48114 4.24159,4.22959 1.43534,0.57207 1.57385,0.58153 8.50423,0.58277 6.72906,0.001 6.78862,0.006 7.70518,0.47462 0.56311,0.28788 1.28584,1.02362 1.5861,1.61615 0.53652,1.05878 0.64238,-0.10797 -1.46595,16.32053 -1.05825,8.24606 -1.99242,15.2821 -2.07272,15.63565 -0.44534,1.96069 -1.89377,3.51996 -3.85109,4.14247 l -0.67289,0.21327 H 128 111.51424 l -0.67289,-0.21327 c -1.95733,-0.62251 -3.40575,-2.18178 -3.85109,-4.14247 -0.0803,-0.35355 -1.01447,-7.38959 -2.07272,-15.63565 -2.10834,-16.42844 -2.00247,-15.26175 -1.46595,-16.32053 0.30026,-0.59251 1.02299,-1.32827 1.5861,-1.61615 0.91656,-0.46857 0.97612,-0.4734 7.70517,-0.47462 6.93038,-10e-4 7.06891,-0.0108 8.50424,-0.58277 1.87779,-0.74845 3.49712,-2.36197 4.24159,-4.22959 0.49452,-1.24066 0.58877,-1.95346 0.58877,-4.4579 v -2.25898 l -6.32035,-0.0271 c -6.25177,-0.0271 -6.3245,-0.0304 -6.70484,-0.23432 -0.21148,-0.11335 -0.45892,-0.28709 -0.54972,-0.38751 -0.15657,-0.17313 -0.15242,-0.21089 0.0661,-0.75398 0.78449,-1.94983 1.03833,-4.74091 0.58578,-6.43751 -0.59933,-2.2468 -1.9009,-3.31321 -4.04936,-3.31637 z"
       style="fill:#f5ce85;fill-opacity:1;stroke:none;stroke-width:15.38030243;stroke-linejoin:round;stroke-miterlimit:4;stroke-dasharray:none;stroke-opacity:0.25882353"
       inkscape:connector-curvature="0" />
    <path
       id="path4465"
       d="m 116.46477,939.74791 c -5.28697,0 -9.61268,0.0238 -9.61268,0.0541 0,0.13827 3.75767,29.24781 3.80602,29.48391 0.0666,0.32514 0.45841,0.80167 0.85313,1.04237 0.27792,0.16949 0.64625,0.17989 7.42881,0.18024 h 7.13741 v -15.3803 -15.3803 z"
       style="fill:#ffffff;fill-opacity:1;stroke:none;stroke-width:15.38030243;stroke-linejoin:round;stroke-miterlimit:4;stroke-dasharray:none;stroke-opacity:0.25882353"
       inkscape:connector-curvature="0" />
    <path
       id="circle4442"
       d="m 129.92254,939.74791 v 15.3803 15.3803 h 7.1194 c 5.94031,0 7.1611,-0.022 7.37773,-0.13519 0.37837,-0.19767 0.74861,-0.6331 0.86814,-1.01835 0.0754,-0.24297 3.86011,-29.2246 3.86011,-29.559 0,-0.0258 -4.32571,-0.0481 -9.61269,-0.0481 z"
       style="fill:#ffffff;fill-opacity:1;stroke:none;stroke-width:15.38030243;stroke-linejoin:round;stroke-miterlimit:4;stroke-dasharray:none;stroke-opacity:0.25882353"
       inkscape:connector-curvature="0" />
  </g>
</svg>
