<?xml version="1.0" encoding="UTF-8" standalone="no"?>
<!-- Created with Inkscape (http://www.inkscape.org/) -->

<svg
   xmlns:dc="http://purl.org/dc/elements/1.1/"
   xmlns:cc="http://creativecommons.org/ns#"
   xmlns:rdf="http://www.w3.org/1999/02/22-rdf-syntax-ns#"
   xmlns:svg="http://www.w3.org/2000/svg"
   xmlns="http://www.w3.org/2000/svg"
   xmlns:sodipodi="http://sodipodi.sourceforge.net/DTD/sodipodi-0.dtd"
   xmlns:inkscape="http://www.inkscape.org/namespaces/inkscape"
   width="256"
   height="256"
   viewBox="0 0 256 256"
   id="svg2"
   version="1.1"
   inkscape:version="0.92.3 (2405546, 2018-03-11)"
   sodipodi:docname="devassistant.svg">
  <sodipodi:namedview
     id="base"
     pagecolor="#ffffff"
     bordercolor="#666666"
     borderopacity="1.0"
     inkscape:pageopacity="0.0"
     inkscape:pageshadow="2"
     inkscape:zoom="2.0507812"
     inkscape:cx="25.112378"
     inkscape:cy="128"
     inkscape:document-units="px"
     inkscape:current-layer="layer1"
     showgrid="true"
     units="px"
     inkscape:window-width="1920"
     inkscape:window-height="1048"
     inkscape:window-x="0"
     inkscape:window-y="0"
     inkscape:window-maximized="1">
    <inkscape:grid
       spacingy="5"
       spacingx="5"
       id="grid5364"
       type="xygrid" />
  </sodipodi:namedview>
  <defs
     id="defs4">
    <clipPath
       clipPathUnits="userSpaceOnUse"
       id="clipPath6496">
      <circle
         style="fill:#ec6155;fill-opacity:1;stroke:none;stroke-width:10;stroke-miterlimit:4;stroke-dasharray:none;stroke-opacity:1"
         id="circle6498"
         cx="138.67154"
         cy="923.80737"
         r="128" />
    </clipPath>
  </defs>
  <metadata
     id="metadata7">
    <rdf:RDF>
      <cc:Work
         rdf:about="">
        <dc:format>image/svg+xml</dc:format>
        <dc:type
           rdf:resource="http://purl.org/dc/dcmitype/StillImage" />
        <dc:title />
      </cc:Work>
    </rdf:RDF>
  </metadata>
  <g
     transform="translate(0,-796.36216)"
     id="layer1"
     inkscape:groupmode="layer"
     inkscape:label="Layer 1">
    <g
       id="g866">
      <path
         transform="scale(1,-1)"
         id="path862"
         style="fill:#b73c32;fill-opacity:1;stroke:none;stroke-width:10;stroke-miterlimit:4;stroke-dasharray:none;stroke-opacity:1"
         sodipodi:type="arc"
         sodipodi:cx="128"
         sodipodi:cy="-924.36218"
         sodipodi:rx="128"
         sodipodi:ry="128"
         sodipodi:start="0"
         sodipodi:end="3.1415927"
         d="m 256,-924.36218 a 128,128 0 0 1 -64,110.85125 128,128 0 0 1 -128.000003,0 A 128,128 0 0 1 0,-924.36219 l 128,1e-5 z" />
      <path
         d="m 256,924.36218 a 128,128 0 0 1 -64,110.85122 128,128 0 0 1 -128.000003,0 A 128,128 0 0 1 0,924.36218 l 128,0 z"
         sodipodi:end="3.1415927"
         sodipodi:start="0"
         sodipodi:ry="128"
         sodipodi:rx="128"
         sodipodi:cy="924.36218"
         sodipodi:cx="128"
         sodipodi:type="arc"
         style="fill:#ec6155;fill-opacity:1;stroke:none;stroke-width:10;stroke-miterlimit:4;stroke-dasharray:none;stroke-opacity:1"
         id="path4136" />
    </g>
    <g
       id="g6344"
       transform="translate(-10.67154,0.55481)">
      <g
         id="g6346">
        <path
           style="fill:#3373cc;fill-opacity:1;stroke:none;stroke-width:0.48761904;stroke-miterlimit:4;stroke-dasharray:none;stroke-opacity:1"
           d="m 71.43619,923.75131 c 0,-36.94251 0.05545,-67.16819 0.12323,-67.16819 0.06778,0 15.208348,15.0863 33.64572,33.52512 l 33.52249,33.52514 -33.64572,33.64306 -33.64572,33.64307 0,-67.1682 z m 30.47619,17.67752 17.54921,-17.55429 -17.54921,-17.55428 c -9.652062,-9.65486 -17.714922,-17.55429 -17.917462,-17.55429 -0.20254,0 -0.36825,15.79886 -0.36825,35.10857 0,19.30972 0.16571,35.10857 0.36825,35.10857 0.20254,0 8.2654,-7.89943 17.917462,-17.55428 z"
           id="path6348"
           inkscape:connector-curvature="0" />
        <path
           inkscape:connector-curvature="0"
           id="path6350"
           d="m 138.73873,990.92095 c -36.94246,-0.0608 -67.16801,-0.16604 -67.167899,-0.23382 1.12e-4,-0.0678 15.111321,-15.18349 33.580469,-33.59047 l 33.58029,-33.46725 33.58762,33.70107 33.58763,33.70107 -67.16811,-0.1106 z m 17.72767,-30.44704 -17.52537,-17.57809 -17.58315,17.52028 c -9.67074,9.63616 -17.58343,17.686 -17.58377,17.88854 -3.3e-4,0.20254 15.79824,0.39426 35.10792,0.42606 19.30969,0.0318 35.10879,-0.10791 35.10913,-0.31045 3.3e-4,-0.20254 -7.88581,-8.27839 -17.52476,-17.94634 z"
           style="fill:#205cb2;fill-opacity:1;stroke:none;stroke-width:0.48761904;stroke-miterlimit:4;stroke-dasharray:none;stroke-opacity:1"
           inkscape:transform-center-x="-0.0112115"
           inkscape:transform-center-y="33.70107" />
      </g>
      <path
         style="fill:#e2e3e4;fill-opacity:1;stroke:none;stroke-width:0.48761904;stroke-miterlimit:4;stroke-dasharray:none;stroke-opacity:1"
         d="m 205.90689,923.86339 c 0,36.94251 -0.0555,67.16819 -0.12323,67.16819 -0.0678,0 -15.20835,-15.0863 -33.64572,-33.52512 l -33.52249,-33.52514 33.64572,-33.64306 33.64572,-33.64307 0,67.1682 z m -30.47619,-17.67752 -17.54921,17.55429 17.54921,17.55428 c 9.65206,9.65486 17.71492,17.55429 17.91746,17.55429 0.20254,0 0.36825,-15.79886 0.36825,-35.10857 0,-19.30972 -0.16571,-35.10857 -0.36825,-35.10857 -0.20254,0 -8.2654,7.89943 -17.91746,17.55428 z"
         id="path6352"
         inkscape:connector-curvature="0" />
      <path
         inkscape:connector-curvature="0"
         id="path6354"
         d="m 138.60435,856.69375 c 36.94246,0.0608 67.16801,0.16604 67.1679,0.23382 -1.1e-4,0.0678 -15.11132,15.18349 -33.58047,33.59047 l -33.58029,33.46725 -33.58762,-33.70107 -33.58763,-33.70107 67.16811,0.1106 z m -17.72767,30.44704 17.52537,17.57809 17.58315,-17.52028 c 9.67074,-9.63616 17.58343,-17.686 17.58377,-17.88854 3.3e-4,-0.20254 -15.79824,-0.39426 -35.10792,-0.42606 -19.30969,-0.0318 -35.10879,0.10791 -35.10913,0.31045 -3.3e-4,0.20254 7.88581,8.27839 17.52476,17.94634 z"
         style="fill:#e2e3e4;fill-opacity:1;stroke:none;stroke-width:0.48761904;stroke-miterlimit:4;stroke-dasharray:none;stroke-opacity:1"
         inkscape:transform-center-x="-0.0112115"
         inkscape:transform-center-y="33.70107" />
    </g>
  </g>
</svg>
