<?xml version="1.0" encoding="UTF-8" standalone="no"?>
<!-- Created with Inkscape (http://www.inkscape.org/) -->

<svg
   xmlns:dc="http://purl.org/dc/elements/1.1/"
   xmlns:cc="http://creativecommons.org/ns#"
   xmlns:rdf="http://www.w3.org/1999/02/22-rdf-syntax-ns#"
   xmlns:svg="http://www.w3.org/2000/svg"
   xmlns="http://www.w3.org/2000/svg"
   xmlns:sodipodi="http://sodipodi.sourceforge.net/DTD/sodipodi-0.dtd"
   xmlns:inkscape="http://www.inkscape.org/namespaces/inkscape"
   sodipodi:docname="firefox.svg"
   inkscape:version="0.92.3 (2405546, 2018-03-11)"
   version="1.1"
   id="svg2"
   viewBox="0 0 256 256"
   height="256"
   width="256">
  <sodipodi:namedview
     inkscape:window-maximized="1"
     inkscape:window-y="0"
     inkscape:window-x="0"
     inkscape:window-height="1048"
     inkscape:window-width="1920"
     units="px"
     showgrid="false"
     inkscape:current-layer="layer1"
     inkscape:document-units="px"
     inkscape:cy="128"
     inkscape:cx="42.261558"
     inkscape:zoom="2.0507812"
     inkscape:pageshadow="2"
     inkscape:pageopacity="0.0"
     borderopacity="1.0"
     bordercolor="#666666"
     pagecolor="#ffffff"
     id="base" />
  <defs
     id="defs4">
    <clipPath
       id="clipPath5002"
       clipPathUnits="userSpaceOnUse">
      <g
         id="g5004">
        <path
           style="fill:#0f9d58;fill-opacity:1;stroke:none;stroke-width:4.85768509;stroke-linejoin:round;stroke-miterlimit:4;stroke-dasharray:none;stroke-opacity:1"
           d="M 88.118406,249.43519 C 46.103287,235.29134 14.771284,201.68742 4.1335861,159.36053 1.3377997,148.23623 0.92261224,144.16281 0.92582381,127.88908 0.92787958,117.47222 1.134384,112.01362 1.6577819,108.54099 4.4653598,89.913336 12.17654,70.638106 23.042737,55.086148 c 3.958678,-5.665755 8.344812,-10.93092 9.101533,-10.925587 0.32809,0.0023 10.488643,18.309713 22.579009,40.683112 12.090365,22.373397 22.374546,41.334697 22.853732,42.136217 0.479186,0.80151 0.924733,2.44098 0.990103,3.64326 0.343424,6.31639 2.524175,14.20976 5.6424,20.42304 2.954444,5.88693 5.065381,8.73258 10.434696,14.06652 6.71418,6.66995 12.88853,10.28643 21.73204,12.72904 3.16587,0.87442 5.10478,1.05037 11.57517,1.05037 8.82596,0 12.60219,-0.76201 19.26429,-3.88733 2.04584,-0.95974 3.93661,-1.66536 4.20172,-1.56805 0.2651,0.0973 -11.0555,17.66459 -25.1569,39.0384 l -25.6389,38.86148 -3.094121,0.11221 c -2.554618,0.0927 -4.195204,-0.25845 -9.409103,-2.01364 z"
           id="path5006"
           inkscape:connector-curvature="0"
           transform="translate(0,796.36216)" />
        <path
           style="fill:#f4b400;fill-opacity:1;stroke:none;stroke-width:4.85768509;stroke-linejoin:round;stroke-miterlimit:4;stroke-dasharray:none;stroke-opacity:1"
           d="m 112.35984,1051.5167 c -10.0014,-1.4495 -12.15632,-1.8201 -12.531784,-2.1556 -0.248854,-0.2223 1.738304,-3.7475 4.550294,-8.0722 7.16635,-11.0213 49.77231,-74.64801 50.25856,-75.05489 3.57509,-2.99158 8.63523,-8.0414 10.57512,-10.55356 3.36154,-4.35318 7.55784,-12.9141 9.06523,-18.494 6.19314,-22.92535 -2.59253,-47.15185 -21.69967,-59.83688 l -2.96081,-1.96565 17.02469,0.29584 c 9.36358,0.1627 31.17032,0.43384 48.45941,0.60252 l 31.43471,0.30668 1.54584,4.18869 c 2.24597,6.08579 4.67816,15.0947 5.93451,21.9816 1.52517,8.36049 1.92536,28.85896 0.73851,37.82758 -3.0805,23.27845 -12.81326,45.72018 -27.80202,64.10577 -20.47622,25.1166 -51.4599,42.1974 -84.14612,46.3885 -5.31244,0.6812 -26.64601,0.9864 -30.44647,0.4356 z"
           id="path5008"
           inkscape:connector-curvature="0" />
        <path
           style="fill:#db4437;fill-opacity:1;stroke:none;stroke-width:10;stroke-linejoin:round;stroke-miterlimit:4;stroke-dasharray:none;stroke-opacity:1"
           d="M 67.989788,108.87302 C 41.284246,59.575543 33.290284,45.149038 32.233625,44.344765 31.651257,43.901497 32.811213,42.549931 38.695603,36.815353 53.43581,22.450419 68.809334,13.040746 87.839196,6.7360352 101.68742,2.1480329 112.58238,0.43719165 127.95142,0.43719165 c 21.3099,0 37.80488,3.80960275 56.83492,13.12633035 25.29351,12.383198 46.19421,33.578863 58.51993,59.345832 1.61138,3.368591 2.92978,6.372442 2.92978,6.675231 0,0.560033 -10.54865,0.49527 -71.16508,-0.436914 l -24.28843,-0.373518 -3.93063,-1.764495 c -6.75732,-3.033425 -10.64587,-3.839529 -18.6576,-3.867747 -5.0296,-0.01773 -7.97946,0.207636 -10.31642,0.788106 -14.50826,3.603659 -26.283291,12.94777 -33.291614,26.418653 -3.58502,6.89086 -5.24713,13.08166 -6.331628,23.58317 l -0.33738,3.26696 -9.92748,-18.32578 z"
           id="path5010"
           inkscape:connector-curvature="0"
           transform="translate(0,796.36216)" />
      </g>
    </clipPath>
    <radialGradient
       gradientUnits="userSpaceOnUse"
       gradientTransform="matrix(0.7100982,0,0,-0.69667735,-12.931184,1000.262)"
       r="322.22"
       cy="216.92"
       cx="278.95999"
       id="SVGID21">
      <stop
         id="stop131"
         stop-color="#ffffff"
         offset="0.119" />
      <stop
         id="stop133"
         stop-color="#fffffa"
         offset="0.122" />
      <stop
         id="stop135"
         stop-color="#ffe560"
         offset="0.25" />
      <stop
         id="stop137"
         stop-color="#ffdf56"
         offset="0.287" />
      <stop
         id="stop139"
         stop-color="#f8d03b"
         offset="0.347" />
      <stop
         id="stop141"
         stop-color="#f0be1b"
         offset="0.406" />
      <stop
         id="stop143"
         stop-color="#eb9d23"
         offset="0.473" />
      <stop
         id="stop145"
         stop-color="#e57c27"
         offset="0.548" />
      <stop
         id="stop147"
         stop-color="#dd5626"
         offset="0.765" />
      <stop
         id="stop149"
         stop-color="#c33a28"
         offset="0.903" />
      <stop
         id="stop151"
         stop-color="#b02228"
         offset="1" />
    </radialGradient>
    <clipPath
       id="clipPath6128"
       clipPathUnits="userSpaceOnUse">
      <circle
         style="opacity:1;fill:#4285f4;fill-opacity:1;stroke:none;stroke-width:20.51976967;stroke-linecap:round;stroke-linejoin:round;stroke-miterlimit:4;stroke-dasharray:none;stroke-opacity:1"
         id="circle6130"
         cx="128"
         cy="925.362"
         r="128" />
    </clipPath>
    <clipPath
       clipPathUnits="userSpaceOnUse"
       id="clipPath6618">
      <circle
         style="opacity:1;fill:#4285f4;fill-opacity:1;stroke:none;stroke-width:20.51976967;stroke-linecap:round;stroke-linejoin:round;stroke-miterlimit:4;stroke-dasharray:none;stroke-opacity:1"
         id="circle6620"
         cx="128"
         cy="925.362"
         r="128" />
    </clipPath>
  </defs>
  <metadata
     id="metadata7">
    <rdf:RDF>
      <cc:Work
         rdf:about="">
        <dc:format>image/svg+xml</dc:format>
        <dc:type
           rdf:resource="http://purl.org/dc/dcmitype/StillImage" />
        <dc:title />
      </cc:Work>
    </rdf:RDF>
  </metadata>
  <g
     inkscape:label="Layer 1"
     inkscape:groupmode="layer"
     id="layer1"
     transform="translate(0,-796.36216)">
    <g
       id="g994"
       transform="translate(256.24382,41.691445)">
      <path
         transform="scale(1,-1)"
         d="m -0.24382019,-882.67072 a 128,128 0 0 1 -64.00000181,110.85126 128,128 0 0 1 -127.999998,-10e-6 128,128 0 0 1 -64,-110.85125 l 128,0 z"
         sodipodi:end="3.1415927"
         sodipodi:start="0"
         sodipodi:ry="128"
         sodipodi:rx="128"
         sodipodi:cy="-882.67072"
         sodipodi:cx="-128.24382"
         sodipodi:type="arc"
         id="path915"
         style="opacity:1;fill:#345281;fill-opacity:1;stroke:none;stroke-width:59.1206665;stroke-miterlimit:4;stroke-dasharray:none;stroke-opacity:1" />
      <path
         style="opacity:1;fill:#4285f4;fill-opacity:1;stroke:none;stroke-width:59.1206665;stroke-miterlimit:4;stroke-dasharray:none;stroke-opacity:1"
         id="path917"
         sodipodi:type="arc"
         sodipodi:cx="-128.24382"
         sodipodi:cy="882.67072"
         sodipodi:rx="128"
         sodipodi:ry="128"
         sodipodi:start="0"
         sodipodi:end="3.1415927"
         d="m -0.24382019,882.67072 a 128,128 0 0 1 -64.00000181,110.85125 128,128 0 0 1 -127.999998,0 128,128 0 0 1 -64,-110.85126 l 128,10e-6 z" />
    </g>
    <path
       style="fill:none;fill-rule:evenodd;stroke:none;stroke-width:1px;stroke-linecap:butt;stroke-linejoin:miter;stroke-opacity:1"
       d="M 154.47438,968.80998 101.03985,1048.476 0.4857685,1048.9618 0,842.0244 l 33.032258,-2.42884 45.176471,83.55218 21.373814,35.4611 26.717267,13.11575 z"
       id="path4913"
       inkscape:connector-curvature="0" />
    <path
       transform="translate(0,-0.99983951)"
       inkscape:connector-curvature="0"
       style="fill:#f95f27;fill-opacity:1"
       id="path6132"
       d="m 231.56636,1002.8706 c 7.57667,-14.21647 17.80921,-22.57433 23.35508,-32.41631 7.34243,-13.1227 21.32424,-49.91285 10.77933,-79.67309 4.84291,18.59036 3.28063,37.49327 -12.02908,47.02265 4.99902,-13.12249 8.04549,-41.86728 2.96815,-67.80005 -3.35874,-16.87209 -13.90364,-31.94731 -20.69925,-36.63402 6.32691,4.76478 11.40407,21.71476 11.24788,29.52585 -13.20069,-22.26152 -34.83739,-43.58578 -67.48771,-52.56848 25.38597,16.71568 34.83738,30.93181 40.77388,43.58566 -6.79569,-6.95176 -18.35606,-14.13797 -26.24522,-14.76277 11.7166,8.74837 31.40049,34.68116 29.29131,73.97099 -3.04609,-6.32711 -8.51392,-16.24711 -12.4195,-19.684 4.2181,38.58672 0.54685,46.86663 -2.03081,57.09896 -0.54684,-4.68667 -2.26521,-8.27961 -3.20259,-10.3887 0,0 -0.46865,12.02906 -8.27983,29.21349 -5.93636,13.04458 -12.02894,17.02821 -14.76287,16.55953 -0.70287,-0.078 -1.09352,-0.39054 -1.09352,-0.39054 0.15617,-1.7186 0.39065,-3.43694 -0.0781,-4.60843 0,0 -2.49957,0.859 -4.14014,3.12431 -0.6247,0.93726 -1.48388,1.79651 -2.57745,2.65568 -0.1562,0.15623 1.79657,-2.49948 1.64051,-2.4214 -0.93751,0.78123 -2.03111,1.71844 -3.04655,2.81197 -3.82739,3.98362 -7.34238,8.43595 -9.13889,7.18623 1.64047,-0.54679 3.04634,-2.65585 3.35879,-4.76473 -1.48429,1.09351 -5.31157,3.90551 -13.90381,5.2334 -3.51492,0.54684 -18.43411,3.28059 -38.35238,-6.71754 2.89007,-0.31259 7.26436,-1.32793 10.54495,0.62487 -3.28059,-3.59297 -11.32607,-2.89015 -17.02824,-4.68655 -4.99907,-1.56222 -11.482206,-8.59228 -15.231546,-12.10743 15.309756,3.74951 31.556846,1.01559 40.930266,-5.38963 9.52918,-6.48314 15.15336,-11.24798 20.15245,-10.07631 4.99904,1.09367 8.35781,-3.90549 4.45223,-8.43584 -3.90551,-4.53046 -13.43509,-10.54496 -26.32337,-7.34242 -9.91999,2.49944 -18.27786,10.38862 -32.18159,4.92101 -0.859186,-0.31248 -1.718436,-0.70303 -2.577816,-1.17172 -0.85902,-0.46865 2.890256,0.54681 1.952826,0 -2.655656,-1.01546 -7.498517,-3.20255 -8.748317,-4.06158 -0.234304,-0.15637 2.030931,0.39035 1.796601,0.23402 -13.200808,-7.81099 -12.341569,-14.05985 -12.341569,-17.88738 0,-3.12429 1.874648,-7.26414 5.38964,-9.21689 1.874674,0.70294 3.046316,1.32781 3.046316,1.32781 0,0 -0.859188,-1.32781 -1.406057,-2.03084 0.156265,-0.0782 0.234415,-0.0782 0.390595,-0.15622 1.562237,0.54687 5.077165,1.79671 6.795675,2.73378 2.4214,1.17177 3.20254,2.42146 3.20254,2.42146 0,0 0.54678,-0.39047 0,-1.56211 -0.23431,-0.54683 -1.09353,-2.03094 -3.43688,-3.43691 0.0781,0 0.0781,0 0.0781,0 1.2498,0.46864 2.57767,1.09346 3.98366,1.95274 0.46864,-2.10896 1.327856,-4.29614 0.78113,-8.1235 -0.46853,-2.73388 -0.39053,-3.35874 -1.01543,-4.3742 -0.5468,-0.85918 0.15624,-1.17173 1.01543,-0.46867 -0.23437,-0.70306 -0.54682,-1.32783 -0.85919,-2.03067 0,0 0,0 0,0 0.70297,-3.35894 20.543156,-13.7477 22.027266,-14.84125 2.03083,-1.48415 4.1398,-3.82744 5.46769,-6.56134 0.93737,-1.71842 1.64035,-4.13988 1.4841,-7.73304 -0.1562,-2.57751 -1.64036,-4.13959 -22.80831,-3.90552 -5.780076,0.0785 -9.529526,-3.28056 -11.794736,-6.48308 -0.468677,-0.70309 -0.859281,-1.32798 -1.249783,-1.95277 -0.468685,-0.85929 -0.85923,-1.71859 -1.093542,-2.34341 2.499415,-9.13897 7.576765,-17.10623 15.465951,-23.58942 0.46862,-0.39061 -1.87469,0.23424 -1.40602,-0.15636 0.54678,-0.46843 3.90556,-2.10883 4.53041,-2.42114 0.78115,-0.46886 -3.67121,-1.64045 -7.42054,-0.85935 -3.827576,0.78105 -4.530406,1.24969 -6.561266,2.26511 0.78095,-0.85912 3.35879,-2.10896 2.73369,-2.03084 -4.1396,0.93739 -9.060668,3.67122 -13.200586,6.56135 0,-0.39055 0,-0.70297 0.07822,-1.24976 -1.952764,1.0154 -6.717517,4.68661 -7.889179,7.42046 0,-0.62477 0,-0.9373 -0.07813,-1.56219 -1.327893,1.24982 -2.655772,2.7339 -3.827419,4.29611 0,0 0,0.0778 -0.07818,0.0778 -12.341509,-3.04618 -22.808345,-2.34319 -31.634865,0.46881 -2.109002,-1.48414 -5.467768,-3.82752 -10.779299,-12.02919 -0.31245,-0.46861 -0.31245,1.09361 -0.624891,0.62497 -2.108989,-3.74945 -3.827428,-10.15439 -4.06176,-14.68482 0,0 -3.436873,1.95279 -5.623964,8.98265 -0.390575,1.24984 -0.703012,1.95272 -0.937341,2.65571 -0.07814,0.23448 0.15622,-2.26515 0.07816,-2.03076 -0.390563,0.85917 -1.640311,2.26524 -2.030871,3.82744 -0.312421,1.17173 -0.781104,1.87471 -0.937333,3.35885 0,0 0,0.0778 -0.07814,0.0778 0,-0.39055 -0.07813,-1.71843 -0.156213,-1.48406 -1.015451,2.57756 -1.874671,5.54576 -2.655769,8.90461 -1.093558,5.3115 -2.187116,12.57568 -1.484118,21.79296 0,0.78102 0.07813,1.48411 0.07813,2.10885 -3.3587774,4.60865 -5.4677764,8.51431 -6.3269954,10.46713 -4.0617601,7.88904 -8.2016341,20.07436 -11.5603961,38.97714 0,0 2.2652187,-7.1081 6.7175355,-15.15353 -3.2806626,10.15441 -5.9364256,25.93279 -4.3742053,49.60035 0.078099,-0.78109 0.781099,-6.79564 2.4995411,-14.84101 0.859221,15.77825 4.6085438,35.07184 16.8719352,56.08361 9.373291,16.01255 33.978197,53.19315 95.763709,67.09725 -6.79547,-1.9529 -11.01344,-5.8582 -11.01344,-5.8582 0,0 23.12083,7.4199 39.91451,6.7955 -5.31146,-0.9373 -6.32688,-3.4366 -6.32688,-3.4366 0,0 59.91101,3.358 80.61025,-24.8394 -7.10801,8.28 -24.99542,10.6223 -31.79098,10.7014 10.31059,-9.4526 33.11897,-9.2951 57.88014,-33.589 13.59108,-13.35601 14.99715,-23.51041 16.48124,-32.96173 -1.95278,12.34142 -13.82545,19.8401 -26.16705,26.63523 z"
       clip-path="url(#clipPath6128)" />
  </g>
</svg>
