<?xml version="1.0" encoding="UTF-8" standalone="no"?>
<!-- Created with Inkscape (http://www.inkscape.org/) -->

<svg
   xmlns:dc="http://purl.org/dc/elements/1.1/"
   xmlns:cc="http://creativecommons.org/ns#"
   xmlns:rdf="http://www.w3.org/1999/02/22-rdf-syntax-ns#"
   xmlns:svg="http://www.w3.org/2000/svg"
   xmlns="http://www.w3.org/2000/svg"
   xmlns:sodipodi="http://sodipodi.sourceforge.net/DTD/sodipodi-0.dtd"
   xmlns:inkscape="http://www.inkscape.org/namespaces/inkscape"
   sodipodi:docname="franz.svg"
   inkscape:version="0.92.3 (2405546, 2018-03-11)"
   version="1.1"
   id="svg2"
   viewBox="0 0 256 256"
   height="256"
   width="256">
  <sodipodi:namedview
     inkscape:window-maximized="1"
     inkscape:window-y="0"
     inkscape:window-x="0"
     inkscape:window-height="1048"
     inkscape:window-width="1920"
     units="px"
     showgrid="true"
     inkscape:current-layer="layer1"
     inkscape:document-units="px"
     inkscape:cy="127.99997"
     inkscape:cx="128"
     inkscape:zoom="3.3124997"
     inkscape:pageshadow="2"
     inkscape:pageopacity="0.0"
     borderopacity="1.0"
     bordercolor="#666666"
     pagecolor="#ffffff"
     id="base">
    <inkscape:grid
       type="xygrid"
       id="grid4183" />
  </sodipodi:namedview>
  <defs
     id="defs4">
    <clipPath
       clipPathUnits="userSpaceOnUse"
       id="clipPath5002">
      <g
         id="g5004">
        <path
           transform="translate(0,796.36216)"
           inkscape:connector-curvature="0"
           id="path5006"
           d="M 88.118406,249.43519 C 46.103287,235.29134 14.771284,201.68742 4.1335861,159.36053 1.3377997,148.23623 0.92261224,144.16281 0.92582381,127.88908 0.92787958,117.47222 1.134384,112.01362 1.6577819,108.54099 4.4653598,89.913336 12.17654,70.638106 23.042737,55.086148 c 3.958678,-5.665755 8.344812,-10.93092 9.101533,-10.925587 0.32809,0.0023 10.488643,18.309713 22.579009,40.683112 12.090365,22.373397 22.374546,41.334697 22.853732,42.136217 0.479186,0.80151 0.924733,2.44098 0.990103,3.64326 0.343424,6.31639 2.524175,14.20976 5.6424,20.42304 2.954444,5.88693 5.065381,8.73258 10.434696,14.06652 6.71418,6.66995 12.88853,10.28643 21.73204,12.72904 3.16587,0.87442 5.10478,1.05037 11.57517,1.05037 8.82596,0 12.60219,-0.76201 19.26429,-3.88733 2.04584,-0.95974 3.93661,-1.66536 4.20172,-1.56805 0.2651,0.0973 -11.0555,17.66459 -25.1569,39.0384 l -25.6389,38.86148 -3.094121,0.11221 c -2.554618,0.0927 -4.195204,-0.25845 -9.409103,-2.01364 z"
           style="fill:#0f9d58;fill-opacity:1;stroke:none;stroke-width:4.85768509;stroke-linejoin:round;stroke-miterlimit:4;stroke-dasharray:none;stroke-opacity:1" />
        <path
           inkscape:connector-curvature="0"
           id="path5008"
           d="m 112.35984,1051.5167 c -10.0014,-1.4495 -12.15632,-1.8201 -12.531784,-2.1556 -0.248854,-0.2223 1.738304,-3.7475 4.550294,-8.0722 7.16635,-11.0213 49.77231,-74.64801 50.25856,-75.05489 3.57509,-2.99158 8.63523,-8.0414 10.57512,-10.55356 3.36154,-4.35318 7.55784,-12.9141 9.06523,-18.494 6.19314,-22.92535 -2.59253,-47.15185 -21.69967,-59.83688 l -2.96081,-1.96565 17.02469,0.29584 c 9.36358,0.1627 31.17032,0.43384 48.45941,0.60252 l 31.43471,0.30668 1.54584,4.18869 c 2.24597,6.08579 4.67816,15.0947 5.93451,21.9816 1.52517,8.36049 1.92536,28.85896 0.73851,37.82758 -3.0805,23.27845 -12.81326,45.72018 -27.80202,64.10577 -20.47622,25.1166 -51.4599,42.1974 -84.14612,46.3885 -5.31244,0.6812 -26.64601,0.9864 -30.44647,0.4356 z"
           style="fill:#f4b400;fill-opacity:1;stroke:none;stroke-width:4.85768509;stroke-linejoin:round;stroke-miterlimit:4;stroke-dasharray:none;stroke-opacity:1" />
        <path
           transform="translate(0,796.36216)"
           inkscape:connector-curvature="0"
           id="path5010"
           d="M 67.989788,108.87302 C 41.284246,59.575543 33.290284,45.149038 32.233625,44.344765 31.651257,43.901497 32.811213,42.549931 38.695603,36.815353 53.43581,22.450419 68.809334,13.040746 87.839196,6.7360352 101.68742,2.1480329 112.58238,0.43719165 127.95142,0.43719165 c 21.3099,0 37.80488,3.80960275 56.83492,13.12633035 25.29351,12.383198 46.19421,33.578863 58.51993,59.345832 1.61138,3.368591 2.92978,6.372442 2.92978,6.675231 0,0.560033 -10.54865,0.49527 -71.16508,-0.436914 l -24.28843,-0.373518 -3.93063,-1.764495 c -6.75732,-3.033425 -10.64587,-3.839529 -18.6576,-3.867747 -5.0296,-0.01773 -7.97946,0.207636 -10.31642,0.788106 -14.50826,3.603659 -26.283291,12.94777 -33.291614,26.418653 -3.58502,6.89086 -5.24713,13.08166 -6.331628,23.58317 l -0.33738,3.26696 -9.92748,-18.32578 z"
           style="fill:#db4437;fill-opacity:1;stroke:none;stroke-width:10;stroke-linejoin:round;stroke-miterlimit:4;stroke-dasharray:none;stroke-opacity:1" />
      </g>
    </clipPath>
    <clipPath
       id="clipPath4253"
       clipPathUnits="userSpaceOnUse">
      <circle
         r="128"
         cy="924.36218"
         cx="128"
         id="circle4255"
         style="fill:#bababa;fill-opacity:1;stroke:none;stroke-width:0.1;stroke-linecap:round;stroke-linejoin:round;stroke-miterlimit:4;stroke-dasharray:none;stroke-opacity:1" />
    </clipPath>
    <clipPath
       clipPathUnits="userSpaceOnUse"
       id="clipPath4350">
      <circle
         r="128"
         cy="924.36218"
         cx="128"
         id="circle4352"
         style="fill:#7e7e7e;fill-opacity:1;stroke:none;stroke-width:0.1;stroke-linecap:round;stroke-linejoin:round;stroke-miterlimit:4;stroke-dasharray:none;stroke-opacity:1" />
    </clipPath>
    <clipPath
       id="clipPath4303"
       clipPathUnits="userSpaceOnUse">
      <circle
         r="128"
         cy="924.36218"
         cx="128"
         id="circle4305"
         style="fill:#a8c6d4;fill-opacity:1;stroke:none;stroke-width:0.1;stroke-linecap:round;stroke-linejoin:round;stroke-miterlimit:4;stroke-dasharray:none;stroke-opacity:1" />
    </clipPath>
    <clipPath
       clipPathUnits="userSpaceOnUse"
       id="clipPath4476">
      <circle
         r="125.57204"
         cy="918.48175"
         cx="16.908138"
         id="circle4478"
         style="fill:#58b8f8;fill-opacity:1;stroke:none;stroke-width:0.1;stroke-linecap:round;stroke-linejoin:round;stroke-miterlimit:4;stroke-dasharray:none;stroke-opacity:1" />
    </clipPath>
  </defs>
  <metadata
     id="metadata7">
    <rdf:RDF>
      <cc:Work
         rdf:about="">
        <dc:format>image/svg+xml</dc:format>
        <dc:type
           rdf:resource="http://purl.org/dc/dcmitype/StillImage" />
        <dc:title />
      </cc:Work>
    </rdf:RDF>
  </metadata>
  <g
     transform="translate(0,-796.36216)"
     id="layer1"
     inkscape:groupmode="layer"
     inkscape:label="Layer 1">
    <path
       d="m 256,-924.36218 a 128,128 0 0 1 -64,110.85125 128,128 0 0 1 -128.000003,0 A 128,128 0 0 1 0,-924.36219 l 128,1e-5 z"
       sodipodi:end="3.1415927"
       sodipodi:start="0"
       sodipodi:ry="128"
       sodipodi:rx="128"
       sodipodi:cy="-924.36218"
       sodipodi:cx="128"
       sodipodi:type="arc"
       id="path900"
       style="fill:#3793cf;fill-opacity:1;stroke:none;stroke-width:0.1;stroke-linecap:round;stroke-linejoin:round;stroke-miterlimit:4;stroke-dasharray:none;stroke-opacity:1"
       transform="scale(1,-1)" />
    <path
       style="fill:#55b5f4;fill-opacity:1;stroke:none;stroke-width:0.1;stroke-linecap:round;stroke-linejoin:round;stroke-miterlimit:4;stroke-dasharray:none;stroke-opacity:1"
       id="path4152"
       sodipodi:type="arc"
       sodipodi:cx="128"
       sodipodi:cy="924.36218"
       sodipodi:rx="128"
       sodipodi:ry="128"
       sodipodi:start="0"
       sodipodi:end="3.1415927"
       d="m 256,924.36218 a 128,128 0 0 1 -64,110.85122 128,128 0 0 1 -128.000003,0 A 128,128 0 0 1 0,924.36218 l 128,0 z" />
    <g
       style="fill:#ffffff;fill-opacity:1"
       transform="matrix(1.0193352,0,0,1.0193352,110.76494,-11.878571)"
       id="g4209">
      <path
         inkscape:connector-curvature="0"
         style="fill:#ffffff;fill-opacity:1"
         d="m -17.685555,971.07518 c 2.381954,-1.56071 2.558933,-2.2131 2.551124,-9.404 l -0.0084,-7.72695 -13.241609,-0.16424 c -7.282876,-0.0903 -16.3916,-0.82981 -20.2416,-1.64329 -3.85,-0.81348 -7.158348,-1.33123 -7.351884,-1.15055 -0.696208,0.64997 3.021851,10.41383 5.163501,13.55968 3.051035,4.48165 6.443555,6.76172 11.689891,7.85672 6.680761,1.3945 18.391572,0.6694 21.438977,-1.32737 z"
         id="path4203" />
      <path
         inkscape:connector-curvature="0"
         style="fill:#ffffff;fill-opacity:1"
         d="m 77.987469,972.43475 c 6.08456,-1.1403 9.39397,-3.2165 12.57487,-7.88892 2.4141,-3.54604 5.81829,-12.92827 4.99099,-13.75556 -0.28842,-0.28842 -4.04676,0.20494 -8.35188,1.09634 -4.30512,0.89141 -13.35765,1.90188 -20.11674,2.24549 l -12.28925,0.62475 0.28925,7.59369 c 0.28855,7.57519 0.29778,7.59795 3.78925,9.34211 3.94612,1.9713 11.07719,2.2482 19.11351,0.7421 z"
         id="path4201" />
      <path
         inkscape:connector-curvature="0"
         style="fill:#ffffff;fill-opacity:1"
         d="m -8.8425203,942.79784 c 6.37136,-1.85489 14.5792,-6.32404 21.0971103,-11.48733 2.68434,-2.12645 5.64319,-3.86628 6.57521,-3.86628 0.93202,0 4.36073,2.07262 7.61937,4.60582 12.5735,9.7744 22.01727,12.87992 38.500399,12.66056 25.65557,-0.34143 46.924391,-8.42347 46.924391,-17.83103 0,-4.23679 -2.08499,-5.87475 -6.24084,-4.90279 -6.710211,1.56937 -17.011681,0.89139 -23.259161,-1.53077 -4.96125,-1.92349 -8.0775,-4.34704 -18,-13.99881 -6.6,-6.41993 -13.11263,-12.42193 -14.47251,-13.33779 -3.830489,-2.57977 -9.911069,-2.01884 -19.889439,1.83481 -4.98446,1.925 -9.92594,3.5 -10.98106,3.5 -1.05513,0 -6.26942,-1.575 -11.5873103,-3.5 -10.8739,-3.93619 -15.69578,-4.3339 -20.0696797,-1.65534 -1.65,1.01045 -7.05,5.99785 -12,11.08311 -10.81999,11.11565 -15.151307,14.25976 -23.534824,17.08396 -6.337172,2.13484 -12.303902,2.27111 -20.626302,0.47107 -2.661581,-0.57567 -3.416411,-0.2941 -4.776568,1.78177 -4.183166,6.38431 5.698208,14.48678 22.437694,18.39834 14.621272,3.41659 31.948215,3.69963 42.2835197,0.6907 z"
         id="path4199" />
      <path
         inkscape:connector-curvature="0"
         style="fill:#ffffff;fill-opacity:1"
         d="m -46.53473,910.8539 c 2.800221,-1.32082 5.812828,-3.19876 6.694683,-4.17319 1.481147,-1.63665 1.381043,-2.22775 -1.313198,-7.7541 -1.842099,-3.77845 -3.878129,-10.95581 -5.526647,-19.48238 -2.63761,-13.64241 -4.313803,-18 -6.923888,-18 -2.010291,0 -2.33719,3.22437 -3.019306,29.78098 l -0.597981,23.28097 2.797514,-0.6254 c 1.538632,-0.34397 5.088603,-1.70607 7.888823,-3.02688 z"
         id="path4197" />
      <path
         inkscape:connector-curvature="0"
         style="fill:#ffffff;fill-opacity:1"
         d="m 96.389139,891.19423 c -0.69758,-26.52148 -1.02721,-29.75 -3.03744,-29.75 -2.63827,0 -4.30527,4.40341 -7.34307,19.39679 -2.33868,11.54283 -3.71326,16.01488 -6.10527,19.86281 -2.48528,3.99799 -2.85196,5.24928 -1.88105,6.41915 2.25179,2.71324 12.59819,7.08588 17.16501,7.25435 1.71793,0.0634 1.78118,-1.15672 1.20182,-23.1831 z"
         id="path4195" />
    </g>
  </g>
</svg>
