<?xml version="1.0" encoding="UTF-8" standalone="no"?>
<!-- Created with Inkscape (http://www.inkscape.org/) -->

<svg
   xmlns:dc="http://purl.org/dc/elements/1.1/"
   xmlns:cc="http://creativecommons.org/ns#"
   xmlns:rdf="http://www.w3.org/1999/02/22-rdf-syntax-ns#"
   xmlns:svg="http://www.w3.org/2000/svg"
   xmlns="http://www.w3.org/2000/svg"
   xmlns:sodipodi="http://sodipodi.sourceforge.net/DTD/sodipodi-0.dtd"
   xmlns:inkscape="http://www.inkscape.org/namespaces/inkscape"
   sodipodi:docname="freecad.svg"
   inkscape:version="0.92.3 (2405546, 2018-03-11)"
   version="1.1"
   id="svg2"
   viewBox="0 0 256 256"
   height="256"
   width="256">
  <sodipodi:namedview
     inkscape:window-maximized="1"
     inkscape:window-y="0"
     inkscape:window-x="0"
     inkscape:window-height="1048"
     inkscape:window-width="1920"
     units="px"
     showgrid="true"
     inkscape:current-layer="layer1"
     inkscape:document-units="px"
     inkscape:cy="128"
     inkscape:cx="128"
     inkscape:zoom="3.3125"
     inkscape:pageshadow="2"
     inkscape:pageopacity="0.0"
     borderopacity="1.0"
     bordercolor="#666666"
     pagecolor="#ffffff"
     id="base">
    <inkscape:grid
       spacingy="5"
       spacingx="5"
       id="grid4168"
       type="xygrid" />
  </sodipodi:namedview>
  <defs
     id="defs4">
    <clipPath
       id="clipPath5002"
       clipPathUnits="userSpaceOnUse">
      <g
         id="g5004">
        <path
           style="fill:#0f9d58;fill-opacity:1;stroke:none;stroke-width:4.85768509;stroke-linejoin:round;stroke-miterlimit:4;stroke-dasharray:none;stroke-opacity:1"
           d="M 88.118406,249.43519 C 46.103287,235.29134 14.771284,201.68742 4.1335861,159.36053 1.3377997,148.23623 0.92261224,144.16281 0.92582381,127.88908 0.92787958,117.47222 1.134384,112.01362 1.6577819,108.54099 4.4653598,89.913336 12.17654,70.638106 23.042737,55.086148 c 3.958678,-5.665755 8.344812,-10.93092 9.101533,-10.925587 0.32809,0.0023 10.488643,18.309713 22.579009,40.683112 12.090365,22.373397 22.374546,41.334697 22.853732,42.136217 0.479186,0.80151 0.924733,2.44098 0.990103,3.64326 0.343424,6.31639 2.524175,14.20976 5.6424,20.42304 2.954444,5.88693 5.065381,8.73258 10.434696,14.06652 6.71418,6.66995 12.88853,10.28643 21.73204,12.72904 3.16587,0.87442 5.10478,1.05037 11.57517,1.05037 8.82596,0 12.60219,-0.76201 19.26429,-3.88733 2.04584,-0.95974 3.93661,-1.66536 4.20172,-1.56805 0.2651,0.0973 -11.0555,17.66459 -25.1569,39.0384 l -25.6389,38.86148 -3.094121,0.11221 c -2.554618,0.0927 -4.195204,-0.25845 -9.409103,-2.01364 z"
           id="path5006"
           inkscape:connector-curvature="0"
           transform="translate(0,796.36216)" />
        <path
           style="fill:#f4b400;fill-opacity:1;stroke:none;stroke-width:4.85768509;stroke-linejoin:round;stroke-miterlimit:4;stroke-dasharray:none;stroke-opacity:1"
           d="m 112.35984,1051.5167 c -10.0014,-1.4495 -12.15632,-1.8201 -12.531784,-2.1556 -0.248854,-0.2223 1.738304,-3.7475 4.550294,-8.0722 7.16635,-11.0213 49.77231,-74.64801 50.25856,-75.05489 3.57509,-2.99158 8.63523,-8.0414 10.57512,-10.55356 3.36154,-4.35318 7.55784,-12.9141 9.06523,-18.494 6.19314,-22.92535 -2.59253,-47.15185 -21.69967,-59.83688 l -2.96081,-1.96565 17.02469,0.29584 c 9.36358,0.1627 31.17032,0.43384 48.45941,0.60252 l 31.43471,0.30668 1.54584,4.18869 c 2.24597,6.08579 4.67816,15.0947 5.93451,21.9816 1.52517,8.36049 1.92536,28.85896 0.73851,37.82758 -3.0805,23.27845 -12.81326,45.72018 -27.80202,64.10577 -20.47622,25.1166 -51.4599,42.1974 -84.14612,46.3885 -5.31244,0.6812 -26.64601,0.9864 -30.44647,0.4356 z"
           id="path5008"
           inkscape:connector-curvature="0" />
        <path
           style="fill:#db4437;fill-opacity:1;stroke:none;stroke-width:10;stroke-linejoin:round;stroke-miterlimit:4;stroke-dasharray:none;stroke-opacity:1"
           d="M 67.989788,108.87302 C 41.284246,59.575543 33.290284,45.149038 32.233625,44.344765 31.651257,43.901497 32.811213,42.549931 38.695603,36.815353 53.43581,22.450419 68.809334,13.040746 87.839196,6.7360352 101.68742,2.1480329 112.58238,0.43719165 127.95142,0.43719165 c 21.3099,0 37.80488,3.80960275 56.83492,13.12633035 25.29351,12.383198 46.19421,33.578863 58.51993,59.345832 1.61138,3.368591 2.92978,6.372442 2.92978,6.675231 0,0.560033 -10.54865,0.49527 -71.16508,-0.436914 l -24.28843,-0.373518 -3.93063,-1.764495 c -6.75732,-3.033425 -10.64587,-3.839529 -18.6576,-3.867747 -5.0296,-0.01773 -7.97946,0.207636 -10.31642,0.788106 -14.50826,3.603659 -26.283291,12.94777 -33.291614,26.418653 -3.58502,6.89086 -5.24713,13.08166 -6.331628,23.58317 l -0.33738,3.26696 -9.92748,-18.32578 z"
           id="path5010"
           inkscape:connector-curvature="0"
           transform="translate(0,796.36216)" />
      </g>
    </clipPath>
    <clipPath
       clipPathUnits="userSpaceOnUse"
       id="clipPath4271">
      <circle
         style="fill:#292929;fill-opacity:0.26020412;stroke:none;stroke-width:10;stroke-linejoin:round;stroke-miterlimit:4;stroke-dasharray:none;stroke-opacity:0.25882353"
         id="circle4273"
         cx="128"
         cy="128.00002"
         r="128" />
    </clipPath>
    <clipPath
       id="clipPath4363"
       clipPathUnits="userSpaceOnUse">
      <circle
         style="fill:#4285f4;fill-opacity:1;stroke:none;stroke-width:10;stroke-linejoin:round;stroke-miterlimit:4;stroke-dasharray:none;stroke-opacity:0.25882353"
         id="circle4365"
         cx="128"
         cy="924.36218"
         r="128" />
    </clipPath>
    <clipPath
       clipPathUnits="userSpaceOnUse"
       id="clipPath4452">
      <circle
         style="fill:#4285f4;fill-opacity:1;stroke:none;stroke-width:10;stroke-linejoin:round;stroke-miterlimit:4;stroke-dasharray:none;stroke-opacity:0.25882353"
         id="circle4454"
         cx="128"
         cy="924.36218"
         r="128" />
    </clipPath>
    <clipPath
       id="clipPath5177"
       clipPathUnits="userSpaceOnUse">
      <circle
         style="fill:#4285f4;fill-opacity:1;stroke:none;stroke-width:10;stroke-linejoin:round;stroke-miterlimit:4;stroke-dasharray:none;stroke-opacity:0.25882353"
         id="circle5179"
         cx="128"
         cy="924.36218"
         r="128" />
    </clipPath>
    <clipPath
       clipPathUnits="userSpaceOnUse"
       id="clipPath4342">
      <circle
         style="fill:#4285f4;fill-opacity:1;stroke:none;stroke-width:10;stroke-linejoin:round;stroke-miterlimit:4;stroke-dasharray:none;stroke-opacity:0.25882353"
         id="circle4344"
         cx="128"
         cy="933.48718"
         r="128" />
    </clipPath>
    <clipPath
       id="clipPath4681"
       clipPathUnits="userSpaceOnUse">
      <circle
         style="fill:#9d5fad;fill-opacity:1;stroke:none;stroke-width:10;stroke-linejoin:round;stroke-miterlimit:4;stroke-dasharray:none;stroke-opacity:0.25882353"
         id="circle4683"
         cx="127.00293"
         cy="930.43964"
         r="128" />
    </clipPath>
    <clipPath
       clipPathUnits="userSpaceOnUse"
       id="clipPath4235">
      <circle
         style="fill:#0f9d58;fill-opacity:1;stroke:none;stroke-width:10;stroke-linejoin:round;stroke-miterlimit:4;stroke-dasharray:none;stroke-opacity:0.25882353"
         id="circle4237"
         cx="128"
         cy="924.36218"
         r="128" />
    </clipPath>
    <clipPath
       id="clipPath4771"
       clipPathUnits="userSpaceOnUse">
      <circle
         style="fill:#0f9d58;fill-opacity:1;stroke:none;stroke-width:10;stroke-linejoin:round;stroke-miterlimit:4;stroke-dasharray:none;stroke-opacity:0.25882353"
         id="circle4773"
         cx="128"
         cy="924.36218"
         r="128" />
    </clipPath>
    <clipPath
       clipPathUnits="userSpaceOnUse"
       id="clipPath4842">
      <circle
         style="fill:#0f9d58;fill-opacity:1;stroke:none;stroke-width:10;stroke-linejoin:round;stroke-miterlimit:4;stroke-dasharray:none;stroke-opacity:0.25882353"
         id="circle4844"
         cx="128"
         cy="924.36218"
         r="128" />
    </clipPath>
    <clipPath
       id="clipPath4458"
       clipPathUnits="userSpaceOnUse">
      <circle
         style="fill:#ff3b38;fill-opacity:1;stroke:none;stroke-width:10;stroke-linejoin:round;stroke-miterlimit:4;stroke-dasharray:none;stroke-opacity:0.25882353"
         id="circle4460"
         cx="128"
         cy="924.36218"
         r="128" />
    </clipPath>
    <clipPath
       clipPathUnits="userSpaceOnUse"
       id="clipPath4783">
      <circle
         style="fill:#ff3b38;fill-opacity:1;stroke:none;stroke-width:10;stroke-linejoin:round;stroke-miterlimit:4;stroke-dasharray:none;stroke-opacity:0.25882353"
         id="circle4785"
         cx="128"
         cy="924.36218"
         r="128" />
    </clipPath>
    <clipPath
       id="clipPath4789"
       clipPathUnits="userSpaceOnUse">
      <circle
         style="fill:#80b4ff;fill-opacity:1;stroke:none;stroke-width:10;stroke-linejoin:round;stroke-miterlimit:4;stroke-dasharray:none;stroke-opacity:0.25882353"
         id="circle4791"
         cx="102.64714"
         cy="924.36218"
         r="128" />
    </clipPath>
    <clipPath
       clipPathUnits="userSpaceOnUse"
       id="clipPath4721">
      <circle
         style="fill:#557ae6;fill-opacity:1;stroke:none;stroke-width:10;stroke-linejoin:round;stroke-miterlimit:4;stroke-dasharray:none;stroke-opacity:0.25882353"
         id="circle4723"
         cx="128"
         cy="924.36218"
         r="128" />
    </clipPath>
    <clipPath
       id="clipPath4491"
       clipPathUnits="userSpaceOnUse">
      <circle
         style="fill:#990000;fill-opacity:1;stroke:none;stroke-width:10;stroke-linejoin:round;stroke-miterlimit:4;stroke-dasharray:none;stroke-opacity:0.25882353"
         id="circle4493"
         cx="128"
         cy="924.36218"
         r="128" />
    </clipPath>
    <clipPath
       clipPathUnits="userSpaceOnUse"
       id="clipPath4840">
      <circle
         style="fill:#ff291f;fill-opacity:1;stroke:none;stroke-width:8.92175388;stroke-linejoin:round;stroke-miterlimit:4;stroke-dasharray:none;stroke-opacity:0.25882353"
         id="circle4842"
         cx="128"
         cy="924.36121"
         r="114.19844" />
    </clipPath>
    <clipPath
       id="clipPath5174"
       clipPathUnits="userSpaceOnUse">
      <circle
         style="fill:#ff291f;fill-opacity:1;stroke:none;stroke-width:8.92175388;stroke-linejoin:round;stroke-miterlimit:4;stroke-dasharray:none;stroke-opacity:0.25882353"
         id="circle5176"
         cx="128"
         cy="924.36121"
         r="114.19844" />
    </clipPath>
    <clipPath
       clipPathUnits="userSpaceOnUse"
       id="clipPath4903">
      <circle
         style="fill:#ff291f;fill-opacity:1;stroke:none;stroke-width:8.88889027;stroke-linejoin:round;stroke-miterlimit:4;stroke-dasharray:none;stroke-opacity:0.25882353"
         id="circle4905"
         cx="128"
         cy="924.36218"
         r="113.7778" />
    </clipPath>
    <clipPath
       clipPathUnits="userSpaceOnUse"
       id="clipPath4903-3">
      <circle
         style="fill:#ff291f;fill-opacity:1;stroke:none;stroke-width:8.88889027;stroke-linejoin:round;stroke-miterlimit:4;stroke-dasharray:none;stroke-opacity:0.25882353"
         id="circle4905-6"
         cx="128"
         cy="924.36218"
         r="113.7778" />
    </clipPath>
  </defs>
  <metadata
     id="metadata7">
    <rdf:RDF>
      <cc:Work
         rdf:about="">
        <dc:format>image/svg+xml</dc:format>
        <dc:type
           rdf:resource="http://purl.org/dc/dcmitype/StillImage" />
        <dc:title />
      </cc:Work>
    </rdf:RDF>
  </metadata>
  <g
     inkscape:label="Layer 1"
     inkscape:groupmode="layer"
     id="layer1"
     transform="translate(0,-796.36216)">
    <path
       transform="scale(1,-1)"
       style="fill:#b30800;fill-opacity:1;stroke:none;stroke-width:10;stroke-linejoin:round;stroke-miterlimit:4;stroke-dasharray:none;stroke-opacity:0.25882353"
       id="path1160"
       sodipodi:type="arc"
       sodipodi:cx="128"
       sodipodi:cy="-924.36218"
       sodipodi:rx="128"
       sodipodi:ry="128"
       sodipodi:start="0"
       sodipodi:end="3.1415927"
       d="m 256,-924.36218 a 128,128 0 0 1 -64,110.85125 128,128 0 0 1 -128.000003,0 A 128,128 0 0 1 0,-924.36219 l 128,1e-5 z" />
    <path
       d="m 256,924.36218 a 128,128 0 0 1 -64,110.85122 128,128 0 0 1 -128.000003,0 A 128,128 0 0 1 0,924.36218 l 128,0 z"
       sodipodi:end="3.1415927"
       sodipodi:start="0"
       sodipodi:ry="128"
       sodipodi:rx="128"
       sodipodi:cy="924.36218"
       sodipodi:cx="128"
       sodipodi:type="arc"
       id="path4152"
       style="fill:#ff291f;fill-opacity:1;stroke:none;stroke-width:10;stroke-linejoin:round;stroke-miterlimit:4;stroke-dasharray:none;stroke-opacity:0.25882353" />
    <path
       id="path3759"
       d="m 99.313104,834.36214 a 94.572199,94.572199 0 0 0 -14.32375,5.78023 L 86.2183,865.21878 A 72.505353,72.505353 0 0 0 68.988428,882.3329 L 44.04501,881.00544 a 94.572199,94.572199 0 0 0 -5.972332,14.24987 l 18.547479,16.81611 a 72.505353,72.505353 0 0 0 -1.125507,12.29193 72.505353,72.505353 0 0 0 1.019606,12.03825 l -18.515464,16.64619 a 94.572199,94.572199 0 0 0 5.782697,14.32374 l 25.071484,-1.22895 a 72.505353,72.505353 0 0 0 17.114121,17.23234 l -1.327461,24.94098 a 94.572199,94.572199 0 0 0 14.254791,5.9748 L 115.70562,995.74319 A 72.505353,72.505353 0 0 0 128,996.8687 a 72.505353,72.505353 0 0 0 12.04072,-1.0196 l 16.64618,18.5131 a 94.572199,94.572199 0 0 0 14.31883,-5.7803 l -1.22649,-25.0666 a 72.505353,72.505353 0 0 0 17.23726,-17.12397 l 24.93356,1.32746 a 94.572199,94.572199 0 0 0 5.97234,-14.25232 l -18.54256,-16.8112 a 72.505353,72.505353 0 0 0 1.12551,-12.29192 72.505353,72.505353 0 0 0 -1.0196,-12.04318 l 18.51546,-16.64618 a 94.572199,94.572199 0 0 0 -5.78023,-14.32129 l -25.07395,1.22895 a 72.505353,72.505353 0 0 0 -17.11412,-17.22988 l 1.325,-24.94342 a 94.572199,94.572199 0 0 0 -14.25479,-5.97233 L 140.287,852.9835 A 72.505353,72.505353 0 0 0 128,851.85799 72.505353,72.505353 0 0 0 115.95682,852.8776 Z M 128,877.07725 a 47.2861,47.2861 0 0 1 47.2861,47.2861 A 47.2861,47.2861 0 0 1 128,971.64945 47.2861,47.2861 0 0 1 80.713903,924.36335 47.2861,47.2861 0 0 1 128,877.07725 Z"
       style="fill:#3b7fff;fill-opacity:1;stroke:none;stroke-width:1.26096272"
       inkscape:connector-curvature="0" />
    <g
       transform="matrix(1.2609627,0,0,1.2609627,-33.403218,-241.22283)"
       id="text4601"
       style="font-style:normal;font-variant:normal;font-weight:bold;font-stretch:normal;font-size:64px;line-height:25px;font-family:sans-serif;-inkscape-font-specification:'sans-serif Bold';letter-spacing:0px;word-spacing:0px;fill:#ffffff;fill-opacity:1;stroke:none"
       aria-label="F">
      <path
         style="fill:#ffffff;fill-opacity:1"
         sodipodi:nodetypes="ccccccccccc"
         inkscape:connector-curvature="0"
         id="path4624"
         d="m 111.76563,901.03406 h 32.46874 v 9.09375 h -20.43749 v 8.41405 H 135 v 9.09375 h -11.20312 v 20.0547 h -12.03125 z" />
    </g>
  </g>
</svg>
