<?xml version="1.0" encoding="UTF-8" standalone="no"?>
<!-- Created with Inkscape (http://www.inkscape.org/) -->

<svg
   xmlns:dc="http://purl.org/dc/elements/1.1/"
   xmlns:cc="http://creativecommons.org/ns#"
   xmlns:rdf="http://www.w3.org/1999/02/22-rdf-syntax-ns#"
   xmlns:svg="http://www.w3.org/2000/svg"
   xmlns="http://www.w3.org/2000/svg"
   xmlns:sodipodi="http://sodipodi.sourceforge.net/DTD/sodipodi-0.dtd"
   xmlns:inkscape="http://www.inkscape.org/namespaces/inkscape"
   width="256"
   height="256"
   viewBox="0 0 256 256"
   id="svg2"
   version="1.1"
   inkscape:version="0.92.3 (2405546, 2018-03-11)"
   sodipodi:docname="fritzing.svg">
  <sodipodi:namedview
     id="base"
     pagecolor="#ffffff"
     bordercolor="#666666"
     borderopacity="1.0"
     inkscape:pageopacity="0.0"
     inkscape:pageshadow="2"
     inkscape:zoom="3.3359375"
     inkscape:cx="63.250585"
     inkscape:cy="128"
     inkscape:document-units="px"
     inkscape:current-layer="layer1"
     showgrid="false"
     units="px"
     inkscape:window-width="1920"
     inkscape:window-height="1048"
     inkscape:window-x="0"
     inkscape:window-y="0"
     inkscape:window-maximized="1" />
  <defs
     id="defs4">
    <linearGradient
       id="linearGradient3931">
      <stop
         style="stop-color:#202020;stop-opacity:1;"
         offset="0"
         id="stop3933" />
      <stop
         style="stop-color:#1a1a1a;stop-opacity:1;"
         offset="1"
         id="stop3935" />
    </linearGradient>
    <clipPath
       id="clipPath5160"
       clipPathUnits="userSpaceOnUse">
      <circle
         r="128"
         cy="924.36218"
         cx="128"
         id="circle5162"
         style="fill:#a24c4c;fill-opacity:1;stroke:none;stroke-width:30;stroke-miterlimit:4;stroke-dasharray:none;stroke-opacity:1" />
    </clipPath>
    <clipPath
       clipPathUnits="userSpaceOnUse"
       id="clipPath4878">
      <circle
         r="120.24246"
         cy="924.36218"
         cx="128"
         id="circle4880"
         style="fill:#f38577;fill-opacity:1;stroke:none;stroke-width:28.18182755;stroke-miterlimit:4;stroke-dasharray:none;stroke-opacity:1" />
    </clipPath>
    <clipPath
       id="clipPath4813"
       clipPathUnits="userSpaceOnUse">
      <circle
         r="128"
         cy="924.36829"
         cx="128.86124"
         id="circle4815"
         style="fill:#31d76f;fill-opacity:1;stroke:none;stroke-width:30;stroke-miterlimit:4;stroke-dasharray:none;stroke-opacity:1" />
    </clipPath>
    <clipPath
       clipPathUnits="userSpaceOnUse"
       id="clipPath4716">
      <circle
         r="128"
         cy="924.36218"
         cx="128"
         id="circle4718"
         style="fill:#2dcd69;fill-opacity:1;stroke:none;stroke-width:30;stroke-miterlimit:4;stroke-dasharray:none;stroke-opacity:1" />
    </clipPath>
  </defs>
  <metadata
     id="metadata7">
    <rdf:RDF>
      <cc:Work
         rdf:about="">
        <dc:format>image/svg+xml</dc:format>
        <dc:type
           rdf:resource="http://purl.org/dc/dcmitype/StillImage" />
        <dc:title />
      </cc:Work>
    </rdf:RDF>
  </metadata>
  <g
     inkscape:label="Layer 1"
     inkscape:groupmode="layer"
     id="layer1"
     transform="translate(0,-796.36216)">
    <path
       d="m 256,-924.36218 a 128,128 0 0 1 -64,110.85125 128,128 0 0 1 -128.000003,0 A 128,128 0 0 1 0,-924.36219 l 128,1e-5 z"
       sodipodi:end="3.1415927"
       sodipodi:start="0"
       sodipodi:ry="128"
       sodipodi:rx="128"
       sodipodi:cy="-924.36218"
       sodipodi:cx="128"
       sodipodi:type="arc"
       id="path872"
       style="fill:#842316;fill-opacity:1;stroke:none;stroke-width:30;stroke-miterlimit:4;stroke-dasharray:none;stroke-opacity:1"
       transform="scale(1,-1)" />
    <path
       style="fill:#d9322c;fill-opacity:1;stroke:none;stroke-width:30;stroke-miterlimit:4;stroke-dasharray:none;stroke-opacity:1"
       id="path4136"
       sodipodi:type="arc"
       sodipodi:cx="128"
       sodipodi:cy="924.36218"
       sodipodi:rx="128"
       sodipodi:ry="128"
       sodipodi:start="0"
       sodipodi:end="3.1415927"
       d="m 256,924.36218 a 128,128 0 0 1 -64,110.85122 128,128 0 0 1 -128.000003,0 A 128,128 0 0 1 0,924.36218 l 128,0 z" />
    <path
       inkscape:connector-curvature="0"
       id="path4535"
       d="m 150.60624,841.41444 c -1.85407,0.0205 -3.86852,0.0727 -6.06055,0.15039 -17.52746,0.62126 -22.04518,2.14344 -29.84375,10.0625 -7.58107,7.69819 -9.54224,12.84942 -10.02148,26.32226 l -0.39453,11.125 -7.14649,0.46485 c -11.30671,0.7335 -15.646485,4.14003 -15.646484,12.28515 0,8.16811 4.33611,11.55262 15.75,12.29297 l 7.250004,0.4707 v 20.75391 c 0,20.41531 -0.0367,20.77693 -2.25,22.23828 -4.396218,2.90259 -8.081465,7.31671 -10.525395,12.60938 -4.87616,10.55998 -1.554574,23.74275 7.902344,31.36327 6.959151,5.6079 17.250211,7.3151 25.837891,4.2852 13.97667,-4.9313 21.32292,-20.83012 16.0625,-34.76371 -1.63831,-4.33947 -3.50201,-6.91684 -7.58789,-10.5 l -5.41406,-4.75 -0.0137,-20.75 -0.0117,-20.75 h 7.55664 c 15.43556,0 20.94336,-3.28708 20.94336,-12.5 0,-9.36361 -5.05753,-12.48387 -20.25,-12.49414 l -8.25,-0.006 0.006,-6.25 c 0.003,-3.4375 0.47075,-7.92441 1.03906,-9.9707 1.71197,-6.16574 3.49236,-6.7793 19.6582,-6.7793 16.25651,0 21.36848,-1.30269 23.83594,-6.07422 2.30939,-4.46587 1.86661,-10.28984 -1.04492,-13.75 -3.2756,-3.89282 -8.40233,-5.22936 -21.38086,-5.08593 z m -34.53516,129.76758 c 0.22547,-0.005 0.4516,-3.1e-4 0.67774,0.0117 2.17089,0.11538 4.35017,1.01032 6.10742,2.76758 4.51753,4.51754 3.35125,11.90857 -2.34375,14.85357 -3.23666,1.6737 -4.56641,1.7731 -7.51953,0.5644 -4.92626,-2.0163 -7.14383,-7.57945 -5.03321,-12.63086 1.47732,-3.53571 4.72932,-5.49401 8.11133,-5.5664 z"
       style="fill:#ffffff;fill-opacity:1;stroke:none;stroke-width:30;stroke-miterlimit:4;stroke-dasharray:none;stroke-opacity:1" />
  </g>
</svg>
