<?xml version="1.0" encoding="UTF-8" standalone="no"?>
<!-- Created with Inkscape (http://www.inkscape.org/) -->

<svg
   xmlns:dc="http://purl.org/dc/elements/1.1/"
   xmlns:cc="http://creativecommons.org/ns#"
   xmlns:rdf="http://www.w3.org/1999/02/22-rdf-syntax-ns#"
   xmlns:svg="http://www.w3.org/2000/svg"
   xmlns="http://www.w3.org/2000/svg"
   xmlns:sodipodi="http://sodipodi.sourceforge.net/DTD/sodipodi-0.dtd"
   xmlns:inkscape="http://www.inkscape.org/namespaces/inkscape"
   width="256"
   height="256"
   viewBox="0 0 256 256"
   id="svg2"
   version="1.1"
   inkscape:version="0.92.3 (2405546, 2018-03-11)"
   sodipodi:docname="gchemtable.svg">
  <sodipodi:namedview
     id="base"
     pagecolor="#ffffff"
     bordercolor="#666666"
     borderopacity="1.0"
     inkscape:pageopacity="0.0"
     inkscape:pageshadow="2"
     inkscape:zoom="3.3124997"
     inkscape:cx="107.74818"
     inkscape:cy="127.99997"
     inkscape:document-units="px"
     inkscape:current-layer="layer1"
     showgrid="true"
     units="px"
     inkscape:window-width="1920"
     inkscape:window-height="1048"
     inkscape:window-x="0"
     inkscape:window-y="0"
     inkscape:window-maximized="1">
    <inkscape:grid
       type="xygrid"
       id="grid4136"
       spacingx="5"
       spacingy="5" />
  </sodipodi:namedview>
  <defs
     id="defs4">
    <clipPath
       id="clipPath4224"
       clipPathUnits="userSpaceOnUse">
      <g
         transform="matrix(1.0698649,0,0,0.93469746,0,-2.1140227e-5)"
         id="g4226">
        <path
           style="opacity:0.46200005;fill:#70ffc4;fill-opacity:1;stroke:none"
           id="path4228"
           sodipodi:type="arc"
           sodipodi:cx="128"
           sodipodi:cy="924.36218"
           sodipodi:rx="128"
           sodipodi:ry="128"
           sodipodi:start="0"
           sodipodi:end="1.5707963"
           d="M 256,924.36218 A 128,128 0 0 1 128,1052.3622 l 0,-128.00002 z" />
        <path
           d="m 0,924.36218 a 128,128 0 0 1 -128,128.00002 l 0,-128.00002 z"
           sodipodi:end="1.5707963"
           sodipodi:start="0"
           sodipodi:ry="128"
           sodipodi:rx="128"
           sodipodi:cy="924.36218"
           sodipodi:cx="-128"
           sodipodi:type="arc"
           id="path4230"
           style="opacity:0.46200005;fill:#70b6ff;fill-opacity:1;stroke:none"
           transform="scale(-1,1)" />
        <path
           d="m 256,-924.36218 a 128,128 0 0 1 -128,128 l 0,-128 z"
           sodipodi:end="1.5707963"
           sodipodi:start="0"
           sodipodi:ry="128"
           sodipodi:rx="128"
           sodipodi:cy="-924.36218"
           sodipodi:cx="128"
           sodipodi:type="arc"
           id="path4232"
           style="opacity:1;fill:#ff7070;fill-opacity:1;stroke:none"
           transform="scale(1,-1)" />
        <path
           transform="scale(-1,-1)"
           style="opacity:0.46200005;fill:#ff7070;fill-opacity:1;stroke:none"
           id="path4234"
           sodipodi:type="arc"
           sodipodi:cx="-128"
           sodipodi:cy="-924.36218"
           sodipodi:rx="128"
           sodipodi:ry="128"
           sodipodi:start="0"
           sodipodi:end="1.5707963"
           d="m 0,-924.36218 a 128,128 0 0 1 -128,128 l 0,-128 z" />
      </g>
    </clipPath>
    <clipPath
       clipPathUnits="userSpaceOnUse"
       id="clipPath4253">
      <g
         id="g4255">
        <path
           style="opacity:1;fill:#70ffc4;fill-opacity:1;stroke:none"
           id="path4257"
           sodipodi:type="arc"
           sodipodi:cx="128"
           sodipodi:cy="924.36218"
           sodipodi:rx="128"
           sodipodi:ry="128"
           sodipodi:start="0"
           sodipodi:end="1.5707963"
           d="M 256,924.36218 A 128,128 0 0 1 128,1052.3622 l 0,-128.00002 z" />
        <path
           d="m 0,924.36218 a 128,128 0 0 1 -128,128.00002 l 0,-128.00002 z"
           sodipodi:end="1.5707963"
           sodipodi:start="0"
           sodipodi:ry="128"
           sodipodi:rx="128"
           sodipodi:cy="924.36218"
           sodipodi:cx="-128"
           sodipodi:type="arc"
           id="path4259"
           style="opacity:1;fill:#70b6ff;fill-opacity:1;stroke:none"
           transform="scale(-1,1)" />
        <path
           d="m 256,-924.36218 a 128,128 0 0 1 -128,128 l 0,-128 z"
           sodipodi:end="1.5707963"
           sodipodi:start="0"
           sodipodi:ry="128"
           sodipodi:rx="128"
           sodipodi:cy="-924.36218"
           sodipodi:cx="128"
           sodipodi:type="arc"
           id="path4261"
           style="opacity:1;fill:#ff7070;fill-opacity:1;stroke:none"
           transform="scale(1,-1)" />
        <path
           transform="scale(-1,-1)"
           style="opacity:1;fill:#f9ff70;fill-opacity:1;stroke:none"
           id="path4263"
           sodipodi:type="arc"
           sodipodi:cx="-128"
           sodipodi:cy="-924.36218"
           sodipodi:rx="128"
           sodipodi:ry="128"
           sodipodi:start="0"
           sodipodi:end="1.5707963"
           d="m 0,-924.36218 a 128,128 0 0 1 -128,128 l 0,-128 z" />
      </g>
    </clipPath>
    <clipPath
       id="clipPath4681"
       clipPathUnits="userSpaceOnUse">
      <g
         transform="rotate(90,127.99998,924.3622)"
         id="g4691">
        <path
           style="opacity:1;fill:#70ffc4;fill-opacity:1;stroke:none"
           id="path4683"
           sodipodi:type="arc"
           sodipodi:cx="128"
           sodipodi:cy="924.36218"
           sodipodi:rx="128"
           sodipodi:ry="128"
           sodipodi:start="0"
           sodipodi:end="1.5707963"
           d="M 256,924.36218 A 128,128 0 0 1 128,1052.3622 l 0,-128.00002 z" />
        <path
           d="m 0,924.36218 a 128,128 0 0 1 -128,128.00002 l 0,-128.00002 z"
           sodipodi:end="1.5707963"
           sodipodi:start="0"
           sodipodi:ry="128"
           sodipodi:rx="128"
           sodipodi:cy="924.36218"
           sodipodi:cx="-128"
           sodipodi:type="arc"
           id="path4685"
           style="opacity:1;fill:#70b6ff;fill-opacity:1;stroke:none"
           transform="scale(-1,1)" />
        <path
           d="m 256,-924.36218 a 128,128 0 0 1 -128,128 l 0,-128 z"
           sodipodi:end="1.5707963"
           sodipodi:start="0"
           sodipodi:ry="128"
           sodipodi:rx="128"
           sodipodi:cy="-924.36218"
           sodipodi:cx="128"
           sodipodi:type="arc"
           id="path4687"
           style="opacity:1;fill:#ff7070;fill-opacity:1;stroke:none"
           transform="scale(1,-1)" />
        <path
           transform="scale(-1)"
           style="opacity:1;fill:#d872e5;fill-opacity:1;stroke:none"
           id="path4689"
           sodipodi:type="arc"
           sodipodi:cx="-128"
           sodipodi:cy="-924.36218"
           sodipodi:rx="128"
           sodipodi:ry="128"
           sodipodi:start="0"
           sodipodi:end="1.5707963"
           d="m 0,-924.36218 a 128,128 0 0 1 -128,128 l 0,-128 z" />
      </g>
    </clipPath>
    <clipPath
       clipPathUnits="userSpaceOnUse"
       id="clipPath4764">
      <g
         transform="rotate(90,127.99998,924.3622)"
         id="g4774">
        <path
           style="opacity:1;fill:#70ffc4;fill-opacity:1;stroke:none"
           id="path4766"
           sodipodi:type="arc"
           sodipodi:cx="128"
           sodipodi:cy="924.36218"
           sodipodi:rx="128"
           sodipodi:ry="128"
           sodipodi:start="0"
           sodipodi:end="1.5707963"
           d="M 256,924.36218 A 128,128 0 0 1 128,1052.3622 l 0,-128.00002 z" />
        <path
           d="m 0,924.36218 a 128,128 0 0 1 -128,128.00002 l 0,-128.00002 z"
           sodipodi:end="1.5707963"
           sodipodi:start="0"
           sodipodi:ry="128"
           sodipodi:rx="128"
           sodipodi:cy="924.36218"
           sodipodi:cx="-128"
           sodipodi:type="arc"
           id="path4768"
           style="opacity:1;fill:#70b6ff;fill-opacity:1;stroke:none"
           transform="scale(-1,1)" />
        <path
           d="m 256,-924.36218 a 128,128 0 0 1 -128,128 l 0,-128 z"
           sodipodi:end="1.5707963"
           sodipodi:start="0"
           sodipodi:ry="128"
           sodipodi:rx="128"
           sodipodi:cy="-924.36218"
           sodipodi:cx="128"
           sodipodi:type="arc"
           id="path4770"
           style="opacity:1;fill:#ff7070;fill-opacity:1;stroke:none"
           transform="scale(1,-1)" />
        <path
           transform="scale(-1)"
           style="opacity:1;fill:#d872e5;fill-opacity:1;stroke:none"
           id="path4772"
           sodipodi:type="arc"
           sodipodi:cx="-128"
           sodipodi:cy="-924.36218"
           sodipodi:rx="128"
           sodipodi:ry="128"
           sodipodi:start="0"
           sodipodi:end="1.5707963"
           d="m 0,-924.36218 a 128,128 0 0 1 -128,128 l 0,-128 z" />
      </g>
    </clipPath>
    <clipPath
       clipPathUnits="userSpaceOnUse"
       id="clipPath4600">
      <path
         transform="matrix(0,-1,-1,0,0,0)"
         style="opacity:1;fill:#70b6ff;fill-opacity:1;stroke:none"
         id="path4602"
         sodipodi:type="arc"
         sodipodi:cx="-924.36224"
         sodipodi:cy="-128.00002"
         sodipodi:rx="128"
         sodipodi:ry="128"
         sodipodi:start="0"
         sodipodi:end="1.5707963"
         d="m -796.36224,-128.00002 a 128,128 0 0 1 -128,128.000004741211 l 0,-128.000004741211 z" />
    </clipPath>
    <clipPath
       clipPathUnits="userSpaceOnUse"
       id="clipPath4766">
      <path
         transform="rotate(90)"
         d="M 1052.3622,-128 A 128,128 0 0 1 924.36225,0 l -10e-6,-128 z"
         sodipodi:end="1.5707963"
         sodipodi:start="0"
         sodipodi:ry="128"
         sodipodi:rx="128"
         sodipodi:cy="-128"
         sodipodi:cx="924.36224"
         sodipodi:type="arc"
         id="path4769"
         style="opacity:1;fill:#70ffc4;fill-opacity:1;stroke:none" />
    </clipPath>
    <clipPath
       clipPathUnits="userSpaceOnUse"
       id="clipPath4981">
      <path
         d="m -796.36224,128 a 128,128 0 0 1 -128,128 l 0,-128 z"
         sodipodi:end="1.5707963"
         sodipodi:start="0"
         sodipodi:ry="128"
         sodipodi:rx="128"
         sodipodi:cy="128"
         sodipodi:cx="-924.36224"
         sodipodi:type="arc"
         id="path4983"
         style="opacity:1;fill:#d872e5;fill-opacity:1;stroke:none"
         transform="rotate(-90)" />
    </clipPath>
    <clipPath
       clipPathUnits="userSpaceOnUse"
       id="clipPath5139">
      <path
         transform="matrix(0,1,1,0,0,0)"
         style="opacity:1;fill:#ff7070;fill-opacity:1;stroke:none"
         id="path5141"
         sodipodi:type="arc"
         sodipodi:cx="924.36224"
         sodipodi:cy="128.00002"
         sodipodi:rx="128"
         sodipodi:ry="128"
         sodipodi:start="0"
         sodipodi:end="1.5707963"
         d="m 1052.3622,128.00002 a 128,128 0 0 1 -127.99995,128 l -10e-6,-128 z" />
    </clipPath>
  </defs>
  <metadata
     id="metadata7">
    <rdf:RDF>
      <cc:Work
         rdf:about="">
        <dc:format>image/svg+xml</dc:format>
        <dc:type
           rdf:resource="http://purl.org/dc/dcmitype/StillImage" />
        <dc:title />
      </cc:Work>
    </rdf:RDF>
  </metadata>
  <g
     inkscape:label="Layer 1"
     inkscape:groupmode="layer"
     id="layer1"
     transform="translate(0,-796.36216)">
    <path
       style="opacity:1;fill:#70ffc4;fill-opacity:1;stroke:none"
       id="path4141"
       sodipodi:type="arc"
       sodipodi:cx="924.36218"
       sodipodi:cy="-128"
       sodipodi:rx="128"
       sodipodi:ry="128"
       sodipodi:start="0"
       sodipodi:end="1.5707963"
       d="M 1052.3622,-128 A 128,128 0 0 1 924.36219,0 l -1e-5,-128 z"
       transform="rotate(90)" />
    <path
       d="m -796.36218,-128.00002 a 128,128 0 0 1 -128,128.000004741211 l 0,-128.000004741211 z"
       sodipodi:end="1.5707963"
       sodipodi:start="0"
       sodipodi:ry="128"
       sodipodi:rx="128"
       sodipodi:cy="-128.00002"
       sodipodi:cx="-924.36218"
       sodipodi:type="arc"
       id="path4145"
       style="opacity:1;fill:#0a5aad;fill-opacity:1;stroke:none"
       transform="matrix(0,-1,-1,0,0,0)" />
    <path
       d="m 1052.3622,128.00002 a 128,128 0 0 1 -128.00001,128 l -1e-5,-128 z"
       sodipodi:end="1.5707963"
       sodipodi:start="0"
       sodipodi:ry="128"
       sodipodi:rx="128"
       sodipodi:cy="128.00002"
       sodipodi:cx="924.36218"
       sodipodi:type="arc"
       id="path4147"
       style="opacity:1;fill:#ff7070;fill-opacity:1;stroke:none"
       transform="matrix(0,1,1,0,0,0)" />
    <path
       transform="rotate(-90)"
       style="opacity:1;fill:#790688;fill-opacity:1;stroke:none"
       id="path4149"
       sodipodi:type="arc"
       sodipodi:cx="-924.36218"
       sodipodi:cy="128"
       sodipodi:rx="128"
       sodipodi:ry="128"
       sodipodi:start="0"
       sodipodi:end="1.5707963"
       d="m -796.36218,128 a 128,128 0 0 1 -128,128 l 0,-128 z" />
    <g
       aria-label="G"
       style="font-style:normal;font-variant:normal;font-weight:bold;font-stretch:normal;font-size:235.34150696px;line-height:30.64342499px;font-family:sans-serif;-inkscape-font-specification:'sans-serif Bold';letter-spacing:0px;word-spacing:0px;fill:#f9f9f9;fill-opacity:1;stroke:none;stroke-width:1.22573698px;stroke-linecap:butt;stroke-linejoin:miter;stroke-opacity:1"
       id="text3699"
       transform="translate(1.5e-6,-4e-5)">
      <path
         d="m 210.04777,997.2744 q -16.54745,8.0439 -34.35894,12.0658 -17.81149,4.022 -36.77211,4.022 -42.862492,0 -67.913492,-23.90188 -25.051001,-24.01678 -25.051001,-65.04067 0,-41.48353 25.510652,-65.27049 25.510652,-23.78696 69.867011,-23.78696 17.12201,0 32.75016,3.21756 15.74306,3.21756 29.64751,9.53777 v 35.50806 q -14.3641,-8.15881 -28.61329,-12.18076 -14.13428,-4.02195 -28.38348,-4.02195 -26.42995,0 -40.79406,14.82376 -14.24919,14.70884 -14.24919,42.17301 0,27.23435 13.78954,42.05811 13.78954,14.82375 39.18528,14.82375 6.89477,0 12.75533,-0.80439 5.97547,-0.9193 10.68689,-2.75791 v -33.32472 h -27.00452 v -29.64751 h 68.94771 z"
         style="font-style:normal;font-variant:normal;font-weight:bold;font-stretch:normal;font-family:sans-serif;-inkscape-font-specification:'sans-serif Bold';stroke-width:1.22573698px;fill:#f9f9f9;fill-opacity:1"
         id="path3705"
         inkscape:connector-curvature="0" />
    </g>
    <text
       xml:space="preserve"
       style="font-style:normal;font-weight:normal;font-size:40px;line-height:25px;font-family:sans-serif;letter-spacing:0px;word-spacing:0px;fill:#000000;fill-opacity:1;stroke:none;stroke-width:1px;stroke-linecap:butt;stroke-linejoin:miter;stroke-opacity:1"
       x="-70"
       y="862.36218"
       id="text3703"><tspan
         sodipodi:role="line"
         id="tspan3701"
         x="-70"
         y="885.25281" /></text>
  </g>
</svg>
