<?xml version="1.0" encoding="UTF-8" standalone="no"?>
<svg
   xmlns:dc="http://purl.org/dc/elements/1.1/"
   xmlns:cc="http://creativecommons.org/ns#"
   xmlns:rdf="http://www.w3.org/1999/02/22-rdf-syntax-ns#"
   xmlns:svg="http://www.w3.org/2000/svg"
   xmlns="http://www.w3.org/2000/svg"
   xmlns:sodipodi="http://sodipodi.sourceforge.net/DTD/sodipodi-0.dtd"
   xmlns:inkscape="http://www.inkscape.org/namespaces/inkscape"
   sodipodi:docname="gimp-symbolic.svg"
   inkscape:version="1.0.1 (3bc2e813f5, 2020-09-07)"
   version="1.1"
   id="svg2"
   viewBox="0 0 256 256"
   height="256"
   width="256">
  <sodipodi:namedview
     inkscape:window-maximized="1"
     inkscape:window-y="0"
     inkscape:window-x="0"
     inkscape:window-height="1048"
     inkscape:window-width="1920"
     units="px"
     showgrid="true"
     inkscape:current-layer="layer1"
     inkscape:document-units="px"
     inkscape:cy="128"
     inkscape:cx="128"
     inkscape:zoom="3.34375"
     inkscape:pageshadow="2"
     inkscape:pageopacity="0.0"
     borderopacity="1.0"
     bordercolor="#666666"
     pagecolor="#ffffff"
     id="base"
     inkscape:document-rotation="0">
    <inkscape:grid
       spacingy="5"
       spacingx="5"
       id="grid4168"
       type="xygrid" />
  </sodipodi:namedview>
  <defs
     id="defs4">
    <clipPath
       id="clipPath5002"
       clipPathUnits="userSpaceOnUse">
      <g
         id="g5004">
        <path
           style="fill:#0f9d58;fill-opacity:1;stroke:none;stroke-width:4.85768509;stroke-linejoin:round;stroke-miterlimit:4;stroke-dasharray:none;stroke-opacity:1"
           d="M 88.118406,249.43519 C 46.103287,235.29134 14.771284,201.68742 4.1335861,159.36053 1.3377997,148.23623 0.92261224,144.16281 0.92582381,127.88908 0.92787958,117.47222 1.134384,112.01362 1.6577819,108.54099 4.4653598,89.913336 12.17654,70.638106 23.042737,55.086148 c 3.958678,-5.665755 8.344812,-10.93092 9.101533,-10.925587 0.32809,0.0023 10.488643,18.309713 22.579009,40.683112 12.090365,22.373397 22.374546,41.334697 22.853732,42.136217 0.479186,0.80151 0.924733,2.44098 0.990103,3.64326 0.343424,6.31639 2.524175,14.20976 5.6424,20.42304 2.954444,5.88693 5.065381,8.73258 10.434696,14.06652 6.71418,6.66995 12.88853,10.28643 21.73204,12.72904 3.16587,0.87442 5.10478,1.05037 11.57517,1.05037 8.82596,0 12.60219,-0.76201 19.26429,-3.88733 2.04584,-0.95974 3.93661,-1.66536 4.20172,-1.56805 0.2651,0.0973 -11.0555,17.66459 -25.1569,39.0384 l -25.6389,38.86148 -3.094121,0.11221 c -2.554618,0.0927 -4.195204,-0.25845 -9.409103,-2.01364 z"
           id="path5006"
           inkscape:connector-curvature="0"
           transform="translate(0,796.36216)" />
        <path
           style="fill:#f4b400;fill-opacity:1;stroke:none;stroke-width:4.85768509;stroke-linejoin:round;stroke-miterlimit:4;stroke-dasharray:none;stroke-opacity:1"
           d="m 112.35984,1051.5167 c -10.0014,-1.4495 -12.15632,-1.8201 -12.531784,-2.1556 -0.248854,-0.2223 1.738304,-3.7475 4.550294,-8.0722 7.16635,-11.0213 49.77231,-74.64801 50.25856,-75.05489 3.57509,-2.99158 8.63523,-8.0414 10.57512,-10.55356 3.36154,-4.35318 7.55784,-12.9141 9.06523,-18.494 6.19314,-22.92535 -2.59253,-47.15185 -21.69967,-59.83688 l -2.96081,-1.96565 17.02469,0.29584 c 9.36358,0.1627 31.17032,0.43384 48.45941,0.60252 l 31.43471,0.30668 1.54584,4.18869 c 2.24597,6.08579 4.67816,15.0947 5.93451,21.9816 1.52517,8.36049 1.92536,28.85896 0.73851,37.82758 -3.0805,23.27845 -12.81326,45.72018 -27.80202,64.10577 -20.47622,25.1166 -51.4599,42.1974 -84.14612,46.3885 -5.31244,0.6812 -26.64601,0.9864 -30.44647,0.4356 z"
           id="path5008"
           inkscape:connector-curvature="0" />
        <path
           style="fill:#db4437;fill-opacity:1;stroke:none;stroke-width:10;stroke-linejoin:round;stroke-miterlimit:4;stroke-dasharray:none;stroke-opacity:1"
           d="M 67.989788,108.87302 C 41.284246,59.575543 33.290284,45.149038 32.233625,44.344765 31.651257,43.901497 32.811213,42.549931 38.695603,36.815353 53.43581,22.450419 68.809334,13.040746 87.839196,6.7360352 101.68742,2.1480329 112.58238,0.43719165 127.95142,0.43719165 c 21.3099,0 37.80488,3.80960275 56.83492,13.12633035 25.29351,12.383198 46.19421,33.578863 58.51993,59.345832 1.61138,3.368591 2.92978,6.372442 2.92978,6.675231 0,0.560033 -10.54865,0.49527 -71.16508,-0.436914 l -24.28843,-0.373518 -3.93063,-1.764495 c -6.75732,-3.033425 -10.64587,-3.839529 -18.6576,-3.867747 -5.0296,-0.01773 -7.97946,0.207636 -10.31642,0.788106 -14.50826,3.603659 -26.283291,12.94777 -33.291614,26.418653 -3.58502,6.89086 -5.24713,13.08166 -6.331628,23.58317 l -0.33738,3.26696 -9.92748,-18.32578 z"
           id="path5010"
           inkscape:connector-curvature="0"
           transform="translate(0,796.36216)" />
      </g>
    </clipPath>
    <clipPath
       clipPathUnits="userSpaceOnUse"
       id="clipPath4271">
      <circle
         style="fill:#292929;fill-opacity:0.26020412;stroke:none;stroke-width:10;stroke-linejoin:round;stroke-miterlimit:4;stroke-dasharray:none;stroke-opacity:0.25882353"
         id="circle4273"
         cx="128"
         cy="128.00002"
         r="128" />
    </clipPath>
    <clipPath
       id="clipPath4363"
       clipPathUnits="userSpaceOnUse">
      <circle
         style="fill:#4285f4;fill-opacity:1;stroke:none;stroke-width:10;stroke-linejoin:round;stroke-miterlimit:4;stroke-dasharray:none;stroke-opacity:0.25882353"
         id="circle4365"
         cx="128"
         cy="924.36218"
         r="128" />
    </clipPath>
    <clipPath
       clipPathUnits="userSpaceOnUse"
       id="clipPath4452">
      <circle
         style="fill:#4285f4;fill-opacity:1;stroke:none;stroke-width:10;stroke-linejoin:round;stroke-miterlimit:4;stroke-dasharray:none;stroke-opacity:0.25882353"
         id="circle4454"
         cx="128"
         cy="924.36218"
         r="128" />
    </clipPath>
    <clipPath
       id="clipPath5177"
       clipPathUnits="userSpaceOnUse">
      <circle
         style="fill:#4285f4;fill-opacity:1;stroke:none;stroke-width:10;stroke-linejoin:round;stroke-miterlimit:4;stroke-dasharray:none;stroke-opacity:0.25882353"
         id="circle5179"
         cx="128"
         cy="924.36218"
         r="128" />
    </clipPath>
    <clipPath
       clipPathUnits="userSpaceOnUse"
       id="clipPath4342">
      <circle
         style="fill:#4285f4;fill-opacity:1;stroke:none;stroke-width:10;stroke-linejoin:round;stroke-miterlimit:4;stroke-dasharray:none;stroke-opacity:0.25882353"
         id="circle4344"
         cx="128"
         cy="933.48718"
         r="128" />
    </clipPath>
    <clipPath
       id="clipPath4681"
       clipPathUnits="userSpaceOnUse">
      <circle
         style="fill:#9d5fad;fill-opacity:1;stroke:none;stroke-width:10;stroke-linejoin:round;stroke-miterlimit:4;stroke-dasharray:none;stroke-opacity:0.25882353"
         id="circle4683"
         cx="127.00293"
         cy="930.43964"
         r="128" />
    </clipPath>
    <clipPath
       clipPathUnits="userSpaceOnUse"
       id="clipPath4235">
      <circle
         style="fill:#0f9d58;fill-opacity:1;stroke:none;stroke-width:10;stroke-linejoin:round;stroke-miterlimit:4;stroke-dasharray:none;stroke-opacity:0.25882353"
         id="circle4237"
         cx="128"
         cy="924.36218"
         r="128" />
    </clipPath>
    <clipPath
       id="clipPath4771"
       clipPathUnits="userSpaceOnUse">
      <circle
         style="fill:#0f9d58;fill-opacity:1;stroke:none;stroke-width:10;stroke-linejoin:round;stroke-miterlimit:4;stroke-dasharray:none;stroke-opacity:0.25882353"
         id="circle4773"
         cx="128"
         cy="924.36218"
         r="128" />
    </clipPath>
    <clipPath
       clipPathUnits="userSpaceOnUse"
       id="clipPath4842">
      <circle
         style="fill:#0f9d58;fill-opacity:1;stroke:none;stroke-width:10;stroke-linejoin:round;stroke-miterlimit:4;stroke-dasharray:none;stroke-opacity:0.25882353"
         id="circle4844"
         cx="128"
         cy="924.36218"
         r="128" />
    </clipPath>
  </defs>
  <metadata
     id="metadata7">
    <rdf:RDF>
      <cc:Work
         rdf:about="">
        <dc:format>image/svg+xml</dc:format>
        <dc:type
           rdf:resource="http://purl.org/dc/dcmitype/StillImage" />
        <dc:title />
      </cc:Work>
    </rdf:RDF>
  </metadata>
  <g
     inkscape:label="Layer 1"
     inkscape:groupmode="layer"
     id="layer1"
     transform="translate(0,-796.36216)">
    <path
       id="path917"
       style="fill:#6d6550;fill-opacity:1;stroke:none;stroke-width:59.1207;stroke-miterlimit:4;stroke-dasharray:none;stroke-opacity:1"
       d="M 127.67578 0 A 128 128 0 0 0 0 128 A 128 128 0 0 0 128 256 A 128 128 0 0 0 256 128 A 128 128 0 0 0 128 0 A 128 128 0 0 0 127.67578 0 z M 179.45703 53.1875 C 184.20644 53.1875 185.54499 58.472139 186.23438 79.949219 C 187.23242 111.04302 183.28883 132.25886 173.48633 148.5332 L 168.74609 156.40234 L 172.60156 158.68164 C 174.72211 159.93428 177.46306 160.95898 178.69141 160.95898 C 179.91975 160.95898 180.92383 161.52802 180.92383 162.22461 C 180.92383 162.92134 183.91581 165.27758 187.57227 167.46094 C 192.30744 170.28843 195.66562 171.30471 199.24414 170.99414 C 207.2632 170.29799 212.30353 175.56686 216.58594 189.12305 C 220.35717 201.06102 220.71485 203.03427 219.06445 202.79297 C 218.48711 202.70897 212.68562 200.27963 206.17383 197.39453 C 197.16913 193.40514 193.61438 191.01083 191.32812 187.39844 C 189.11632 183.90362 186.32923 181.95695 180.77539 180.03125 C 176.62393 178.59188 169.19584 175.55882 164.26953 173.28906 L 155.3125 169.16211 L 146.77539 173.10742 C 138.77634 176.80448 137.08712 177.0523 120.04102 177.01758 C 103.15676 176.98388 100.8893 176.64881 88.550781 172.38281 C 81.237839 169.85426 70.402626 164.98927 64.472656 161.57227 C 58.5427 158.15527 51.97133 155.35938 49.869141 155.35938 C 36.169563 155.35938 20.077755 137.3773 20 121.98047 C 19.91389 104.94251 34.919881 96.749824 50.203125 105.49023 L 55.941406 108.77344 L 57.482422 104.42383 C 58.329422 102.03194 59.171715 91.73089 59.355469 81.53125 C 59.539225 71.33159 60.144177 62.986328 60.699219 62.986328 C 61.254246 62.986328 63.086637 65.834023 64.771484 69.314453 C 72.555946 85.395003 92.11439 97.071585 102.375 91.765625 C 107.18264 89.279515 118.19434 88.865711 122.21875 91.019531 C 124.1609 92.058921 127.32579 91.836793 133.5625 90.220703 C 152.98144 85.188753 167.19593 74.658197 173.34766 60.748047 C 175.76708 55.277267 177.45418 53.1875 179.45703 53.1875 z M 177.67188 65.794922 C 177.18834 65.727036 176.66741 66.566288 176.11133 68.318359 C 174.90019 72.134309 164.24445 82.38405 157.17773 86.53125 C 153.739 88.5493 146.37113 91.808668 140.80469 93.773438 C 133.31584 96.416737 130.97876 97.823141 131.81836 99.181641 C 134.05461 102.79996 157.17904 92.884187 167.31641 83.960938 C 170.8031 80.891798 174.3473 78.380859 175.19141 78.380859 C 176.17635 78.380859 176.70938 82.267306 176.68164 89.228516 C 176.58994 112.24631 171.81153 133.92415 164.17188 145.9707 C 159.27116 153.69822 159.11477 154.3252 162.24219 153.71289 C 163.51343 153.46402 166.62754 149.51464 169.16211 144.93555 C 178.18261 128.63852 182.19838 104.92393 180.27734 79.300781 C 179.61585 70.477736 178.73566 65.944271 177.67188 65.794922 z M 65.894531 82.580078 C 65.268764 82.580078 64.757812 85.166655 64.757812 88.328125 C 64.757812 93.253615 65.108264 93.932379 67.207031 93.068359 C 68.554154 92.513759 70.795949 91.733444 72.189453 91.333984 C 74.46393 90.681974 74.328838 90.19675 70.876953 86.59375 C 68.762077 84.38632 66.520295 82.580078 65.894531 82.580078 z M 113.32422 95.197266 C 101.60308 95.151766 94.730532 102.96463 95.888672 115.01758 C 96.605322 122.47599 99.524822 126.68828 106.04492 129.66992 C 110.56307 131.73607 118.84725 131.22851 121.32031 128.73438 C 122.41931 127.62602 122.15584 127.46353 120.36719 128.14453 C 114.32073 130.44662 103.76112 120.91749 105.97266 115.1543 C 106.71343 113.22389 107.07637 113.23806 109.33398 115.28125 C 112.3147 117.97874 116.70028 118.25285 119.0625 115.89062 C 121.09979 113.85335 121.27643 108.26987 119.3418 107.07422 C 117.15562 105.72308 117.69887 103.57422 120.22656 103.57422 C 121.4828 103.57422 124.66351 105.85636 127.29492 108.64648 L 132.07812 113.7207 L 131.17188 109.69727 C 129.11835 100.59548 122.51788 95.232936 113.32422 95.197266 z M 76.359375 95.701172 C 75.264107 95.749484 74.10794 96.030746 72.632812 96.517578 C 66.037177 98.694338 63.144785 102.41062 62.314453 109.77734 C 61.661424 115.57103 62.011739 116.50391 66.539062 121.03125 C 70.479755 124.97195 72.561713 125.96855 76.863281 125.9668 L 82.251953 125.96289 L 77.369141 123.51758 L 77.369141 123.51562 C 74.544903 122.10041 71.926596 119.45811 71.160156 117.24805 C 69.602674 112.75687 70.834539 110.86456 73.744141 113.2793 C 74.87505 114.21788 77.251004 114.78082 79.025391 114.5293 C 81.789657 114.13742 82.227641 113.30369 82.082031 108.70703 C 81.903528 103.07222 82.23031 102.9388 89.25 105.79492 C 94.391021 107.88668 88.294163 100.40635 82.501953 97.515625 C 79.839427 96.186862 78.184822 95.620651 76.359375 95.701172 z M 37.658203 107.77344 C 32.350681 107.77344 30.849269 108.44454 27.640625 112.25781 C 24.369514 116.14529 23.980319 117.57018 24.716797 122.94336 C 26.658475 137.10944 38.696664 149.76172 50.234375 149.76172 C 55.007258 149.76172 57.299654 148.94846 59.921875 146.32617 C 66.031315 140.21675 64.011008 126.35044 55.544922 116.28906 C 50.537731 110.33835 45.148725 107.77344 37.658203 107.77344 z M 43.65625 113.37109 C 45.860039 113.37109 53.561074 120.51038 55.589844 124.43359 C 63.897437 140.49871 54.614511 151.54252 40.732422 142.10938 C 36.306978 139.10218 29.767578 130.8379 29.767578 128.25195 C 29.767578 127.76546 31.844477 127.36719 34.384766 127.36719 C 40.388466 127.36719 42.363281 125.2198 42.363281 118.68945 C 42.363281 115.76429 42.945528 113.37109 43.65625 113.37109 z M 138.31055 138.66211 C 137.12334 138.59312 136.61538 139.39468 137.05664 141.08203 C 138.18872 145.41116 125.89127 150.06659 110.61328 151.0918 L 97.648438 151.96094 L 105.94141 153.81055 C 116.95282 156.26616 129.92584 155.33516 132.43164 151.9082 C 134.22194 149.45989 134.63046 149.55326 140.875 153.84961 C 153.63216 162.62671 170.19419 170.71109 172.12891 169.10547 C 173.1176 168.28488 173.92578 167.07065 173.92578 166.40625 C 173.92578 164.69258 159.75966 157.76978 146.98438 153.24219 C 141.01855 151.1278 136.13672 148.90278 136.13672 148.29688 C 136.13672 146.46956 139.40456 145.92833 143.48438 147.08008 C 148.5829 148.5193 148.67279 145.41852 143.64648 141.46484 C 141.36546 139.67059 139.49775 138.7311 138.31055 138.66211 z M 63.582031 150.93555 C 62.403772 150.86204 61.957031 151.48057 61.957031 152.73438 C 61.957031 154.29314 73.186075 160.69102 81.910156 164.10352 C 101.61023 171.80963 124.57531 174.23433 138.33203 170.06055 C 152.5794 165.73787 152.60722 162.01933 138.36328 165.875 C 119.49219 170.98312 94.093769 166.70874 72.373047 154.76953 C 67.822667 152.26836 65.096936 151.03006 63.582031 150.93555 z M 180.69336 166.7793 C 180.10029 166.84619 179.49301 167.38791 178.51758 168.36328 C 175.61634 171.26455 176.88293 172.77515 184.45703 175.44336 C 190.0165 177.40184 192.12109 177.2711 192.12109 174.9668 C 192.12109 174.29443 190.841 173.33684 189.27539 172.83984 C 187.70979 172.34298 185.18127 170.5996 183.6582 168.96484 C 182.19403 167.3932 181.45588 166.69329 180.69336 166.7793 z M 200.40039 173.78516 C 197.2636 173.80604 195.68644 177.40338 197.91602 180.08984 C 200.42547 183.11354 204.01758 181.72703 204.01758 177.73438 C 204.01758 175.25357 203.16483 174.13226 201.04688 173.83008 C 200.82454 173.79835 200.60951 173.78376 200.40039 173.78516 z "
       transform="translate(0,796.36216)" />
    <path
       style="fill:none;fill-rule:evenodd;stroke:none;stroke-width:1px;stroke-linecap:butt;stroke-linejoin:miter;stroke-opacity:1"
       d="M 154.47438,968.80998 101.03985,1048.476 0.4857685,1048.9618 0,842.0244 l 33.032258,-2.42884 45.176471,83.55218 21.373814,35.4611 26.717267,13.11575 z"
       id="path4913"
       inkscape:connector-curvature="0" />
    <text
       xml:space="preserve"
       style="font-style:normal;font-weight:normal;line-height:0%;font-family:sans-serif;letter-spacing:0px;word-spacing:0px;fill:#000000;fill-opacity:1;stroke:none;stroke-width:1px;stroke-linecap:butt;stroke-linejoin:miter;stroke-opacity:1"
       x="120"
       y="927.36218"
       id="text4914"><tspan
         sodipodi:role="line"
         id="tspan4916"
         x="120"
         y="927.36218"
         style="font-size:40px;line-height:1.25"> </tspan></text>
  </g>
</svg>
