<?xml version="1.0" encoding="UTF-8" standalone="no"?>
<!-- Created with Inkscape (http://www.inkscape.org/) -->

<svg
   xmlns:dc="http://purl.org/dc/elements/1.1/"
   xmlns:cc="http://creativecommons.org/ns#"
   xmlns:rdf="http://www.w3.org/1999/02/22-rdf-syntax-ns#"
   xmlns:svg="http://www.w3.org/2000/svg"
   xmlns="http://www.w3.org/2000/svg"
   xmlns:sodipodi="http://sodipodi.sourceforge.net/DTD/sodipodi-0.dtd"
   xmlns:inkscape="http://www.inkscape.org/namespaces/inkscape"
   sodipodi:docname="gimp.svg"
   inkscape:version="0.92.3 (2405546, 2018-03-11)"
   version="1.1"
   id="svg2"
   viewBox="0 0 256 256"
   height="256"
   width="256">
  <sodipodi:namedview
     inkscape:window-maximized="1"
     inkscape:window-y="0"
     inkscape:window-x="0"
     inkscape:window-height="1048"
     inkscape:window-width="1920"
     units="px"
     showgrid="true"
     inkscape:current-layer="layer1"
     inkscape:document-units="px"
     inkscape:cy="128"
     inkscape:cx="-57.295243"
     inkscape:zoom="2.0507812"
     inkscape:pageshadow="2"
     inkscape:pageopacity="0.0"
     borderopacity="1.0"
     bordercolor="#666666"
     pagecolor="#ffffff"
     id="base">
    <inkscape:grid
       spacingy="5"
       spacingx="5"
       id="grid4168"
       type="xygrid" />
  </sodipodi:namedview>
  <defs
     id="defs4">
    <clipPath
       id="clipPath5002"
       clipPathUnits="userSpaceOnUse">
      <g
         id="g5004">
        <path
           style="fill:#0f9d58;fill-opacity:1;stroke:none;stroke-width:4.85768509;stroke-linejoin:round;stroke-miterlimit:4;stroke-dasharray:none;stroke-opacity:1"
           d="M 88.118406,249.43519 C 46.103287,235.29134 14.771284,201.68742 4.1335861,159.36053 1.3377997,148.23623 0.92261224,144.16281 0.92582381,127.88908 0.92787958,117.47222 1.134384,112.01362 1.6577819,108.54099 4.4653598,89.913336 12.17654,70.638106 23.042737,55.086148 c 3.958678,-5.665755 8.344812,-10.93092 9.101533,-10.925587 0.32809,0.0023 10.488643,18.309713 22.579009,40.683112 12.090365,22.373397 22.374546,41.334697 22.853732,42.136217 0.479186,0.80151 0.924733,2.44098 0.990103,3.64326 0.343424,6.31639 2.524175,14.20976 5.6424,20.42304 2.954444,5.88693 5.065381,8.73258 10.434696,14.06652 6.71418,6.66995 12.88853,10.28643 21.73204,12.72904 3.16587,0.87442 5.10478,1.05037 11.57517,1.05037 8.82596,0 12.60219,-0.76201 19.26429,-3.88733 2.04584,-0.95974 3.93661,-1.66536 4.20172,-1.56805 0.2651,0.0973 -11.0555,17.66459 -25.1569,39.0384 l -25.6389,38.86148 -3.094121,0.11221 c -2.554618,0.0927 -4.195204,-0.25845 -9.409103,-2.01364 z"
           id="path5006"
           inkscape:connector-curvature="0"
           transform="translate(0,796.36216)" />
        <path
           style="fill:#f4b400;fill-opacity:1;stroke:none;stroke-width:4.85768509;stroke-linejoin:round;stroke-miterlimit:4;stroke-dasharray:none;stroke-opacity:1"
           d="m 112.35984,1051.5167 c -10.0014,-1.4495 -12.15632,-1.8201 -12.531784,-2.1556 -0.248854,-0.2223 1.738304,-3.7475 4.550294,-8.0722 7.16635,-11.0213 49.77231,-74.64801 50.25856,-75.05489 3.57509,-2.99158 8.63523,-8.0414 10.57512,-10.55356 3.36154,-4.35318 7.55784,-12.9141 9.06523,-18.494 6.19314,-22.92535 -2.59253,-47.15185 -21.69967,-59.83688 l -2.96081,-1.96565 17.02469,0.29584 c 9.36358,0.1627 31.17032,0.43384 48.45941,0.60252 l 31.43471,0.30668 1.54584,4.18869 c 2.24597,6.08579 4.67816,15.0947 5.93451,21.9816 1.52517,8.36049 1.92536,28.85896 0.73851,37.82758 -3.0805,23.27845 -12.81326,45.72018 -27.80202,64.10577 -20.47622,25.1166 -51.4599,42.1974 -84.14612,46.3885 -5.31244,0.6812 -26.64601,0.9864 -30.44647,0.4356 z"
           id="path5008"
           inkscape:connector-curvature="0" />
        <path
           style="fill:#db4437;fill-opacity:1;stroke:none;stroke-width:10;stroke-linejoin:round;stroke-miterlimit:4;stroke-dasharray:none;stroke-opacity:1"
           d="M 67.989788,108.87302 C 41.284246,59.575543 33.290284,45.149038 32.233625,44.344765 31.651257,43.901497 32.811213,42.549931 38.695603,36.815353 53.43581,22.450419 68.809334,13.040746 87.839196,6.7360352 101.68742,2.1480329 112.58238,0.43719165 127.95142,0.43719165 c 21.3099,0 37.80488,3.80960275 56.83492,13.12633035 25.29351,12.383198 46.19421,33.578863 58.51993,59.345832 1.61138,3.368591 2.92978,6.372442 2.92978,6.675231 0,0.560033 -10.54865,0.49527 -71.16508,-0.436914 l -24.28843,-0.373518 -3.93063,-1.764495 c -6.75732,-3.033425 -10.64587,-3.839529 -18.6576,-3.867747 -5.0296,-0.01773 -7.97946,0.207636 -10.31642,0.788106 -14.50826,3.603659 -26.283291,12.94777 -33.291614,26.418653 -3.58502,6.89086 -5.24713,13.08166 -6.331628,23.58317 l -0.33738,3.26696 -9.92748,-18.32578 z"
           id="path5010"
           inkscape:connector-curvature="0"
           transform="translate(0,796.36216)" />
      </g>
    </clipPath>
    <clipPath
       clipPathUnits="userSpaceOnUse"
       id="clipPath4271">
      <circle
         style="fill:#292929;fill-opacity:0.26020412;stroke:none;stroke-width:10;stroke-linejoin:round;stroke-miterlimit:4;stroke-dasharray:none;stroke-opacity:0.25882353"
         id="circle4273"
         cx="128"
         cy="128.00002"
         r="128" />
    </clipPath>
    <clipPath
       id="clipPath4363"
       clipPathUnits="userSpaceOnUse">
      <circle
         style="fill:#4285f4;fill-opacity:1;stroke:none;stroke-width:10;stroke-linejoin:round;stroke-miterlimit:4;stroke-dasharray:none;stroke-opacity:0.25882353"
         id="circle4365"
         cx="128"
         cy="924.36218"
         r="128" />
    </clipPath>
    <clipPath
       clipPathUnits="userSpaceOnUse"
       id="clipPath4452">
      <circle
         style="fill:#4285f4;fill-opacity:1;stroke:none;stroke-width:10;stroke-linejoin:round;stroke-miterlimit:4;stroke-dasharray:none;stroke-opacity:0.25882353"
         id="circle4454"
         cx="128"
         cy="924.36218"
         r="128" />
    </clipPath>
    <clipPath
       id="clipPath5177"
       clipPathUnits="userSpaceOnUse">
      <circle
         style="fill:#4285f4;fill-opacity:1;stroke:none;stroke-width:10;stroke-linejoin:round;stroke-miterlimit:4;stroke-dasharray:none;stroke-opacity:0.25882353"
         id="circle5179"
         cx="128"
         cy="924.36218"
         r="128" />
    </clipPath>
    <clipPath
       clipPathUnits="userSpaceOnUse"
       id="clipPath4342">
      <circle
         style="fill:#4285f4;fill-opacity:1;stroke:none;stroke-width:10;stroke-linejoin:round;stroke-miterlimit:4;stroke-dasharray:none;stroke-opacity:0.25882353"
         id="circle4344"
         cx="128"
         cy="933.48718"
         r="128" />
    </clipPath>
    <clipPath
       id="clipPath4681"
       clipPathUnits="userSpaceOnUse">
      <circle
         style="fill:#9d5fad;fill-opacity:1;stroke:none;stroke-width:10;stroke-linejoin:round;stroke-miterlimit:4;stroke-dasharray:none;stroke-opacity:0.25882353"
         id="circle4683"
         cx="127.00293"
         cy="930.43964"
         r="128" />
    </clipPath>
    <clipPath
       clipPathUnits="userSpaceOnUse"
       id="clipPath4235">
      <circle
         style="fill:#0f9d58;fill-opacity:1;stroke:none;stroke-width:10;stroke-linejoin:round;stroke-miterlimit:4;stroke-dasharray:none;stroke-opacity:0.25882353"
         id="circle4237"
         cx="128"
         cy="924.36218"
         r="128" />
    </clipPath>
    <clipPath
       id="clipPath4771"
       clipPathUnits="userSpaceOnUse">
      <circle
         style="fill:#0f9d58;fill-opacity:1;stroke:none;stroke-width:10;stroke-linejoin:round;stroke-miterlimit:4;stroke-dasharray:none;stroke-opacity:0.25882353"
         id="circle4773"
         cx="128"
         cy="924.36218"
         r="128" />
    </clipPath>
    <clipPath
       clipPathUnits="userSpaceOnUse"
       id="clipPath4842">
      <circle
         style="fill:#0f9d58;fill-opacity:1;stroke:none;stroke-width:10;stroke-linejoin:round;stroke-miterlimit:4;stroke-dasharray:none;stroke-opacity:0.25882353"
         id="circle4844"
         cx="128"
         cy="924.36218"
         r="128" />
    </clipPath>
  </defs>
  <metadata
     id="metadata7">
    <rdf:RDF>
      <cc:Work
         rdf:about="">
        <dc:format>image/svg+xml</dc:format>
        <dc:type
           rdf:resource="http://purl.org/dc/dcmitype/StillImage" />
        <dc:title />
      </cc:Work>
    </rdf:RDF>
  </metadata>
  <g
     inkscape:label="Layer 1"
     inkscape:groupmode="layer"
     id="layer1"
     transform="translate(0,-796.36216)">
    <g
       id="g1009"
       transform="translate(220,9.9999774)">
      <path
         transform="scale(1,-1)"
         d="m 36,-914.36218 a 128,128 0 0 1 -64.000002,110.85125 128,128 0 0 1 -127.999998,0 128,128 0 0 1 -64,-110.85126 l 128,1e-5 z"
         sodipodi:end="3.1415927"
         sodipodi:start="0"
         sodipodi:ry="128"
         sodipodi:rx="128"
         sodipodi:cy="-914.36218"
         sodipodi:cx="-92"
         sodipodi:type="arc"
         id="path915"
         style="opacity:1;fill:#097740;fill-opacity:1;stroke:none;stroke-width:59.1206665;stroke-miterlimit:4;stroke-dasharray:none;stroke-opacity:1" />
      <path
         style="opacity:1;fill:#0f9d58;fill-opacity:1;stroke:none;stroke-width:59.1206665;stroke-miterlimit:4;stroke-dasharray:none;stroke-opacity:1"
         id="path917"
         sodipodi:type="arc"
         sodipodi:cx="-92"
         sodipodi:cy="914.36218"
         sodipodi:rx="128"
         sodipodi:ry="128"
         sodipodi:start="0"
         sodipodi:end="3.1415927"
         d="m 36,914.36218 a 128,128 0 0 1 -64.000002,110.85122 128,128 0 0 1 -127.999998,0 128,128 0 0 1 -64,-110.85122 l 128,0 z" />
    </g>
    <path
       style="fill:none;fill-rule:evenodd;stroke:none;stroke-width:1px;stroke-linecap:butt;stroke-linejoin:miter;stroke-opacity:1"
       d="M 154.47438,968.80998 101.03985,1048.476 0.4857685,1048.9618 0,842.0244 l 33.032258,-2.42884 45.176471,83.55218 21.373814,35.4611 26.717267,13.11575 z"
       id="path4913"
       inkscape:connector-curvature="0" />
    <text
       xml:space="preserve"
       style="font-style:normal;font-weight:normal;line-height:0%;font-family:sans-serif;letter-spacing:0px;word-spacing:0px;fill:#000000;fill-opacity:1;stroke:none;stroke-width:1px;stroke-linecap:butt;stroke-linejoin:miter;stroke-opacity:1"
       x="120"
       y="927.36218"
       id="text4914"><tspan
         sodipodi:role="line"
         id="tspan4916"
         x="120"
         y="927.36218"
         style="font-size:40px;line-height:1.25"> </tspan></text>
    <path
       style="fill:#ffffff;fill-opacity:1"
       d="m 205.55702,986.81687 c -8.10423,-3.59049 -11.30342,-5.74449 -13.36106,-8.99564 -1.99062,-3.14534 -4.50022,-4.89702 -9.49868,-6.63015 -3.73631,-1.29543 -10.42085,-4.02672 -14.85453,-6.0695 l -8.06125,-3.71405 -7.68435,3.55144 c -7.19915,3.32735 -8.71825,3.54943 -24.05974,3.51819 -15.19583,-0.0303 -17.23738,-0.33128 -28.342052,-4.17068 -6.581646,-2.27569 -16.333246,-6.65371 -21.670219,-9.72901 -5.33696,-3.0753 -11.251525,-5.59146 -13.143495,-5.59146 -12.32962,0 -26.81133,-16.18404 -26.88131,-30.04119 -0.0775,-15.33416 13.42672,-22.70734 27.18164,-14.84097 l 5.165466,2.95412 1.386015,-3.91402 c 0.7623,-2.1527 1.521313,-11.42466 1.686692,-20.60434 0.16538,-9.17969 0.709409,-16.69033 1.208947,-16.69033 0.499524,0 2.148907,2.56288 3.665269,5.69527 7.006016,14.47249 24.608427,24.98275 33.842977,20.20738 4.32687,-2.2375 14.238,-2.61044 17.85997,-0.672 1.74793,0.93545 4.5955,0.73466 10.20854,-0.71982 17.47705,-4.52876 30.26998,-14.00543 35.80654,-26.52457 2.17748,-4.9237 3.69724,-6.80379 5.49981,-6.80379 4.27447,0 5.47867,4.75527 6.09911,24.08464 0.89824,27.98442 -2.65091,47.07905 -11.47316,61.72596 l -4.26609,7.08273 3.46995,2.04971 c 1.90849,1.12738 4.37449,2.04981 5.48001,2.04981 1.1055,0 2.01003,0.51293 2.01003,1.13986 0,0.62706 2.69249,2.74781 5.98331,4.71284 4.26165,2.54474 7.28444,3.45974 10.50511,3.18023 7.21716,-0.62654 11.75192,4.11414 15.60609,16.31471 3.39411,10.74414 3.71622,12.52074 2.23086,12.30359 -0.51961,-0.0756 -5.73979,-2.26245 -11.6004,-4.85896 z m -1.94081,-17.69376 c 0,-2.23272 -0.76773,-3.24145 -2.67388,-3.51341 -3.20159,-0.45687 -4.95758,3.05477 -2.81719,5.63378 2.2585,2.72133 5.49107,1.47302 5.49107,-2.12037 z m -10.70699,-2.49158 c 0,-0.60514 -1.15286,-1.46623 -2.56191,-1.91353 -1.40904,-0.44717 -3.68346,-2.01694 -5.05422,-3.48822 -2.34267,-2.51463 -2.62048,-2.547 -4.62707,-0.54052 -2.61112,2.61114 -1.47111,3.96991 5.34558,6.3713 5.00352,1.76263 6.89762,1.64484 6.89762,-0.42903 z m -48.41011,-4.41444 c 12.82264,-3.89041 12.84664,-7.23743 0.0271,-3.76733 -16.98398,4.59731 -39.84149,0.75073 -59.390142,-9.99456 -7.280608,-4.00188 -9.373902,-4.41091 -9.373902,-1.83166 0,1.40288 10.104737,7.16099 17.95641,10.23224 17.730064,6.9355 38.399564,9.11771 50.780614,5.36131 z m 32.03469,-3.29007 c 0,-1.5423 -12.75043,-7.77164 -24.24819,-11.84647 -5.36924,-1.90295 -9.76227,-3.90591 -9.76227,-4.45122 0,-1.64458 2.94131,-2.13182 6.61315,-1.09525 4.58867,1.2953 4.66872,-1.49483 0.14504,-5.05314 -4.10583,-3.22966 -6.72398,-3.3818 -5.92971,-0.34457 1.01887,3.89621 -10.0491,8.08541 -23.79929,9.0081 l -11.66947,0.78288 7.46478,1.66463 c 9.91027,2.21005 21.58466,1.37112 23.83988,-1.71314 1.61127,-2.20348 1.9797,-2.11871 7.59979,1.74801 11.48144,7.89939 26.38722,15.17522 28.12847,13.73016 0.88982,-0.73853 1.61782,-1.83203 1.61782,-2.42999 z m -4.28848,-19.3236 c 8.11845,-14.66733 11.7329,-36.00967 10.00396,-59.0705 -0.86595,-11.55017 -2.14841,-14.9307 -3.74993,-9.88474 -1.09003,3.43436 -10.67982,12.65958 -17.03987,16.39206 -3.09486,1.81625 -9.72594,4.74907 -14.73574,6.51736 -6.73996,2.37897 -8.84318,3.64476 -8.08754,4.86741 2.01262,3.25649 22.82522,-5.66648 31.94886,-13.69741 3.13802,-2.76222 6.32708,-5.0222 7.08678,-5.0222 0.88644,0 1.36733,3.49718 1.34236,9.76227 -0.0825,20.71601 -4.38432,40.22612 -11.26001,51.06801 -4.41064,6.95477 -4.55128,7.5192 -1.7366,6.96812 1.14412,-0.22398 3.94662,-3.7792 6.22773,-7.90038 z m -98.315456,1.25209 c 5.498496,-5.49848 3.679869,-17.97759 -3.939608,-27.03283 -4.506472,-5.35564 -9.355992,-7.66469 -16.097462,-7.66469 -4.77677,0 -6.12816,0.60509 -9.01594,4.03703 -2.944,3.49873 -3.29495,4.78101 -2.63212,9.61687 1.74751,12.74947 12.58159,24.13554 22.96553,24.13554 4.295595,0 6.359601,-0.73186 8.7196,-3.09192 z m -17.27118,-3.79412 c -3.9829,-2.70647 -9.86849,-10.14494 -9.86849,-12.47229 0,-0.43784 1.87058,-0.79607 4.15684,-0.79607 5.40333,0 7.17998,-1.9325 7.17998,-7.80981 0,-2.63265 0.52336,-4.78665 1.16301,-4.78665 1.98341,0 8.915,6.42494 10.740893,9.95583 7.476834,14.45861 -0.878353,24.39881 -13.372233,15.90899 z m 72.529666,-12.0376 c 0.9891,-0.99753 0.75113,-1.145 -0.85865,-0.5321 -5.44182,2.07188 -14.94402,-6.50394 -12.95363,-11.69081 0.66669,-1.73737 0.99267,-1.72512 3.02452,0.11375 2.68265,2.42774 6.62906,2.67537 8.75506,0.54936 1.83356,-1.83354 1.99311,-6.85969 0.25194,-7.93578 -1.96756,-1.21602 -1.47892,-3.14912 0.796,-3.14912 1.13061,0 3.99333,2.05455 6.3616,4.56566 l 4.30597,4.56564 -0.81694,-3.62091 c -1.84817,-8.19161 -7.78839,-13.0176 -16.06268,-13.0497 -10.54903,-0.041 -16.73434,6.99019 -15.69202,17.83784 0.64499,6.71257 3.27332,10.50429 9.14141,13.18777 4.06634,1.85953 11.52167,1.40316 13.74742,-0.84156 z m -39.556665,-4.69673 c -2.541814,-1.27369 -4.898221,-3.65283 -5.588017,-5.64189 -1.401734,-4.04206 -0.293019,-5.74468 2.325623,-3.57141 1.017818,0.84472 3.157174,1.35061 4.754122,1.12424 2.48784,-0.35269 2.881638,-1.10286 2.750587,-5.23985 -0.160655,-5.07133 0.133455,-5.19077 6.45118,-2.62026 4.62692,1.88258 -0.861312,-4.85088 -6.074302,-7.45253 -3.834033,-1.91342 -5.341341,-2.0657 -8.881647,-0.8973 -5.936072,1.95908 -8.538992,5.30421 -9.286291,11.93426 -0.587726,5.21432 -0.27265,6.05368 3.801941,10.12828 3.546624,3.54663 5.421017,4.4424 9.292428,4.44083 l 4.849638,-0.002 -4.395262,-2.20244 z m -4.661269,-28.96469 c 2.047029,-0.58681 1.926293,-1.02315 -1.180403,-4.26585 -1.903389,-1.98669 -3.921481,-3.61218 -4.484669,-3.61218 -0.56319,0 -1.02398,2.32803 -1.02398,5.17336 0,4.43294 0.315491,5.04347 2.204381,4.26585 1.212411,-0.49914 3.230517,-1.20167 4.484671,-1.56118 z"
       id="path4315"
       inkscape:connector-curvature="0" />
  </g>
</svg>
