<?xml version="1.0" encoding="UTF-8" standalone="no"?>
<!-- Created with Inkscape (http://www.inkscape.org/) -->

<svg
   xmlns:dc="http://purl.org/dc/elements/1.1/"
   xmlns:cc="http://creativecommons.org/ns#"
   xmlns:rdf="http://www.w3.org/1999/02/22-rdf-syntax-ns#"
   xmlns:svg="http://www.w3.org/2000/svg"
   xmlns="http://www.w3.org/2000/svg"
   xmlns:sodipodi="http://sodipodi.sourceforge.net/DTD/sodipodi-0.dtd"
   xmlns:inkscape="http://www.inkscape.org/namespaces/inkscape"
   sodipodi:docname="evolution-calendar.svg"
   inkscape:version="0.92.3 (2405546, 2018-03-11)"
   version="1.1"
   id="svg2"
   viewBox="0 0 256 256"
   height="256"
   width="256">
  <sodipodi:namedview
     inkscape:window-maximized="1"
     inkscape:window-y="0"
     inkscape:window-x="0"
     inkscape:window-height="1048"
     inkscape:window-width="1920"
     units="px"
     showgrid="true"
     inkscape:current-layer="layer1"
     inkscape:document-units="px"
     inkscape:cy="127.99997"
     inkscape:cx="127.51238"
     inkscape:zoom="3.3124997"
     inkscape:pageshadow="2"
     inkscape:pageopacity="0.0"
     borderopacity="1.0"
     bordercolor="#666666"
     pagecolor="#ffffff"
     id="base">
    <inkscape:grid
       spacingy="5"
       spacingx="5"
       id="grid4168"
       type="xygrid" />
  </sodipodi:namedview>
  <defs
     id="defs4">
    <clipPath
       id="clipPath5002"
       clipPathUnits="userSpaceOnUse">
      <g
         id="g5004">
        <path
           style="fill:#0f9d58;fill-opacity:1;stroke:none;stroke-width:4.85768509;stroke-linejoin:round;stroke-miterlimit:4;stroke-dasharray:none;stroke-opacity:1"
           d="M 88.118406,249.43519 C 46.103287,235.29134 14.771284,201.68742 4.1335861,159.36053 1.3377997,148.23623 0.92261224,144.16281 0.92582381,127.88908 0.92787958,117.47222 1.134384,112.01362 1.6577819,108.54099 4.4653598,89.913336 12.17654,70.638106 23.042737,55.086148 c 3.958678,-5.665755 8.344812,-10.93092 9.101533,-10.925587 0.32809,0.0023 10.488643,18.309713 22.579009,40.683112 12.090365,22.373397 22.374546,41.334697 22.853732,42.136217 0.479186,0.80151 0.924733,2.44098 0.990103,3.64326 0.343424,6.31639 2.524175,14.20976 5.6424,20.42304 2.954444,5.88693 5.065381,8.73258 10.434696,14.06652 6.71418,6.66995 12.88853,10.28643 21.73204,12.72904 3.16587,0.87442 5.10478,1.05037 11.57517,1.05037 8.82596,0 12.60219,-0.76201 19.26429,-3.88733 2.04584,-0.95974 3.93661,-1.66536 4.20172,-1.56805 0.2651,0.0973 -11.0555,17.66459 -25.1569,39.0384 l -25.6389,38.86148 -3.094121,0.11221 c -2.554618,0.0927 -4.195204,-0.25845 -9.409103,-2.01364 z"
           id="path5006"
           inkscape:connector-curvature="0"
           transform="translate(0,796.36216)" />
        <path
           style="fill:#f4b400;fill-opacity:1;stroke:none;stroke-width:4.85768509;stroke-linejoin:round;stroke-miterlimit:4;stroke-dasharray:none;stroke-opacity:1"
           d="m 112.35984,1051.5167 c -10.0014,-1.4495 -12.15632,-1.8201 -12.531784,-2.1556 -0.248854,-0.2223 1.738304,-3.7475 4.550294,-8.0722 7.16635,-11.0213 49.77231,-74.64801 50.25856,-75.05489 3.57509,-2.99158 8.63523,-8.0414 10.57512,-10.55356 3.36154,-4.35318 7.55784,-12.9141 9.06523,-18.494 6.19314,-22.92535 -2.59253,-47.15185 -21.69967,-59.83688 l -2.96081,-1.96565 17.02469,0.29584 c 9.36358,0.1627 31.17032,0.43384 48.45941,0.60252 l 31.43471,0.30668 1.54584,4.18869 c 2.24597,6.08579 4.67816,15.0947 5.93451,21.9816 1.52517,8.36049 1.92536,28.85896 0.73851,37.82758 -3.0805,23.27845 -12.81326,45.72018 -27.80202,64.10577 -20.47622,25.1166 -51.4599,42.1974 -84.14612,46.3885 -5.31244,0.6812 -26.64601,0.9864 -30.44647,0.4356 z"
           id="path5008"
           inkscape:connector-curvature="0" />
        <path
           style="fill:#db4437;fill-opacity:1;stroke:none;stroke-width:10;stroke-linejoin:round;stroke-miterlimit:4;stroke-dasharray:none;stroke-opacity:1"
           d="M 67.989788,108.87302 C 41.284246,59.575543 33.290284,45.149038 32.233625,44.344765 31.651257,43.901497 32.811213,42.549931 38.695603,36.815353 53.43581,22.450419 68.809334,13.040746 87.839196,6.7360352 101.68742,2.1480329 112.58238,0.43719165 127.95142,0.43719165 c 21.3099,0 37.80488,3.80960275 56.83492,13.12633035 25.29351,12.383198 46.19421,33.578863 58.51993,59.345832 1.61138,3.368591 2.92978,6.372442 2.92978,6.675231 0,0.560033 -10.54865,0.49527 -71.16508,-0.436914 l -24.28843,-0.373518 -3.93063,-1.764495 c -6.75732,-3.033425 -10.64587,-3.839529 -18.6576,-3.867747 -5.0296,-0.01773 -7.97946,0.207636 -10.31642,0.788106 -14.50826,3.603659 -26.283291,12.94777 -33.291614,26.418653 -3.58502,6.89086 -5.24713,13.08166 -6.331628,23.58317 l -0.33738,3.26696 -9.92748,-18.32578 z"
           id="path5010"
           inkscape:connector-curvature="0"
           transform="translate(0,796.36216)" />
      </g>
    </clipPath>
    <clipPath
       clipPathUnits="userSpaceOnUse"
       id="clipPath4271">
      <circle
         style="fill:#292929;fill-opacity:0.26020412;stroke:none;stroke-width:10;stroke-linejoin:round;stroke-miterlimit:4;stroke-dasharray:none;stroke-opacity:0.25882353"
         id="circle4273"
         cx="128"
         cy="128.00002"
         r="128" />
    </clipPath>
    <clipPath
       id="clipPath4363"
       clipPathUnits="userSpaceOnUse">
      <circle
         style="fill:#4285f4;fill-opacity:1;stroke:none;stroke-width:10;stroke-linejoin:round;stroke-miterlimit:4;stroke-dasharray:none;stroke-opacity:0.25882353"
         id="circle4365"
         cx="128"
         cy="924.36218"
         r="128" />
    </clipPath>
    <clipPath
       clipPathUnits="userSpaceOnUse"
       id="clipPath4452">
      <circle
         style="fill:#4285f4;fill-opacity:1;stroke:none;stroke-width:10;stroke-linejoin:round;stroke-miterlimit:4;stroke-dasharray:none;stroke-opacity:0.25882353"
         id="circle4454"
         cx="128"
         cy="924.36218"
         r="128" />
    </clipPath>
    <clipPath
       id="clipPath4954"
       clipPathUnits="userSpaceOnUse">
      <circle
         style="fill:#f16529;fill-opacity:1;stroke:none;stroke-width:10;stroke-linejoin:round;stroke-miterlimit:4;stroke-dasharray:none;stroke-opacity:0.25882353"
         id="circle4956"
         cx="128"
         cy="924.36218"
         r="128" />
    </clipPath>
    <clipPath
       clipPathUnits="userSpaceOnUse"
       id="clipPath5071">
      <circle
         style="fill:#0f9d58;fill-opacity:1;stroke:none;stroke-width:10;stroke-linejoin:round;stroke-miterlimit:4;stroke-dasharray:none;stroke-opacity:0.25882353"
         id="circle5073"
         cx="132.21979"
         cy="933.98254"
         r="99.306747" />
    </clipPath>
    <clipPath
       clipPathUnits="userSpaceOnUse"
       id="clipPath5348">
      <path
         id="path5350"
         d="m 153.38672,796.84847 -105.781251,0 c -7.804357,0 -14.087891,6.28158 -14.087891,14.08594 l 0,227.33989 c 0,7.8043 6.283534,14.0878 14.087891,14.0878 l 165.162111,0 c 7.80436,0 14.08594,-6.2835 14.08594,-14.0878 l 0,-154.82232 -73.4668,-86.60351 z"
         style="fill:#00d75f;fill-opacity:1"
         inkscape:connector-curvature="0" />
    </clipPath>
    <clipPath
       id="clipPath4437"
       clipPathUnits="userSpaceOnUse">
      <circle
         style="fill:#0f9d58;fill-opacity:1;stroke:none;stroke-width:10;stroke-linejoin:round;stroke-miterlimit:4;stroke-dasharray:none;stroke-opacity:0.25882353"
         id="circle4439"
         cx="128"
         cy="953.50806"
         r="128" />
    </clipPath>
    <clipPath
       id="clipPath4878"
       clipPathUnits="userSpaceOnUse">
      <circle
         style="fill:#40f99f;fill-opacity:1;stroke:none;stroke-width:10;stroke-linejoin:round;stroke-miterlimit:4;stroke-dasharray:none;stroke-opacity:0.25882353"
         id="circle4880"
         cx="128"
         cy="924.36218"
         r="128" />
    </clipPath>
    <clipPath
       id="clipPath4264"
       clipPathUnits="userSpaceOnUse">
      <circle
         style="fill:#dedede;fill-opacity:1;stroke:none;stroke-width:10;stroke-linejoin:round;stroke-miterlimit:4;stroke-dasharray:none;stroke-opacity:0.25882353"
         id="circle4266"
         cx="133.01239"
         cy="844.36218"
         r="128" />
    </clipPath>
    <clipPath
       id="clipPath4270"
       clipPathUnits="userSpaceOnUse">
      <circle
         style="fill:#dedede;fill-opacity:1;stroke:none;stroke-width:10;stroke-linejoin:round;stroke-miterlimit:4;stroke-dasharray:none;stroke-opacity:0.25882353"
         id="circle4272"
         cx="127.51238"
         cy="924.36218"
         r="128" />
    </clipPath>
    <clipPath
       id="clipPath4205"
       clipPathUnits="userSpaceOnUse">
      <circle
         style="fill:#dedede;fill-opacity:1;stroke:none;stroke-width:10;stroke-linejoin:round;stroke-miterlimit:4;stroke-dasharray:none;stroke-opacity:0.25882353"
         id="circle4207"
         cx="127.51238"
         cy="924.36218"
         r="128" />
    </clipPath>
    <clipPath
       id="clipPath4209"
       clipPathUnits="userSpaceOnUse">
      <circle
         style="fill:#dedede;fill-opacity:1;stroke:none;stroke-width:10;stroke-linejoin:round;stroke-miterlimit:4;stroke-dasharray:none;stroke-opacity:0.25882353"
         id="circle4211"
         cx="127.51238"
         cy="924.36218"
         r="128" />
    </clipPath>
    <clipPath
       id="clipPath4270-6"
       clipPathUnits="userSpaceOnUse">
      <circle
         style="fill:#dedede;fill-opacity:1;stroke:none;stroke-width:10;stroke-linejoin:round;stroke-miterlimit:4;stroke-dasharray:none;stroke-opacity:0.25882353"
         id="circle4272-1"
         cx="127.51238"
         cy="924.36218"
         r="128" />
    </clipPath>
    <clipPath
       clipPathUnits="userSpaceOnUse"
       id="clipPath4614">
      <path
         style="fill:#dedede;fill-opacity:1;stroke:none;stroke-width:10;stroke-linejoin:round;stroke-miterlimit:4;stroke-dasharray:none;stroke-opacity:0.25882353"
         d="m 255.51238,924.36218 a 128,128 0 0 1 -128,128.00002 128,128 0 0 1 -127.99999749,-128.00002 128,128 0 0 1 127.99999749,-128 128,128 0 0 1 128,128 z"
         id="path4616"
         inkscape:connector-curvature="0" />
    </clipPath>
    <clipPath
       clipPathUnits="userSpaceOnUse"
       id="clipPath4620">
      <path
         style="fill:#dedede;fill-opacity:1;stroke:none;stroke-width:10;stroke-linejoin:round;stroke-miterlimit:4;stroke-dasharray:none;stroke-opacity:0.25882353"
         d="m 255.51238,924.36218 a 128,128 0 0 1 -128,128.00002 128,128 0 0 1 -127.99999749,-128.00002 128,128 0 0 1 127.99999749,-128 128,128 0 0 1 128,128 z"
         id="path4622"
         inkscape:connector-curvature="0" />
    </clipPath>
    <clipPath
       clipPathUnits="userSpaceOnUse"
       id="clipPath4624">
      <path
         style="fill:#dedede;fill-opacity:1;stroke:none;stroke-width:10;stroke-linejoin:round;stroke-miterlimit:4;stroke-dasharray:none;stroke-opacity:0.25882353"
         d="m 255.51238,924.36218 a 128,128 0 0 1 -128,128.00002 128,128 0 0 1 -127.99999749,-128.00002 128,128 0 0 1 127.99999749,-128 128,128 0 0 1 128,128 z"
         id="path4626"
         inkscape:connector-curvature="0" />
    </clipPath>
    <clipPath
       clipPathUnits="userSpaceOnUse"
       id="clipPath4628">
      <path
         style="fill:#dedede;fill-opacity:1;stroke:none;stroke-width:10;stroke-linejoin:round;stroke-miterlimit:4;stroke-dasharray:none;stroke-opacity:0.25882353"
         d="m 255.51238,924.36218 a 128,128 0 0 1 -128,128.00002 128,128 0 0 1 -127.99999749,-128.00002 128,128 0 0 1 127.99999749,-128 128,128 0 0 1 128,128 z"
         id="path4630"
         inkscape:connector-curvature="0" />
    </clipPath>
    <clipPath
       clipPathUnits="userSpaceOnUse"
       id="clipPath4632">
      <path
         style="fill:#dedede;fill-opacity:1;stroke:none;stroke-width:10;stroke-linejoin:round;stroke-miterlimit:4;stroke-dasharray:none;stroke-opacity:0.25882353"
         d="m 255.51238,924.36218 a 128,128 0 0 1 -128,128.00002 128,128 0 0 1 -127.99999749,-128.00002 128,128 0 0 1 127.99999749,-128 128,128 0 0 1 128,128 z"
         id="path4634"
         inkscape:connector-curvature="0" />
    </clipPath>
    <clipPath
       clipPathUnits="userSpaceOnUse"
       id="clipPath4636">
      <path
         style="fill:#dedede;fill-opacity:1;stroke:none;stroke-width:10;stroke-linejoin:round;stroke-miterlimit:4;stroke-dasharray:none;stroke-opacity:0.25882353"
         d="m 255.51238,924.36218 a 128,128 0 0 1 -128,128.00002 128,128 0 0 1 -127.99999749,-128.00002 128,128 0 0 1 127.99999749,-128 128,128 0 0 1 128,128 z"
         id="path4638"
         inkscape:connector-curvature="0" />
    </clipPath>
    <clipPath
       clipPathUnits="userSpaceOnUse"
       id="clipPath4640">
      <path
         style="fill:#dedede;fill-opacity:1;stroke:none;stroke-width:10;stroke-linejoin:round;stroke-miterlimit:4;stroke-dasharray:none;stroke-opacity:0.25882353"
         d="m 255.51238,924.36218 a 128,128 0 0 1 -128,128.00002 128,128 0 0 1 -127.99999749,-128.00002 128,128 0 0 1 127.99999749,-128 128,128 0 0 1 128,128 z"
         id="path4642"
         inkscape:connector-curvature="0" />
    </clipPath>
    <clipPath
       clipPathUnits="userSpaceOnUse"
       id="clipPath4646">
      <path
         style="fill:#dedede;fill-opacity:1;stroke:none;stroke-width:10;stroke-linejoin:round;stroke-miterlimit:4;stroke-dasharray:none;stroke-opacity:0.25882353"
         d="m 255.51238,924.36218 a 128,128 0 0 1 -128,128.00002 128,128 0 0 1 -127.99999749,-128.00002 128,128 0 0 1 127.99999749,-128 128,128 0 0 1 128,128 z"
         id="path4648"
         inkscape:connector-curvature="0" />
    </clipPath>
    <clipPath
       clipPathUnits="userSpaceOnUse"
       id="clipPath4650">
      <path
         style="fill:#dedede;fill-opacity:1;stroke:none;stroke-width:10;stroke-linejoin:round;stroke-miterlimit:4;stroke-dasharray:none;stroke-opacity:0.25882353"
         d="m 255.51238,924.36218 a 128,128 0 0 1 -128,128.00002 128,128 0 0 1 -127.99999749,-128.00002 128,128 0 0 1 127.99999749,-128 128,128 0 0 1 128,128 z"
         id="path4652"
         inkscape:connector-curvature="0" />
    </clipPath>
    <clipPath
       clipPathUnits="userSpaceOnUse"
       id="clipPath4656">
      <path
         style="fill:#dedede;fill-opacity:1;stroke:none;stroke-width:10;stroke-linejoin:round;stroke-miterlimit:4;stroke-dasharray:none;stroke-opacity:0.25882353"
         d="m 255.51238,924.36218 a 128,128 0 0 1 -128,128.00002 128,128 0 0 1 -127.99999749,-128.00002 128,128 0 0 1 127.99999749,-128 128,128 0 0 1 128,128 z"
         id="path4658"
         inkscape:connector-curvature="0" />
    </clipPath>
    <clipPath
       id="clipPath1436"
       clipPathUnits="userSpaceOnUse">
      <path
         inkscape:connector-curvature="0"
         style="fill:#81afff;fill-opacity:1;stroke:none;stroke-width:10;stroke-linejoin:round;stroke-miterlimit:4;stroke-dasharray:none;stroke-opacity:0.25882353"
         d="m 255.51238,924.36218 a 128,128 0 0 1 -128,128.00002 128,128 0 0 1 -127.99999749,-128.00002 128,128 0 0 1 127.99999749,-128 128,128 0 0 1 128,128 z"
         id="path1438" />
    </clipPath>
    <clipPath
       clipPathUnits="userSpaceOnUse"
       id="clipPath4856">
      <path
         style="fill:#81afff;fill-opacity:1;stroke:none;stroke-width:10.95898438;stroke-linejoin:round;stroke-miterlimit:4;stroke-dasharray:none;stroke-opacity:0.25882353"
         d="m 267.74062,924.36218 a 140.275,140.275 0 0 1 -140.275,140.27502 140.275,140.275 0 0 1 -140.275001,-140.27502 140.275,140.275 0 0 1 140.275001,-140.275 140.275,140.275 0 0 1 140.275,140.275 z"
         id="path4858"
         inkscape:connector-curvature="0" />
    </clipPath>
  </defs>
  <metadata
     id="metadata7">
    <rdf:RDF>
      <cc:Work
         rdf:about="">
        <dc:format>image/svg+xml</dc:format>
        <dc:type
           rdf:resource="http://purl.org/dc/dcmitype/StillImage" />
        <dc:title />
      </cc:Work>
    </rdf:RDF>
  </metadata>
  <g
     inkscape:label="Layer 1"
     inkscape:groupmode="layer"
     id="layer1"
     transform="translate(0,-796.36216)">
    <path
       d="m 256,-924.36218 a 128,127.99999 0 0 1 -64,110.85124 128,127.99999 0 0 1 -128.000003,0 A 128,127.99999 0 0 1 0,-924.36219 l 128,1e-5 z"
       sodipodi:end="3.1415927"
       sodipodi:start="0"
       sodipodi:ry="127.99999"
       sodipodi:rx="128"
       sodipodi:cy="-924.36218"
       sodipodi:cx="128"
       sodipodi:type="arc"
       id="path920"
       style="opacity:1;fill:#2c4c7a;fill-opacity:1;stroke:none;stroke-width:25.72896576;stroke-linecap:round;stroke-miterlimit:4;stroke-dasharray:none;stroke-opacity:1"
       transform="scale(1,-1)" />
    <path
       style="opacity:1;fill:#81afff;fill-opacity:1;stroke:none;stroke-width:25.72896576;stroke-linecap:round;stroke-miterlimit:4;stroke-dasharray:none;stroke-opacity:1"
       id="path918"
       sodipodi:type="arc"
       sodipodi:cx="128"
       sodipodi:cy="924.36218"
       sodipodi:rx="128"
       sodipodi:ry="127.99999"
       sodipodi:start="0"
       sodipodi:end="3.1415927"
       d="m 256,924.36218 a 128,127.99999 0 0 1 -64,110.85122 128,127.99999 0 0 1 -128.000003,0 A 128,127.99999 0 0 1 0,924.36218 l 128,0 z" />
    <g
       id="text4912"
       style="font-style:normal;font-variant:normal;font-weight:bold;font-stretch:normal;font-size:125px;line-height:125%;font-family:sans-serif;-inkscape-font-specification:'sans-serif Bold';letter-spacing:0px;word-spacing:0px;fill:#ffffff;fill-opacity:1;stroke:none;stroke-width:1px;stroke-linecap:butt;stroke-linejoin:miter;stroke-opacity:1" />
    <rect
       style="opacity:1;fill:#2c4c7a;fill-opacity:1;stroke:none;stroke-width:5;stroke-linecap:round;stroke-miterlimit:4;stroke-dasharray:none;stroke-opacity:1"
       id="rect922"
       width="130"
       height="80"
       x="65"
       y="902.36218" />
    <g
       style="fill:#ffffff;fill-opacity:1"
       transform="matrix(0.91249329,0,0,0.91249329,11.200857,80.887891)"
       id="g1174">
      <path
         inkscape:connector-curvature="0"
         id="rect1045"
         transform="translate(0,796.36216)"
         d="M 40.328125,87.451172 V 208 H 215.67188 V 87.451172 Z M 92.75,112.10156 c 8.375,0 14.875,1.84375 19.5,5.53125 4.65625,3.6875 6.98437,8.82813 6.98438,15.42188 -2e-5,3.8125 -0.98438,7.375 -2.95313,10.6875 -1.96875,3.28125 -6.10938,7.6875 -12.42187,13.21875 l -14.95313,13.125 h 30.79687 v 13.26562 H 68.84375 v -13.26562 l 25.546875,-22.54688 c 2.28125,-2.0625 3.96875,-4.07812 5.0625,-6.04687 1.093745,-1.96875 1.640625,-4.01563 1.640625,-6.14063 0,-3.28125 -1.109378,-5.92187 -3.328125,-7.92187 -2.1875,-2 -5.109375,-3 -8.765625,-3 -2.8125,0 -5.890625,0.60937 -9.234375,1.82812 -3.34375,1.1875 -6.921875,2.96875 -10.734375,5.34375 v -15.375 c 4.0625,-1.34375 8.078125,-2.35937 12.046875,-3.04687 3.96875,-0.71875 7.859375,-1.07813 11.671875,-1.07813 z m 41.67188,1.26563 h 52.73437 v 10.17187 L 159.875,183.35156 H 142.29688 L 168.125,126.63281 h -33.70312 z"
         style="fill:#ffffff;fill-opacity:1;stroke:none;stroke-width:20.60656738;stroke-miterlimit:4;stroke-dasharray:none;stroke-opacity:1" />
      <path
         id="rect1083"
         d="m 73.204415,844.36216 c -17.476411,0 -31.673791,13.50182 -32.795377,30.68494 H 215.59097 C 214.4694,857.86398 200.272,844.36216 182.79559,844.36216 Z m 4.892978,7.12329 a 8.219178,8.219178 0 0 1 8.219178,8.21918 8.219178,8.219178 0 0 1 -8.219178,8.21918 8.219178,8.219178 0 0 1 -8.219178,-8.21918 8.219178,8.219178 0 0 1 8.219178,-8.21918 z m 51.958477,0 a 8.219178,8.219178 0 0 1 8.21917,8.21918 8.219178,8.219178 0 0 1 -8.21917,8.21918 8.219178,8.219178 0 0 1 -8.21918,-8.21918 8.219178,8.219178 0 0 1 8.21918,-8.21918 z m 51.95633,0 a 8.219178,8.219178 0 0 1 8.21918,8.21918 8.219178,8.219178 0 0 1 -8.21918,8.21918 8.219178,8.219178 0 0 1 -8.21917,-8.21918 8.219178,8.219178 0 0 1 8.21917,-8.21918 z"
         style="fill:#ffffff;fill-opacity:1;stroke:none;stroke-width:17.46966362;stroke-miterlimit:4;stroke-dasharray:none;stroke-opacity:1"
         inkscape:connector-curvature="0" />
    </g>
    <g
       id="g1119" />
    <g
       aria-label="27"
       style="font-style:normal;font-variant:normal;font-weight:bold;font-stretch:normal;font-size:96px;line-height:25px;font-family:sans-serif;-inkscape-font-specification:'sans-serif Bold';letter-spacing:0px;word-spacing:0px;fill:#000000;fill-opacity:1;stroke:none"
       id="text1160" />
  </g>
</svg>
