<?xml version="1.0" encoding="UTF-8" standalone="no"?>
<svg
   xmlns:dc="http://purl.org/dc/elements/1.1/"
   xmlns:cc="http://creativecommons.org/ns#"
   xmlns:rdf="http://www.w3.org/1999/02/22-rdf-syntax-ns#"
   xmlns:svg="http://www.w3.org/2000/svg"
   xmlns="http://www.w3.org/2000/svg"
   xmlns:sodipodi="http://sodipodi.sourceforge.net/DTD/sodipodi-0.dtd"
   xmlns:inkscape="http://www.inkscape.org/namespaces/inkscape"
   sodipodi:docname="cs-region.svg"
   inkscape:version="1.0 (4035a4fb49, 2020-05-01)"
   version="1.1"
   id="svg2"
   viewBox="0 0 256 256"
   height="256"
   width="256">
  <sodipodi:namedview
     inkscape:document-rotation="0"
     inkscape:window-maximized="1"
     inkscape:window-y="0"
     inkscape:window-x="0"
     inkscape:window-height="1048"
     inkscape:window-width="1920"
     units="px"
     showgrid="true"
     inkscape:current-layer="layer1"
     inkscape:document-units="px"
     inkscape:cy="128.00002"
     inkscape:cx="128"
     inkscape:zoom="3.34375"
     inkscape:pageshadow="2"
     inkscape:pageopacity="0.0"
     borderopacity="1.0"
     bordercolor="#666666"
     pagecolor="#ffffff"
     id="base">
    <inkscape:grid
       spacingy="5"
       spacingx="5"
       id="grid4168"
       type="xygrid" />
  </sodipodi:namedview>
  <defs
     id="defs4">
    <inkscape:path-effect
       fuse_tolerance="0"
       vertical_pattern="false"
       prop_units="false"
       tang_offset="0"
       normal_offset="0"
       spacing="0"
       scale_y_rel="false"
       prop_scale="1"
       copytype="single_stretched"
       pattern="M 0,0 1,0"
       is_visible="true"
       id="path-effect4235"
       effect="skeletal" />
    <clipPath
       id="clipPath5002"
       clipPathUnits="userSpaceOnUse">
      <g
         id="g5004">
        <path
           style="fill:#0f9d58;fill-opacity:1;stroke:none;stroke-width:4.85768509;stroke-linejoin:round;stroke-miterlimit:4;stroke-dasharray:none;stroke-opacity:1"
           d="M 88.118406,249.43519 C 46.103287,235.29134 14.771284,201.68742 4.1335861,159.36053 1.3377997,148.23623 0.92261224,144.16281 0.92582381,127.88908 0.92787958,117.47222 1.134384,112.01362 1.6577819,108.54099 4.4653598,89.913336 12.17654,70.638106 23.042737,55.086148 c 3.958678,-5.665755 8.344812,-10.93092 9.101533,-10.925587 0.32809,0.0023 10.488643,18.309713 22.579009,40.683112 12.090365,22.373397 22.374546,41.334697 22.853732,42.136217 0.479186,0.80151 0.924733,2.44098 0.990103,3.64326 0.343424,6.31639 2.524175,14.20976 5.6424,20.42304 2.954444,5.88693 5.065381,8.73258 10.434696,14.06652 6.71418,6.66995 12.88853,10.28643 21.73204,12.72904 3.16587,0.87442 5.10478,1.05037 11.57517,1.05037 8.82596,0 12.60219,-0.76201 19.26429,-3.88733 2.04584,-0.95974 3.93661,-1.66536 4.20172,-1.56805 0.2651,0.0973 -11.0555,17.66459 -25.1569,39.0384 l -25.6389,38.86148 -3.094121,0.11221 c -2.554618,0.0927 -4.195204,-0.25845 -9.409103,-2.01364 z"
           id="path5006"
           inkscape:connector-curvature="0"
           transform="translate(0,796.36216)" />
        <path
           style="fill:#f4b400;fill-opacity:1;stroke:none;stroke-width:4.85768509;stroke-linejoin:round;stroke-miterlimit:4;stroke-dasharray:none;stroke-opacity:1"
           d="m 112.35984,1051.5167 c -10.0014,-1.4495 -12.15632,-1.8201 -12.531784,-2.1556 -0.248854,-0.2223 1.738304,-3.7475 4.550294,-8.0722 7.16635,-11.0213 49.77231,-74.64801 50.25856,-75.05489 3.57509,-2.99158 8.63523,-8.0414 10.57512,-10.55356 3.36154,-4.35318 7.55784,-12.9141 9.06523,-18.494 6.19314,-22.92535 -2.59253,-47.15185 -21.69967,-59.83688 l -2.96081,-1.96565 17.02469,0.29584 c 9.36358,0.1627 31.17032,0.43384 48.45941,0.60252 l 31.43471,0.30668 1.54584,4.18869 c 2.24597,6.08579 4.67816,15.0947 5.93451,21.9816 1.52517,8.36049 1.92536,28.85896 0.73851,37.82758 -3.0805,23.27845 -12.81326,45.72018 -27.80202,64.10577 -20.47622,25.1166 -51.4599,42.1974 -84.14612,46.3885 -5.31244,0.6812 -26.64601,0.9864 -30.44647,0.4356 z"
           id="path5008"
           inkscape:connector-curvature="0" />
        <path
           style="fill:#db4437;fill-opacity:1;stroke:none;stroke-width:10;stroke-linejoin:round;stroke-miterlimit:4;stroke-dasharray:none;stroke-opacity:1"
           d="M 67.989788,108.87302 C 41.284246,59.575543 33.290284,45.149038 32.233625,44.344765 31.651257,43.901497 32.811213,42.549931 38.695603,36.815353 53.43581,22.450419 68.809334,13.040746 87.839196,6.7360352 101.68742,2.1480329 112.58238,0.43719165 127.95142,0.43719165 c 21.3099,0 37.80488,3.80960275 56.83492,13.12633035 25.29351,12.383198 46.19421,33.578863 58.51993,59.345832 1.61138,3.368591 2.92978,6.372442 2.92978,6.675231 0,0.560033 -10.54865,0.49527 -71.16508,-0.436914 l -24.28843,-0.373518 -3.93063,-1.764495 c -6.75732,-3.033425 -10.64587,-3.839529 -18.6576,-3.867747 -5.0296,-0.01773 -7.97946,0.207636 -10.31642,0.788106 -14.50826,3.603659 -26.283291,12.94777 -33.291614,26.418653 -3.58502,6.89086 -5.24713,13.08166 -6.331628,23.58317 l -0.33738,3.26696 -9.92748,-18.32578 z"
           id="path5010"
           inkscape:connector-curvature="0"
           transform="translate(0,796.36216)" />
      </g>
    </clipPath>
    <clipPath
       clipPathUnits="userSpaceOnUse"
       id="clipPath4271">
      <circle
         style="fill:#292929;fill-opacity:0.26020412;stroke:none;stroke-width:10;stroke-linejoin:round;stroke-miterlimit:4;stroke-dasharray:none;stroke-opacity:0.25882353"
         id="circle4273"
         cx="128"
         cy="128.00002"
         r="128" />
    </clipPath>
    <clipPath
       id="clipPath4363"
       clipPathUnits="userSpaceOnUse">
      <circle
         style="fill:#4285f4;fill-opacity:1;stroke:none;stroke-width:10;stroke-linejoin:round;stroke-miterlimit:4;stroke-dasharray:none;stroke-opacity:0.25882353"
         id="circle4365"
         cx="128"
         cy="924.36218"
         r="128" />
    </clipPath>
    <clipPath
       clipPathUnits="userSpaceOnUse"
       id="clipPath4452">
      <circle
         style="fill:#4285f4;fill-opacity:1;stroke:none;stroke-width:10;stroke-linejoin:round;stroke-miterlimit:4;stroke-dasharray:none;stroke-opacity:0.25882353"
         id="circle4454"
         cx="128"
         cy="924.36218"
         r="128" />
    </clipPath>
    <clipPath
       id="clipPath5177"
       clipPathUnits="userSpaceOnUse">
      <circle
         style="fill:#4285f4;fill-opacity:1;stroke:none;stroke-width:10;stroke-linejoin:round;stroke-miterlimit:4;stroke-dasharray:none;stroke-opacity:0.25882353"
         id="circle5179"
         cx="128"
         cy="924.36218"
         r="128" />
    </clipPath>
    <clipPath
       clipPathUnits="userSpaceOnUse"
       id="clipPath4342">
      <circle
         style="fill:#4285f4;fill-opacity:1;stroke:none;stroke-width:10;stroke-linejoin:round;stroke-miterlimit:4;stroke-dasharray:none;stroke-opacity:0.25882353"
         id="circle4344"
         cx="128"
         cy="933.48718"
         r="128" />
    </clipPath>
    <clipPath
       id="clipPath4681"
       clipPathUnits="userSpaceOnUse">
      <circle
         style="fill:#9d5fad;fill-opacity:1;stroke:none;stroke-width:10;stroke-linejoin:round;stroke-miterlimit:4;stroke-dasharray:none;stroke-opacity:0.25882353"
         id="circle4683"
         cx="127.00293"
         cy="930.43964"
         r="128" />
    </clipPath>
    <clipPath
       clipPathUnits="userSpaceOnUse"
       id="clipPath4480">
      <circle
         style="fill:#df7618;fill-opacity:1;stroke:none;stroke-width:10;stroke-linejoin:round;stroke-miterlimit:4;stroke-dasharray:none;stroke-opacity:0.25882353"
         id="circle4482"
         cx="128"
         cy="924.36218"
         r="128" />
    </clipPath>
    <clipPath
       id="clipPath11131"
       clipPathUnits="userSpaceOnUse">
      <circle
         style="fill:#358bde;fill-opacity:1;stroke:none;stroke-width:10;stroke-linejoin:round;stroke-miterlimit:4;stroke-dasharray:none;stroke-opacity:0.25882353"
         id="circle11133"
         cx="128"
         cy="924.36218"
         r="128" />
    </clipPath>
  </defs>
  <metadata
     id="metadata7">
    <rdf:RDF>
      <cc:Work
         rdf:about="">
        <dc:format>image/svg+xml</dc:format>
        <dc:type
           rdf:resource="http://purl.org/dc/dcmitype/StillImage" />
        <dc:title />
      </cc:Work>
    </rdf:RDF>
  </metadata>
  <g
     inkscape:label="Layer 1"
     inkscape:groupmode="layer"
     id="layer1"
     transform="translate(0,-796.36216)">
    <path
       transform="scale(1,-1)"
       style="fill:#1a5e9f;fill-opacity:1;stroke:none;stroke-width:10;stroke-linejoin:round;stroke-miterlimit:4;stroke-dasharray:none;stroke-opacity:0.258824"
       id="path2950"
       sodipodi:type="arc"
       sodipodi:cx="128"
       sodipodi:cy="-924.36218"
       sodipodi:rx="128"
       sodipodi:ry="128"
       sodipodi:start="0"
       sodipodi:end="3.1415927"
       sodipodi:open="true"
       sodipodi:arc-type="arc"
       d="m 256,-924.36218 a 128,128 0 0 1 -64,110.85125 128,128 0 0 1 -128.000003,0 A 128,128 0 0 1 0,-924.36218" />
    <path
       style="fill:none;fill-rule:evenodd;stroke:none;stroke-width:1px;stroke-linecap:butt;stroke-linejoin:miter;stroke-opacity:1"
       d="M 154.47438,968.80998 101.03985,1048.476 0.4857685,1048.9618 0,842.0244 l 33.032258,-2.42884 45.176471,83.55218 21.373814,35.4611 26.717267,13.11575 z"
       id="path4913"
       inkscape:connector-curvature="0" />
    <path
       d="m 256,924.36218 a 128,128 0 0 1 -64,110.85122 128,128 0 0 1 -128.000003,0 A 128,128 0 0 1 0,924.36218"
       sodipodi:arc-type="arc"
       sodipodi:open="true"
       sodipodi:end="3.1415927"
       sodipodi:start="0"
       sodipodi:ry="128"
       sodipodi:rx="128"
       sodipodi:cy="924.36218"
       sodipodi:cx="128"
       sodipodi:type="arc"
       id="path4152"
       style="fill:#358bde;fill-opacity:1;stroke:none;stroke-width:10;stroke-linejoin:round;stroke-miterlimit:4;stroke-dasharray:none;stroke-opacity:0.258824" />
    <text
       xml:space="preserve"
       style="font-style:normal;font-weight:normal;line-height:0%;font-family:sans-serif;letter-spacing:0px;word-spacing:0px;fill:#000000;fill-opacity:1;stroke:none;stroke-width:1px;stroke-linecap:butt;stroke-linejoin:miter;stroke-opacity:1"
       x="120"
       y="927.36218"
       id="text4914"><tspan
         style="font-size:40px;line-height:1.25"
         sodipodi:role="line"
         id="tspan4916"
         x="120"
         y="927.36218"> </tspan></text>
    <path
       inkscape:connector-curvature="0"
       id="path4816"
       d="m 110.78232,987.51511 c -0.33125,-0.2672 -0.712,-0.5785 -0.84612,-0.6915 -0.46386,-0.3911 -1.24167,-1.0214 -1.47749,-1.1973 -0.13021,-0.097 -0.23675,-0.2027 -0.23675,-0.2345 0,-0.057 0.455,-0.515 1.42078,-1.4295 1.75657,-1.6631 3.70939,-3.3065 5.53244,-4.6559 0.32896,-0.2434 0.72148,-0.5368 0.87226,-0.6518 0.50064,-0.3818 2.7035,-1.839 3.58876,-2.3739 1.7341,-1.0478 2.52069,-1.4833 4.18534,-2.3174 0.67238,-0.3369 1.18678,-0.6225 1.1464,-0.6365 -0.16609,-0.058 -0.71874,-0.1857 -1.12972,-0.2616 -0.67059,-0.124 -2.02424,-0.1133 -2.75654,0.022 -1.63369,0.3011 -3.26428,1.0476 -5.23361,2.3962 -0.68827,0.4713 -2.26314,1.5988 -2.69157,1.9271 -0.35458,0.2716 -2.06023,1.3993 -2.312,1.5286 -0.1065,0.055 -0.42051,0.2523 -0.69781,0.4392 -1.44113,0.9711 -3.31065,1.9092 -4.99013,2.5037 -3.75053,1.3276 -7.215467,1.6844 -10.741357,1.1059 -1.55626,-0.2553 -2.9678,-0.7047 -5.03423,-1.6029 -2.02258,-0.879 -4.00943,-2.1106 -5.53267,-3.4294 -0.48369,-0.4188 -1.47397,-1.4033 -1.72731,-1.7173 -0.0774,-0.096 -0.21371,-0.253 -0.30286,-0.3489 -0.0891,-0.096 -0.16229,-0.2038 -0.16253,-0.2397 -5e-4,-0.074 0.0309,-0.059 0.34847,0.1644 0.79168,0.5579 2.38049,1.3065 3.78814,1.7848 0.88101,0.2994 2.38603,0.6479 3.36446,0.7792 0.21931,0.029 0.5894,0.079 0.82243,0.1094 0.23302,0.031 1.10276,0.067 1.93276,0.08 1.60799,0.026 2.50253,-0.03 3.87405,-0.2437 1.51618,-0.236 3.17669,-0.6896 4.436097,-1.2114 0.41699,-0.1728 0.57999,-0.2447 1.17133,-0.5166 0.38488,-0.177 2.92893,-1.3001 3.71337,-1.6392 2.66841,-1.1539 5.09761,-2.0685 6.85353,-2.5804 3.24701,-0.9466 5.62329,-1.32548 8.32393,-1.32743 1.59757,0 3.19973,0.13995 4.35902,0.38383 0.19111,0.04 0.56551,0.1058 0.83201,0.1459 0.4859,0.073 0.76424,0.1534 1.73727,0.5017 0.48026,0.1719 0.56852,0.1877 1.07164,0.1908 0.58181,0.01 0.74136,-0.044 1.14642,-0.3457 0.17889,-0.1331 0.32085,-0.1786 1.07164,-0.3435 3.22311,-0.70785 6.88055,-0.795 10.41737,-0.2483 3.13402,0.4845 6.03604,1.3959 8.92205,2.802 0.50717,0.2471 1.04548,0.4938 1.19625,0.5484 0.15078,0.055 0.50966,0.1933 0.79751,0.3085 0.28785,0.1152 0.65794,0.2612 0.82243,0.3245 0.16448,0.063 1.14017,0.4507 2.1682,0.861 2.37158,0.9464 3.1086,1.1913 4.46103,1.4823 4.93597,1.0619 10.44694,0.2749 14.33011,-2.0466 0.26044,-0.1557 0.60249,-0.372 0.76013,-0.4806 0.15763,-0.1086 0.2866,-0.174 0.2866,-0.1453 0,0.097 -0.88088,1.0724 -1.6023,1.7735 -3.35529,3.2609 -7.92429,5.4531 -12.42875,5.9634 -0.78407,0.089 -3.56279,0.089 -4.18689,0 -1.51554,-0.2151 -1.94667,-0.294 -3.04936,-0.5586 -3.21743,-0.7719 -7.03801,-2.6154 -10.09392,-4.8705 -0.25525,-0.1884 -0.74448,-0.5297 -1.08715,-0.7584 -0.34268,-0.2288 -0.84734,-0.5766 -1.12149,-0.7729 -2.26533,-1.6222 -3.33327,-2.1888 -4.76009,-2.5254 -0.81862,-0.193 -2.98291,-0.1763 -4.26165,0.033 -0.74839,0.1225 -0.76834,0.092 0.45356,0.7011 0.60033,0.2995 1.3698,0.6959 1.70992,0.8809 0.34013,0.185 0.62427,0.3365 0.63143,0.3365 0.007,0 0.18375,0.1009 0.39242,0.2243 0.20866,0.1234 0.3886,0.2243 0.39987,0.2243 0.0305,0 1.8095,1.076 2.46883,1.4933 3.11831,1.9734 6.80233,4.8587 9.56437,7.4908 l 0.46785,0.4458 -0.46785,0.4735 c -0.69142,0.6998 -2.2883,2.0926 -2.59079,2.2596 -0.0619,0.034 -0.18753,-0.073 -0.5732,-0.4888 -2.46631,-2.6597 -5.24889,-5.3369 -7.47171,-7.1886 -0.24654,-0.2055 -0.49327,-0.4142 -0.54828,-0.4639 -0.055,-0.049 -0.22337,-0.1839 -0.37415,-0.2981 -0.15077,-0.1141 -0.43114,-0.3338 -0.62305,-0.4881 -0.83622,-0.6724 -2.58477,-1.9054 -3.61368,-2.5482 -1.08347,-0.6769 -1.68063,-1.0193 -2.79338,-1.6014 l -0.62518,-0.3271 -0.36739,0.076 c -0.48017,0.099 -0.95075,0.2894 -1.84124,0.7436 -1.08841,0.5552 -1.28917,0.6726 -2.29575,1.3427 -2.75108,1.8314 -4.86334,3.475 -7.20467,5.6059 -1.23547,1.1244 -3.66098,3.7019 -4.43611,4.714 -0.0822,0.1074 -0.23993,0.3081 -0.35042,0.4459 -0.11049,0.1379 -0.2675,0.3455 -0.34891,0.4614 -0.0814,0.1159 -0.17099,0.2112 -0.19908,0.2118 -0.028,6e-4 -0.32208,-0.2176 -0.65334,-0.4849 z m -22.672367,-12.3738 c -1.34239,-0.095 -3.00047,-0.3648 -4.16027,-0.6759 -0.74301,-0.1992 -2.30656,-0.7312 -2.99233,-1.018 -0.66894,-0.2798 -1.95856,-0.913 -2.61315,-1.283 -3.01943,-1.70658 -5.82211,-4.19718 -7.72789,-6.86718 -0.57186,-0.80122 -1.42211,-2.2071 -1.42211,-2.3514 0,-0.021 0.2531,0.21975 0.56246,0.5343 1.6617,1.68968 3.49681,2.89823 5.70418,3.75675 0.63881,0.2484 1.48422,0.53805 1.83299,0.62798 1.12752,0.29062 1.53935,0.393 1.76945,0.43995 0.15078,0.0308 0.43457,0.0898 0.63065,0.1311 0.19608,0.0412 0.52131,0.0995 0.72274,0.12915 0.20142,0.0292 0.48959,0.0727 0.64037,0.0966 0.68306,0.10642 1.03997,0.15367 1.68041,0.22252 1.64051,0.17633 2.27707,0.22448 6.6186,0.50063 3.07118,0.1953 5.36654,0.45367 7.07783,0.79672 0.35638,0.0712 0.88348,0.1731 1.17133,0.22598 0.28785,0.0525 0.82617,0.16477 1.19625,0.24885 0.82182,0.18667 1.726807,0.28027 2.043597,0.21142 l 0.2243,-0.0487 -0.32399,-0.14992 c -0.32925,-0.15233 -0.959327,-0.33255 -1.769457,-0.50603 -0.98368,-0.21067 -1.92612,-0.56347 -3.23985,-1.21275 -1.59556,-0.78862 -3.19432,-2.18715 -4.46139,-3.90277 -0.97772,-1.32383 -1.65294,-2.50838 -3.31415,-5.81415 -0.67131,-1.3359 -1.28802,-2.54336 -1.37045,-2.68316 -0.0824,-0.1398 -0.14989,-0.26318 -0.14989,-0.27413 0,-0.0886 -1.2011,-1.99717 -1.58951,-2.52585 -0.12083,-0.1644 -0.0202,-0.15697 0.21277,0.0157 0.12381,0.0918 0.33919,0.2454 0.47863,0.34133 0.24234,0.1668 1.31731,0.94717 1.42147,1.032 0.0274,0.0225 0.15078,0.11812 0.27414,0.21285 0.29534,0.22695 1.68485,1.3389 1.84423,1.47585 1.8465,1.58696 2.42226,2.10236 3.83746,3.43511 0.62481,0.58837 2.40669,2.28952 3.16432,3.021 0.32967,0.31822 0.668,0.6435 0.75184,0.7227 0.0838,0.0793 0.56608,0.5388 1.07165,1.0212 0.50556,0.4824 1.02014,0.9666 1.1435,1.07595 1.920117,1.70287 4.734647,3.2103 7.700877,4.12455 0.32897,0.1014 0.69906,0.21555 0.82243,0.25365 0.40914,0.1263 1.76018,0.46372 2.3925,0.5976 0.81568,0.1726 0.80059,0.16672 0.64193,0.2507 -0.13204,0.07 -1.05294,0.2085 -2.28678,0.3442 -0.61454,0.067 -1.79764,0.339 -3.81305,0.8748 -0.41202,0.1096 -0.93934,0.2478 -2.2679,0.5947 -4.345557,1.1347 -7.089457,1.6702 -9.867297,1.9257 -0.98196,0.09 -3.42327,0.1313 -4.26344,0.071 z m 76.510357,-0.4539 c -2.49005,-0.145 -5.56755,-0.6838 -9.79433,-1.7148 -0.8976,-0.219 -1.16436,-0.2826 -3.09032,-0.7377 -1.51328,-0.3576 -2.41076,-0.5484 -3.78813,-0.8058 -0.48216,-0.09 -1.60544,-0.25135 -2.10591,-0.30235 -0.19751,-0.0203 -0.33636,-0.0578 -0.33624,-0.0908 0,-0.0323 0.53673,-0.18825 1.25855,-0.36547 4.40872,-1.08233 7.33739,-2.43458 9.78167,-4.51635 0.19189,-0.1635 1.48305,-1.42125 2.86923,-2.7951 4.92799,-4.88415 6.02243,-5.91521 8.22103,-7.74431 1.3517,-1.12463 3.51466,-2.74463 3.57878,-2.6805 0.013,0.0128 -0.11016,0.2094 -0.27376,0.43635 -0.83625,1.1601 -1.6254,2.56432 -2.45877,4.37531 -0.15769,0.34267 -0.38098,0.82492 -0.49618,1.07167 -0.11523,0.24668 -0.37359,0.80745 -0.57417,1.24605 -2.0337,4.44728 -3.79232,6.59888 -6.74819,8.25593 -1.23779,0.6939 -1.96044,0.987 -3.66938,1.48815 -0.76588,0.22462 -1.47588,0.47235 -1.66977,0.58267 -0.11139,0.0638 -0.0611,0.0683 0.47352,0.0457 0.73878,-0.0315 1.64781,-0.16537 2.91586,-0.43042 1.7459,-0.36495 1.77127,-0.3693 3.7383,-0.6444 1.42872,-0.19988 2.79648,-0.33915 5.40806,-0.55073 0.35638,-0.0293 0.90591,-0.0743 1.22117,-0.10012 0.31527,-0.0262 0.87601,-0.0712 1.2461,-0.10065 0.77284,-0.0607 2.54461,-0.23438 2.76634,-0.2709 0.0822,-0.0135 0.41868,-0.0593 0.74766,-0.1008 1.60275,-0.204 3.33228,-0.54803 4.56071,-0.90705 0.86676,-0.25335 1.03553,-0.30833 1.63054,-0.53138 2.6,-0.9747 4.68535,-2.38747 6.46576,-4.38045 0.18961,-0.21225 0.35418,-0.37642 0.36572,-0.36487 0.0287,0.0285 -0.54906,1.1631 -0.82659,1.62307 -0.88875,1.47278 -1.68001,2.47215 -3.02235,3.81735 -1.2953,1.29795 -2.38747,2.1942 -3.86542,3.1719 -1.30013,0.8601 -2.3654,1.4474 -3.91275,2.1572 -0.4004,0.1836 -1.58615,0.6286 -2.38904,0.8965 -2.43003,0.8108 -5.24043,1.1411 -8.2277,0.9672 z m -73.395117,-6.81993 c -0.0889,-0.0518 -0.97985,-0.31425 -1.64485,-0.48472 -1.48649,-0.381 -3.4833,-0.76058 -6.52954,-1.24133 -4.89652,-0.77265 -7.68576,-1.55242 -10.15834,-2.83995 -0.8194,-0.42667 -2.74892,-1.65817 -3.83127,-2.4453 -0.40659,-0.29572 -0.75048,-0.55065 -0.76418,-0.56662 -0.0137,-0.0158 -0.18177,-0.1518 -0.37347,-0.30195 -1.21765,-0.95355 -2.92808,-2.55663 -3.88104,-3.63739 -0.27797,-0.3153 -0.51716,-0.58447 -0.53153,-0.59812 -0.0144,-0.0135 -0.13777,-0.15953 -0.27423,-0.324 -0.13646,-0.16448 -0.26128,-0.31028 -0.27738,-0.324 -0.10995,-0.0936 -1.21463,-1.60755 -1.60354,-2.19758 -0.41059,-0.62295 -1.08368,-1.71915 -1.08368,-1.7649 0,-0.008 -0.0781,-0.1536 -0.1735,-0.32242 -0.4602,-0.8142 -1.0981,-2.2776 -1.47817,-3.39105 -0.29865,-0.87495 -0.74101,-2.63565 -0.74064,-2.94795 1.7e-4,-0.1425 0.0397,-0.086 0.26642,0.381 1.78325,3.67267 4.62464,6.40755 9.28269,8.93475 0.59738,0.32407 3.63253,1.8564 3.6771,1.8564 0.0975,0 4.34345,2.11863 5.22337,2.60628 1.90431,1.0554 3.61089,2.21603 4.85907,3.30465 0.4881,0.42563 1.35082,1.06433 2.07909,1.53908 0.61472,0.4008 1.71487,1.00252 1.75657,0.96082 0.0132,-0.0135 -0.22914,-0.2544 -0.53854,-0.53602 -0.78985,-0.71888 -2.13684,-2.04465 -2.58496,-2.54423 -1.11082,-1.23832 -2.34108,-3.07042 -2.97181,-4.42563 -0.96169,-2.06625 -1.50167,-4.08525 -2.08163,-7.78335 -0.12117,-0.77265 -0.16016,-1.02923 -0.35593,-2.3427 -0.56689,-3.80318 -1.17155,-6.14925 -2.11145,-8.19225 -0.0865,-0.18795 -0.14682,-0.3522 -0.13405,-0.36503 0.0422,-0.042 2.51755,3.06923 2.92345,3.67463 0.0411,0.0615 0.1209,0.1701 0.17728,0.24165 0.60881,0.77287 2.30373,3.38722 2.86338,4.41675 0.0745,0.13702 0.23901,0.43605 0.36556,0.66442 0.30457,0.5496 0.89227,1.76018 1.11464,2.29598 0.39557,0.9531 0.55839,1.40932 1.70059,4.76535 1.11185,3.26693 1.07456,3.1623 1.67485,4.69781 0.91961,2.35237 2.0619,4.45327 3.31493,6.0969 0.73545,0.96472 1.85397,2.1573 2.60865,2.78137 0.21122,0.17468 0.37185,0.33728 0.35697,0.36135 -0.0321,0.0517 -0.0267,0.0517 -0.12088,0 z m 35.264537,-0.38175 c -3.60034,-0.1062 -7.24834,-0.54405 -10.74135,-1.28932 -4.03466,-0.86078 -8.22754,-2.30243 -11.73824,-4.03613 -2.05787,-1.01625 -3.28095,-1.7148 -4.934537,-2.81835 -0.7207,-0.48105 -0.98199,-0.66097 -1.86252,-1.28257 -0.5823,-0.41115 -2.07822,-1.52944 -2.43992,-1.82396 -0.21059,-0.17153 -0.61839,-0.50183 -0.90624,-0.73403 -0.28785,-0.2322 -0.54579,-0.44677 -0.57321,-0.47677 -0.0274,-0.03 -0.30778,-0.27653 -0.62304,-0.5478 -2.23695,-1.9248 -4.73311,-4.52333 -6.59866,-6.86918 -3.69042,-4.64062 -6.44711,-9.57232 -8.44488,-15.1077 -1.44234,-3.99645 -2.45387,-8.56343 -2.87439,-12.97748 -0.36568,-3.83858 -0.30023,-8.26088 0.17827,-12.04418 0.27019,-2.1363 0.69729,-4.5921 1.04021,-5.98125 0.0271,-0.10965 0.14196,-0.58072 0.25532,-1.0467 0.30932,-1.2717 0.55281,-2.10457 1.04372,-3.5703 1.08276,-3.23265 2.61496,-6.53423 4.51464,-9.72803 0.25762,-0.43312 0.46839,-0.79852 0.46839,-0.81202 0,-0.0135 0.0235,-0.0518 0.0522,-0.0848 0.0287,-0.033 0.39128,-0.57607 0.80567,-1.2066 0.41438,-0.63052 0.97848,-1.46047 1.25354,-1.84425 0.4518,-0.63037 1.55794,-2.10652 1.62478,-2.16817 0.0148,-0.0135 0.11586,-0.1371 0.22447,-0.2742 2.3647,-2.98418 5.48537,-6.12998 8.40059,-8.46803 2.553,-2.04765 4.68203,-3.46485 7.476577,-4.97685 1.1081,-0.59955 2.98368,-1.49468 4.42065,-2.10975 3.29184,-1.40895 7.05669,-2.58488 10.45774,-3.26618 0.41121,-0.0824 0.79252,-0.17025 0.84735,-0.1953 0.0548,-0.0247 0.42493,-0.10177 0.82243,-0.1707 2.11695,-0.36675 3.3117,-0.5139 6.15572,-0.75825 1.4205,-0.12202 5.25489,-0.1221 6.72892,-1.5e-4 1.6773,0.13875 3.96818,0.4134 4.83486,0.5796 0.13707,0.0263 0.58566,0.10793 0.99688,0.18143 0.41121,0.0735 0.77009,0.14992 0.7975,0.16987 0.0274,0.0203 0.34143,0.098 0.69781,0.17348 4.747,1.00477 9.9017,2.91277 14.18059,5.2488 1.2481,0.68137 1.54121,0.85117 2.66665,1.54477 2.76661,1.70513 5.45248,3.70928 7.7258,5.7648 1.75704,1.5888 3.1322,2.99115 4.82083,4.91633 0.49842,0.56828 1.6262,1.98375 2.31952,2.91128 0.62941,0.84202 2.29324,3.297 2.47277,3.64852 0.0448,0.0877 0.14623,0.2559 0.22545,0.3738 0.15731,0.23423 0.4899,0.8058 1.05277,1.80945 0.30661,0.54668 2.14285,4.17323 2.14285,4.2321 0,0.0105 0.099,0.2292 0.21997,0.48555 1.06056,2.2473 2.24832,5.67128 2.91951,8.41621 1.09586,4.48162 1.61096,8.70847 1.61571,13.2585 0.002,2.14755 -0.11455,4.3191 -0.31902,5.93138 -0.4216,3.32445 -0.77159,5.0343 -1.69363,8.27407 -0.0273,0.096 -0.11855,0.4212 -0.20276,0.72278 -1.16368,4.16707 -3.19042,8.60633 -5.84838,12.80985 -1.28177,2.0271 -2.84927,4.19258 -4.18526,5.7819 -0.16131,0.19193 -0.33903,0.405 -0.39492,0.47348 -0.97293,1.19295 -3.44395,3.78637 -4.89619,5.13862 -2.88398,2.68553 -6.45406,5.29819 -9.64479,7.05821 -1.09242,0.60263 -2.5456,1.3302 -3.4143,1.70955 -0.32898,0.14363 -0.85608,0.38378 -1.17134,0.53363 -2.51705,1.19655 -5.26089,2.1777 -8.17439,2.9232 -0.90555,0.23175 -1.14693,0.28687 -2.32365,0.53137 -1.70524,0.35423 -3.51603,0.6261 -5.47693,0.82223 -1.82604,0.18262 -5.13749,0.29857 -6.97815,0.24427 z m 3.526,-2.8383 c 0.1716,-0.0127 0.67086,-0.0465 1.10949,-0.0752 3.65068,-0.23827 7.72009,-0.9555 10.94073,-1.92817 0.31526,-0.0952 0.70778,-0.21293 0.87227,-0.2616 1.06551,-0.31545 2.13161,-0.69713 3.86289,-1.38308 2.06053,-0.81637 4.99843,-2.27032 6.8037,-3.36712 1.52218,-0.92479 2.94026,-1.84534 3.78813,-2.45906 0.16449,-0.11903 0.52336,-0.37913 0.7975,-0.57795 1.29839,-0.9417 3.80258,-2.9862 4.61056,-3.76425 l 0.17445,-0.168 -0.45066,-0.43365 c -0.24786,-0.2385 -0.67402,-0.645 -0.94703,-0.90323 -0.273,-0.25822 -0.70945,-0.67387 -0.96988,-0.92362 -0.26044,-0.24968 -0.70925,-0.6777 -0.99735,-0.951 -2.45654,-2.3304 -2.23,-2.09393 -2.26758,-2.36715 -0.0187,-0.1365 -0.0545,-0.24818 -0.0793,-0.24818 -0.0248,0 -0.0452,0.0203 -0.0452,0.0457 0,0.0248 -0.13149,0.22125 -0.2922,0.43613 -0.48051,0.6423 -1.03817,1.1529 -2.44921,2.24265 -0.28785,0.2223 -0.71402,0.57615 -0.94703,0.7863 -0.48541,0.4377 -1.40969,1.06515 -2.24298,1.52272 -1.58244,0.86895 -2.44753,1.64603 -2.87383,2.5815 -0.0961,0.21083 -0.26922,0.48465 -0.38474,0.60848 -0.11553,0.1239 -0.408,0.5106 -0.64994,0.85935 -0.52446,0.75607 -0.89344,1.14135 -1.34588,1.4055 -0.24919,0.1455 -0.36082,0.24645 -0.4366,0.39502 -0.18719,0.3669 -0.56815,0.68475 -1.23172,1.02765 -0.59885,0.30946 -1.20184,0.70621 -1.20184,0.79084 0,0.11437 -0.74158,0.5682 -1.05922,0.64815 -0.75485,0.19012 -1.39421,-0.0652 -2.65416,-1.06046 -0.69815,-0.5514 -1.08918,-0.81488 -1.49589,-1.008 -0.42977,-0.20415 -0.51674,-0.2055 -1.51965,-0.0248 -2.57625,0.46515 -2.95747,0.52522 -3.81306,0.60105 -0.30156,0.027 -0.90528,0.0878 -1.3416,0.1356 -0.66942,0.0735 -0.87182,0.0779 -1.29595,0.0285 -0.27644,-0.0323 -0.55427,-0.0728 -0.61739,-0.0905 l -0.11479,-0.0322 0.0401,0.96603 c 0.0518,1.25063 0.0515,5.08358 -5.6e-4,6.29333 l -0.0404,0.9411 0.22689,-0.13298 c 0.15795,-0.0925 0.32166,-0.13995 0.53887,-0.156 z m -3.60167,0.1887 c -5.5e-4,-0.0202 -0.0678,-0.13605 -0.14953,-0.25672 l -0.14862,-0.2193 0,-3.6357 c 0,-3.56868 0.002,-3.63813 0.10038,-3.76338 0.0552,-0.0705 0.0914,-0.13658 0.0804,-0.14761 -0.011,-0.0113 -0.1827,0.0195 -0.38161,0.0675 -0.34414,0.0831 -0.40774,0.0831 -1.31405,0 -6.61729,-0.60166 -12.48957,-2.36093 -17.69996,-5.30281 -2.70817,-1.5291 -5.24851,-3.37035 -7.472127,-5.41575 -0.94056,-0.8652 -0.93315,-0.86002 -0.97641,-0.68137 -0.0137,0.0562 -1.23612,1.32705 -2.71649,2.82315 -1.48036,1.4961 -2.69796,2.73757 -2.70578,2.7588 -0.0166,0.045 1.62914,1.42365 2.50641,2.09955 1.54951,1.19392 2.49635,1.87552 3.81305,2.74485 1.248827,0.82447 2.693767,1.71318 3.513997,2.16123 0.19189,0.10485 0.5732,0.31328 0.84734,0.46313 1.26478,0.6915 4.75463,2.35252 4.94594,2.35402 0.0211,0 0.0979,0.0315 0.17052,0.069 0.0726,0.0383 0.31935,0.13965 0.54828,0.22605 0.22892,0.0864 0.46107,0.17655 0.51591,0.20025 0.32656,0.14145 1.73899,0.64133 2.56695,0.90848 2.28352,0.7368 4.87899,1.37002 7.20244,1.75717 1.7958,0.29925 2.46671,0.37808 4.06228,0.47745 0.94889,0.0592 1.89811,0.17048 2.29282,0.2691 0.33417,0.0835 0.39901,0.0903 0.39784,0.042 z m -0.049,-10.54571 c 0,-0.009 -0.0561,-0.18105 -0.12461,-0.38257 l -0.1246,-0.36638 0,-3.44715 c 0,-1.89585 -0.0128,-3.45982 -0.0284,-3.47542 -0.0156,-0.0158 -0.15578,0.0233 -0.31152,0.0864 -0.26703,0.10822 -0.3173,0.11227 -0.88131,0.0705 -1.43409,-0.10515 -2.82347,-0.29198 -3.88782,-0.52275 -0.32898,-0.0712 -0.73895,-0.16043 -0.91107,-0.19793 -0.17211,-0.0375 -0.6842,-0.1716 -1.13797,-0.2979 -3.45185,-0.96097 -6.87582,-2.66152 -10.22501,-5.07825 -0.37005,-0.26707 -0.34866,-0.1971 0.14603,0.4773 0.41143,0.56093 0.43864,0.9918 0.0829,1.3131 -0.4152,0.37515 -0.87901,0.48023 -2.04906,0.46425 -0.8611,-0.012 -1.07964,0.0307 -1.87681,0.3651 -0.26265,0.11018 -0.6682,0.27923 -0.90122,0.37575 -0.23301,0.0965 -0.6704,0.23115 -0.97195,0.29933 -0.81989,0.18532 -1.02674,0.13575 -1.75861,-0.42165 -0.51881,-0.39518 -0.9564,-0.6219 -1.15976,-0.60105 -0.1448,0.015 -0.1177,0.0442 0.55857,0.61215 1.82729,1.53352 3.42787,2.71965 5.25074,3.89107 0.6318,0.40598 1.73048,1.06853 2.14329,1.2924 0.1919,0.10403 0.49748,0.2754 0.67907,0.3807 0.93039,0.53955 2.8536,1.4355 4.47977,2.08695 3.57319,1.4313 7.30457,2.2971 11.35304,2.6343 l 1.04767,0.0872 0.2645,0.18517 c 0.23576,0.165 0.34404,0.21818 0.34404,0.16898 z m 3.56384,-0.258 c 0.65074,-0.15337 1.67049,-0.29707 2.81619,-0.39697 1.2431,-0.1083 2.38521,-0.2238 2.56461,-0.2592 0.13959,-0.0277 0.13116,-0.0352 -0.16285,-0.15308 -0.17053,-0.0683 -0.4162,-0.2181 -0.54595,-0.33307 -0.17109,-0.15165 -0.31076,-0.22583 -0.50843,-0.27015 -0.63276,-0.1419 -1.13328,-0.63375 -1.59163,-1.56405 -0.48016,-0.97455 -0.48696,-1.23818 -0.0545,-2.1114 0.13685,-0.2763 0.24882,-0.53543 0.24882,-0.57585 0,-0.12855 -0.3255,-0.39495 -0.57379,-0.46965 -0.17358,-0.0525 -0.50847,-0.072 -1.21605,-0.0728 -0.53707,0 -1.055,-0.0225 -1.15095,-0.0488 -0.10498,-0.0292 -0.28169,-0.15825 -0.44373,-0.3237 -0.29189,-0.29813 -0.4851,-0.3819 -0.32809,-0.14228 0.271,0.41363 0.25955,0.33443 0.30521,2.1102 0.0533,2.07458 0.0545,3.381 0.004,4.18043 -0.0368,0.5802 -0.0339,0.61455 0.0499,0.58207 0.0489,-0.0188 0.31326,-0.0874 0.58741,-0.15195 z m -37.087057,-7.0035 c 0.57747,-0.58965 1.57704,-1.61235 2.22127,-2.27265 0.97746,-1.00185 1.21052,-1.2153 1.40809,-1.28977 0.26668,-0.1005 0.28472,-0.13643 0.12461,-0.24773 -0.20805,-0.14475 -0.99036,-0.94485 -1.63509,-1.6722 -0.63467,-0.71602 -0.64408,-0.72405 -1.01692,-0.86272 -0.72529,-0.26978 -1.40129,-0.82763 -1.79327,-1.47998 -0.12739,-0.21195 -0.17156,-0.35167 -0.19482,-0.61627 -0.0432,-0.49178 -0.0958,-0.5298 -0.34956,-0.25283 -0.18057,0.19703 -0.23898,0.22913 -0.4641,0.25463 -0.34461,0.039 -0.58322,-0.0817 -1.05437,-0.53385 -0.20067,-0.1926 -0.45303,-0.40853 -0.56079,-0.47985 -0.25115,-0.1662 -0.36465,-0.354 -0.57553,-0.95221 -0.10823,-0.30705 -0.22315,-0.5373 -0.31324,-0.62752 -0.12744,-0.12765 -0.17467,-0.14205 -0.45269,-0.13815 -0.17072,0 -0.35197,-0.018 -0.40276,-0.045 -0.0508,-0.027 -0.19618,-0.19493 -0.32308,-0.37283 -0.18751,-0.26272 -0.25624,-0.32332 -0.367,-0.32332 -0.24443,0 -0.59488,-0.15368 -0.79638,-0.3492 -0.10856,-0.10538 -0.33739,-0.40073 -0.50852,-0.65633 -0.17112,-0.25567 -0.33545,-0.4809 -0.36517,-0.50055 -0.0341,-0.0225 -0.0759,0.0495 -0.11321,0.19485 -0.0866,0.33765 -0.19878,0.4278 -0.52834,0.4248 -0.47378,-0.008 -0.66048,-0.1485 -1.4911,-1.15222 -0.32487,-0.39263 -0.40764,-0.45015 -0.52574,-0.3657 -0.34188,0.24465 -0.47947,0.20685 -0.83111,-0.22838 -0.34965,-0.43275 -0.60694,-0.97732 -0.68721,-1.45447 -0.0425,-0.25268 -0.11618,-0.4626 -0.22736,-0.64793 -0.3798,-0.63307 -0.45738,-1.4568 -0.26054,-2.76637 0.0536,-0.35633 0.0979,-0.6765 0.0985,-0.71138 6.3e-4,-0.0345 0.087,-0.15825 0.19183,-0.27412 0.28393,-0.3138 0.3576,-0.44048 0.3576,-0.61485 0,-0.11663 0.0487,-0.20513 0.18692,-0.33975 0.20205,-0.19688 0.48509,-0.29828 0.97344,-0.34898 l 0.28808,-0.03 0.24878,0.23273 0.24878,0.23265 0.34904,-0.0622 c 0.43741,-0.0782 0.51695,-0.15008 0.47825,-0.43245 -0.0287,-0.2091 -0.026,-0.21368 0.2063,-0.35655 0.25914,-0.15938 0.7257,-0.32295 1.17368,-0.41145 0.36154,-0.0712 0.38062,-0.057 0.79141,0.61177 0.29072,0.4731 0.43985,0.66023 0.34009,0.42675 -0.069,-0.16132 -0.41058,-1.68652 -0.61755,-2.757 -0.32432,-1.67745 -0.56965,-3.49545 -0.65739,-4.87147 -0.0262,-0.411 -0.0551,-0.55921 -0.12479,-0.63953 -0.0865,-0.0997 -0.0833,-0.246 0.005,-0.246 0.023,0 0.0486,-0.2916 0.057,-0.64808 0.01,-0.40897 -0.003,-0.648 -0.0346,-0.64792 -0.0274,0 -0.17321,0.048 -0.32398,0.10597 -0.27362,0.10568 -0.28117,0.10583 -3.95738,0.0712 l -3.68323,-0.0345 0.0343,0.6138 c 0.15188,2.71913 0.59821,5.90318 1.20744,8.61368 0.43561,1.93808 1.11652,4.33478 1.66387,5.85668 0.0789,0.2193 0.21488,0.6006 0.30223,0.84735 0.53868,1.52152 1.60514,3.98872 2.4419,5.64908 0.63444,1.25902 1.05323,2.0511 1.2225,2.3124 0.0662,0.10222 0.12041,0.19852 0.12041,0.21397 0,0.0158 0.2336,0.4029 0.51911,0.86093 0.7428,1.19145 1.5979,2.40772 2.73324,3.88762 0.92178,1.2015 1.17537,1.53225 1.54032,2.00925 0.2014,0.26318 0.62451,0.8127 0.94026,1.22115 0.31575,0.40845 0.62793,0.8187 0.69374,0.91163 l 0.11964,0.16897 0.44947,-0.468 c 0.2472,-0.25747 0.92193,-0.95055 1.49939,-1.5402 z m 72.226267,1.5969 c 0.0422,-0.0815 0.28617,-0.38992 0.54233,-0.68535 1.97762,-2.28127 4.23073,-5.40322 5.74799,-7.96462 0.78533,-1.3257 1.00123,-1.72163 1.78407,-3.27143 3.07165,-6.08085 4.7709,-12.4305 5.2343,-19.55911 0.0624,-0.95977 0.0917,-1.18432 0.17809,-1.36305 0.11298,-0.23385 0.10388,-0.28755 -0.0364,-0.21487 -0.0541,0.0278 -1.64691,0.0593 -3.89842,0.0755 l -3.80694,0.0277 -0.18946,-0.11955 -0.18947,-0.11963 0.11016,0.315 c 0.0996,0.28485 0.10666,0.36945 0.0737,0.88313 -0.22561,3.5088 -0.80352,6.66653 -1.84172,10.06335 -0.47762,1.56263 -1.26075,3.61245 -1.96142,5.1339 -0.78171,1.6974 -1.85622,3.67598 -2.84229,5.23358 -0.71094,1.12305 -1.7448,2.6223 -1.95199,2.83073 -0.0352,0.0353 -0.41005,0.49522 -0.83298,1.0218 -0.71443,0.8895 -1.27914,1.491 -1.82588,1.94467 l -0.22429,0.18615 0.24826,0.21083 c 1.54432,1.3113 3.26753,3.0105 5.33179,5.2575 0.13223,0.14392 0.24797,0.26167 0.25723,0.26167 0.009,0 0.0513,-0.0667 0.0934,-0.14812 z m -14.08016,-2.0967 c 1.07446,-0.801 1.75354,-1.32705 2.34675,-1.81785 0.6349,-0.52522 1.68831,-1.58302 1.54107,-1.5474 -0.4211,0.10178 -0.58318,0.0917 -0.84801,-0.0525 -0.44278,-0.24097 -0.74243,-0.75547 -0.74981,-1.2873 -0.002,-0.1116 -0.0296,-0.27405 -0.0623,-0.36105 -0.0341,-0.0905 -0.5619,-0.6771 -1.23355,-1.3707 -1.89219,-1.95405 -1.96163,-2.02987 -2.06053,-2.24887 -0.0847,-0.18758 -0.10013,-0.19958 -0.14953,-0.1167 -0.20711,0.34747 -0.37675,0.56527 -0.7271,0.93337 l -0.39895,0.4191 0,0.29903 c 5.6e-4,0.73447 0.0779,0.84277 0.8214,1.14855 0.70495,0.28995 1.14649,0.5544 1.53904,0.9216 0.31612,0.29572 0.5739,0.702 0.66975,1.05562 0.0455,0.16763 0.0341,0.21165 -0.12123,0.4695 -0.0942,0.15653 -0.32209,0.45053 -0.50634,0.6534 -1.1469,1.2627 -1.28559,1.7193 -0.72864,2.3988 0.32118,0.3918 0.30182,0.56745 -0.11175,1.01393 -0.12408,0.13395 -0.21734,0.28327 -0.21734,0.348 0,0.0929 0.0292,0.0712 0.16199,-0.1218 0.10609,-0.15405 0.3942,-0.4083 0.83489,-0.7368 z m -28.4478,-3.447 c -0.34704,-0.1701 -0.47197,-0.26835 -0.80707,-0.63457 -1.34777,-1.473 -1.78679,-2.20928 -1.97007,-3.30398 -0.0293,-0.17527 -0.0212,-0.18997 0.15784,-0.28207 0.3783,-0.19455 0.58827,-0.52838 0.73776,-1.17293 0.14487,-0.62468 0.2574,-0.85245 0.55587,-1.1253 0.34666,-0.3168 0.61081,-0.49928 1.04612,-0.7227 l 0.34125,-0.17513 -0.50651,0 c -1.02378,-5.2e-4 -2.07563,-0.32827 -3.481,-1.08472 -0.24673,-0.13283 -0.84111,-0.45195 -1.32087,-0.7092 -0.90757,-0.4866 -2.22906,-1.3353 -2.91586,-1.8726 -0.4799,-0.37545 -0.91122,-0.8142 -1.09882,-1.11765 l -0.138,-0.2232 -0.15417,0.195 c -0.86557,1.09507 -3.34677,3.67537 -4.48343,4.66252 -0.51136,0.44408 -0.53467,0.4725 -0.42368,0.5166 0.39094,0.15548 0.56468,0.2718 0.94233,0.63128 0.42802,0.4074 0.56377,0.519 1.49287,1.22685 2.87959,2.19413 6.257,3.73995 10.94073,5.00768 0.71277,0.19297 1.31837,0.35857 1.34579,0.3681 0.20608,0.072 0.0819,-0.0158 -0.26108,-0.18375 z m 35.93396,-3.4047 c 0.27592,-0.32895 0.54926,-0.6546 0.60742,-0.7236 0.85289,-1.01197 2.23868,-2.9847 3.08057,-4.3854 1.96779,-3.2739 3.47595,-6.98475 4.42622,-10.8909 0.17884,-0.73508 0.17725,-0.72765 0.41674,-1.94393 0.34167,-1.73497 0.59316,-3.60735 0.70969,-5.28345 0.0314,-0.45188 0.0486,-0.51623 0.18436,-0.68903 l 0.14971,-0.19065 -0.34357,0.0315 c -1.74325,0.16043 -6.95864,0.12165 -7.41932,-0.0555 -0.0482,-0.0187 -0.0692,0.18593 -0.0915,0.8883 -0.0159,0.50168 -0.0634,1.15898 -0.10566,1.46048 -0.12439,0.8886 -0.21714,1.62075 -0.25256,1.9938 l -0.0332,0.3489 0.45137,0.48053 c 0.4931,0.52492 0.55273,0.63097 0.55273,0.9825 0,0.3498 -0.1712,0.65347 -0.44669,0.79237 -0.27366,0.138 -0.47227,0.14138 -0.80836,0.0135 -0.14259,-0.054 -0.26673,-0.091 -0.27588,-0.0818 -0.009,0.009 -0.17112,0.48525 -0.35995,1.05795 -1.37277,4.164 -2.56128,6.60705 -4.55605,9.36532 -0.23791,0.32895 -0.59464,0.82238 -0.79273,1.09658 -0.52038,0.72015 -0.97939,1.22295 -1.38703,1.51942 -0.29479,0.21443 -0.34507,0.27053 -0.28877,0.32213 0.0375,0.0345 0.28149,0.25087 0.54221,0.4812 0.26074,0.23025 0.64768,0.5721 0.85987,0.7596 0.62059,0.54848 0.84886,0.72758 0.89279,0.70043 0.0226,-0.0142 0.0412,-0.1335 0.0412,-0.2655 0,-0.35326 0.0479,-0.53498 0.17817,-0.67553 0.10065,-0.1086 0.158,-0.12518 0.43005,-0.1242 0.59709,0 0.87429,0.22875 1.33697,1.09328 0.1458,0.2724 0.31731,0.55605 0.38113,0.6303 0.0916,0.10665 0.11603,0.19387 0.11603,0.41415 0,0.20535 0.0658,0.46987 0.24922,1.00132 0.18758,0.54368 0.24981,0.79635 0.25162,1.02158 l 0.002,0.29932 0.39953,-0.42367 c 0.21973,-0.23303 0.62528,-0.69285 0.9012,-1.0218 z m -53.04456,-5.15708 c 1.78068,-1.97932 4.28407,-4.49272 5.51763,-5.53972 0.14191,-0.12045 0.25966,-0.24195 0.26168,-0.26993 0.002,-0.0278 -0.20098,-0.25222 -0.45109,-0.49837 -0.50445,-0.4965 -0.97309,-1.1697 -1.74029,-2.50005 -1.21635,-2.10915 -2.15537,-4.3674 -2.68617,-6.45983 -0.0819,-0.32295 -0.16109,-0.60682 -0.17595,-0.63082 -0.0221,-0.036 -0.65154,-0.35213 -0.70072,-0.35213 -0.008,0 -0.0302,0.11775 -0.0492,0.26168 -0.019,0.14392 -0.0904,0.47475 -0.15868,0.73515 -0.0683,0.26047 -0.13638,0.66832 -0.15132,0.90645 -0.0254,0.40455 -0.0375,0.44287 -0.18534,0.58612 -0.15735,0.15255 -0.15932,0.15293 -0.38942,0.0837 -0.12719,-0.0383 -0.43424,-0.21232 -0.68233,-0.38677 -0.40696,-0.2862 -0.46083,-0.34298 -0.55089,-0.58073 -0.12705,-0.33547 -0.12615,-0.51195 0.004,-0.6768 0.12011,-0.1527 0.30408,-0.1707 0.57728,-0.0562 0.0984,0.0412 0.19591,0.075 0.21664,0.075 0.0631,0 0.13875,-0.2532 0.20116,-0.6729 0.0745,-0.50122 0.0689,-0.61297 -0.0527,-1.05975 -0.16171,-0.59355 -0.11026,-1.1085 0.11077,-1.1085 0.24223,0 0.56239,0.25245 0.93254,0.73522 0.21746,0.28365 0.34922,0.28058 0.93856,-0.0217 l 0.46052,-0.23625 0.14333,-0.44587 c 0.0788,-0.24533 0.13305,-0.48533 0.12047,-0.5334 -0.0258,-0.0986 -0.17899,-0.27593 -0.26235,-0.30375 -0.0386,-0.0127 -0.032,-0.10665 0.0221,-0.31463 0.11975,-0.45975 0.10194,-1.4544 -0.0403,-2.2512 -0.13388,-0.74985 -0.23694,-0.9621 -0.54797,-1.12845 -0.18327,-0.098 -0.2806,-0.11055 -0.85479,-0.11032 -0.56985,0 -0.67794,0.0142 -0.89657,0.11452 -0.73894,0.3399 -0.79839,0.75068 -0.26469,1.8291 0.49799,1.00628 0.55798,1.58618 0.20112,1.9437 l -0.13642,0.13673 -0.65519,-0.0345 c -0.38739,-0.0203 -0.6668,-0.0158 -0.68361,0.0112 -0.0156,0.0255 -0.0757,0.35782 -0.13345,0.7389 -0.0578,0.38115 -0.14265,0.75802 -0.18866,0.8376 -0.13169,0.22778 -0.37073,0.3195 -0.96064,0.3684 -0.61064,0.051 -0.74507,0.11918 -0.87219,0.4443 -0.10679,0.27308 -0.0663,0.48833 0.17713,0.9426 l 0.19016,0.35483 -0.0692,0.26662 c -0.0885,0.3414 -0.087,0.43815 0.0118,0.72915 0.11421,0.33645 0.31458,0.60975 0.88889,1.21223 0.52112,0.54667 0.79078,0.9657 0.84892,1.3191 0.0181,0.10965 0.0865,0.32385 0.15207,0.47602 0.12765,0.2961 0.2212,0.93683 0.22188,1.51973 7e-4,0.59242 0.15315,1.02277 0.47907,1.35232 0.1228,0.12413 0.15042,0.3552 0.1956,1.63628 0.0719,2.0382 0.30463,2.9277 0.95369,3.64477 0.13624,0.15053 0.22611,0.30308 0.24439,0.41498 0.0159,0.0974 0.0614,0.34567 0.10103,0.55185 0.21664,1.1259 0.2236,1.39695 0.0411,1.59862 -0.0499,0.0548 -0.26692,0.20505 -0.48226,0.33315 -0.56698,0.33728 -0.76888,0.71325 -0.41834,0.77903 0.11292,0.021 0.18554,0.0728 0.22475,0.1584 l 0.0579,0.12712 0.2363,-0.26325 c 0.12996,-0.14482 0.44889,-0.49957 0.70873,-0.7884 z m 28.79906,0.41333 c 0.0997,-0.0743 0.14506,-0.16208 0.16856,-0.32558 0.0426,-0.29632 0.15629,-0.50632 0.35408,-0.65392 0.25314,-0.18893 0.33723,-0.22193 1.04019,-0.40913 0.36283,-0.0966 0.73983,-0.22312 0.83781,-0.2811 1.53171,-0.90742 2.29939,-1.87027 2.29536,-2.87902 -0.002,-0.37988 -0.11382,-0.5286 -0.36809,-0.48728 -0.31885,0.0518 -0.7152,0.2934 -1.18815,0.72458 -0.46042,0.41977 -0.59835,0.507 -0.80175,0.507 -0.13811,0 -0.43882,-0.1596 -0.63556,-0.33728 -0.20115,-0.18172 -0.44235,-0.31072 -0.58086,-0.31072 -0.15303,0 -0.14266,0.051 0.0411,0.20212 0.10425,0.0856 0.1666,0.19163 0.1907,0.32393 0.0542,0.29797 -0.0166,0.4755 -0.25726,0.6453 -0.17362,0.1224 -0.26185,0.14955 -0.48693,0.14955 -0.23863,0 -0.32409,-0.03 -0.64797,-0.22755 -0.44602,-0.27188 -0.61123,-0.34568 -0.77418,-0.34568 -0.11477,0 -0.12226,0.0165 -0.12226,0.2706 0,0.17948 -0.0263,0.29693 -0.0783,0.3489 -0.081,0.0809 -0.32043,0.10928 -0.32043,0.0382 0,-0.069 -0.30975,-0.36135 -0.47034,-0.44437 -0.0838,-0.0435 -0.36535,-0.15495 -0.6256,-0.24795 -0.54298,-0.19403 -0.82323,-0.3468 -0.98988,-0.53955 -0.17696,-0.20468 -0.45996,-0.1572 -0.82229,0.13792 -0.2277,0.18555 -0.32509,0.231 -0.5562,0.25988 -0.28387,0.0353 -0.32554,0.0705 -0.3494,0.29317 -0.0191,0.17745 -0.0216,0.18248 -0.0933,0.18248 -0.1079,0 -0.46752,0.39315 -0.66115,0.72277 -0.26726,0.45495 -0.44829,0.62303 -0.67109,0.62303 -0.23801,0 -0.55274,0.13612 -0.86292,0.37327 -0.28418,0.21728 -0.6016,0.3717 -0.76719,0.37328 -0.0915,0 -0.10962,0.0217 -0.0872,0.1008 0.0155,0.0548 0.0405,0.1431 0.0555,0.19605 0.047,0.16642 0.61417,0.3273 1.15358,0.3273 l 0.45808,0 0.18278,-0.21353 c 0.2146,-0.25072 0.48202,-0.39922 0.7965,-0.44235 0.12429,-0.0172 0.56734,0 0.98458,0.0308 0.64065,0.0525 0.80581,0.051 1.06231,-0.01 0.47351,-0.11115 0.63196,0 0.71187,0.4953 0.0808,0.50198 0.0928,0.51278 0.5687,0.51465 0.41138,0 0.45156,0.012 1.2568,0.31658 0.42436,0.16057 0.84242,0.15952 1.05986,0 z m 10.48962,-0.12615 c 0.24106,-0.10043 0.35066,-0.1101 1.28533,-0.11393 0.94414,-0.008 1.04032,-0.0127 1.26558,-0.11482 0.3368,-0.15285 0.47895,-0.31785 0.47895,-0.55598 0,-0.4017 0.19176,-0.8493 0.68455,-1.59765 0.26175,-0.3975 0.51069,-0.75075 0.55318,-0.78502 0.0425,-0.0345 0.13864,-0.0622 0.21365,-0.0622 0.25578,0 0.44497,0.38017 0.67293,1.35232 0.0698,0.29798 0.14213,0.54173 0.16061,0.54173 0.0499,0 0.59761,-0.66188 1.36085,-1.64483 1.68117,-2.1651 3.22008,-4.93605 3.97587,-7.15905 0.27087,-0.79665 0.50554,-1.70565 0.44931,-1.74045 -0.077,-0.0473 -0.9906,0.0712 -1.51647,0.1977 -0.27415,0.066 -0.64424,0.13253 -0.82243,0.14835 -0.17819,0.0157 -0.52773,0.051 -0.77675,0.0781 -0.5543,0.06 -0.93345,0.007 -1.21738,-0.1728 -0.19832,-0.12518 -0.21278,-0.12735 -0.30331,-0.0457 -0.0523,0.0472 -0.0951,0.13072 -0.0951,0.18532 0,0.13845 -0.31916,0.60503 -0.50377,0.73643 -0.19982,0.14227 -0.53181,0.17985 -0.72171,0.0816 -0.21513,-0.11123 -0.30329,-0.22905 -0.43648,-0.58328 l -0.11997,-0.31912 -0.0561,0.26137 c -0.0308,0.14385 -0.0561,0.29055 -0.0561,0.3261 0,0.0352 -0.0476,0.10733 -0.10575,0.15953 -0.14886,0.13365 -0.42186,0.5496 -0.79494,1.21117 -0.39024,0.69195 -0.48072,0.75878 -1.33844,0.98843 -0.77269,0.20685 -0.92162,0.2934 -0.99311,0.57735 -0.0755,0.29977 -0.25047,0.53842 -0.49285,0.67222 -0.11398,0.063 -0.50563,0.18968 -0.87034,0.2817 -0.67665,0.1707 -0.93723,0.2628 -0.93723,0.33128 0,0.021 0.0665,0.0857 0.14759,0.14355 0.10518,0.075 0.2305,0.10702 0.43613,0.11175 0.29126,0.008 0.45503,-0.048 0.63745,-0.21308 0.07,-0.063 0.16806,-0.0876 0.32936,-0.0813 0.40864,0.0158 0.54871,-0.1263 0.8392,-0.8526 0.21067,-0.52672 0.3391,-0.71437 0.52613,-0.76845 0.0823,-0.024 0.3269,-0.10215 0.54368,-0.17415 0.44122,-0.14647 0.73365,-0.16507 0.94828,-0.06 0.20789,0.10155 0.4372,0.4647 0.59828,0.9474 0.11711,0.35093 0.14409,0.53093 0.16577,1.10535 0.0215,0.56978 0.013,0.7008 -0.0501,0.77258 -0.21702,0.2469 -0.31404,0.57112 -0.43601,1.4571 -0.0283,0.20565 -0.094,0.51967 -0.1461,0.69787 -0.0521,0.17813 -0.11987,0.4338 -0.15074,0.56813 -0.035,0.15202 -0.15915,0.39037 -0.32917,0.63165 -0.3333,0.47295 -0.46849,0.76102 -0.46993,1.00132 -7.5e-4,0.1404 -0.0352,0.21128 -0.14909,0.30705 -0.37941,0.3192 -1.19222,0.39188 -1.77531,0.15855 -1.25756,-0.5031 -4.09285,-1.15515 -5.62804,-1.29442 -0.19191,-0.0173 -0.40042,-0.0428 -0.46337,-0.0555 -0.13622,-0.0285 -0.40891,0.21592 -0.40891,0.36645 0,0.14985 0.58422,0.3732 1.52025,0.58117 1.28599,0.28575 1.8196,0.4914 2.57506,0.9924 0.31712,0.2103 0.66372,0.4143 0.77022,0.4533 0.29681,0.10883 0.72074,0.0957 1.02667,-0.0315 z m -19.72762,-2.04593 c 0.0127,-0.0615 0.0332,-0.45982 0.0455,-0.88477 0.0407,-1.40603 0.28134,-1.70903 1.34268,-1.69073 0.49254,0.008 0.50663,0.008 0.62168,-0.12817 0.17511,-0.20355 0.13871,-0.4179 -0.0915,-0.53865 -0.24728,-0.12975 -0.33704,-0.30818 -0.39802,-0.79118 -0.0288,-0.2283 -0.0777,-0.48052 -0.10865,-0.56055 -0.0529,-0.13687 -0.0439,-0.156 0.15263,-0.32535 0.23624,-0.2034 0.25003,-0.25867 0.1092,-0.4377 -0.11413,-0.14512 -0.11925,-0.26715 -0.0287,-0.68647 0.0546,-0.2529 0.0536,-0.32093 -0.007,-0.4407 -0.0642,-0.12735 -0.0622,-0.1518 0.0195,-0.243 0.09,-0.10035 0.0891,-0.10095 -0.0836,-0.063 -0.6397,0.13912 -1.30621,0.1044 -2.03608,-0.1062 -0.85417,-0.24638 -2.63239,-1.06478 -3.34706,-1.54043 -0.38926,-0.25905 -0.60208,-0.4749 -0.74833,-0.75892 -0.06,-0.11655 -0.11568,-0.21188 -0.12377,-0.21188 -0.008,0 -0.088,0.11423 -0.17755,0.2538 -0.0896,0.13958 -0.18724,0.28035 -0.21703,0.31275 -0.0298,0.0322 -0.13204,0.15938 -0.2272,0.28208 -0.34114,0.4398 -0.5402,0.64627 -2.35334,2.4411 -1.01084,1.00057 -1.83723,1.8339 -1.83644,1.85175 0.003,0.0675 0.97971,0.80287 1.73373,1.3053 1.14533,0.76312 2.03331,1.24005 3.48273,1.87042 0.5754,0.25028 2.09065,0.73905 2.86454,0.92408 0.39484,0.0944 0.80763,0.19342 0.91728,0.22012 0.34894,0.0849 0.46891,0.072 0.49469,-0.0533 z m 10.96352,-4.3698 c 0.11631,-0.08 0.44339,-0.2475 0.72685,-0.3723 0.67715,-0.29797 0.89231,-0.4515 1.01207,-0.72217 0.0793,-0.17933 0.0845,-0.22575 0.0291,-0.26093 -0.38966,-0.2469 -1.79076,0.50453 -2.04453,1.0965 -0.0917,0.21398 -0.0846,0.4044 0.0151,0.4044 0.0275,0 0.14512,-0.0652 0.26142,-0.1455 z m -22.39824,-2.13487 c 0.2411,-0.34148 0.39729,-0.51968 0.99045,-1.13003 0.291,-0.2994 0.64684,-0.67905 0.79077,-0.8436 0.24651,-0.28192 0.26167,-0.31492 0.26167,-0.5688 0,-0.1935 -0.0443,-0.3702 -0.15705,-0.62677 -0.10915,-0.24825 -0.17777,-0.51578 -0.22499,-0.87713 -0.0741,-0.567 -0.13895,-0.8274 -0.24068,-0.96652 -0.057,-0.0779 -0.0806,-0.0813 -0.17352,-0.0248 -0.13318,0.0812 -0.11914,0.2739 0.0526,0.7218 0.0935,0.24382 0.10764,0.33652 0.0685,0.44857 -0.0919,0.26295 -0.54303,0.192 -0.67915,-0.10672 -0.0296,-0.0652 -0.1127,-0.13268 -0.18464,-0.15045 -0.36678,-0.0905 -0.78653,-0.47978 -1.00728,-0.9342 -0.10708,-0.22043 -0.10886,-0.23978 -0.0299,-0.327 0.12711,-0.14048 0.10245,-0.23348 -0.10299,-0.38865 -0.10281,-0.0777 -0.21655,-0.1701 -0.25278,-0.20535 -0.0952,-0.0927 -0.24858,-0.0788 -0.39405,0.036 -0.22833,0.17955 -0.51204,0.0976 -0.51204,-0.14805 0,-0.0795 -0.0239,-0.20768 -0.0532,-0.28485 -0.13213,-0.34875 -0.40505,-0.47063 -1.25894,-0.56243 -0.26932,-0.0293 -0.55738,-0.0877 -0.64014,-0.1305 -0.16111,-0.0833 -0.23739,-0.063 -0.15463,0.0405 0.0717,0.0899 0.4319,0.93818 0.91288,2.14965 0.60213,1.51665 1.20245,2.67518 1.90205,3.6708 0.31784,0.45233 0.64887,0.96263 0.73561,1.134 0.0867,0.1713 0.1637,0.31148 0.171,0.31148 0.007,0 0.0885,-0.1065 0.18041,-0.23678 z m -23.608097,-0.24945 c 0.097,-0.3819 0.20519,-0.55463 0.39848,-0.63585 0.13226,-0.0555 0.14882,-0.0874 0.15858,-0.30488 0.006,-0.1395 0.0685,-0.366 0.14625,-0.53227 0.13625,-0.29138 0.141,-0.3708 0.0487,-0.81375 -0.0398,-0.19073 0.17734,-1.32525 0.35461,-1.8534 0.16123,-0.4803 0.43965,-0.95258 0.78733,-1.3356 0.22709,-0.25013 0.31137,-0.30938 0.4709,-0.33075 0.43901,-0.0593 0.70799,-0.27098 1.41492,-1.11578 0.30771,-0.36772 0.44075,-0.4851 0.69178,-0.61057 0.52623,-0.26295 0.93153,-0.20423 1.32556,0.192 l 0.20825,0.2094 -0.0938,-0.31575 c -0.0516,-0.17363 -0.11713,-0.46155 -0.14558,-0.63968 -0.0654,-0.40942 -0.0658,-1.3647 -7.5e-4,-1.81433 0.0274,-0.18915 0.0377,-0.35602 0.0229,-0.3708 -0.0148,-0.015 -0.12791,0.0225 -0.2514,0.0823 -0.22334,0.10845 -0.24033,0.10905 -3.17645,0.108 -2.18018,0 -3.13407,-0.0195 -3.64865,-0.072 -0.38321,-0.039 -0.7051,-0.0623 -0.71531,-0.0518 -0.0102,0.0105 0.0398,0.0951 0.11106,0.18855 0.11932,0.15645 0.1418,0.2709 0.28213,1.43632 0.0839,0.69646 0.17237,1.44571 0.19669,1.66501 0.24951,2.25045 0.28822,2.47747 0.72258,4.23675 0.3743,1.51605 0.52202,2.31765 0.52477,2.84752 0.002,0.34103 0.0494,0.29273 0.16661,-0.16867 z m 39.070587,-3.02183 c 0.21943,-0.14662 0.32084,-0.36975 0.43311,-0.95295 0.0992,-0.51547 0.22682,-0.91215 0.31345,-0.97455 0.021,-0.015 0.0683,-0.12727 0.10496,-0.24922 0.1141,-0.37883 0.31358,-0.6423 0.57311,-0.75713 0.2659,-0.1176 0.55403,-0.13035 1.50457,-0.0668 0.89273,0.06 0.91641,0.0473 1.26234,-0.67822 0.3103,-0.65063 0.52565,-1.25813 0.56718,-1.59983 0.0281,-0.23108 0.0227,-0.24368 -0.17545,-0.41333 -0.1217,-0.10417 -0.2708,-0.30997 -0.36849,-0.50865 -0.15165,-0.30832 -0.16464,-0.37335 -0.17133,-0.8577 -0.007,-0.49042 -0.02,-0.5547 -0.20655,-1.00162 -0.37619,-0.90143 -0.55504,-1.13363 -0.95638,-1.2417 -0.25958,-0.0697 -0.30341,-0.2184 -0.15954,-0.54045 0.0571,-0.12788 0.11692,-0.30098 0.13293,-0.38475 0.0161,-0.0843 0.17438,-0.32633 0.35452,-0.54218 l 0.32541,-0.38985 -0.12217,-0.13072 c -0.26585,-0.28448 -0.3083,-0.43485 -0.30423,-1.07775 l 0.004,-0.59813 -0.26185,0 c -0.31201,0 -0.44851,-0.0868 -0.75227,-0.47827 -0.34758,-0.44798 -0.63183,-0.7527 -0.75444,-0.80895 -0.0639,-0.0293 -0.15966,-0.1386 -0.21282,-0.24278 -0.12531,-0.24562 -0.39053,-0.41737 -0.84155,-0.54502 -0.34835,-0.0986 -0.37452,-0.0994 -0.65808,-0.0195 -0.16423,0.0457 -0.35805,0.069 -0.43669,0.0518 -0.26317,-0.0578 -0.58483,-0.3114 -0.95116,-0.75 -0.2007,-0.2403 -0.47322,-0.50423 -0.6057,-0.58658 -0.20474,-0.12727 -0.25197,-0.1872 -0.31524,-0.40027 -0.1076,-0.36233 -0.0943,-0.5079 0.0626,-0.68303 0.19029,-0.2124 0.45255,-0.2625 1.01568,-0.19402 0.24777,0.03 0.46009,0.045 0.47183,0.0338 0.0117,-0.012 -0.0932,-0.0925 -0.23307,-0.17948 -0.34203,-0.21262 -0.61956,-0.26992 -1.00717,-0.20797 -0.35008,0.0562 -0.83294,0.1908 -0.83294,0.23265 0,0.015 0.0418,0.0873 0.0928,0.16005 0.1317,0.1878 0.19825,0.41955 0.28276,0.9843 0.0406,0.27157 0.10932,0.6009 0.15264,0.73177 l 0.0788,0.23798 -0.15994,0.24922 c -0.44121,0.6876 -1.30928,1.20893 -2.65938,1.5972 -0.50767,0.14603 -0.65291,0.23078 -0.70781,0.41318 -0.0175,0.0577 -0.0983,0.26745 -0.17971,0.4653 -0.1576,0.38332 -0.34895,0.56235 -0.6009,0.56235 -0.0863,0 -0.18019,0.066 -0.30218,0.21187 -0.0974,0.11648 -0.27035,0.31275 -0.38444,0.43613 -0.31488,0.34042 -0.41024,0.62182 -0.32968,0.9726 0.0226,0.0987 0.002,0.24697 -0.0626,0.43237 -0.11989,0.34845 -0.18876,0.83213 -0.22898,1.60823 -0.0306,0.591 -0.0301,0.59505 0.0676,0.5067 0.15116,-0.1368 0.84645,-0.33735 0.95961,-0.27683 0.11479,0.0615 0.16444,0.24698 0.12732,0.47565 -0.0215,0.13215 -0.006,0.1932 0.0635,0.25185 0.31042,0.26175 0.40133,0.3696 0.40133,0.47603 0,0.17137 -0.13978,0.41947 -0.45884,0.81435 -0.36591,0.45292 -0.52599,0.7797 -0.61492,1.25543 -0.10241,0.54765 -0.19763,0.77467 -0.36696,0.87472 -0.29927,0.17678 -0.66636,0.0831 -0.78687,-0.20085 -0.11134,-0.26227 -0.14515,-0.10695 -0.0387,0.17783 0.0971,0.2598 0.37215,0.62655 0.53543,0.71392 0.0945,0.0503 0.12946,0.0315 0.30814,-0.16567 0.11085,-0.12248 0.28916,-0.36683 0.39624,-0.54308 0.31509,-0.51847 0.52303,-0.74625 0.79813,-0.87435 0.1393,-0.0645 0.28291,-0.11812 0.31914,-0.11842 0.08,-6e-4 0.17359,-0.0907 0.23337,-0.22478 0.0245,-0.0548 0.0456,-0.38438 0.047,-0.73238 l 0.002,-0.63262 0.16916,-0.1746 c 0.13757,-0.14205 0.21669,-0.17963 0.42367,-0.2013 0.13998,-0.0143 0.60218,-0.0638 1.0271,-0.10868 1.2418,-0.13185 1.8161,-0.0495 2.40203,0.3429 0.34864,0.23363 0.321,0.15015 0.2788,0.84195 -0.0109,0.17873 0.0121,0.26805 0.0993,0.38618 l 0.11352,0.1536 -0.20949,0.51105 c -0.21555,0.5259 -0.4329,0.93428 -0.59036,1.10925 -0.0638,0.0713 -0.0952,0.20348 -0.10888,0.45915 -0.0161,0.30263 -0.0431,0.39345 -0.17099,0.5748 -0.0835,0.1185 -0.17824,0.29123 -0.21052,0.38378 -0.0866,0.2484 -0.28318,0.48277 -0.5227,0.62317 -0.25267,0.14805 -0.82473,0.27683 -1.22992,0.27683 -0.61541,0 -1.41919,0.15465 -1.38211,0.26587 0.066,0.198 1.43005,0.92018 2.21749,1.17398 0.96559,0.31125 1.62542,0.3999 2.87764,0.3864 0.77555,-0.008 0.91566,-0.0217 1.03339,-0.10073 z m -11.72863,-0.6891 c 0.54408,-0.51165 0.77449,-0.687 1.02984,-0.78397 l 0.23403,-0.0888 -0.34185,-0.1815 c -0.37158,-0.19733 -0.41985,-0.2115 -0.41985,-0.12285 0,0.15757 -0.42607,0.9048 -0.70252,1.23202 -0.36415,0.4311 -0.29689,0.41265 0.20035,-0.0547 z m -17.769767,-2.05725 c 0.0697,-0.0913 0.20562,-0.2148 0.30216,-0.2745 0.0978,-0.0607 0.17551,-0.14902 0.17551,-0.20002 0,-0.0503 -0.10873,-0.2112 -0.24163,-0.3573 -0.36879,-0.40553 -0.38076,-0.44235 -0.25871,-0.795 0.0571,-0.16508 0.1383,-0.51728 0.18038,-0.78263 0.18477,-1.16528 0.32121,-1.57005 0.611567,-1.81433 l 0.14698,-0.12367 -0.715257,0.024 c -0.65996,0.0225 -0.7368,0.0157 -0.99367,-0.0887 -0.15312,-0.0623 -0.29049,-0.10095 -0.30527,-0.0862 -0.0148,0.015 0.0284,0.11303 0.096,0.2184 0.0934,0.14558 0.1302,0.28703 0.15347,0.59025 0.0168,0.2193 0.11167,0.90338 0.21076,1.52018 0.14403,0.89663 0.18519,1.30988 0.20529,2.06108 l 0.0251,0.93952 0.14034,-0.3327 c 0.0772,-0.18292 0.19732,-0.40732 0.26697,-0.49867 z m 57.106177,0.19088 c 0.14405,-0.51495 0.23416,-1.03703 0.36867,-2.13578 0.16225,-1.32533 0.21486,-1.66965 0.32746,-2.14328 0.0521,-0.2193 0.095,-0.41737 0.0952,-0.44017 0,-0.0225 -0.17348,-0.0263 -0.38594,-0.008 -0.21246,0.018 -0.87975,0.0322 -1.48286,0.0315 -1.05683,0 -1.66521,-0.0585 -2.24297,-0.21015 -0.36248,-0.0954 -0.42368,-0.10725 -0.42368,-0.0822 0,0.0135 0.19278,0.21247 0.4284,0.4419 0.23561,0.2295 0.47255,0.50317 0.52651,0.60832 0.054,0.10508 0.13976,0.40793 0.19064,0.6729 0.0509,0.26498 0.10887,0.52658 0.12883,0.58148 0.0735,0.20175 0.28974,0.43703 0.56164,0.61095 0.58588,0.37478 0.9558,0.86138 1.43438,1.88693 0.17156,0.36757 0.30644,0.59932 0.33324,0.57255 0.0248,-0.0248 0.088,-0.19868 0.14051,-0.3864 z m -39.93081,-4.03718 c 0.28785,-0.0412 0.65794,-0.1065 0.82243,-0.14513 0.16448,-0.039 0.44204,-0.0705 0.6168,-0.0712 0.22677,-5.2e-4 0.47912,-0.0525 0.8814,-0.18142 0.36577,-0.11723 0.60807,-0.16958 0.69012,-0.14895 0.17458,0.0435 0.36415,0.26175 0.40168,0.4617 0.0876,0.46717 0.62673,-0.16853 0.62416,-0.73598 -5.5e-4,-0.0967 -0.017,-0.14317 -0.0388,-0.1089 -0.0611,0.0962 -0.46951,0.2619 -0.64831,0.2631 -0.26486,0 -0.42609,-0.11512 -0.57319,-0.4155 -0.074,-0.1512 -0.13461,-0.29565 -0.13461,-0.321 0,-0.0755 -0.23083,-0.7794 -0.29859,-0.9105 -0.11716,-0.2265 -0.25917,-0.34995 -0.33255,-0.28905 -0.0367,0.0308 -0.0667,0.082 -0.0667,0.1146 0,0.0323 -0.048,0.11078 -0.10665,0.1737 -0.14229,0.1527 -0.37471,0.11528 -0.65304,-0.1053 -0.19071,-0.15112 -0.23716,-0.16485 -0.55749,-0.16485 l -0.34944,0 -0.26565,0.37388 c -0.40191,0.56557 -0.51929,0.84345 -0.54123,1.28137 -0.0103,0.20513 -0.0321,0.39473 -0.0486,0.42128 -0.0164,0.0263 -0.19375,0.12615 -0.39406,0.22125 -0.34991,0.16605 -0.45897,0.27105 -0.39282,0.37807 0.0357,0.0577 0.5748,0.0217 1.36504,-0.0913 z m -16.697697,-3.61943 c 0.479747,0 1.012447,0.0232 1.183787,0.0488 0.17133,0.0263 0.31152,0.0427 0.31152,0.0367 0,-0.008 -0.0337,-0.091 -0.0748,-0.18952 -0.0438,-0.10478 -0.0757,-0.33968 -0.0769,-0.56678 -0.002,-0.21337 -0.035,-0.4776 -0.0752,-0.58732 -0.0401,-0.10965 -0.087,-0.40178 -0.10428,-0.6492 -0.0407,-0.58553 0.0512,-0.92573 0.33141,-1.22625 0.15936,-0.17093 0.19911,-0.2511 0.19911,-0.40163 0,-0.2616 0.12214,-0.55072 0.41727,-0.98767 0.13887,-0.20558 0.33658,-0.4989 0.43937,-0.65183 0.10279,-0.15292 0.21961,-0.40365 0.2596,-0.55725 0.17766,-0.68205 0.46391,-0.88432 1.25135,-0.88432 0.44971,0 0.80061,-0.10365 1.01474,-0.29963 0.17835,-0.16327 0.17832,-0.16297 0.0529,-0.6096 -0.0663,-0.23602 -0.0661,-0.23647 0.0979,-0.40575 0.21323,-0.21997 0.52805,-0.3885 1.13447,-0.60742 0.27017,-0.0975 0.54072,-0.2094 0.60122,-0.2487 0.0605,-0.039 0.23803,-0.24533 0.39453,-0.45795 0.36136,-0.49088 0.96797,-1.11848 1.26203,-1.30553 0.12569,-0.08 0.33856,-0.16042 0.47643,-0.18007 0.51111,-0.0728 0.78236,-0.28275 1.3494,-1.04415 0.5139,-0.69008 0.72996,-0.89723 1.08762,-1.04258 0.15662,-0.0638 0.27798,-0.13545 0.26966,-0.15952 -0.008,-0.024 -0.23941,-0.2328 -0.51356,-0.4638 -1.17792,-0.99255 -1.68204,-1.46378 -3.60271,-3.36766 -0.83011,-0.82282 -1.52544,-1.50082 -1.54517,-1.5066 -0.0197,-0.007 -0.092,0.063 -0.16049,0.15368 -0.0686,0.0902 -0.2062,0.26317 -0.30592,0.3843 -0.43526,0.5286 -0.65391,0.8157 -1.19271,1.566 -2.47477,3.4461 -4.17145,7.04198 -5.079317,10.76475 -0.37861,1.55258 -0.49768,2.24948 -0.60056,3.51555 -0.0596,0.73328 -0.16494,1.42125 -0.27095,1.7694 -0.11366,0.37335 -0.11512,0.37185 0.25949,0.2601 0.28267,-0.0843 0.47583,-0.10012 1.20871,-0.0987 z m -20.26154,0.0585 c 1.54866,-0.0533 2.68995,-0.0382 4.62616,0.0607 0.57057,0.0293 1.04853,0.042 1.06212,0.0285 0.0136,-0.0135 -0.0102,-0.20902 -0.053,-0.43432 -0.10048,-0.52973 -0.0981,-0.7596 0.0217,-2.04668 0.35576,-3.82425 1.28992,-7.94805 2.53408,-11.1867 0.0527,-0.1371 0.16335,-0.4287 0.24598,-0.648 0.15437,-0.40972 0.46511,-1.18005 0.58309,-1.44548 1.05012,-2.36272 2.09617,-4.30702 3.43261,-6.38002 0.5964,-0.92513 0.95356,-1.44173 1.20612,-1.7445 0.11432,-0.1371 0.61209,-0.78758 1.10615,-1.44548 0.86839,-1.15642 1.46383,-1.81987 2.01352,-2.24332 l 0.23037,-0.17753 -2.65733,-2.6628 -2.65732,-2.6628 -0.0593,-0.3012 c -0.0326,-0.16567 -0.0769,-0.3012 -0.0985,-0.3012 -0.0216,0 -0.0803,0.0533 -0.13058,0.11798 -0.0503,0.0645 -0.35111,0.4182 -0.66855,0.78502 -6.6769,7.7166 -10.78291,16.21223 -12.37992,25.61483 -0.36078,2.12415 -0.47882,3.10733 -0.55248,4.6014 -0.0649,1.31603 -0.12011,1.96988 -0.20448,2.42018 l -0.0317,0.16897 0.44299,-0.0322 c 0.24364,-0.018 1.13831,-0.0563 1.98815,-0.0857 z m 16.05107,0.0165 c -0.10873,-0.27697 -0.13648,-0.69952 -0.0806,-1.22827 0.11699,-1.10783 0.19548,-1.7163 0.32538,-2.52248 0.98741,-6.12742 3.50565,-11.53103 7.483787,-16.05863 0.31303,-0.35625 0.56914,-0.66487 0.56914,-0.6858 0,-0.021 -0.14018,-0.15877 -0.31153,-0.30645 -0.17133,-0.14767 -0.33626,-0.29122 -0.36649,-0.31897 -0.0302,-0.0277 -0.28819,-0.2622 -0.57321,-0.52088 -0.79645,-0.7227 -2.891107,-2.83762 -3.582247,-3.61687 -0.34039,-0.38385 -0.6339,-0.70433 -0.65223,-0.7122 -0.0183,-0.008 -0.0455,0.0758 -0.0602,0.18607 -0.0239,0.17798 -0.10646,0.31508 -0.42192,0.70035 -0.0337,0.0412 -0.31411,0.40095 -0.62305,0.79935 -0.30893,0.39848 -0.66794,0.8583 -0.79778,1.0218 -0.97007,1.22198 -1.20519,1.536 -1.79019,2.39085 -1.14498,1.67318 -2.47129,4.07933 -3.22828,5.85668 -0.14595,0.34268 -0.30907,0.72398 -0.36248,0.84735 -0.23068,0.53273 -0.80032,2.09213 -1.08338,2.96573 -1.01169,3.12225 -1.6812,6.39817 -2.06636,10.11075 -0.0978,0.94245 -0.10322,1.09275 -0.0404,1.11682 0.0399,0.015 1.26404,0 2.72026,-0.0308 3.99973,-0.0879 4.50845,-0.087 4.71619,0.008 0.22591,0.10373 0.2674,0.10313 0.22564,0 z m 75.040967,-0.0829 0.22586,-0.12023 3.18805,-0.054 c 3.32073,-0.0562 4.35938,-0.0918 4.35938,-0.14977 0,-0.0188 -0.0204,-0.0555 -0.0453,-0.0818 -0.12318,-0.1287 -0.21285,-0.64748 -0.25371,-1.4679 -0.10082,-2.02418 -0.4988,-4.95833 -0.97691,-7.2024 -0.45542,-2.13765 -1.30854,-5.079 -1.96618,-6.77881 -0.2913,-0.753 -0.81154,-2.0637 -0.87043,-2.19307 -0.0374,-0.0823 -0.22871,-0.50843 -0.42501,-0.9471 -1.74438,-3.89775 -4.36877,-8.15138 -7.24223,-11.73825 -1.16006,-1.44803 -2.42784,-2.9454 -2.52343,-2.98035 -0.0221,-0.008 -0.19306,0.18262 -0.38001,0.42367 -0.18696,0.24113 -0.35221,0.44955 -0.36723,0.46328 -0.015,0.0135 -0.16119,0.18195 -0.32482,0.3738 -0.16363,0.19192 -0.42453,0.48352 -0.57977,0.648 -0.15525,0.16447 -0.34252,0.36637 -0.41616,0.44857 -0.0736,0.0823 -0.81805,0.84863 -1.65423,1.70303 -1.64792,1.6839 -1.49151,1.56105 -2.14966,1.6881 l -0.16279,0.0315 0.23755,0.21472 c 0.13065,0.11805 0.31458,0.34613 0.40872,0.50678 0.18289,0.31207 0.34476,0.51637 0.40916,0.51637 0.0217,0 0.17379,0.0921 0.33782,0.20468 0.43186,0.29632 1.16145,1.07077 1.75521,1.86315 0.28416,0.3792 0.58638,0.7812 0.67161,0.89332 0.26956,0.35475 1.04512,1.11435 1.21075,1.1859 0.019,0.008 0.14288,0.20393 0.27539,0.435 0.27843,0.4854 0.53526,0.85275 1.2743,1.82288 0.95654,1.25557 1.30012,1.82287 1.53945,2.54205 0.0821,0.24667 0.16529,0.59437 0.18485,0.77257 0.0208,0.18923 0.10665,0.48983 0.20648,0.7227 0.094,0.21938 0.27145,0.63428 0.39429,0.92213 2.07833,4.87005 3.2225,9.62093 3.45112,14.3301 0.0357,0.73553 0.0314,0.81015 -0.0564,0.95955 -0.11799,0.20093 -0.0539,0.21105 0.26428,0.042 z m -9.42284,-0.0836 c 0.53457,-0.0293 2.20935,-0.0683 3.7217,-0.0865 1.51237,-0.0188 2.76439,-0.048 2.78227,-0.066 0.0179,-0.018 -0.011,-0.11887 -0.0641,-0.22432 -0.0591,-0.1173 -0.10992,-0.35633 -0.13088,-0.61545 -0.0741,-0.9159 -0.26745,-2.40668 -0.48484,-3.73823 -0.50116,-3.06967 -1.43945,-6.29092 -2.49885,-8.57887 -0.11915,-0.25733 -0.26962,-0.5856 -0.33439,-0.72953 -0.0648,-0.14392 -0.14366,-0.26167 -0.17531,-0.26167 -0.0316,0 -0.27999,0.0781 -0.55186,0.1734 -0.60987,0.2139 -0.89871,0.22725 -1.10792,0.051 -0.089,-0.075 -0.16086,-0.19418 -0.18068,-0.29985 -0.022,-0.11738 -0.12844,-0.27833 -0.32144,-0.48623 -0.15869,-0.17093 -0.32466,-0.35565 -0.36883,-0.41048 -0.0442,-0.0548 -0.34755,-0.43612 -0.6742,-0.84735 -0.32666,-0.41122 -0.79325,-0.9405 -1.03687,-1.17622 l -0.44297,-0.42863 -0.32235,-0.033 c -0.45556,-0.0465 -0.83118,-0.2409 -1.49695,-0.77527 -0.60962,-0.48923 -1.00497,-0.72203 -1.32394,-0.7794 -0.1427,-0.0255 -0.25949,-0.10013 -0.42774,-0.27248 -0.19547,-0.20032 -0.25614,-0.31357 -0.3904,-0.72885 -0.23512,-0.72712 -0.45483,-0.90532 -0.99535,-0.80707 -0.24189,0.0442 -0.27702,0.0367 -0.54191,-0.11273 -0.55723,-0.31425 -0.90657,-0.64515 -1.18786,-1.12515 -0.10905,-0.18607 -0.13779,-0.32797 -0.19785,-0.97702 -0.10761,-1.16288 -0.27236,-1.76865 -0.65211,-2.39768 -0.23307,-0.3861 -0.69804,-0.84975 -0.92835,-0.9258 -0.25658,-0.0847 -0.51957,0 -1.02681,0.33998 -0.50325,0.33487 -0.68468,0.41587 -0.94709,0.42277 l -0.19403,0.008 0.18904,0.16178 c 0.2321,0.19867 0.33135,0.43642 0.39539,0.9471 0.0538,0.42885 0.10856,0.60667 0.24829,0.80602 0.0503,0.072 0.12014,0.25395 0.15511,0.4047 0.10936,0.47138 0.37989,0.93383 0.98647,1.68645 0.5737,0.7119 0.84815,1.26855 0.89379,1.81298 0.0326,0.38857 0.0918,0.46297 0.33696,0.42315 0.22099,-0.036 0.21093,-0.045 1.04815,0.98707 0.37795,0.46605 0.72105,0.88673 0.76247,0.9348 0.0647,0.0751 0.066,0.1155 0.01,0.28643 -0.0865,0.26205 -0.002,0.55597 0.22432,0.78247 0.22427,0.22433 0.49706,0.22673 0.90459,0.008 0.16041,-0.086 0.35622,-0.19005 0.43513,-0.23107 0.25375,-0.132 0.55142,-0.1374 0.72581,-0.0135 0.17487,0.12457 0.30205,0.3405 0.30205,0.51285 0,0.0645 -0.10281,0.32685 -0.22845,0.5835 -0.24259,0.49552 -0.29838,0.73057 -0.1703,0.71745 0.0411,-0.008 0.23813,-0.0367 0.4378,-0.0728 0.33301,-0.06 0.37735,-0.057 0.53583,0.0278 0.1548,0.0834 0.17278,0.11475 0.17278,0.30165 0,0.26423 -0.14855,0.53828 -0.48598,0.89655 -0.27992,0.29723 -0.31235,0.40268 -0.17445,0.56723 0.0911,0.10882 0.56909,0.25567 0.83289,0.25605 0.35646,4.5e-4 0.67143,0.387 0.67379,0.82695 7.5e-4,0.13567 0.0326,0.23265 0.0952,0.28927 0.0517,0.0465 0.15827,0.2241 0.23676,0.39398 0.2132,0.46155 0.19834,0.97462 -0.0552,1.90387 -0.24656,0.90375 -0.26216,1.41255 -0.0596,1.9437 0.27618,0.72443 0.12843,1.41788 -0.48857,2.29305 -0.16994,0.24105 -0.21646,0.35505 -0.23985,0.58755 -0.0436,0.43433 -0.43942,1.15568 -1.01329,1.84703 -0.0419,0.0503 -0.15417,0.23355 -0.24936,0.40672 -0.19083,0.34718 -0.14918,0.32678 -0.96632,0.47453 -0.54281,0.0982 -0.63139,0.13755 -0.70393,0.31252 -0.10143,0.24458 -0.077,0.47205 0.0966,0.89873 0.16371,0.40237 0.19455,0.62122 0.10985,0.77947 -0.0459,0.0858 -0.007,0.0933 0.66043,0.1248 0.39011,0.0188 0.99734,0.0263 1.34942,0.0173 l 0.64013,-0.0158 -0.11105,-0.14107 c -0.20379,-0.25875 -0.30978,-0.78173 -0.31489,-1.55363 -0.006,-0.92662 0.10063,-1.37925 0.51117,-2.16735 0.12114,-0.23257 0.32911,-0.73725 0.46217,-1.12147 0.41309,-1.1931 0.76025,-1.78185 1.20379,-2.0418 0.44996,-0.2637 0.58242,-0.1341 0.58181,0.56917 -6e-4,0.70988 -0.0822,1.29045 -0.25287,1.79993 l -0.15296,0.45652 0.17917,0.35535 c 0.35775,0.70943 0.51181,1.52903 0.56038,2.98133 0.0304,0.90855 0.0346,0.93772 0.13563,0.93712 0.0574,-6e-4 0.54165,-0.0247 1.07622,-0.054 z m -6.27439,-3.53745 c 0.28302,-0.14437 0.52303,-0.46335 0.87467,-1.16242 0.17764,-0.35318 0.37681,-0.72345 0.4426,-0.8229 l 0.1196,-0.18068 -0.22587,-0.822 c -0.22924,-0.8343 -0.46883,-1.59022 -0.59145,-1.86622 -0.0371,-0.0836 -0.12574,-0.28358 -0.19684,-0.4443 -0.20085,-0.45413 -0.4759,-0.879 -0.56933,-0.87953 -0.14345,0 -0.56366,-0.27502 -1.03065,-0.67252 -0.5013,-0.42675 -0.73662,-0.57705 -1.08447,-0.6927 -0.33967,-0.11295 -0.61509,-0.31065 -0.70929,-0.50918 -0.0743,-0.1566 -0.0748,-0.19492 -0.004,-0.432 0.0422,-0.14302 0.18492,-0.43957 0.31717,-0.65887 0.43161,-0.71565 0.48948,-0.96923 0.30414,-1.33253 -0.35404,-0.69397 -1.09084,-1.68893 -2.45613,-3.3168 l -0.97314,-1.16025 -0.0716,0.13852 c -0.0902,0.17445 -0.17263,0.26243 -1.69547,1.8099 -2.40123,2.44021 -3.82049,3.90743 -4.91724,5.08336 -0.99959,1.07182 -0.91731,0.95955 -0.82864,1.131 0.0819,0.15832 0.49836,0.56272 0.57955,0.56272 0.0281,0 0.0509,-0.0345 0.0509,-0.0775 0,-0.0428 0.0908,-0.35108 0.20174,-0.68535 0.11095,-0.33435 0.2231,-0.71753 0.24922,-0.85148 0.0549,-0.28162 0.18783,-0.43477 0.50064,-0.57667 0.30506,-0.13838 0.63583,-0.12698 1.24534,0.0427 0.478,0.13327 0.58334,0.1446 1.31705,0.1416 0.68543,0 0.92117,0.0187 1.67751,0.15412 0.484,0.0866 1.01418,0.1575 1.17816,0.1575 0.51285,0 0.85024,0.3003 1.41634,1.26083 0.16965,0.28785 0.37491,0.5478 0.59754,0.75667 0.29458,0.2763 0.33914,0.34118 0.33914,0.49373 0,0.21577 -0.0801,0.41212 -0.23986,0.58822 -0.10402,0.1146 -0.11671,0.16478 -0.0889,0.35055 0.0366,0.2442 0.19534,0.5376 0.29059,0.53715 0.11121,-5.2e-4 0.32977,-0.1368 0.69937,-0.43612 0.635,-0.51413 0.72806,-0.53153 1.58743,-0.29625 0.58377,0.15975 0.73936,0.25957 0.90128,0.5781 0.14888,0.2928 0.17124,0.31447 0.64828,0.62872 0.37781,0.24885 0.4861,0.38558 0.52296,0.66038 0.0316,0.23595 -0.10184,0.4137 -0.47696,0.63495 l -0.2535,0.14955 -7.5e-4,0.2631 c -7.5e-4,0.22125 -0.0446,0.3462 -0.27513,0.78577 -0.15078,0.28755 -0.27414,0.5757 -0.27414,0.64035 0,0.261 0.0611,0.42368 0.16767,0.44633 0.17827,0.0382 0.54231,-0.021 0.73545,-0.11993 z m -20.00184,-3.96622 c 0.42263,-0.16695 0.43844,-0.18068 0.47548,-0.41228 0.0397,-0.2484 0.29268,-0.7305 0.49578,-0.94485 0.21087,-0.2226 0.58901,-0.5013 0.95623,-0.70477 0.56768,-0.31463 0.64919,-0.36083 0.97196,-0.55065 0.57072,-0.33578 1.03723,-0.78443 1.25068,-1.20285 0.10658,-0.20888 0.0808,-0.2277 -0.1818,-0.13275 -0.13723,0.0495 -0.17926,0.0435 -0.3026,-0.0435 -0.0788,-0.0555 -0.19931,-0.11775 -0.26785,-0.1383 -0.40192,-0.12045 -0.39802,-0.3564 0.0124,-0.7533 0.50579,-0.489 0.81905,-0.74873 1.01544,-0.84188 l 0.18448,-0.0875 -0.12021,-0.0912 c -0.17895,-0.13568 -1.9296,-1.13993 -2.58749,-1.48426 -1.37241,-0.71827 -2.78678,-1.2885 -4.21181,-1.698 -0.63574,-0.1827 -0.85161,-0.22912 -1.64485,-0.35332 -0.86996,-0.13628 -1.44516,-0.24668 -1.73698,-0.3333 -0.13293,-0.0398 -0.25209,-0.0615 -0.26482,-0.0488 -0.0127,0.0127 0.0138,0.1881 0.059,0.38962 0.065,0.29003 0.0908,0.81923 0.12349,2.53478 0.0227,1.1925 0.0611,2.23328 0.0853,2.31285 0.0409,0.13455 0.10254,0.16485 0.88742,0.43613 0.46395,0.16035 0.87469,0.29152 0.91278,0.29152 0.0381,0 0.18459,-0.1161 0.32554,-0.25792 0.14097,-0.14183 0.57374,-0.46725 0.96171,-0.72308 0.38799,-0.25582 0.77646,-0.54915 0.86328,-0.65175 0.33853,-0.40012 0.3531,-0.41085 0.55737,-0.41085 0.23401,0 0.41414,0.0863 0.60972,0.29198 l 0.1439,0.15142 -0.0271,0.61313 c -0.0293,0.6606 -0.1538,1.22745 -0.35831,1.63102 -0.14869,0.29348 -0.51918,0.70778 -0.84645,0.94665 -0.24279,0.17723 -0.38945,0.26385 -1.14932,0.6792 -0.75063,0.41033 -1.30498,0.82493 -1.24109,0.92828 0.0443,0.0713 0.41598,0.0457 0.58301,-0.0405 0.0877,-0.0457 0.26851,-0.1575 0.40187,-0.24923 0.48836,-0.33592 0.95064,-0.16492 1.85399,0.68603 0.39704,0.37395 0.42882,0.3933 0.64747,0.3933 0.13104,0 0.37295,-0.0562 0.56243,-0.13133 z m -13.57103,-1.78395 c 0.47832,-0.0835 0.6549,-0.1776 0.76365,-0.40695 0.0378,-0.0798 0.10818,-0.1899 0.15636,-0.2448 0.15536,-0.1767 0.2877,-0.49283 0.46673,-1.11465 0.22192,-0.77085 0.34334,-1.01153 0.64906,-1.2864 0.41523,-0.37328 0.6599,-0.21998 0.54489,0.34147 -0.0731,0.357 -0.0447,0.42615 0.19161,0.46613 0.23882,0.0405 0.51006,0 0.94069,-0.12735 0.39579,-0.1203 0.82956,-0.12855 0.98647,-0.0188 0.0627,0.0443 0.12718,0.0668 0.14329,0.0503 0.0161,-0.0157 -0.007,-0.1698 -0.051,-0.34155 -0.23469,-0.9123 -0.29982,-1.77248 -0.27615,-3.64651 0.019,-1.50367 0.0179,-1.5255 -0.0814,-1.52542 -0.25248,3e-4 -1.96002,0.3159 -2.70957,0.50092 -3.22896,0.79695 -5.73068,2.14193 -8.00785,4.30516 l -0.44859,0.42615 0.30904,6e-4 c 0.19209,5.2e-4 0.32414,0.024 0.34891,0.063 0.0794,0.12412 0.34904,0.27525 0.84928,0.47595 0.63147,0.25335 0.95853,0.46357 1.12828,0.7254 0.18731,0.2889 0.16985,0.3825 -0.11635,0.62385 -0.26892,0.22672 -0.2797,0.31095 -0.0519,0.4053 0.0783,0.0322 0.18108,0.10177 0.22844,0.15405 0.0473,0.0525 0.13993,0.0952 0.20572,0.0952 0.097,0 0.14241,-0.0517 0.23989,-0.27195 0.12987,-0.29362 0.29702,-0.4383 0.50639,-0.4383 0.10104,0 0.22147,0.0953 0.51136,0.40493 0.20855,0.22275 0.39463,0.405 0.41351,0.405 0.0189,0 0.15289,-0.0472 0.29784,-0.10433 0.38959,-0.1542 0.81748,-0.11895 1.07163,0.0883 0.13042,0.10635 0.21278,0.14137 0.26647,0.11325 0.0428,-0.0225 0.27824,-0.0757 0.52335,-0.11843 z m 20.70391,-5.95568 c 0.36737,-0.49238 0.78026,-0.93578 2.30147,-2.4717 0.84172,-0.84983 1.59079,-1.61828 1.6646,-1.70768 0.0751,-0.091 0.41644,-0.32137 0.77496,-0.5232 0.3524,-0.19837 0.62498,-0.37342 0.60569,-0.38902 -0.0193,-0.0157 -0.13599,-0.0705 -0.25935,-0.12203 -0.12336,-0.0517 -0.33645,-0.18585 -0.47352,-0.29865 -0.60449,-0.49732 -1.60092,-1.2432 -2.44235,-1.82812 -0.98311,-0.68348 -2.94113,-1.8168 -3.98751,-2.30805 -2.96495,-1.392 -5.15282,-2.02283 -9.24604,-2.66588 -0.53457,-0.084 -1.09531,-0.17392 -1.24609,-0.1998 -0.15078,-0.0263 -0.4148,-0.0623 -0.58671,-0.0805 l -0.31256,-0.0338 0.10204,0.23812 c 0.0998,0.2328 0.10196,0.31628 0.0978,3.825 -0.002,1.9728 0.005,3.59648 0.017,3.60818 0.0117,0.012 0.11953,0 0.23966,-0.0293 0.39429,-0.0909 0.58431,-0.072 2.16233,0.21667 1.54532,0.28253 3.50762,0.8601 4.95947,1.4598 0.72912,0.30113 2.38406,1.12875 2.86602,1.43325 0.94552,0.59738 2.17486,1.4685 2.29708,1.62773 0.0293,0.0383 0.0932,0.17745 0.14196,0.3093 0.0488,0.13192 0.0984,0.23002 0.11032,0.2181 0.0119,-0.012 0.10808,-0.13748 0.21368,-0.279 z m -28.35321,-0.008 c 0.0934,-0.1383 0.28272,-0.33728 0.42074,-0.44213 0.70649,-0.537 2.61737,-1.77165 3.51227,-2.26935 1.54571,-0.85965 3.49624,-1.62765 4.57124,-1.79992 0.26835,-0.0427 0.7795,-0.1425 1.13588,-0.22103 0.96022,-0.21172 1.41222,-0.2646 2.05248,-0.24015 l 0.57624,0.0225 -0.0337,-0.32745 c -0.20897,-2.02875 -0.21821,-5.24745 -0.0197,-6.8628 0.0316,-0.25755 0.0439,-0.48187 0.0272,-0.4986 -0.0167,-0.0165 -0.10708,0.0172 -0.2009,0.0752 -0.13348,0.0825 -0.33565,0.12195 -0.92975,0.1815 -3.53879,0.3549 -6.85516,1.32938 -10.16963,2.9883 -1.18222,0.59175 -2.00739,1.06913 -3.4908,2.0196 -0.87088,0.55793 -3.23812,2.34233 -3.23812,2.4408 0,0.0225 0.0286,0.0517 0.0636,0.0652 0.0941,0.036 1.03288,0.79178 1.41982,1.14278 0.18474,0.16762 0.97515,0.94695 1.75645,1.73182 1.58605,1.59323 2.26327,2.24558 2.33121,2.24558 0.0251,0 0.1221,-0.1131 0.21549,-0.25133 z m -7.63078,-7.23 c 0.12337,-0.11153 0.3701,-0.33345 0.54829,-0.4932 3.34245,-2.99708 7.54624,-5.26703 12.22454,-6.60098 1.30682,-0.37267 2.61825,-0.68265 3.17721,-0.75097 0.15078,-0.0187 0.67788,-0.10328 1.17134,-0.18848 0.77398,-0.13372 1.0228,-0.1554 1.81186,-0.15795 l 0.91469,0 -0.0288,-0.27412 c -0.11873,-1.13145 -0.18835,-5.02703 -0.11513,-6.44236 l 0.0406,-0.78502 -0.22512,0 c -0.57612,0 -2.85219,0.25245 -4.29221,0.47602 -1.22513,0.1902 -3.3041,0.65603 -4.63549,1.0386 -2.00987,0.57758 -3.17907,1.0071 -5.65727,2.07825 -1.02726,0.44401 -3.39497,1.72388 -4.61057,2.49226 -1.30154,0.82275 -1.84347,1.21162 -3.19,2.28937 -1.36236,1.09043 -1.74231,1.37873 -2.30759,1.75088 -0.29343,0.1932 -0.54017,0.35767 -0.54831,0.36547 -0.008,0.008 0.10401,0.1 0.24921,0.20468 0.77769,0.56085 1.48587,1.21117 3.16637,2.90767 1.3814,1.39463 1.87817,1.92743 1.94391,2.085 0.0486,0.1164 0.0995,0.21143 0.11321,0.21113 0.0137,-3e-4 0.12586,-0.0917 0.24922,-0.20325 z m 39.5156,-2.89868 c -0.25106,-0.2958 -0.63737,-1.0335 -0.63737,-1.21702 0,-0.0901 0.0386,-0.13493 0.14953,-0.17363 0.269,-0.0937 0.17964,-0.4413 -0.26877,-1.04535 -0.52702,-0.70995 -0.59226,-0.8868 -0.39463,-1.06995 0.0947,-0.0878 0.18673,-0.12015 0.34142,-0.12015 0.20303,0 0.23076,0.0203 0.67375,0.48593 0.56524,0.5946 1.06601,1.191 1.48943,1.77382 l 0.31999,0.4404 0.21265,-0.0322 c 0.12146,-0.018 0.30463,-0.008 0.42717,0.0292 0.118,0.0338 0.22576,0.0638 0.23947,0.0668 0.0137,0 0.0788,0.0352 0.14462,0.0712 0.10975,0.0607 0.11636,0.0585 0.0794,-0.027 -0.0222,-0.051 -0.0652,-0.32857 -0.0956,-0.61642 -0.0547,-0.51758 -0.0583,-0.52748 -0.32171,-0.90443 -0.34253,-0.49005 -0.38556,-0.7386 -0.18129,-1.0473 0.15303,-0.23122 0.20471,-0.49207 0.15257,-0.76995 -0.0283,-0.15075 -0.13702,-0.28597 -0.57351,-0.71347 -0.67637,-0.66225 -0.79853,-0.9315 -0.65303,-1.43888 0.0353,-0.12292 0.0246,-0.23047 -0.0432,-0.43605 -0.11866,-0.3597 -0.28157,-0.58665 -0.74296,-1.035 -0.70636,-0.68647 -0.92969,-0.91027 -1.06169,-1.06425 -0.16498,-0.19237 -1.99777,-0.9849 -3.58206,-1.54883 -3.92867,-1.3986 -7.72278,-2.21887 -10.77583,-2.32987 -0.68771,-0.0247 -1.28351,-0.1176 -1.4994,-0.23318 -0.1332,-0.0712 -0.15533,-0.0255 -0.0686,0.14243 0.13352,0.25822 0.14196,6.1212 0.0105,7.2852 l -0.0302,0.26768 0.13821,-0.0337 c 0.32762,-0.0803 1.00168,-0.0827 1.48401,-0.008 0.27414,0.0443 0.7676,0.11287 1.09656,0.153 1.05899,0.12915 2.54806,0.42945 4.11212,0.8292 3.57435,0.91365 6.74413,2.31397 9.47008,4.18357 0.3154,0.21638 0.5818,0.39353 0.59198,0.39368 0.0102,2.2e-4 -0.0814,-0.11745 -0.20357,-0.26138 z m -46.842607,-4.44587 c 0,-0.13193 2.480547,-2.20575 3.894447,-3.2559 2.99857,-2.22713 6.32859,-4.07108 9.86245,-5.46136 2.72187,-1.07077 6.05886,-1.9455 9.04667,-2.37135 1.52632,-0.2175 3.34672,-0.4026 3.96047,-0.4026 0.16241,0 0.30791,-0.0203 0.32332,-0.045 0.0155,-0.0247 -0.0155,-0.14685 -0.0686,-0.27082 -0.0904,-0.2109 -0.0999,-0.4341 -0.14708,-3.44408 -0.0502,-3.20122 -0.0499,-3.22042 0.0545,-3.5676 0.0577,-0.192 0.0958,-0.35767 0.0846,-0.36817 -0.035,-0.033 -2.16834,0.11557 -3.1854,0.22177 -1.95183,0.20393 -3.83679,0.51203 -5.7819,0.94523 -0.79834,0.17782 -1.15172,0.2649 -2.24076,0.5523 -0.64206,0.16935 -2.84232,0.84322 -3.06761,0.93945 -0.0548,0.0232 -0.27912,0.10432 -0.49843,0.17977 -4.34106,1.49355 -9.01107,3.93833 -13.358157,6.99285 -0.94246,0.66225 -2.13355,1.64385 -2.99064,2.4648 -0.22437,0.21488 -1.25207,1.0323 -1.61252,1.2825 -0.18423,0.12795 -0.28843,0.2289 -0.24922,0.24158 0.10602,0.0345 0.60534,0.42772 1.3633,1.07415 0.74672,0.63683 2.71004,2.58353 3.81306,3.78068 0.59076,0.64125 0.6805,0.7203 0.7352,0.648 0.0343,-0.045 0.0623,-0.10643 0.0623,-0.1359 z m 59.156307,-1.69688 c 0.45316,-0.60097 0.79822,-0.97207 2.06798,-2.2242 1.25508,-1.23765 1.3073,-1.28235 1.68631,-1.44255 0.21512,-0.0909 0.39113,-0.18173 0.39113,-0.20175 0,-0.03 -1.10405,-1.04475 -1.66977,-1.53488 -0.91905,-0.79605 -1.57057,-1.32202 -2.83744,-2.29042 -1.22951,-0.9399 -3.2285,-2.2545 -4.83852,-3.18195 -1.6292,-0.9384 -3.06953,-1.65555 -5.18377,-2.58075 -4.62123,-2.02245 -10.92838,-3.5724 -15.82543,-3.88913 -1.22177,-0.079 -1.82157,-0.15345 -2.45717,-0.30502 -0.18634,-0.0442 -0.34915,-0.0705 -0.36178,-0.0577 -0.0127,0.0127 -5.5e-4,0.234 0.0269,0.49192 0.10636,1.0002 0.15432,3.17048 0.10219,4.62458 -0.0281,0.7848 -0.0506,1.48297 -0.0499,1.55152 0.001,0.11835 0.005,0.11963 0.0578,0.0248 0.081,-0.14272 0.1412,-0.1728 0.34784,-0.1737 0.20397,0 0.44575,0.16823 0.56197,0.393 0.097,0.1875 0.14988,0.89168 0.0804,1.07108 -0.0307,0.0792 -0.0446,0.15517 -0.0309,0.16882 0.0137,0.0135 0.13886,-0.024 0.27825,-0.0843 0.25296,-0.10875 0.25508,-0.10882 1.0805,-0.0308 4.41651,0.41978 8.5259,1.49738 12.60045,3.30413 0.89264,0.39577 2.45698,1.18357 3.15262,1.5876 0.11652,0.0675 0.21184,0.1029 0.21184,0.0783 0,-0.072 0.96129,-0.49785 1.4281,-0.63315 0.71168,-0.20625 1.38955,-0.14993 1.83519,0.15255 0.17143,0.11632 0.21645,0.12442 0.52307,0.0942 0.47504,-0.0465 0.66013,0.0488 1.2728,0.65707 0.33379,0.33135 0.57253,0.525 0.72274,0.58605 0.51486,0.2094 1.0781,0.61755 1.69374,1.22738 0.72979,0.72293 1.11531,1.37288 1.37399,2.3163 0.0732,0.26693 0.12243,0.336 0.47857,0.67155 0.21833,0.20565 0.44301,0.44843 0.49926,0.53948 l 0.1023,0.16552 0.22656,-0.3885 c 0.1246,-0.21367 0.32803,-0.52305 0.45206,-0.68752 z m -4.52026,-4.3164 c -0.24825,-0.075 -0.52095,-0.2715 -0.7372,-0.5313 -0.49395,-0.59333 -0.63447,-0.74618 -0.82584,-0.89798 -0.11313,-0.0898 -0.25634,-0.17587 -0.31824,-0.1914 -0.13416,-0.0337 -0.24766,-0.25567 -0.295,-0.57705 -0.0307,-0.20857 -0.0207,-0.24757 0.0931,-0.36135 0.16333,-0.16335 0.34417,-0.16372 0.74312,0 0.30191,0.1227 0.54408,0.1305 0.61252,0.0195 0.0515,-0.0832 0.24225,-0.048 0.54591,0.10028 0.53414,0.26122 0.77258,0.55695 0.77258,0.9582 0,0.14445 0.0506,0.3678 0.12462,0.5499 0.14949,0.36795 0.16551,0.73545 0.0371,0.85162 -0.11161,0.10103 -0.53546,0.14663 -0.75272,0.0809 z m -21.88863,-6.00203 c -0.38072,-0.0934 -0.69369,-0.24037 -0.99702,-0.4683 -0.28761,-0.21607 -0.64782,-0.66285 -0.64782,-0.8034 0,-0.0502 0.0784,-0.1743 0.17421,-0.27585 l 0.17421,-0.18472 0.36161,0.0367 c 0.57961,0.0593 0.69486,0.0495 0.98466,-0.0848 0.15077,-0.0697 0.96909,-0.42405 1.81847,-0.78712 l 1.54433,-0.66008 0.59896,0.0562 c 1.55054,0.1461 2.55251,0.5037 3.23031,1.15275 0.45252,0.43335 0.46568,0.52335 0.11597,0.79313 -0.41302,0.3186 -1.01247,0.64237 -1.4415,0.77842 -0.4273,0.13553 -1.08455,0.16628 -1.45536,0.0683 -0.10966,-0.0292 -0.25545,-0.0638 -0.32399,-0.0771 -0.0685,-0.0135 -0.50591,0.066 -0.97195,0.17625 -0.46604,0.11033 -1.0658,0.23528 -1.33279,0.27765 -0.58532,0.0929 -1.45666,0.0937 -1.8323,0 z m 33.67285,96.01086 c 2.32508,-2.2299 3.99102,-4.84665 5.46321,-8.58143 0.35058,-0.88938 1.16121,-3.20283 1.66011,-4.73763 1.69433,-5.21265 2.94507,-8.09573 4.42197,-10.1931 0.44665,-0.63428 1.45584,-2.08425 1.90806,-2.7414 0.53413,-0.77625 1.30919,-1.85003 1.52869,-2.11793 0.83144,-1.0149 1.16283,-1.40393 1.22687,-1.44045 0.0574,-0.0322 0.0701,-0.0263 0.0485,0.0248 -0.0161,0.0382 -0.13289,0.30143 -0.25939,0.58523 -0.96771,2.17095 -1.39548,4.01287 -2.12008,9.12877 -0.49453,3.49163 -0.76665,4.9077 -1.25474,6.52958 -0.55359,1.83952 -1.20348,3.20527 -2.35988,4.95948 -0.34557,0.52425 -1.02302,1.45598 -1.25028,1.7196 -0.0591,0.0683 -0.24593,0.29153 -0.41523,0.49553 -0.61112,0.73642 -1.34121,1.5042 -2.26601,2.38297 -0.6167,0.58605 -0.64323,0.67133 -0.13523,0.43485 0.31086,-0.14475 1.31796,-0.8478 1.50107,-1.04797 0.21472,-0.23468 1.64995,-1.47975 2.09345,-1.81613 0.23301,-0.1767 0.4461,-0.33915 0.47351,-0.36105 0.46419,-0.37065 1.86016,-1.29255 2.86603,-1.89277 1.33492,-0.79661 2.18999,-1.24878 5.50774,-2.91259 1.3433,-0.67365 2.67786,-1.3494 2.96571,-1.50172 3.82221,-2.02245 6.1076,-3.69893 8.05472,-5.90865 1.26455,-1.43505 2.1608,-2.78963 2.79307,-4.2213 0.15323,-0.34695 0.16519,-0.36105 0.16641,-0.1965 7.2e-4,0.0975 -0.0438,0.4227 -0.0989,0.72262 -0.58686,3.19433 -2.01363,6.28223 -4.31688,9.34298 -0.29912,0.3975 -0.6025,0.79005 -0.67416,0.87225 -0.0717,0.0823 -0.30681,0.36262 -0.52253,0.6231 -0.56894,0.68685 -2.41152,2.52333 -3.30828,3.29726 -1.6824,1.452 -3.36658,2.65027 -5.21285,3.70897 -0.81685,0.46838 -2.26292,1.19648 -2.86186,1.4409 -0.17819,0.0727 -0.39128,0.16283 -0.47351,0.20025 -0.24544,0.1116 -1.31606,0.50295 -1.75033,0.63975 -1.03785,0.32715 -2.74302,0.69143 -6.69822,1.43093 -0.89096,0.16657 -1.94515,0.37132 -2.34266,0.4551 -0.39751,0.0837 -0.82367,0.17115 -0.94703,0.19425 -0.51096,0.0959 -2.4681,0.60675 -3.14017,0.8196 -0.3975,0.12592 -0.7676,0.24187 -0.82242,0.25762 -0.0548,0.0158 0.19338,-0.25237 0.55159,-0.59595 z M 75.916783,955.58462 c -0.37358,-0.25057 -0.71367,-0.47805 -0.75576,-0.50542 -0.77638,-0.50573 -3.78991,-2.43105 -4.66282,-2.979 -0.72876,-0.45743 -3.79917,-2.49878 -4.41127,-2.9328 -3.47487,-2.46368 -6.17398,-4.86908 -7.99209,-7.12238 -1.21295,-1.5033 -2.15523,-2.97735 -2.88352,-4.51087 -0.29014,-0.61096 -0.44264,-0.97696 -0.99066,-2.37743 -0.55621,-1.42148 -0.95026,-3.18308 -1.13505,-5.07428 -0.11741,-1.20142 -0.0706,-5.99175 0.0572,-5.84887 0.0207,0.0232 0.064,0.26857 0.0963,0.54532 0.11687,1.00155 0.3749,2.03903 0.76124,3.0606 0.35558,0.94028 1.08358,2.31443 1.7013,3.21135 0.0769,0.1116 0.20023,0.29265 0.27414,0.4023 0.3443,0.5109 0.86732,1.17503 1.64809,2.0928 0.77131,0.90668 1.46649,1.63725 3.86593,4.06298 2.46504,2.49195 2.83833,2.88998 4.04175,4.30965 0.45093,0.53198 1.31298,1.6791 1.60033,2.12963 0.89903,1.40947 2.02636,3.09847 2.39418,3.58695 0.48065,0.6384 1.24473,1.47285 1.29896,1.41862 0.0407,-0.0405 -0.24116,-0.5706 -0.62058,-1.1667 -1.36673,-2.1474 -2.29007,-5.13712 -2.50466,-8.10997 -0.17311,-2.39828 0.0532,-4.51028 0.89448,-8.34886 0.47633,-2.17327 0.69297,-3.39127 0.82008,-4.61055 0.14587,-1.39935 0.14608,-2.01727 10e-4,-3.68842 l -0.0302,-0.3489 0.13277,0.27412 c 0.28697,0.5925 0.72878,1.74773 1.02935,2.69153 0.79196,2.48685 1.28865,5.01795 1.70683,8.69782 0.1479,1.30148 0.20197,1.86705 0.52896,5.53261 0.41486,4.65067 0.64181,6.48645 1.0784,8.72272 0.40152,2.05665 0.69746,2.90985 1.73495,5.00153 0.35196,0.70965 0.76341,1.58707 0.97875,2.08732 0.0498,0.11565 0.0748,0.21975 0.0556,0.2313 -0.0192,0.0113 -0.34064,-0.18412 -0.71422,-0.4347 z M 179.38093,955.3186 c -0.0754,-0.0754 -0.0203,-0.3126 0.12558,-0.5412 0.23477,-0.3678 0.89537,-1.70618 1.19188,-2.4147 0.3052,-0.7293 0.82205,-2.27295 1.03473,-3.0903 0.72239,-2.7765 1.10547,-5.64705 1.50335,-11.26478 0.36965,-5.21918 0.67885,-7.73355 1.27186,-10.34258 0.29397,-1.29337 0.58221,-2.24415 1.1106,-3.66352 0.13778,-0.37013 0.36643,-0.98693 0.50811,-1.3707 0.14168,-0.38378 0.2814,-0.72023 0.31049,-0.74768 0.0369,-0.0345 0.0422,-0.012 0.0175,0.075 -0.0194,0.0683 -0.0479,0.69 -0.0634,1.38098 -0.0479,2.14635 0.11807,3.54217 0.88212,7.41645 0.59667,3.02557 0.74505,3.96832 0.87337,5.5491 0.24511,3.01935 -0.16476,5.673 -1.31719,8.5278 -0.28234,0.69945 -1.01019,2.1537 -1.24935,2.49623 -0.0942,0.13485 -0.5493,0.93187 -0.5493,0.96187 0,0.01 0.0505,0.015 0.11214,0.0105 0.12591,-0.009 0.31638,-0.249 1.38576,-1.74465 0.2352,-0.32902 0.86184,-1.22617 1.39255,-1.9938 1.74166,-2.51902 2.42074,-3.44902 3.38483,-4.63545 0.89323,-1.0992 1.03811,-1.2531 3.29764,-3.5025 2.26824,-2.25803 2.94724,-2.9955 4.14074,-4.49745 2.17257,-2.73405 3.49188,-5.53155 3.86686,-8.1993 0.11918,-0.84795 0.13292,-0.84488 0.23843,0.0533 0.40524,3.45022 -0.0156,6.99187 -1.21986,10.26592 -1.00135,2.72243 -2.60596,5.46886 -4.5565,7.79888 -0.92296,1.10258 -2.17923,2.41635 -3.12245,3.2655 -0.56992,0.51308 -0.6849,0.6126 -1.24418,1.07693 -1.30776,1.08585 -3.02223,2.29395 -5.18377,3.6528 -0.12336,0.0775 -0.48224,0.3069 -0.7975,0.50962 -0.31526,0.2028 -0.82705,0.531 -1.1373,0.72945 -0.53652,0.34305 -2.84402,1.86683 -3.37358,2.22773 -0.58158,0.39637 -1.83153,1.29667 -2.29845,1.6554 -0.27723,0.21307 -0.51834,0.37305 -0.53581,0.35557 z M 65.245963,938.55475 c -0.10055,-0.0829 -0.25469,-0.27915 -0.34254,-0.43613 -0.71493,-1.2777 -2.20062,-3.34935 -3.40641,-4.74998 -0.0843,-0.0979 -0.19809,-0.23272 -0.25291,-0.29955 -0.0548,-0.0667 -0.52722,-0.6372 -1.04976,-1.26742 -1.91731,-2.3127 -2.63376,-3.2604 -3.54159,-4.68488 -0.76867,-1.20615 -1.45343,-2.63722 -1.81266,-3.78817 -0.96796,-3.10133 -1.53834,-5.93093 -1.77334,-8.79743 -0.0653,-0.7968 -0.0781,-1.37858 -0.058,-2.64173 0.0251,-1.57792 0.0833,-2.32822 0.2627,-3.3894 0.17284,-1.02225 0.70639,-3.3474 1.01227,-4.41135 0.11876,-0.4131 0.55583,-1.5834 0.67046,-1.79527 0.0794,-0.14678 0.0804,-0.14708 0.0811,-0.024 4.2e-4,0.0683 -0.0215,0.22102 -0.0487,0.33885 -0.16515,0.71595 -0.25554,2.72145 -0.17066,3.78645 0.19882,2.49457 1.06324,5.3268 2.69378,8.82607 0.0937,0.20123 0.17046,0.3729 0.17046,0.38153 0,0.009 0.22627,0.50572 0.50283,1.1046 2.09058,4.52708 2.63162,6.15383 3.43722,10.33493 0.28329,1.47022 0.62307,2.87152 0.87016,3.58875 0.35855,1.0407 0.42331,1.15222 0.5679,0.978 0.0423,-0.051 0.0427,-0.10568 10e-4,-0.21188 -0.0305,-0.0787 -0.1218,-0.35617 -0.20276,-0.61657 -0.8498,-2.7336 -0.84612,-6.06338 0.0101,-9.1464 0.27235,-0.98063 0.81783,-2.53523 1.11843,-3.1875 0.0385,-0.0836 0.20547,-0.45188 0.37096,-0.81833 0.27385,-0.60653 1.03912,-2.10518 1.39051,-2.7231 0.55738,-0.98018 1.21677,-2.0505 2.10348,-3.4143 0.29409,-0.45233 0.61462,-0.9735 0.71229,-1.15808 0.5675,-1.0728 1.15724,-2.68425 1.54448,-4.22025 0.1105,-0.43837 0.1822,-0.55845 0.21938,-0.36757 0.01,0.0487 0.0309,0.64935 0.0476,1.3347 0.0495,2.03025 -0.0814,3.37065 -0.75457,7.72582 -0.33035,2.13728 -0.30403,2.0022 -0.75244,3.86288 -0.48176,1.99913 -1.08831,4.1967 -2.01544,7.30215 -1.18058,3.95438 -1.3626,4.6365 -1.52283,5.70713 -0.25476,1.7022 -0.20573,4.2234 0.12684,6.52238 0.0836,0.5781 0.0762,0.5907 -0.20991,0.3549 z m 125.187047,-0.9957 c 0.15351,-1.43251 0.20461,-2.50621 0.20518,-4.31153 7.5e-4,-2.81273 -0.0959,-3.43215 -0.92326,-5.90648 -0.57902,-1.73167 -0.72141,-2.181 -1.24792,-3.93765 -0.21773,-0.72645 -0.4396,-1.46662 -0.49305,-1.64482 -0.16055,-0.53535 -0.77916,-2.86493 -0.9662,-3.63863 -0.32931,-1.36223 -0.37796,-1.57155 -0.55028,-2.3676 -0.52199,-2.4114 -0.90325,-4.75755 -1.17852,-7.25228 -0.0893,-0.80917 -0.0976,-1.09462 -0.0676,-2.33017 0.0188,-0.77445 0.0477,-1.40798 0.0641,-1.40783 0.0165,0 0.0711,0.174 0.12138,0.38625 0.37356,1.57763 1.30135,3.65025 2.63827,5.8938 0.39575,0.66413 1.18885,1.9536 1.41019,2.29283 0.34719,0.53205 1.27589,2.08672 1.74179,2.91585 0.67611,1.20322 1.3275,2.65215 1.74461,3.88073 0.18959,0.55845 0.47509,1.81485 0.57359,2.52427 0.0918,0.6615 0.10783,1.01955 0.11125,2.4921 0.004,1.65098 -10e-4,1.74893 -0.12787,2.4525 -0.0725,0.40305 -0.23462,1.1544 -0.36018,1.66973 -0.34421,1.4127 -0.34998,1.65525 -0.0288,1.21192 0.17931,-0.24757 0.39675,-1.1112 1.17978,-4.68615 0.50336,-2.29807 1.02333,-4.2663 1.46307,-5.538 0.31841,-0.92092 0.94056,-2.3955 1.92191,-4.55535 0.0623,-0.1371 0.18619,-0.41745 0.27535,-0.6231 0.0892,-0.20558 0.21812,-0.49718 0.28656,-0.64793 0.21723,-0.47865 0.91083,-2.22757 1.1432,-2.8827 0.89258,-2.51617 1.28581,-4.33297 1.42152,-6.56767 0.0634,-1.04498 0.008,-2.3526 -0.13808,-3.25215 -0.13561,-0.83535 -0.0927,-0.80565 0.32107,0.2229 2.05523,5.10787 2.355,11.2023 0.85128,17.30678 -0.67995,2.7603 -1.97717,5.97285 -2.97411,7.36537 -0.56933,0.79523 -1.88134,2.5215 -2.8792,3.78833 -2.83584,3.60022 -3.87546,4.98067 -4.95055,6.57345 -0.61592,0.91253 -0.62596,0.92235 -0.58855,0.57323 z M 61.418553,919.24209 c 0,-0.46777 -0.31963,-2.28488 -0.55686,-3.16575 -0.0554,-0.20558 -0.13085,-0.486 -0.16773,-0.62303 -0.2262,-0.84067 -0.76408,-2.39145 -1.40899,-4.0623 -0.21692,-0.56197 -0.59739,-1.5489 -0.8455,-2.19315 -1.26312,-3.27975 -1.82898,-5.48415 -2.0088,-7.8255 -0.0844,-1.09845 0.0106,-4.56278 0.15294,-5.58248 0.43452,-3.11137 1.42126,-5.84182 3.21946,-8.90872 0.56804,-0.96878 1.68398,-2.60235 2.43417,-3.56333 0.27366,-0.35055 0.53182,-0.54907 0.61101,-0.46987 0.017,0.0172 -0.0491,0.16035 -0.14679,0.31867 -0.96086,1.5567 -1.54583,3.44303 -1.73515,5.59523 -0.14308,1.6266 -0.0256,4.05585 0.32313,6.67912 0.70587,5.31053 0.82667,6.99046 0.65945,9.17123 -0.13463,1.75583 -0.18045,2.37788 -0.23314,3.16515 -0.0275,0.41115 -0.0711,0.9831 -0.0968,1.27095 -0.0257,0.28785 -0.0617,0.81548 -0.0801,1.1724 -0.029,0.56288 -0.0228,0.6579 0.0469,0.71573 0.0696,0.0578 0.0869,0.0495 0.12937,-0.0622 0.10793,-0.28395 0.20213,-0.7464 0.32623,-1.60155 0.15697,-1.08165 0.30398,-1.7538 0.55059,-2.51715 0.89155,-2.75963 2.69294,-5.30198 6.05771,-8.54948 0.56638,-0.54668 1.88489,-1.764 3.22396,-2.97653 1.10706,-1.00252 1.98905,-2.12145 2.5613,-3.2493 0.25581,-0.50422 0.37149,-0.65445 0.31925,-0.4146 -0.0134,0.0615 -0.0608,0.35888 -0.10526,0.66045 -0.3097,2.10075 -1.10341,4.75943 -2.11293,7.07761 -0.31002,0.7119 -0.48246,1.03792 -1.17322,2.21827 -0.60313,1.03065 -1.761,2.751 -3.3882,5.03423 -1.54274,2.1648 -1.7338,2.439 -2.37856,3.4143 -1.39084,2.1039 -2.38755,3.92857 -3.00546,5.50237 -0.51165,1.30305 -0.91287,2.71576 -1.04579,3.68213 -0.0404,0.29378 -0.12621,0.35303 -0.12621,0.0871 z m 132.887287,-0.93847 c -0.0777,-0.20438 -0.19139,-0.672 -0.25672,-1.05593 -0.0326,-0.19193 -0.15774,-0.6966 -0.27795,-1.12148 -0.73818,-2.60917 -2.05541,-5.01615 -4.66866,-8.53102 -0.40292,-0.54195 -2.32519,-3.08055 -2.39086,-3.15743 -0.064,-0.075 -0.83081,-1.11922 -1.04718,-1.42612 -0.10413,-0.14768 -0.34221,-0.48443 -0.52906,-0.74828 -0.39709,-0.5607 -1.28572,-1.96252 -1.44953,-2.2866 -0.0623,-0.12337 -0.12813,-0.2355 -0.14618,-0.24922 -0.0671,-0.051 -0.79904,-1.54178 -1.05093,-2.14058 -0.75881,-1.80383 -1.5445,-4.32788 -1.91701,-6.1584 -0.0725,-0.3564 -0.14326,-0.68723 -0.15722,-0.73523 -0.0587,-0.2019 0.0734,-0.06 0.30143,0.324 0.59822,1.0071 1.5,2.1156 2.66682,3.2781 0.67361,0.6711 1.3088,1.24755 3.34328,3.03405 2.47678,2.17486 3.76029,3.53161 4.70154,4.96981 0.42022,0.64207 0.82259,1.41037 1.08083,2.0637 0.11377,0.28785 0.28557,0.70995 0.38179,0.93787 0.29416,0.69705 0.41671,1.17758 0.68882,2.70075 0.2001,1.12013 0.35439,1.83143 0.42034,1.93785 0.09,0.1452 0.16666,0 0.1373,-0.26242 -0.0157,-0.14018 -0.0746,-0.6474 -0.13062,-1.1271 -0.24372,-2.08493 -0.35228,-4.1964 -0.35198,-6.84555 5.6e-4,-2.44935 0.0651,-4.05428 0.2539,-6.28838 0.0278,-0.32895 0.0713,-0.85605 0.0968,-1.17128 0.0254,-0.3153 0.0697,-0.76387 0.0983,-0.9969 0.32082,-2.6064 0.30747,-2.41305 0.25053,-3.6288 -0.16281,-3.4761 -0.69052,-5.51775 -1.92335,-7.44112 -0.12511,-0.19515 -0.21662,-0.3657 -0.20337,-0.3789 0.0464,-0.0465 0.56458,0.37612 0.87021,0.70972 0.16968,0.18518 0.57861,0.7314 0.90875,1.21395 0.33014,0.48248 0.75621,1.09035 0.94683,1.35075 0.29265,0.39983 0.46493,0.65858 0.7965,1.19625 1.06851,1.73273 1.98742,4.00013 2.56542,6.33015 0.3216,1.29645 0.52105,2.44013 0.68232,3.91275 0.10425,0.95198 0.0888,4.13881 -0.0248,5.10271 -0.31216,2.64975 -0.80713,4.5456 -1.76492,6.7602 -0.84306,1.94925 -1.65779,4.47795 -2.17604,6.75382 -0.18751,0.82343 -0.4671,2.27715 -0.53504,2.78198 -0.0651,0.48368 -0.11581,0.58823 -0.1903,0.39233 z M 63.612113,900.41289 c 2.2e-4,-0.4455 0.0324,-1.281 0.0715,-1.8567 0.13902,-2.04796 0.13935,-2.08471 0.0301,-3.36443 -0.0573,-0.67163 -0.11464,-1.27725 -0.1274,-1.3458 -0.0842,-0.45218 -0.19224,-2.89253 -0.19423,-4.38623 -0.003,-2.12242 0.0767,-3.12675 0.37475,-4.7352 0.49876,-2.69115 1.46904,-4.79475 3.03464,-6.57937 0.18038,-0.20566 0.39121,-0.45233 0.46851,-0.54833 0.0773,-0.0959 0.32963,-0.37125 0.56072,-0.61185 1.74752,-1.8192 3.43263,-2.9151 5.54575,-3.60645 0.65473,-0.2142 0.84968,-0.2385 0.60451,-0.0752 -1.30197,0.86685 -2.54983,2.34983 -3.38224,4.0194 -0.58442,1.17226 -0.97799,2.30431 -1.39686,4.01798 -0.23721,0.9705 -0.35259,1.50728 -0.80772,3.75765 -0.45772,2.2632 -0.89986,3.8838 -1.55706,5.70713 -0.12351,0.34267 -0.33762,0.93712 -0.4758,1.3209 -0.39576,1.09927 -0.70603,2.1264 -0.70603,2.33737 0,0.18825 0.0974,0.045 0.32673,-0.48067 0.24955,-0.57195 0.73024,-1.47923 1.11573,-2.10593 0.18995,-0.30877 1.17302,-1.70482 1.24604,-1.76947 0.0155,-0.0135 0.10382,-0.1146 0.19629,-0.22425 1.2053,-1.42928 1.962,-2.12775 3.72622,-3.43928 0.44251,-0.32895 0.92484,-0.68287 1.07183,-0.78637 1.81449,-1.2783 2.91053,-2.08065 3.42972,-2.51055 1.73037,-1.43288 2.66679,-2.44403 3.50707,-3.7869 0.27355,-0.43718 0.64644,-1.1856 0.78551,-1.57651 0.0775,-0.21787 0.15327,-0.24877 0.12234,-0.0495 -0.0117,0.0754 -0.0338,0.38378 -0.049,0.68536 -0.0463,0.9165 -0.31542,2.23702 -0.66544,3.26475 -1.39895,4.10767 -4.7634,8.06077 -10.20249,11.98762 -0.41121,0.29685 -0.941,0.70988 -1.17731,0.91778 -0.53323,0.46912 -2.35271,2.29215 -2.78717,2.79262 -0.17715,0.20408 -0.39131,0.45076 -0.47592,0.54826 -0.52799,0.60855 -1.43682,1.9392 -1.88292,2.75692 -0.16072,0.2946 -0.30091,0.53565 -0.31153,0.53565 -0.0106,0 -0.0191,-0.3645 -0.0189,-0.81 z m 128.203717,-0.324 c -0.2061,-0.42855 -0.86643,-1.46985 -1.30293,-2.05463 -1.14536,-1.53443 -2.85508,-3.22148 -4.96211,-4.89638 -0.16231,-0.12907 -0.48577,-0.3879 -0.71879,-0.57517 -0.23302,-0.18728 -0.64797,-0.51113 -0.92211,-0.7197 -0.27414,-0.20858 -0.74892,-0.5778 -1.05504,-0.8205 -0.30614,-0.2427 -0.79909,-0.63195 -1.09545,-0.86498 -1.63302,-1.284 -3.25405,-2.8026 -4.18551,-3.921 -1.39749,-1.6779 -2.44571,-3.77812 -3.18765,-6.3867 -0.21961,-0.77205 -0.67149,-2.76 -0.66725,-2.93535 0.001,-0.0495 0.11539,0.1341 0.25376,0.40822 0.69952,1.38593 1.42907,2.36326 2.64178,3.53896 1.05991,1.0275 1.96841,1.71885 4.62871,3.52215 1.61821,1.09687 2.75725,1.9425 3.61279,2.68207 0.39186,0.3387 1.61097,1.57815 1.96239,1.99508 0.19641,0.23302 0.50354,0.59062 0.6825,0.7947 0.48982,0.55845 0.73027,0.9516 1.44851,2.36842 0.58901,1.1619 0.76727,1.45725 0.76727,1.27125 0,-0.033 -0.11415,-0.3207 -0.25366,-0.6396 -0.85918,-1.96395 -1.60405,-4.30927 -2.44002,-7.68262 -1.73828,-7.0143 -1.80968,-7.25828 -2.52255,-8.61893 -0.70365,-1.3431 -1.53637,-2.42303 -2.61093,-3.38603 -0.41789,-0.37455 -0.49638,-0.43777 -0.94439,-0.7608 -0.12283,-0.0886 -0.19956,-0.16897 -0.17052,-0.17865 0.0846,-0.0285 1.20386,0.30863 1.76922,0.5325 1.15406,0.45683 2.57384,1.33583 3.60902,2.23433 1.2902,1.1199 2.61077,2.6892 3.44737,4.09665 1.40976,2.37173 2.07323,4.57463 2.25901,7.50068 0.0939,1.47817 0.0574,3.12037 -0.15328,6.91725 -0.0851,1.53345 -0.0342,4.22572 0.0993,5.25465 0.0576,0.4437 0.1366,0.95888 0.17559,1.14488 0.039,0.186 0.0601,0.35565 0.0468,0.3771 -0.0496,0.0803 -0.10124,0.0322 -0.21186,-0.19785 z M 70.171993,885.53828 c 0.2322,-0.52507 0.25604,-0.58477 0.4346,-1.08787 0.31523,-0.8883 0.47245,-1.41638 0.97945,-3.28973 0.6977,-2.57797 1.21544,-3.86093 2.10344,-5.21228 1.07252,-1.63207 1.23457,-1.8735 1.31924,-1.96545 0.0506,-0.0548 0.19291,-0.23287 0.31627,-0.39547 0.50371,-0.66398 1.72267,-1.83998 2.64173,-2.54865 1.29814,-1.00095 3.33344,-2.16788 5.15884,-2.95778 0.27414,-0.11865 0.56573,-0.24495 0.64797,-0.28072 0.72256,-0.31395 1.38132,-0.58283 2.29282,-0.9357 0.24673,-0.0956 0.7514,-0.2913 1.12149,-0.435 0.93806,-0.36428 1.16242,-0.4464 1.21978,-0.4464 0.0274,0 -0.10684,0.13965 -0.29836,0.31035 -0.54304,0.4839 -1.78477,1.74442 -2.42055,2.45715 -0.75377,0.84495 -2.3071,2.7585 -2.64927,3.26362 -0.0464,0.0683 -0.3325,0.46103 -0.63573,0.87225 -0.5717,0.77528 -0.93183,1.27778 -1.46464,2.0436 -0.73186,1.05195 -1.89892,2.70293 -2.05904,2.91293 -0.57072,0.74835 -2.09751,2.3034 -3.20834,3.26775 -0.47832,0.4152 -1.51424,1.2876 -1.86694,1.57223 -0.21931,0.177 -0.40996,0.33382 -0.42367,0.3486 -0.0137,0.015 -0.31651,0.26572 -0.67289,0.55785 -0.95415,0.7821 -1.43202,1.18695 -2.03617,1.72492 -0.29747,0.26498 -0.56056,0.489 -0.58465,0.498 -0.0241,0.009 0.014,-0.11445 0.0846,-0.2742 z m 114.178237,-1.05855 c -0.69894,-0.52462 -1.45023,-1.11307 -2.06027,-1.6137 -0.34081,-0.27967 -1.83513,-1.56652 -1.89406,-1.6311 -0.0137,-0.015 -0.20436,-0.19327 -0.42368,-0.39607 -3.27119,-3.02498 -6.26842,-6.51961 -8.6347,-10.06763 -0.7863,-1.179 -0.7401,-1.128 -3.86831,-4.27523 -0.65973,-0.66375 -1.18615,-1.22017 -1.16981,-1.23652 0.0163,-0.0165 0.17208,0.03 0.34609,0.10342 0.17401,0.0735 0.48484,0.19635 0.69076,0.2736 0.32845,0.12315 2.63829,1.00125 3.4647,1.31715 0.56863,0.21728 1.31335,0.5226 1.64171,0.67298 0.18129,0.083 0.33747,0.15097 0.34708,0.15097 0.01,0 0.30454,0.13778 0.65542,0.30608 1.70949,0.8202 3.25647,1.83757 4.3803,2.8809 3.02228,2.8056 5.03422,6.4692 6.40692,11.66648 0.182,0.6891 0.25637,0.92265 0.40481,1.27102 0.0233,0.0548 0.13282,0.31103 0.24325,0.5694 0.11043,0.2583 0.20078,0.477 0.20078,0.48593 0,0.057 -0.14686,-0.039 -0.73099,-0.47768 z"
       style="fill:#ffffff;fill-opacity:1" />
    <g
       id="g7039"
       transform="matrix(0.82595894,0.13947054,-0.13947054,0.82595894,142.71981,157.4432)">
      <path
         inkscape:connector-curvature="0"
         style="opacity:1;fill:#11c4a6;fill-opacity:1;stroke:#454545;stroke-width:0.14559628;stroke-linecap:round;stroke-linejoin:round;stroke-miterlimit:4;stroke-dasharray:none;stroke-opacity:1"
         d="M 187.73865,855.37886 209.5523,875.54676 102.98357,990.81183 81.16991,970.64394 Z"
         id="path4520" />
      <path
         inkscape:connector-curvature="0"
         style="opacity:1;fill:#e4e50f;fill-opacity:1;stroke:#454545;stroke-width:0.06240201;stroke-linecap:round;stroke-linejoin:round;stroke-miterlimit:4;stroke-dasharray:none;stroke-opacity:1"
         d="m 188.04624,855.88658 20.97582,19.39328 c 0.249,0.23021 0.26413,0.61601 0.0339,0.86501 l -18.69034,20.21553 c -0.23022,0.249 -0.61601,0.26413 -0.86501,0.0339 l -20.97583,-19.39327 c -0.249,-0.23022 -0.26412,-0.61601 -0.0339,-0.86501 l 18.69035,-20.21554 c 0.23021,-0.249 0.61601,-0.26412 0.86501,-0.0339 z"
         id="path4522" />
      <path
         style="fill:#dec185;fill-opacity:1;fill-rule:evenodd;stroke:#000000;stroke-width:0.01712804;stroke-linecap:butt;stroke-linejoin:round;stroke-miterlimit:4;stroke-dasharray:none;stroke-opacity:1"
         d="M 81.379484,970.40298 66.376008,1008.5259 103.20738,990.58404 Z"
         id="path4524"
         inkscape:connector-curvature="0" />
      <path
         inkscape:connector-curvature="0"
         id="path4526"
         d="m 72.20681,993.70498 -5.834351,14.82472 14.3225,-6.977 z"
         style="fill:#393939;fill-opacity:1;fill-rule:evenodd;stroke:#000000;stroke-width:0.00666053;stroke-linecap:butt;stroke-linejoin:round;stroke-miterlimit:4;stroke-dasharray:none;stroke-opacity:1" />
    </g>
  </g>
</svg>
