<?xml version="1.0" encoding="UTF-8" standalone="no"?>
<svg
   xmlns:dc="http://purl.org/dc/elements/1.1/"
   xmlns:cc="http://creativecommons.org/ns#"
   xmlns:rdf="http://www.w3.org/1999/02/22-rdf-syntax-ns#"
   xmlns:svg="http://www.w3.org/2000/svg"
   xmlns="http://www.w3.org/2000/svg"
   xmlns:sodipodi="http://sodipodi.sourceforge.net/DTD/sodipodi-0.dtd"
   xmlns:inkscape="http://www.inkscape.org/namespaces/inkscape"
   sodipodi:docname="gnucash.svg"
   inkscape:version="1.0 (4035a4fb49, 2020-05-01)"
   version="1.1"
   id="svg2"
   viewBox="0 0 256 256"
   height="256"
   width="256">
  <sodipodi:namedview
     inkscape:document-rotation="0"
     inkscape:window-maximized="1"
     inkscape:window-y="0"
     inkscape:window-x="0"
     inkscape:window-height="1048"
     inkscape:window-width="1920"
     units="px"
     showgrid="true"
     inkscape:current-layer="layer1"
     inkscape:document-units="px"
     inkscape:cy="128.00002"
     inkscape:cx="128"
     inkscape:zoom="3.34375"
     inkscape:pageshadow="2"
     inkscape:pageopacity="0.0"
     borderopacity="1.0"
     bordercolor="#666666"
     pagecolor="#ffffff"
     id="base">
    <inkscape:grid
       spacingy="5"
       spacingx="5"
       id="grid4136"
       type="xygrid" />
  </sodipodi:namedview>
  <defs
     id="defs4">
    <filter
       inkscape:collect="always"
       style="color-interpolation-filters:sRGB"
       id="filter4396"
       x="-0.031123563"
       width="1.0622471"
       y="-0.085254025"
       height="1.1705081">
      <feGaussianBlur
         inkscape:collect="always"
         stdDeviation="0.71324832"
         id="feGaussianBlur4398" />
    </filter>
    <clipPath
       id="clipPath5082"
       clipPathUnits="userSpaceOnUse">
      <circle
         style="opacity:1;fill:#b9b9b9;fill-opacity:0.99215686;stroke:none;stroke-width:7;stroke-linecap:butt;stroke-linejoin:miter;stroke-miterlimit:4;stroke-dasharray:none;stroke-opacity:1"
         id="circle5084"
         cx="123.35822"
         cy="916.11456"
         r="79.551224" />
    </clipPath>
  </defs>
  <metadata
     id="metadata7">
    <rdf:RDF>
      <cc:Work
         rdf:about="">
        <dc:format>image/svg+xml</dc:format>
        <dc:type
           rdf:resource="http://purl.org/dc/dcmitype/StillImage" />
        <dc:title />
      </cc:Work>
    </rdf:RDF>
  </metadata>
  <g
     transform="translate(0,-796.36216)"
     id="layer1"
     inkscape:groupmode="layer"
     inkscape:label="Layer 1">
    <path
       transform="scale(1,-1)"
       style="opacity:1;fill:#7756b3;fill-opacity:1;stroke:none;stroke-width:7;stroke-linecap:butt;stroke-linejoin:miter;stroke-miterlimit:4;stroke-dasharray:none;stroke-opacity:1"
       id="path943"
       sodipodi:type="arc"
       sodipodi:cx="128"
       sodipodi:cy="-924.36218"
       sodipodi:rx="128"
       sodipodi:ry="128"
       sodipodi:start="0"
       sodipodi:end="3.1415927"
       sodipodi:open="true"
       sodipodi:arc-type="arc"
       d="m 256,-924.36218 a 128,128 0 0 1 -64,110.85125 128,128 0 0 1 -128.000003,0 A 128,128 0 0 1 0,-924.36218" />
    <path
       d="m 256,924.36218 a 128,128 0 0 1 -64,110.85122 128,128 0 0 1 -128.000003,0 A 128,128 0 0 1 0,924.36218"
       sodipodi:arc-type="arc"
       sodipodi:open="true"
       sodipodi:end="3.1415927"
       sodipodi:start="0"
       sodipodi:ry="128"
       sodipodi:rx="128"
       sodipodi:cy="924.36218"
       sodipodi:cx="128"
       sodipodi:type="arc"
       id="path4157"
       style="opacity:1;fill:#ad99d0;fill-opacity:0.992157;stroke:none;stroke-width:7;stroke-linecap:butt;stroke-linejoin:miter;stroke-miterlimit:4;stroke-dasharray:none;stroke-opacity:1" />
    <g
       id="g4457"
       transform="matrix(1.6090261,0,0,1.6090261,-35.088026,-533.59982)">
      <g
         id="g4459"
         transform="matrix(0.99013953,0,0,0.61354408,-10.906427,373.68048)">
        <path
           inkscape:connector-curvature="0"
           style="opacity:1;fill:#2e5c02;fill-opacity:1;stroke:none;stroke-width:3;stroke-linecap:butt;stroke-linejoin:miter;stroke-miterlimit:4;stroke-dasharray:none;stroke-opacity:1;filter:url(#filter4396)"
           d="m 88.823841,861.1362 c -1.244857,0 -2.485342,0.25714 -3.454301,0.71757 -0.976376,0.46396 -1.602737,1.09893 -1.736573,1.76811 -0.13531,0.67655 0.243705,1.33241 1.05981,1.82046 0.822537,0.49191 2.016306,0.76996 3.313615,0.76996 1.297309,0 2.580631,-0.27805 3.561599,-0.76996 0.973293,-0.48805 1.56355,-1.14391 1.646142,-1.82046 0.08169,-0.66918 -0.340159,-1.30415 -1.167106,-1.76811 -0.820662,-0.46043 -1.978329,-0.71757 -3.223186,-0.71757 0,0 0,0 0,0 m 38.854009,0.3256 c -1.24823,0 -2.40892,0.25853 -3.23164,0.72146 -0.82904,0.4665 -1.25182,1.10494 -1.16968,1.77781 0.0831,0.6803 0.67517,1.33981 1.65136,1.8306 0.98391,0.49466 2.27096,0.77428 3.57192,0.77428 1.30096,0 2.49796,-0.27962 3.32254,-0.77428 0.81813,-0.49079 1.19783,-1.1503 1.06177,-1.8306 -0.13457,-0.67287 -0.76299,-1.31131 -1.74226,-1.77781 -0.97182,-0.46293 -2.2158,-0.72146 -3.46401,-0.72146 0,0 0,0 0,0 m -19.2697,4.37895 c -2.15579,0 -4.23823,0.46342 -5.80528,1.29684 -1.58799,0.84454 -2.53287,2.0082 -2.611332,3.24441 -0.168332,2.65218 3.603262,4.88314 8.430432,4.88314 4.82716,0 8.59222,-2.23096 8.41611,-4.88314 -0.082,-1.23621 -1.03038,-2.39987 -2.62085,-3.24441 -1.5695,-0.83342 -3.65329,-1.29684 -5.80908,-1.29684 0,0 0,0 0,0 m -21.798213,9.04308 c -1.386913,0 -2.774895,0.31925 -3.865803,0.89128 -1.100225,0.57693 -1.81528,1.36733 -1.982084,2.20135 -0.168855,0.84428 0.237716,1.66378 1.138035,2.27426 0.908264,0.61587 2.237958,0.96425 3.69029,0.96425 1.452334,0 2.894234,-0.34838 4.000856,-0.96425 1.096941,-0.61048 1.767457,-1.42998 1.870525,-2.27426 0.101815,-0.83402 -0.358671,-1.62442 -1.273081,-2.20135 -0.906666,-0.57203 -2.191826,-0.89128 -3.578738,-0.89128 0,0 0,0 0,0 m 43.229373,0 c -1.38691,0 -2.67206,0.31925 -3.57873,0.89128 -0.91441,0.57693 -1.3749,1.36733 -1.27308,2.20135 0.10307,0.84428 0.77358,1.66378 1.87053,2.27426 1.10662,0.61587 2.54851,0.96425 4.00084,0.96425 1.45234,0 2.78204,-0.34838 3.69029,-0.96425 0.90033,-0.61048 1.3069,-1.42998 1.13804,-2.27426 -0.1668,-0.83402 -0.88186,-1.62442 -1.98208,-2.20135 -1.09091,-0.57203 -2.47889,-0.89128 -3.86581,-0.89128 0,0 0,0 0,0"
           id="path4463" />
      </g>
      <g
         id="g4465"
         transform="translate(-11.221652,25.794286)">
        <path
           inkscape:connector-curvature="0"
           id="path4469"
           d="m 72.430479,902.54357 c 77.000001,0 70.000001,0 70.000001,0"
           style="fill:none;fill-rule:evenodd;stroke:#2e5c02;stroke-width:3;stroke-linecap:butt;stroke-linejoin:miter;stroke-miterlimit:4;stroke-dasharray:none;stroke-opacity:1" />
        <path
           style="fill:none;fill-rule:evenodd;stroke:#2e5c02;stroke-width:3;stroke-linecap:butt;stroke-linejoin:miter;stroke-miterlimit:4;stroke-dasharray:none;stroke-opacity:1"
           d="m 72.430479,896.54357 c 77.000001,0 70.000001,0 70.000001,0"
           id="path4471"
           inkscape:connector-curvature="0" />
      </g>
    </g>
    <g
       id="g4513"
       transform="matrix(1.6090261,0,0,1.6090261,-102.65486,-533.99825)" />
    <g
       id="g4485"
       transform="matrix(1.6090261,0,0,1.6090261,-102.65486,-469.63721)" />
    <g
       id="g4516"
       transform="matrix(1.6090261,0,0,1.6090261,-102.65486,-543.65241)" />
    <g
       transform="matrix(1.6090261,0,0,1.6090261,-102.65486,-553.30656)"
       id="g4520" />
    <g
       id="g4524"
       transform="matrix(1.6090261,0,0,1.6090261,-102.65486,-562.96072)" />
    <g
       transform="matrix(1.6090261,0,0,1.6090261,-68.917416,-561.45896)"
       id="g4608">
      <g
         id="g4610"
         transform="translate(-0.9752381,7.3142857)">
        <g
           id="g4612">
          <g
             id="g4614"
             transform="matrix(0.99013953,0,0,0.61354408,-10.906427,373.68048)">
            <path
               style="opacity:1;fill:#81c244;fill-opacity:1;stroke:#2e5c02;stroke-width:3.07017803;stroke-linecap:butt;stroke-linejoin:miter;stroke-miterlimit:4;stroke-dasharray:none;stroke-opacity:1"
               d="m 80.161572,859.35271 57.177448,0 4.38857,23.64575 -66.929828,0 z"
               id="path4616"
               inkscape:connector-curvature="0"
               sodipodi:nodetypes="ccccc" />
            <path
               inkscape:connector-curvature="0"
               style="opacity:1;fill:#2e5c02;fill-opacity:1;stroke:none;stroke-width:3;stroke-linecap:butt;stroke-linejoin:miter;stroke-miterlimit:4;stroke-dasharray:none;stroke-opacity:1;filter:url(#filter4396)"
               d="m 88.823841,861.1362 c -1.244857,0 -2.485342,0.25714 -3.454301,0.71757 -0.976376,0.46396 -1.602737,1.09893 -1.736573,1.76811 -0.13531,0.67655 0.243705,1.33241 1.05981,1.82046 0.822537,0.49191 2.016306,0.76996 3.313615,0.76996 1.297309,0 2.580631,-0.27805 3.561599,-0.76996 0.973293,-0.48805 1.56355,-1.14391 1.646142,-1.82046 0.08169,-0.66918 -0.340159,-1.30415 -1.167106,-1.76811 -0.820662,-0.46043 -1.978329,-0.71757 -3.223186,-0.71757 0,0 0,0 0,0 m 38.854009,0.3256 c -1.24823,0 -2.40892,0.25853 -3.23164,0.72146 -0.82904,0.4665 -1.25182,1.10494 -1.16968,1.77781 0.0831,0.6803 0.67517,1.33981 1.65136,1.8306 0.98391,0.49466 2.27096,0.77428 3.57192,0.77428 1.30096,0 2.49796,-0.27962 3.32254,-0.77428 0.81813,-0.49079 1.19783,-1.1503 1.06177,-1.8306 -0.13457,-0.67287 -0.76299,-1.31131 -1.74226,-1.77781 -0.97182,-0.46293 -2.2158,-0.72146 -3.46401,-0.72146 0,0 0,0 0,0 m -19.2697,4.37895 c -2.15579,0 -4.23823,0.46342 -5.80528,1.29684 -1.58799,0.84454 -2.53287,2.0082 -2.611332,3.24441 -0.168332,2.65218 3.603262,4.88314 8.430432,4.88314 4.82716,0 8.59222,-2.23096 8.41611,-4.88314 -0.082,-1.23621 -1.03038,-2.39987 -2.62085,-3.24441 -1.5695,-0.83342 -3.65329,-1.29684 -5.80908,-1.29684 0,0 0,0 0,0 m -21.798213,9.04308 c -1.386913,0 -2.774895,0.31925 -3.865803,0.89128 -1.100225,0.57693 -1.81528,1.36733 -1.982084,2.20135 -0.168855,0.84428 0.237716,1.66378 1.138035,2.27426 0.908264,0.61587 2.237958,0.96425 3.69029,0.96425 1.452334,0 2.894234,-0.34838 4.000856,-0.96425 1.096941,-0.61048 1.767457,-1.42998 1.870525,-2.27426 0.101815,-0.83402 -0.358671,-1.62442 -1.273081,-2.20135 -0.906666,-0.57203 -2.191826,-0.89128 -3.578738,-0.89128 0,0 0,0 0,0 m 43.229373,0 c -1.38691,0 -2.67206,0.31925 -3.57873,0.89128 -0.91441,0.57693 -1.3749,1.36733 -1.27308,2.20135 0.10307,0.84428 0.77358,1.66378 1.87053,2.27426 1.10662,0.61587 2.54851,0.96425 4.00084,0.96425 1.45234,0 2.78204,-0.34838 3.69029,-0.96425 0.90033,-0.61048 1.3069,-1.42998 1.13804,-2.27426 -0.1668,-0.83402 -0.88186,-1.62442 -1.98208,-2.20135 -1.09091,-0.57203 -2.47889,-0.89128 -3.86581,-0.89128 0,0 0,0 0,0"
               id="path4618" />
          </g>
          <g
             id="g4620"
             transform="translate(-11.221652,25.794286)">
            <rect
               transform="scale(-1,1)"
               y="890.599"
               x="-141.22191"
               height="17.938719"
               width="67.582863"
               id="rect4622"
               style="opacity:1;fill:#81c244;fill-opacity:1;stroke:#2e5c02;stroke-width:2.41713643;stroke-linecap:butt;stroke-linejoin:miter;stroke-miterlimit:4;stroke-dasharray:none;stroke-opacity:1" />
            <path
               inkscape:connector-curvature="0"
               id="path4624"
               d="m 72.430479,902.54357 c 77.000001,0 70.000001,0 70.000001,0"
               style="fill:none;fill-rule:evenodd;stroke:#2e5c02;stroke-width:3;stroke-linecap:butt;stroke-linejoin:miter;stroke-miterlimit:4;stroke-dasharray:none;stroke-opacity:1" />
            <path
               style="fill:none;fill-rule:evenodd;stroke:#2e5c02;stroke-width:3;stroke-linecap:butt;stroke-linejoin:miter;stroke-miterlimit:4;stroke-dasharray:none;stroke-opacity:1"
               d="m 72.430479,896.54357 c 77.000001,0 70.000001,0 70.000001,0"
               id="path4626"
               inkscape:connector-curvature="0" />
          </g>
        </g>
        <g
           transform="translate(22,10)"
           id="g4628">
          <g
             transform="matrix(0.99013953,0,0,0.61354408,-10.906427,373.68048)"
             id="g4630">
            <path
               sodipodi:nodetypes="ccccc"
               inkscape:connector-curvature="0"
               id="path4632"
               d="m 80.161572,859.35271 57.177448,0 4.38857,23.64575 -66.929828,0 z"
               style="opacity:1;fill:#81c244;fill-opacity:1;stroke:#2e5c02;stroke-width:3.07017803;stroke-linecap:butt;stroke-linejoin:miter;stroke-miterlimit:4;stroke-dasharray:none;stroke-opacity:1" />
            <path
               id="path4634"
               d="m 88.823841,861.1362 c -1.244857,0 -2.485342,0.25714 -3.454301,0.71757 -0.976376,0.46396 -1.602737,1.09893 -1.736573,1.76811 -0.13531,0.67655 0.243705,1.33241 1.05981,1.82046 0.822537,0.49191 2.016306,0.76996 3.313615,0.76996 1.297309,0 2.580631,-0.27805 3.561599,-0.76996 0.973293,-0.48805 1.56355,-1.14391 1.646142,-1.82046 0.08169,-0.66918 -0.340159,-1.30415 -1.167106,-1.76811 -0.820662,-0.46043 -1.978329,-0.71757 -3.223186,-0.71757 0,0 0,0 0,0 m 38.854009,0.3256 c -1.24823,0 -2.40892,0.25853 -3.23164,0.72146 -0.82904,0.4665 -1.25182,1.10494 -1.16968,1.77781 0.0831,0.6803 0.67517,1.33981 1.65136,1.8306 0.98391,0.49466 2.27096,0.77428 3.57192,0.77428 1.30096,0 2.49796,-0.27962 3.32254,-0.77428 0.81813,-0.49079 1.19783,-1.1503 1.06177,-1.8306 -0.13457,-0.67287 -0.76299,-1.31131 -1.74226,-1.77781 -0.97182,-0.46293 -2.2158,-0.72146 -3.46401,-0.72146 0,0 0,0 0,0 m -19.2697,4.37895 c -2.15579,0 -4.23823,0.46342 -5.80528,1.29684 -1.58799,0.84454 -2.53287,2.0082 -2.611332,3.24441 -0.168332,2.65218 3.603262,4.88314 8.430432,4.88314 4.82716,0 8.59222,-2.23096 8.41611,-4.88314 -0.082,-1.23621 -1.03038,-2.39987 -2.62085,-3.24441 -1.5695,-0.83342 -3.65329,-1.29684 -5.80908,-1.29684 0,0 0,0 0,0 m -21.798213,9.04308 c -1.386913,0 -2.774895,0.31925 -3.865803,0.89128 -1.100225,0.57693 -1.81528,1.36733 -1.982084,2.20135 -0.168855,0.84428 0.237716,1.66378 1.138035,2.27426 0.908264,0.61587 2.237958,0.96425 3.69029,0.96425 1.452334,0 2.894234,-0.34838 4.000856,-0.96425 1.096941,-0.61048 1.767457,-1.42998 1.870525,-2.27426 0.101815,-0.83402 -0.358671,-1.62442 -1.273081,-2.20135 -0.906666,-0.57203 -2.191826,-0.89128 -3.578738,-0.89128 0,0 0,0 0,0 m 43.229373,0 c -1.38691,0 -2.67206,0.31925 -3.57873,0.89128 -0.91441,0.57693 -1.3749,1.36733 -1.27308,2.20135 0.10307,0.84428 0.77358,1.66378 1.87053,2.27426 1.10662,0.61587 2.54851,0.96425 4.00084,0.96425 1.45234,0 2.78204,-0.34838 3.69029,-0.96425 0.90033,-0.61048 1.3069,-1.42998 1.13804,-2.27426 -0.1668,-0.83402 -0.88186,-1.62442 -1.98208,-2.20135 -1.09091,-0.57203 -2.47889,-0.89128 -3.86581,-0.89128 0,0 0,0 0,0"
               style="opacity:1;fill:#2e5c02;fill-opacity:1;stroke:none;stroke-width:3;stroke-linecap:butt;stroke-linejoin:miter;stroke-miterlimit:4;stroke-dasharray:none;stroke-opacity:1;filter:url(#filter4396)"
               inkscape:connector-curvature="0" />
          </g>
          <g
             transform="translate(-11.221652,25.794286)"
             id="g4636">
            <rect
               style="opacity:1;fill:#81c244;fill-opacity:1;stroke:#2e5c02;stroke-width:2.41713643;stroke-linecap:butt;stroke-linejoin:miter;stroke-miterlimit:4;stroke-dasharray:none;stroke-opacity:1"
               id="rect4638"
               width="67.582863"
               height="17.938719"
               x="-141.22191"
               y="890.599"
               transform="scale(-1,1)" />
            <path
               style="fill:none;fill-rule:evenodd;stroke:#2e5c02;stroke-width:3;stroke-linecap:butt;stroke-linejoin:miter;stroke-miterlimit:4;stroke-dasharray:none;stroke-opacity:1"
               d="m 72.430479,902.54357 c 77.000001,0 70.000001,0 70.000001,0"
               id="path4640"
               inkscape:connector-curvature="0" />
            <path
               inkscape:connector-curvature="0"
               id="path4642"
               d="m 72.430479,896.54357 c 77.000001,0 70.000001,0 70.000001,0"
               style="fill:none;fill-rule:evenodd;stroke:#2e5c02;stroke-width:3;stroke-linecap:butt;stroke-linejoin:miter;stroke-miterlimit:4;stroke-dasharray:none;stroke-opacity:1" />
          </g>
        </g>
      </g>
      <g
         id="g4644"
         transform="translate(-20.967619,17.066667)">
        <ellipse
           style="opacity:1;fill:#fdf3a6;fill-opacity:1;stroke:#8b7100;stroke-width:3.46335316;stroke-linecap:butt;stroke-linejoin:miter;stroke-miterlimit:4;stroke-dasharray:none;stroke-opacity:1"
           id="ellipse4646"
           cx="189"
           cy="925.36218"
           rx="14.768324"
           ry="6.7683234" />
        <ellipse
           ry="6.7683234"
           rx="14.768324"
           cy="919.36218"
           cx="189"
           id="ellipse4648"
           style="opacity:1;fill:#fdf3a6;fill-opacity:1;stroke:#8b7100;stroke-width:3.46335316;stroke-linecap:butt;stroke-linejoin:miter;stroke-miterlimit:4;stroke-dasharray:none;stroke-opacity:1" />
        <ellipse
           style="opacity:1;fill:#fdf3a6;fill-opacity:1;stroke:#8b7100;stroke-width:3.46335316;stroke-linecap:butt;stroke-linejoin:miter;stroke-miterlimit:4;stroke-dasharray:none;stroke-opacity:1"
           id="ellipse4650"
           cx="189"
           cy="913.36218"
           rx="14.768324"
           ry="6.7683234" />
        <ellipse
           ry="6.7683234"
           rx="14.768324"
           cy="907.36218"
           cx="189"
           id="ellipse4652"
           style="opacity:1;fill:#fdf3a6;fill-opacity:1;stroke:#8b7100;stroke-width:3.46335316;stroke-linecap:butt;stroke-linejoin:miter;stroke-miterlimit:4;stroke-dasharray:none;stroke-opacity:1" />
        <ellipse
           style="opacity:1;fill:#fdf3a6;fill-opacity:1;stroke:#8b7100;stroke-width:3.46335316;stroke-linecap:butt;stroke-linejoin:miter;stroke-miterlimit:4;stroke-dasharray:none;stroke-opacity:1"
           id="ellipse4654"
           cx="189"
           cy="901.36218"
           rx="14.768324"
           ry="6.7683234" />
        <g
           id="g4656">
          <ellipse
             style="opacity:1;fill:#fdf3a6;fill-opacity:1;stroke:#8b7100;stroke-width:3.46335316;stroke-linecap:butt;stroke-linejoin:miter;stroke-miterlimit:4;stroke-dasharray:none;stroke-opacity:1"
             id="ellipse4658"
             cx="189"
             cy="895.36218"
             rx="14.768324"
             ry="6.7683234" />
        </g>
        <g
           transform="translate(0,40)"
           id="g4660">
          <ellipse
             style="opacity:1;fill:#fdf3a6;fill-opacity:1;stroke:#8b7100;stroke-width:3.46335316;stroke-linecap:butt;stroke-linejoin:miter;stroke-miterlimit:4;stroke-dasharray:none;stroke-opacity:1"
             id="ellipse4662"
             cx="175"
             cy="895.36218"
             rx="14.768324"
             ry="6.7683234" />
          <ellipse
             ry="6.7683234"
             rx="14.768324"
             cy="889.36218"
             cx="175"
             id="ellipse4664"
             style="opacity:1;fill:#fdf3a6;fill-opacity:1;stroke:#8b7100;stroke-width:3.46335316;stroke-linecap:butt;stroke-linejoin:miter;stroke-miterlimit:4;stroke-dasharray:none;stroke-opacity:1" />
          <ellipse
             style="opacity:1;fill:#fdf3a6;fill-opacity:1;stroke:#8b7100;stroke-width:3.46335316;stroke-linecap:butt;stroke-linejoin:miter;stroke-miterlimit:4;stroke-dasharray:none;stroke-opacity:1"
             id="ellipse4666"
             cx="175"
             cy="883.36218"
             rx="14.768324"
             ry="6.7683234" />
          <ellipse
             ry="6.7683234"
             rx="14.768324"
             cy="877.36218"
             cx="175"
             id="ellipse4668"
             style="opacity:1;fill:#fdf3a6;fill-opacity:1;stroke:#8b7100;stroke-width:3.46335316;stroke-linecap:butt;stroke-linejoin:miter;stroke-miterlimit:4;stroke-dasharray:none;stroke-opacity:1" />
          <ellipse
             style="opacity:1;fill:#fdf3a6;fill-opacity:1;stroke:#8b7100;stroke-width:3.46335316;stroke-linecap:butt;stroke-linejoin:miter;stroke-miterlimit:4;stroke-dasharray:none;stroke-opacity:1"
             id="ellipse4670"
             cx="175"
             cy="871.36218"
             rx="14.768324"
             ry="6.7683234" />
          <ellipse
             ry="6.7683234"
             rx="14.768324"
             cy="865.36218"
             cx="175"
             id="ellipse4672"
             style="opacity:1;fill:#fdf3a6;fill-opacity:1;stroke:#8b7100;stroke-width:3.46335316;stroke-linecap:butt;stroke-linejoin:miter;stroke-miterlimit:4;stroke-dasharray:none;stroke-opacity:1" />
        </g>
        <g
           transform="translate(0,-6)"
           id="g4674">
          <ellipse
             ry="6.7683234"
             rx="14.768324"
             cy="895.36218"
             cx="189"
             id="ellipse4676"
             style="opacity:1;fill:#fdf3a6;fill-opacity:1;stroke:#8b7100;stroke-width:3.46335316;stroke-linecap:butt;stroke-linejoin:miter;stroke-miterlimit:4;stroke-dasharray:none;stroke-opacity:1" />
        </g>
        <g
           id="g4678"
           transform="translate(0,-12)">
          <ellipse
             style="opacity:1;fill:#fdf3a6;fill-opacity:1;stroke:#8b7100;stroke-width:3.46335316;stroke-linecap:butt;stroke-linejoin:miter;stroke-miterlimit:4;stroke-dasharray:none;stroke-opacity:1"
             id="ellipse4680"
             cx="189"
             cy="895.36218"
             rx="14.768324"
             ry="6.7683234" />
        </g>
        <g
           transform="translate(0,-18)"
           id="g4682">
          <ellipse
             ry="6.7683234"
             rx="14.768324"
             cy="895.36218"
             cx="189"
             id="ellipse4684"
             style="opacity:1;fill:#fdf3a6;fill-opacity:1;stroke:#8b7100;stroke-width:3.46335316;stroke-linecap:butt;stroke-linejoin:miter;stroke-miterlimit:4;stroke-dasharray:none;stroke-opacity:1" />
        </g>
      </g>
    </g>
  </g>
</svg>
