<?xml version="1.0" encoding="UTF-8" standalone="no"?>
<svg
   xmlns:dc="http://purl.org/dc/elements/1.1/"
   xmlns:cc="http://creativecommons.org/ns#"
   xmlns:rdf="http://www.w3.org/1999/02/22-rdf-syntax-ns#"
   xmlns:svg="http://www.w3.org/2000/svg"
   xmlns="http://www.w3.org/2000/svg"
   xmlns:sodipodi="http://sodipodi.sourceforge.net/DTD/sodipodi-0.dtd"
   xmlns:inkscape="http://www.inkscape.org/namespaces/inkscape"
   width="256"
   height="256"
   viewBox="0 0 256 256"
   id="svg2"
   version="1.1"
   inkscape:version="1.0 (4035a4fb49, 2020-05-01)"
   sodipodi:docname="gnumeric.svg">
  <sodipodi:namedview
     inkscape:document-rotation="0"
     id="base"
     pagecolor="#ffffff"
     bordercolor="#666666"
     borderopacity="1.0"
     inkscape:pageopacity="0.0"
     inkscape:pageshadow="2"
     inkscape:zoom="3.2653807"
     inkscape:cx="126.04953"
     inkscape:cy="127.51242"
     inkscape:document-units="px"
     inkscape:current-layer="layer1"
     showgrid="true"
     units="px"
     inkscape:window-width="1920"
     inkscape:window-height="1048"
     inkscape:window-x="0"
     inkscape:window-y="0"
     inkscape:window-maximized="1">
    <inkscape:grid
       spacingy="5"
       spacingx="5"
       id="grid4168"
       type="xygrid" />
  </sodipodi:namedview>
  <defs
     id="defs4">
    <inkscape:path-effect
       fuse_tolerance="0"
       vertical_pattern="false"
       prop_units="false"
       tang_offset="0"
       normal_offset="0"
       spacing="0"
       scale_y_rel="false"
       prop_scale="1"
       copytype="single_stretched"
       pattern="M 0,0 1,0"
       is_visible="true"
       id="path-effect4235"
       effect="skeletal" />
    <clipPath
       id="clipPath5002"
       clipPathUnits="userSpaceOnUse">
      <g
         id="g5004">
        <path
           style="fill:#0f9d58;fill-opacity:1;stroke:none;stroke-width:4.85768509;stroke-linejoin:round;stroke-miterlimit:4;stroke-dasharray:none;stroke-opacity:1"
           d="M 88.118406,249.43519 C 46.103287,235.29134 14.771284,201.68742 4.1335861,159.36053 1.3377997,148.23623 0.92261224,144.16281 0.92582381,127.88908 0.92787958,117.47222 1.134384,112.01362 1.6577819,108.54099 4.4653598,89.913336 12.17654,70.638106 23.042737,55.086148 c 3.958678,-5.665755 8.344812,-10.93092 9.101533,-10.925587 0.32809,0.0023 10.488643,18.309713 22.579009,40.683112 12.090365,22.373397 22.374546,41.334697 22.853732,42.136217 0.479186,0.80151 0.924733,2.44098 0.990103,3.64326 0.343424,6.31639 2.524175,14.20976 5.6424,20.42304 2.954444,5.88693 5.065381,8.73258 10.434696,14.06652 6.71418,6.66995 12.88853,10.28643 21.73204,12.72904 3.16587,0.87442 5.10478,1.05037 11.57517,1.05037 8.82596,0 12.60219,-0.76201 19.26429,-3.88733 2.04584,-0.95974 3.93661,-1.66536 4.20172,-1.56805 0.2651,0.0973 -11.0555,17.66459 -25.1569,39.0384 l -25.6389,38.86148 -3.094121,0.11221 c -2.554618,0.0927 -4.195204,-0.25845 -9.409103,-2.01364 z"
           id="path5006"
           inkscape:connector-curvature="0"
           transform="translate(0,796.36216)" />
        <path
           style="fill:#f4b400;fill-opacity:1;stroke:none;stroke-width:4.85768509;stroke-linejoin:round;stroke-miterlimit:4;stroke-dasharray:none;stroke-opacity:1"
           d="m 112.35984,1051.5167 c -10.0014,-1.4495 -12.15632,-1.8201 -12.531784,-2.1556 -0.248854,-0.2223 1.738304,-3.7475 4.550294,-8.0722 7.16635,-11.0213 49.77231,-74.64801 50.25856,-75.05489 3.57509,-2.99158 8.63523,-8.0414 10.57512,-10.55356 3.36154,-4.35318 7.55784,-12.9141 9.06523,-18.494 6.19314,-22.92535 -2.59253,-47.15185 -21.69967,-59.83688 l -2.96081,-1.96565 17.02469,0.29584 c 9.36358,0.1627 31.17032,0.43384 48.45941,0.60252 l 31.43471,0.30668 1.54584,4.18869 c 2.24597,6.08579 4.67816,15.0947 5.93451,21.9816 1.52517,8.36049 1.92536,28.85896 0.73851,37.82758 -3.0805,23.27845 -12.81326,45.72018 -27.80202,64.10577 -20.47622,25.1166 -51.4599,42.1974 -84.14612,46.3885 -5.31244,0.6812 -26.64601,0.9864 -30.44647,0.4356 z"
           id="path5008"
           inkscape:connector-curvature="0" />
        <path
           style="fill:#db4437;fill-opacity:1;stroke:none;stroke-width:10;stroke-linejoin:round;stroke-miterlimit:4;stroke-dasharray:none;stroke-opacity:1"
           d="M 67.989788,108.87302 C 41.284246,59.575543 33.290284,45.149038 32.233625,44.344765 31.651257,43.901497 32.811213,42.549931 38.695603,36.815353 53.43581,22.450419 68.809334,13.040746 87.839196,6.7360352 101.68742,2.1480329 112.58238,0.43719165 127.95142,0.43719165 c 21.3099,0 37.80488,3.80960275 56.83492,13.12633035 25.29351,12.383198 46.19421,33.578863 58.51993,59.345832 1.61138,3.368591 2.92978,6.372442 2.92978,6.675231 0,0.560033 -10.54865,0.49527 -71.16508,-0.436914 l -24.28843,-0.373518 -3.93063,-1.764495 c -6.75732,-3.033425 -10.64587,-3.839529 -18.6576,-3.867747 -5.0296,-0.01773 -7.97946,0.207636 -10.31642,0.788106 -14.50826,3.603659 -26.283291,12.94777 -33.291614,26.418653 -3.58502,6.89086 -5.24713,13.08166 -6.331628,23.58317 l -0.33738,3.26696 -9.92748,-18.32578 z"
           id="path5010"
           inkscape:connector-curvature="0"
           transform="translate(0,796.36216)" />
      </g>
    </clipPath>
    <clipPath
       clipPathUnits="userSpaceOnUse"
       id="clipPath4271">
      <circle
         style="fill:#292929;fill-opacity:0.26020412;stroke:none;stroke-width:10;stroke-linejoin:round;stroke-miterlimit:4;stroke-dasharray:none;stroke-opacity:0.25882353"
         id="circle4273"
         cx="128"
         cy="128.00002"
         r="128" />
    </clipPath>
    <clipPath
       id="clipPath4363"
       clipPathUnits="userSpaceOnUse">
      <circle
         style="fill:#4285f4;fill-opacity:1;stroke:none;stroke-width:10;stroke-linejoin:round;stroke-miterlimit:4;stroke-dasharray:none;stroke-opacity:0.25882353"
         id="circle4365"
         cx="128"
         cy="924.36218"
         r="128" />
    </clipPath>
    <clipPath
       clipPathUnits="userSpaceOnUse"
       id="clipPath4452">
      <circle
         style="fill:#4285f4;fill-opacity:1;stroke:none;stroke-width:10;stroke-linejoin:round;stroke-miterlimit:4;stroke-dasharray:none;stroke-opacity:0.25882353"
         id="circle4454"
         cx="128"
         cy="924.36218"
         r="128" />
    </clipPath>
    <clipPath
       id="clipPath5177"
       clipPathUnits="userSpaceOnUse">
      <circle
         style="fill:#4285f4;fill-opacity:1;stroke:none;stroke-width:10;stroke-linejoin:round;stroke-miterlimit:4;stroke-dasharray:none;stroke-opacity:0.25882353"
         id="circle5179"
         cx="128"
         cy="924.36218"
         r="128" />
    </clipPath>
    <clipPath
       clipPathUnits="userSpaceOnUse"
       id="clipPath4342">
      <circle
         style="fill:#4285f4;fill-opacity:1;stroke:none;stroke-width:10;stroke-linejoin:round;stroke-miterlimit:4;stroke-dasharray:none;stroke-opacity:0.25882353"
         id="circle4344"
         cx="128"
         cy="933.48718"
         r="128" />
    </clipPath>
    <clipPath
       id="clipPath4681"
       clipPathUnits="userSpaceOnUse">
      <circle
         style="fill:#9d5fad;fill-opacity:1;stroke:none;stroke-width:10;stroke-linejoin:round;stroke-miterlimit:4;stroke-dasharray:none;stroke-opacity:0.25882353"
         id="circle4683"
         cx="127.00293"
         cy="930.43964"
         r="128" />
    </clipPath>
    <clipPath
       clipPathUnits="userSpaceOnUse"
       id="clipPath4480">
      <circle
         style="fill:#df7618;fill-opacity:1;stroke:none;stroke-width:10;stroke-linejoin:round;stroke-miterlimit:4;stroke-dasharray:none;stroke-opacity:0.25882353"
         id="circle4482"
         cx="128"
         cy="924.36218"
         r="128" />
    </clipPath>
    <filter
       style="color-interpolation-filters:sRGB"
       inkscape:label="Drop Shadow"
       id="filter4301">
      <feFlood
         flood-opacity="0.498039"
         flood-color="rgb(0,0,0)"
         result="flood"
         id="feFlood4303" />
      <feComposite
         in="flood"
         in2="SourceGraphic"
         operator="in"
         result="composite1"
         id="feComposite4305" />
      <feGaussianBlur
         in="composite1"
         stdDeviation="3.7"
         result="blur"
         id="feGaussianBlur4307" />
      <feOffset
         dx="3.8"
         dy="3.7"
         result="offset"
         id="feOffset4309" />
      <feComposite
         in="SourceGraphic"
         in2="offset"
         operator="over"
         result="composite2"
         id="feComposite4311" />
    </filter>
    <clipPath
       id="clipPath5827"
       clipPathUnits="userSpaceOnUse">
      <circle
         style="fill:#df7618;fill-opacity:1;stroke:none;stroke-width:10;stroke-linejoin:round;stroke-miterlimit:4;stroke-dasharray:none;stroke-opacity:0.25882353"
         id="circle5829"
         cx="128"
         cy="924.36218"
         r="128" />
    </clipPath>
    <clipPath
       clipPathUnits="userSpaceOnUse"
       id="clipPath5688">
      <circle
         style="fill:#ffeb4f;fill-opacity:1;stroke:none;stroke-width:10;stroke-linejoin:round;stroke-miterlimit:4;stroke-dasharray:none;stroke-opacity:0.25882353"
         id="circle5690"
         cx="126.04952"
         cy="923.87457"
         r="128" />
    </clipPath>
    <clipPath
       id="clipPath4624"
       clipPathUnits="userSpaceOnUse">
      <circle
         style="fill:#ffeb4f;fill-opacity:1;stroke:none;stroke-width:10;stroke-linejoin:round;stroke-miterlimit:4;stroke-dasharray:none;stroke-opacity:0.25882353"
         id="circle4626"
         cx="126.04952"
         cy="923.87457"
         r="128" />
    </clipPath>
  </defs>
  <metadata
     id="metadata7">
    <rdf:RDF>
      <cc:Work
         rdf:about="">
        <dc:format>image/svg+xml</dc:format>
        <dc:type
           rdf:resource="http://purl.org/dc/dcmitype/StillImage" />
        <dc:title />
      </cc:Work>
    </rdf:RDF>
  </metadata>
  <g
     inkscape:label="Layer 1"
     inkscape:groupmode="layer"
     id="layer1"
     transform="translate(0,-796.36216)">
    <path
       transform="scale(1,-1)"
       style="fill:#d2c02c;fill-opacity:1;stroke-width:48.2719"
       id="path906"
       sodipodi:type="arc"
       sodipodi:cx="128"
       sodipodi:cy="-924.36218"
       sodipodi:rx="128"
       sodipodi:ry="128"
       sodipodi:start="0"
       sodipodi:end="3.1415927"
       sodipodi:arc-type="slice"
       d="m 256,-924.36218 a 128,128 0 0 1 -64,110.85125 128,128 0 0 1 -128.000003,0 A 128,128 0 0 1 0,-924.36218 h 128 z" />
    <path
       d="m 256,924.36218 a 128,128 0 0 1 -64,110.85122 128,128 0 0 1 -128.000003,0 A 128,128 0 0 1 0,924.36218 h 128 z"
       sodipodi:arc-type="slice"
       sodipodi:end="3.1415927"
       sodipodi:start="0"
       sodipodi:ry="128"
       sodipodi:rx="128"
       sodipodi:cy="924.36218"
       sodipodi:cx="128"
       sodipodi:type="arc"
       id="path904"
       style="fill:#ffeb4f;fill-opacity:1;stroke-width:48.2719" />
    <path
       style="fill:none;fill-rule:evenodd;stroke:none;stroke-width:1px;stroke-linecap:butt;stroke-linejoin:miter;stroke-opacity:1"
       d="M 154.47438,968.80998 101.03985,1048.476 0.4857685,1048.9618 0,842.0244 l 33.032258,-2.42884 45.176471,83.55218 21.373814,35.4611 26.717267,13.11575 z"
       id="path4913"
       inkscape:connector-curvature="0" />
    <text
       xml:space="preserve"
       style="font-style:normal;font-weight:normal;line-height:0%;font-family:sans-serif;letter-spacing:0px;word-spacing:0px;fill:#000000;fill-opacity:1;stroke:none;stroke-width:1px;stroke-linecap:butt;stroke-linejoin:miter;stroke-opacity:1"
       x="120"
       y="927.36218"
       id="text4914"><tspan
         style="font-size:40px;line-height:1.25"
         sodipodi:role="line"
         id="tspan4916"
         x="120"
         y="927.36218"> </tspan></text>
    <g
       id="g4292">
      <g
         id="g4294"
         transform="matrix(1.25,0,0,1.25,-31.983086,-241.2628)">
        <path
           style="opacity:0.98999999;fill:#933a22;fill-opacity:1;stroke:none;stroke-width:3;stroke-linecap:round;stroke-linejoin:round;stroke-miterlimit:4;stroke-dasharray:none;stroke-opacity:1"
           d="m 133.08999,875.75387 a 60,60 0 0 0 -5.10352,-0.2539 60,60 0 0 0 -60.000002,60 60,60 0 0 0 60.000002,60 60,60 0 0 0 60,-60 60,60 0 0 0 -7.49609,-28.90235 l -13.04493,6.97266 -36.23046,19.36328 1.3457,-41.05664 0.5293,-16.12305 z"
           id="path4296"
           inkscape:connector-curvature="0" />
        <path
           inkscape:connector-curvature="0"
           id="path4298"
           d="m 133.08999,869.75387 a 60,60 0 0 0 -5.10352,-0.2539 60,60 0 0 0 -60.000002,60 60,60 0 0 0 60.000002,60 60,60 0 0 0 60,-60 60,60 0 0 0 -7.49609,-28.90235 l -13.04493,6.97266 -36.23046,19.36328 1.3457,-41.05664 0.5293,-16.12305 z"
           style="opacity:0.98999999;fill:#f46d6d;fill-opacity:1;stroke:none;stroke-width:3;stroke-linecap:round;stroke-linejoin:round;stroke-miterlimit:4;stroke-dasharray:none;stroke-opacity:1" />
      </g>
      <g
         id="g4300"
         transform="matrix(1.25,0,0,1.25,-28.955008,-218.40159)">
        <path
           sodipodi:nodetypes="cccccsc"
           style="opacity:0.98999999;fill:#4676b0;fill-opacity:1;stroke:none;stroke-width:3;stroke-linecap:round;stroke-linejoin:round;stroke-miterlimit:4;stroke-dasharray:none;stroke-opacity:1"
           d="m 138.26924,841.67321 -0.5293,16.12305 -1.3457,41.05664 36.23046,-19.36328 13.04493,-6.97266 c -1.29963,-2.36099 2.25608,-6.13004 -1.39967,-7.72414 -15.66012,-6.82865 -28.72736,-21.6279 -46.00072,-23.11961 z"
           id="path4302"
           inkscape:connector-curvature="0" />
        <path
           inkscape:connector-curvature="0"
           id="path4304"
           d="m 138.26924,835.67321 -0.5293,16.12305 -1.3457,41.05664 36.23046,-19.36328 13.04493,-6.97266 a 60,60 0 0 0 -47.40039,-30.84375 z"
           style="opacity:0.98999999;fill:#78a3d0;fill-opacity:1;stroke:none;stroke-width:3;stroke-linecap:round;stroke-linejoin:round;stroke-miterlimit:4;stroke-dasharray:none;stroke-opacity:1" />
      </g>
    </g>
  </g>
</svg>
