<?xml version="1.0" encoding="UTF-8" standalone="no"?>
<svg
   xmlns:dc="http://purl.org/dc/elements/1.1/"
   xmlns:cc="http://creativecommons.org/ns#"
   xmlns:rdf="http://www.w3.org/1999/02/22-rdf-syntax-ns#"
   xmlns:svg="http://www.w3.org/2000/svg"
   xmlns="http://www.w3.org/2000/svg"
   xmlns:sodipodi="http://sodipodi.sourceforge.net/DTD/sodipodi-0.dtd"
   xmlns:inkscape="http://www.inkscape.org/namespaces/inkscape"
   width="256"
   height="256"
   viewBox="0 0 256 256"
   id="svg2"
   version="1.1"
   inkscape:version="1.0 (4035a4fb49, 2020-05-01)"
   sodipodi:docname="gnuplot.svg">
  <sodipodi:namedview
     inkscape:document-rotation="0"
     id="base"
     pagecolor="#ffffff"
     bordercolor="#666666"
     borderopacity="1.0"
     inkscape:pageopacity="0.0"
     inkscape:pageshadow="2"
     inkscape:zoom="3.34375"
     inkscape:cx="128"
     inkscape:cy="128"
     inkscape:document-units="px"
     inkscape:current-layer="layer1"
     showgrid="true"
     units="px"
     inkscape:window-width="1920"
     inkscape:window-height="1048"
     inkscape:window-x="0"
     inkscape:window-y="0"
     inkscape:window-maximized="1">
    <inkscape:grid
       type="xygrid"
       id="grid4168"
       spacingx="5"
       spacingy="5" />
  </sodipodi:namedview>
  <defs
     id="defs4">
    <clipPath
       clipPathUnits="userSpaceOnUse"
       id="clipPath5002">
      <g
         id="g5004">
        <path
           transform="translate(0,796.36216)"
           inkscape:connector-curvature="0"
           id="path5006"
           d="M 88.118406,249.43519 C 46.103287,235.29134 14.771284,201.68742 4.1335861,159.36053 1.3377997,148.23623 0.92261224,144.16281 0.92582381,127.88908 0.92787958,117.47222 1.134384,112.01362 1.6577819,108.54099 4.4653598,89.913336 12.17654,70.638106 23.042737,55.086148 c 3.958678,-5.665755 8.344812,-10.93092 9.101533,-10.925587 0.32809,0.0023 10.488643,18.309713 22.579009,40.683112 12.090365,22.373397 22.374546,41.334697 22.853732,42.136217 0.479186,0.80151 0.924733,2.44098 0.990103,3.64326 0.343424,6.31639 2.524175,14.20976 5.6424,20.42304 2.954444,5.88693 5.065381,8.73258 10.434696,14.06652 6.71418,6.66995 12.88853,10.28643 21.73204,12.72904 3.16587,0.87442 5.10478,1.05037 11.57517,1.05037 8.82596,0 12.60219,-0.76201 19.26429,-3.88733 2.04584,-0.95974 3.93661,-1.66536 4.20172,-1.56805 0.2651,0.0973 -11.0555,17.66459 -25.1569,39.0384 l -25.6389,38.86148 -3.094121,0.11221 c -2.554618,0.0927 -4.195204,-0.25845 -9.409103,-2.01364 z"
           style="fill:#0f9d58;fill-opacity:1;stroke:none;stroke-width:4.85768509;stroke-linejoin:round;stroke-miterlimit:4;stroke-dasharray:none;stroke-opacity:1" />
        <path
           inkscape:connector-curvature="0"
           id="path5008"
           d="m 112.35984,1051.5167 c -10.0014,-1.4495 -12.15632,-1.8201 -12.531784,-2.1556 -0.248854,-0.2223 1.738304,-3.7475 4.550294,-8.0722 7.16635,-11.0213 49.77231,-74.64801 50.25856,-75.05489 3.57509,-2.99158 8.63523,-8.0414 10.57512,-10.55356 3.36154,-4.35318 7.55784,-12.9141 9.06523,-18.494 6.19314,-22.92535 -2.59253,-47.15185 -21.69967,-59.83688 l -2.96081,-1.96565 17.02469,0.29584 c 9.36358,0.1627 31.17032,0.43384 48.45941,0.60252 l 31.43471,0.30668 1.54584,4.18869 c 2.24597,6.08579 4.67816,15.0947 5.93451,21.9816 1.52517,8.36049 1.92536,28.85896 0.73851,37.82758 -3.0805,23.27845 -12.81326,45.72018 -27.80202,64.10577 -20.47622,25.1166 -51.4599,42.1974 -84.14612,46.3885 -5.31244,0.6812 -26.64601,0.9864 -30.44647,0.4356 z"
           style="fill:#f4b400;fill-opacity:1;stroke:none;stroke-width:4.85768509;stroke-linejoin:round;stroke-miterlimit:4;stroke-dasharray:none;stroke-opacity:1" />
        <path
           transform="translate(0,796.36216)"
           inkscape:connector-curvature="0"
           id="path5010"
           d="M 67.989788,108.87302 C 41.284246,59.575543 33.290284,45.149038 32.233625,44.344765 31.651257,43.901497 32.811213,42.549931 38.695603,36.815353 53.43581,22.450419 68.809334,13.040746 87.839196,6.7360352 101.68742,2.1480329 112.58238,0.43719165 127.95142,0.43719165 c 21.3099,0 37.80488,3.80960275 56.83492,13.12633035 25.29351,12.383198 46.19421,33.578863 58.51993,59.345832 1.61138,3.368591 2.92978,6.372442 2.92978,6.675231 0,0.560033 -10.54865,0.49527 -71.16508,-0.436914 l -24.28843,-0.373518 -3.93063,-1.764495 c -6.75732,-3.033425 -10.64587,-3.839529 -18.6576,-3.867747 -5.0296,-0.01773 -7.97946,0.207636 -10.31642,0.788106 -14.50826,3.603659 -26.283291,12.94777 -33.291614,26.418653 -3.58502,6.89086 -5.24713,13.08166 -6.331628,23.58317 l -0.33738,3.26696 -9.92748,-18.32578 z"
           style="fill:#db4437;fill-opacity:1;stroke:none;stroke-width:10;stroke-linejoin:round;stroke-miterlimit:4;stroke-dasharray:none;stroke-opacity:1" />
      </g>
    </clipPath>
    <clipPath
       id="clipPath4271"
       clipPathUnits="userSpaceOnUse">
      <circle
         r="128"
         cy="128.00002"
         cx="128"
         id="circle4273"
         style="fill:#292929;fill-opacity:0.26020412;stroke:none;stroke-width:10;stroke-linejoin:round;stroke-miterlimit:4;stroke-dasharray:none;stroke-opacity:0.25882353" />
    </clipPath>
    <clipPath
       clipPathUnits="userSpaceOnUse"
       id="clipPath4363">
      <circle
         r="128"
         cy="924.36218"
         cx="128"
         id="circle4365"
         style="fill:#4285f4;fill-opacity:1;stroke:none;stroke-width:10;stroke-linejoin:round;stroke-miterlimit:4;stroke-dasharray:none;stroke-opacity:0.25882353" />
    </clipPath>
    <clipPath
       id="clipPath4452"
       clipPathUnits="userSpaceOnUse">
      <circle
         r="128"
         cy="924.36218"
         cx="128"
         id="circle4454"
         style="fill:#4285f4;fill-opacity:1;stroke:none;stroke-width:10;stroke-linejoin:round;stroke-miterlimit:4;stroke-dasharray:none;stroke-opacity:0.25882353" />
    </clipPath>
    <clipPath
       clipPathUnits="userSpaceOnUse"
       id="clipPath5177">
      <circle
         r="128"
         cy="924.36218"
         cx="128"
         id="circle5179"
         style="fill:#4285f4;fill-opacity:1;stroke:none;stroke-width:10;stroke-linejoin:round;stroke-miterlimit:4;stroke-dasharray:none;stroke-opacity:0.25882353" />
    </clipPath>
    <clipPath
       id="clipPath4342"
       clipPathUnits="userSpaceOnUse">
      <circle
         r="128"
         cy="933.48718"
         cx="128"
         id="circle4344"
         style="fill:#4285f4;fill-opacity:1;stroke:none;stroke-width:10;stroke-linejoin:round;stroke-miterlimit:4;stroke-dasharray:none;stroke-opacity:0.25882353" />
    </clipPath>
    <clipPath
       clipPathUnits="userSpaceOnUse"
       id="clipPath4681">
      <circle
         r="128"
         cy="930.43964"
         cx="127.00293"
         id="circle4683"
         style="fill:#9d5fad;fill-opacity:1;stroke:none;stroke-width:10;stroke-linejoin:round;stroke-miterlimit:4;stroke-dasharray:none;stroke-opacity:0.25882353" />
    </clipPath>
    <clipPath
       id="clipPath4235"
       clipPathUnits="userSpaceOnUse">
      <circle
         r="128"
         cy="924.36218"
         cx="128"
         id="circle4237"
         style="fill:#0f9d58;fill-opacity:1;stroke:none;stroke-width:10;stroke-linejoin:round;stroke-miterlimit:4;stroke-dasharray:none;stroke-opacity:0.25882353" />
    </clipPath>
    <clipPath
       clipPathUnits="userSpaceOnUse"
       id="clipPath4771">
      <circle
         r="128"
         cy="924.36218"
         cx="128"
         id="circle4773"
         style="fill:#0f9d58;fill-opacity:1;stroke:none;stroke-width:10;stroke-linejoin:round;stroke-miterlimit:4;stroke-dasharray:none;stroke-opacity:0.25882353" />
    </clipPath>
    <clipPath
       id="clipPath4842"
       clipPathUnits="userSpaceOnUse">
      <circle
         r="128"
         cy="924.36218"
         cx="128"
         id="circle4844"
         style="fill:#0f9d58;fill-opacity:1;stroke:none;stroke-width:10;stroke-linejoin:round;stroke-miterlimit:4;stroke-dasharray:none;stroke-opacity:0.25882353" />
    </clipPath>
    <clipPath
       clipPathUnits="userSpaceOnUse"
       id="clipPath4458">
      <circle
         r="128"
         cy="924.36218"
         cx="128"
         id="circle4460"
         style="fill:#ff3b38;fill-opacity:1;stroke:none;stroke-width:10;stroke-linejoin:round;stroke-miterlimit:4;stroke-dasharray:none;stroke-opacity:0.25882353" />
    </clipPath>
    <clipPath
       id="clipPath4783"
       clipPathUnits="userSpaceOnUse">
      <circle
         r="128"
         cy="924.36218"
         cx="128"
         id="circle4785"
         style="fill:#ff3b38;fill-opacity:1;stroke:none;stroke-width:10;stroke-linejoin:round;stroke-miterlimit:4;stroke-dasharray:none;stroke-opacity:0.25882353" />
    </clipPath>
    <clipPath
       clipPathUnits="userSpaceOnUse"
       id="clipPath4789">
      <circle
         r="128"
         cy="924.36218"
         cx="102.64714"
         id="circle4791"
         style="fill:#80b4ff;fill-opacity:1;stroke:none;stroke-width:10;stroke-linejoin:round;stroke-miterlimit:4;stroke-dasharray:none;stroke-opacity:0.25882353" />
    </clipPath>
    <clipPath
       id="clipPath4721"
       clipPathUnits="userSpaceOnUse">
      <circle
         r="128"
         cy="924.36218"
         cx="128"
         id="circle4723"
         style="fill:#557ae6;fill-opacity:1;stroke:none;stroke-width:10;stroke-linejoin:round;stroke-miterlimit:4;stroke-dasharray:none;stroke-opacity:0.25882353" />
    </clipPath>
    <clipPath
       clipPathUnits="userSpaceOnUse"
       id="clipPath4491">
      <circle
         r="128"
         cy="924.36218"
         cx="128"
         id="circle4493"
         style="fill:#990000;fill-opacity:1;stroke:none;stroke-width:10;stroke-linejoin:round;stroke-miterlimit:4;stroke-dasharray:none;stroke-opacity:0.25882353" />
    </clipPath>
    <clipPath
       id="clipPath5042"
       clipPathUnits="userSpaceOnUse">
      <circle
         r="128"
         cy="924.36218"
         cx="128"
         id="circle5044"
         style="fill:#bebebe;fill-opacity:1;stroke:none;stroke-width:10;stroke-linejoin:round;stroke-miterlimit:4;stroke-dasharray:none;stroke-opacity:0.25882353" />
    </clipPath>
    <clipPath
       clipPathUnits="userSpaceOnUse"
       id="clipPath5042-3">
      <circle
         style="fill:#bebebe;fill-opacity:1;stroke:none;stroke-width:10;stroke-linejoin:round;stroke-miterlimit:4;stroke-dasharray:none;stroke-opacity:0.258824"
         id="circle5044-6"
         cx="128"
         cy="924.36218"
         r="128" />
    </clipPath>
  </defs>
  <metadata
     id="metadata7">
    <rdf:RDF>
      <cc:Work
         rdf:about="">
        <dc:format>image/svg+xml</dc:format>
        <dc:type
           rdf:resource="http://purl.org/dc/dcmitype/StillImage" />
        <dc:title />
      </cc:Work>
    </rdf:RDF>
  </metadata>
  <g
     transform="translate(0,-796.36216)"
     id="layer1"
     inkscape:groupmode="layer"
     inkscape:label="Layer 1">
    <path
       transform="scale(1,-1)"
       style="fill:#9d9d9d;fill-opacity:1;stroke:none;stroke-width:10;stroke-linejoin:round;stroke-miterlimit:4;stroke-dasharray:none;stroke-opacity:0.258824"
       id="path1468"
       sodipodi:type="arc"
       sodipodi:cx="128"
       sodipodi:cy="-924.36218"
       sodipodi:rx="128"
       sodipodi:ry="128"
       sodipodi:start="0"
       sodipodi:end="3.1415927"
       sodipodi:open="true"
       sodipodi:arc-type="arc"
       d="m 256,-924.36218 a 128,128 0 0 1 -64,110.85125 128,128 0 0 1 -128.000003,0 A 128,128 0 0 1 0,-924.36218" />
    <path
       d="m 256,924.36218 a 128,128 0 0 1 -64,110.85122 128,128 0 0 1 -128.000003,0 A 128,128 0 0 1 0,924.36218"
       sodipodi:arc-type="arc"
       sodipodi:open="true"
       sodipodi:end="3.1415927"
       sodipodi:start="0"
       sodipodi:ry="128"
       sodipodi:rx="128"
       sodipodi:cy="924.36218"
       sodipodi:cx="128"
       sodipodi:type="arc"
       id="path4152"
       style="fill:#dddddd;fill-opacity:1;stroke:none;stroke-width:10;stroke-linejoin:round;stroke-miterlimit:4;stroke-dasharray:none;stroke-opacity:0.258824" />
    <path
       sodipodi:nodetypes="cccccccccccccccsssssssccccccccccccccccccccccccc"
       inkscape:connector-curvature="0"
       id="polygon196"
       d="m 88.022527,987.36184 h 2.927927 l 2.984234,-0.056 2.984234,-0.056 2.927927,-0.1689 2.984231,-0.3942 2.92793,-0.9009 2.98423,-1.6329 2.98424,-3.0968 2.92793,-5.1802 2.98423,-8.277 2.98423,-12.0496 2.92793,-16.2162 2.98423,-20.1013 2.98424,-22.4663 c 0,0 1.86182,-15.02725 2.92793,-22.52247 0.91732,-6.44918 1.77382,-12.91242 2.98423,-19.31307 0.82917,-4.38468 1.17868,-8.95781 2.92793,-13.06306 0.70603,-1.65696 1.18353,-4.54324 2.98423,-4.5045 1.92763,0.0415 2.27237,3.1631 2.98424,4.95495 1.69494,4.26633 2.09296,8.9431 2.92792,13.45721 1.19829,6.4784 2.05519,13.01582 2.98424,19.53828 1.07055,7.51588 2.98423,22.57886 2.98423,22.57886 l 2.92793,22.4099 2.98423,19.9324 2.98424,16.0473 2.92792,11.8243 2.98424,8.1082 2.92792,5.0675 2.98424,2.9843 2.98423,1.6328 2.92793,0.7883 2.98423,0.3942 2.98424,0.1689 2.92792,0.056 2.98424,0.056 h 2.98423 2.92793 2.98423 2.92793 2.98423 2.98424 2.92792 2.98424 2.98423 2.92793 z"
       style="color:#000000;fill:#228b22;stroke:none;stroke-width:0.563063;stroke-linecap:butt;stroke-linejoin:miter;shape-rendering:crispEdges" />
    <path
       sodipodi:nodetypes="cccccccccccccccccccccccccccccccccccccccccccccccccccccccc"
       inkscape:connector-curvature="0"
       id="polygon213"
       d="m 76.141898,987.36184 h 2.984234 2.927927 2.984234 2.984234 2.927927 2.984234 2.984234 2.927927 2.984231 l 2.92793,-0.056 2.98423,-0.056 2.98424,-0.1126 2.92793,-0.2816 2.98423,-0.4504 2.98423,-0.7883 2.92793,-1.3513 2.98423,-2.0834 2.98424,-3.2657 2.92793,-4.7298 2.98423,-6.5878 2.92793,-8.6712 2.98423,-10.8108 2.98424,-12.7815 2.92792,-14.1329 2.98424,-14.6397 2.98423,-13.9639 2.92793,-11.937 2.98423,-8.55851 2.98424,-4.33559 2.92792,0.50676 2.98424,5.23648 2.92792,9.34686 2.98424,12.3874 2.98423,14.1892 2.92793,14.6396 2.98423,13.964 2.98424,12.3874 2.92792,10.4166 2.98424,8.2208 2.98423,6.1936 2.92793,4.3919 2.98423,3.0406 2.92793,1.9144 2.98423,1.1824 2.98424,0.732 2.92792,0.3941 2.98424,0.2253 2.98423,0.1126 2.92793,0.056 2.98423,0.056 h 2.98424 2.92793 2.98423 2.92793 c -11.82433,0 -160.022502,0 -160.022502,0 z"
       style="color:#000000;fill:#ffda12;fill-opacity:1;stroke:none;stroke-width:0.563063;stroke-linecap:butt;stroke-linejoin:miter;shape-rendering:crispEdges" />
    <path
       sodipodi:nodetypes="cccccccccccccccccccccccccccccccccccccccccccccccccccccccccccccccccccccccc"
       inkscape:connector-curvature="0"
       id="polygon230"
       d="m 19.8356,987.19294 2.984234,-0.1126 2.927927,-0.1126 2.984234,-0.1127 2.984234,-0.1689 2.927927,-0.2815 2.984234,-0.2815 2.927928,-0.3942 2.984233,-0.5067 2.984234,-0.6194 2.927928,-0.7883 2.984233,-0.9572 2.984234,-1.1261 2.927928,-1.3514 2.984234,-1.5766 2.984233,-1.8018 2.927928,-2.0833 2.984234,-2.3649 2.927927,-2.6464 2.984234,-2.9279 2.984234,-3.1531 2.927927,-3.3221 2.984234,-3.491 2.984234,-3.6599 2.927927,-3.6599 2.984234,-3.6599 2.984234,-3.5473 2.927927,-3.3221 2.984231,-3.0405 2.92793,-2.759 2.98423,-2.2523 2.98424,-1.8018 2.92793,-1.1824 2.98423,-0.6757 h 2.98423 l 2.92793,0.5631 2.98423,1.1824 2.98424,1.6892 2.92793,2.2522 2.98423,2.6464 2.92793,3.0406 2.98423,3.322 2.98424,3.5473 2.92792,3.6036 2.98424,3.7163 2.98423,3.6036 2.92793,3.5473 2.98423,3.3783 2.98424,3.1532 2.92792,2.9279 2.98424,2.6464 2.92792,2.4212 2.98424,2.0833 2.98423,1.8581 2.92793,1.6329 2.98423,1.3514 2.98424,1.1824 2.92792,0.9572 2.98424,0.7883 2.98423,0.6194 2.92793,0.5067 2.98423,0.3942 2.92793,0.3378 2.98423,0.2252 2.98424,0.2252 2.92792,0.1127 2.98424,0.1126 2.98423,0.056 2.92793,0.056 2.98423,0.056 2.98424,0.056 c -2.98424,-0.056 -204.504476,-0.2252 -207.48871,-0.1126 z"
       style="color:#000000;fill:#9400d3;stroke:none;stroke-width:0.563063;stroke-linecap:butt;stroke-linejoin:miter;shape-rendering:crispEdges" />
  </g>
</svg>
