<?xml version="1.0" encoding="UTF-8" standalone="no"?>
<!-- Created with Inkscape (http://www.inkscape.org/) -->

<svg
   xmlns:dc="http://purl.org/dc/elements/1.1/"
   xmlns:cc="http://creativecommons.org/ns#"
   xmlns:rdf="http://www.w3.org/1999/02/22-rdf-syntax-ns#"
   xmlns:svg="http://www.w3.org/2000/svg"
   xmlns="http://www.w3.org/2000/svg"
   xmlns:sodipodi="http://sodipodi.sourceforge.net/DTD/sodipodi-0.dtd"
   xmlns:inkscape="http://www.inkscape.org/namespaces/inkscape"
   width="256"
   height="256"
   viewBox="0 0 256 256"
   id="svg2"
   version="1.1"
   inkscape:version="0.92.3 (2405546, 2018-03-11)"
   sodipodi:docname="google-chrome-unstable.svg">
  <sodipodi:namedview
     id="base"
     pagecolor="#ffffff"
     bordercolor="#666666"
     borderopacity="1.0"
     inkscape:pageopacity="0.0"
     inkscape:pageshadow="2"
     inkscape:zoom="3.3125"
     inkscape:cx="128"
     inkscape:cy="128"
     inkscape:document-units="px"
     inkscape:current-layer="layer1"
     showgrid="false"
     units="px"
     inkscape:window-width="1920"
     inkscape:window-height="1048"
     inkscape:window-x="0"
     inkscape:window-y="0"
     inkscape:window-maximized="1" />
  <defs
     id="defs4">
    <clipPath
       clipPathUnits="userSpaceOnUse"
       id="clipPath5002">
      <g
         id="g5004">
        <path
           transform="translate(0,796.36216)"
           inkscape:connector-curvature="0"
           id="path5006"
           d="M 88.118406,249.43519 C 46.103287,235.29134 14.771284,201.68742 4.1335861,159.36053 1.3377997,148.23623 0.92261224,144.16281 0.92582381,127.88908 0.92787958,117.47222 1.134384,112.01362 1.6577819,108.54099 4.4653598,89.913336 12.17654,70.638106 23.042737,55.086148 c 3.958678,-5.665755 8.344812,-10.93092 9.101533,-10.925587 0.32809,0.0023 10.488643,18.309713 22.579009,40.683112 12.090365,22.373397 22.374546,41.334697 22.853732,42.136217 0.479186,0.80151 0.924733,2.44098 0.990103,3.64326 0.343424,6.31639 2.524175,14.20976 5.6424,20.42304 2.954444,5.88693 5.065381,8.73258 10.434696,14.06652 6.71418,6.66995 12.88853,10.28643 21.73204,12.72904 3.16587,0.87442 5.10478,1.05037 11.57517,1.05037 8.82596,0 12.60219,-0.76201 19.26429,-3.88733 2.04584,-0.95974 3.93661,-1.66536 4.20172,-1.56805 0.2651,0.0973 -11.0555,17.66459 -25.1569,39.0384 l -25.6389,38.86148 -3.094121,0.11221 c -2.554618,0.0927 -4.195204,-0.25845 -9.409103,-2.01364 z"
           style="fill:#0f9d58;fill-opacity:1;stroke:none;stroke-width:4.85768509;stroke-linejoin:round;stroke-miterlimit:4;stroke-dasharray:none;stroke-opacity:1" />
        <path
           inkscape:connector-curvature="0"
           id="path5008"
           d="m 112.35984,1051.5167 c -10.0014,-1.4495 -12.15632,-1.8201 -12.531784,-2.1556 -0.248854,-0.2223 1.738304,-3.7475 4.550294,-8.0722 7.16635,-11.0213 49.77231,-74.64801 50.25856,-75.05489 3.57509,-2.99158 8.63523,-8.0414 10.57512,-10.55356 3.36154,-4.35318 7.55784,-12.9141 9.06523,-18.494 6.19314,-22.92535 -2.59253,-47.15185 -21.69967,-59.83688 l -2.96081,-1.96565 17.02469,0.29584 c 9.36358,0.1627 31.17032,0.43384 48.45941,0.60252 l 31.43471,0.30668 1.54584,4.18869 c 2.24597,6.08579 4.67816,15.0947 5.93451,21.9816 1.52517,8.36049 1.92536,28.85896 0.73851,37.82758 -3.0805,23.27845 -12.81326,45.72018 -27.80202,64.10577 -20.47622,25.1166 -51.4599,42.1974 -84.14612,46.3885 -5.31244,0.6812 -26.64601,0.9864 -30.44647,0.4356 z"
           style="fill:#f4b400;fill-opacity:1;stroke:none;stroke-width:4.85768509;stroke-linejoin:round;stroke-miterlimit:4;stroke-dasharray:none;stroke-opacity:1" />
        <path
           transform="translate(0,796.36216)"
           inkscape:connector-curvature="0"
           id="path5010"
           d="M 67.989788,108.87302 C 41.284246,59.575543 33.290284,45.149038 32.233625,44.344765 31.651257,43.901497 32.811213,42.549931 38.695603,36.815353 53.43581,22.450419 68.809334,13.040746 87.839196,6.7360352 101.68742,2.1480329 112.58238,0.43719165 127.95142,0.43719165 c 21.3099,0 37.80488,3.80960275 56.83492,13.12633035 25.29351,12.383198 46.19421,33.578863 58.51993,59.345832 1.61138,3.368591 2.92978,6.372442 2.92978,6.675231 0,0.560033 -10.54865,0.49527 -71.16508,-0.436914 l -24.28843,-0.373518 -3.93063,-1.764495 c -6.75732,-3.033425 -10.64587,-3.839529 -18.6576,-3.867747 -5.0296,-0.01773 -7.97946,0.207636 -10.31642,0.788106 -14.50826,3.603659 -26.283291,12.94777 -33.291614,26.418653 -3.58502,6.89086 -5.24713,13.08166 -6.331628,23.58317 l -0.33738,3.26696 -9.92748,-18.32578 z"
           style="fill:#db4437;fill-opacity:1;stroke:none;stroke-width:10;stroke-linejoin:round;stroke-miterlimit:4;stroke-dasharray:none;stroke-opacity:1" />
      </g>
    </clipPath>
    <clipPath
       clipPathUnits="userSpaceOnUse"
       id="clipPath4199">
      <g
         id="g4201">
        <path
           inkscape:connector-curvature="0"
           id="path4203"
           d="m 112.17369,1051.5786 c -10.0014,-1.4495 -12.15632,-1.8201 -12.531789,-2.1556 -0.248854,-0.2223 1.738309,-3.7475 4.550299,-8.0722 7.16635,-11.0213 49.77231,-74.648 50.25856,-75.05488 3.57509,-2.99158 8.63523,-8.0414 10.57512,-10.55356 3.36154,-4.35318 7.55784,-12.9141 9.06523,-18.494 6.19314,-22.92535 -2.59253,-47.15185 -21.69967,-59.83688 l -2.96081,-1.96565 17.02469,0.29584 c 9.36358,0.1627 31.17032,0.43384 48.45941,0.60252 l 31.43471,0.30668 1.54584,4.18869 c 2.24597,6.08579 4.67816,15.0947 5.93451,21.9816 1.52517,8.36049 1.92536,28.85896 0.73851,37.82758 -3.0805,23.27845 -12.81326,45.72018 -27.80202,64.10576 -20.47622,25.1166 -51.4599,42.1974 -84.14612,46.3885 -5.31244,0.6812 -26.64601,0.9864 -30.44647,0.4356 z"
           style="fill:#f4b400;fill-opacity:1;stroke:none;stroke-width:4.85768509;stroke-linejoin:round;stroke-miterlimit:4;stroke-dasharray:none;stroke-opacity:1" />
        <ellipse
           style="opacity:1;fill:#4285f4;fill-opacity:1;stroke:#ffffff;stroke-width:10.39890003;stroke-linecap:round;stroke-linejoin:round;stroke-miterlimit:4;stroke-dasharray:none;stroke-opacity:1"
           id="ellipse4205"
           cx="128"
           cy="922.36218"
           rx="47.850548"
           ry="47.850552" />
      </g>
    </clipPath>
    <clipPath
       clipPathUnits="userSpaceOnUse"
       id="clipPath4171">
      <g
         id="g4173">
        <path
           inkscape:connector-curvature="0"
           id="path4175"
           d="m 112.17369,1051.5786 c -10.0014,-1.4495 -12.15632,-1.8201 -12.531789,-2.1556 -0.248854,-0.2223 1.738309,-3.7475 4.550299,-8.0722 7.16635,-11.0213 49.77231,-74.648 50.25856,-75.05488 3.57509,-2.99158 8.63523,-8.0414 10.57512,-10.55356 3.36154,-4.35318 7.55784,-12.9141 9.06523,-18.494 6.19314,-22.92535 -2.59253,-47.15185 -21.69967,-59.83688 l -2.96081,-1.96565 17.02469,0.29584 c 9.36358,0.1627 31.17032,0.43384 48.45941,0.60252 l 31.43471,0.30668 1.54584,4.18869 c 2.24597,6.08579 4.67816,15.0947 5.93451,21.9816 1.52517,8.36049 1.92536,28.85896 0.73851,37.82758 -3.0805,23.27845 -12.81326,45.72018 -27.80202,64.10576 -20.47622,25.1166 -51.4599,42.1974 -84.14612,46.3885 -5.31244,0.6812 -26.64601,0.9864 -30.44647,0.4356 z"
           style="fill:#f4b400;fill-opacity:1;stroke:none;stroke-width:4.85768509;stroke-linejoin:round;stroke-miterlimit:4;stroke-dasharray:none;stroke-opacity:1" />
        <ellipse
           style="opacity:1;fill:#4285f4;fill-opacity:1;stroke:#ffffff;stroke-width:10.39890003;stroke-linecap:round;stroke-linejoin:round;stroke-miterlimit:4;stroke-dasharray:none;stroke-opacity:1"
           id="ellipse4177"
           cx="128"
           cy="922.36218"
           rx="47.850548"
           ry="47.850552" />
      </g>
    </clipPath>
    <clipPath
       clipPathUnits="userSpaceOnUse"
       id="clipPath4177">
      <g
         id="g4179">
        <path
           inkscape:connector-curvature="0"
           id="path4181"
           d="m 112.17369,1051.5786 c -10.0014,-1.4495 -12.15632,-1.8201 -12.531789,-2.1556 -0.248854,-0.2223 1.738309,-3.7475 4.550299,-8.0722 7.16635,-11.0213 49.77231,-74.648 50.25856,-75.05488 3.57509,-2.99158 8.63523,-8.0414 10.57512,-10.55356 3.36154,-4.35318 7.55784,-12.9141 9.06523,-18.494 6.19314,-22.92535 -2.59253,-47.15185 -21.69967,-59.83688 l -2.96081,-1.96565 17.02469,0.29584 c 9.36358,0.1627 31.17032,0.43384 48.45941,0.60252 l 31.43471,0.30668 1.54584,4.18869 c 2.24597,6.08579 4.67816,15.0947 5.93451,21.9816 1.52517,8.36049 1.92536,28.85896 0.73851,37.82758 -3.0805,23.27845 -12.81326,45.72018 -27.80202,64.10576 -20.47622,25.1166 -51.4599,42.1974 -84.14612,46.3885 -5.31244,0.6812 -26.64601,0.9864 -30.44647,0.4356 z"
           style="fill:#f4b400;fill-opacity:1;stroke:none;stroke-width:4.85768509;stroke-linejoin:round;stroke-miterlimit:4;stroke-dasharray:none;stroke-opacity:1" />
        <ellipse
           style="opacity:1;fill:#4285f4;fill-opacity:1;stroke:#ffffff;stroke-width:10.39890003;stroke-linecap:round;stroke-linejoin:round;stroke-miterlimit:4;stroke-dasharray:none;stroke-opacity:1"
           id="ellipse4183"
           cx="128"
           cy="922.36218"
           rx="47.850548"
           ry="47.850552" />
      </g>
    </clipPath>
  </defs>
  <metadata
     id="metadata7">
    <rdf:RDF>
      <cc:Work
         rdf:about="">
        <dc:format>image/svg+xml</dc:format>
        <dc:type
           rdf:resource="http://purl.org/dc/dcmitype/StillImage" />
        <dc:title />
      </cc:Work>
    </rdf:RDF>
  </metadata>
  <g
     transform="translate(0,-796.36216)"
     id="layer1"
     inkscape:groupmode="layer"
     inkscape:label="Layer 1">
    <path
       inkscape:connector-curvature="0"
       id="path4913"
       d="M 154.47438,968.80998 101.03985,1048.476 0.4857685,1048.9618 0,842.0244 l 33.032258,-2.42884 45.176471,83.55218 21.373814,35.4611 26.717267,13.11575 z"
       style="fill:none;fill-rule:evenodd;stroke:none;stroke-width:1px;stroke-linecap:butt;stroke-linejoin:miter;stroke-opacity:1" />
    <g
       id="g4960"
       style="fill:#292929;fill-opacity:0.26020408;stroke:none;stroke-opacity:0.25882354"
       clip-path="url(#clipPath5002)"
       transform="translate(-0.18615499,0.06190512)">
      <g
         id="g4962"
         style="opacity:0.95999995;fill:#292929;fill-opacity:0.26020408;stroke:none;stroke-width:9.6054287;stroke-linecap:round;stroke-linejoin:miter;stroke-miterlimit:4;stroke-dasharray:none;stroke-opacity:0.25882354">
        <path
           inkscape:connector-curvature="0"
           id="path4964"
           d="m 127.93021,970.67059 c -24.65797,0 -44.647215,-21.59057 -44.647259,-48.22393 L -270.27044,1276.0001 c 4e-5,26.6333 19.98929,48.2239 44.64726,48.2239 z"
           style="fill:#292929;fill-opacity:0.26020408;stroke:none;stroke-opacity:0.25882354" />
        <path
           inkscape:connector-curvature="0"
           id="path4966"
           d="m 83.282951,922.44666 c -4e-6,-13.98849 5.514231,-26.58588 14.322939,-35.39459 L -255.9475,1240.6055 c -8.80871,8.8087 -14.32294,21.4061 -14.32294,35.3946 z"
           style="fill:#292929;fill-opacity:0.26020408;stroke:none;stroke-opacity:0.25882354" />
        <path
           inkscape:connector-curvature="0"
           id="path4968"
           d="m 97.60589,887.05207 c 7.96264,-7.96264 18.61728,-12.82944 30.32432,-12.82944 L -225.62318,1227.776 c -11.70704,0 -22.36168,4.8668 -30.32432,12.8295 z"
           style="fill:#292929;fill-opacity:0.26020408;stroke:none;stroke-opacity:0.25882354" />
        <path
           inkscape:connector-curvature="0"
           id="path4970"
           d="m 127.93021,874.22263 c 49.80738,5.96029 50.94843,60.17251 26.507,84.61394 L -199.11618,1312.39 c 24.44143,-24.4415 23.30038,-78.6537 -26.507,-84.614 z"
           style="fill:#292929;fill-opacity:0.26020408;stroke:none;stroke-opacity:0.25882354" />
        <path
           inkscape:connector-curvature="0"
           id="path4972"
           d="m 154.43721,958.83657 c -6.94609,6.94609 -15.95837,11.48772 -26.507,11.83402 L -225.62318,1324.224 c 10.54862,-0.3463 19.56091,-4.888 26.507,-11.834 z"
           style="fill:#292929;fill-opacity:0.26020408;stroke:none;stroke-opacity:0.25882354" />
      </g>
      <path
         sodipodi:nodetypes="cscc"
         inkscape:connector-curvature="0"
         style="opacity:0.95999995;fill:#292929;fill-opacity:0.26020408;stroke:none;stroke-width:9.6054287;stroke-linecap:round;stroke-linejoin:miter;stroke-miterlimit:4;stroke-dasharray:none;stroke-opacity:0.25882354"
         d="m 127.93021,970.67059 c -24.65797,0 -44.647215,-21.59057 -44.647259,-48.22393 -7e-6,-26.63339 19.989259,-48.22403 44.647259,-48.22403 63.9623,7.65416 47.66641,94.88311 0,96.44796 z"
         id="path4360-8" />
    </g>
    <path
       inkscape:connector-curvature="0"
       id="path4915"
       d="M 87.699371,1046.3349 C 45.440056,1032.1356 13.925948,998.40018 3.2264227,955.9076 0.41438686,944.73976 -0.0032137,940.65039 1.6539149e-5,924.31296 0.00208426,913.85532 0.2097889,908.37535 0.73622883,904.88913 3.5601247,886.18856 11.316123,866.83788 22.245475,851.22504 c 3.981687,-5.68794 8.393313,-10.97371 9.154432,-10.96836 0.329997,0.002 10.549604,18.38139 22.710241,40.84237 12.160635,22.46098 22.504589,41.4965 22.98656,42.30116 0.481971,0.80465 0.930108,2.45054 0.995858,3.65752 0.34542,6.34112 2.538845,14.26539 5.675194,20.50299 2.971615,5.90997 5.094821,8.76676 10.495343,14.12158 6.753207,6.69606 12.963447,10.3267 21.858357,12.77887 3.18427,0.87784 5.13445,1.05448 11.64244,1.05448 8.87726,0 12.67544,-0.76499 19.37626,-3.90255 2.05773,-0.96349 3.95949,-1.67188 4.22614,-1.57418 0.26664,0.0977 -11.11976,17.73373 -25.30311,39.19118 l -26.392522,40.393 -1.471047,-0.6633 c -2.569466,0.093 -5.256048,-0.8628 -10.50025,-2.6249 z"
       style="fill:#0f9d58;fill-opacity:1;stroke:none;stroke-width:4.88130713;stroke-linejoin:round;stroke-miterlimit:4;stroke-dasharray:none;stroke-opacity:1"
       sodipodi:nodetypes="ssssscsssssssscsccs" />
    <path
       inkscape:connector-curvature="0"
       id="path4936"
       d="M 67.453763,905.22246 C 40.593006,855.73201 32.552582,841.24903 31.489782,840.44161 c -0.585753,-0.445 0.580945,-1.80186 6.499535,-7.55889 14.825879,-14.42116 30.288755,-23.86766 49.429221,-30.19705 13.928712,-4.60597 24.887002,-6.32351 40.345362,-6.32351 21.43376,0 38.02461,3.82451 57.16525,13.17771 25.44052,12.43168 46.4627,33.71032 58.86006,59.57814 1.62074,3.38179 2.94681,6.3974 2.94681,6.70137 0,0.56222 -10.60996,0.4972 -71.5787,-0.43863 l -24.4296,-0.37498 -3.95348,-1.7714 c -6.79659,-3.0453 -10.70774,-3.85456 -18.76604,-3.88289 -5.05883,-0.0178 -8.02583,0.20845 -10.37638,0.7912 -14.59258,3.61776 -26.436052,12.99845 -33.485108,26.52206 -3.605857,6.91784 -5.277627,13.13287 -6.368428,23.67549 l -0.339341,3.27975 z"
       style="fill:#db4437;fill-opacity:1;stroke:none;stroke-width:10.04862881;stroke-linejoin:round;stroke-miterlimit:4;stroke-dasharray:none;stroke-opacity:1" />
    <path
       inkscape:connector-curvature="0"
       id="path4919"
       d="m 112.0817,1052.0766 c -10.05953,-1.4552 -12.22697,-1.8272 -12.604622,-2.164 -0.2503,-0.2232 1.748412,-3.7622 4.576742,-8.1038 7.20801,-11.0645 50.0616,-74.94026 50.55067,-75.34873 3.59587,-3.00329 8.68542,-8.07288 10.63659,-10.59487 3.38107,-4.37022 7.60176,-12.96465 9.11791,-18.5664 6.22914,-23.01509 -2.60759,-47.33642 -21.82579,-60.07111 l -2.97802,-1.97334 17.12364,0.297 c 9.41801,0.16333 31.35149,0.43553 48.74106,0.60487 l 31.61742,0.30789 1.55482,4.20508 c 2.25902,6.10961 4.70535,15.15379 5.969,22.06765 1.53404,8.39322 1.93655,28.97193 0.74281,37.97565 -3.09841,23.36958 -12.88774,45.89916 -27.96361,64.35671 -20.59523,25.2149 -51.75899,42.3626 -84.63519,46.5701 -5.34332,0.6839 -26.80088,0.9902 -30.62343,0.4373 z"
       style="fill:#f4b400;fill-opacity:1;stroke:none;stroke-width:4.88130713;stroke-linejoin:round;stroke-miterlimit:4;stroke-dasharray:none;stroke-opacity:1" />
    <path
       style="opacity:1;fill:#000000;fill-opacity:0.3515625;stroke:none;stroke-width:39.09250259;stroke-linecap:round;stroke-miterlimit:4;stroke-dasharray:none;stroke-opacity:1"
       id="path835"
       sodipodi:type="arc"
       sodipodi:cx="128"
       sodipodi:cy="-924.36218"
       sodipodi:rx="128"
       sodipodi:ry="127.99999"
       sodipodi:start="0"
       sodipodi:end="3.1415927"
       d="m 256,-924.36218 a 128,127.99999 0 0 1 -64,110.85124 128,127.99999 0 0 1 -128.000003,0 A 128,127.99999 0 0 1 0,-924.36219 l 128,1e-5 z"
       transform="scale(1,-1)" />
    <ellipse
       style="opacity:1;fill:#4285f4;fill-opacity:1;stroke:#ffffff;stroke-width:10.44946861;stroke-linecap:round;stroke-linejoin:round;stroke-miterlimit:4;stroke-dasharray:none;stroke-opacity:1"
       id="path4152"
       cx="128"
       cy="922.35437"
       rx="48.128658"
       ry="48.037861" />
    <g
       id="g4185"
       transform="translate(0.73964546)">
      <rect
         y="917.2262"
         x="95.442513"
         height="72.548203"
         width="135.76485"
         id="rect4161"
         style="fill:#000000;fill-opacity:1;stroke:none;stroke-opacity:1" />
      <rect
         clip-path="url(#clipPath4177)"
         style="fill:#000000;fill-opacity:1;stroke:none;stroke-opacity:1"
         id="rect4169"
         width="50.134186"
         height="72.548203"
         x="205.86581"
         y="917.2262" />
    </g>
    <g
       aria-label="DEV"
       style="font-style:normal;font-variant:normal;font-weight:bold;font-stretch:normal;font-size:64px;line-height:1.25;font-family:serif;-inkscape-font-specification:'serif Bold';letter-spacing:0px;word-spacing:0px;fill:#ffffff;fill-opacity:1;stroke:none"
       id="text852">
      <path
         style=""
         d="M 99.445312 133.81055 L 99.445312 137.5918 L 105.41406 137.5918 L 105.41406 176.68555 L 99.445312 176.68555 L 99.445312 180.4668 L 123.38281 180.4668 C 131.73698 180.4668 138.13281 178.4668 142.57031 174.4668 C 147.02865 170.44596 149.25781 164.6543 149.25781 157.0918 C 149.25781 149.57096 147.03906 143.81055 142.60156 139.81055 C 138.16406 135.81055 131.75781 133.81055 123.38281 133.81055 L 99.445312 133.81055 z M 154.94531 133.81055 L 154.94531 137.5918 L 160.91406 137.5918 L 160.91406 176.68555 L 154.94531 176.68555 L 154.94531 180.4668 L 197.44531 180.4668 L 197.44531 169.4668 L 193.16406 169.4668 L 193.16406 176.18555 L 172.94531 176.18555 L 172.94531 157.31055 L 185.16406 157.31055 L 185.16406 163.24805 L 189.44531 163.24805 L 189.44531 147.12305 L 185.16406 147.12305 L 185.16406 153.06055 L 172.94531 153.06055 L 172.94531 138.0918 L 192.57031 138.0918 L 192.57031 144.81055 L 196.88281 144.81055 L 196.88281 133.81055 L 154.94531 133.81055 z M 200.32031 133.81055 L 200.32031 137.5918 L 204.72656 137.5918 L 222.32031 180.4668 L 229.75781 180.4668 L 247.35156 137.5918 L 251.25781 137.5918 L 251.25781 133.81055 L 237.38281 133.81055 L 237.38281 137.5918 L 242.94531 137.5918 L 230.25781 168.49805 L 217.66406 137.5918 L 222.19531 137.5918 L 222.19531 133.81055 L 200.32031 133.81055 z M 117.44531 137.5918 L 121.78906 137.5918 C 126.6849 137.5918 130.25781 139.1543 132.50781 142.2793 C 134.75781 145.38346 135.88281 150.32096 135.88281 157.0918 C 135.88281 163.9043 134.7474 168.87305 132.47656 171.99805 C 130.22656 175.12305 126.66406 176.68555 121.78906 176.68555 L 117.44531 176.68555 L 117.44531 137.5918 z "
         transform="translate(0,796.36216)"
         id="path854" />
    </g>
  </g>
</svg>
