<?xml version="1.0" encoding="UTF-8" standalone="no"?>
<svg
   xmlns:dc="http://purl.org/dc/elements/1.1/"
   xmlns:cc="http://creativecommons.org/ns#"
   xmlns:rdf="http://www.w3.org/1999/02/22-rdf-syntax-ns#"
   xmlns:svg="http://www.w3.org/2000/svg"
   xmlns="http://www.w3.org/2000/svg"
   xmlns:xlink="http://www.w3.org/1999/xlink"
   xmlns:sodipodi="http://sodipodi.sourceforge.net/DTD/sodipodi-0.dtd"
   xmlns:inkscape="http://www.inkscape.org/namespaces/inkscape"
   width="256"
   height="256"
   viewBox="0 0 256 256"
   id="svg2"
   version="1.1"
   inkscape:version="1.0 (4035a4fb49, 2020-05-01)"
   sodipodi:docname="gourmet.svg">
  <sodipodi:namedview
     inkscape:document-rotation="0"
     id="base"
     pagecolor="#ffffff"
     bordercolor="#666666"
     borderopacity="1.0"
     inkscape:pageopacity="0.0"
     inkscape:pageshadow="2"
     inkscape:zoom="3.3359375"
     inkscape:cx="76.740047"
     inkscape:cy="128"
     inkscape:document-units="px"
     inkscape:current-layer="layer1"
     showgrid="true"
     units="px"
     inkscape:window-width="1920"
     inkscape:window-height="1048"
     inkscape:window-x="0"
     inkscape:window-y="0"
     inkscape:window-maximized="1">
    <inkscape:grid
       spacingy="5"
       spacingx="5"
       id="grid4168"
       type="xygrid" />
  </sodipodi:namedview>
  <defs
     id="defs4">
    <clipPath
       id="clipPath5002"
       clipPathUnits="userSpaceOnUse">
      <g
         id="g5004">
        <path
           style="fill:#0f9d58;fill-opacity:1;stroke:none;stroke-width:4.85768509;stroke-linejoin:round;stroke-miterlimit:4;stroke-dasharray:none;stroke-opacity:1"
           d="M 88.118406,249.43519 C 46.103287,235.29134 14.771284,201.68742 4.1335861,159.36053 1.3377997,148.23623 0.92261224,144.16281 0.92582381,127.88908 0.92787958,117.47222 1.134384,112.01362 1.6577819,108.54099 4.4653598,89.913336 12.17654,70.638106 23.042737,55.086148 c 3.958678,-5.665755 8.344812,-10.93092 9.101533,-10.925587 0.32809,0.0023 10.488643,18.309713 22.579009,40.683112 12.090365,22.373397 22.374546,41.334697 22.853732,42.136217 0.479186,0.80151 0.924733,2.44098 0.990103,3.64326 0.343424,6.31639 2.524175,14.20976 5.6424,20.42304 2.954444,5.88693 5.065381,8.73258 10.434696,14.06652 6.71418,6.66995 12.88853,10.28643 21.73204,12.72904 3.16587,0.87442 5.10478,1.05037 11.57517,1.05037 8.82596,0 12.60219,-0.76201 19.26429,-3.88733 2.04584,-0.95974 3.93661,-1.66536 4.20172,-1.56805 0.2651,0.0973 -11.0555,17.66459 -25.1569,39.0384 l -25.6389,38.86148 -3.094121,0.11221 c -2.554618,0.0927 -4.195204,-0.25845 -9.409103,-2.01364 z"
           id="path5006"
           inkscape:connector-curvature="0"
           transform="translate(0,796.36216)" />
        <path
           style="fill:#f4b400;fill-opacity:1;stroke:none;stroke-width:4.85768509;stroke-linejoin:round;stroke-miterlimit:4;stroke-dasharray:none;stroke-opacity:1"
           d="m 112.35984,1051.5167 c -10.0014,-1.4495 -12.15632,-1.8201 -12.531784,-2.1556 -0.248854,-0.2223 1.738304,-3.7475 4.550294,-8.0722 7.16635,-11.0213 49.77231,-74.64801 50.25856,-75.05489 3.57509,-2.99158 8.63523,-8.0414 10.57512,-10.55356 3.36154,-4.35318 7.55784,-12.9141 9.06523,-18.494 6.19314,-22.92535 -2.59253,-47.15185 -21.69967,-59.83688 l -2.96081,-1.96565 17.02469,0.29584 c 9.36358,0.1627 31.17032,0.43384 48.45941,0.60252 l 31.43471,0.30668 1.54584,4.18869 c 2.24597,6.08579 4.67816,15.0947 5.93451,21.9816 1.52517,8.36049 1.92536,28.85896 0.73851,37.82758 -3.0805,23.27845 -12.81326,45.72018 -27.80202,64.10577 -20.47622,25.1166 -51.4599,42.1974 -84.14612,46.3885 -5.31244,0.6812 -26.64601,0.9864 -30.44647,0.4356 z"
           id="path5008"
           inkscape:connector-curvature="0" />
        <path
           style="fill:#db4437;fill-opacity:1;stroke:none;stroke-width:10;stroke-linejoin:round;stroke-miterlimit:4;stroke-dasharray:none;stroke-opacity:1"
           d="M 67.989788,108.87302 C 41.284246,59.575543 33.290284,45.149038 32.233625,44.344765 31.651257,43.901497 32.811213,42.549931 38.695603,36.815353 53.43581,22.450419 68.809334,13.040746 87.839196,6.7360352 101.68742,2.1480329 112.58238,0.43719165 127.95142,0.43719165 c 21.3099,0 37.80488,3.80960275 56.83492,13.12633035 25.29351,12.383198 46.19421,33.578863 58.51993,59.345832 1.61138,3.368591 2.92978,6.372442 2.92978,6.675231 0,0.560033 -10.54865,0.49527 -71.16508,-0.436914 l -24.28843,-0.373518 -3.93063,-1.764495 c -6.75732,-3.033425 -10.64587,-3.839529 -18.6576,-3.867747 -5.0296,-0.01773 -7.97946,0.207636 -10.31642,0.788106 -14.50826,3.603659 -26.283291,12.94777 -33.291614,26.418653 -3.58502,6.89086 -5.24713,13.08166 -6.331628,23.58317 l -0.33738,3.26696 -9.92748,-18.32578 z"
           id="path5010"
           inkscape:connector-curvature="0"
           transform="translate(0,796.36216)" />
      </g>
    </clipPath>
    <clipPath
       clipPathUnits="userSpaceOnUse"
       id="clipPath4271">
      <circle
         style="fill:#292929;fill-opacity:0.26020412;stroke:none;stroke-width:10;stroke-linejoin:round;stroke-miterlimit:4;stroke-dasharray:none;stroke-opacity:0.25882353"
         id="circle4273"
         cx="128"
         cy="128.00002"
         r="128" />
    </clipPath>
    <clipPath
       id="clipPath4363"
       clipPathUnits="userSpaceOnUse">
      <circle
         style="fill:#4285f4;fill-opacity:1;stroke:none;stroke-width:10;stroke-linejoin:round;stroke-miterlimit:4;stroke-dasharray:none;stroke-opacity:0.25882353"
         id="circle4365"
         cx="128"
         cy="924.36218"
         r="128" />
    </clipPath>
    <clipPath
       clipPathUnits="userSpaceOnUse"
       id="clipPath4452">
      <circle
         style="fill:#4285f4;fill-opacity:1;stroke:none;stroke-width:10;stroke-linejoin:round;stroke-miterlimit:4;stroke-dasharray:none;stroke-opacity:0.25882353"
         id="circle4454"
         cx="128"
         cy="924.36218"
         r="128" />
    </clipPath>
    <clipPath
       id="clipPath5177"
       clipPathUnits="userSpaceOnUse">
      <circle
         style="fill:#4285f4;fill-opacity:1;stroke:none;stroke-width:10;stroke-linejoin:round;stroke-miterlimit:4;stroke-dasharray:none;stroke-opacity:0.25882353"
         id="circle5179"
         cx="128"
         cy="924.36218"
         r="128" />
    </clipPath>
    <clipPath
       clipPathUnits="userSpaceOnUse"
       id="clipPath4342">
      <circle
         style="fill:#4285f4;fill-opacity:1;stroke:none;stroke-width:10;stroke-linejoin:round;stroke-miterlimit:4;stroke-dasharray:none;stroke-opacity:0.25882353"
         id="circle4344"
         cx="128"
         cy="933.48718"
         r="128" />
    </clipPath>
    <clipPath
       id="clipPath4681"
       clipPathUnits="userSpaceOnUse">
      <circle
         style="fill:#9d5fad;fill-opacity:1;stroke:none;stroke-width:10;stroke-linejoin:round;stroke-miterlimit:4;stroke-dasharray:none;stroke-opacity:0.25882353"
         id="circle4683"
         cx="127.00293"
         cy="930.43964"
         r="128" />
    </clipPath>
    <clipPath
       clipPathUnits="userSpaceOnUse"
       id="clipPath4235">
      <circle
         style="fill:#0f9d58;fill-opacity:1;stroke:none;stroke-width:10;stroke-linejoin:round;stroke-miterlimit:4;stroke-dasharray:none;stroke-opacity:0.25882353"
         id="circle4237"
         cx="128"
         cy="924.36218"
         r="128" />
    </clipPath>
    <clipPath
       id="clipPath4771"
       clipPathUnits="userSpaceOnUse">
      <circle
         style="fill:#0f9d58;fill-opacity:1;stroke:none;stroke-width:10;stroke-linejoin:round;stroke-miterlimit:4;stroke-dasharray:none;stroke-opacity:0.25882353"
         id="circle4773"
         cx="128"
         cy="924.36218"
         r="128" />
    </clipPath>
    <clipPath
       clipPathUnits="userSpaceOnUse"
       id="clipPath4842">
      <circle
         style="fill:#0f9d58;fill-opacity:1;stroke:none;stroke-width:10;stroke-linejoin:round;stroke-miterlimit:4;stroke-dasharray:none;stroke-opacity:0.25882353"
         id="circle4844"
         cx="128"
         cy="924.36218"
         r="128" />
    </clipPath>
    <clipPath
       id="clipPath4458"
       clipPathUnits="userSpaceOnUse">
      <circle
         style="fill:#ff3b38;fill-opacity:1;stroke:none;stroke-width:10;stroke-linejoin:round;stroke-miterlimit:4;stroke-dasharray:none;stroke-opacity:0.25882353"
         id="circle4460"
         cx="128"
         cy="924.36218"
         r="128" />
    </clipPath>
    <clipPath
       clipPathUnits="userSpaceOnUse"
       id="clipPath4783">
      <circle
         style="fill:#ff3b38;fill-opacity:1;stroke:none;stroke-width:10;stroke-linejoin:round;stroke-miterlimit:4;stroke-dasharray:none;stroke-opacity:0.25882353"
         id="circle4785"
         cx="128"
         cy="924.36218"
         r="128" />
    </clipPath>
    <clipPath
       id="clipPath4789"
       clipPathUnits="userSpaceOnUse">
      <circle
         style="fill:#80b4ff;fill-opacity:1;stroke:none;stroke-width:10;stroke-linejoin:round;stroke-miterlimit:4;stroke-dasharray:none;stroke-opacity:0.25882353"
         id="circle4791"
         cx="102.64714"
         cy="924.36218"
         r="128" />
    </clipPath>
    <clipPath
       clipPathUnits="userSpaceOnUse"
       id="clipPath4721">
      <circle
         style="fill:#557ae6;fill-opacity:1;stroke:none;stroke-width:10;stroke-linejoin:round;stroke-miterlimit:4;stroke-dasharray:none;stroke-opacity:0.25882353"
         id="circle4723"
         cx="128"
         cy="924.36218"
         r="128" />
    </clipPath>
    <clipPath
       id="clipPath4491"
       clipPathUnits="userSpaceOnUse">
      <circle
         style="fill:#990000;fill-opacity:1;stroke:none;stroke-width:10;stroke-linejoin:round;stroke-miterlimit:4;stroke-dasharray:none;stroke-opacity:0.25882353"
         id="circle4493"
         cx="128"
         cy="924.36218"
         r="128" />
    </clipPath>
    <clipPath
       clipPathUnits="userSpaceOnUse"
       id="clipPath1102">
      <circle
         style="fill:#b40000;fill-opacity:1;stroke:none;stroke-width:10;stroke-linejoin:round;stroke-miterlimit:4;stroke-dasharray:none;stroke-opacity:0.25882353"
         id="circle1104"
         cx="128"
         cy="924.36218"
         r="128" />
    </clipPath>
    <linearGradient
       id="linearGradient3789">
      <stop
         style="stop-color:#fdf6de;stop-opacity:1;"
         offset="0"
         id="stop3791" />
      <stop
         style="stop-color:#f5df89;stop-opacity:1;"
         offset="1"
         id="stop3793" />
    </linearGradient>
    <linearGradient
       gradientTransform="matrix(3.5968479,0,0,3.5968479,31.461282,851.76314)"
       inkscape:collect="always"
       xlink:href="#linearGradient3739"
       id="linearGradient3749"
       x1="15.561009"
       y1="-0.87764835"
       x2="28.399858"
       y2="29.801054"
       gradientUnits="userSpaceOnUse" />
    <linearGradient
       id="linearGradient3739">
      <stop
         style="stop-color:#eaa330;stop-opacity:1;"
         offset="0"
         id="stop3741" />
      <stop
         style="stop-color:#8c5c0e;stop-opacity:1;"
         offset="1"
         id="stop3743" />
    </linearGradient>
    <linearGradient
       id="linearGradient4281">
      <stop
         style="stop-color:#f6d8a7;stop-opacity:1;"
         offset="0"
         id="stop4283" />
      <stop
         id="stop4295"
         offset="0.5"
         style="stop-color:#edaf4b;stop-opacity:1;" />
      <stop
         style="stop-color:#8c5c0e;stop-opacity:1;"
         offset="1"
         id="stop4285" />
    </linearGradient>
    <linearGradient
       id="linearGradient4104-9-83-1-7">
      <stop
         style="stop-color:#dc7c0d;stop-opacity:1;"
         offset="0"
         id="stop4106-6-1-1-0" />
      <stop
         style="stop-color:#dc7c0d;stop-opacity:0;"
         offset="1"
         id="stop4108-7-22-9-1" />
    </linearGradient>
    <clipPath
       clipPathUnits="userSpaceOnUse"
       id="clipPath5028">
      <path
         inkscape:connector-curvature="0"
         style="display:inline;fill:#efc936;fill-opacity:1;fill-rule:evenodd;stroke:none"
         d="m 2.9964182,-18.402494 c 0.467888,2.366635 -0.9229368,4.665843 -0.3841522,7.020973 1.1990138,2.1723809 2.1533847,4.7948105 1.7317509,7.452559 -0.2317904,2.2692405 -1.1915157,4.29659982 -1.8034808,6.4200159 -0.00112,2.1501729 1.282099,3.9974593 1.1331977,6.174389 0.1236907,3.2375671 -1.3636868,6.4788811 -3.71272391,8.0733161 -1.05367999,1.501856 -0.42611256,3.748621 -1.43482399,5.284727 -1.5387612,3.22071 -4.7620944,4.88177 -7.7788767,4.66504 -0.9777942,0.184621 -1.1829862,1.534232 -1.5025322,2.452792 -1.315436,3.55517 -4.814939,5.416102 -7.937259,4.844578 -1.101338,-0.165892 -2.135875,-0.704773 -3.113896,-1.292351 -0.865074,-0.02676 -1.185435,1.14171 -1.637342,1.822135 -2.521195,4.152113 -8.098392,4.888726 -11.27614,1.420516 -0.728662,-0.646443 -1.007761,-1.965016 -1.945169,-2.25613 -0.836346,-0.05351 -1.576499,0.598549 -2.417925,0.594 -1.410164,0.0883 -2.838094,-0.246162 -4.124682,-0.942908 -0.299013,5.763138 1.386833,11.280113 2.094856,16.910002 0.851224,5.326735 1.982954,10.837289 4.842291,15.174291 2.981144,4.455535 7.22411,7.232619 10.982662,10.602632 5.240627,4.58477 10.476173,9.462527 16.6509874,12.102348 4.3116559,1.875649 9.19656983,2.1087 13.507272,0.101676 4.3826906,-1.687281 8.7329176,-3.765478 13.3622126,-4.21847 3.626494,-0.621827 7.344858,-1.872705 10.170538,-4.806049 4.040539,-3.869026 7.062809,-8.964583 10.502406,-13.539185 2.002852,-3.087998 2.797027,-7.028733 3.027064,-10.867524 0.547176,-5.26787 1.315846,-10.574538 3.103161,-15.465673 1.277818,-4.124821 1.887969,-8.701564 0.960043,-13.025456 C 44.811011,20.155061 41.693652,14.957026 39.073059,9.6070131 36.808192,5.1268619 34.778957,0.46315944 32.243336,-3.812035 c -2.360936,-3.9380593 -5.390722,-7.462727 -9.166223,-9.351754 -4.167879,-2.217867 -8.655153,-3.377772 -13.1122634,-4.408175 -2.2979475,-0.501154 -4.6223111,-0.846316 -6.958422,-0.926319 -0.00312,0.03211 -0.00602,0.06422 -0.010473,0.09632 z"
         id="path5030" />
    </clipPath>
    <clipPath
       clipPathUnits="userSpaceOnUse"
       id="clipPath5032">
      <path
         inkscape:connector-curvature="0"
         style="display:inline;fill:#efc936;fill-opacity:1;fill-rule:evenodd;stroke:none"
         d="m 44.776313,-70.482646 c 0.467888,2.366635 -0.922937,4.665843 -0.384152,7.020973 1.199014,2.172381 2.153384,4.794811 1.731751,7.452559 -0.231791,2.269241 -1.191516,4.2966 -1.803481,6.420016 -0.0011,2.150173 1.282099,3.997459 1.133197,6.174389 0.123691,3.237568 -1.363686,6.478881 -3.712723,8.073316 -1.05368,1.501857 -0.426113,3.748621 -1.434824,5.284727 -1.538762,3.22071 -4.762095,4.88177 -7.778877,4.66504 -0.977794,0.184622 -1.182986,1.534232 -1.502532,2.452792 -1.315436,3.55517 -4.81494,5.416102 -7.937259,4.844578 -1.101338,-0.165892 -2.135875,-0.704773 -3.113897,-1.292351 -0.865073,-0.02676 -1.185435,1.14171 -1.637341,1.822135 -2.521195,4.152113 -8.098392,4.888727 -11.2761407,1.420516 -0.7286616,-0.646443 -1.007761,-1.965016 -1.9451688,-2.25613 -0.8363461,-0.05351 -1.5764988,0.598549 -2.4179251,0.594 -1.4101638,0.0883 -2.8380936,-0.246162 -4.1246821,-0.942908 -0.2990125,5.763138 1.38683373,11.2801132 2.0948565,16.9100022 0.8512242,5.3267349 1.9829539,10.8372887 4.842291,15.1742908 2.981144,4.455535 7.2241092,7.232619 10.9826622,10.602632 5.240627,4.58477 10.476173,9.462527 16.650987,12.102349 4.311656,1.875648 9.19657,2.108699 13.507272,0.101675 4.382691,-1.687281 8.732918,-3.765478 13.362212,-4.21847 3.626495,-0.621827 7.344859,-1.872705 10.170538,-4.806048 4.040539,-3.869027 7.06281,-8.964584 10.502407,-13.539186 2.002852,-3.087997 2.797027,-7.0287324 3.027063,-10.8675241 0.547177,-5.26787 1.315846,-10.5745374 3.103161,-15.4656719 1.277819,-4.124822 1.88797,-8.701565 0.960044,-13.025457 -1.184846,-6.144689 -4.302206,-11.342723 -6.922799,-16.692737 -2.264866,-4.480151 -4.294101,-9.143853 -6.829722,-13.419048 -2.360936,-3.938059 -5.390722,-7.462726 -9.166223,-9.351753 -4.16788,-2.217868 -8.655154,-3.377773 -13.112264,-4.408176 -2.297947,-0.501154 -4.622311,-0.846316 -6.958422,-0.926319 -0.0031,0.03211 -0.006,0.06422 -0.01047,0.09632 z"
         id="path5034" />
    </clipPath>
    <clipPath
       clipPathUnits="userSpaceOnUse"
       id="clipPath5036">
      <path
         inkscape:connector-curvature="0"
         style="display:inline;fill:#efc936;fill-opacity:1;fill-rule:evenodd;stroke:none"
         d="m 47.163735,-39.903687 c 0.467888,2.366635 -0.922937,4.665843 -0.384152,7.020972 1.199014,2.172381 2.153384,4.794811 1.731751,7.452559 -0.231791,2.269241 -1.191516,4.2966 -1.803481,6.420016 -0.0011,2.150173 1.282099,3.99746 1.133197,6.174389 0.123691,3.2375676 -1.363686,6.478881 -3.712723,8.0733161 -1.05368,1.5018567 -0.426113,3.7486214 -1.434824,5.28472677 C 41.154741,3.7430025 37.931408,5.4040619 34.914626,5.1873322 33.936832,5.3719538 33.73164,6.7215646 33.412094,7.640124 c -1.315436,3.55517 -4.81494,5.416102 -7.937259,4.844578 -1.101338,-0.165892 -2.135875,-0.704773 -3.113897,-1.292351 -0.865073,-0.02676 -1.185435,1.141711 -1.637341,1.822135 -2.521195,4.152113 -8.098392,4.888727 -11.2761406,1.420516 -0.7286616,-0.646443 -1.0077611,-1.965016 -1.9451689,-2.25613 -0.8363461,-0.05351 -1.5764988,0.598549 -2.4179251,0.594 C 3.6741986,12.86117 2.2462688,12.52671 0.95968033,11.829964 0.66066777,17.593102 2.346514,23.110077 3.0545368,28.739966 3.905761,34.066701 5.0374907,39.577255 7.8968279,43.914258 10.877972,48.369792 15.120937,51.146876 18.87949,54.51689 c 5.240627,4.58477 10.476173,9.462526 16.650987,12.102348 4.311656,1.875648 9.19657,2.1087 13.507272,0.101675 4.382691,-1.687281 8.732918,-3.765478 13.362212,-4.21847 3.626495,-0.621827 7.344859,-1.872705 10.170539,-4.806048 4.040538,-3.869027 7.062809,-8.964584 10.502406,-13.539186 2.002852,-3.087997 2.797027,-7.028732 3.027063,-10.867524 0.547177,-5.26787 1.315846,-10.574537 3.103161,-15.465672 1.277819,-4.124822 1.88797,-8.7015647 0.960044,-13.0254565 -1.184846,-6.1446889 -4.302206,-11.3427238 -6.922799,-16.6927375 -2.264866,-4.480151 -4.294101,-9.143853 -6.829722,-13.419048 -2.360936,-3.938059 -5.390722,-7.462726 -9.166223,-9.351753 -4.16788,-2.217868 -8.655154,-3.377773 -13.112264,-4.408176 -2.297947,-0.501154 -4.622311,-0.846316 -6.958422,-0.926319 -0.0031,0.03211 -0.006,0.06422 -0.01047,0.09633 z"
         id="path5038" />
    </clipPath>
    <clipPath
       clipPathUnits="userSpaceOnUse"
       id="clipPath5040">
      <path
         inkscape:connector-curvature="0"
         style="display:inline;fill:#efc936;fill-opacity:1;fill-rule:evenodd;stroke:none"
         d="m -12.919729,-66.660175 c 0.467888,2.366635 -0.922936,4.665843 -0.384152,7.020972 1.199014,2.172381 2.153385,4.794811 1.731751,7.452559 -0.23179,2.269241 -1.191516,4.2966 -1.803481,6.420016 -0.0011,2.150173 1.282099,3.99746 1.133198,6.174389 0.123691,3.237568 -1.363687,6.478881 -3.712724,8.073316 -1.05368,1.501857 -0.426112,3.748622 -1.434824,5.284727 -1.538761,3.220711 -4.762094,4.88177 -7.778877,4.66504 -0.977794,0.184622 -1.182986,1.534233 -1.502531,2.452792 -1.315436,3.55517 -4.81494,5.416102 -7.93726,4.844578 -1.101338,-0.165892 -2.135875,-0.704773 -3.113896,-1.292351 -0.865074,-0.02676 -1.185435,1.141711 -1.637342,1.822135 -2.521195,4.1521132 -8.098391,4.8887267 -11.27614,1.420516 -0.728662,-0.646443 -1.007761,-1.965016 -1.945169,-2.25613 -0.836346,-0.05351 -1.576499,0.598549 -2.417925,0.594 -1.410164,0.0883 -2.838094,-0.246162 -4.124682,-0.942908 -0.299013,5.7631379 1.386834,11.2801133 2.094856,16.9100023 0.851224,5.3267349 1.982954,10.8372887 4.842291,15.1742917 2.981144,4.455534 7.22411,7.232618 10.982663,10.602631 5.240626,4.584771 10.476173,9.462527 16.650987,12.102349 4.311656,1.875648 9.196569,2.1087 13.507272,0.101675 4.3826902,-1.687281 8.7329173,-3.765478 13.3622118,-4.21847 3.6264946,-0.621827 7.3448582,-1.872705 10.1705382,-4.806048 4.040539,-3.869027 7.062809,-8.964584 10.502406,-13.539186 2.002853,-3.087997 2.797027,-7.028732 3.027064,-10.867524 0.547176,-5.26787 1.315846,-10.5745374 3.103161,-15.4656723 1.277818,-4.1248217 1.88797,-8.7015647 0.960044,-13.0254557 -1.184847,-6.144689 -4.302206,-11.342724 -6.922799,-16.692738 -2.264867,-4.480151 -4.294102,-9.143853 -6.829722,-13.419048 -2.360936,-3.938059 -5.390723,-7.462726 -9.1662235,-9.351753 -4.1678795,-2.217868 -8.6551536,-3.377773 -13.1122637,-4.408176 -2.2979475,-0.501154 -4.6223108,-0.846316 -6.9584218,-0.926319 -0.0031,0.03211 -0.006,0.06422 -0.01047,0.09633 z"
         id="path5042" />
    </clipPath>
    <clipPath
       clipPathUnits="userSpaceOnUse"
       id="clipPath5044">
      <path
         inkscape:connector-curvature="0"
         style="display:inline;fill:#efc936;fill-opacity:1;fill-rule:evenodd;stroke:none"
         d="m 12.546109,-73.82724 c 0.467888,2.366635 -0.922936,4.665843 -0.384152,7.020973 1.199014,2.172381 2.153385,4.79481 1.731751,7.452559 -0.23179,2.26924 -1.191516,4.2966 -1.803481,6.420016 -0.0011,2.150173 1.282099,3.997459 1.133198,6.174389 0.123691,3.237567 -1.363687,6.47888 -3.7127239,8.073315 -1.05368,1.501857 -0.4261126,3.748622 -1.434824,5.284727 -1.5387612,3.220711 -4.7620944,4.88177 -7.77887666,4.665041 -0.97779431,0.184621 -1.18298594,1.534232 -1.50253194,2.452791 -1.315436,3.555171 -4.8149398,5.416103 -7.9372592,4.844579 -1.1013383,-0.165892 -2.1358753,-0.704773 -3.1138963,-1.292352 -0.865074,-0.02676 -1.185435,1.141711 -1.637342,1.822135 -2.521195,4.152114 -8.098391,4.888727 -11.27614,1.420516 -0.728662,-0.646443 -1.007761,-1.965016 -1.945169,-2.256129 -0.836346,-0.05351 -1.576499,0.598548 -2.417925,0.594 -1.410164,0.0883 -2.838094,-0.246162 -4.124682,-0.942908 -0.299013,5.763137 1.386834,11.280113 2.094856,16.9100017 0.851224,5.32673494 1.982954,10.8372888 4.842291,15.1742913 2.981144,4.455535 7.22411,7.232619 10.982663,10.602632 5.240626,4.58477 10.4761726,9.462527 16.65098665,12.102348 4.31165585,1.875649 9.19656935,2.1087 13.50727235,0.101676 4.38269,-1.687281 8.732917,-3.765478 13.362212,-4.21847 3.626494,-0.621827 7.344858,-1.872706 10.170538,-4.806049 C 41.993413,19.903815 45.015683,14.808259 48.45528,10.233656 50.458133,7.1456591 51.252307,3.2049242 51.482344,-0.63386754 52.02952,-5.9017376 52.79819,-11.208405 54.585505,-16.09954 c 1.277818,-4.124821 1.88797,-8.701564 0.960044,-13.025456 -1.184847,-6.144689 -4.302206,-11.342724 -6.922799,-16.692737 -2.264867,-4.480151 -4.294102,-9.143854 -6.829722,-13.419048 -2.360936,-3.938059 -5.390723,-7.462727 -9.166223,-9.351754 -4.16788,-2.217867 -8.655154,-3.377773 -13.112264,-4.408175 -2.297948,-0.501154 -4.622311,-0.846317 -6.958422,-0.926319 -0.0031,0.03211 -0.006,0.06422 -0.01047,0.09632 z"
         id="path5046" />
    </clipPath>
    <linearGradient
       id="linearGradient4214">
      <stop
         id="stop4216"
         offset="0"
         style="stop-color:#ffffff;stop-opacity:1;" />
      <stop
         id="stop4218"
         offset="1"
         style="stop-color:#ffffff;stop-opacity:0;" />
    </linearGradient>
    <linearGradient
       id="linearGradient4118">
      <stop
         style="stop-color:#a86639;stop-opacity:1"
         offset="0"
         id="stop4120" />
      <stop
         style="stop-color:#351e0f;stop-opacity:1"
         offset="1"
         id="stop4122" />
    </linearGradient>
    <clipPath
       clipPathUnits="userSpaceOnUse"
       id="clipPath4990">
      <path
         inkscape:connector-curvature="0"
         id="path4992"
         d="m -20.729155,-25.137979 c 0.434805,2.216848 -0.857679,4.370537 -0.35699,6.576607 1.114235,2.034889 2.001125,4.491342 1.609304,6.980879 -0.215401,2.1256173 -1.107267,4.0246628 -1.675962,6.0136856 -0.001,2.014086 1.191445,3.7444556 1.053072,5.78360486 0.114945,3.03265814 -1.267264,6.06882514 -3.450208,7.56234664 -0.979177,1.4068025 -0.395983,3.5113669 -1.333371,4.9502509 -1.42996,3.016868 -4.425381,4.572797 -7.228856,4.369784 -0.908657,0.172937 -1.09934,1.437129 -1.396292,2.297552 -1.222425,3.33016 -4.474489,5.073311 -7.376039,4.537959 -1.023465,-0.155392 -1.984853,-0.660167 -2.893722,-1.210556 -0.803906,-0.02506 -1.101616,1.06945 -1.52157,1.70681 -2.342928,3.889321 -7.525778,4.579313 -10.478837,1.33061 -0.67714,-0.605529 -0.936505,-1.840648 -1.807632,-2.113337 -0.77721,-0.05013 -1.465029,0.560666 -2.246961,0.556405 -1.310455,0.08271 -2.63742,-0.230582 -3.833038,-0.88323 -0.27787,5.398382 1.288775,10.566182 1.946736,15.839749 0.791036,4.9896 1.842745,10.151384 4.499907,14.213893 2.770356,4.173539 6.713313,6.774858 10.20611,9.931579 4.870077,4.294595 9.735434,8.863633 15.473645,11.336377 4.006791,1.756937 8.546307,1.975238 12.552212,0.09524 4.072803,-1.580491 8.115439,-3.527157 12.4174093,-3.951479 3.3700758,-0.58247 6.82552483,-1.754179 9.4514092,-4.501868 3.7548443,-3.624152 6.5634189,-8.397205 9.7598125,-12.682275 1.861236,-2.892555 2.599257,-6.583876 2.813028,-10.179706 0.508487,-4.934461 1.222807,-9.905263 2.883746,-14.486833 1.187467,-3.863757 1.754477,-8.150833 0.892162,-12.20106 C 18.12885,10.979225 15.23191,6.1101796 12.796612,1.0987747 10.691887,-3.0978227 8.8061334,-7.4663542 6.4497992,-11.470967 c -2.1940012,-3.688815 -5.0095603,-6.990402 -8.5181064,-8.75987 -3.873181,-2.077497 -8.0431728,-3.16399 -12.1851338,-4.129178 -2.135467,-0.469435 -4.295481,-0.792751 -6.466413,-0.867691 -0.0029,0.03008 -0.0056,0.06015 -0.0097,0.09023 z"
         style="display:inline;fill:#efc936;fill-opacity:1;fill-rule:evenodd;stroke:none" />
    </clipPath>
    <clipPath
       clipPathUnits="userSpaceOnUse"
       id="clipPath4994">
      <path
         inkscape:connector-curvature="0"
         id="path4996"
         d="m -10.930212,-9.8020688 c 0.467888,2.3666351 -0.922937,4.6658431 -0.384153,7.0209727 1.199014,2.17238098 2.153385,4.7948106 1.7317512,7.4525591 -0.2317903,2.2692405 -1.1915152,4.2965998 -1.8034812,6.420016 -0.0011,2.150173 1.282099,3.997459 1.133198,6.174389 0.123691,3.237567 -1.363687,6.478881 -3.712724,8.073316 -1.05368,1.501856 -0.426112,3.748621 -1.434824,5.284727 -1.538761,3.22071 -4.762094,4.88177 -7.778876,4.66504 -0.977795,0.184621 -1.182986,1.534232 -1.502532,2.452792 -1.315436,3.55517 -4.81494,5.416102 -7.93726,4.844578 -1.101338,-0.165892 -2.135875,-0.704773 -3.113896,-1.292351 -0.865073,-0.02676 -1.185435,1.14171 -1.637342,1.822135 -2.521195,4.152113 -8.098391,4.888726 -11.27614,1.420516 -0.728662,-0.646443 -1.007761,-1.965016 -1.945169,-2.25613 -0.836346,-0.05351 -1.576499,0.598549 -2.417925,0.594 -1.410164,0.0883 -2.838094,-0.246162 -4.124682,-0.942908 -0.299013,5.763138 1.386834,11.280113 2.094856,16.910002 0.851225,5.326735 1.982954,10.837289 4.842291,15.174291 2.981144,4.455535 7.22411,7.232619 10.982663,10.602632 5.240626,4.58477 10.476173,9.462527 16.650987,12.102348 4.311656,1.875649 9.19657,2.1087 13.5072717,0.101676 4.3826907,-1.687281 8.73291775,-3.765478 13.3622122,-4.21847 3.6264947,-0.621827 7.3448581,-1.872705 10.1705381,-4.806049 4.040539,-3.869026 7.06281,-8.964583 10.502407,-13.539185 2.002852,-3.087998 2.797026,-7.028733 3.027063,-10.867524 0.547176,-5.26787 1.315846,-10.574538 3.103161,-15.465673 1.277818,-4.124821 1.88797,-8.701564 0.960044,-13.025456 C 30.88438,28.755486 27.767021,23.557451 25.146428,18.207438 22.881561,13.727287 20.852326,9.0635845 18.316706,4.7883901 15.95577,0.85033076 12.925983,-2.6743367 9.1504827,-4.5633636 4.9826031,-6.7812311 0.49532903,-7.9411364 -3.961781,-8.9715391 c -2.2979476,-0.501154 -4.6223112,-0.8463162 -6.958422,-0.9263189 -0.0031,0.032108 -0.006,0.064216 -0.01047,0.096324 z"
         style="display:inline;fill:#efc936;fill-opacity:1;fill-rule:evenodd;stroke:none" />
    </clipPath>
    <clipPath
       clipPathUnits="userSpaceOnUse"
       id="clipPath4998">
      <path
         inkscape:connector-curvature="0"
         id="path5000"
         d="m 47.352731,-57.630954 c 0.402296,2.162111 -0.793553,4.262622 -0.330299,6.414222 1.030928,1.984644 1.851508,4.380444 1.488982,6.808511 -0.199296,2.073133 -1.024481,3.925289 -1.550656,5.8652 -9.62e-4,1.964355 1.102365,3.652 0.974338,5.6408 0.106351,2.957777 -1.172516,5.918977 -3.192249,7.375622 -0.905967,1.372066 -0.366377,3.424666 -1.23368,4.828022 -1.323047,2.942377 -4.094511,4.459889 -6.68838,4.261889 -0.84072,0.168666 -1.017147,1.401644 -1.291897,2.240822 -1.131029,3.247933 -4.139948,4.948044 -6.824559,4.4259107 -0.946945,-0.1515555 -1.836453,-0.6438667 -2.677369,-1.1806667 -0.743801,-0.02444 -1.019252,1.0430445 -1.407808,1.6646667 -2.167756,3.7932888 -6.963103,4.4662443 -9.695373,1.2977555 -0.626512,-0.5905777 -0.866486,-1.7951999 -1.672481,-2.0611552 -0.719102,-0.04889 -1.355495,0.5468219 -2.078964,0.5426664 -1.2124772,0.080667 -2.4402299,-0.2248889 -3.5464555,-0.8614224 -0.257095,5.2650889 1.1924177,10.30528878 1.801185,15.4486442 0.7318935,4.8663999 1.7049695,9.9007328 4.1634655,13.8629328 2.563226,4.070489 6.211383,6.607578 9.443036,9.686355 4.50596,4.188556 9.007551,8.644778 14.316737,11.056467 3.707218,1.713555 7.907331,1.926466 11.613729,0.09289 3.768295,-1.541467 7.508677,-3.440067 11.489005,-3.853911 3.118108,-0.568089 6.315205,-1.710867 8.744762,-4.390711 3.474108,-3.534667 6.072696,-8.189867 9.030106,-12.369133 1.722079,-2.821134 2.40492,-6.421311 2.602709,-9.9283556 0.470469,-4.8126221 1.131382,-9.66068861 2.668138,-14.1291329 1.098685,-3.7683555 1.623301,-7.9495775 0.825459,-11.8997995 -1.018747,-5.613667 -3.699093,-10.362489 -5.952313,-15.250155 -1.947362,-4.092978 -3.692125,-8.353645 -5.872285,-12.259378 -2.029964,-3.597733 -4.635014,-6.8178 -7.881238,-8.543577 -3.583598,-2.0262 -7.441815,-3.085867 -11.274096,-4.027222 -1.975806,-0.457845 -3.974324,-0.773178 -5.982943,-0.846267 -0.0027,0.02933 -0.0052,0.05867 -0.009,0.088 z"
         style="display:inline;fill:#efc936;fill-opacity:1;fill-rule:evenodd;stroke:none" />
    </clipPath>
    <clipPath
       clipPathUnits="userSpaceOnUse"
       id="clipPath5002-3">
      <path
         inkscape:connector-curvature="0"
         id="path5004"
         d="m 13.341919,10.026293 c 0.467888,2.366635 -0.922936,4.665843 -0.384152,7.020972 1.199014,2.172381 2.153385,4.794811 1.731751,7.452559 -0.23179,2.269241 -1.191516,4.2966 -1.803481,6.420016 -0.0011,2.150173 1.282099,3.99746 1.133198,6.174389 0.123691,3.237568 -1.363687,6.478881 -3.712724,8.073316 -1.0536799,1.501857 -0.4261125,3.748622 -1.4348239,5.284727 -1.5387612,3.220711 -4.7620944,4.88177 -7.7788766,4.66504 -0.97779436,0.184622 -1.18298599,1.534233 -1.50253197,2.452792 -1.31543603,3.55517 -4.81493983,5.416102 -7.93725923,4.844578 -1.101338,-0.165892 -2.1358753,-0.704773 -3.1138963,-1.292351 -0.865074,-0.02676 -1.185435,1.141711 -1.637342,1.822135 -2.521195,4.152113 -8.098391,4.888727 -11.27614,1.420516 -0.728662,-0.646443 -1.007761,-1.965016 -1.945169,-2.25613 -0.836346,-0.05351 -1.576499,0.598549 -2.417925,0.594 -1.410164,0.0883 -2.838094,-0.246162 -4.124682,-0.942908 -0.299013,5.763138 1.386834,11.280113 2.094856,16.910002 0.851224,5.326735 1.982954,10.837289 4.842291,15.174292 2.981144,4.455534 7.22411,7.232622 10.982663,10.602632 5.2406263,4.58477 10.4761726,9.46253 16.6509867,12.10235 4.3116559,1.87565 9.1965693,2.1087 13.5072723,0.10167 4.38269,-1.68728 8.732917,-3.76547 13.362212,-4.21847 3.626494,-0.62182 7.344858,-1.8727 10.170538,-4.80605 4.040539,-3.86902 7.062809,-8.964579 10.502406,-13.539181 2.002853,-3.087997 2.797027,-7.028732 3.027064,-10.867524 0.547176,-5.26787 1.315846,-10.574537 3.103161,-15.465672 1.277818,-4.124822 1.88797,-8.701565 0.960044,-13.025456 C 55.156512,48.583848 52.039153,43.385813 49.41856,38.035799 47.153693,33.555648 45.124458,28.891946 42.588838,24.616751 40.227902,20.678692 37.198115,17.154025 33.422615,15.264998 29.254735,13.04713 24.767461,11.887225 20.310351,10.856822 18.012403,10.355668 15.68804,10.010506 13.351929,9.9305034 c -0.0031,0.032108 -0.006,0.064216 -0.01047,0.096325 z"
         style="display:inline;fill:#efc936;fill-opacity:1;fill-rule:evenodd;stroke:none" />
    </clipPath>
    <clipPath
       clipPathUnits="userSpaceOnUse"
       id="clipPath4977">
      <path
         inkscape:connector-curvature="0"
         id="path4979"
         d="m 23.245218,12.438495 c 0.140673,0.63684 -0.277484,1.255536 -0.115496,1.88928 0.360487,0.584568 0.647422,1.29024 0.520657,2.005416 -0.06969,0.610632 -0.358234,1.156176 -0.542223,1.727568 -3.37e-4,0.578592 0.385467,1.07568 0.3407,1.661472 0.03719,0.8712 -0.409998,1.743408 -1.116244,2.172456 -0.316793,0.404136 -0.128112,1.00872 -0.431385,1.422072 -0.462634,0.866664 -1.431741,1.31364 -2.338747,1.25532 -0.293978,0.04968 -0.355669,0.412848 -0.451742,0.660024 -0.39549,0.956664 -1.447629,1.457424 -2.386365,1.303632 -0.331122,-0.04464 -0.642159,-0.189648 -0.936205,-0.34776 -0.260087,-0.0072 -0.356405,0.307224 -0.492272,0.49032 -0.758007,1.117296 -2.434811,1.315512 -3.390212,0.382248 -0.219075,-0.173952 -0.302987,-0.528768 -0.584822,-0.607104 -0.251451,-0.0144 -0.47398,0.161064 -0.726958,0.15984 -0.423971,0.02376 -0.8532833,-0.06624 -1.2401007,-0.253728 -0.089899,1.550808 0.4169565,3.035376 0.6298261,4.550328 0.2559236,1.433376 0.5961826,2.916216 1.4558526,4.083264 0.896291,1.198944 2.171954,1.946232 3.301976,2.853072 1.575614,1.23372 3.1497,2.54628 5.00618,3.256632 1.296314,0.50472 2.764981,0.567432 4.06101,0.02736 1.317671,-0.454032 2.625583,-1.013256 4.017397,-1.135152 1.090318,-0.167328 2.208258,-0.503928 3.057808,-1.293264 1.214803,-1.04112 2.12346,-2.412288 3.157587,-3.643272 0.602164,-0.830952 0.840936,-1.891368 0.910097,-2.924352 0.164511,-1.417536 0.395614,-2.845512 0.932977,-4.161672 0.38418,-1.109952 0.567625,-2.341512 0.28864,-3.505032 -0.356228,-1.65348 -1.293473,-3.052224 -2.081364,-4.491864 -0.68094,-1.205568 -1.291037,-2.460528 -2.053381,-3.610944 -0.709823,-1.059696 -1.62074,-2.008152 -2.755857,-2.516472 -1.253088,-0.596808 -2.602203,-0.908928 -3.94225,-1.1862 -0.690886,-0.134856 -1.389714,-0.227736 -2.092074,-0.249264 -9.38e-4,0.0086 -0.0018,0.01728 -0.0031,0.02592 z"
         style="display:inline;fill:#efc936;fill-opacity:1;fill-rule:evenodd;stroke:none" />
    </clipPath>
    <clipPath
       clipPathUnits="userSpaceOnUse"
       id="clipPath5469">
      <circle
         style="opacity:1;fill:#edcc5a;fill-opacity:1;stroke:none;stroke-width:7.31428576"
         id="circle5471"
         cx="128"
         cy="924.36218"
         r="128" />
    </clipPath>
    <clipPath
       id="clipPath5603"
       clipPathUnits="userSpaceOnUse">
      <circle
         r="128"
         cy="924.36218"
         cx="128"
         id="circle5605"
         style="opacity:1;fill:#edcc5a;fill-opacity:1;stroke:none;stroke-width:7.31428576" />
    </clipPath>
    <clipPath
       id="clipPath4889"
       clipPathUnits="userSpaceOnUse">
      <path
         inkscape:connector-curvature="0"
         id="path4891"
         d="M 128,796.36216 A 128,128 0 0 0 0.5390625,913.55747 c 2.4004948,0.59426 4.8822188,0.84816 7.3261719,0.72071 l 0.1015625,-0.006 h 0.1035156 c 0.583673,0.003 1.4805038,-0.24192 2.7890625,-0.67188 1.308559,-0.42997 3.04816,-1.04664 5.244141,-0.92969 l 0.363281,0.0176 0.351562,0.0918 c 2.721895,0.70395 4.372692,2.6427 5.410157,4.03125 1.037464,1.38854 1.740831,2.36105 2.15625,2.66797 l 0.148437,0.10937 0.134766,0.12305 c 8.578196,7.79678 24.470951,6.05148 31.287109,-3.29688 L 56,916.35044 l 0.04883,-0.0625 c 0.364411,-0.45693 1.022926,-1.73965 2.142578,-3.16406 1.119653,-1.42441 3.329953,-3.20236 6.103516,-3.13086 l 0.804687,0.0215 0.722657,0.36133 c 3.05701,1.5295 6.05292,2.77927 8.949218,3.14258 l 0.04883,0.008 0.04688,0.008 c 8.584548,1.30862 18.426513,-3.123 21.93164,-10.98438 0.379016,-0.9228 0.811417,-2.5535 1.769531,-4.33008 0.97067,-1.79986 2.981233,-3.97949 5.869143,-4.43359 l 0.38672,-0.0606 0.39258,0.0234 c 8.54988,0.51152 17.74163,-3.52465 21.92382,-10.81446 l 0.13282,-0.23046 0.16406,-0.20899 c 0.8816,-1.11804 1.19901,-2.84 1.5293,-5.40625 0.33029,-2.56625 0.6934,-6.00459 3.20703,-8.98828 l 0.41992,-0.49805 0.56836,-0.32031 c 6.37417,-3.60308 10.56644,-11.20872 10.23047,-18.5332 l -0.01,-0.23047 0.0176,-0.23047 c 0.16564,-2.01686 -0.49226,-4.18843 -1.45703,-6.85547 -0.96477,-2.66704 -2.23933,-5.78706 -2.23633,-9.5625 v -0.60742 l 0.19922,-0.57422 c 2.13854,-6.17954 5.04951,-11.43123 5.6875,-16.63281 l 0.0156,-0.11914 0.0215,-0.11719 c 1.05424,-5.53348 -1.24867,-11.46455 -4.64627,-16.7875 A 128,128 0 0 0 128,796.36216 Z"
         style="fill:#c42626;fill-opacity:1;stroke:none;stroke-width:10;stroke-linejoin:round;stroke-miterlimit:4;stroke-dasharray:none;stroke-opacity:0.25882353" />
    </clipPath>
    <clipPath
       id="clipPath4895"
       clipPathUnits="userSpaceOnUse">
      <path
         inkscape:connector-curvature="0"
         id="path4897"
         d="m 150.04688,798.40122 c 2.38135,5.01348 3.82447,10.7017 2.70312,16.69922 -0.86297,6.71296 -3.86386,12.17895 -5.72266,17.26563 0.10758,1.92624 0.80266,4.04942 1.72657,6.60351 0.99516,2.75107 2.16813,6.01559 1.86132,9.87305 0.28753,9.70025 -4.7805,19.06575 -13.01953,24.16601 -0.79558,1.07999 -1.14064,2.62158 -1.44726,5.00391 -0.32233,2.50441 -0.63542,5.85708 -2.9668,8.87305 -5.7568,9.66919 -16.94646,14.48475 -27.64844,14.08984 -0.24302,0.032 -0.19317,-0.0559 -0.58984,0.67969 -0.41684,0.77293 -0.83021,2.17154 -1.48633,3.74219 l -0.0156,0.0371 -0.0156,0.0371 c -5.04384,11.35238 -17.90393,16.98121 -29.591796,15.2246 -3.682925,-0.4684 -6.9027,-1.80859 -9.855468,-3.22265 0.0032,10e-4 -0.01064,0.0212 -0.09375,0.12695 -0.45916,0.58413 -1.067012,1.78335 -2.119141,3.125 -9.543627,13.02431 -29.712352,15.26741 -41.792969,4.4707 -1.858308,-1.41888 -2.795686,-3.04539 -3.546875,-4.05078 -0.646112,-0.86476 -0.908763,-1.01044 -1.191406,-1.13672 -0.519241,0.0443 -1.092155,0.13454 -2.115234,0.47071 -1.234682,0.40569 -2.883174,1.00858 -4.978516,1.02148 -2.6772461,0.13087 -5.354703,-0.0869 -7.96679688,-0.61328 A 128,128 0 0 0 0,924.36216 128,128 0 0 0 128,1052.3622 128,128 0 0 0 256,924.36216 128,128 0 0 0 150.04688,798.40122 Z"
         style="fill:#edcc5a;fill-opacity:1;stroke:none;stroke-width:10;stroke-linejoin:round;stroke-miterlimit:4;stroke-dasharray:none;stroke-opacity:0.25882353" />
    </clipPath>
  </defs>
  <metadata
     id="metadata7">
    <rdf:RDF>
      <cc:Work
         rdf:about="">
        <dc:format>image/svg+xml</dc:format>
        <dc:type
           rdf:resource="http://purl.org/dc/dcmitype/StillImage" />
        <dc:title />
      </cc:Work>
    </rdf:RDF>
  </metadata>
  <g
     inkscape:label="Layer 1"
     inkscape:groupmode="layer"
     id="layer1"
     transform="translate(0,-796.36216)">
    <path
       transform="scale(1,-1)"
       style="fill:#d9af18;fill-opacity:1;stroke-width:45.5111"
       id="path1146"
       sodipodi:type="arc"
       sodipodi:cx="128"
       sodipodi:cy="-924.36218"
       sodipodi:rx="128"
       sodipodi:ry="128"
       sodipodi:start="0"
       sodipodi:end="3.1415927"
       sodipodi:arc-type="slice"
       d="m 256,-924.36218 a 128,128 0 0 1 -64,110.85125 128,128 0 0 1 -128.000003,0 A 128,128 0 0 1 0,-924.36218 h 128 z" />
    <path
       d="m 256,924.36218 a 128,128 0 0 1 -64,110.85122 128,128 0 0 1 -128.000003,0 A 128,128 0 0 1 0,924.36218 h 128 z"
       sodipodi:arc-type="slice"
       sodipodi:end="3.1415927"
       sodipodi:start="0"
       sodipodi:ry="128"
       sodipodi:rx="128"
       sodipodi:cy="924.36218"
       sodipodi:cx="128"
       sodipodi:type="arc"
       id="path1144"
       style="fill:#edcc5a;fill-opacity:1;stroke-width:45.5111" />
    <path
       style="fill:#c42626;fill-opacity:1;stroke:none;stroke-width:10;stroke-linejoin:round;stroke-miterlimit:4;stroke-dasharray:none;stroke-opacity:0.25882353"
       d="M 128,0 A 128,128 0 0 0 0.5390625,117.19531 c 2.4004948,0.59426 4.8822188,0.84816 7.3261719,0.72071 l 0.1015625,-0.006 h 0.1035156 c 0.583673,0.003 1.4805038,-0.24192 2.7890625,-0.67188 1.308559,-0.42997 3.04816,-1.04664 5.244141,-0.92969 l 0.363281,0.0176 0.351562,0.0918 c 2.721895,0.70395 4.372692,2.6427 5.410157,4.03125 1.037464,1.38854 1.740831,2.36105 2.15625,2.66797 l 0.148437,0.10937 0.134766,0.12305 c 8.578196,7.79678 24.470951,6.05148 31.287109,-3.29688 L 56,119.98828 l 0.04883,-0.0625 c 0.364411,-0.45693 1.022926,-1.73965 2.142578,-3.16406 1.119653,-1.42441 3.329953,-3.20236 6.103516,-3.13086 l 0.804687,0.0215 0.722657,0.36133 c 3.05701,1.5295 6.05292,2.77927 8.949218,3.14258 l 0.04883,0.008 0.04688,0.008 c 8.584548,1.30862 18.426513,-3.123 21.93164,-10.98438 0.379016,-0.9228 0.811417,-2.5535 1.769531,-4.33008 0.97067,-1.79986 2.981231,-3.979492 5.869141,-4.433592 l 0.38672,-0.06055 0.39258,0.02344 c 8.54988,0.51152 17.74163,-3.524643 21.92382,-10.814453 l 0.13282,-0.230469 0.16406,-0.208985 c 0.8816,-1.118039 1.19901,-2.84 1.5293,-5.40625 0.33029,-2.56625 0.6934,-6.004591 3.20703,-8.988281 l 0.41992,-0.498047 0.56836,-0.320312 c 6.37417,-3.60308 10.56644,-11.208723 10.23047,-18.533203 l -0.01,-0.230469 0.0176,-0.230469 c 0.16564,-2.01686 -0.49226,-4.188428 -1.45703,-6.855469 -0.96477,-2.66704 -2.23933,-5.787059 -2.23633,-9.5625 v -0.607421 l 0.19922,-0.574219 c 2.13854,-6.17954 5.04951,-11.431233 5.6875,-16.632813 l 0.0156,-0.11914 0.0215,-0.117188 C 146.68489,11.92394 144.38198,5.9928743 140.98438,0.66992188 A 128,128 0 0 0 128,0 Z"
       transform="translate(0,796.36216)"
       id="path5463" />
    <text
       xml:space="preserve"
       style="font-style:normal;font-weight:normal;font-size:40px;line-height:125%;font-family:sans-serif;letter-spacing:0px;word-spacing:0px;fill:#000000;fill-opacity:1;stroke:none;stroke-width:1px;stroke-linecap:butt;stroke-linejoin:miter;stroke-opacity:1"
       x="120"
       y="927.36218"
       id="text4914"><tspan
         sodipodi:role="line"
         id="tspan4916"
         x="120"
         y="927.36218" /></text>
    <g
       id="g4241"
       transform="translate(-4.11162,138)"
       style="stroke:none">
      <g
         id="g4446"
         style="stroke:none">
        <g
           style="fill:none;fill-rule:evenodd;stroke:none;stroke-width:10;stroke-linecap:round;stroke-linejoin:miter;stroke-miterlimit:4;stroke-dasharray:none;stroke-opacity:1"
           id="g4448">
          <path
             inkscape:connector-curvature="0"
             d="m 129.98857,850.41168 c 0,15 0,15 0,15 L -82.143464,1077.5437 c 0,0 0,0 0,-15 z"
             id="path4450"
             style="stroke:none" />
        </g>
        <path
           style="fill:none;fill-rule:evenodd;stroke:none;stroke-width:10;stroke-linecap:round;stroke-linejoin:miter;stroke-miterlimit:4;stroke-dasharray:none;stroke-opacity:1"
           d="m 129.98857,850.41168 c 0,15 0,15 0,15"
           id="path4247"
           inkscape:connector-curvature="0" />
      </g>
      <g
         id="g4453"
         style="stroke:none">
        <g
           style="fill:none;fill-rule:evenodd;stroke:none;stroke-width:10;stroke-linecap:round;stroke-linejoin:miter;stroke-miterlimit:4;stroke-dasharray:none;stroke-opacity:1"
           id="g4455">
          <path
             inkscape:connector-curvature="0"
             d="m 111.58095,850.41168 c 0,15 0,15 0,15 l -212.13203,212.13202 c 0,0 0,0 0,-15 z"
             id="path4457"
             style="stroke:none" />
        </g>
        <path
           inkscape:connector-curvature="0"
           id="path4245"
           d="m 111.58095,850.41168 c 0,15 0,15 0,15"
           style="fill:none;fill-rule:evenodd;stroke:none;stroke-width:10;stroke-linecap:round;stroke-linejoin:miter;stroke-miterlimit:4;stroke-dasharray:none;stroke-opacity:1" />
      </g>
      <g
         id="g4460"
         style="stroke:none">
        <g
           style="fill:none;fill-rule:evenodd;stroke:none;stroke-width:10;stroke-linecap:round;stroke-linejoin:miter;stroke-miterlimit:4;stroke-dasharray:none;stroke-opacity:1"
           id="g4462">
          <path
             inkscape:connector-curvature="0"
             d="m 93.173333,850.41168 c 0,15 0,15 0,15 L -118.9587,1077.5437 c 0,0 0,0 0,-15 z"
             id="path4464"
             style="stroke:none" />
        </g>
        <path
           style="fill:none;fill-rule:evenodd;stroke:none;stroke-width:10;stroke-linecap:round;stroke-linejoin:miter;stroke-miterlimit:4;stroke-dasharray:none;stroke-opacity:1"
           d="m 93.173333,850.41168 c 0,15 0,15 0,15"
           id="path4243"
           inkscape:connector-curvature="0" />
      </g>
      <g
         id="g4467"
         style="stroke:none">
        <g
           style="fill:none;fill-rule:evenodd;stroke:none;stroke-width:10;stroke-linecap:round;stroke-linejoin:miter;stroke-miterlimit:4;stroke-dasharray:none;stroke-opacity:1"
           id="g4469">
          <path
             inkscape:connector-curvature="0"
             d="m 166.80381,850.41168 c 0,15 0,15 0,15 L -45.328224,1077.5437 c 0,0 0,0 0,-15 z"
             id="path4471"
             style="stroke:none" />
        </g>
        <path
           style="fill:none;fill-rule:evenodd;stroke:none;stroke-width:10;stroke-linecap:round;stroke-linejoin:miter;stroke-miterlimit:4;stroke-dasharray:none;stroke-opacity:1"
           d="m 166.80381,850.41168 c 0,15 0,15 0,15"
           id="path4251"
           inkscape:connector-curvature="0" />
      </g>
      <g
         id="g4474"
         style="stroke:none">
        <g
           style="fill:none;fill-rule:evenodd;stroke:none;stroke-width:10;stroke-linecap:round;stroke-linejoin:miter;stroke-miterlimit:4;stroke-dasharray:none;stroke-opacity:1"
           id="g4476">
          <path
             inkscape:connector-curvature="0"
             d="m 148.39619,850.41168 c 0,15 0,15 0,15 L -63.735844,1077.5437 c 0,0 0,0 0,-15 z"
             id="path4478"
             style="stroke:none" />
        </g>
        <path
           inkscape:connector-curvature="0"
           id="path4249"
           d="m 148.39619,850.41168 c 0,15 0,15 0,15"
           style="fill:none;fill-rule:evenodd;stroke:none;stroke-width:10;stroke-linecap:round;stroke-linejoin:miter;stroke-miterlimit:4;stroke-dasharray:none;stroke-opacity:1" />
      </g>
    </g>
    <text
       xml:space="preserve"
       style="font-style:normal;font-weight:normal;font-size:40px;line-height:125%;font-family:sans-serif;letter-spacing:0px;word-spacing:0px;fill:#000000;fill-opacity:1;stroke:none;stroke-width:1px;stroke-linecap:butt;stroke-linejoin:miter;stroke-opacity:1"
       x="120"
       y="997.36218"
       id="text4291"><tspan
         sodipodi:role="line"
         id="tspan4293"
         x="120"
         y="997.36218" /></text>
    <path
       style="display:inline;fill:none;stroke:url(#linearGradient3749);stroke-width:3.59684801;stroke-linecap:butt;stroke-linejoin:miter;stroke-miterlimit:4;stroke-dasharray:none;stroke-opacity:1"
       d="m 118.90467,865.97609 0.002,-7.2e-4"
       id="path5134" />
    <path
       style="color:#000000;font-style:normal;font-variant:normal;font-weight:normal;font-stretch:normal;font-size:medium;line-height:normal;font-family:sans-serif;font-variant-ligatures:normal;font-variant-position:normal;font-variant-caps:normal;font-variant-numeric:normal;font-variant-alternates:normal;font-feature-settings:normal;text-indent:0;text-align:start;text-decoration:none;text-decoration-line:none;text-decoration-style:solid;text-decoration-color:#000000;letter-spacing:normal;word-spacing:normal;text-transform:none;writing-mode:lr-tb;direction:ltr;text-orientation:mixed;dominant-baseline:auto;baseline-shift:baseline;text-anchor:start;white-space:normal;shape-padding:0;clip-rule:nonzero;display:inline;overflow:visible;visibility:visible;opacity:1;isolation:auto;mix-blend-mode:normal;color-interpolation:sRGB;color-interpolation-filters:linearRGB;solid-color:#000000;solid-opacity:1;vector-effect:none;fill:#efb85e;fill-opacity:1;fill-rule:nonzero;stroke:none;stroke-width:7.24170256;stroke-linecap:butt;stroke-linejoin:miter;stroke-miterlimit:4;stroke-dasharray:none;stroke-dashoffset:0;stroke-opacity:1;color-rendering:auto;image-rendering:auto;shape-rendering:auto;text-rendering:auto;enable-background:accumulate"
       d="m 146.57812,792.32617 -6.03515,4 c 3.64423,5.49855 6.18827,11.71577 5.08789,17.49219 l -0.0215,0.11719 -0.0156,0.11914 c -0.63799,5.20158 -3.54896,10.45327 -5.6875,16.63281 l -0.19922,0.57422 v 0.60742 c -0.003,3.77544 1.27156,6.89546 2.23633,9.5625 0.96477,2.66704 1.62267,4.83861 1.45703,6.85547 l -0.0176,0.23047 0.01,0.23047 c 0.33597,7.32448 -3.8563,14.93012 -10.23047,18.5332 l -0.56836,0.32031 -0.41992,0.49805 c -2.51363,2.98369 -2.87674,6.42203 -3.20703,8.98828 -0.33029,2.56625 -0.6477,4.28821 -1.5293,5.40625 l -0.16406,0.20898 -0.13282,0.23047 c -4.1822,7.28981 -13.37394,11.32598 -21.92382,10.81446 l -0.39258,-0.0234 -0.38672,0.0606 c -2.88791,0.4541 -4.898471,2.63373 -5.869141,4.43359 -0.958114,1.77658 -1.390515,3.40728 -1.769531,4.33008 -3.505127,7.86138 -13.347091,12.29299 -21.93164,10.98437 l -0.04688,-0.008 -0.04883,-0.006 c -2.896298,-0.36331 -5.892208,-1.61308 -8.949218,-3.14258 l -0.722657,-0.36133 -0.804687,-0.0215 c -2.773563,-0.0715 -4.983863,1.70645 -6.103516,3.13086 -1.119652,1.42441 -1.778167,2.70713 -2.142578,3.16406 L 56,916.34961 l -0.04492,0.0644 c -6.816158,9.34836 -22.708913,11.09366 -31.287109,3.29688 l -0.134766,-0.12305 -0.148437,-0.10937 c -0.415419,-0.30692 -1.118786,-1.27943 -2.15625,-2.66797 -1.037465,-1.38855 -2.688262,-3.3273 -5.410157,-4.03125 l -0.351562,-0.0918 -0.363281,-0.0176 c -2.195981,-0.11695 -3.935582,0.49972 -5.244141,0.92969 -1.3085587,0.42996 -2.2053895,0.6745 -2.7890625,0.67187 H 7.9667969 l -0.1015625,0.006 c -3.9810925,0.20761 -8.06654786,-0.58677 -11.7285156,-2.23828 l -2.9765626,6.60156 c 4.6698239,2.10605 9.8297355,3.11115 14.9804688,2.85938 2.095342,-0.0129 3.743834,-0.61579 4.978516,-1.02148 1.023079,-0.33617 1.595993,-0.4264 2.115234,-0.47071 0.282643,0.12628 0.545294,0.27196 1.191406,1.13672 0.751189,1.00539 1.688567,2.6319 3.546875,4.05078 12.080617,10.79671 32.249342,8.55361 41.792969,-4.4707 1.052129,-1.34165 1.659981,-2.54087 2.119141,-3.125 0.170746,-0.21722 0.0566,-0.0835 0.08008,-0.13281 2.956374,1.41639 6.180721,2.75941 9.86914,3.22851 11.687866,1.75661 24.547955,-3.87223 29.591796,-15.22461 l 0.0156,-0.0371 0.0156,-0.0371 c 0.65612,-1.57065 1.06949,-2.96925 1.48633,-3.74218 0.39667,-0.73554 0.34682,-0.64767 0.58984,-0.67969 10.70198,0.39491 21.89164,-4.42065 27.64844,-14.08984 2.33138,-3.01597 2.64447,-6.36864 2.9668,-8.87305 0.30662,-2.38233 0.65168,-3.92392 1.44726,-5.00391 8.23903,-5.10026 13.30706,-14.46576 13.01953,-24.16601 0.30681,-3.85746 -0.86616,-7.12198 -1.86132,-9.87305 -0.92391,-2.55409 -1.61899,-4.67728 -1.72657,-6.60352 1.8588,-5.08668 4.85969,-10.55266 5.72266,-17.26562 1.60437,-8.58096 -2.03479,-16.53125 -6.17188,-22.77344 z"
       id="path3174-3"
       inkscape:connector-curvature="0"
       clip-path="url(#clipPath5469)" />
    <path
       inkscape:connector-curvature="0"
       style="display:inline;fill:#89532f;fill-opacity:1;stroke:none;stroke-width:5.72843838"
       d="m 190.33772,844.07641 c -3.80402,1.26542 -7.74633,2.23351 -11.7426,2.44032 -4.01329,-0.57972 -9.33382,-1.40749 -11.8841,2.89802 -1.50647,4.44469 1.13514,9.23137 3.28898,12.94741 1.76749,4.50083 6.87979,8.34404 11.14397,5.04789 3.98678,-3.14262 6.58943,-7.82848 9.08691,-12.33217 1.86908,-2.9639 4.95207,-8.23234 1.3801,-11.00147 -0.4113,0.17757 -0.88057,-0.43536 -1.27326,0 z"
       id="path4060-2-6" />
    <path
       inkscape:connector-curvature="0"
       id="path4198-1"
       d="m 205.00487,903.44937 c -3.96454,0.87703 -7.64844,2.85334 -11.49096,4.20124 -3.55107,2.25816 -6.062,8.35435 -2.61154,11.86704 3.29127,2.91635 7.78467,3.36603 11.83043,4.13422 3.84757,0.80942 8.4447,-0.16041 10.69598,-3.94003 2.48973,-3.63985 2.26358,-8.88767 -0.16099,-12.48169 -1.71303,-2.93468 -5.16349,-4.31351 -8.26315,-3.78078 z"
       style="display:inline;opacity:1;fill:#89532f;fill-opacity:1;stroke:none;stroke-width:5.72843838" />
    <path
       inkscape:connector-curvature="0"
       id="path4200-8"
       d="m 61.615486,958.36047 c -5.785265,0.29216 -11.485461,3.41357 -14.610382,8.27644 -2.672148,4.57759 0.396981,9.91421 4.406601,12.48914 5.023324,2.8969 11.282903,2.5629 16.194409,-0.40099 5.027277,-2.40708 7.306623,-8.44715 6.361316,-13.74253 -0.47947,-5.91976 -7.653538,-7.02936 -12.351944,-6.6232 z"
       style="display:inline;opacity:1;fill:#89532f;fill-opacity:1;stroke:none;stroke-width:5.72843838" />
    <path
       inkscape:connector-curvature="0"
       id="path4204-7"
       d="m 104.95238,951.8902 c -5.618109,2.63738 -8.157067,9.06927 -6.479952,14.61554 1.663362,5.64021 7.052792,10.52257 13.368442,11.391 6.55009,1.25681 14.65588,-1.12678 17.59221,-7.08436 3.40831,-6.28067 -2.2975,-12.82941 -8.40762,-15.29838 -5.13039,-1.75519 -10.37505,-5.41852 -16.07308,-3.6238 z"
       style="display:inline;opacity:1;fill:#89532f;fill-opacity:1;stroke:none;stroke-width:5.72843838" />
    <path
       inkscape:connector-curvature="0"
       id="path4206-9"
       d="m 129.48528,993.85045 c -5.92058,4.6463 -13.69819,3.8409 -20.65332,4.0912 -8.28698,-1.0248 -10.093217,12.53335 -3.20529,15.85525 5.7285,3.4708 12.58521,4.7203 19.03863,3.0687 7.47258,-1.9196 12.34234,-11.214 9.1163,-18.77835 -0.55738,-1.4064 -2.54515,-5.1138 -4.29632,-4.2368 z"
       style="display:inline;opacity:1;fill:#89532f;fill-opacity:1;stroke:none;stroke-width:5.72843838" />
    <path
       inkscape:connector-curvature="0"
       sodipodi:nodetypes="cscccc"
       id="path4208-2"
       d="m 210.4784,961.64057 c -6.26938,0.063 -10.55219,8.16589 -16.43496,10.95449 -3.68188,1.74545 -7.55695,7.82679 -4.72625,13.86969 4.64302,6.0091 11.62388,5.1017 17.06824,2.5463 6.10273,-1.7071 11.65083,-12.04404 8.88423,-21.95996 -0.93791,-2.3733 -2.80871,-6.26463 -4.79126,-5.41052 z"
       style="display:inline;opacity:1;fill:#89532f;fill-opacity:1;stroke:none;stroke-width:5.72843838" />
    <path
       inkscape:connector-curvature="0"
       id="path4210-0"
       d="m 136.24196,904.61626 c 0.38782,6.0796 7.50547,8.93292 12.85909,8.49414 6.33714,-0.26925 12.13759,-5.09661 13.04594,-11.46834 1.00775,-4.53693 0.22055,-9.8449 -3.1998,-13.16797 -3.82339,-3.32535 -9.25537,-0.92227 -12.88994,1.49226 -4.02905,3.32766 -8.21888,7.56211 -9.71377,12.6484 -0.19593,0.65762 -0.11689,1.33128 -0.10145,2.00151 z"
       style="display:inline;opacity:1;fill:#89532f;fill-opacity:1;stroke:none;stroke-width:5.72843838" />
    <path
       inkscape:connector-curvature="0"
       style="display:inline;fill:#f3d76b;fill-opacity:1;stroke:none;stroke-width:5.5000391;stroke-miterlimit:4;stroke-opacity:1"
       d="m 100.57733,821.47808 c -4.289921,0.80741 -9.798485,4.56174 -8.88009,9.60087 0.881051,4.83454 7.679705,6.28325 11.65403,4.26805 3.90525,-1.98003 4.50882,-8.29187 1.8775,-11.82839 -1.08863,-1.46357 -2.91524,-2.36723 -4.65144,-2.04053 z"
       id="path4235-23"
       sodipodi:nodetypes="cssss" />
    <path
       inkscape:connector-curvature="0"
       style="display:inline;fill:#f3d76b;fill-opacity:1;stroke:none;stroke-width:5.5000391;stroke-miterlimit:4;stroke-opacity:1"
       d="m 46.913729,879.9952 c -4.359771,0.93061 -5.411154,7.16435 -4.466367,11.37133 0.936713,3.81483 4.706991,5.60234 7.947227,5.18984 3.266094,-0.4235 6.368051,-3.77468 6.139248,-7.67146 -1.53e-4,-3.66742 -2.225141,-7.33374 -5.335309,-8.38811 -1.406247,-0.28601 -2.841486,-0.85801 -4.284799,-0.5005 z"
       id="path4235-2-7" />
    <path
       inkscape:connector-curvature="0"
       style="display:inline;fill:#f3d76b;fill-opacity:1;stroke:none;stroke-width:5.5000391;stroke-miterlimit:4;stroke-opacity:1"
       d="m 78.405243,894.25571 c -4.27771,1.87055 -9.622652,5.79374 -8.166678,11.03306 1.633346,5.87734 9.594598,1.75343 13.270493,-1.29526 3.027221,-2.51077 2.658554,-8.03995 -1.077347,-10.00565 -1.027353,-0.53901 -2.956821,-0.19801 -4.026468,0.26949 z"
       id="path4235-6-5"
       sodipodi:nodetypes="cssss" />
    <path
       inkscape:connector-curvature="0"
       style="display:inline;fill:#f3d76b;fill-opacity:1;stroke:none;stroke-width:5.5000391;stroke-miterlimit:4;stroke-opacity:1"
       d="m 120,802.36216 c -4.1506,1.87001 -8.76266,8.98926 -5.10277,13.62965 2.89131,3.66522 9.8333,2.53881 11.33992,-2.70878 1.29972,-4.52707 -1.26918,-13.15884 -6.23715,-10.92087 z"
       id="path4235-5-9"
       sodipodi:nodetypes="csss" />
  </g>
</svg>
