<?xml version="1.0" encoding="UTF-8" standalone="no"?>
<svg
   xmlns:dc="http://purl.org/dc/elements/1.1/"
   xmlns:cc="http://creativecommons.org/ns#"
   xmlns:rdf="http://www.w3.org/1999/02/22-rdf-syntax-ns#"
   xmlns:svg="http://www.w3.org/2000/svg"
   xmlns="http://www.w3.org/2000/svg"
   xmlns:xlink="http://www.w3.org/1999/xlink"
   xmlns:sodipodi="http://sodipodi.sourceforge.net/DTD/sodipodi-0.dtd"
   xmlns:inkscape="http://www.inkscape.org/namespaces/inkscape"
   width="256"
   height="256"
   viewBox="0 0 256 256"
   id="svg2"
   version="1.1"
   inkscape:version="1.0 (4035a4fb49, 2020-05-01)"
   sodipodi:docname="gparted.svg">
  <sodipodi:namedview
     inkscape:document-rotation="0"
     id="base"
     pagecolor="#ffffff"
     bordercolor="#666666"
     borderopacity="1.0"
     inkscape:pageopacity="0.0"
     inkscape:pageshadow="2"
     inkscape:zoom="3.3632812"
     inkscape:cx="128"
     inkscape:cy="128"
     inkscape:document-units="px"
     inkscape:current-layer="layer1"
     showgrid="false"
     units="px"
     inkscape:window-width="1920"
     inkscape:window-height="1048"
     inkscape:window-x="0"
     inkscape:window-y="0"
     inkscape:window-maximized="1" />
  <defs
     id="defs4">
    <clipPath
       clipPathUnits="userSpaceOnUse"
       id="clipPath5002">
      <g
         id="g5004">
        <path
           transform="translate(0,796.36216)"
           inkscape:connector-curvature="0"
           id="path5006"
           d="M 88.118406,249.43519 C 46.103287,235.29134 14.771284,201.68742 4.1335861,159.36053 1.3377997,148.23623 0.92261224,144.16281 0.92582381,127.88908 0.92787958,117.47222 1.134384,112.01362 1.6577819,108.54099 4.4653598,89.913336 12.17654,70.638106 23.042737,55.086148 c 3.958678,-5.665755 8.344812,-10.93092 9.101533,-10.925587 0.32809,0.0023 10.488643,18.309713 22.579009,40.683112 12.090365,22.373397 22.374546,41.334697 22.853732,42.136217 0.479186,0.80151 0.924733,2.44098 0.990103,3.64326 0.343424,6.31639 2.524175,14.20976 5.6424,20.42304 2.954444,5.88693 5.065381,8.73258 10.434696,14.06652 6.71418,6.66995 12.88853,10.28643 21.73204,12.72904 3.16587,0.87442 5.10478,1.05037 11.57517,1.05037 8.82596,0 12.60219,-0.76201 19.26429,-3.88733 2.04584,-0.95974 3.93661,-1.66536 4.20172,-1.56805 0.2651,0.0973 -11.0555,17.66459 -25.1569,39.0384 l -25.6389,38.86148 -3.094121,0.11221 c -2.554618,0.0927 -4.195204,-0.25845 -9.409103,-2.01364 z"
           style="fill:#0f9d58;fill-opacity:1;stroke:none;stroke-width:4.85768509;stroke-linejoin:round;stroke-miterlimit:4;stroke-dasharray:none;stroke-opacity:1" />
        <path
           inkscape:connector-curvature="0"
           id="path5008"
           d="m 112.35984,1051.5167 c -10.0014,-1.4495 -12.15632,-1.8201 -12.531784,-2.1556 -0.248854,-0.2223 1.738304,-3.7475 4.550294,-8.0722 7.16635,-11.0213 49.77231,-74.64801 50.25856,-75.05489 3.57509,-2.99158 8.63523,-8.0414 10.57512,-10.55356 3.36154,-4.35318 7.55784,-12.9141 9.06523,-18.494 6.19314,-22.92535 -2.59253,-47.15185 -21.69967,-59.83688 l -2.96081,-1.96565 17.02469,0.29584 c 9.36358,0.1627 31.17032,0.43384 48.45941,0.60252 l 31.43471,0.30668 1.54584,4.18869 c 2.24597,6.08579 4.67816,15.0947 5.93451,21.9816 1.52517,8.36049 1.92536,28.85896 0.73851,37.82758 -3.0805,23.27845 -12.81326,45.72018 -27.80202,64.10577 -20.47622,25.1166 -51.4599,42.1974 -84.14612,46.3885 -5.31244,0.6812 -26.64601,0.9864 -30.44647,0.4356 z"
           style="fill:#f4b400;fill-opacity:1;stroke:none;stroke-width:4.85768509;stroke-linejoin:round;stroke-miterlimit:4;stroke-dasharray:none;stroke-opacity:1" />
        <path
           transform="translate(0,796.36216)"
           inkscape:connector-curvature="0"
           id="path5010"
           d="M 67.989788,108.87302 C 41.284246,59.575543 33.290284,45.149038 32.233625,44.344765 31.651257,43.901497 32.811213,42.549931 38.695603,36.815353 53.43581,22.450419 68.809334,13.040746 87.839196,6.7360352 101.68742,2.1480329 112.58238,0.43719165 127.95142,0.43719165 c 21.3099,0 37.80488,3.80960275 56.83492,13.12633035 25.29351,12.383198 46.19421,33.578863 58.51993,59.345832 1.61138,3.368591 2.92978,6.372442 2.92978,6.675231 0,0.560033 -10.54865,0.49527 -71.16508,-0.436914 l -24.28843,-0.373518 -3.93063,-1.764495 c -6.75732,-3.033425 -10.64587,-3.839529 -18.6576,-3.867747 -5.0296,-0.01773 -7.97946,0.207636 -10.31642,0.788106 -14.50826,3.603659 -26.283291,12.94777 -33.291614,26.418653 -3.58502,6.89086 -5.24713,13.08166 -6.331628,23.58317 l -0.33738,3.26696 -9.92748,-18.32578 z"
           style="fill:#db4437;fill-opacity:1;stroke:none;stroke-width:10;stroke-linejoin:round;stroke-miterlimit:4;stroke-dasharray:none;stroke-opacity:1" />
      </g>
    </clipPath>
    <radialGradient
       id="SVGID21"
       cx="278.95999"
       cy="216.92"
       r="322.22"
       gradientTransform="matrix(0.7100982,0,0,-0.69667735,-12.931184,1000.262)"
       gradientUnits="userSpaceOnUse">
      <stop
         offset="0.119"
         stop-color="#ffffff"
         id="stop131" />
      <stop
         offset="0.122"
         stop-color="#fffffa"
         id="stop133" />
      <stop
         offset="0.25"
         stop-color="#ffe560"
         id="stop135" />
      <stop
         offset="0.287"
         stop-color="#ffdf56"
         id="stop137" />
      <stop
         offset="0.347"
         stop-color="#f8d03b"
         id="stop139" />
      <stop
         offset="0.406"
         stop-color="#f0be1b"
         id="stop141" />
      <stop
         offset="0.473"
         stop-color="#eb9d23"
         id="stop143" />
      <stop
         offset="0.548"
         stop-color="#e57c27"
         id="stop145" />
      <stop
         offset="0.765"
         stop-color="#dd5626"
         id="stop147" />
      <stop
         offset="0.903"
         stop-color="#c33a28"
         id="stop149" />
      <stop
         offset="1"
         stop-color="#b02228"
         id="stop151" />
    </radialGradient>
    <clipPath
       clipPathUnits="userSpaceOnUse"
       id="clipPath6128">
      <circle
         r="128"
         cy="925.362"
         cx="128"
         id="circle6130"
         style="opacity:1;fill:#4285f4;fill-opacity:1;stroke:none;stroke-width:20.51976967;stroke-linecap:round;stroke-linejoin:round;stroke-miterlimit:4;stroke-dasharray:none;stroke-opacity:1" />
    </clipPath>
    <clipPath
       id="clipPath6618"
       clipPathUnits="userSpaceOnUse">
      <circle
         r="128"
         cy="925.362"
         cx="128"
         id="circle6620"
         style="opacity:1;fill:#4285f4;fill-opacity:1;stroke:none;stroke-width:20.51976967;stroke-linecap:round;stroke-linejoin:round;stroke-miterlimit:4;stroke-dasharray:none;stroke-opacity:1" />
    </clipPath>
    <clipPath
       clipPathUnits="userSpaceOnUse"
       id="clipPath6303">
      <circle
         r="103.42248"
         cy="917.89111"
         cx="129.64604"
         id="circle6305"
         style="opacity:1;fill:#7f76d5;fill-opacity:1;stroke:none;stroke-width:20.51976967;stroke-linecap:round;stroke-linejoin:round;stroke-miterlimit:4;stroke-dasharray:none;stroke-opacity:1" />
    </clipPath>
    <linearGradient
       x1="70.079597"
       y1="104.14981"
       x2="30.154556"
       y2="72.577919"
       id="linearGradient3964"
       xlink:href="#linearGradient9111"
       gradientUnits="userSpaceOnUse"
       gradientTransform="matrix(0.99887757,1.7001398e-4,-1.7001398e-4,0.99887757,74.902565,898.57659)" />
    <linearGradient
       id="linearGradient9111">
      <stop
         id="stop9113"
         style="stop-color:#729fcf;stop-opacity:1"
         offset="0" />
      <stop
         id="stop9115"
         style="stop-color:#ffffff;stop-opacity:1"
         offset="1" />
    </linearGradient>
    <radialGradient
       cx="78.836967"
       cy="65.425926"
       r="36.617115"
       fx="78.836967"
       fy="65.425926"
       id="radialGradient3966"
       xlink:href="#linearGradient9111"
       gradientUnits="userSpaceOnUse"
       gradientTransform="matrix(0.7838606,-0.35445714,0.14592105,0.32269526,83.180084,971.76961)"
       spreadMethod="pad" />
    <linearGradient
       x1="185.18442"
       y1="178.86754"
       x2="185.18442"
       y2="162.24416"
       id="linearGradient3968"
       xlink:href="#linearGradient9111"
       gradientUnits="userSpaceOnUse" />
    <radialGradient
       cx="185.18442"
       cy="162.24416"
       r="8.3116884"
       fx="185.18442"
       fy="162.24416"
       id="radialGradient3970"
       xlink:href="#linearGradient9111"
       gradientUnits="userSpaceOnUse"
       gradientTransform="matrix(1.765929,0,0,3.004776,-141.8381,-325.2632)" />
    <radialGradient
       cx="185.18442"
       cy="162.24416"
       r="8.3116884"
       fx="185.18442"
       fy="162.24416"
       id="radialGradient3974"
       xlink:href="#linearGradient9111"
       gradientUnits="userSpaceOnUse"
       gradientTransform="matrix(1.765929,0,0,3.004776,-141.8381,-325.2632)" />
    <radialGradient
       cx="46.132965"
       cy="72.531746"
       r="0.28773159"
       fx="46.132965"
       fy="72.531746"
       id="radialGradient3976"
       xlink:href="#linearGradient2762"
       gradientUnits="userSpaceOnUse"
       gradientTransform="matrix(5.2209775,-0.4611487,0.56362604,6.3811936,-164.31628,460.89795)" />
    <linearGradient
       id="linearGradient2762">
      <stop
         id="stop2764"
         style="stop-color:#000000;stop-opacity:0.70588237"
         offset="0" />
      <stop
         id="stop4540"
         style="stop-color:#000000;stop-opacity:0.35294119"
         offset="0.40000001" />
      <stop
         id="stop2766"
         style="stop-color:#000000;stop-opacity:0"
         offset="1" />
    </linearGradient>
    <radialGradient
       cx="46.132965"
       cy="72.531746"
       r="0.28773159"
       fx="46.132965"
       fy="72.531746"
       id="radialGradient3978"
       xlink:href="#linearGradient2762"
       gradientUnits="userSpaceOnUse"
       gradientTransform="matrix(5.1716587,0.85158045,-1.0408204,6.3209147,-39.205782,405.03164)" />
    <radialGradient
       cx="47.304798"
       cy="72.108414"
       r="0.50028783"
       fx="47.304798"
       fy="72.108414"
       id="radialGradient3980"
       xlink:href="#linearGradient12684"
       gradientUnits="userSpaceOnUse"
       gradientTransform="matrix(4.9764756,0.24657052,-0.89794109,18.123022,-49.764913,-422.14819)" />
    <linearGradient
       id="linearGradient12684">
      <stop
         id="stop12686"
         style="stop-color:#ffffff;stop-opacity:1"
         offset="0" />
      <stop
         id="stop12692"
         style="stop-color:#ffffff;stop-opacity:0.84536082"
         offset="0.34999999" />
      <stop
         id="stop12688"
         style="stop-color:#ffffff;stop-opacity:0"
         offset="1" />
    </linearGradient>
    <radialGradient
       cx="67.904976"
       cy="141.29233"
       r="21.288834"
       fx="67.904976"
       fy="141.29233"
       id="radialGradient3982"
       xlink:href="#linearGradient9111"
       gradientUnits="userSpaceOnUse"
       gradientTransform="matrix(3.2928969,-0.3347118,0.16776525,1.650469,-101.99239,818.31458)" />
    <linearGradient
       x1="32.877586"
       y1="104.45485"
       x2="82.408028"
       y2="62.983276"
       id="linearGradient3984"
       xlink:href="#linearGradient9111"
       gradientUnits="userSpaceOnUse"
       gradientTransform="matrix(0.99887757,1.7001398e-4,-1.7001398e-4,0.99887757,74.902565,898.57659)" />
    <clipPath
       id="clipPath8646"
       clipPathUnits="userSpaceOnUse">
      <circle
         r="115.93736"
         cy="919.25348"
         cx="130.47743"
         id="circle8648"
         style="opacity:1;fill:#7f76d5;fill-opacity:1;stroke:none;stroke-width:20.51976967;stroke-linecap:round;stroke-linejoin:round;stroke-miterlimit:4;stroke-dasharray:none;stroke-opacity:1" />
    </clipPath>
    <clipPath
       clipPathUnits="userSpaceOnUse"
       id="clipPath4448">
      <circle
         r="128"
         cy="128.00002"
         cx="128"
         id="circle4450"
         style="opacity:1;fill:#8dc458;fill-opacity:1;stroke:none;stroke-width:20.51976967;stroke-linecap:round;stroke-linejoin:round;stroke-miterlimit:4;stroke-dasharray:none;stroke-opacity:1" />
    </clipPath>
    <clipPath
       clipPathUnits="userSpaceOnUse"
       id="clipPath4227">
      <circle
         r="50"
         cy="924.36218"
         cx="98.75238"
         id="circle4229"
         style="fill:#ffffff;fill-opacity:1;stroke:none" />
    </clipPath>
    <clipPath
       clipPathUnits="userSpaceOnUse"
       id="clipPath4233">
      <circle
         r="50"
         cy="924.36218"
         cx="98.75238"
         id="circle4235"
         style="fill:#ffffff;fill-opacity:1;stroke:none" />
    </clipPath>
    <clipPath
       clipPathUnits="userSpaceOnUse"
       id="clipPath4239">
      <circle
         r="50"
         cy="924.36218"
         cx="98.75238"
         id="circle4241"
         style="fill:#ffffff;fill-opacity:1;stroke:none" />
    </clipPath>
    <clipPath
       id="clipPath3553"
       clipPathUnits="userSpaceOnUse">
      <circle
         r="128"
         cy="924.36218"
         cx="128"
         id="circle3555"
         style="opacity:1;fill:#31afe1;fill-opacity:1;stroke:none;stroke-width:20.51976967;stroke-linecap:round;stroke-linejoin:round;stroke-miterlimit:4;stroke-dasharray:none;stroke-opacity:1" />
    </clipPath>
  </defs>
  <metadata
     id="metadata7">
    <rdf:RDF>
      <cc:Work
         rdf:about="">
        <dc:format>image/svg+xml</dc:format>
        <dc:type
           rdf:resource="http://purl.org/dc/dcmitype/StillImage" />
        <dc:title />
      </cc:Work>
    </rdf:RDF>
  </metadata>
  <g
     transform="translate(0,-796.36216)"
     id="layer1"
     inkscape:groupmode="layer"
     inkscape:label="Layer 1">
    <path
       transform="scale(1,-1)"
       id="path901"
       style="opacity:1;fill:#4094b7;fill-opacity:1;stroke:none;stroke-width:20.5198;stroke-linecap:round;stroke-linejoin:round;stroke-miterlimit:4;stroke-dasharray:none;stroke-opacity:1"
       sodipodi:type="arc"
       sodipodi:cx="128"
       sodipodi:cy="-924.36218"
       sodipodi:rx="128"
       sodipodi:ry="128"
       sodipodi:start="0"
       sodipodi:end="3.1415927"
       sodipodi:open="true"
       sodipodi:arc-type="arc"
       d="m 256,-924.36218 a 128,128 0 0 1 -64,110.85125 128,128 0 0 1 -128.000003,0 A 128,128 0 0 1 0,-924.36218" />
    <path
       d="m 256,924.36218 a 128,128 0 0 1 -64,110.85122 128,128 0 0 1 -128.000003,0 A 128,128 0 0 1 0,924.36218"
       sodipodi:arc-type="arc"
       sodipodi:open="true"
       sodipodi:end="3.1415927"
       sodipodi:start="0"
       sodipodi:ry="128"
       sodipodi:rx="128"
       sodipodi:cy="924.36218"
       sodipodi:cx="128"
       sodipodi:type="arc"
       style="opacity:1;fill:#bee7f8;fill-opacity:1;stroke:none;stroke-width:20.5198;stroke-linecap:round;stroke-linejoin:round;stroke-miterlimit:4;stroke-dasharray:none;stroke-opacity:1"
       id="path4152" />
    <circle
       transform="rotate(-81.77873)"
       r="75"
       cy="258.86502"
       cx="-896.5592"
       id="circle4197"
       style="fill:#ebebeb;fill-opacity:1;stroke:none" />
    <path
       transform="matrix(-1.2014305,0.89808945,-0.89808945,-1.2014305,1076.8041,1946.2307)"
       clip-path="url(#clipPath4233)"
       inkscape:connector-curvature="0"
       id="path4201"
       d="m 98.74286,924.60597 -19.748572,-57.78286 -32.914287,35.84 z"
       style="fill:#90d74a;fill-opacity:1;fill-rule:evenodd;stroke:none;stroke-width:0.1;stroke-linecap:butt;stroke-linejoin:miter;stroke-miterlimit:4;stroke-dasharray:none;stroke-opacity:1" />
    <path
       transform="matrix(-1.2014305,0.89808945,-0.89808945,-1.2014305,1076.8041,1946.2307)"
       clip-path="url(#clipPath4239)"
       inkscape:transform-center-y="16.400511"
       inkscape:transform-center-x="-28.558944"
       style="fill:#e24847;fill-opacity:1;fill-rule:evenodd;stroke:none;stroke-width:0.1;stroke-linecap:butt;stroke-linejoin:miter;stroke-miterlimit:4;stroke-dasharray:none;stroke-opacity:1"
       d="m 99.255272,924.70551 45.994188,40.16714 10.58462,-47.4955 z"
       id="path4203"
       inkscape:connector-curvature="0" />
    <path
       transform="matrix(-1.2014305,0.89808945,-0.89808945,-1.2014305,1076.8041,1946.2307)"
       clip-path="url(#clipPath4227)"
       inkscape:connector-curvature="0"
       id="path4205"
       d="m 98.986669,924.36216 -20.236191,-57.53905 63.634292,5.36381 13.16571,46.08 z"
       style="fill:#f79429;fill-opacity:1;fill-rule:evenodd;stroke:none;stroke-width:1px;stroke-linecap:butt;stroke-linejoin:miter;stroke-opacity:1" />
    <circle
       transform="rotate(143.22127)"
       r="10"
       cy="-817.00824"
       cx="450.91788"
       id="circle4207"
       style="fill:#90d74a;fill-opacity:1;stroke:none;stroke-width:0.1;stroke-miterlimit:4;stroke-dasharray:none" />
    <circle
       transform="rotate(143.22127)"
       r="5.1199999"
       cy="-817.00824"
       cx="450.91788"
       id="circle4199"
       style="fill:#ffffff;fill-opacity:1" />
  </g>
</svg>
