<?xml version="1.0" encoding="UTF-8" standalone="no"?>
<svg
   xmlns:dc="http://purl.org/dc/elements/1.1/"
   xmlns:cc="http://creativecommons.org/ns#"
   xmlns:rdf="http://www.w3.org/1999/02/22-rdf-syntax-ns#"
   xmlns:svg="http://www.w3.org/2000/svg"
   xmlns="http://www.w3.org/2000/svg"
   xmlns:sodipodi="http://sodipodi.sourceforge.net/DTD/sodipodi-0.dtd"
   xmlns:inkscape="http://www.inkscape.org/namespaces/inkscape"
   width="273.066666667"
   height="273.066666667"
   viewBox="0.0 0.0 273.066666667 273.066666667"
   id="svg2"
   version="1.1"
   inkscape:version="1.0 (4035a4fb49, 2020-05-01)"
   sodipodi:docname="gpodder.svg">
  <sodipodi:namedview
     inkscape:document-rotation="0"
     id="base"
     pagecolor="#ffffff"
     bordercolor="#666666"
     borderopacity="1.0"
     inkscape:pageopacity="0.0"
     inkscape:pageshadow="2"
     inkscape:zoom="3.1347646"
     inkscape:cx="136.53338"
     inkscape:cy="136.53367"
     inkscape:document-units="px"
     inkscape:current-layer="layer1"
     showgrid="true"
     units="px"
     inkscape:window-width="1920"
     inkscape:window-height="1048"
     inkscape:window-x="0"
     inkscape:window-y="0"
     inkscape:window-maximized="1" />
  <defs
     id="defs4">
    <clipPath
       clipPathUnits="userSpaceOnUse"
       id="clipPath5002">
      <g
         id="g5004">
        <path
           transform="translate(0,796.36216)"
           inkscape:connector-curvature="0"
           id="path5006"
           d="M 88.118406,249.43519 C 46.103287,235.29134 14.771284,201.68742 4.1335861,159.36053 1.3377997,148.23623 0.92261224,144.16281 0.92582381,127.88908 0.92787958,117.47222 1.134384,112.01362 1.6577819,108.54099 4.4653598,89.913336 12.17654,70.638106 23.042737,55.086148 c 3.958678,-5.665755 8.344812,-10.93092 9.101533,-10.925587 0.32809,0.0023 10.488643,18.309713 22.579009,40.683112 12.090365,22.373397 22.374546,41.334697 22.853732,42.136217 0.479186,0.80151 0.924733,2.44098 0.990103,3.64326 0.343424,6.31639 2.524175,14.20976 5.6424,20.42304 2.954444,5.88693 5.065381,8.73258 10.434696,14.06652 6.71418,6.66995 12.88853,10.28643 21.73204,12.72904 3.16587,0.87442 5.10478,1.05037 11.57517,1.05037 8.82596,0 12.60219,-0.76201 19.26429,-3.88733 2.04584,-0.95974 3.93661,-1.66536 4.20172,-1.56805 0.2651,0.0973 -11.0555,17.66459 -25.1569,39.0384 l -25.6389,38.86148 -3.094121,0.11221 c -2.554618,0.0927 -4.195204,-0.25845 -9.409103,-2.01364 z"
           style="fill:#0f9d58;fill-opacity:1;stroke:none;stroke-width:4.85768509;stroke-linejoin:round;stroke-miterlimit:4;stroke-dasharray:none;stroke-opacity:1" />
        <path
           inkscape:connector-curvature="0"
           id="path5008"
           d="m 112.35984,1051.5167 c -10.0014,-1.4495 -12.15632,-1.8201 -12.531784,-2.1556 -0.248854,-0.2223 1.738304,-3.7475 4.550294,-8.0722 7.16635,-11.0213 49.77231,-74.64801 50.25856,-75.05489 3.57509,-2.99158 8.63523,-8.0414 10.57512,-10.55356 3.36154,-4.35318 7.55784,-12.9141 9.06523,-18.494 6.19314,-22.92535 -2.59253,-47.15185 -21.69967,-59.83688 l -2.96081,-1.96565 17.02469,0.29584 c 9.36358,0.1627 31.17032,0.43384 48.45941,0.60252 l 31.43471,0.30668 1.54584,4.18869 c 2.24597,6.08579 4.67816,15.0947 5.93451,21.9816 1.52517,8.36049 1.92536,28.85896 0.73851,37.82758 -3.0805,23.27845 -12.81326,45.72018 -27.80202,64.10577 -20.47622,25.1166 -51.4599,42.1974 -84.14612,46.3885 -5.31244,0.6812 -26.64601,0.9864 -30.44647,0.4356 z"
           style="fill:#f4b400;fill-opacity:1;stroke:none;stroke-width:4.85768509;stroke-linejoin:round;stroke-miterlimit:4;stroke-dasharray:none;stroke-opacity:1" />
        <path
           transform="translate(0,796.36216)"
           inkscape:connector-curvature="0"
           id="path5010"
           d="M 67.989788,108.87302 C 41.284246,59.575543 33.290284,45.149038 32.233625,44.344765 31.651257,43.901497 32.811213,42.549931 38.695603,36.815353 53.43581,22.450419 68.809334,13.040746 87.839196,6.7360352 101.68742,2.1480329 112.58238,0.43719165 127.95142,0.43719165 c 21.3099,0 37.80488,3.80960275 56.83492,13.12633035 25.29351,12.383198 46.19421,33.578863 58.51993,59.345832 1.61138,3.368591 2.92978,6.372442 2.92978,6.675231 0,0.560033 -10.54865,0.49527 -71.16508,-0.436914 l -24.28843,-0.373518 -3.93063,-1.764495 c -6.75732,-3.033425 -10.64587,-3.839529 -18.6576,-3.867747 -5.0296,-0.01773 -7.97946,0.207636 -10.31642,0.788106 -14.50826,3.603659 -26.283291,12.94777 -33.291614,26.418653 -3.58502,6.89086 -5.24713,13.08166 -6.331628,23.58317 l -0.33738,3.26696 -9.92748,-18.32578 z"
           style="fill:#db4437;fill-opacity:1;stroke:none;stroke-width:10;stroke-linejoin:round;stroke-miterlimit:4;stroke-dasharray:none;stroke-opacity:1" />
      </g>
    </clipPath>
    <clipPath
       id="clipPath4253"
       clipPathUnits="userSpaceOnUse">
      <circle
         r="128"
         cy="924.36218"
         cx="128"
         id="circle4255"
         style="fill:#bababa;fill-opacity:1;stroke:none;stroke-width:0.1;stroke-linecap:round;stroke-linejoin:round;stroke-miterlimit:4;stroke-dasharray:none;stroke-opacity:1" />
    </clipPath>
    <clipPath
       clipPathUnits="userSpaceOnUse"
       id="clipPath4350">
      <circle
         r="128"
         cy="924.36218"
         cx="128"
         id="circle4352"
         style="fill:#7e7e7e;fill-opacity:1;stroke:none;stroke-width:0.1;stroke-linecap:round;stroke-linejoin:round;stroke-miterlimit:4;stroke-dasharray:none;stroke-opacity:1" />
    </clipPath>
    <clipPath
       id="clipPath4303"
       clipPathUnits="userSpaceOnUse">
      <circle
         r="128"
         cy="924.36218"
         cx="128"
         id="circle4305"
         style="fill:#a8c6d4;fill-opacity:1;stroke:none;stroke-width:0.1;stroke-linecap:round;stroke-linejoin:round;stroke-miterlimit:4;stroke-dasharray:none;stroke-opacity:1" />
    </clipPath>
    <clipPath
       id="clipPath1290"
       clipPathUnits="userSpaceOnUse">
      <circle
         r="127.99999"
         cy="924.36218"
         cx="127.99999"
         id="circle1292"
         style="fill:#7f5983;fill-opacity:1;stroke:none;stroke-width:0.1;stroke-linecap:round;stroke-linejoin:round;stroke-miterlimit:4;stroke-dasharray:none;stroke-opacity:1" />
    </clipPath>
  </defs>
  <metadata
     id="metadata7">
    <rdf:RDF>
      <cc:Work
         rdf:about="">
        <dc:format>image/svg+xml</dc:format>
        <dc:type
           rdf:resource="http://purl.org/dc/dcmitype/StillImage" />
        <dc:title />
      </cc:Work>
    </rdf:RDF>
  </metadata>
  <g
     transform="matrix(1.066667,0.000000,0.000000,1.066667,0.000000,-849.452971)"
     id="layer1"
     inkscape:groupmode="layer"
     inkscape:label="Layer 1">
    <path
       transform="scale(1,-1)"
       id="path952"
       style="fill:#7f5983;fill-opacity:1;stroke:none;stroke-width:0.1;stroke-linecap:round;stroke-linejoin:round;stroke-miterlimit:4;stroke-dasharray:none;stroke-opacity:1"
       sodipodi:type="arc"
       sodipodi:cx="128"
       sodipodi:cy="-924.36194"
       sodipodi:rx="128"
       sodipodi:ry="128"
       sodipodi:start="0"
       sodipodi:end="3.1415927"
       sodipodi:open="true"
       sodipodi:arc-type="arc"
       d="m 256,-924.36194 a 128,128 0 0 1 -64,110.85125 128,128 0 0 1 -128.000003,0 A 128,128 0 0 1 0,-924.36194" />
    <path
       inkscape:connector-curvature="0"
       id="path4913"
       d="M 154.47438,968.80998 101.03985,1048.476 0.4857685,1048.9618 0,842.0244 l 33.032258,-2.42884 45.176471,83.55218 21.373814,35.4611 26.717267,13.11575 z"
       style="fill:none;fill-rule:evenodd;stroke:none;stroke-width:1px;stroke-linecap:butt;stroke-linejoin:miter;stroke-opacity:1" />
    <path
       d="m 256,924.36218 a 128,128 0 0 1 -64,110.85122 128,128 0 0 1 -128.000003,0 A 128,128 0 0 1 0,924.36218"
       sodipodi:arc-type="arc"
       sodipodi:open="true"
       sodipodi:end="3.1415927"
       sodipodi:start="0"
       sodipodi:ry="128"
       sodipodi:rx="128"
       sodipodi:cy="924.36218"
       sodipodi:cx="128"
       sodipodi:type="arc"
       style="fill:#aa87ae;fill-opacity:1;stroke:none;stroke-width:0.1;stroke-linecap:round;stroke-linejoin:round;stroke-miterlimit:4;stroke-dasharray:none;stroke-opacity:1"
       id="path4152" />
    <path
       id="path4412"
       transform="matrix(0.93749971,0,0,0.93749971,0,796.36191)"
       d="M 108.73828,82.056641 C 95.632452,81.741961 82.991055,108.2978 86.861328,135.29688 c 1.308673,9.12932 4.763875,18.68524 8.238281,22.7871 4.776576,5.63922 11.514471,7.06628 16.824221,3.56446 9.38766,-6.19128 15.47221,-22.23689 15.5039,-40.89063 0.0271,-15.91916 -3.5891,-27.7727 -10.61328,-34.796872 -2.61667,-2.616672 -5.35609,-3.838987 -8.07617,-3.904297 z"
       style="fill:#ffffff;fill-opacity:1;stroke:none;stroke-width:0.1066667;stroke-linecap:round;stroke-linejoin:round;stroke-miterlimit:4;stroke-dasharray:none;stroke-opacity:1" />
    <path
       id="path4414"
       transform="matrix(0.93749971,0,0,0.93749971,0,796.36191)"
       d="m 160.30078,79.742188 c -1.37886,0.06105 -2.77955,0.468025 -4.30469,1.195312 -19.64289,9.367054 -16.472,65.57051 4.41797,78.30859 4.31628,2.63194 7.81861,2.72608 11.89453,0.31836 17.26155,-10.19664 15.84987,-58.62776 -2.18359,-74.919919 -3.86872,-3.495163 -6.79073,-5.036649 -9.82422,-4.902343 z"
       style="fill:#ffffff;fill-opacity:1;stroke:none;stroke-width:0.1066667;stroke-linecap:round;stroke-linejoin:round;stroke-miterlimit:4;stroke-dasharray:none;stroke-opacity:1" />
    <path
       inkscape:connector-curvature="0"
       id="path4416"
       d="m 122.88386,855.4869 c -3.33063,0 -9.07096,6.11714 -10.63294,11.33056 -1.28813,4.29942 -1.24198,4.46266 2.39868,8.49243 12.5363,13.87619 12.89478,50.68912 0.65736,67.58237 -3.16502,4.36918 -3.17861,4.44329 -1.89698,10.89115 1.12528,5.6612 1.06589,6.9266 -0.45776,9.873 -0.98325,1.9014 -3.69337,4.4204 -6.19812,5.7587 -4.1357,2.2097 -5.72102,2.3741 -22.344363,2.3218 -12.324333,-0.039 -20.949363,-0.6263 -27.709342,-1.8879 -5.398014,-1.0073 -10.711879,-1.5473 -11.808468,-1.1993 -4.127021,1.3099 -5.929296,18.5852 -2.283324,21.8848 5.039743,4.5609 19.356599,8.37989 38.117053,10.16599 12.564774,1.1961 63.736224,0.5384 80.518784,-1.0346 31.17814,-2.92239 48.47355,-9.34869 52.75816,-19.60319 1.6992,-4.0668 1.92868,-16.4577 0.35889,-19.3909 -1.45269,-2.7144 -5.00522,-2.5843 -14.79859,0.5438 -19.63049,6.2702 -38.4304,7.475 -44.88829,2.8766 -3.26193,-2.3227 -4.91741,-5.5455 -5.9674,-11.6162 -0.34258,-1.98072 -1.76801,-4.43904 -3.25012,-5.60487 -10.92283,-8.59188 -18.17277,-33.20585 -15.45044,-52.45603 0.67061,-4.74199 2.47272,-11.41457 4.00452,-14.82788 2.77145,-6.1756 2.77695,-6.22853 0.94665,-11.02111 -2.27899,-5.96745 -8.84457,-13.07922 -12.07396,-13.07922 z"
       style="fill:#ffffff;fill-opacity:1;stroke:#ffffff;stroke-width:5.8190608;stroke-linecap:round;stroke-linejoin:round;stroke-miterlimit:4;stroke-dasharray:none;stroke-opacity:1" />
    <path
       inkscape:connector-curvature="0"
       id="path3580"
       d="m 93.104082,952.20852 c -4.409553,-1.95985 -7.312018,-5.40876 -10.605019,-12.60161 l -2.832554,-6.18713 -7.083792,0.65836 -7.083792,0.65838 -1.199059,-10.78258 c -2.633205,-23.67937 -2.651056,-24.08974 -1.090752,-25.0776 0.811937,-0.51406 2.541962,-0.9419 3.844479,-0.95077 2.124087,-0.0145 2.368233,-0.53586 2.368233,-5.0577 0,-29.31688 29.920535,-54.23921 61.663614,-51.36272 14.54338,1.31788 26.52734,6.91943 36.07477,16.86208 6.62905,6.90347 10.87968,14.19696 12.86199,22.06939 1.20005,4.76588 1.31618,4.87262 4.62553,4.25179 l 3.39457,-0.63683 1.24176,10.87598 c 0.68297,5.98179 1.53429,14.30991 1.89181,18.50693 l 0.65006,7.63095 h -3.31208 c -3.73508,0 -3.94148,0.66633 -1.79661,5.79975 2.0656,4.94366 6.46591,7.33248 17.42951,9.462 8.60023,1.67045 9.69197,2.17977 14.80862,6.90838 4.61447,4.26453 5.30894,5.36397 4.21833,6.67807 -1.12771,1.3588 -1.79986,1.07876 -4.9345,-2.05586 -5.49436,-5.49436 -7.53369,-6.47267 -17.24926,-8.2749 -4.92065,-0.91277 -10.13075,-2.53586 -11.578,-3.60688 -3.66693,-2.71367 -7.36781,-8.43104 -7.36781,-11.38231 0,-1.90765 -0.57635,-2.47571 -2.51185,-2.47571 -2.1972,0 -2.59904,0.62628 -3.20791,4.99959 -0.98789,7.09577 -6.34753,17.61967 -10.64131,20.89468 -5.42358,4.13676 -12.81141,4.26579 -18.18027,0.31749 -10.75537,-7.9096 -17.15618,-24.53095 -17.18729,-44.63129 -0.0289,-18.60936 4.84812,-30.65404 14.25597,-35.2083 8.48156,-4.10586 17.77069,0.17282 23.88112,10.99988 4.07244,7.21598 5.75782,8.47646 4.79252,3.58432 -1.05248,-5.33401 -5.35472,-13.57744 -9.79086,-18.76007 -17.57744,-20.53528 -53.45971,-21.57629 -72.901616,-2.11503 -6.045517,6.05155 -9.476511,11.52845 -11.669218,18.62761 -3.903815,12.63911 -1.890618,22.05642 2.164684,10.12592 5.138251,-15.11647 11.946798,-21.70164 22.35445,-21.62102 4.63672,0.0359 5.7633,0.51281 9.24669,3.91424 8.18491,7.99235 12.04792,21.56163 11.21647,39.39908 -0.62306,13.36649 -3.31606,22.538 -9.20891,31.36262 -5.88316,8.81009 -13.58675,11.74131 -21.552718,8.20082 z M 105.211,947.90396 c 4.00066,-2.06882 8.57266,-8.85734 11.69557,-17.36561 2.23011,-6.07589 2.50493,-8.54956 2.45565,-22.10345 -0.0601,-16.51986 -1.04424,-20.87583 -6.49683,-28.75509 -5.22002,-7.54316 -11.15147,-8.84604 -17.927106,-3.9378 -10.717538,7.76374 -16.574573,32.18763 -12.419697,51.79024 3.717084,17.53715 12.655894,25.56181 22.692413,20.37171 z m -8.7682,-17.41122 c -2.917779,-2.29513 -4.513561,-7.75244 -3.47588,-11.88689 1.086058,-4.3272 5.765908,-8.06586 10.0964,-8.06586 9.89036,0 12.72653,14.68066 3.87848,20.07588 -4.25062,2.59186 -7.08976,2.55858 -10.499,-0.12313 z m 65.61431,15.30164 c 11.8573,-6.13164 15.29284,-37.75277 6.31488,-58.1227 -11.1565,-25.31276 -29.14046,-21.77397 -33.71436,6.63412 -2.51779,15.63787 2.59938,37.55281 10.8893,46.63488 5.58541,6.1191 10.99042,7.70809 16.51018,4.8537 z m -13.81477,-16.42894 c -1.87937,-1.87937 -2.15012,-3.13393 -1.74098,-8.0675 0.42126,-5.07983 0.98426,-6.30008 4.31508,-9.35255 4.66207,-4.27247 8.18872,-4.50558 11.15294,-0.73719 2.53937,3.22828 2.81461,8.40955 0.71385,13.4374 -2.80002,6.7014 -10.07997,9.08076 -14.44089,4.71984 z"
       style="fill:#383838;fill-opacity:1;stroke-width:1.05254483" />
  </g>
</svg>
