<?xml version="1.0" encoding="UTF-8" standalone="no"?>
<svg
   xmlns:dc="http://purl.org/dc/elements/1.1/"
   xmlns:cc="http://creativecommons.org/ns#"
   xmlns:rdf="http://www.w3.org/1999/02/22-rdf-syntax-ns#"
   xmlns:svg="http://www.w3.org/2000/svg"
   xmlns="http://www.w3.org/2000/svg"
   xmlns:sodipodi="http://sodipodi.sourceforge.net/DTD/sodipodi-0.dtd"
   xmlns:inkscape="http://www.inkscape.org/namespaces/inkscape"
   width="256"
   height="256"
   viewBox="0 0 256 256"
   id="svg2"
   version="1.1"
   inkscape:version="1.0 (4035a4fb49, 2020-05-01)"
   sodipodi:docname="gtranslator.svg">
  <sodipodi:namedview
     inkscape:document-rotation="0"
     id="base"
     pagecolor="#ffffff"
     bordercolor="#666666"
     borderopacity="1.0"
     inkscape:pageopacity="0.0"
     inkscape:pageshadow="2"
     inkscape:zoom="3.34375"
     inkscape:cx="128"
     inkscape:cy="128.00002"
     inkscape:document-units="px"
     inkscape:current-layer="layer1"
     showgrid="true"
     units="px"
     inkscape:window-width="1920"
     inkscape:window-height="1048"
     inkscape:window-x="0"
     inkscape:window-y="0"
     inkscape:window-maximized="1" />
  <defs
     id="defs4">
    <clipPath
       clipPathUnits="userSpaceOnUse"
       id="clipPath5002">
      <g
         id="g5004">
        <path
           transform="translate(0,796.36216)"
           inkscape:connector-curvature="0"
           id="path5006"
           d="M 88.118406,249.43519 C 46.103287,235.29134 14.771284,201.68742 4.1335861,159.36053 1.3377997,148.23623 0.92261224,144.16281 0.92582381,127.88908 0.92787958,117.47222 1.134384,112.01362 1.6577819,108.54099 4.4653598,89.913336 12.17654,70.638106 23.042737,55.086148 c 3.958678,-5.665755 8.344812,-10.93092 9.101533,-10.925587 0.32809,0.0023 10.488643,18.309713 22.579009,40.683112 12.090365,22.373397 22.374546,41.334697 22.853732,42.136217 0.479186,0.80151 0.924733,2.44098 0.990103,3.64326 0.343424,6.31639 2.524175,14.20976 5.6424,20.42304 2.954444,5.88693 5.065381,8.73258 10.434696,14.06652 6.71418,6.66995 12.88853,10.28643 21.73204,12.72904 3.16587,0.87442 5.10478,1.05037 11.57517,1.05037 8.82596,0 12.60219,-0.76201 19.26429,-3.88733 2.04584,-0.95974 3.93661,-1.66536 4.20172,-1.56805 0.2651,0.0973 -11.0555,17.66459 -25.1569,39.0384 l -25.6389,38.86148 -3.094121,0.11221 c -2.554618,0.0927 -4.195204,-0.25845 -9.409103,-2.01364 z"
           style="fill:#0f9d58;fill-opacity:1;stroke:none;stroke-width:4.85768509;stroke-linejoin:round;stroke-miterlimit:4;stroke-dasharray:none;stroke-opacity:1" />
        <path
           inkscape:connector-curvature="0"
           id="path5008"
           d="m 112.35984,1051.5167 c -10.0014,-1.4495 -12.15632,-1.8201 -12.531784,-2.1556 -0.248854,-0.2223 1.738304,-3.7475 4.550294,-8.0722 7.16635,-11.0213 49.77231,-74.64801 50.25856,-75.05489 3.57509,-2.99158 8.63523,-8.0414 10.57512,-10.55356 3.36154,-4.35318 7.55784,-12.9141 9.06523,-18.494 6.19314,-22.92535 -2.59253,-47.15185 -21.69967,-59.83688 l -2.96081,-1.96565 17.02469,0.29584 c 9.36358,0.1627 31.17032,0.43384 48.45941,0.60252 l 31.43471,0.30668 1.54584,4.18869 c 2.24597,6.08579 4.67816,15.0947 5.93451,21.9816 1.52517,8.36049 1.92536,28.85896 0.73851,37.82758 -3.0805,23.27845 -12.81326,45.72018 -27.80202,64.10577 -20.47622,25.1166 -51.4599,42.1974 -84.14612,46.3885 -5.31244,0.6812 -26.64601,0.9864 -30.44647,0.4356 z"
           style="fill:#f4b400;fill-opacity:1;stroke:none;stroke-width:4.85768509;stroke-linejoin:round;stroke-miterlimit:4;stroke-dasharray:none;stroke-opacity:1" />
        <path
           transform="translate(0,796.36216)"
           inkscape:connector-curvature="0"
           id="path5010"
           d="M 67.989788,108.87302 C 41.284246,59.575543 33.290284,45.149038 32.233625,44.344765 31.651257,43.901497 32.811213,42.549931 38.695603,36.815353 53.43581,22.450419 68.809334,13.040746 87.839196,6.7360352 101.68742,2.1480329 112.58238,0.43719165 127.95142,0.43719165 c 21.3099,0 37.80488,3.80960275 56.83492,13.12633035 25.29351,12.383198 46.19421,33.578863 58.51993,59.345832 1.61138,3.368591 2.92978,6.372442 2.92978,6.675231 0,0.560033 -10.54865,0.49527 -71.16508,-0.436914 l -24.28843,-0.373518 -3.93063,-1.764495 c -6.75732,-3.033425 -10.64587,-3.839529 -18.6576,-3.867747 -5.0296,-0.01773 -7.97946,0.207636 -10.31642,0.788106 -14.50826,3.603659 -26.283291,12.94777 -33.291614,26.418653 -3.58502,6.89086 -5.24713,13.08166 -6.331628,23.58317 l -0.33738,3.26696 -9.92748,-18.32578 z"
           style="fill:#db4437;fill-opacity:1;stroke:none;stroke-width:10;stroke-linejoin:round;stroke-miterlimit:4;stroke-dasharray:none;stroke-opacity:1" />
      </g>
    </clipPath>
    <clipPath
       id="clipPath4253"
       clipPathUnits="userSpaceOnUse">
      <circle
         r="128"
         cy="924.36218"
         cx="128"
         id="circle4255"
         style="fill:#bababa;fill-opacity:1;stroke:none;stroke-width:0.1;stroke-linecap:round;stroke-linejoin:round;stroke-miterlimit:4;stroke-dasharray:none;stroke-opacity:1" />
    </clipPath>
    <clipPath
       clipPathUnits="userSpaceOnUse"
       id="clipPath4350">
      <circle
         r="128"
         cy="924.36218"
         cx="128"
         id="circle4352"
         style="fill:#7e7e7e;fill-opacity:1;stroke:none;stroke-width:0.1;stroke-linecap:round;stroke-linejoin:round;stroke-miterlimit:4;stroke-dasharray:none;stroke-opacity:1" />
    </clipPath>
    <clipPath
       id="clipPath4784"
       clipPathUnits="userSpaceOnUse">
      <circle
         r="128"
         cy="128.00002"
         cx="128"
         id="circle4786"
         style="fill:#ade774;fill-opacity:1;stroke:none;stroke-width:0.1;stroke-linecap:round;stroke-linejoin:round;stroke-miterlimit:4;stroke-dasharray:none;stroke-opacity:1" />
    </clipPath>
  </defs>
  <metadata
     id="metadata7">
    <rdf:RDF>
      <cc:Work
         rdf:about="">
        <dc:format>image/svg+xml</dc:format>
        <dc:type
           rdf:resource="http://purl.org/dc/dcmitype/StillImage" />
        <dc:title />
      </cc:Work>
    </rdf:RDF>
  </metadata>
  <g
     transform="translate(0,-796.36216)"
     id="layer1"
     inkscape:groupmode="layer"
     inkscape:label="Layer 1">
    <path
       transform="scale(1,-1)"
       id="path886"
       style="fill:#427a0c;fill-opacity:1;stroke:none;stroke-width:0.1;stroke-linecap:round;stroke-linejoin:round;stroke-miterlimit:4;stroke-dasharray:none;stroke-opacity:1"
       sodipodi:type="arc"
       sodipodi:cx="128"
       sodipodi:cy="-924.36218"
       sodipodi:rx="128"
       sodipodi:ry="128"
       sodipodi:start="0"
       sodipodi:end="3.1415927"
       sodipodi:open="true"
       sodipodi:arc-type="arc"
       d="m 256,-924.36218 a 128,128 0 0 1 -64,110.85125 128,128 0 0 1 -128.000003,0 A 128,128 0 0 1 0,-924.36218" />
    <path
       inkscape:connector-curvature="0"
       id="path4913"
       d="M 154.47438,968.80998 101.03985,1048.476 0.4857685,1048.9618 0,842.0244 l 33.032258,-2.42884 45.176471,83.55218 21.373814,35.4611 26.717267,13.11575 z"
       style="fill:none;fill-rule:evenodd;stroke:none;stroke-width:1px;stroke-linecap:butt;stroke-linejoin:miter;stroke-opacity:1" />
    <path
       d="m 256,924.36218 a 128,128 0 0 1 -64,110.85122 128,128 0 0 1 -128.000003,0 A 128,128 0 0 1 0,924.36218"
       sodipodi:arc-type="arc"
       sodipodi:open="true"
       sodipodi:end="3.1415927"
       sodipodi:start="0"
       sodipodi:ry="128"
       sodipodi:rx="128"
       sodipodi:cy="924.36218"
       sodipodi:cx="128"
       sodipodi:type="arc"
       style="fill:#ade774;fill-opacity:1;stroke:none;stroke-width:0.1;stroke-linecap:round;stroke-linejoin:round;stroke-miterlimit:4;stroke-dasharray:none;stroke-opacity:1"
       id="path4152" />
    <path
       style="font-style:normal;font-weight:normal;font-size:medium;line-height:125%;font-family:sans-serif;letter-spacing:0px;word-spacing:0px;fill:#ffffff;fill-opacity:1;stroke:none;stroke-width:1px;stroke-linecap:butt;stroke-linejoin:miter;stroke-opacity:1"
       d="m 165.81836,850.80357 c -12.16582,0 -22.05719,3.92918 -29.67578,11.78711 -7.65849,7.85792 -11.48828,18.12813 -11.48828,30.8125 0,7.33938 1.43666,13.98052 4.30859,19.92382 2.91182,5.9433 7.51802,11.688 13.82031,17.23243 l -19.08593,0 0,10.65039 35.89843,0 0,-10.65039 c -7.10005,-3.86914 -12.64402,-9.11494 -16.63281,-15.73633 -3.94891,-6.6214 -5.92383,-13.96022 -5.92383,-22.01758 0,-9.53322 2.63323,-17.19281 7.89844,-22.97656 5.3051,-5.82364 12.26506,-8.73438 20.88086,-8.73438 8.61579,0 15.55705,2.89203 20.82226,8.67578 5.26522,5.78375 7.89649,13.46205 7.89649,23.03516 0,8.05736 -1.97297,15.39618 -5.92188,22.01758 -3.9489,6.62139 -9.4535,11.86719 -16.51367,15.73633 l 0,10.65039 35.89844,0 0,-10.65039 -19.14648,0 c 6.42196,-5.62421 11.04881,-11.38956 13.88086,-17.29297 2.83204,-5.90342 4.24804,-12.72268 4.24804,-20.46094 0,-12.32538 -3.82784,-22.39681 -11.48633,-30.21484 -7.69837,-7.85793 -17.59169,-11.78711 -29.67773,-11.78711 z M 82.720703,906.97935 48,997.92075 l 12.974609,0 8.283203,-23.32812 40.994138,0 8.28516,23.32812 12.79101,0 -34.658198,-90.9414 -13.949219,0 z m 6.943359,12.12109 16.751958,45.25781 -33.441411,0 16.689453,-45.25781 z"
       id="path4179"
       inkscape:connector-curvature="0" />
  </g>
</svg>
