<?xml version="1.0" encoding="UTF-8" standalone="no"?>
<svg
   xmlns:dc="http://purl.org/dc/elements/1.1/"
   xmlns:cc="http://creativecommons.org/ns#"
   xmlns:rdf="http://www.w3.org/1999/02/22-rdf-syntax-ns#"
   xmlns:svg="http://www.w3.org/2000/svg"
   xmlns="http://www.w3.org/2000/svg"
   xmlns:sodipodi="http://sodipodi.sourceforge.net/DTD/sodipodi-0.dtd"
   xmlns:inkscape="http://www.inkscape.org/namespaces/inkscape"
   width="256"
   height="256"
   viewBox="0 0 256 256"
   id="svg2"
   version="1.1"
   inkscape:version="1.0 (4035a4fb49, 2020-05-01)"
   sodipodi:docname="gwenview.svg">
  <sodipodi:namedview
     inkscape:document-rotation="0"
     id="base"
     pagecolor="#ffffff"
     bordercolor="#666666"
     borderopacity="1.0"
     inkscape:pageopacity="0.0"
     inkscape:pageshadow="2"
     inkscape:zoom="3.34375"
     inkscape:cx="128"
     inkscape:cy="128.00002"
     inkscape:document-units="px"
     inkscape:current-layer="layer1"
     showgrid="true"
     units="px"
     inkscape:window-width="1920"
     inkscape:window-height="1048"
     inkscape:window-x="0"
     inkscape:window-y="0"
     inkscape:window-maximized="1">
    <inkscape:grid
       spacingy="5"
       spacingx="5"
       id="grid4168"
       type="xygrid" />
  </sodipodi:namedview>
  <defs
     id="defs4">
    <inkscape:path-effect
       effect="skeletal"
       id="path-effect868"
       is_visible="true"
       pattern="m 0,48.10459 c 0,-2.76 2.24,-5 5,-5 2.76,0 5,2.24 5,5 0,2.76 -2.24,5 -5,5 -2.76,0 -5,-2.24 -5,-5 z"
       copytype="single_stretched"
       prop_scale="7.3208695"
       scale_y_rel="false"
       spacing="0"
       normal_offset="0"
       tang_offset="0"
       prop_units="false"
       vertical_pattern="false"
       fuse_tolerance="0" />
    <clipPath
       id="clipPath5002"
       clipPathUnits="userSpaceOnUse">
      <g
         id="g5004">
        <path
           style="fill:#0f9d58;fill-opacity:1;stroke:none;stroke-width:4.85768509;stroke-linejoin:round;stroke-miterlimit:4;stroke-dasharray:none;stroke-opacity:1"
           d="M 88.118406,249.43519 C 46.103287,235.29134 14.771284,201.68742 4.1335861,159.36053 1.3377997,148.23623 0.92261224,144.16281 0.92582381,127.88908 0.92787958,117.47222 1.134384,112.01362 1.6577819,108.54099 4.4653598,89.913336 12.17654,70.638106 23.042737,55.086148 c 3.958678,-5.665755 8.344812,-10.93092 9.101533,-10.925587 0.32809,0.0023 10.488643,18.309713 22.579009,40.683112 12.090365,22.373397 22.374546,41.334697 22.853732,42.136217 0.479186,0.80151 0.924733,2.44098 0.990103,3.64326 0.343424,6.31639 2.524175,14.20976 5.6424,20.42304 2.954444,5.88693 5.065381,8.73258 10.434696,14.06652 6.71418,6.66995 12.88853,10.28643 21.73204,12.72904 3.16587,0.87442 5.10478,1.05037 11.57517,1.05037 8.82596,0 12.60219,-0.76201 19.26429,-3.88733 2.04584,-0.95974 3.93661,-1.66536 4.20172,-1.56805 0.2651,0.0973 -11.0555,17.66459 -25.1569,39.0384 l -25.6389,38.86148 -3.094121,0.11221 c -2.554618,0.0927 -4.195204,-0.25845 -9.409103,-2.01364 z"
           id="path5006"
           inkscape:connector-curvature="0"
           transform="translate(0,796.36216)" />
        <path
           style="fill:#f4b400;fill-opacity:1;stroke:none;stroke-width:4.85768509;stroke-linejoin:round;stroke-miterlimit:4;stroke-dasharray:none;stroke-opacity:1"
           d="m 112.35984,1051.5167 c -10.0014,-1.4495 -12.15632,-1.8201 -12.531784,-2.1556 -0.248854,-0.2223 1.738304,-3.7475 4.550294,-8.0722 7.16635,-11.0213 49.77231,-74.64801 50.25856,-75.05489 3.57509,-2.99158 8.63523,-8.0414 10.57512,-10.55356 3.36154,-4.35318 7.55784,-12.9141 9.06523,-18.494 6.19314,-22.92535 -2.59253,-47.15185 -21.69967,-59.83688 l -2.96081,-1.96565 17.02469,0.29584 c 9.36358,0.1627 31.17032,0.43384 48.45941,0.60252 l 31.43471,0.30668 1.54584,4.18869 c 2.24597,6.08579 4.67816,15.0947 5.93451,21.9816 1.52517,8.36049 1.92536,28.85896 0.73851,37.82758 -3.0805,23.27845 -12.81326,45.72018 -27.80202,64.10577 -20.47622,25.1166 -51.4599,42.1974 -84.14612,46.3885 -5.31244,0.6812 -26.64601,0.9864 -30.44647,0.4356 z"
           id="path5008"
           inkscape:connector-curvature="0" />
        <path
           style="fill:#db4437;fill-opacity:1;stroke:none;stroke-width:10;stroke-linejoin:round;stroke-miterlimit:4;stroke-dasharray:none;stroke-opacity:1"
           d="M 67.989788,108.87302 C 41.284246,59.575543 33.290284,45.149038 32.233625,44.344765 31.651257,43.901497 32.811213,42.549931 38.695603,36.815353 53.43581,22.450419 68.809334,13.040746 87.839196,6.7360352 101.68742,2.1480329 112.58238,0.43719165 127.95142,0.43719165 c 21.3099,0 37.80488,3.80960275 56.83492,13.12633035 25.29351,12.383198 46.19421,33.578863 58.51993,59.345832 1.61138,3.368591 2.92978,6.372442 2.92978,6.675231 0,0.560033 -10.54865,0.49527 -71.16508,-0.436914 l -24.28843,-0.373518 -3.93063,-1.764495 c -6.75732,-3.033425 -10.64587,-3.839529 -18.6576,-3.867747 -5.0296,-0.01773 -7.97946,0.207636 -10.31642,0.788106 -14.50826,3.603659 -26.283291,12.94777 -33.291614,26.418653 -3.58502,6.89086 -5.24713,13.08166 -6.331628,23.58317 l -0.33738,3.26696 -9.92748,-18.32578 z"
           id="path5010"
           inkscape:connector-curvature="0"
           transform="translate(0,796.36216)" />
      </g>
    </clipPath>
    <clipPath
       clipPathUnits="userSpaceOnUse"
       id="clipPath4271">
      <circle
         style="fill:#292929;fill-opacity:0.26020412;stroke:none;stroke-width:10;stroke-linejoin:round;stroke-miterlimit:4;stroke-dasharray:none;stroke-opacity:0.25882353"
         id="circle4273"
         cx="128"
         cy="128.00002"
         r="128" />
    </clipPath>
    <clipPath
       id="clipPath4363"
       clipPathUnits="userSpaceOnUse">
      <circle
         style="fill:#4285f4;fill-opacity:1;stroke:none;stroke-width:10;stroke-linejoin:round;stroke-miterlimit:4;stroke-dasharray:none;stroke-opacity:0.25882353"
         id="circle4365"
         cx="128"
         cy="924.36218"
         r="128" />
    </clipPath>
    <clipPath
       clipPathUnits="userSpaceOnUse"
       id="clipPath4452">
      <circle
         style="fill:#4285f4;fill-opacity:1;stroke:none;stroke-width:10;stroke-linejoin:round;stroke-miterlimit:4;stroke-dasharray:none;stroke-opacity:0.25882353"
         id="circle4454"
         cx="128"
         cy="924.36218"
         r="128" />
    </clipPath>
    <clipPath
       id="clipPath5177"
       clipPathUnits="userSpaceOnUse">
      <circle
         style="fill:#4285f4;fill-opacity:1;stroke:none;stroke-width:10;stroke-linejoin:round;stroke-miterlimit:4;stroke-dasharray:none;stroke-opacity:0.25882353"
         id="circle5179"
         cx="128"
         cy="924.36218"
         r="128" />
    </clipPath>
    <clipPath
       clipPathUnits="userSpaceOnUse"
       id="clipPath4342">
      <circle
         style="fill:#4285f4;fill-opacity:1;stroke:none;stroke-width:10;stroke-linejoin:round;stroke-miterlimit:4;stroke-dasharray:none;stroke-opacity:0.25882353"
         id="circle4344"
         cx="128"
         cy="933.48718"
         r="128" />
    </clipPath>
    <clipPath
       id="clipPath4681"
       clipPathUnits="userSpaceOnUse">
      <circle
         style="fill:#9d5fad;fill-opacity:1;stroke:none;stroke-width:10;stroke-linejoin:round;stroke-miterlimit:4;stroke-dasharray:none;stroke-opacity:0.25882353"
         id="circle4683"
         cx="127.00293"
         cy="930.43964"
         r="128" />
    </clipPath>
    <clipPath
       clipPathUnits="userSpaceOnUse"
       id="clipPath4235">
      <circle
         style="fill:#0f9d58;fill-opacity:1;stroke:none;stroke-width:10;stroke-linejoin:round;stroke-miterlimit:4;stroke-dasharray:none;stroke-opacity:0.25882353"
         id="circle4237"
         cx="128"
         cy="924.36218"
         r="128" />
    </clipPath>
    <clipPath
       id="clipPath4771"
       clipPathUnits="userSpaceOnUse">
      <circle
         style="fill:#0f9d58;fill-opacity:1;stroke:none;stroke-width:10;stroke-linejoin:round;stroke-miterlimit:4;stroke-dasharray:none;stroke-opacity:0.25882353"
         id="circle4773"
         cx="128"
         cy="924.36218"
         r="128" />
    </clipPath>
    <clipPath
       clipPathUnits="userSpaceOnUse"
       id="clipPath4842">
      <circle
         style="fill:#0f9d58;fill-opacity:1;stroke:none;stroke-width:10;stroke-linejoin:round;stroke-miterlimit:4;stroke-dasharray:none;stroke-opacity:0.25882353"
         id="circle4844"
         cx="128"
         cy="924.36218"
         r="128" />
    </clipPath>
    <clipPath
       id="clipPath4458"
       clipPathUnits="userSpaceOnUse">
      <circle
         style="fill:#ff3b38;fill-opacity:1;stroke:none;stroke-width:10;stroke-linejoin:round;stroke-miterlimit:4;stroke-dasharray:none;stroke-opacity:0.25882353"
         id="circle4460"
         cx="128"
         cy="924.36218"
         r="128" />
    </clipPath>
    <clipPath
       clipPathUnits="userSpaceOnUse"
       id="clipPath4783">
      <circle
         style="fill:#ff3b38;fill-opacity:1;stroke:none;stroke-width:10;stroke-linejoin:round;stroke-miterlimit:4;stroke-dasharray:none;stroke-opacity:0.25882353"
         id="circle4785"
         cx="128"
         cy="924.36218"
         r="128" />
    </clipPath>
    <clipPath
       id="clipPath4789"
       clipPathUnits="userSpaceOnUse">
      <circle
         style="fill:#80b4ff;fill-opacity:1;stroke:none;stroke-width:10;stroke-linejoin:round;stroke-miterlimit:4;stroke-dasharray:none;stroke-opacity:0.25882353"
         id="circle4791"
         cx="102.64714"
         cy="924.36218"
         r="128" />
    </clipPath>
    <clipPath
       clipPathUnits="userSpaceOnUse"
       id="clipPath4721">
      <circle
         style="fill:#557ae6;fill-opacity:1;stroke:none;stroke-width:10;stroke-linejoin:round;stroke-miterlimit:4;stroke-dasharray:none;stroke-opacity:0.25882353"
         id="circle4723"
         cx="128"
         cy="924.36218"
         r="128" />
    </clipPath>
    <clipPath
       id="clipPath4491"
       clipPathUnits="userSpaceOnUse">
      <circle
         style="fill:#990000;fill-opacity:1;stroke:none;stroke-width:10;stroke-linejoin:round;stroke-miterlimit:4;stroke-dasharray:none;stroke-opacity:0.25882353"
         id="circle4493"
         cx="128"
         cy="924.36218"
         r="128" />
    </clipPath>
    <clipPath
       clipPathUnits="userSpaceOnUse"
       id="clipPath1102">
      <circle
         style="fill:#b40000;fill-opacity:1;stroke:none;stroke-width:10;stroke-linejoin:round;stroke-miterlimit:4;stroke-dasharray:none;stroke-opacity:0.25882353"
         id="circle1104"
         cx="128"
         cy="924.36218"
         r="128" />
    </clipPath>
    <clipPath
       clipPathUnits="userSpaceOnUse"
       id="clipPath1102-3">
      <circle
         style="fill:#b40000;fill-opacity:1;stroke:none;stroke-width:10;stroke-linejoin:round;stroke-miterlimit:4;stroke-dasharray:none;stroke-opacity:0.25882353"
         id="circle1104-6"
         cx="128"
         cy="924.36218"
         r="128" />
    </clipPath>
    <clipPath
       id="clipPath5112"
       clipPathUnits="userSpaceOnUse">
      <circle
         style="fill:#fc00c1;fill-opacity:1;stroke:none;stroke-width:10;stroke-linejoin:round;stroke-miterlimit:4;stroke-dasharray:none;stroke-opacity:0.25882353"
         id="circle5114"
         cx="133.43396"
         cy="929.94708"
         r="128" />
    </clipPath>
  </defs>
  <metadata
     id="metadata7">
    <rdf:RDF>
      <cc:Work
         rdf:about="">
        <dc:format>image/svg+xml</dc:format>
        <dc:type
           rdf:resource="http://purl.org/dc/dcmitype/StillImage" />
        <dc:title />
      </cc:Work>
    </rdf:RDF>
  </metadata>
  <g
     inkscape:label="Layer 1"
     inkscape:groupmode="layer"
     id="layer1"
     transform="translate(0,-796.36216)">
    <path
       transform="scale(1,-1)"
       style="fill:#b00087;fill-opacity:1;stroke:none;stroke-width:10;stroke-linejoin:round;stroke-miterlimit:4;stroke-dasharray:none;stroke-opacity:0.258824"
       id="path1000"
       sodipodi:type="arc"
       sodipodi:cx="128"
       sodipodi:cy="-924.36218"
       sodipodi:rx="128"
       sodipodi:ry="128"
       sodipodi:start="0"
       sodipodi:end="3.1415927"
       sodipodi:open="true"
       sodipodi:arc-type="arc"
       d="m 256,-924.36218 a 128,128 0 0 1 -64,110.85125 128,128 0 0 1 -128.000003,0 A 128,128 0 0 1 0,-924.36218" />
    <path
       d="m 256,924.36218 a 128,128 0 0 1 -64,110.85122 128,128 0 0 1 -128.000003,0 A 128,128 0 0 1 0,924.36218"
       sodipodi:arc-type="arc"
       sodipodi:open="true"
       sodipodi:end="3.1415927"
       sodipodi:start="0"
       sodipodi:ry="128"
       sodipodi:rx="128"
       sodipodi:cy="924.36218"
       sodipodi:cx="128"
       sodipodi:type="arc"
       id="path4152"
       style="fill:#fc00c1;fill-opacity:1;stroke:none;stroke-width:10;stroke-linejoin:round;stroke-miterlimit:4;stroke-dasharray:none;stroke-opacity:0.258824" />
    <g
       id="text922"
       style="font-style:normal;font-variant:normal;font-weight:normal;font-stretch:normal;font-size:192px;line-height:25px;font-family:sans-serif;-inkscape-font-specification:sans-serif;letter-spacing:0px;word-spacing:0px;fill:#8b1616;fill-opacity:1;stroke:none"
       aria-label="Z"
       clip-path="url(#clipPath1102-3)"
       transform="translate(0,-4.5234374e-5)" />
    <path
       id="path4593"
       transform="translate(0,796.36216)"
       d="M 126.05469 53.019531 C 121.94047 53.101775 117.82196 53.44592 113.72461 54.054688 C 96.411898 56.626978 79.829332 64.073441 66.326172 75.337891 C 61.907612 79.023881 57.340159 83.601267 53.693359 87.998047 C 45.659179 97.684467 39.444248 109.21786 35.798828 121.20508 L 35.957031 121.76758 C 40.317341 137.62942 48.927109 150.16032 62.511719 160.41992 C 71.440189 167.16303 80.748572 171.90767 93.044922 175.97656 C 101.60068 178.80766 107.2294 179.82968 118.60547 180.62305 C 126.59169 181.18001 142.48106 180.84129 148.8125 179.98047 C 151.52123 179.61218 153.79293 179.37105 153.86133 179.43945 C 154.12812 179.70624 151.28762 180.61236 148.30078 181.21484 C 145.62463 181.75465 142.67369 182.08953 135.89258 182.62891 C 135.18914 182.68483 130.58435 182.75831 125.66016 182.78711 C 108.59068 182.8871 99.677121 181.68122 88.306641 177.73828 C 72.866921 172.38422 58.620712 163.21624 49.726562 152.91406 C 46.399462 149.06025 44.329218 146.06986 41.861328 141.54102 C 39.575758 137.34673 37.499277 134.42247 36.304688 133.7168 C 35.717818 133.12217 35.20107 131.98912 34.796875 130.875 C 35.006787 131.73937 35.239132 132.72313 35.542969 134.07617 C 39.575569 147.56878 46.212091 159.52561 55.738281 170.44922 C 58.430551 173.53639 63.479132 178.37785 67.107422 181.35156 C 70.132032 183.83051 74.902682 187.17764 78.294922 189.20703 C 93.592922 198.35856 110.87189 203.12133 128.3418 202.99805 C 129.91468 202.99805 131.53363 202.96246 131.94141 202.94336 C 149.71775 202.18033 167.1659 196.43744 181.83008 186.51758 C 189.87693 181.07421 197.17996 174.3455 203.24023 166.79492 C 209.53718 158.94948 214.74062 149.8017 218.24023 140.41992 C 219.5773 136.83548 220.904 132.51142 221.69336 129.18555 L 221.99219 127.93555 L 221.48633 125.93359 C 213.29068 93.484514 188.94731 67.627725 157.04297 57.484375 C 148.35461 54.722095 139.29533 53.228067 130.16602 53.023438 C 128.79662 52.992742 127.42609 52.992117 126.05469 53.019531 z M 34.796875 130.875 C 33.59144 125.9113 33.852904 128.27305 34.796875 130.875 z M 127.27148 71.925781 C 128.15058 71.90398 129.05931 71.907341 129.9707 71.931641 C 131.79349 71.980211 133.62324 72.119877 135.22461 72.341797 C 142.58434 73.361747 149.75051 76.214151 155.875 80.550781 C 156.58191 81.051321 157.34495 81.725233 158.15234 82.376953 C 158.30035 82.418853 158.46677 82.466787 158.4668 82.466797 C 158.46688 82.466837 158.82998 82.642518 158.83008 82.642578 C 158.83028 82.642688 159.08284 82.794244 159.14844 82.839844 C 159.67288 83.204854 159.50292 83.12145 159.54102 83.15625 C 159.57912 83.19105 159.6011 83.211675 159.625 83.234375 C 159.67284 83.279745 159.7197 83.325113 159.7793 83.382812 C 159.89848 83.498192 160.06307 83.656318 160.2793 83.867188 L 160.2793 83.869141 C 160.71602 84.295561 160.9924 84.566054 161.26953 84.871094 C 161.33881 84.947354 161.3879 84.986924 161.57812 85.246094 C 161.58812 85.259694 161.60804 85.293194 161.61914 85.308594 C 161.63034 85.319894 161.63313 85.322484 161.64453 85.333984 C 163.30614 87.003524 165.17238 89.454096 166.71094 91.853516 C 170.56011 97.856276 173.00976 104.79624 173.79102 111.9043 C 175.37524 126.31793 170.2519 140.57779 159.85938 150.68164 C 151.62708 158.68523 140.92107 163.30785 129.36328 163.86719 C 129.36328 163.86719 129.36133 163.86719 129.36133 163.86719 L 124.46289 164.10547 L 124.5332 163.82227 C 118.17455 163.46044 112.11154 161.87411 106.41602 159.03516 C 103.59899 157.631 101.41506 156.2856 99.009766 154.4707 C 96.600282 152.6527 94.419817 150.69659 92.876953 148.8457 C 86.856365 141.62314 83.173741 132.97416 82.138672 123.62891 C 81.893377 121.41503 81.835864 117.72588 82 115.48242 C 82.73143 105.48853 86.417932 96.41431 92.908203 88.5625 C 94.296138 86.88339 96.985394 84.214992 98.669922 82.820312 C 106.20971 76.577712 115.06724 72.922003 124.75391 72.064453 C 125.54292 71.994548 126.39239 71.947582 127.27148 71.925781 z M 127.41797 79.222656 C 126.6713 79.236571 125.98004 79.268653 125.39648 79.320312 C 117.10889 80.054002 109.79034 83.069901 103.31445 88.431641 C 102.61502 89.010721 99.005038 92.618135 98.521484 93.203125 C 92.904262 99.998735 89.890832 107.44448 89.263672 116.01367 C 89.174451 117.23317 89.255177 121.71142 89.378906 122.82812 C 90.261377 130.79562 93.33952 138.0237 98.472656 144.18164 C 99.410392 145.30659 101.3505 147.11251 103.39648 148.65625 C 105.51287 150.25315 107.14062 151.25684 109.66602 152.51562 C 114.62509 154.98749 119.77209 156.32642 125.33008 156.58984 C 127.25211 156.68094 127.15367 156.6818 129.00977 156.5918 C 138.86511 156.11525 147.79591 152.25221 154.78125 145.46094 C 163.57992 136.90668 167.89239 124.90547 166.55078 112.69922 C 165.89485 106.7314 163.80547 100.81513 160.58008 95.785156 C 159.31424 93.811056 157.4514 91.448226 156.48047 90.472656 C 156.31886 90.310276 156.2064 90.194166 156.08789 90.072266 C 156.07989 90.066466 156.06073 90.054828 156.05273 90.048828 C 155.90485 89.941218 155.81565 89.867509 155.71875 89.787109 C 155.52492 89.626189 155.33219 89.455662 155.125 89.263672 C 154.60928 88.785782 152.53027 87.108044 151.66602 86.496094 C 146.50679 82.842944 140.38168 80.409911 134.22461 79.556641 C 132.39692 79.303351 129.65798 79.180912 127.41797 79.222656 z M 156.50195 90.335938 C 156.53165 90.354638 156.52575 90.353853 156.56445 90.376953 C 156.57545 90.383553 156.60359 90.395297 156.62109 90.404297 C 156.62227 90.394897 156.49995 90.343938 156.50195 90.335938 z "
       style="fill:#fefefe;fill-opacity:1;stroke-width:0.10591807" />
  </g>
</svg>
