<?xml version="1.0" encoding="UTF-8" standalone="no"?>
<svg
   xmlns:dc="http://purl.org/dc/elements/1.1/"
   xmlns:cc="http://creativecommons.org/ns#"
   xmlns:rdf="http://www.w3.org/1999/02/22-rdf-syntax-ns#"
   xmlns:svg="http://www.w3.org/2000/svg"
   xmlns="http://www.w3.org/2000/svg"
   xmlns:sodipodi="http://sodipodi.sourceforge.net/DTD/sodipodi-0.dtd"
   xmlns:inkscape="http://www.inkscape.org/namespaces/inkscape"
   sodipodi:docname="ibus-typing-booster.svg"
   inkscape:version="1.0beta2 (2b71d25, 2019-12-03)"
   version="1.1"
   id="svg2"
   viewBox="0 0 256 256"
   height="256"
   width="256">
  <sodipodi:namedview
     inkscape:document-rotation="0"
     inkscape:window-maximized="1"
     inkscape:window-y="0"
     inkscape:window-x="0"
     inkscape:window-height="1048"
     inkscape:window-width="1920"
     units="px"
     showgrid="true"
     inkscape:current-layer="layer1"
     inkscape:document-units="px"
     inkscape:cy="127.82241"
     inkscape:cx="128.1777"
     inkscape:zoom="3.3216119"
     inkscape:pageshadow="2"
     inkscape:pageopacity="0.0"
     borderopacity="1.0"
     bordercolor="#666666"
     pagecolor="#ffffff"
     id="base">
    <inkscape:grid
       type="xygrid"
       id="grid4136"
       spacingx="5"
       spacingy="5" />
  </sodipodi:namedview>
  <defs
     id="defs4">
    <clipPath
       id="clipPath4342"
       clipPathUnits="userSpaceOnUse">
      <ellipse
         ry="127.94993"
         rx="128"
         cy="920.35028"
         cx="130.85103"
         id="ellipse4344"
         style="opacity:1;fill:#a5ffbe;fill-opacity:1;stroke:none;stroke-width:0.45540357;stroke-linecap:round;stroke-linejoin:round;stroke-miterlimit:4;stroke-dasharray:none;stroke-opacity:1" />
    </clipPath>
    <clipPath
       clipPathUnits="userSpaceOnUse"
       id="clipPath4490">
      <ellipse
         ry="106.62494"
         rx="106.66666"
         cy="920.37988"
         cx="130.82143"
         id="ellipse4492"
         style="opacity:1;fill:#a5ffbe;fill-opacity:1;stroke:none;stroke-width:0.45540357;stroke-linecap:round;stroke-linejoin:round;stroke-miterlimit:4;stroke-dasharray:none;stroke-opacity:1" />
    </clipPath>
    <linearGradient
       id="linearGradient8924">
      <stop
         id="stop8926"
         offset="0"
         style="stop-color:#cee14b" />
      <stop
         id="stop8928"
         offset="1"
         style="stop-color:#9db029" />
    </linearGradient>
    <clipPath
       id="clipPath4041"
       clipPathUnits="userSpaceOnUse">
      <ellipse
         ry="127.94993"
         rx="128"
         cy="929.58276"
         cx="132.15784"
         id="ellipse4043"
         style="opacity:1;fill:#7299ca;fill-opacity:1;stroke:none;stroke-width:0.45540357;stroke-linecap:round;stroke-linejoin:round;stroke-miterlimit:4;stroke-dasharray:none;stroke-opacity:1" />
    </clipPath>
    <linearGradient
       id="c"
       x1="82.575996"
       x2="114.92"
       y1="97.328003"
       y2="97.328003"
       gradientTransform="matrix(-1,0,0,1,189.66,861.08216)"
       gradientUnits="userSpaceOnUse">
      <stop
         stop-color="#FF6D00"
         offset="0"
         id="stop2" />
      <stop
         stop-color="#FF9B00"
         offset=".2487"
         id="stop4" />
      <stop
         stop-color="#FFC600"
         offset=".5135"
         id="stop6" />
      <stop
         stop-color="#FFE000"
         offset=".721"
         id="stop8" />
      <stop
         stop-color="#FFEA00"
         offset=".8439"
         id="stop10" />
    </linearGradient>
    <linearGradient
       id="b"
       x1="93.544998"
       x2="110.29"
       y1="91.956001"
       y2="109.21"
       gradientTransform="matrix(-1,0,0,1,189.66,861.08216)"
       gradientUnits="userSpaceOnUse">
      <stop
         stop-color="#C62828"
         offset=".0044475"
         id="stop19" />
      <stop
         stop-color="#D75327"
         offset=".2711"
         id="stop21" />
      <stop
         stop-color="#E98126"
         offset=".5983"
         id="stop23" />
      <stop
         stop-color="#F59D25"
         offset=".8504"
         id="stop25" />
      <stop
         stop-color="#F9A825"
         offset=".9953"
         id="stop27" />
    </linearGradient>
    <radialGradient
       id="a"
       cx="46.5"
       cy="32.5"
       r="36.473"
       gradientTransform="matrix(-1,0,0,1,189.66,861.08216)"
       gradientUnits="userSpaceOnUse">
      <stop
         stop-color="#F5F5F5"
         offset=".0112"
         id="stop50" />
      <stop
         stop-color="#BDBDBD"
         offset=".9995"
         id="stop52" />
    </radialGradient>
  </defs>
  <metadata
     id="metadata7">
    <rdf:RDF>
      <cc:Work
         rdf:about="">
        <dc:format>image/svg+xml</dc:format>
        <dc:type
           rdf:resource="http://purl.org/dc/dcmitype/StillImage" />
        <dc:title />
      </cc:Work>
    </rdf:RDF>
  </metadata>
  <g
     inkscape:label="Layer 1"
     inkscape:groupmode="layer"
     id="layer1"
     transform="translate(0,-796.36216)">
    <path
       transform="scale(1,-1)"
       id="path1031"
       style="opacity:1;fill:#617f8d;fill-opacity:1;stroke:none;stroke-width:0.455404;stroke-linecap:round;stroke-linejoin:round;stroke-miterlimit:4;stroke-dasharray:none;stroke-opacity:1"
       sodipodi:type="arc"
       sodipodi:cx="128.1777"
       sodipodi:cy="-924.31207"
       sodipodi:rx="128"
       sodipodi:ry="127.94993"
       sodipodi:start="0"
       sodipodi:end="3.1415927"
       sodipodi:open="true"
       sodipodi:arc-type="arc"
       d="m 256.1777,-924.31207 a 128,127.94993 0 0 1 -64,110.80789 128,127.94993 0 0 1 -128,-10e-6 128,127.94993 0 0 1 -63.99999614,-110.80789" />
    <path
       d="m 256.1777,924.18457 a 128,127.94993 0 0 1 -64,110.80793 128,127.94993 0 0 1 -128,0 A 128,127.94993 0 0 1 0.17770386,924.18456"
       sodipodi:arc-type="arc"
       sodipodi:open="true"
       sodipodi:end="3.1415927"
       sodipodi:start="0"
       sodipodi:ry="127.94993"
       sodipodi:rx="128"
       sodipodi:cy="924.18457"
       sodipodi:cx="128.1777"
       sodipodi:type="arc"
       style="opacity:1;fill:#799fb0;fill-opacity:1;stroke:none;stroke-width:0.455404;stroke-linecap:round;stroke-linejoin:round;stroke-miterlimit:4;stroke-dasharray:none;stroke-opacity:1"
       id="path4138" />
    <text
       xml:space="preserve"
       style="font-style:normal;font-weight:normal;font-size:40px;line-height:1.25;font-family:sans-serif;letter-spacing:0px;word-spacing:0px;fill:#000000;fill-opacity:1;stroke:none"
       x="110"
       y="872.36218"
       id="text4554" />
    <path
       d="m 65.755044,964.58928 c -12.103976,12.10398 -12.755045,34.16636 -12.755045,34.16636 0,0 22.047585,-0.65107 34.166358,-12.75505 12.118773,-12.10397 17.134973,-26.70865 11.216154,-32.61267 -5.918815,-5.91881 -20.52349,-0.90262 -32.627467,11.20136 z"
       fill="url(#c)"
       id="path13"
       inkscape:connector-curvature="0"
       style="fill:#ffea00;fill-opacity:1;stroke-width:1.4797" />
    <path
       style="fill:#455a64;fill-opacity:1;stroke-width:1.4797"
       d="m 85.050381,968.984 c 7.250548,7.73885 16.765039,6.92501 17.549289,5.65247 l 6.62907,-10.77225 c 0.39952,-0.65106 0.0296,-1.68686 -0.25155,-1.9532 L 91.087572,944.0214 c -0.281144,-0.28115 -1.272545,-0.60668 -1.923615,-0.20716 l -10.772243,6.62907 c -1.257748,0.78425 -2.678264,8.55269 6.658667,18.54069 z"
       fill="#546E7A"
       id="path32"
       inkscape:connector-curvature="0" />
    <path
       style="stroke-width:1.4797"
       d="m 133.76223,988.66406 c -1.47971,1.19856 -3.46251,0.93221 -3.71406,-0.84343 -0.69546,-4.91262 -0.23675,-14.78224 -6.42191,-20.9674 -6.03719,-6.03719 -15.84763,-6.92502 -15.84763,-6.92502 l 36.9334,-18.20035 c 0,0 6.95461,10.72785 3.12218,25.99839 -3.19616,12.62187 -8.65627,16.51349 -14.07198,20.93781 z"
       fill="#0288D1"
       id="path34"
       inkscape:connector-curvature="0" />
    <path
       style="stroke-width:1.4797"
       d="m 63.535489,920.5533 c -1.45011,1.24295 -0.932213,3.4625 0.843431,3.71405 4.912616,0.69546 14.78224,0.23676 20.967401,6.42192 6.037192,6.03719 7.29494,14.58988 7.29494,14.58988 l 17.845229,-37.77684 c 0,0 -9.44051,-4.42431 -23.172163,-0.85823 -9.470103,2.47111 -18.866222,9.67726 -23.778838,13.90922 z"
       fill="#0288D1"
       id="path40"
       inkscape:connector-curvature="0" />
    <path
       d="m 157.3487,858.16899 c 5.9928,2.75225 14.07199,7.4873 21.78124,15.19656 2.72266,2.72265 5.04579,5.50449 7.05819,8.22715 3.89162,5.25295 6.55509,10.26914 8.30114,14.19036 -3.89162,10.22475 -11.23095,22.12157 -18.40752,29.29813 -29.31293,29.31293 -61.68884,46.04838 -78.439091,34.19595 -0.976604,-0.69546 -1.938412,-1.33173 -2.811437,-2.11597 -14.367923,-12.91782 2.086382,-49.89561 31.976398,-79.78563 7.5021,-7.50209 20.00559,-15.16696 30.54108,-19.20655 z"
       fill="url(#a)"
       id="path55"
       inkscape:connector-curvature="0"
       style="fill:#ffffff;fill-opacity:1;stroke-width:1.4797" />
    <circle
       style="stroke-width:1.47969"
       transform="rotate(-45)"
       cx="-531.09058"
       cy="742.57971"
       fill="#455A64"
       id="ellipse57"
       r="13.169236" />
    <circle
       style="stroke-width:1.47969"
       transform="rotate(-45)"
       cx="-570.68884"
       cy="743.77234"
       fill="#455A64"
       id="ellipse63"
       r="9.5291996" />
    <path
       style="stroke-width:1.4797"
       d="m 157.3487,858.16899 c -2.73745,13.50969 21.11538,39.9668 37.14057,37.61407 4.9866,-12.88822 7.02859,-21.63327 8.38992,-36.68186 0.69546,-7.62047 -1.5389,-9.79564 -8.59708,-8.967 -18.71825,2.18996 -26.11677,3.61048 -36.93341,8.03479 z"
       fill="#E53935"
       id="path65"
       inkscape:connector-curvature="0" />
  </g>
</svg>
