<?xml version="1.0" encoding="UTF-8" standalone="no"?>
<svg
   xmlns:dc="http://purl.org/dc/elements/1.1/"
   xmlns:cc="http://creativecommons.org/ns#"
   xmlns:rdf="http://www.w3.org/1999/02/22-rdf-syntax-ns#"
   xmlns:svg="http://www.w3.org/2000/svg"
   xmlns="http://www.w3.org/2000/svg"
   xmlns:sodipodi="http://sodipodi.sourceforge.net/DTD/sodipodi-0.dtd"
   xmlns:inkscape="http://www.inkscape.org/namespaces/inkscape"
   sodipodi:docname="IntelliJ.svg"
   inkscape:version="1.0 (4035a4fb49, 2020-05-01)"
   version="1.1"
   id="svg2"
   viewBox="0 0 256 256"
   height="256"
   width="256">
  <sodipodi:namedview
     inkscape:document-rotation="0"
     inkscape:window-maximized="1"
     inkscape:window-y="0"
     inkscape:window-x="0"
     inkscape:window-height="1048"
     inkscape:window-width="1920"
     units="px"
     showgrid="false"
     inkscape:current-layer="layer1"
     inkscape:document-units="px"
     inkscape:cy="128"
     inkscape:cx="76.740047"
     inkscape:zoom="3.3359375"
     inkscape:pageshadow="2"
     inkscape:pageopacity="0.0"
     borderopacity="1.0"
     bordercolor="#666666"
     pagecolor="#ffffff"
     id="base" />
  <defs
     id="defs4">
    <linearGradient
       id="linearGradient3931">
      <stop
         style="stop-color:#202020;stop-opacity:1;"
         offset="0"
         id="stop3933" />
      <stop
         style="stop-color:#1a1a1a;stop-opacity:1;"
         offset="1"
         id="stop3935" />
    </linearGradient>
    <clipPath
       id="clipPath5160"
       clipPathUnits="userSpaceOnUse">
      <circle
         r="128"
         cy="924.36218"
         cx="128"
         id="circle5162"
         style="fill:#a24c4c;fill-opacity:1;stroke:none;stroke-width:30;stroke-miterlimit:4;stroke-dasharray:none;stroke-opacity:1" />
    </clipPath>
    <clipPath
       clipPathUnits="userSpaceOnUse"
       id="clipPath4878">
      <circle
         r="120.24246"
         cy="924.36218"
         cx="128"
         id="circle4880"
         style="fill:#f38577;fill-opacity:1;stroke:none;stroke-width:28.18182755;stroke-miterlimit:4;stroke-dasharray:none;stroke-opacity:1" />
    </clipPath>
    <clipPath
       id="clipPath4813"
       clipPathUnits="userSpaceOnUse">
      <circle
         r="128"
         cy="924.36829"
         cx="128.86124"
         id="circle4815"
         style="fill:#31d76f;fill-opacity:1;stroke:none;stroke-width:30;stroke-miterlimit:4;stroke-dasharray:none;stroke-opacity:1" />
    </clipPath>
    <clipPath
       clipPathUnits="userSpaceOnUse"
       id="clipPath4753">
      <circle
         style="fill:#2dcd69;fill-opacity:1;stroke:none;stroke-width:16.52322197;stroke-miterlimit:4;stroke-dasharray:none;stroke-opacity:1"
         id="circle4755"
         cx="126.66613"
         cy="914.13287"
         r="70.499084" />
    </clipPath>
    <clipPath
       id="clipPath4746"
       clipPathUnits="userSpaceOnUse">
      <circle
         style="fill:#67a2e8;fill-opacity:1;stroke:none;stroke-width:31.87507439;stroke-miterlimit:4;stroke-dasharray:none;stroke-opacity:1"
         id="circle4748"
         cx="127.99999"
         cy="924.36237"
         r="136.00032" />
    </clipPath>
  </defs>
  <metadata
     id="metadata7">
    <rdf:RDF>
      <cc:Work
         rdf:about="">
        <dc:format>image/svg+xml</dc:format>
        <dc:type
           rdf:resource="http://purl.org/dc/dcmitype/StillImage" />
        <dc:title />
      </cc:Work>
    </rdf:RDF>
  </metadata>
  <g
     inkscape:label="Layer 1"
     inkscape:groupmode="layer"
     id="layer1"
     transform="translate(0,-796.36216)">
    <path
       transform="scale(1,-1)"
       style="fill:#195ba8;fill-opacity:1;stroke:none;stroke-width:30;stroke-miterlimit:4;stroke-dasharray:none;stroke-opacity:1"
       id="path882"
       sodipodi:type="arc"
       sodipodi:cx="128"
       sodipodi:cy="-924.36218"
       sodipodi:rx="128"
       sodipodi:ry="128"
       sodipodi:start="0"
       sodipodi:end="3.1415927"
       sodipodi:open="true"
       sodipodi:arc-type="arc"
       d="m 256,-924.36218 a 128,128 0 0 1 -64,110.85125 128,128 0 0 1 -128.000003,0 A 128,128 0 0 1 0,-924.36218" />
    <path
       d="m 256,924.36218 a 128,128 0 0 1 -64,110.85122 128,128 0 0 1 -128.000003,0 A 128,128 0 0 1 0,924.36218"
       sodipodi:arc-type="arc"
       sodipodi:open="true"
       sodipodi:end="3.1415927"
       sodipodi:start="0"
       sodipodi:ry="128"
       sodipodi:rx="128"
       sodipodi:cy="924.36218"
       sodipodi:cx="128"
       sodipodi:type="arc"
       id="circle4536"
       style="fill:#67a2e8;fill-opacity:1;stroke:none;stroke-width:30;stroke-miterlimit:4;stroke-dasharray:none;stroke-opacity:1" />
    <g
       id="g4522"
       transform="matrix(0.94117427,0,0,0.94117427,7.529698,54.37609)">
      <path
         inkscape:connector-curvature="0"
         style="fill:#ffffff;fill-opacity:1;stroke-width:1.37180674"
         d="m 55.707571,1006.3809 c -10.116248,-5.1874 -13.896555,-17.1949 -8.796842,-27.94174 3.578638,-7.54144 8.891904,-10.39308 21.595494,-11.59043 6.137308,-0.57846 13.515326,-2.05455 16.395618,-3.28022 7.393067,-3.14603 17.011329,-12.456 21.260079,-20.5786 3.46256,-6.61967 3.63801,-8.00484 4.11937,-32.52479 l 0.50276,-25.61068 -25.162186,-0.45365 c -22.422899,-0.40427 -25.684383,-0.76041 -29.958854,-3.27144 -14.227562,-8.35793 -14.791083,-27.90567 -1.046055,-36.28611 4.231019,-2.5797 6.991883,-2.72624 51.455295,-2.73108 l 46.98438,-0.005 -0.0238,45.61257 c -0.0269,51.54376 -0.83716,58.23872 -9.08971,75.10642 -7.1206,14.55404 -23.28792,30.63496 -37.78228,37.58025 -19.073249,9.1395 -39.551893,11.5645 -50.453243,5.9745 z"
         id="path4544" />
      <path
         inkscape:connector-curvature="0"
         style="fill:#ffffff;fill-opacity:1;stroke-width:1.37180674"
         d="m 185.15068,1008.027 c -5.56375,-1.6699 -10.94068,-7.1537 -13.16507,-13.42689 -1.36712,-3.85552 -1.78141,-20.49657 -1.78141,-71.55649 0,-64.78962 0.075,-66.67638 2.86296,-72.01984 7.8116,-14.97204 27.90692,-15.67785 35.47837,-1.24612 2.72804,5.19984 2.81288,7.45066 2.81288,74.63777 0,66.80907 -0.0977,69.44212 -2.74361,73.93416 -5.11645,8.68641 -14.23535,12.44731 -23.46412,9.67741 z"
         id="path4542" />
      <path
         inkscape:connector-curvature="0"
         style="fill:#f28a20;fill-opacity:1;stroke-width:1.37180674"
         d="m 56.120422,945.65866 c -9.767531,-5.85472 -14.046992,-19.19912 -9.583156,-29.88258 1.019354,-2.43966 4.079871,-6.39064 6.801148,-8.77995 14.7741,-12.97183 39.35871,-1.74614 39.35871,17.97176 0,18.62935 -20.587097,30.27508 -36.576702,20.69077 z"
         id="path4538" />
    </g>
  </g>
</svg>
