<?xml version="1.0" encoding="UTF-8" standalone="no"?>
<svg
   xmlns:dc="http://purl.org/dc/elements/1.1/"
   xmlns:cc="http://creativecommons.org/ns#"
   xmlns:rdf="http://www.w3.org/1999/02/22-rdf-syntax-ns#"
   xmlns:svg="http://www.w3.org/2000/svg"
   xmlns="http://www.w3.org/2000/svg"
   xmlns:sodipodi="http://sodipodi.sourceforge.net/DTD/sodipodi-0.dtd"
   xmlns:inkscape="http://www.inkscape.org/namespaces/inkscape"
   sodipodi:docname="javaws.svg"
   inkscape:version="1.0 (4035a4fb49, 2020-05-01)"
   version="1.1"
   id="svg4149"
   viewBox="0 0 256 256"
   height="256"
   width="256">
  <sodipodi:namedview
     inkscape:document-rotation="0"
     inkscape:window-maximized="1"
     inkscape:window-y="0"
     inkscape:window-x="0"
     inkscape:window-height="1048"
     inkscape:window-width="1920"
     units="px"
     showgrid="false"
     inkscape:current-layer="layer1"
     inkscape:document-units="px"
     inkscape:cy="128"
     inkscape:cx="128"
     inkscape:zoom="3.34375"
     inkscape:pageshadow="2"
     inkscape:pageopacity="0.0"
     borderopacity="1.0"
     bordercolor="#666666"
     pagecolor="#ffffff"
     id="base" />
  <defs
     id="defs4151">
    <clipPath
       clipPathUnits="userSpaceOnUse"
       id="clipPath4863">
      <circle
         style="fill:#e9e9e9;fill-opacity:1;stroke:none;stroke-width:20;stroke-miterlimit:4;stroke-dasharray:none;stroke-opacity:1"
         id="circle4865"
         cx="128"
         cy="924.36218"
         r="77.263145" />
    </clipPath>
    <clipPath
       id="clipPath4227"
       clipPathUnits="userSpaceOnUse">
      <circle
         style="fill:#e9e9e9;fill-opacity:1;stroke:none;stroke-width:20;stroke-miterlimit:4;stroke-dasharray:none;stroke-opacity:1"
         id="circle4229"
         cx="128"
         cy="924.36218"
         r="77.263145" />
    </clipPath>
    <clipPath
       clipPathUnits="userSpaceOnUse"
       id="clipPath5543">
      <circle
         style="fill:#9e9fe9;fill-opacity:1;stroke:none;stroke-width:20;stroke-miterlimit:4;stroke-dasharray:none;stroke-opacity:1"
         id="circle5545"
         cx="128"
         cy="924.36218"
         r="128" />
    </clipPath>
    <clipPath
       clipPathUnits="userSpaceOnUse"
       id="clipPath5522">
      <path
         style="fill:#db4437;fill-opacity:1"
         d="m 153.38672,796.84847 -105.781251,0 c -7.804357,0 -14.087891,6.28158 -14.087891,14.08594 l 0,227.33989 c 0,7.8043 6.283534,14.0878 14.087891,14.0878 l 165.162111,0 c 7.80436,0 14.08594,-6.2835 14.08594,-14.0878 l 0,-154.82232 -73.4668,-86.60351 z"
         id="path5524"
         inkscape:connector-curvature="0" />
    </clipPath>
    <clipPath
       clipPathUnits="userSpaceOnUse"
       id="clipPath7273">
      <circle
         style="fill:#9e9fe9;fill-opacity:1;stroke:none;stroke-width:20;stroke-miterlimit:4;stroke-dasharray:none;stroke-opacity:1"
         id="circle7275"
         cx="125.3036"
         cy="965.23419"
         r="87.222778" />
    </clipPath>
    <linearGradient
       id="linearGradient3094-6-7">
      <stop
         offset="0"
         style="stop-color:#bdc4cf;stop-opacity:1;"
         id="stop3096-6-3" />
      <stop
         offset="1"
         style="stop-color:#a1a8ba;stop-opacity:1;"
         id="stop3104-2-9" />
    </linearGradient>
    <clipPath
       id="clipPath4543"
       clipPathUnits="userSpaceOnUse">
      <circle
         style="fill:#db4437;fill-opacity:1;stroke:none;stroke-width:20;stroke-miterlimit:4;stroke-dasharray:none;stroke-opacity:1"
         id="circle4545"
         cx="128"
         cy="924.36218"
         r="128" />
    </clipPath>
  </defs>
  <metadata
     id="metadata4154">
    <rdf:RDF>
      <cc:Work
         rdf:about="">
        <dc:format>image/svg+xml</dc:format>
        <dc:type
           rdf:resource="http://purl.org/dc/dcmitype/StillImage" />
        <dc:title />
      </cc:Work>
    </rdf:RDF>
  </metadata>
  <g
     transform="translate(0,-796.36216)"
     id="layer1"
     inkscape:groupmode="layer"
     inkscape:label="Layer 1">
    <path
       transform="scale(1,-1)"
       style="fill:#96251b;fill-opacity:1;stroke:none;stroke-width:20;stroke-miterlimit:4;stroke-dasharray:none;stroke-opacity:1"
       id="path912"
       sodipodi:type="arc"
       sodipodi:cx="128"
       sodipodi:cy="-924.36218"
       sodipodi:rx="128"
       sodipodi:ry="128"
       sodipodi:start="0"
       sodipodi:end="3.1415927"
       sodipodi:open="true"
       sodipodi:arc-type="arc"
       d="m 256,-924.36218 a 128,128 0 0 1 -64,110.85125 128,128 0 0 1 -128.000003,0 A 128,128 0 0 1 0,-924.36218" />
    <path
       d="m 256,924.36218 a 128,128 0 0 1 -64,110.85122 128,128 0 0 1 -128.000003,0 A 128,128 0 0 1 0,924.36218"
       sodipodi:arc-type="arc"
       sodipodi:open="true"
       sodipodi:end="3.1415927"
       sodipodi:start="0"
       sodipodi:ry="128"
       sodipodi:rx="128"
       sodipodi:cy="924.36218"
       sodipodi:cx="128"
       sodipodi:type="arc"
       id="path4723"
       style="fill:#db4437;fill-opacity:1;stroke:none;stroke-width:20;stroke-miterlimit:4;stroke-dasharray:none;stroke-opacity:1" />
    <path
       inkscape:connector-curvature="0"
       style="color:#000000;display:inline;overflow:visible;visibility:visible;fill:#ffffff;fill-opacity:1;fill-rule:nonzero;stroke:none;stroke-width:0.933333;marker:none;enable-background:accumulate"
       d="m 93.826232,837.51833 c -0.409603,0.0353 -0.72708,0.0154 -1.104688,0.12214 -0.734468,0.20726 -1.481849,0.63121 -2.207552,1.10468 -0.586723,0.38271 -1.137149,0.80185 -1.717188,1.34896 -0.177418,0.1676 -0.313723,0.30823 -0.490365,0.49037 -0.649946,0.66356 -1.323267,1.47314 -1.963281,2.32969 -0.252403,0.33914 -0.483887,0.73675 -0.734636,1.10468 -0.301066,0.44199 -0.560189,0.8669 -0.858594,1.34896 -0.526344,0.84652 -1.077071,1.7343 -1.595052,2.69974 -0.402454,0.7506 -0.829858,1.51108 -1.226823,2.32969 -0.04163,0.086 -0.08049,0.15935 -0.122136,0.24609 -0.601898,1.25285 -1.129019,2.52565 -1.717187,3.92474 -1.448674,3.44108 -2.941581,7.32809 -4.294793,11.52995 -0.02744,0.0813 -0.09623,0.16445 -0.122135,0.2461 -1.13583,3.55362 -2.13229,7.43356 -3.188282,11.40781 -0.112262,0.42193 -0.257144,0.80082 -0.368229,1.22682 -1.124835,4.30978 -2.171334,8.83749 -3.190105,13.49324 -0.193126,0.88327 -0.423304,1.80503 -0.6125,2.69791 -2.085086,9.83692 -3.877425,20.19425 -5.397657,30.5448 -0.492208,3.35125 -0.952122,6.67606 -1.38724,9.98594 0.09425,-0.71242 0.185981,-1.42586 0.282552,-2.13646 7.970054,-3.28892 16.135425,-6.38093 24.625785,-9.1474 a 27.756043,27.756043 0 0 1 27.752084,-27.68464 27.756043,27.756043 0 0 1 25.37501,16.5922 c 6.07685,-0.55216 12.3654,-0.89276 18.90729,-0.98073 1.93662,-0.0274 3.90717,-0.0196 5.88803,0 1.65675,2.53825 3.30831,5.08029 4.90729,7.6052 -5.89078,-9.30201 -12.19092,-18.77039 -18.76693,-27.84505 -0.53619,-0.73992 -1.05702,-1.47349 -1.59506,-2.20756 -0.8092,-1.10614 -1.64138,-2.09902 -2.45364,-3.1901 -2.76989,-3.71467 -5.57277,-7.31117 -8.34167,-10.79349 -0.89932,-1.13315 -1.80253,-2.20978 -2.69792,-3.31224 -0.88209,-1.08397 -1.69938,-2.26093 -2.57578,-3.31224 -0.49305,-0.59264 -0.98206,-1.13562 -1.47292,-1.71719 -1.31713,-1.5585 -2.50585,-2.94478 -3.8026,-4.41693 -1.75116,-1.99401 -3.45043,-3.94833 -5.15157,-5.76406 -1.64089,-1.7479 -3.32545,-3.34765 -4.90547,-4.90729 -1.25523,-1.24039 -2.47139,-2.4477 -3.68047,-3.55651 -0.38506,-0.35328 -0.72467,-0.64341 -1.10468,-0.98256 -0.98734,-0.8835 -1.87176,-1.66728 -2.82188,-2.45182 -0.0927,-0.0762 -0.15202,-0.17073 -0.24427,-0.24609 -1.05104,-0.8607 -2.06652,-1.60168 -3.06614,-2.33151 -0.16839,-0.12287 -0.32537,-0.24748 -0.49219,-0.36641 -0.68022,-0.48717 -1.30793,-0.92897 -1.96146,-1.35078 -0.56952,-0.3678 -1.04696,-0.66455 -1.59505,-0.98073 -0.26025,-0.15191 -0.48123,-0.22849 -0.73646,-0.36823 -0.81332,-0.44258 -1.56975,-0.90927 -2.329687,-1.22682 -0.0392,-0.0157 -0.08489,0.0157 -0.122136,0 -0.862904,-0.36034 -1.66525,-0.66795 -2.453646,-0.8586 -0.168392,-0.04 -0.325893,-0.0904 -0.490365,-0.12213 -0.175458,-0.0354 -0.32065,0.0274 -0.492187,0 -0.71625,-0.10756 -1.443545,-0.17984 -2.085417,-0.12214 z m -32.298443,98.18231 c -0.295749,2.23562 -0.581954,4.47332 -0.838542,6.68099 0.255886,-2.21312 0.544701,-4.44579 0.838542,-6.68099 z m 79.116421,-19.50703 a 27.756043,27.756043 0 0 1 0.0492,0.144 27.756043,27.756043 0 0 0 -0.0492,-0.144 z m 0.63802,2.42265 a 27.756043,27.756043 0 0 1 0.12032,0.53594 27.756043,27.756043 0 0 0 -0.12032,-0.53594 z m 0.41744,2.45912 a 27.756043,27.756043 0 0 1 0.11485,0.9552 27.756043,27.756043 0 0 0 -0.11485,-0.9552 z m 0.2461,3.4125 a 27.756043,27.756043 0 0 1 -0.12031,2.39167 27.756043,27.756043 0 0 0 0.12031,-2.39167 z m -55.3948,2.36614 a 27.756043,27.756043 0 0 0 0.167708,1.38359 27.756043,27.756043 0 0 1 -0.167708,-1.38359 z m 55.11407,1.33438 a 27.756043,27.756043 0 0 1 -0.2151,1.42188 27.756043,27.756043 0 0 0 0.2151,-1.42188 z m -54.738549,1.41276 a 27.756043,27.756043 0 0 0 0.302604,1.35078 27.756043,27.756043 0 0 1 -0.302604,-1.35078 z m 54.229949,1.31797 a 27.756043,27.756043 0 0 1 -0.35729,1.40182 27.756043,27.756043 0 0 0 0.35729,-1.40182 z m -53.586459,1.37265 a 27.756043,27.756043 0 0 0 0.444791,1.33803 27.756043,27.756043 0 0 1 -0.444791,-1.33803 z m 52.811719,1.28333 a 27.756043,27.756043 0 0 1 -0.49036,1.34714 27.756043,27.756043 0 0 0 0.49036,-1.34714 z m -51.898438,1.33438 a 27.756043,27.756043 0 0 0 0.579687,1.29609 27.756043,27.756043 0 0 1 -0.579687,-1.29609 z m 50.842978,1.2724 a 27.756043,27.756043 0 0 1 -0.59974,1.24322 27.756043,27.756043 0 0 0 0.59974,-1.24322 z m -49.679957,1.23412 a 27.756043,27.756043 0 0 0 0.7,1.22135 27.756043,27.756043 0 0 1 -0.7,-1.22135 z m 48.391157,1.21224 a 27.756043,27.756043 0 0 1 -0.73464,1.19583 27.756043,27.756043 0 0 0 0.73464,-1.19583 z m -46.960167,1.19765 a 27.756043,27.756043 0 0 0 0.772916,1.08282 27.756043,27.756043 0 0 1 -0.772916,-1.08282 z m 45.430727,1.10833 a 27.756043,27.756043 0 0 1 -0.844,1.11016 27.756043,27.756043 0 0 0 0.844,-1.11016 z m -43.784633,1.12292 a 27.756043,27.756043 0 0 0 0.909635,1.03542 27.756043,27.756043 0 0 1 -0.909635,-1.03542 z m 42.029173,1.0263 a 27.756043,27.756043 0 0 1 -0.94974,1.01901 27.756043,27.756043 0 0 0 0.94974,-1.01901 z m -40.186205,1.00989 a 27.756043,27.756043 0 0 0 1.019011,0.95157 27.756043,27.756043 0 0 1 -1.019011,-0.95157 z m 38.217455,0.95886 a 27.756043,27.756043 0 0 1 -1.03906,0.91146 27.756043,27.756043 0 0 0 1.03906,-0.91146 z m -36.139329,0.9224 a 27.756043,27.756043 0 0 0 1.053646,0.80026 27.756043,27.756043 0 0 1 -1.053646,-0.80026 z m 34.004689,0.82213 a 27.756043,27.756043 0 0 1 -1.1375,0.81302 27.756043,27.756043 0 0 0 1.1375,-0.81302 z m -31.773439,0.82032 a 27.756043,27.756043 0 0 0 1.164849,0.71276 27.756043,27.756043 0 0 1 -1.164849,-0.71276 z m 29.452869,0.71823 a 27.756043,27.756043 0 0 1 -1.1849,0.67994 27.756043,27.756043 0 0 0 1.1849,-0.67994 z m -27.09219,0.68177 a 27.756043,27.756043 0 0 0 1.27604,0.61614 27.756043,27.756043 0 0 1 -1.27604,-0.61614 z m 24.61302,0.62343 a 27.756043,27.756043 0 0 1 -1.22682,0.54871 27.756043,27.756043 0 0 0 1.22682,-0.54871 z m -22.08646,0.55235 a 27.756043,27.756043 0 0 0 1.29609,0.47213 27.756043,27.756043 0 0 1 -1.29609,-0.47213 z m 19.55626,0.47213 a 27.756043,27.756043 0 0 1 -1.32891,0.44115 27.756043,27.756043 0 0 0 1.32891,-0.44115 z m -16.93673,0.43932 a 27.756043,27.756043 0 0 0 1.30885,0.33543 27.756043,27.756043 0 0 1 -1.30885,-0.33543 z m 14.28802,0.33907 a 27.756043,27.756043 0 0 1 -1.369,0.30807 27.756043,27.756043 0 0 0 1.369,-0.30807 z m -11.57552,0.31172 a 27.756043,27.756043 0 0 0 1.32162,0.1987 27.756043,27.756043 0 0 1 -1.32162,-0.1987 z m 8.82475,0.20599 a 27.756043,27.756043 0 0 1 -1.36173,0.16406 27.756043,27.756043 0 0 0 1.36173,-0.16406 z m -6.09766,0.16406 a 27.756043,27.756043 0 0 0 2.36614,0.11849 27.756043,27.756043 0 0 1 -2.36614,-0.11849 z"
       id="path3816" />
    <path
       inkscape:connector-curvature="0"
       style="color:#000000;display:inline;overflow:visible;visibility:visible;fill:#3d4649;fill-opacity:1;fill-rule:nonzero;stroke:none;stroke-width:2.13333;marker:none;enable-background:accumulate"
       d="m 158.47051,912.34361 c -6.54189,0.088 -12.83044,0.42857 -18.90729,0.98073 a 27.756043,27.756043 0 0 1 2.38255,11.16354 27.756043,27.756043 0 0 1 -27.75756,27.75573 27.756043,27.756043 0 0 1 -27.755729,-27.75573 27.756043,27.756043 0 0 1 0.0036,-0.0711 c -8.490361,2.76648 -16.655731,5.85848 -24.625786,9.14741 -0.439357,3.2329 -0.866444,6.50433 -1.226823,9.69062 -0.0075,0.0817 0.0075,0.16444 0,0.24609 -3.71883,33.02169 -3.754917,61.9522 2.085417,65.7489 14.116109,9.177 34.96134,-16.18938 69.307301,-23.18379 34.34596,-6.99441 54.28261,12.07323 65.13465,-2.33151 4.55572,-6.04715 -8.94971,-33.9484 -27.84506,-63.78569 -1.59898,-2.52491 -3.25054,-5.06695 -4.90729,-7.6052 -1.98086,-0.0196 -3.95141,-0.0274 -5.88803,0 z"
       id="path3833" />
  </g>
</svg>
