<?xml version="1.0" encoding="UTF-8" standalone="no"?>
<svg
   xmlns:dc="http://purl.org/dc/elements/1.1/"
   xmlns:cc="http://creativecommons.org/ns#"
   xmlns:rdf="http://www.w3.org/1999/02/22-rdf-syntax-ns#"
   xmlns:svg="http://www.w3.org/2000/svg"
   xmlns="http://www.w3.org/2000/svg"
   xmlns:xlink="http://www.w3.org/1999/xlink"
   xmlns:sodipodi="http://sodipodi.sourceforge.net/DTD/sodipodi-0.dtd"
   xmlns:inkscape="http://www.inkscape.org/namespaces/inkscape"
   sodipodi:docname="jitsi.svg"
   inkscape:version="1.0.1 (3bc2e813f5, 2020-09-07)"
   version="1.1"
   id="svg4149"
   viewBox="0 0 256 256"
   height="256"
   width="256">
  <sodipodi:namedview
     inkscape:document-rotation="0"
     inkscape:window-maximized="1"
     inkscape:window-y="0"
     inkscape:window-x="0"
     inkscape:window-height="1048"
     inkscape:window-width="1920"
     units="px"
     showgrid="false"
     inkscape:current-layer="layer1"
     inkscape:document-units="px"
     inkscape:cy="128.00002"
     inkscape:cx="128"
     inkscape:zoom="3.34375"
     inkscape:pageshadow="2"
     inkscape:pageopacity="0.0"
     borderopacity="1.0"
     bordercolor="#666666"
     pagecolor="#ffffff"
     id="base" />
  <defs
     id="defs4151">
    <clipPath
       clipPathUnits="userSpaceOnUse"
       id="clipPath4863">
      <circle
         style="fill:#e9e9e9;fill-opacity:1;stroke:none;stroke-width:20;stroke-miterlimit:4;stroke-dasharray:none;stroke-opacity:1"
         id="circle4865"
         cx="128"
         cy="924.36218"
         r="77.263145" />
    </clipPath>
    <clipPath
       id="clipPath4227"
       clipPathUnits="userSpaceOnUse">
      <circle
         style="fill:#e9e9e9;fill-opacity:1;stroke:none;stroke-width:20;stroke-miterlimit:4;stroke-dasharray:none;stroke-opacity:1"
         id="circle4229"
         cx="128"
         cy="924.36218"
         r="77.263145" />
    </clipPath>
    <clipPath
       clipPathUnits="userSpaceOnUse"
       id="clipPath5543">
      <circle
         style="fill:#9e9fe9;fill-opacity:1;stroke:none;stroke-width:20;stroke-miterlimit:4;stroke-dasharray:none;stroke-opacity:1"
         id="circle5545"
         cx="128"
         cy="924.36218"
         r="128" />
    </clipPath>
    <clipPath
       clipPathUnits="userSpaceOnUse"
       id="clipPath5522">
      <path
         style="fill:#db4437;fill-opacity:1"
         d="m 153.38672,796.84847 -105.781251,0 c -7.804357,0 -14.087891,6.28158 -14.087891,14.08594 l 0,227.33989 c 0,7.8043 6.283534,14.0878 14.087891,14.0878 l 165.162111,0 c 7.80436,0 14.08594,-6.2835 14.08594,-14.0878 l 0,-154.82232 -73.4668,-86.60351 z"
         id="path5524"
         inkscape:connector-curvature="0" />
    </clipPath>
    <clipPath
       clipPathUnits="userSpaceOnUse"
       id="clipPath7273">
      <circle
         style="fill:#9e9fe9;fill-opacity:1;stroke:none;stroke-width:20;stroke-miterlimit:4;stroke-dasharray:none;stroke-opacity:1"
         id="circle7275"
         cx="125.3036"
         cy="965.23419"
         r="87.222778" />
    </clipPath>
    <clipPath
       id="clipPath5533"
       clipPathUnits="userSpaceOnUse">
      <circle
         style="fill:#ffd794;fill-opacity:1;stroke:none;stroke-width:20;stroke-miterlimit:4;stroke-dasharray:none;stroke-opacity:1"
         id="circle5535"
         cx="128"
         cy="128.00002"
         r="128" />
    </clipPath>
    <linearGradient
       inkscape:collect="always"
       xlink:href="#linearGradient2937"
       id="linearGradient12587"
       gradientUnits="userSpaceOnUse"
       x1="297.05316"
       y1="667.16193"
       x2="310.45529"
       y2="713.86633"
       gradientTransform="matrix(0.0670166,0,0,0.0670166,7.882512,-2.6095143)" />
    <linearGradient
       id="linearGradient2937">
      <stop
         style="stop-color:#212a3a;stop-opacity:1.0000000;"
         offset="0.0000000"
         id="stop2939" />
      <stop
         style="stop-color:#404e67;stop-opacity:0.0000000;"
         offset="1.0000000"
         id="stop2941" />
    </linearGradient>
    <linearGradient
       inkscape:collect="always"
       xlink:href="#linearGradient2937"
       id="linearGradient12589"
       gradientUnits="userSpaceOnUse"
       gradientTransform="matrix(0.02538528,0,0,0.05074155,34.497652,-18.200799)"
       x1="246.30438"
       y1="690.02673"
       x2="366.87921"
       y2="632.15985" />
    <linearGradient
       inkscape:collect="always"
       xlink:href="#linearGradient2937"
       id="linearGradient12591"
       gradientUnits="userSpaceOnUse"
       gradientTransform="matrix(-0.02531257,-0.00191976,0.00383732,-0.05059626,49.295306,53.754107)"
       x1="301.05194"
       y1="645.89917"
       x2="367.94604"
       y2="654.72131" />
    <linearGradient
       inkscape:collect="always"
       xlink:href="#linearGradient2937"
       id="linearGradient12593"
       gradientUnits="userSpaceOnUse"
       gradientTransform="matrix(0.0670166,0,0,0.0670166,25.325586,-24.5375)"
       x1="279.81714"
       y1="688.32355"
       x2="386.78625"
       y2="667.6355" />
    <linearGradient
       inkscape:collect="always"
       xlink:href="#linearGradient2937"
       id="linearGradient12595"
       gradientUnits="userSpaceOnUse"
       gradientTransform="matrix(0.0670166,0,0,0.0670166,5.4820947,-19.592117)"
       x1="338.14404"
       y1="668.3009"
       x2="266.215"
       y2="702.89276" />
  </defs>
  <metadata
     id="metadata4154">
    <rdf:RDF>
      <cc:Work
         rdf:about="">
        <dc:format>image/svg+xml</dc:format>
        <dc:type
           rdf:resource="http://purl.org/dc/dcmitype/StillImage" />
        <dc:title />
      </cc:Work>
    </rdf:RDF>
  </metadata>
  <g
     transform="translate(0,-796.36216)"
     id="layer1"
     inkscape:groupmode="layer"
     inkscape:label="Layer 1">
    <path
       transform="scale(1,-1)"
       style="fill:#106cb4;fill-opacity:1;stroke:none;stroke-width:20;stroke-miterlimit:4;stroke-dasharray:none;stroke-opacity:1"
       id="path1011"
       sodipodi:type="arc"
       sodipodi:cx="128"
       sodipodi:cy="-924.36218"
       sodipodi:rx="128"
       sodipodi:ry="128"
       sodipodi:start="0"
       sodipodi:end="3.1415927"
       sodipodi:open="true"
       sodipodi:arc-type="arc"
       d="m 256,-924.36218 a 128,128 0 0 1 -64,110.85125 128,128 0 0 1 -128.000003,0 A 128,128 0 0 1 0,-924.36218" />
    <path
       d="m 256,924.36218 a 128,128 0 0 1 -64,110.85122 128,128 0 0 1 -128.000003,0 A 128,128 0 0 1 0,924.36218"
       sodipodi:arc-type="arc"
       sodipodi:open="true"
       sodipodi:end="3.1415927"
       sodipodi:start="0"
       sodipodi:ry="128"
       sodipodi:rx="128"
       sodipodi:cy="924.36218"
       sodipodi:cx="128"
       sodipodi:type="arc"
       id="path4723"
       style="fill:#2c98ec;fill-opacity:1;stroke:none;stroke-width:20;stroke-miterlimit:4;stroke-dasharray:none;stroke-opacity:1" />
    <path
       inkscape:export-ydpi="19.25"
       inkscape:export-xdpi="19.25"
       inkscape:export-filename="/home/emcho/storage/images/sc_logo/sc_logo136x203.png"
       sodipodi:nodetypes="ccsssccssscccsssscscsccsssssccssssssccsssccssssccsscssssssssssssccsssccssssssccssssssssssssscsssscssscssc"
       id="path5062"
       d="m 141.43653,863.74285 c -3.28414,1.91412 -7.23261,4.05496 -8.01659,5.99058 -2.63093,5.52734 -3.61709,15.4466 -2.81605,14.87694 7.80752,-5.55178 16.84697,-7.09098 20.13616,-10.06443 9.74682,-8.81131 13.53074,-27.0264 11.48262,-24.32638 -6.63035,8.74076 -17.39808,11.54868 -20.78614,13.52329 z M 90.344539,986.05703 c 0,0 -9.21935,-6.37679 -9.04943,-8.42256 1.4119,-17.0001 -1.60529,-17.99209 -3.12589,-17.81182 -1.83708,0.21788 -11.38361,6.24468 -13.24595,23.26142 -1.35139,12.34816 3.52779,31.64073 4.27106,32.68463 3.84614,-10.3366 2.34557,-18.65627 21.15021,-29.71167 z M 191.06486,910.74236 c -0.45871,-12.74442 -8.13184,-21.50711 -13.3432,-19.45493 -2.21094,0.87065 -3.69534,6.80489 -2.91905,10.48424 0.68853,3.2636 5.38001,15.89258 5.71735,16.96014 0.79762,2.52443 6.1825,17.99608 5.22527,25.42991 -0.83905,6.51595 -19.72653,8.77041 -19.72653,8.77041 0,0 -0.3174,5.30357 -0.9685,8.88723 -0.80041,4.40536 -2.3873,7.86266 -2.3873,7.86266 0,0 4.11218,3.83084 4.27835,3.8266 0.16618,0 25.88228,-13.90506 24.12361,-62.76626 z m -19.71567,39.47814 c 1.32939,-0.37206 9.17866,-2.44746 8.75797,-2.72341 -2.9128,-1.91066 -6.22756,-4.31574 -11.77932,-8.63365 -30.82194,-23.97209 -58.81811,-3.78153 -58.26647,-3.96491 5.11808,-1.70231 10.52277,-2.66422 18.03141,-2.16268 6.04797,0.40395 15.55527,3.4697 23.88351,13.39728 3.09778,3.69261 6.61274,6.19814 19.3729,4.08737 z m -13.74882,-52.0338 c 0.93255,-0.80678 4.17379,-6.91678 3.59013,-7.05865 -8.17921,-1.98918 -8.97583,-5.60803 -9.77638,-9.54538 -0.74982,-3.68784 -0.63414,-4.21382 -2.1836,-3.70197 -12.51916,4.13504 -15.98209,6.40744 -17.89767,7.99725 -3.00075,2.49046 -0.8959,9.18234 0.27746,11.84188 1.63541,3.7069 7.64803,10.41464 10.44526,10.95484 4.08007,0.78788 13.72258,-7.57103 15.5448,-10.48797 z m 9.09875,-22.58126 c -0.67847,-2.77498 -2.85824,-6.34877 -3.43907,-6.34877 -0.54699,0 -6.33882,4.48171 -7.8348,6.04327 -3.39527,3.54406 -1.74059,9.96649 2.02579,12.16947 6.37486,3.72866 11.05626,-4.46879 9.24808,-11.86397 z m -4.80651,-10.61337 c 2.78904,-2.78608 6.49664,-7.35939 7.48256,-14.30911 0.38641,-2.72384 0.61078,-5.11983 -1.08331,-10.5053 -0.39263,-1.24826 -1.58615,-4.83799 -1.63077,-4.36505 -0.88114,9.33825 -2.17221,19.70731 -8.26699,30.72724 -1.91306,3.45904 -0.8843,2.83027 3.49851,-1.54778 z m -65.411261,55.61772 c -3.32259,13.93696 5.482291,32.24061 12.614941,33.28391 6.89487,1.00854 26.6614,-4.9595 37.02812,-7.84221 2.71612,-0.75522 4.17727,-0.36132 -1.83149,-5.39518 -9.42042,-6.40432 -17.02359,-7.22895 -24.60863,-6.368 -8.36645,0.9496 -14.63577,3.42593 -14.04923,2.93479 3.83597,-3.21195 10.66835,-8.9557 23.86857,-11.55657 5.73736,-1.13048 14.59155,-1.2298 25.28132,2.94528 13.25941,5.17877 20.16556,12.85891 25.77152,15.46177 1.99627,0.9269 2.70937,0.49591 3.49812,-1.82052 1.32148,-3.88093 -6.71145,-28.11285 -9.62173,-35.17904 -4.44124,-10.78333 0.74051,-15.93748 -0.39208,-15.68779 -5.49346,1.2109 -10.3377,4.74179 -14.39863,8.37763 -9.92648,8.88749 -15.97671,10.78073 -16.87457,10.70437 -2.83486,-0.24102 -8.13906,-5.25841 -10.0662,-7.80615 -1.22967,-1.62569 -23.2374,2.62227 -29.7272,8.26037 -0.14848,0.12896 -5.155951,3.34048 -6.492831,9.68734 z m -7.05131,60.67699 c 7.25868,-3.04556 14.365221,-9.51756 13.750571,-9.62451 -3.768461,-0.65537 -17.666561,-10.17857 -17.656971,-10.07985 0.47739,4.91469 -0.59369,9.3307 -1.08236,14.2018 -0.2038,2.03147 2.50411,5.17868 4.98876,5.50256 z m 23.422301,-21.30336 c -1.38862,3.09556 -2.83842,15.26824 -22.905251,23.07968 -0.58126,0.22628 16.816471,12.12253 17.763261,12.16403 57.4534,2.5222 56.96649,-41.22926 56.2039,-42.33235 -0.11036,-0.15956 -5.02437,0.0113 -8.83046,-1.79452 -0.29027,-0.13772 -2.87211,-1.46848 -4.4115,-3.473 -0.52214,-0.67981 -0.60341,-1.04927 -2.53822,-0.48706 -8.95459,2.60234 -35.68905,12.19469 -35.28173,12.84322 z M 94.954159,938.64313 c -10.25965,-35.84802 25.744881,-37.51106 31.453431,-38.8914 4.41454,-1.06739 3.45262,-1.48252 2.5217,-5.65786 -1.30706,-5.86257 -0.89989,-10.97278 0.2206,-16.45046 1.05956,-5.1799 1.60604,-7.79922 3.84382,-10.39654 1.80369,-2.09343 11.96735,-6.88099 14.48691,-8.08947 10.73723,-5.1499 14.83947,-10.81045 16.03619,-15.26278 0.84365,-3.1388 2.07816,-10.8751 1.52324,-16.40478 -0.13658,-1.3611 0.7416,0.77159 5.11019,14.34498 2.23221,6.9355 1.133,15.26312 -5.90716,22.78163 -0.95612,1.02111 -0.49243,1.2233 0.79334,3.34794 2.67138,4.41419 4.14814,9.93399 3.73209,13.94986 -0.34089,3.28996 -1.74727,6.40086 0.26419,6.15914 0.29079,-0.0347 9.1756,-1.38008 15.25765,2.48569 4.11881,2.61794 9.98617,7.6362 8.46316,28.59879 -3.33501,45.90309 -25.76286,55.89298 -25.92008,55.89835 -0.37964,0.013 -4.57565,-4.34364 -4.824,-3.83058 -12.86006,26.56669 -39.3958,25.61219 -54.19517,25.89149 -2.95889,0.055 -15.262611,-10.3041 -16.299651,-9.5954 -13.09816,8.9514 -16.73449,11.187 -21.78493,34.06547 -0.19355,-0.3627 -7.00381,-12.4431 -6.72112,-36.7386 0.23161,-19.90577 11.10659,-29.29992 15.94113,-28.75808 5.86913,0.65772 8.81459,3.71974 17.08036,9.15027 1.47543,0.96937 6.688301,4.12161 7.874541,4.09283 2.95535,-0.0693 4.9715,-5.49926 5.45385,-9.01454 0.48651,-3.5458 0.95688,-2.68884 -1.81047,-3.64113 -3.48893,-1.20068 -9.506891,-7.73431 -12.593811,-18.03482 z"
       style="fill:#ffffff;fill-opacity:0;fill-rule:nonzero;stroke:none"
       inkscape:connector-curvature="0" />
    <g
       id="g970"
       transform="matrix(2.9448565,0,0,2.9448565,32.861577,829.74339)">
      <path
         inkscape:export-ydpi="19.25"
         inkscape:export-xdpi="19.25"
         inkscape:export-filename="/home/emcho/storage/images/sc_logo/sc_logo136x203.png"
         sodipodi:nodetypes="csssssssssssssssssssssssssssssssssccssssssssssccsssssssssccsssssssssscssssssssssccssssssscssssssssc"
         id="path4159"
         d="m 12.83568,63.095359 c -0.162988,-0.358411 -0.296341,-0.681204 -0.296341,-0.717352 0,-0.03614 -0.567438,-3.020398 -0.632095,-3.787289 -0.282288,-3.348227 -0.7275,-3.668882 -0.6032,-6.654117 0.0753,-1.808335 -0.175613,-2.425172 0.358209,-3.904007 1.099361,-3.045511 1.905429,-4.243843 3.334098,-4.956553 1.159013,-0.57819 2.246426,-0.499653 3.267059,0.235955 0.269001,0.193887 1.171568,0.804671 2.005694,1.357297 0.834135,0.552635 1.824817,1.222617 2.201521,1.48886 0.376703,0.266257 1.005025,0.650443 1.396279,0.853758 0.690155,0.35866 0.715662,0.364115 0.855619,0.183009 0.30753,-0.397924 1.049851,-1.514705 1.45124,-2.04777 2.010559,-2.670128 0.117036,-2.37332 -0.356159,-2.512599 -0.743949,-0.218981 -1.057314,-0.539825 -1.752648,-1.354786 -1.614981,-1.892812 -2.380341,-3.998741 -2.493429,-6.600885 -0.131328,-3.021724 0.172544,-5.458689 1.499417,-6.845652 0.568707,-0.594469 1.772577,-1.457786 2.873179,-2.06043 0.932094,-0.510377 6.648732,-1.576986 7.150422,-1.355379 0.250629,0.110708 -0.992166,-3.17415 -0.27696,-7.445124 0.14208,-0.848459 1.107086,-3.473949 1.209054,-3.65261 0.251761,-0.441118 4.400437,-1.861068 5.580568,-2.554118 1.318591,-0.7743622 4.170179,-2.6396647 4.385002,-4.026978 0.472085,-3.0486919 0.555882,-4.3515014 0.752669,-4.4659674 0.292877,-0.1703589 2.250672,3.8660663 0.9255,7.6720891 -0.261524,0.7511243 -1.508734,2.4950693 -2.067191,3.2245163 -0.402139,0.525276 0.471201,0.770781 0.973589,1.529117 0.45691,0.689673 0.757291,2.375673 0.815942,3.249296 0.05989,0.892088 -0.222389,2.722442 -0.475226,3.081472 -0.102404,0.14543 -0.14435,0.288296 -0.09378,0.319461 0.05031,0.031 0.391132,-0.0096 0.757379,-0.09021 0.366241,-0.08062 1.160082,-0.20899 1.76409,-0.28527 1.075247,-0.135782 1.113769,-0.133894 1.843489,0.09058 1.094684,0.336753 6.419388,1.623202 3.021656,16.501927 -1.125683,4.929388 -6.378707,11.433993 -7.039211,10.93038 l -1.626555,-1.240193 -1.874513,2.779136 c -0.956717,0.982611 -1.988346,1.930976 -2.596804,2.387198 -0.960132,0.719919 -2.881218,1.853988 -3.140604,1.853988 -0.0668,0 -0.445227,0.155264 -0.84096,0.345041 -1.144105,0.548658 -2.857758,0.998397 -4.672961,1.117616 -7.028507,0.455331 -4.347178,-0.393249 -10.166824,-3.211385 -0.459042,-0.222289 -1.515681,0.899118 -2.789216,2.057909 -1.359604,1.237099 -2.073332,2.178656 -2.612703,3.446683 -0.182581,0.429242 -0.466818,1.087733 -0.631638,1.463315 -0.448481,1.021989 -0.81741,2.436066 -0.872224,3.343109 -0.02681,0.443684 -0.08595,0.829612 -0.131418,0.857639 -0.04547,0.02801 -0.216027,-0.242292 -0.379015,-0.600677 z m 7.726854,-12.520524 c 0.900847,-0.227823 0.999477,-0.278085 1.968439,-1.003151 0.694292,-0.519546 1.124504,-1.45761 1.309191,-1.539559 1.20883,-0.536378 -0.902259,-1.019152 -1.691515,-1.551512 -0.789262,-0.532366 -1.8156,-0.925925 -2.514778,-1.459653 -0.699178,-0.533719 -1.304597,-0.949848 -1.345375,-0.924727 -0.04078,0.02512 -0.07492,0.38332 -0.07588,0.795981 -0.0028,1.2036 -0.164208,2.41134 -0.389821,2.916659 -0.114829,0.257183 -0.230755,0.752958 -0.257618,1.101726 -0.06222,0.807871 0.12575,1.1964 0.79437,1.641906 0.563438,0.375434 0.79741,0.377813 2.202983,0.02233 z M 53.209361,27.779077 c -0.293339,-1.970356 -0.05045,-4.680117 -1.585747,-5.666497 -3.54207,-2.275665 -3.930931,-0.01899 -4.148213,0.479721 -0.357467,0.820442 -0.577507,1.491516 -0.306197,2.393468 0.833561,2.771128 1.899924,5.224936 2.406135,7.194582 0.580963,2.260503 1.221258,3.690188 1.285323,5.462656 0.04549,1.258297 0.03355,1.390593 -0.151639,1.681284 -0.263317,0.413293 -4.241468,1.425678 -6.24478,2.01592 -0.687845,0.202667 -0.07856,1.669561 -0.157352,2.152457 -0.0788,0.482888 -1.155542,3.181927 -0.809257,3.724567 3.417041,5.354624 10.973134,-10.965301 9.711727,-19.438158 z m -7.360403,13.165015 c 0.534499,-0.128538 1.034227,-0.285342 1.110511,-0.348469 0.07628,-0.06312 0.270177,-0.104779 0.430883,-0.09257 0.287538,0.02184 1.413312,-0.332588 1.499853,-0.472219 0.02437,-0.03931 1.028777,-0.563332 0.827858,-0.696424 -0.200927,-0.1331 -4.126985,-3.019087 -4.689922,-3.312601 -6.482699,-3.380063 -9.890467,-3.612755 -12.03104,-3.181496 -3.666677,0.738721 -6.833569,2.59798 -7.214536,3.056586 -0.11503,0.138475 5.740639,-1.816617 9.897151,0.237504 0.76797,0.379527 2.353527,1.031732 3.545592,2.307991 1.088906,1.165812 2.081795,2.39938 2.863262,2.60772 0.847344,0.225911 2.58363,0.17695 3.760388,-0.106026 z M 38.033374,27.008665 c 2.052584,-0.359181 5.232589,-4.623341 4.985137,-5.022532 -0.03348,-0.05402 0.61507,-1.130336 0.509734,-1.15134 -3.841122,-0.765904 -3.748574,-4.590633 -3.803958,-4.624753 -0.05538,-0.03413 -5.663216,2.648224 -6.95553,3.206894 -1.096609,0.474067 0.156824,3.30055 0.817983,5.054799 0.29415,0.780465 1.913836,1.821222 2.56571,2.245527 0.771196,0.501967 1.705567,0.322091 1.880924,0.291405 z m 4.423525,-13.013724 c 1.108371,-0.87351 4.060344,-5.245663 3.747144,-7.0199241 -1.276011,-7.22853823 -1.826086,-2.753493 -1.907983,-2.1084099 -0.03392,0.2671703 -0.130549,0.8589108 -0.214744,1.3149769 -0.08419,0.4560721 -0.191518,1.1145692 -0.238514,1.4633222 -0.04699,0.3487618 -0.176904,0.9633576 -0.288694,1.3657675 -0.111791,0.4024172 -0.288338,1.0713524 -0.392333,1.4865344 -0.103985,0.415176 -0.454049,1.437907 -0.777906,2.27273 -0.323859,0.834825 -0.588836,1.537752 -0.588836,1.56206 0,0.121907 0.224706,0.0075 0.661866,-0.337057 z"
         style="fill:#ffffff;fill-opacity:1;stroke-width:0.0670166" />
      <path
         sodipodi:nodetypes="ccssc"
         id="path4378"
         d="m 13.12623,62.866342 c 1.732649,-7.178119 3.300285,-7.982563 7.42564,-10.643418 -0.907578,-0.515669 -3.141103,-2.225279 -3.13527,-3.13527 0.01562,-2.656885 0.454796,-7.28778 -2.475213,-5.362962 -5.5595538,3.65225 -3.547807,15.263815 -1.815157,19.14165 z"
         style="display:inline;fill:#ffffff;fill-opacity:1;fill-rule:evenodd;stroke:none;stroke-width:0.0670166px;stroke-linecap:butt;stroke-linejoin:miter;stroke-opacity:1" />
      <path
         sodipodi:nodetypes="ccccsc"
         id="path1460"
         d="m 19.222562,51.303498 c 2.449548,1.850769 4.614493,3.486959 6.151086,4.354752 14.983924,0.757527 18.725432,-7.525555 18.997605,-14.316246 -1.333643,0.06124 -3.60628,-0.265368 -4.831053,-2.111034 -3.058452,1.003875 -12.317973,3.819016 -12.479085,4.451713 -0.835815,3.282295 -3.320498,5.933349 -7.838553,7.620815 z"
         style="display:inline;fill:#ffffff;fill-opacity:1;fill-rule:evenodd;stroke:none;stroke-width:0.0670166px;stroke-linecap:butt;stroke-linejoin:miter;stroke-opacity:1" />
      <path
         inkscape:export-ydpi="19.25"
         inkscape:export-xdpi="19.25"
         inkscape:export-filename="/home/emcho/storage/images/sc_logo/sc_logo136x203.png"
         sodipodi:nodetypes="cssssss"
         id="path13135"
         d="m 45.224994,48.537658 c 9.050422,-6.736227 7.885504,-20.22506 8.031713,-20.915741 0.371722,-1.755987 -1.813503,-7.704922 -4.438292,-6.613455 -4.370221,1.817272 3.075446,12.121174 2.076552,17.772469 -0.208203,1.177921 -3.815289,2.046245 -6.267295,2.426886 -0.282787,0.0439 -0.03172,3.844206 -1.261828,5.593404 -0.1761,0.250412 1.693689,1.85959 1.85915,1.736437 z"
         style="display:inline;fill:#ffffff;fill-opacity:1;fill-rule:evenodd;stroke:none;stroke-width:0.0670166px;stroke-linecap:butt;stroke-linejoin:miter;stroke-opacity:1" />
      <path
         inkscape:export-ydpi="19.25"
         inkscape:export-xdpi="19.25"
         inkscape:export-filename="/home/emcho/storage/images/sc_logo/sc_logo136x203.png"
         sodipodi:nodetypes="csszs"
         id="path11671"
         d="m 24.481933,47.772525 c 0.21437,-0.289243 -3.785845,-1.658945 -6.203523,-3.835808 -0.268067,-0.241367 -0.3113,3.521547 -0.564623,5.090562 -0.157395,0.974861 1.497944,1.956399 1.876289,2.07867 0.313856,0.101431 4.011833,-2.146033 4.891857,-3.333424 z"
         style="display:inline;fill:#ffffff;fill-opacity:1;fill-rule:evenodd;stroke:none;stroke-width:0.0670166px;stroke-linecap:butt;stroke-linejoin:miter;stroke-opacity:1" />
      <path
         inkscape:export-ydpi="19.25"
         inkscape:export-xdpi="19.25"
         inkscape:export-filename="/home/emcho/storage/images/sc_logo/sc_logo136x203.png"
         sodipodi:nodetypes="csssss"
         id="path9481"
         d="m 26.237828,35.804857 c 1.203217,-0.431105 4.638305,-1.470086 8.742007,-0.04143 2.810627,0.978489 4.423472,3.445377 5.636735,4.394156 2.857867,2.234869 8.133467,-0.247752 9.087688,-0.232746 0.392053,0.0062 -7.08185,-6.709578 -12.71677,-7.049357 -7.57506,-0.456767 -12.303055,3.485946 -10.74966,2.929374 z"
         style="display:inline;fill:#ffffff;fill-opacity:1;fill-rule:evenodd;stroke:none;stroke-width:0.0670166px;stroke-linecap:butt;stroke-linejoin:miter;stroke-opacity:1" />
      <path
         inkscape:export-ydpi="19.25"
         inkscape:export-xdpi="19.25"
         inkscape:export-filename="/home/emcho/storage/images/sc_logo/sc_logo136x203.png"
         sodipodi:nodetypes="csss"
         id="path8745"
         d="M 44.7209,2.4072318 C 44.679228,4.6992129 43.958172,10.169927 41.637144,13.90881 40.575493,15.618996 45.597142,11.651567 46.137761,8.2413659 46.435111,6.3656966 44.755365,0.58061378 44.7209,2.4072318 Z"
         style="fill:#ffffff;fill-opacity:1;fill-rule:evenodd;stroke:none;stroke-width:0.0670166px;stroke-linecap:butt;stroke-linejoin:miter;stroke-opacity:1" />
      <path
         inkscape:export-ydpi="19.25"
         inkscape:export-xdpi="19.25"
         inkscape:export-filename="/home/emcho/storage/images/sc_logo/sc_logo136x203.png"
         sodipodi:nodetypes="cssscsc"
         id="path8003"
         d="m 37.18373,27.408471 c 2.519798,-1.286675 4.815392,-2.97869 6.270312,-6.120672 0.246324,-0.53195 -1.199905,-0.01599 -2.311501,-1.593897 -1.100637,-1.562355 -0.840926,-3.148059 -1.783627,-3.021225 -2.945495,0.396298 -6.872912,3.173867 -6.872912,3.173867 0,0 0.225884,3.039275 1.022042,4.274624 1.641532,2.547061 3.675686,3.287303 3.675686,3.287303 z"
         style="display:inline;fill:#ffffff;fill-opacity:1;fill-rule:evenodd;stroke:none;stroke-width:0.0752255px;stroke-linecap:butt;stroke-linejoin:miter;stroke-opacity:1" />
      <path
         inkscape:export-ydpi="19.25"
         inkscape:export-xdpi="19.25"
         inkscape:export-filename="/home/emcho/storage/images/sc_logo/sc_logo136x203.png"
         sodipodi:nodetypes="ccsssccssscccsssscscsccsssssccssssssccsssccssssccsscssssssssssssccsssccssssssccssssssssssssscsssscssscssc"
         id="path1378"
         d="m 36.71106,12.259532 c -1.076525,0.627421 -2.37081,1.329191 -2.627796,1.963677 -0.862405,1.811815 -1.18566,5.063293 -0.92308,4.876576 2.559261,-1.819857 5.522342,-2.324395 6.60052,-3.299081 3.194951,-2.888285 4.435302,-8.8590895 3.763937,-7.9740335 -2.17339,2.8651585 -5.702991,3.7855865 -6.813581,4.4328615 z m -16.747671,40.0939 c 0,0 -3.02205,-2.090265 -2.966353,-2.760884 0.462816,-5.572519 -0.526203,-5.897692 -1.024646,-5.838585 -0.602188,0.07141 -3.731488,2.046949 -4.341952,7.624958 -0.44298,4.047649 1.156393,10.371647 1.400031,10.713827 1.260743,-3.388286 0.768863,-6.115412 6.93292,-9.739316 z M 52.978953,27.665694 c -0.150364,-4.177536 -2.665572,-7.049901 -4.373829,-6.377204 -0.724731,0.285393 -1.211309,2.230588 -0.956847,3.436684 0.225694,1.069783 1.763539,5.209476 1.874114,5.559433 0.261458,0.8275 2.026589,5.898995 1.712814,8.33578 -0.275035,2.135879 -6.466244,2.874883 -6.466244,2.874883 0,0 -0.104042,1.738488 -0.317472,2.913193 -0.262366,1.44406 -0.782542,2.577348 -0.782542,2.577348 0,0 1.34795,1.255707 1.40242,1.254314 0.05447,-0.0014 8.48407,-4.557983 7.907586,-20.574431 z m -6.462687,12.940734 c 0.435763,-0.121969 3.008711,-0.80229 2.870813,-0.892743 -0.954799,-0.626288 -2.041362,-1.414666 -3.861194,-2.830056 -10.103264,-7.8579 -19.280253,-1.239542 -19.099427,-1.299683 1.67768,-0.557981 3.449306,-0.8733 5.910595,-0.708896 1.982492,0.132422 5.09893,1.137345 7.828884,4.391548 1.015433,1.210432 2.167618,2.031725 6.350329,1.33983 z M 42.009479,23.550015 c 0.305685,-0.26444 1.368145,-2.267264 1.176824,-2.313791 -2.681099,-0.652015 -2.942229,-1.838255 -3.204643,-3.128897 -0.245787,-1.208867 -0.207869,-1.381262 -0.715773,-1.213503 -4.103712,1.355439 -5.238838,2.100347 -5.866756,2.621479 -0.98363,0.816352 -0.293672,3.009891 0.09095,3.881698 0.536077,1.215101 2.506981,3.413865 3.423898,3.590926 1.337421,0.258263 4.498184,-2.481732 5.0955,-3.437912 z m 2.98252,-7.40201 c -0.222402,-0.909606 -0.936917,-2.081078 -1.127308,-2.081078 -0.179302,0 -2.077831,1.469083 -2.568204,1.980955 -1.112955,1.161726 -0.570557,3.26696 0.664042,3.989078 2.08964,1.222232 3.62418,-1.464838 3.03147,-3.888955 z M 43.416448,12.669002 C 44.330683,11.755749 45.54601,10.256656 45.869191,7.978559 45.995853,7.0856988 46.0694,6.3003031 45.514089,4.5349746 45.385387,4.1258262 44.994159,2.9491311 44.979533,3.10416 c -0.288836,3.0610216 -0.712041,6.4599219 -2.709875,10.072212 -0.62709,1.133844 -0.289871,0.927741 1.14679,-0.50737 z M 21.975005,30.900203 c -1.089129,4.568437 1.797063,10.56829 4.135107,10.910271 2.260096,0.33058 8.739456,-1.625699 12.137611,-2.570625 0.890329,-0.247574 1.369283,-0.118438 -0.600353,-1.768503 -3.087964,-2.099319 -5.580236,-2.369625 -8.066572,-2.087421 -2.742476,0.311276 -4.797522,1.123007 -4.605261,0.96202 1.257409,-1.052873 3.497026,-2.935621 7.823986,-3.788195 1.880675,-0.370563 4.78303,-0.40311 8.287077,0.965463 4.34636,1.697554 6.610159,4.21509 8.447762,5.068283 0.654363,0.30382 0.888114,0.162555 1.146664,-0.59677 0.43317,-1.272134 -2.199978,-9.21523 -3.153953,-11.531484 -1.455814,-3.534725 0.242737,-5.224217 -0.12852,-5.142381 -1.800728,0.396932 -3.38864,1.55435 -4.719792,2.746161 -3.253844,2.913249 -5.237075,3.53385 -5.53139,3.508831 -0.929251,-0.07901 -2.667936,-1.723687 -3.299646,-2.558825 -0.403075,-0.532875 -7.617088,0.859571 -9.744411,2.707696 -0.04867,0.04228 -1.690092,1.094987 -2.128309,3.175479 z m -2.311383,19.889562 c 2.379353,-0.99831 4.70884,-3.119814 4.50736,-3.154854 -1.235279,-0.21483 -5.790999,-3.336478 -5.787855,-3.30411 0.156486,1.610982 -0.194607,3.058544 -0.354792,4.655275 -0.0668,0.665888 0.820836,1.697521 1.635287,1.803689 z m 7.677701,-6.983118 c -0.455182,1.014697 -0.930419,5.004844 -7.508215,7.565384 -0.190535,0.07417 5.512347,3.973713 5.822699,3.987338 18.832906,0.82675 18.673296,-13.514747 18.423327,-13.876326 -0.03618,-0.05233 -1.64696,0.0038 -2.894578,-0.588246 -0.09515,-0.04513 -0.94146,-0.481367 -1.446066,-1.138419 -0.171153,-0.222857 -0.197791,-0.343968 -0.832016,-0.159656 -2.935261,0.85302 -11.698673,3.997327 -11.565151,4.209925 z m -5.866925,-6.995215 c -3.363054,-11.750785 8.439029,-12.295933 10.31026,-12.748395 1.447062,-0.349899 1.131746,-0.485966 0.8266,-1.854624 -0.428448,-1.921704 -0.294979,-3.596817 0.07231,-5.392377 0.347319,-1.697937 0.526455,-2.556515 1.259985,-3.407901 0.591241,-0.686236 3.92283,-2.255575 4.748727,-2.651699 3.519603,-1.6881 4.864296,-3.5435993 5.256573,-5.003056 0.276545,-1.0288717 0.681211,-3.5647794 0.49931,-5.37740483 -0.04477,-0.44615296 0.243094,0.25294009 1.675094,4.70222393 0.731704,2.2734223 0.37139,5.0031579 -1.936335,7.4676959 -0.313411,0.334706 -0.161412,0.40099 0.260054,1.097417 0.875661,1.446956 1.359738,3.256325 1.223356,4.572686 -0.111743,1.078445 -0.572746,2.098189 0.0866,2.018949 0.09532,-0.01145 3.007711,-0.452381 5.001374,0.814788 1.350123,0.858138 3.273411,2.503097 2.774177,9.374512 -1.0932,15.046786 -8.444924,18.321416 -8.49646,18.323188 -0.124446,0.0043 -1.499872,-1.423828 -1.58128,-1.255647 -4.215457,8.708411 -12.913723,8.395551 -17.764873,8.487089 -0.969909,0.0183 -5.002999,-3.377623 -5.342937,-3.145307 -4.293503,2.934205 -5.485472,3.667038 -7.140975,11.166426 -0.06345,-0.118894 -2.295815,-4.078778 -2.203151,-12.042673 0.07592,-6.525023 3.64068,-9.60435 5.225415,-9.426755 1.923869,0.215601 2.889374,1.219312 5.598848,2.999423 0.483639,0.317748 2.192388,1.351018 2.581231,1.341608 0.968749,-0.02284 1.62963,-1.802632 1.78774,-2.95494 0.159478,-1.162269 0.313662,-0.881359 -0.593462,-1.193535 -1.143649,-0.393574 -3.116307,-2.535258 -4.12818,-5.911692 z"
         style="fill:#404e67;fill-opacity:1;fill-rule:nonzero;stroke:none;stroke-width:0.0670166;stroke-opacity:1" />
      <path
         inkscape:export-ydpi="19.25"
         inkscape:export-xdpi="19.25"
         inkscape:export-filename="/home/emcho/storage/images/sc_logo/sc_logo136x203.png"
         sodipodi:nodetypes="czssss"
         id="path1340"
         d="m 27.453661,43.697677 c 1.765983,-0.963636 11.79078,-4.097806 11.880786,-4.294542 0.0657,-0.143603 -11.758782,4.720541 -14.436832,2.917439 -0.161415,-0.108679 0.625478,0.469435 1.336953,0.61541 0.04998,0.01025 0.04661,1.879646 -0.627456,2.937368 -0.189025,0.296612 1.436526,-1.951939 1.846549,-2.175675 z"
         style="fill:url(#linearGradient12587);fill-opacity:1;fill-rule:evenodd;stroke:none;stroke-width:0.0670166px;stroke-linecap:butt;stroke-linejoin:miter;stroke-opacity:1" />
      <path
         inkscape:export-ydpi="19.25"
         inkscape:export-xdpi="19.25"
         inkscape:export-filename="/home/emcho/storage/images/sc_logo/sc_logo136x203.png"
         sodipodi:nodetypes="csss"
         id="path7309"
         d="m 43.788309,14.066583 c -1.09889,0.767079 -2.613964,1.838864 -2.923772,2.665436 -0.182715,0.487484 -0.306126,-1.361319 0.941399,-2.462736 0.702858,-0.620541 2.207209,-0.359646 1.982373,-0.2027 z"
         style="display:inline;fill:url(#linearGradient12589);fill-opacity:1;fill-rule:evenodd;stroke:none;stroke-width:0.0670166px;stroke-linecap:butt;stroke-linejoin:miter;stroke-opacity:1" />
      <path
         inkscape:export-ydpi="19.25"
         inkscape:export-xdpi="19.25"
         inkscape:export-filename="/home/emcho/storage/images/sc_logo/sc_logo136x203.png"
         sodipodi:nodetypes="csss"
         id="path11669"
         d="m 42.310727,20.241648 c 1.246374,0.371642 2.20908,-0.389582 2.73681,-2.02968 0.06238,-0.193873 -0.154235,1.436336 -0.928802,2.042326 -0.738448,0.577732 -2.07077,-0.091 -1.808008,-0.01265 z"
         style="display:inline;fill:url(#linearGradient12591);fill-opacity:1;fill-rule:evenodd;stroke:none;stroke-width:0.0670166px;stroke-linecap:butt;stroke-linejoin:miter;stroke-opacity:1" />
      <path
         inkscape:export-ydpi="19.25"
         inkscape:export-xdpi="19.25"
         inkscape:export-filename="/home/emcho/storage/images/sc_logo/sc_logo136x203.png"
         sodipodi:nodetypes="cscss"
         id="path13125"
         d="m 45.47429,21.934708 c 1.765984,-0.963636 3.574064,-0.816157 5.115203,-0.746737 1.023002,0.04608 -1.927054,-1.146885 -5.278542,-0.960395 -0.357962,0.304786 -1.421677,2.082521 -2.920817,3.882807 -0.22507,0.270282 2.674133,-1.95194 3.084156,-2.175675 z"
         style="display:inline;fill:url(#linearGradient12593);fill-opacity:1;fill-rule:evenodd;stroke:none;stroke-width:0.0670166px;stroke-linecap:butt;stroke-linejoin:miter;stroke-opacity:1" />
      <path
         inkscape:export-ydpi="19.25"
         inkscape:export-xdpi="19.25"
         inkscape:export-filename="/home/emcho/storage/images/sc_logo/sc_logo136x203.png"
         sodipodi:nodetypes="csccscs"
         id="path16045"
         d="m 28.666013,25.745972 c 1.036909,-0.213449 2.33746,-0.565845 3.198251,-0.652629 0.717735,-0.07236 1.617058,-0.476558 2.307963,0.266574 -0.384684,-0.527335 -1.120397,-1.592398 -1.349639,-2.289989 0.208711,0.819685 -0.724065,0.935262 -0.955914,0.972099 -5.213721,0.823731 -8.350165,2.227757 -9.932616,4.838715 2.997344,-2.318886 6.536255,-3.094484 6.731955,-3.13477 z"
         style="display:inline;fill:url(#linearGradient12595);fill-opacity:1;fill-rule:evenodd;stroke:none;stroke-width:0.0670166px;stroke-linecap:butt;stroke-linejoin:miter;stroke-opacity:1" />
    </g>
  </g>
</svg>
