<?xml version="1.0" encoding="UTF-8" standalone="no"?>
<svg
   xmlns:dc="http://purl.org/dc/elements/1.1/"
   xmlns:cc="http://creativecommons.org/ns#"
   xmlns:rdf="http://www.w3.org/1999/02/22-rdf-syntax-ns#"
   xmlns:svg="http://www.w3.org/2000/svg"
   xmlns="http://www.w3.org/2000/svg"
   xmlns:sodipodi="http://sodipodi.sourceforge.net/DTD/sodipodi-0.dtd"
   xmlns:inkscape="http://www.inkscape.org/namespaces/inkscape"
   sodipodi:docname="kdeconnect.svg"
   inkscape:version="1.0 (4035a4fb49, 2020-05-01)"
   version="1.1"
   id="svg2"
   viewBox="0 0 256 256"
   height="256"
   width="256">
  <sodipodi:namedview
     inkscape:document-rotation="0"
     inkscape:window-maximized="1"
     inkscape:window-y="0"
     inkscape:window-x="0"
     inkscape:window-height="1048"
     inkscape:window-width="1920"
     units="px"
     showgrid="false"
     inkscape:current-layer="layer1"
     inkscape:document-units="px"
     inkscape:cy="128.00002"
     inkscape:cx="128"
     inkscape:zoom="3.34375"
     inkscape:pageshadow="2"
     inkscape:pageopacity="0.0"
     borderopacity="1.0"
     bordercolor="#666666"
     pagecolor="#ffffff"
     id="base" />
  <defs
     id="defs4">
    <linearGradient
       id="linearGradient3931">
      <stop
         style="stop-color:#202020;stop-opacity:1;"
         offset="0"
         id="stop3933" />
      <stop
         style="stop-color:#1a1a1a;stop-opacity:1;"
         offset="1"
         id="stop3935" />
    </linearGradient>
    <clipPath
       id="clipPath5160"
       clipPathUnits="userSpaceOnUse">
      <circle
         r="128"
         cy="924.36218"
         cx="128"
         id="circle5162"
         style="fill:#a24c4c;fill-opacity:1;stroke:none;stroke-width:30;stroke-miterlimit:4;stroke-dasharray:none;stroke-opacity:1" />
    </clipPath>
  </defs>
  <metadata
     id="metadata7">
    <rdf:RDF>
      <cc:Work
         rdf:about="">
        <dc:format>image/svg+xml</dc:format>
        <dc:type
           rdf:resource="http://purl.org/dc/dcmitype/StillImage" />
        <dc:title />
      </cc:Work>
    </rdf:RDF>
  </metadata>
  <g
     inkscape:label="Layer 1"
     inkscape:groupmode="layer"
     id="layer1"
     transform="translate(0,-796.36216)">
    <path
       transform="scale(1,-1)"
       id="path878"
       style="fill:#652f2f;fill-opacity:1;stroke:none;stroke-width:30;stroke-miterlimit:4;stroke-dasharray:none;stroke-opacity:1"
       sodipodi:type="arc"
       sodipodi:cx="128"
       sodipodi:cy="-924.36218"
       sodipodi:rx="128"
       sodipodi:ry="128"
       sodipodi:start="0"
       sodipodi:end="3.1415927"
       sodipodi:open="true"
       sodipodi:arc-type="arc"
       d="m 256,-924.36218 a 128,128 0 0 1 -64,110.85125 128,128 0 0 1 -128.000003,0 A 128,128 0 0 1 0,-924.36218" />
    <path
       d="m 256,924.36218 a 128,128 0 0 1 -64,110.85122 128,128 0 0 1 -128.000003,0 A 128,128 0 0 1 0,924.36218"
       sodipodi:arc-type="arc"
       sodipodi:open="true"
       sodipodi:end="3.1415927"
       sodipodi:start="0"
       sodipodi:ry="128"
       sodipodi:rx="128"
       sodipodi:cy="924.36218"
       sodipodi:cx="128"
       sodipodi:type="arc"
       style="fill:#a24c4c;fill-opacity:1;stroke:none;stroke-width:30;stroke-miterlimit:4;stroke-dasharray:none;stroke-opacity:1"
       id="path4136" />
    <g
       transform="matrix(0.93119612,0,0,0.93119612,8.8068966,63.599703)"
       id="g876">
      <path
         id="rect3120"
         style="fill:#f2f2f2;fill-opacity:1;stroke:#6a6a6a;stroke-width:0.435899;stroke-miterlimit:4;stroke-dasharray:none;stroke-opacity:1"
         d="m 63.900391,36.9375 c -5.918465,0 -10.681641,3.171951 -10.681641,7.113281 V 211.94922 c 0,3.9413 4.763176,7.11328 10.681641,7.11328 H 192.09961 c 5.91847,0 10.68164,-3.17198 10.68164,-7.11328 V 44.050781 c 0,-3.94133 -4.76317,-7.113281 -10.68164,-7.113281 z m 0,11.382812 H 192.09961 V 204.83398 H 63.900391 Z"
         transform="translate(0,796.36216)" />
      <rect
         ry="1.7785779"
         rx="3.2049479"
         y="837.56757"
         x="106.63372"
         height="3.5571558"
         width="42.732601"
         id="rect3925"
         style="fill:#111111;fill-opacity:1;stroke:none" />
      <ellipse
         ry="1.0671468"
         rx="1.6024725"
         id="path3929"
         style="fill:#111111;fill-opacity:1;stroke:none"
         cx="93.279778"
         cy="839.34613" />
      <g
         style="fill:#ffffff;fill-opacity:1"
         id="g3764"
         transform="matrix(0.97974524,0,0,0.65244923,61.056845,883.2877)">
        <g
           transform="translate(59.2336,11.2066)"
           style="fill:#ffffff;fill-opacity:1;fill-rule:nonzero;stroke:none"
           id="g15" />
        <g
           transform="translate(19.32,28.4763)"
           style="fill:#ffffff;fill-opacity:1;fill-rule:nonzero;stroke:none"
           id="g30">
          <path
             d="m 18.0991,0.0201 c -0.1947,0.0201 -0.4053,0.0738 -0.5517,0.2207 0,0 -6.7689,6.7688 -6.7689,6.7688 -0.2843,0.2851 -0.319,0.7216 -0.1103,1.0667 0,0 7.9092,13.0594 7.9092,13.0594 -1.4044,2.3608 -2.5448,4.8933 -3.3477,7.5781 0,0 -14.530751,3.0165 -14.530751,3.0165 C 0.29459,31.8139 0,32.1988 0,32.6132 c 0,0 0,9.5645 0,9.5645 0,0.4044 0.307536,0.7507 0.698949,0.8461 0,0 14.089351,3.4212 14.089351,3.4212 0.7534,3.1084 1.9174,6.0828 3.4579,8.792 0,0 -8.1666,12.4339 -8.1666,12.4339 -0.2278,0.3473 -0.18337,0.8106 0.1103,1.1038 0,0 6.7689,6.7687 6.7689,6.7687 0.2851,0.2842 0.7224,0.3199 1.0667,0.1103 0,0 12.8018,-7.7619 12.8018,-7.7619 2.5109,1.4495 5.2294,2.6109 8.0931,3.3844 0,0 2.9798,14.3471 2.9798,14.3471 0.0835,0.405 0.432,0.699 0.846,0.699 0,0 9.5646,0 9.5646,0 0.4014,0 0.7508,-0.27 0.846,-0.663 0,0 3.5316,-14.42 3.5316,-14.42 2.9535,-0.7964 5.7382,-1.9786 8.3139,-3.4947 0,0 12.6178,8.277 12.6178,8.277 0.3479,0.2266 0.8087,0.1828 1.1036,-0.1103 0,0 6.7321,-6.7689 6.7321,-6.7689 0.2859,-0.2853 0.3565,-0.7224 0.1471,-1.0668 0,0 -4.5984,-7.578 -4.5984,-7.578 0,0 -1.5083,0.4783 -1.5083,0.4783 -0.2178,0.0671 -0.4591,-0.0314 -0.5886,-0.2209 0,0 -2.9047,-4.2728 -6.6952,-9.822 -4.5332,8.8706 -13.7783,14.9354 -24.4264,14.9354 -15.1308,0 -27.4061,-12.2753 -27.4061,-27.4061 0,-11.1298 6.6555,-20.6892 16.1862,-24.9782 0,0 0,-7.0631 0,-7.0631 -1.7346,0.6071 -3.4103,1.3396 -5.003,2.2072 -0.003,-0.0018 0.0029,-0.0351 0,-0.0367 0,0 -12.9121,-8.4611 -12.9121,-8.4611 C 18.4773,0.0169 18.2938,0 18.0991,0.0201 c 0,0 0,0 0,0 z m 39.0307,-17.2898 c 0,0 -17.2162,1.65541 -17.2162,1.65541 0,0 0,70.92489 0,70.92489 0,0 17.0323,-2.575 17.0323,-2.575 0,0 0,-30.2388 0,-30.2388 0,0 22.9183,33.5495 22.9183,33.5495 0,0 17.9518,-5.7019 17.9518,-5.7019 0,0 -23.47,-32.2621 -23.47,-32.2621 0,0 23.654,-30.42257 23.654,-30.42257 0,0 -18.3198,-4.193694 -18.3198,-4.193694 0,0 -22.7343,30.422764 -22.7343,30.422764 0,0 0.1839,-31.1585 0.1839,-31.1585 0,0 0,0 0,0 z"
             style="fill:#ffffff;fill-opacity:1;stroke:none"
             id="path32"
             inkscape:connector-curvature="0" />
        </g>
      </g>
    </g>
  </g>
</svg>
