<?xml version="1.0" encoding="UTF-8" standalone="no"?>
<svg
   xmlns:dc="http://purl.org/dc/elements/1.1/"
   xmlns:cc="http://creativecommons.org/ns#"
   xmlns:rdf="http://www.w3.org/1999/02/22-rdf-syntax-ns#"
   xmlns:svg="http://www.w3.org/2000/svg"
   xmlns="http://www.w3.org/2000/svg"
   xmlns:sodipodi="http://sodipodi.sourceforge.net/DTD/sodipodi-0.dtd"
   xmlns:inkscape="http://www.inkscape.org/namespaces/inkscape"
   sodipodi:docname="kdenlive.svg"
   inkscape:version="1.0 (4035a4fb49, 2020-05-01)"
   version="1.1"
   id="svg2"
   viewBox="0 0 256 256"
   height="256"
   width="256">
  <sodipodi:namedview
     inkscape:document-rotation="0"
     inkscape:window-maximized="1"
     inkscape:window-y="0"
     inkscape:window-x="0"
     inkscape:window-height="1048"
     inkscape:window-width="1920"
     units="px"
     showgrid="false"
     inkscape:current-layer="layer1"
     inkscape:document-units="px"
     inkscape:cy="128.00002"
     inkscape:cx="128"
     inkscape:zoom="3.34375"
     inkscape:pageshadow="2"
     inkscape:pageopacity="0.0"
     borderopacity="1.0"
     bordercolor="#666666"
     pagecolor="#ffffff"
     id="base" />
  <defs
     id="defs4">
    <linearGradient
       id="linearGradient3931">
      <stop
         id="stop3933"
         offset="0"
         style="stop-color:#202020;stop-opacity:1;" />
      <stop
         id="stop3935"
         offset="1"
         style="stop-color:#1a1a1a;stop-opacity:1;" />
    </linearGradient>
    <clipPath
       clipPathUnits="userSpaceOnUse"
       id="clipPath5160">
      <circle
         style="fill:#a24c4c;fill-opacity:1;stroke:none;stroke-width:30;stroke-miterlimit:4;stroke-dasharray:none;stroke-opacity:1"
         id="circle5162"
         cx="128"
         cy="924.36218"
         r="128" />
    </clipPath>
    <clipPath
       id="clipPath4878"
       clipPathUnits="userSpaceOnUse">
      <circle
         style="fill:#f38577;fill-opacity:1;stroke:none;stroke-width:28.18182755;stroke-miterlimit:4;stroke-dasharray:none;stroke-opacity:1"
         id="circle4880"
         cx="128"
         cy="924.36218"
         r="120.24246" />
    </clipPath>
  </defs>
  <metadata
     id="metadata7">
    <rdf:RDF>
      <cc:Work
         rdf:about="">
        <dc:format>image/svg+xml</dc:format>
        <dc:type
           rdf:resource="http://purl.org/dc/dcmitype/StillImage" />
        <dc:title />
      </cc:Work>
    </rdf:RDF>
  </metadata>
  <g
     transform="translate(0,-796.36216)"
     id="layer1"
     inkscape:groupmode="layer"
     inkscape:label="Layer 1">
    <path
       transform="scale(1,-1)"
       style="fill:#527eb2;fill-opacity:1;stroke:none;stroke-width:30;stroke-miterlimit:4;stroke-dasharray:none;stroke-opacity:1"
       id="path948"
       sodipodi:type="arc"
       sodipodi:cx="128"
       sodipodi:cy="-924.36218"
       sodipodi:rx="128"
       sodipodi:ry="128"
       sodipodi:start="0"
       sodipodi:end="3.1415927"
       sodipodi:open="true"
       sodipodi:arc-type="arc"
       d="m 256,-924.36218 a 128,128 0 0 1 -64,110.85125 128,128 0 0 1 -128.000003,0 A 128,128 0 0 1 0,-924.36218" />
    <path
       d="m 256,924.36218 a 128,128 0 0 1 -64,110.85122 128,128 0 0 1 -128.000003,0 A 128,128 0 0 1 0,924.36218"
       sodipodi:arc-type="arc"
       sodipodi:open="true"
       sodipodi:end="3.1415927"
       sodipodi:start="0"
       sodipodi:ry="128"
       sodipodi:rx="128"
       sodipodi:cy="924.36218"
       sodipodi:cx="128"
       sodipodi:type="arc"
       id="path4136"
       style="fill:#83b9f5;fill-opacity:1;stroke:none;stroke-width:30;stroke-miterlimit:4;stroke-dasharray:none;stroke-opacity:1" />
    <g
       id="g4511"
       transform="matrix(1.0645158,0,0,1.0645158,-8.2580224,-59.63598)">
      <path
         inkscape:connector-curvature="0"
         id="path3742"
         d="m 128.25,936.44673 v -65.41542 l -7.98462,-12.08458 -7.98462,-12.08458 h 18.449 18.44901 l -7.96439,12.17783 -7.96438,12.17782 v 65.32218 65.32222 h -2.5 -2.5 z"
         style="fill:#ffffff;fill-opacity:1" />
      <path
         sodipodi:nodetypes="ccsssscc"
         inkscape:connector-curvature="0"
         id="path3740"
         d="m 149.10118,986.92787 v -58.29998 -58.76574 c 0,-0.7163 20.81499,12.84473 42.40119,28.54384 31.17803,22.67501 39.24763,28.99744 39.24763,30.75 0,1.7527 -7.44227,9.0726 -39.5,30.93939 l -42.14882,28.74999 z"
         style="fill:#ffffff;fill-opacity:1" />
      <path
         inkscape:connector-curvature="0"
         id="path3738"
         d="m 92.25,984.36217 v -3.5 h 10.5 10.5 v 3.5 3.5 h -10.5 -10.5 z"
         style="fill:#ffffff;fill-opacity:1" />
      <path
         inkscape:connector-curvature="0"
         id="path3712"
         d="m 68.25,970.86217 v -4 h 22.5 22.5 v 4 4 h -22.5 -22.5 z"
         style="fill:#ffffff;fill-opacity:1" />
      <path
         inkscape:connector-curvature="0"
         id="path3710"
         d="m 78.25,956.86215 v -4 h 17.5 17.5 v 4 4 h -17.5 -17.5 z"
         style="fill:#ffffff;fill-opacity:1" />
      <path
         inkscape:connector-curvature="0"
         id="path3708"
         d="m 53.25,943.36215 v -3.5 h 30 30 v 3.5 3.5 h -30 -30 z"
         style="fill:#ffffff;fill-opacity:1" />
      <path
         inkscape:connector-curvature="0"
         id="path3706"
         d="m 25.25,929.36215 v -3.5 h 44 44 v 3.5 3.5 h -44 -44 z"
         style="fill:#ffffff;fill-opacity:1" />
      <path
         inkscape:connector-curvature="0"
         id="path3704"
         d="m 42.25,915.86215 v -4 h 35.5 35.5 v 4 4 h -35.5 -35.5 z"
         style="fill:#ffffff;fill-opacity:1" />
      <path
         inkscape:connector-curvature="0"
         id="path3702"
         d="m 68.25,901.86215 v -4 h 22.5 22.5 v 4 4 h -22.5 -22.5 z"
         style="fill:#ffffff;fill-opacity:1" />
      <path
         inkscape:connector-curvature="0"
         id="path3698"
         d="m 93.25,887.86215 v -4 h 10 10 v 4 4 h -10 -10 z"
         style="fill:#ffffff;fill-opacity:1" />
      <path
         inkscape:connector-curvature="0"
         id="path3694"
         d="m 102.25,873.86215 v -4 h 5.5 5.5 v 4 4 h -5.5 -5.5 z"
         style="fill:#ffffff;fill-opacity:1" />
    </g>
  </g>
</svg>
