<?xml version="1.0" encoding="UTF-8" standalone="no"?>
<svg
   xmlns:dc="http://purl.org/dc/elements/1.1/"
   xmlns:cc="http://creativecommons.org/ns#"
   xmlns:rdf="http://www.w3.org/1999/02/22-rdf-syntax-ns#"
   xmlns:svg="http://www.w3.org/2000/svg"
   xmlns="http://www.w3.org/2000/svg"
   xmlns:sodipodi="http://sodipodi.sourceforge.net/DTD/sodipodi-0.dtd"
   xmlns:inkscape="http://www.inkscape.org/namespaces/inkscape"
   sodipodi:docname="komodo48.svg"
   inkscape:version="1.0 (4035a4fb49, 2020-05-01)"
   version="1.1"
   id="svg2"
   viewBox="0 0 256 256"
   height="256"
   width="256">
  <sodipodi:namedview
     inkscape:window-maximized="1"
     inkscape:window-y="0"
     inkscape:window-x="0"
     inkscape:window-height="1048"
     inkscape:window-width="1920"
     units="px"
     showgrid="true"
     inkscape:current-layer="layer1"
     inkscape:document-units="px"
     inkscape:cy="128.00002"
     inkscape:cx="51.5"
     inkscape:zoom="3.0684597"
     inkscape:pageshadow="2"
     inkscape:pageopacity="0.0"
     borderopacity="1.0"
     bordercolor="#666666"
     pagecolor="#ffffff"
     id="base"
     inkscape:document-rotation="0">
    <inkscape:grid
       type="xygrid"
       id="grid4168"
       spacingx="5"
       spacingy="5" />
  </sodipodi:namedview>
  <defs
     id="defs4">
    <inkscape:path-effect
       effect="skeletal"
       id="path-effect4235"
       is_visible="true"
       pattern="M 0,0 1,0"
       copytype="single_stretched"
       prop_scale="1"
       scale_y_rel="false"
       spacing="0"
       normal_offset="0"
       tang_offset="0"
       prop_units="false"
       vertical_pattern="false"
       fuse_tolerance="0" />
    <clipPath
       clipPathUnits="userSpaceOnUse"
       id="clipPath5002">
      <g
         id="g5004">
        <path
           transform="translate(0,796.36216)"
           inkscape:connector-curvature="0"
           id="path5006"
           d="M 88.118406,249.43519 C 46.103287,235.29134 14.771284,201.68742 4.1335861,159.36053 1.3377997,148.23623 0.92261224,144.16281 0.92582381,127.88908 0.92787958,117.47222 1.134384,112.01362 1.6577819,108.54099 4.4653598,89.913336 12.17654,70.638106 23.042737,55.086148 c 3.958678,-5.665755 8.344812,-10.93092 9.101533,-10.925587 0.32809,0.0023 10.488643,18.309713 22.579009,40.683112 12.090365,22.373397 22.374546,41.334697 22.853732,42.136217 0.479186,0.80151 0.924733,2.44098 0.990103,3.64326 0.343424,6.31639 2.524175,14.20976 5.6424,20.42304 2.954444,5.88693 5.065381,8.73258 10.434696,14.06652 6.71418,6.66995 12.88853,10.28643 21.73204,12.72904 3.16587,0.87442 5.10478,1.05037 11.57517,1.05037 8.82596,0 12.60219,-0.76201 19.26429,-3.88733 2.04584,-0.95974 3.93661,-1.66536 4.20172,-1.56805 0.2651,0.0973 -11.0555,17.66459 -25.1569,39.0384 l -25.6389,38.86148 -3.094121,0.11221 c -2.554618,0.0927 -4.195204,-0.25845 -9.409103,-2.01364 z"
           style="fill:#0f9d58;fill-opacity:1;stroke:none;stroke-width:4.85768509;stroke-linejoin:round;stroke-miterlimit:4;stroke-dasharray:none;stroke-opacity:1" />
        <path
           inkscape:connector-curvature="0"
           id="path5008"
           d="m 112.35984,1051.5167 c -10.0014,-1.4495 -12.15632,-1.8201 -12.531784,-2.1556 -0.248854,-0.2223 1.738304,-3.7475 4.550294,-8.0722 7.16635,-11.0213 49.77231,-74.64801 50.25856,-75.05489 3.57509,-2.99158 8.63523,-8.0414 10.57512,-10.55356 3.36154,-4.35318 7.55784,-12.9141 9.06523,-18.494 6.19314,-22.92535 -2.59253,-47.15185 -21.69967,-59.83688 l -2.96081,-1.96565 17.02469,0.29584 c 9.36358,0.1627 31.17032,0.43384 48.45941,0.60252 l 31.43471,0.30668 1.54584,4.18869 c 2.24597,6.08579 4.67816,15.0947 5.93451,21.9816 1.52517,8.36049 1.92536,28.85896 0.73851,37.82758 -3.0805,23.27845 -12.81326,45.72018 -27.80202,64.10577 -20.47622,25.1166 -51.4599,42.1974 -84.14612,46.3885 -5.31244,0.6812 -26.64601,0.9864 -30.44647,0.4356 z"
           style="fill:#f4b400;fill-opacity:1;stroke:none;stroke-width:4.85768509;stroke-linejoin:round;stroke-miterlimit:4;stroke-dasharray:none;stroke-opacity:1" />
        <path
           transform="translate(0,796.36216)"
           inkscape:connector-curvature="0"
           id="path5010"
           d="M 67.989788,108.87302 C 41.284246,59.575543 33.290284,45.149038 32.233625,44.344765 31.651257,43.901497 32.811213,42.549931 38.695603,36.815353 53.43581,22.450419 68.809334,13.040746 87.839196,6.7360352 101.68742,2.1480329 112.58238,0.43719165 127.95142,0.43719165 c 21.3099,0 37.80488,3.80960275 56.83492,13.12633035 25.29351,12.383198 46.19421,33.578863 58.51993,59.345832 1.61138,3.368591 2.92978,6.372442 2.92978,6.675231 0,0.560033 -10.54865,0.49527 -71.16508,-0.436914 l -24.28843,-0.373518 -3.93063,-1.764495 c -6.75732,-3.033425 -10.64587,-3.839529 -18.6576,-3.867747 -5.0296,-0.01773 -7.97946,0.207636 -10.31642,0.788106 -14.50826,3.603659 -26.283291,12.94777 -33.291614,26.418653 -3.58502,6.89086 -5.24713,13.08166 -6.331628,23.58317 l -0.33738,3.26696 -9.92748,-18.32578 z"
           style="fill:#db4437;fill-opacity:1;stroke:none;stroke-width:10;stroke-linejoin:round;stroke-miterlimit:4;stroke-dasharray:none;stroke-opacity:1" />
      </g>
    </clipPath>
    <clipPath
       id="clipPath4271"
       clipPathUnits="userSpaceOnUse">
      <circle
         r="128"
         cy="128.00002"
         cx="128"
         id="circle4273"
         style="fill:#292929;fill-opacity:0.26020412;stroke:none;stroke-width:10;stroke-linejoin:round;stroke-miterlimit:4;stroke-dasharray:none;stroke-opacity:0.25882353" />
    </clipPath>
    <clipPath
       clipPathUnits="userSpaceOnUse"
       id="clipPath4363">
      <circle
         r="128"
         cy="924.36218"
         cx="128"
         id="circle4365"
         style="fill:#4285f4;fill-opacity:1;stroke:none;stroke-width:10;stroke-linejoin:round;stroke-miterlimit:4;stroke-dasharray:none;stroke-opacity:0.25882353" />
    </clipPath>
    <clipPath
       id="clipPath4452"
       clipPathUnits="userSpaceOnUse">
      <circle
         r="128"
         cy="924.36218"
         cx="128"
         id="circle4454"
         style="fill:#4285f4;fill-opacity:1;stroke:none;stroke-width:10;stroke-linejoin:round;stroke-miterlimit:4;stroke-dasharray:none;stroke-opacity:0.25882353" />
    </clipPath>
    <clipPath
       clipPathUnits="userSpaceOnUse"
       id="clipPath5177">
      <circle
         r="128"
         cy="924.36218"
         cx="128"
         id="circle5179"
         style="fill:#4285f4;fill-opacity:1;stroke:none;stroke-width:10;stroke-linejoin:round;stroke-miterlimit:4;stroke-dasharray:none;stroke-opacity:0.25882353" />
    </clipPath>
    <clipPath
       id="clipPath4342"
       clipPathUnits="userSpaceOnUse">
      <circle
         r="128"
         cy="933.48718"
         cx="128"
         id="circle4344"
         style="fill:#4285f4;fill-opacity:1;stroke:none;stroke-width:10;stroke-linejoin:round;stroke-miterlimit:4;stroke-dasharray:none;stroke-opacity:0.25882353" />
    </clipPath>
    <clipPath
       clipPathUnits="userSpaceOnUse"
       id="clipPath4681">
      <circle
         r="128"
         cy="930.43964"
         cx="127.00293"
         id="circle4683"
         style="fill:#9d5fad;fill-opacity:1;stroke:none;stroke-width:10;stroke-linejoin:round;stroke-miterlimit:4;stroke-dasharray:none;stroke-opacity:0.25882353" />
    </clipPath>
    <clipPath
       id="clipPath4480"
       clipPathUnits="userSpaceOnUse">
      <circle
         r="128"
         cy="924.36218"
         cx="128"
         id="circle4482"
         style="fill:#df7618;fill-opacity:1;stroke:none;stroke-width:10;stroke-linejoin:round;stroke-miterlimit:4;stroke-dasharray:none;stroke-opacity:0.25882353" />
    </clipPath>
    <filter
       id="filter4301"
       inkscape:label="Drop Shadow"
       style="color-interpolation-filters:sRGB">
      <feFlood
         id="feFlood4303"
         result="flood"
         flood-color="rgb(0,0,0)"
         flood-opacity="0.498039" />
      <feComposite
         id="feComposite4305"
         result="composite1"
         operator="in"
         in2="SourceGraphic"
         in="flood" />
      <feGaussianBlur
         id="feGaussianBlur4307"
         result="blur"
         stdDeviation="3.7"
         in="composite1" />
      <feOffset
         id="feOffset4309"
         result="offset"
         dy="3.7"
         dx="3.8" />
      <feComposite
         id="feComposite4311"
         result="composite2"
         operator="over"
         in2="offset"
         in="SourceGraphic" />
    </filter>
    <clipPath
       clipPathUnits="userSpaceOnUse"
       id="clipPath5827">
      <circle
         r="128"
         cy="924.36218"
         cx="128"
         id="circle5829"
         style="fill:#df7618;fill-opacity:1;stroke:none;stroke-width:10;stroke-linejoin:round;stroke-miterlimit:4;stroke-dasharray:none;stroke-opacity:0.25882353" />
    </clipPath>
    <clipPath
       id="clipPath5688"
       clipPathUnits="userSpaceOnUse">
      <circle
         r="128"
         cy="923.87457"
         cx="126.04952"
         id="circle5690"
         style="fill:#ffeb4f;fill-opacity:1;stroke:none;stroke-width:10;stroke-linejoin:round;stroke-miterlimit:4;stroke-dasharray:none;stroke-opacity:0.25882353" />
    </clipPath>
    <clipPath
       id="clipPath5238"
       clipPathUnits="userSpaceOnUse">
      <path
         inkscape:connector-curvature="0"
         id="path5240"
         d="m 151.20117,796.60532 -105.78125,0 c -7.804357,0 -14.087891,6.28158 -14.087891,14.08594 l 0,227.33994 c 0,7.8043 6.283534,14.0878 14.087891,14.0878 l 165.16211,0 c 7.80436,0 14.08594,-6.2835 14.08594,-14.0878 l 0,-154.82237 -73.4668,-86.60351 z"
         style="fill:#df1818;fill-opacity:1" />
    </clipPath>
    <clipPath
       id="clipPath5740"
       clipPathUnits="userSpaceOnUse">
      <circle
         r="128"
         cy="923.87457"
         cx="126.04952"
         id="circle5742"
         style="fill:#ffeb4f;fill-opacity:1;stroke:none;stroke-width:10;stroke-linejoin:round;stroke-miterlimit:4;stroke-dasharray:none;stroke-opacity:0.25882353" />
    </clipPath>
    <clipPath
       id="clipPath5744"
       clipPathUnits="userSpaceOnUse">
      <circle
         r="99.950417"
         cy="962.41302"
         cx="128.12729"
         id="circle5746"
         style="fill:#ffeb4f;fill-opacity:1;stroke:none;stroke-width:10;stroke-linejoin:round;stroke-miterlimit:4;stroke-dasharray:none;stroke-opacity:0.25882353" />
    </clipPath>
    <clipPath
       clipPathUnits="userSpaceOnUse"
       id="clipPath4649">
      <circle
         r="53.581394"
         cy="57.295895"
         cx="62.183521"
         id="circle4651"
         style="fill:#29abe2;fill-opacity:1;stroke:none;stroke-width:10;stroke-linejoin:round;stroke-miterlimit:4;stroke-dasharray:none;stroke-opacity:0.25882353" />
    </clipPath>
    <clipPath
       id="clipPath4835"
       clipPathUnits="userSpaceOnUse">
      <circle
         r="53.581394"
         cy="57.500008"
         cx="63"
         id="circle4837"
         style="fill:#29abe2;fill-opacity:1;stroke:none;stroke-width:10;stroke-linejoin:round;stroke-miterlimit:4;stroke-dasharray:none;stroke-opacity:0.25882353" />
    </clipPath>
    <clipPath
       clipPathUnits="userSpaceOnUse"
       id="clipPath4443">
      <circle
         r="114.44884"
         cy="916.27661"
         cx="107.5"
         id="circle4445"
         style="fill:#9a684a;fill-opacity:1;stroke:none;stroke-width:10;stroke-linejoin:round;stroke-miterlimit:4;stroke-dasharray:none;stroke-opacity:0.25882353" />
    </clipPath>
    <clipPath
       id="clipPath4428"
       clipPathUnits="userSpaceOnUse">
      <circle
         r="128"
         cy="924.36218"
         cx="128"
         id="circle4430"
         style="fill:#909090;fill-opacity:1;stroke:none;stroke-width:10;stroke-linejoin:round;stroke-miterlimit:4;stroke-dasharray:none;stroke-opacity:0.25882353" />
    </clipPath>
    <clipPath
       clipPathUnits="userSpaceOnUse"
       id="clipPath4548">
      <circle
         r="128"
         cy="924.36218"
         cx="128"
         id="circle4550"
         style="fill:#61929e;fill-opacity:1;stroke:none;stroke-width:10;stroke-linejoin:round;stroke-miterlimit:4;stroke-dasharray:none;stroke-opacity:0.25882353" />
    </clipPath>
  </defs>
  <metadata
     id="metadata7">
    <rdf:RDF>
      <cc:Work
         rdf:about="">
        <dc:format>image/svg+xml</dc:format>
        <dc:type
           rdf:resource="http://purl.org/dc/dcmitype/StillImage" />
        <dc:title />
      </cc:Work>
    </rdf:RDF>
  </metadata>
  <g
     transform="translate(0,-796.36216)"
     id="layer1"
     inkscape:groupmode="layer"
     inkscape:label="Layer 1">
    <path
       d="m 256,-924.36218 a 128,128 0 0 1 -64,110.85125 128,128 0 0 1 -128.000003,0 A 128,128 0 0 1 0,-924.36218"
       sodipodi:arc-type="arc"
       sodipodi:open="true"
       sodipodi:end="3.1415927"
       sodipodi:start="0"
       sodipodi:ry="128"
       sodipodi:rx="128"
       sodipodi:cy="-924.36218"
       sodipodi:cx="128"
       sodipodi:type="arc"
       id="path950"
       style="fill:#025c71;fill-opacity:1;stroke:none;stroke-width:10;stroke-linejoin:round;stroke-miterlimit:4;stroke-dasharray:none;stroke-opacity:0.258824"
       transform="scale(1,-1)" />
    <path
       inkscape:connector-curvature="0"
       id="path4913"
       d="M 154.47438,968.80998 101.03985,1048.476 0.4857685,1048.9618 0,842.0244 l 33.032258,-2.42884 45.176471,83.55218 21.373814,35.4611 26.717267,13.11575 z"
       style="fill:none;fill-rule:evenodd;stroke:none;stroke-width:1px;stroke-linecap:butt;stroke-linejoin:miter;stroke-opacity:1" />
    <path
       style="fill:#61929e;fill-opacity:1;stroke:none;stroke-width:10;stroke-linejoin:round;stroke-miterlimit:4;stroke-dasharray:none;stroke-opacity:0.258824"
       id="path4152"
       sodipodi:type="arc"
       sodipodi:cx="128"
       sodipodi:cy="924.36218"
       sodipodi:rx="128"
       sodipodi:ry="128"
       sodipodi:start="0"
       sodipodi:end="3.1415927"
       sodipodi:open="true"
       sodipodi:arc-type="arc"
       d="m 256,924.36218 a 128,128 0 0 1 -64,110.85122 128,128 0 0 1 -128.000003,0 A 128,128 0 0 1 0,924.36218" />
    <text
       id="text4914"
       y="927.36218"
       x="120"
       style="font-style:normal;font-weight:normal;line-height:0%;font-family:sans-serif;letter-spacing:0px;word-spacing:0px;fill:#000000;fill-opacity:1;stroke:none;stroke-width:1px;stroke-linecap:butt;stroke-linejoin:miter;stroke-opacity:1"
       xml:space="preserve"><tspan
         y="927.36218"
         x="120"
         id="tspan4916"
         sodipodi:role="line"
         style="font-size:40px;line-height:1.25"> </tspan></text>
    <path
       id="path843"
       style="fill:#ffffff;fill-opacity:1"
       d="m 121.60424,849.37003 c -10.61122,-0.0168 -18.85125,1.79444 -27.064448,5.95117 -23.679487,11.98426 -38.716493,41.3679 -35.021484,68.43359 1.768827,12.95653 5.203106,19.84646 12.048828,24.16797 2.140892,1.35149 3.892578,2.8624 3.892578,3.35742 0,0.49502 -3.202155,2.12191 -7.115234,3.61719 -13.295778,5.0806 -17.087744,11.09976 -10.894532,17.29297 5.798208,5.79821 14.092121,7.30791 25.259766,4.59765 4.439136,-1.07733 3.376076,1.417 -3.320312,7.78907 -3.338862,3.17715 -5.852248,5.77734 -5.583985,5.77734 0.268262,0 2.614448,-0.91157 5.212891,-2.02539 2.598442,-1.11382 4.951391,-1.79861 5.228515,-1.52149 0.277124,0.27712 -0.22593,3.06819 -1.117187,6.20118 -1.748879,6.14774 -1.536763,6.1101 3.201172,-0.55469 l 3.128906,-4.40039 v 5.65039 c 0,3.10752 0.188443,5.65039 0.417969,5.65039 0.229527,0 2.086595,-5.00971 4.126953,-11.13281 l 3.708984,-11.13281 -3.363281,-6.29688 c -1.850286,-3.46306 -3.032469,-6.62964 -2.625,-7.03711 0.40747,-0.40747 4.902815,3.50175 9.988281,8.6875 16.0134,16.3292 25.55718,21.14747 41.74609,21.07617 16.47221,-0.0726 29.76834,-5.22043 41.12109,-15.92187 7.94959,-7.49352 12.93854,-16.39491 15.35743,-27.4043 2.84268,-12.93821 1.83559,-13.69851 -4.48829,-3.38477 -10.1968,16.63021 -20.27827,25.25384 -31.99023,27.36524 -14.21539,2.5627 -30.62337,-5.21497 -36.54883,-17.32617 -2.73556,-5.59122 -2.72151,-8.49219 0.0391,-8.49219 1.69574,0 2.83763,2.33784 4.1543,8.5 l 0.85547,4 6,0.57617 c 3.3,0.31676 6.89062,0.26787 7.97852,-0.10742 1.75968,-0.60703 1.60371,-0.87405 -1.41211,-2.43359 l -3.39063,-1.75391 4.64649,-2.01172 c 5.83066,-2.52393 5.09801,-4.02614 -1.53321,-3.14648 l -5.06054,0.66992 2.60937,-3.83985 c 1.43515,-2.112 2.42548,-4.02373 2.20117,-4.24804 -0.22431,-0.22431 -2.10026,0.87532 -4.16797,2.44336 -2.25165,1.70753 -3.52682,2.23993 -3.18164,1.32617 0.31698,-0.83912 1.1058,-4.07923 1.75391,-7.20117 1.80971,-8.71735 -0.17081,-11.10101 -10.63867,-12.80469 -3.27904,-0.53372 -7.22848,-0.54734 -9.52539,-0.0312 -3.06522,0.68871 -3.81516,0.59944 -3.42774,-0.41016 2.34122,-6.10113 4.85978,-16.13399 5.34961,-21.31054 0.35472,-3.74874 1.0208,-6.14216 1.65235,-5.93164 0.88794,0.29598 5.36584,8.32923 7.64453,13.71484 0.78229,1.84892 15.75459,9.91764 18.49023,9.96484 1.52629,0.0263 1.11899,-0.58286 -1.7539,-2.62695 -4.37173,-3.11053 -4.32517,-3.78811 0.15429,-2.22656 4.6188,1.61012 4.9945,0.34088 0.65625,-2.21875 l -3.70898,-2.1875 2.83203,-2.31641 2.83203,-2.3164 -3.00586,-0.0371 c -1.65363,-0.0198 -4.42914,0.3724 -6.16797,0.87109 l -3.16211,0.90625 0.54883,-5.32031 c 0.58226,-5.64157 0.19336,-6.33522 -6.65039,-11.83008 -3.66881,-2.9457 -1.1667,-4.1668 8.45117,-4.12695 l 8.40235,0.0352 -5.47266,-4.87891 c -6.56586,-5.85206 -8.06269,-8.23968 -6.41211,-10.22852 1.65848,-1.99834 7.35891,-2.85938 9.90625,-1.49609 1.94896,1.04305 2.08845,1.68642 1.49414,6.93945 l -0.65625,5.79102 9.86328,8.50586 c 10.16055,8.76233 22.94285,21.70281 25.90821,26.22851 0.92563,1.41268 2.57493,2.56836 3.66601,2.56836 2.41133,0 7.22487,-4.97695 9.91797,-10.25586 1.75949,-3.44888 1.85438,-4.5006 0.8457,-9.35937 -0.62499,-3.01054 -2.88502,-8.96586 -5.02148,-13.23438 -6.60735,-13.20114 -20.57191,-25.56913 -39.65235,-35.11919 -10.12062,-5.06553 -18.42776,-6.99709 -30.1582,-7.01562 z m 0.78711,6.58984 c 5.71847,-0.0122 11.41667,0.56122 15.30274,1.72461 6.32845,1.89457 28.28644,12.86813 35.02148,17.50195 11.03305,7.59094 18.16794,19.2282 18.2168,29.71289 0.0295,6.32403 -2.17052,11.45508 -4.91016,11.45508 -2.00092,0 -26.85445,-24.21697 -30.49609,-29.71484 -5.67312,-8.56486 -2.93518,-11.01991 5.28906,-4.74024 3.54273,2.70508 4.64453,4.19962 4.64453,6.30078 0,3.5274 1.66189,5.1543 5.26562,5.1543 3.27006,0 5.98907,1.26128 10.10938,4.68945 1.58156,1.31589 3.0915,2.17608 3.35547,1.91211 0.69773,-0.69773 -8.17491,-11.97582 -15.68555,-19.9375 -12.26869,-13.00545 -18.52207,-15.62127 -37.40039,-15.64843 -17.70135,-0.0255 -28.85786,3.92857 -38.25976,13.55859 -7.066569,7.23802 -9.688807,14.11847 -9.691407,25.42578 -0.003,12.99386 5.121473,28.51981 14.84375,44.97266 2.933667,4.96459 5.211867,9.02734 5.062497,9.02734 -0.80412,0 -13.689038,-14.22473 -16.757809,-18.5 -11.363705,-15.83139 -16.339012,-31.92598 -13.921875,-45.04102 3.12049,-16.93133 16.243116,-30.6183 34.580074,-36.06445 3.97353,-1.18015 9.71317,-1.77686 15.43164,-1.78906 z" />
  </g>
</svg>
