<?xml version="1.0" encoding="UTF-8" standalone="no"?>
<svg
   xmlns:dc="http://purl.org/dc/elements/1.1/"
   xmlns:cc="http://creativecommons.org/ns#"
   xmlns:rdf="http://www.w3.org/1999/02/22-rdf-syntax-ns#"
   xmlns:svg="http://www.w3.org/2000/svg"
   xmlns="http://www.w3.org/2000/svg"
   xmlns:sodipodi="http://sodipodi.sourceforge.net/DTD/sodipodi-0.dtd"
   xmlns:inkscape="http://www.inkscape.org/namespaces/inkscape"
   width="256"
   height="256"
   viewBox="0 0 256 256"
   id="svg2"
   version="1.1"
   inkscape:version="1.0 (4035a4fb49, 2020-05-01)"
   sodipodi:docname="konqueror.svg">
  <sodipodi:namedview
     inkscape:document-rotation="0"
     id="base"
     pagecolor="#ffffff"
     bordercolor="#666666"
     borderopacity="1.0"
     inkscape:pageopacity="0.0"
     inkscape:pageshadow="2"
     inkscape:zoom="3.2148438"
     inkscape:cx="128"
     inkscape:cy="128"
     inkscape:document-units="px"
     inkscape:current-layer="layer1"
     showgrid="true"
     units="px"
     inkscape:window-width="1920"
     inkscape:window-height="1048"
     inkscape:window-x="0"
     inkscape:window-y="0"
     inkscape:window-maximized="1">
    <inkscape:grid
       spacingy="5"
       spacingx="5"
       id="grid4168"
       type="xygrid" />
  </sodipodi:namedview>
  <defs
     id="defs4">
    <clipPath
       id="clipPath5002"
       clipPathUnits="userSpaceOnUse">
      <g
         id="g5004">
        <path
           style="fill:#0f9d58;fill-opacity:1;stroke:none;stroke-width:4.85768509;stroke-linejoin:round;stroke-miterlimit:4;stroke-dasharray:none;stroke-opacity:1"
           d="M 88.118406,249.43519 C 46.103287,235.29134 14.771284,201.68742 4.1335861,159.36053 1.3377997,148.23623 0.92261224,144.16281 0.92582381,127.88908 0.92787958,117.47222 1.134384,112.01362 1.6577819,108.54099 4.4653598,89.913336 12.17654,70.638106 23.042737,55.086148 c 3.958678,-5.665755 8.344812,-10.93092 9.101533,-10.925587 0.32809,0.0023 10.488643,18.309713 22.579009,40.683112 12.090365,22.373397 22.374546,41.334697 22.853732,42.136217 0.479186,0.80151 0.924733,2.44098 0.990103,3.64326 0.343424,6.31639 2.524175,14.20976 5.6424,20.42304 2.954444,5.88693 5.065381,8.73258 10.434696,14.06652 6.71418,6.66995 12.88853,10.28643 21.73204,12.72904 3.16587,0.87442 5.10478,1.05037 11.57517,1.05037 8.82596,0 12.60219,-0.76201 19.26429,-3.88733 2.04584,-0.95974 3.93661,-1.66536 4.20172,-1.56805 0.2651,0.0973 -11.0555,17.66459 -25.1569,39.0384 l -25.6389,38.86148 -3.094121,0.11221 c -2.554618,0.0927 -4.195204,-0.25845 -9.409103,-2.01364 z"
           id="path5006"
           inkscape:connector-curvature="0"
           transform="translate(0,796.36216)" />
        <path
           style="fill:#f4b400;fill-opacity:1;stroke:none;stroke-width:4.85768509;stroke-linejoin:round;stroke-miterlimit:4;stroke-dasharray:none;stroke-opacity:1"
           d="m 112.35984,1051.5167 c -10.0014,-1.4495 -12.15632,-1.8201 -12.531784,-2.1556 -0.248854,-0.2223 1.738304,-3.7475 4.550294,-8.0722 7.16635,-11.0213 49.77231,-74.64801 50.25856,-75.05489 3.57509,-2.99158 8.63523,-8.0414 10.57512,-10.55356 3.36154,-4.35318 7.55784,-12.9141 9.06523,-18.494 6.19314,-22.92535 -2.59253,-47.15185 -21.69967,-59.83688 l -2.96081,-1.96565 17.02469,0.29584 c 9.36358,0.1627 31.17032,0.43384 48.45941,0.60252 l 31.43471,0.30668 1.54584,4.18869 c 2.24597,6.08579 4.67816,15.0947 5.93451,21.9816 1.52517,8.36049 1.92536,28.85896 0.73851,37.82758 -3.0805,23.27845 -12.81326,45.72018 -27.80202,64.10577 -20.47622,25.1166 -51.4599,42.1974 -84.14612,46.3885 -5.31244,0.6812 -26.64601,0.9864 -30.44647,0.4356 z"
           id="path5008"
           inkscape:connector-curvature="0" />
        <path
           style="fill:#db4437;fill-opacity:1;stroke:none;stroke-width:10;stroke-linejoin:round;stroke-miterlimit:4;stroke-dasharray:none;stroke-opacity:1"
           d="M 67.989788,108.87302 C 41.284246,59.575543 33.290284,45.149038 32.233625,44.344765 31.651257,43.901497 32.811213,42.549931 38.695603,36.815353 53.43581,22.450419 68.809334,13.040746 87.839196,6.7360352 101.68742,2.1480329 112.58238,0.43719165 127.95142,0.43719165 c 21.3099,0 37.80488,3.80960275 56.83492,13.12633035 25.29351,12.383198 46.19421,33.578863 58.51993,59.345832 1.61138,3.368591 2.92978,6.372442 2.92978,6.675231 0,0.560033 -10.54865,0.49527 -71.16508,-0.436914 l -24.28843,-0.373518 -3.93063,-1.764495 c -6.75732,-3.033425 -10.64587,-3.839529 -18.6576,-3.867747 -5.0296,-0.01773 -7.97946,0.207636 -10.31642,0.788106 -14.50826,3.603659 -26.283291,12.94777 -33.291614,26.418653 -3.58502,6.89086 -5.24713,13.08166 -6.331628,23.58317 l -0.33738,3.26696 -9.92748,-18.32578 z"
           id="path5010"
           inkscape:connector-curvature="0"
           transform="translate(0,796.36216)" />
      </g>
    </clipPath>
    <clipPath
       clipPathUnits="userSpaceOnUse"
       id="clipPath4271">
      <circle
         style="fill:#292929;fill-opacity:0.26020412;stroke:none;stroke-width:10;stroke-linejoin:round;stroke-miterlimit:4;stroke-dasharray:none;stroke-opacity:0.25882353"
         id="circle4273"
         cx="128"
         cy="128.00002"
         r="128" />
    </clipPath>
    <clipPath
       id="clipPath4363"
       clipPathUnits="userSpaceOnUse">
      <circle
         style="fill:#4285f4;fill-opacity:1;stroke:none;stroke-width:10;stroke-linejoin:round;stroke-miterlimit:4;stroke-dasharray:none;stroke-opacity:0.25882353"
         id="circle4365"
         cx="128"
         cy="924.36218"
         r="128" />
    </clipPath>
    <clipPath
       clipPathUnits="userSpaceOnUse"
       id="clipPath4452">
      <circle
         style="fill:#4285f4;fill-opacity:1;stroke:none;stroke-width:10;stroke-linejoin:round;stroke-miterlimit:4;stroke-dasharray:none;stroke-opacity:0.25882353"
         id="circle4454"
         cx="128"
         cy="924.36218"
         r="128" />
    </clipPath>
    <clipPath
       id="clipPath5177"
       clipPathUnits="userSpaceOnUse">
      <circle
         style="fill:#4285f4;fill-opacity:1;stroke:none;stroke-width:10;stroke-linejoin:round;stroke-miterlimit:4;stroke-dasharray:none;stroke-opacity:0.25882353"
         id="circle5179"
         cx="128"
         cy="924.36218"
         r="128" />
    </clipPath>
    <clipPath
       clipPathUnits="userSpaceOnUse"
       id="clipPath4342">
      <circle
         style="fill:#4285f4;fill-opacity:1;stroke:none;stroke-width:10;stroke-linejoin:round;stroke-miterlimit:4;stroke-dasharray:none;stroke-opacity:0.25882353"
         id="circle4344"
         cx="128"
         cy="933.48718"
         r="128" />
    </clipPath>
    <clipPath
       id="clipPath4681"
       clipPathUnits="userSpaceOnUse">
      <circle
         style="fill:#9d5fad;fill-opacity:1;stroke:none;stroke-width:10;stroke-linejoin:round;stroke-miterlimit:4;stroke-dasharray:none;stroke-opacity:0.25882353"
         id="circle4683"
         cx="127.00293"
         cy="930.43964"
         r="128" />
    </clipPath>
    <clipPath
       clipPathUnits="userSpaceOnUse"
       id="clipPath4235">
      <circle
         style="fill:#0f9d58;fill-opacity:1;stroke:none;stroke-width:10;stroke-linejoin:round;stroke-miterlimit:4;stroke-dasharray:none;stroke-opacity:0.25882353"
         id="circle4237"
         cx="128"
         cy="924.36218"
         r="128" />
    </clipPath>
    <clipPath
       id="clipPath4771"
       clipPathUnits="userSpaceOnUse">
      <circle
         style="fill:#0f9d58;fill-opacity:1;stroke:none;stroke-width:10;stroke-linejoin:round;stroke-miterlimit:4;stroke-dasharray:none;stroke-opacity:0.25882353"
         id="circle4773"
         cx="128"
         cy="924.36218"
         r="128" />
    </clipPath>
    <clipPath
       clipPathUnits="userSpaceOnUse"
       id="clipPath4842">
      <circle
         style="fill:#0f9d58;fill-opacity:1;stroke:none;stroke-width:10;stroke-linejoin:round;stroke-miterlimit:4;stroke-dasharray:none;stroke-opacity:0.25882353"
         id="circle4844"
         cx="128"
         cy="924.36218"
         r="128" />
    </clipPath>
    <clipPath
       id="clipPath4458"
       clipPathUnits="userSpaceOnUse">
      <circle
         style="fill:#ff3b38;fill-opacity:1;stroke:none;stroke-width:10;stroke-linejoin:round;stroke-miterlimit:4;stroke-dasharray:none;stroke-opacity:0.25882353"
         id="circle4460"
         cx="128"
         cy="924.36218"
         r="128" />
    </clipPath>
    <clipPath
       clipPathUnits="userSpaceOnUse"
       id="clipPath4783">
      <circle
         style="fill:#ff3b38;fill-opacity:1;stroke:none;stroke-width:10;stroke-linejoin:round;stroke-miterlimit:4;stroke-dasharray:none;stroke-opacity:0.25882353"
         id="circle4785"
         cx="128"
         cy="924.36218"
         r="128" />
    </clipPath>
    <clipPath
       id="clipPath4789"
       clipPathUnits="userSpaceOnUse">
      <circle
         style="fill:#80b4ff;fill-opacity:1;stroke:none;stroke-width:10;stroke-linejoin:round;stroke-miterlimit:4;stroke-dasharray:none;stroke-opacity:0.25882353"
         id="circle4791"
         cx="102.64714"
         cy="924.36218"
         r="128" />
    </clipPath>
    <clipPath
       clipPathUnits="userSpaceOnUse"
       id="clipPath4721">
      <circle
         style="fill:#557ae6;fill-opacity:1;stroke:none;stroke-width:10;stroke-linejoin:round;stroke-miterlimit:4;stroke-dasharray:none;stroke-opacity:0.25882353"
         id="circle4723"
         cx="128"
         cy="924.36218"
         r="128" />
    </clipPath>
    <clipPath
       id="clipPath4491"
       clipPathUnits="userSpaceOnUse">
      <circle
         style="fill:#990000;fill-opacity:1;stroke:none;stroke-width:10;stroke-linejoin:round;stroke-miterlimit:4;stroke-dasharray:none;stroke-opacity:0.25882353"
         id="circle4493"
         cx="128"
         cy="924.36218"
         r="128" />
    </clipPath>
    <clipPath
       clipPathUnits="userSpaceOnUse"
       id="clipPath1102">
      <circle
         style="fill:#b40000;fill-opacity:1;stroke:none;stroke-width:10;stroke-linejoin:round;stroke-miterlimit:4;stroke-dasharray:none;stroke-opacity:0.25882353"
         id="circle1104"
         cx="128"
         cy="924.36218"
         r="128" />
    </clipPath>
    <clipPath
       id="clipPath5083"
       clipPathUnits="userSpaceOnUse">
      <circle
         r="112.94118"
         cy="924.36218"
         cx="128"
         id="circle5085"
         style="fill:#50a9ff;fill-opacity:1;stroke-width:1.6778121" />
    </clipPath>
  </defs>
  <metadata
     id="metadata7">
    <rdf:RDF>
      <cc:Work
         rdf:about="">
        <dc:format>image/svg+xml</dc:format>
        <dc:type
           rdf:resource="http://purl.org/dc/dcmitype/StillImage" />
        <dc:title />
      </cc:Work>
    </rdf:RDF>
  </metadata>
  <g
     inkscape:label="Layer 1"
     inkscape:groupmode="layer"
     id="layer1"
     transform="translate(0,-796.36216)">
    <path
       transform="scale(1,-1)"
       id="path987"
       style="fill:#236dd8;fill-opacity:1;stroke-width:1.90152"
       sodipodi:type="arc"
       sodipodi:cx="128"
       sodipodi:cy="-924.36218"
       sodipodi:rx="128"
       sodipodi:ry="128"
       sodipodi:start="0"
       sodipodi:end="3.1415927"
       sodipodi:open="true"
       sodipodi:arc-type="arc"
       d="m 256,-924.36218 a 128,128 0 0 1 -64,110.85125 128,128 0 0 1 -128.000003,0 A 128,128 0 0 1 0,-924.36218" />
    <path
       d="m 256,924.36218 a 128,128 0 0 1 -64,110.85122 128,128 0 0 1 -128.000003,0 A 128,128 0 0 1 0,924.36218"
       sodipodi:arc-type="arc"
       sodipodi:open="true"
       sodipodi:end="3.1415927"
       sodipodi:start="0"
       sodipodi:ry="128"
       sodipodi:rx="128"
       sodipodi:cy="924.36218"
       sodipodi:cx="128"
       sodipodi:type="arc"
       style="fill:#50a9ff;fill-opacity:1;stroke-width:1.90152"
       id="path4559" />
    <g
       id="g4635"
       transform="matrix(1.1333333,0,0,1.1333333,-17.066664,-123.24826)">
      <polygon
         transform="matrix(0.30806666,0,0,0.30806666,49.610281,845.46025)"
         style="fill:#ffffff;fill-opacity:1"
         points="388.551,252.99 382.525,260.019 377.505,259.015 384.534,252.99 "
         id="polygon239-7-7" />
      <path
         inkscape:connector-curvature="0"
         style="fill:#ffffff;fill-opacity:1;stroke-width:0.30806667"
         id="path241-6-9"
         d="m 168.07239,926.49136 0.61859,0.9279 0.61891,1.5468 h 1.85579 l 0.92821,-1.23719 h 1.5468 l 0.3093,1.85579 1.85579,0.92821 c 0,0 1.54681,-0.92821 2.1654,-1.23751 0.6186,-0.30961 -0.61859,4.6401 -1.2375,5.568 -0.6186,0.9279 -1.85579,2.784 -1.85579,3.40259 0,0.61891 -1.23751,1.8558 -1.54681,2.16541 -0.3096,0.30929 -3.4029,0.30929 -3.0936,-0.30961 0.30961,-0.6186 0.30961,-0.9279 0.30961,-0.9279 l -3.40291,-1.2375 -0.6186,-6.4962 v -2.4747 l -0.9282,-0.3093 0.6189,-1.54681 1.2372,0.92821 z" />
      <polygon
         transform="matrix(0.30806666,0,0,0.30806666,49.610281,845.46025)"
         style="fill:#ffffff;fill-opacity:1"
         points="358.427,314.241 358.427,307.212 361.439,303.196 364.451,293.154 366.46,293.154 367.464,303.196 362.443,308.217 362.443,315.245 "
         id="polygon243-1-3" />
      <polygon
         transform="matrix(0.30806666,0,0,0.30806666,49.610281,845.46025)"
         style="fill:#ffffff;fill-opacity:1"
         points="336.336,279.097 328.303,291.146 332.319,293.154 347.382,273.072 "
         id="polygon245-8-1" />
      <path
         inkscape:connector-curvature="0"
         style="fill:#ffffff;fill-opacity:1;stroke-width:0.30806667"
         id="path247-9-9"
         d="m 131.5708,873.28545 2.784,0.6186 h 0.92789 l -5.56799,4.6401 -4.3308,2.47469 -0.3093,-1.8561 c 0,0 0.6186,-1.5468 1.5468,-2.1654 0.92821,-0.6186 3.4026,-3.09329 3.7122,-3.40259 0.30899,-0.3093 1.2372,-0.3093 1.2372,-0.3093 z" />
      <path
         inkscape:connector-curvature="0"
         style="fill:#ffffff;fill-opacity:1;stroke-width:0.30806667"
         id="path249-2-8"
         d="m 137.75739,873.59475 c 0,0 -0.30929,1.2375 0.3093,1.54683 0.61891,0.30927 1.54681,0.30927 1.8561,0.30927 0.3093,0 1.2372,-0.30927 1.2372,-0.30927 l -0.6186,-0.92793 z" />
      <polygon
         transform="matrix(0.30806666,0,0,0.30806666,49.610281,845.46025)"
         style="fill:#ffffff;fill-opacity:1"
         points="274.08,105.384 275.085,111.409 272.072,113.417 267.052,111.409 269.06,106.388 "
         id="polygon251-7-6" />
      <path
         inkscape:connector-curvature="0"
         style="fill:#ffffff;fill-opacity:1;stroke-width:0.30806667"
         id="path253-9-5"
         d="m 181.59251,916.18407 c -1.15433,-19.07795 -13.68155,-35.08571 -30.89354,-41.3293 l -4.58927,0.28681 -1.54681,1.5468 -1.85579,-1.5468 v 1.8561 l 0.9279,0.9279 -0.6186,0.3093 -3.0933,0.6186 -8.04269,3.71189 0.61859,4.0215 -0.61859,-0.3093 -0.61891,1.23751 2.1654,4.0215 -0.3093,0.9279 -1.5468,0.3093 0.3093,2.78399 h -1.23751 v 2.1654 l -10.20809,8.04267 0.3093,3.09361 6.49589,7.11479 6.1869,-0.30929 3.0933,-0.3093 v 2.4747 l 1.2375,3.09329 0.92821,2.4747 v 6.18691 l 1.85579,3.71223 2.1654,5.568 4.94909,-0.92821 1.8558,-1.85579 3.0936,-5.87761 5.8773,-4.3308 0.9282,-3.09329 6.4959,-6.1866 0.3096,2.1654 1.8558,0.3093 0.3093,-3.0936 -1.23751,-1.85611 -2.4747,-1.23722 2.784,-0.61857 1.23751,0.3093 v -1.54683 l 1.5468,0.61859 -0.6186,2.1654 -0.3093,2.1654 1.23751,0.9279 c 0,0 0.61859,-0.9279 1.5468,-1.85579 0.92789,-0.92818 2.784,-1.8561 3.40259,-1.23748 0.61891,0.61857 -0.30929,4.02151 -0.30929,4.02151 l -0.92821,1.2375 -0.6186,2.47439 -0.9282,-0.3093 -0.6186,-2.16509 h -1.5468 l -0.92821,2.47439 1.5468,1.5468 h 2.784 l 2.4747,-2.47439 c 0,0 -0.9282,-5.56799 1.23751,-4.9494 2.16509,0.6186 1.5468,5.568 1.5468,5.568 z m -44.14441,-18.4609 c -0.3093,0 -2.784,0 -2.784,0 l 1.5468,-1.2375 1.2375,-1.2375 c 0.3093,0 2.784,0.61859 2.784,0.61859 l 2.16509,1.54681 -0.92789,0.9282 c 0,0 -3.71221,-0.6186 -4.0215,-0.6186 z m 14.53858,0 -0.30929,0.61857 -2.4747,0.3093 -0.3093,0.92821 -1.8558,0.30929 -0.3096,0.6186 -3.0933,-0.92789 -1.2375,-0.6186 1.5468,-1.23751 0.30961,-0.92789 h 0.92789 l 0.61891,0.61859 2.4747,-0.30929 0.6186,-1.23751 2.1654,0.92821 1.85579,0.3093 -0.92821,0.61859 z m 2.47501,-3.0936 -1.5468,0.61857 -1.85579,0.61859 -0.30961,-1.2375 1.8561,-0.61857 0.3093,-1.2375 1.5468,1.5468 z m 7.11449,19.79787 c 0,0 -1.5468,-3.71189 -2.16509,-4.64007 -0.6189,-0.92792 -3.7122,-6.18693 -3.7122,-6.18693 0,0 3.40259,4.02153 4.6401,5.87763 1.2375,1.8558 2.1654,3.7119 2.1654,3.7119 l 0.9282,1.23747 z" />
      <path
         inkscape:connector-curvature="0"
         style="fill:#ffffff;fill-opacity:1;stroke-width:0.30806667"
         id="path255-5-0"
         d="m 141.15999,961.13716 -1.2372,0.30929 v 0.9279 l -1.8561,-0.6186 -0.92789,-1.85579 -1.85611,0.9279 -1.85579,1.2375 -3.0933,-0.6186 -0.6189,-0.9282 -5.568,-0.3093 -1.5468,1.2375 -1.5468,-0.6189 0.30929,-1.8558 -1.85579,-0.3093 -0.9282,2.1651 -4.6401,-0.3093 2.8148,2.03324 c 5.52056,2.27661 11.56821,3.53506 17.91069,3.53506 4.73313,0 9.30176,-0.70177 13.611,-2.00335 v -1.39924 h -4.64041 z" />
      <g
         id="g4608">
        <path
           d="m 71.772812,849.54047 c -0.236904,0 -0.474731,0.09 -0.654642,0.26956 l -5.400809,5.39117 c -0.359822,0.35923 -0.360099,0.94976 0,1.30928 l 7.605427,7.62465 -1.915805,1.9158 c -0.59919,0.59919 -0.723711,1.68559 -0.27917,2.40677 l 13.593441,22.03641 c -2.133238,3.71966 -3.865004,7.69776 -5.131251,11.87979 l -25.078567,4.65951 C 53.678424,907.18778 53,908.00576 53,908.85294 v 16.09649 c 0,0.84718 0.677438,1.70154 1.501825,1.89655 l 24.221741,5.74735 c 1.238305,5.1404 3.174565,10.00903 5.689621,14.50803 l -14.151843,20.60196 c -0.479629,0.69836 -0.377751,1.75974 0.221439,2.35862 l 11.379212,11.37921 c 0.357665,0.35736 0.89364,0.54876 1.415166,0.54876 0.352736,0 0.700482,-0.0903 0.991605,-0.26956 L 105.4676,968.64674 c 4.18022,2.46719 8.69651,4.43256 13.46828,5.7859 l 4.31293,23.23977 c 0.15437,0.83302 0.97235,1.51144 1.81953,1.51144 h 16.09649 c 0.84718,0 1.70154,-0.67744 1.89655,-1.50182 l 5.39116,-22.73914 c 5.35808,-1.31757 10.41657,-3.38338 15.06637,-6.08432 l 19.77403,13.5838 c 0.29852,0.20517 0.66318,0.30806 1.03009,0.30806 0.49108,0 0.98535,-0.17698 1.32856,-0.51986 l 2.76296,-2.76299 7.6054,7.61504 c 0.1796,0.17991 0.41773,0.26956 0.65464,0.26956 0.2369,0 0.47473,-0.0903 0.65464,-0.26956 l 5.40078,-5.39116 c 0.35985,-0.35921 0.36013,-0.94947 0,-1.30929 l -7.61501,-7.61504 1.92542,-1.92541 c 0.59888,-0.59888 0.72371,-1.67595 0.2792,-2.39713 l -12.76554,-20.69823 c 1.82455,-3.16717 3.35182,-6.52112 4.55362,-10.03142 l -8.15412,-1.98318 c -6.82864,18.96027 -24.97377,32.52029 -46.28702,32.52029 -27.16381,0 -49.184782,-22.02067 -49.184782,-49.18475 0,-20.98273 13.134884,-38.89361 31.634592,-45.95973 l -1.65586,-8.2889 c -3.18768,1.12835 -6.2442,2.53206 -9.14572,4.17815 L 85.154457,854.45993 c -0.298516,-0.20518 -0.663483,-0.30807 -1.030113,-0.30807 -0.491058,0 -0.985628,0.17698 -1.328507,0.51986 l -2.762988,2.76296 -7.605396,-7.62465 c -0.179602,-0.18022 -0.417738,-0.26956 -0.654641,-0.26956 z m 41.386818,19.48522 0.44287,2.19497 c -18.76711,8.28484 -31.201388,27.192 -31.201388,47.84664 0,28.81898 23.446118,52.26541 52.265448,52.26541 21.04558,0 40.06404,-12.73988 48.17393,-31.97152 l 2.15646,0.51983 c -8.36925,20.25295 -28.18255,33.64667 -50.33039,33.64667 -14.54567,0 -28.22294,-5.66698 -38.508331,-15.95206 -10.285453,-10.28512 -15.952092,-23.96235 -15.952092,-38.50833 0,-11.48288 3.533309,-22.46041 10.21435,-31.75016 5.840605,-8.12094 13.650863,-14.39191 22.739143,-18.29145 z"
           id="path259-3-2"
           style="fill:#ffffff;fill-opacity:1;stroke-width:0.30806667"
           inkscape:connector-curvature="0" />
        <path
           d="m 115.46169,864.81734 c -22.333913,7.90558 -38.334587,29.2078 -38.334587,54.25023 0,31.77677 25.760227,57.53669 57.536687,57.53669 25.25037,0 46.69982,-16.26623 54.44585,-38.89126 l -8.15976,-1.9781 c -6.82861,18.96027 -24.97281,32.51736 -46.28609,32.51736 -27.16378,0 -49.184692,-22.02029 -49.184692,-49.18438 0,-20.98273 13.140891,-38.89341 31.640602,-45.95954 z"
           id="path275-8-8"
           style="fill:#ffffff;fill-opacity:1;stroke-width:0.30806667"
           inkscape:connector-curvature="0" />
      </g>
      <path
         inkscape:connector-curvature="0"
         style="fill:#ffffff;fill-opacity:1;stroke-width:0.30806667"
         id="path281-2-6"
         d="m 129.0961,882.56568 -5.8776,-0.3093 -1.54681,-0.92821 2.1654,-2.78399 1.23751,-2.1654 -1.8561,-1.54681 -1.54681,3.0933 -1.5468,1.5468 h -3.7122 l 2.1654,-2.4747 -0.22674,-2.04094 c -14.5771,5.39271 -25.750675,17.80379 -29.417593,33.13165 l 0.725189,1.45007 c 0,0 1.232267,0.61613 0.9242,2.15646 -0.308066,1.54034 -1.540333,2.46454 -1.540333,2.46454 l -1.329924,2.39398 c -0.04405,0.83271 -0.06808,1.67065 -0.06808,2.51444 0,8.21706 2.109948,15.9403 5.81445,22.66139 1.34009,1.90785 6.868341,7.9629 6.868341,7.9629 l 1.8561,-1.2375 -3.40259,-6.80519 c 0,0 4.6401,-8.0427 5.2587,-8.352 0.61859,-0.30961 2.1654,-0.30961 2.1654,-0.30961 0,0 0.92789,0.30961 1.5468,0 0.6186,-0.30929 2.784,-7.11479 2.784,-7.11479 0,0 2.4747,-0.9279 2.784,-1.23751 0.3093,-0.3093 0.92789,-1.85579 -0.6186,-3.0933 -1.5468,-1.23719 -4.9494,-3.40259 -4.9494,-3.40259 0,0 -0.3093,-1.23751 -0.3093,-1.8558 0,-0.61859 -13.610691,-5.8776 -13.610691,-5.8776 l -0.928204,-1.2375 c 0,0 0.618597,-1.54681 0.928204,-1.8558 0.309299,-0.3093 -0.309299,-2.1654 -0.309299,-2.1654 0,0 0.309299,-4.9494 1.856102,-5.56799 1.546803,-0.6186 2.783998,-0.3093 2.165401,0.61859 -0.618598,0.92821 -1.546803,1.54681 -1.546803,1.54681 l -1.237504,0.61859 1.237504,1.8558 2.1654,0.3093 0.618598,-0.92821 -1.546802,-1.5468 1.546802,-0.6186 3.711892,-6.49589 c 0,0 8.0427,-3.4026 9.2802,-4.0215 1.2372,-0.6186 2.1654,-1.54681 2.4747,-1.54681 0.3093,0 1.5468,-0.3093 2.1654,-0.3093 0.6186,0 1.23751,-0.30929 1.23751,-0.61859 0,-0.3093 0.30929,-1.54681 0.61859,-1.85611 0.24214,-0.24214 0.86136,-0.67251 1.12013,-0.84841 -0.24861,0.2024 -0.67343,0.7945 1.04527,1.77662 2.1654,1.2375 2.4747,0 2.4747,0 l -0.3093,-1.2375 2.1654,0.30929 5.2587,-0.61859 0.92821,-2.1654 z" />
      <path
         inkscape:connector-curvature="0"
         style="color:#000000;font-style:normal;font-variant:normal;font-weight:normal;font-stretch:normal;font-size:medium;line-height:normal;font-family:Sans;-inkscape-font-specification:Sans;text-indent:0;text-align:start;text-decoration:none;text-decoration-line:none;letter-spacing:normal;word-spacing:normal;text-transform:none;writing-mode:lr-tb;direction:ltr;baseline-shift:baseline;text-anchor:start;display:inline;overflow:visible;visibility:visible;fill:#ffffff;fill-opacity:1;stroke:none;stroke-width:2.5260725;marker:none;enable-background:accumulate"
         id="path4615"
         d="m 134.66154,871.99493 c -25.97532,0 -47.056659,21.09076 -47.056659,47.06605 0,25.97529 21.081339,47.05669 47.056659,47.05669 25.97532,0 47.06609,-21.0814 47.06609,-47.05669 0,-25.97529 -21.09077,-47.06605 -47.06609,-47.06605 z m 0,2.47023 c 24.64336,0 44.59582,19.95243 44.59582,44.59582 0,24.64339 -19.95246,44.58643 -44.59582,44.58643 -24.64336,0 -44.586457,-19.94304 -44.586457,-44.58643 0,-24.64339 19.943097,-44.59582 44.586457,-44.59582 z" />
    </g>
  </g>
</svg>
