<?xml version="1.0" encoding="UTF-8" standalone="no"?>
<svg
   xmlns:dc="http://purl.org/dc/elements/1.1/"
   xmlns:cc="http://creativecommons.org/ns#"
   xmlns:rdf="http://www.w3.org/1999/02/22-rdf-syntax-ns#"
   xmlns:svg="http://www.w3.org/2000/svg"
   xmlns="http://www.w3.org/2000/svg"
   xmlns:xlink="http://www.w3.org/1999/xlink"
   xmlns:sodipodi="http://sodipodi.sourceforge.net/DTD/sodipodi-0.dtd"
   xmlns:inkscape="http://www.inkscape.org/namespaces/inkscape"
   sodipodi:docname="mathematica.svg"
   inkscape:version="1.0 (4035a4fb49, 2020-05-01)"
   version="1.1"
   id="svg2"
   viewBox="0 0 256 256"
   height="256"
   width="256">
  <sodipodi:namedview
     inkscape:document-rotation="0"
     inkscape:window-maximized="1"
     inkscape:window-y="0"
     inkscape:window-x="0"
     inkscape:window-height="1048"
     inkscape:window-width="1920"
     units="px"
     showgrid="false"
     inkscape:current-layer="layer1"
     inkscape:document-units="px"
     inkscape:cy="128"
     inkscape:cx="80.513673"
     inkscape:zoom="3.2851562"
     inkscape:pageshadow="2"
     inkscape:pageopacity="0.0"
     borderopacity="1.0"
     bordercolor="#666666"
     pagecolor="#ffffff"
     id="base" />
  <defs
     id="defs4">
    <radialGradient
       cx="0"
       cy="0"
       r="1"
       fx="0"
       fy="0"
       id="radialGradient4895"
       gradientUnits="userSpaceOnUse"
       gradientTransform="matrix(45.124908,0,0,-45.124908,74.972946,125.50104)"
       spreadMethod="pad">
      <stop
         id="stop4899"
         style="stop-color:#ebeaea;stop-opacity:1"
         offset="0" />
      <stop
         id="stop4901"
         style="stop-color:#ebeaea;stop-opacity:1"
         offset="1" />
    </radialGradient>
    <filter
       id="filter4301"
       inkscape:label="Drop Shadow"
       style="color-interpolation-filters:sRGB;">
      <feFlood
         id="feFlood4303"
         result="flood"
         flood-color="rgb(0,0,0)"
         flood-opacity="0.498039" />
      <feComposite
         id="feComposite4305"
         result="composite1"
         operator="in"
         in2="SourceGraphic"
         in="flood" />
      <feGaussianBlur
         id="feGaussianBlur4307"
         result="blur"
         stdDeviation="3.7"
         in="composite1" />
      <feOffset
         id="feOffset4309"
         result="offset"
         dy="3.7"
         dx="3.8" />
      <feComposite
         id="feComposite4311"
         result="composite2"
         operator="over"
         in2="offset"
         in="SourceGraphic" />
    </filter>
    <radialGradient
       spreadMethod="pad"
       gradientTransform="matrix(228.32686,0,0,222.71229,48.684695,874.0012)"
       gradientUnits="userSpaceOnUse"
       xlink:href="#radialGradient4895"
       id="radialGradient8118"
       fy="0"
       fx="0"
       r="0.80999798"
       cy="0"
       cx="0" />
    <radialGradient
       spreadMethod="pad"
       gradientTransform="matrix(45.124908,0,0,-45.124908,74.972946,125.50104)"
       gradientUnits="userSpaceOnUse"
       id="radialGradient4453"
       fy="0"
       fx="0"
       r="1"
       cy="0"
       cx="0">
      <stop
         offset="0"
         style="stop-color:#ffffff;stop-opacity:1"
         id="stop4455" />
      <stop
         offset="0.80999798"
         style="stop-color:#ebeaea;stop-opacity:1"
         id="stop4457" />
      <stop
         offset="0.80999798"
         style="stop-color:#ebeaea;stop-opacity:1"
         id="stop4459" />
      <stop
         offset="1"
         style="stop-color:#d4d3d4;stop-opacity:1"
         id="stop4461" />
    </radialGradient>
    <clipPath
       clipPathUnits="userSpaceOnUse"
       id="clipPath5238">
      <path
         style="fill:#df1818;fill-opacity:1"
         d="m 151.20117,796.60532 -105.78125,0 c -7.804357,0 -14.087891,6.28158 -14.087891,14.08594 l 0,227.33994 c 0,7.8043 6.283534,14.0878 14.087891,14.0878 l 165.16211,0 c 7.80436,0 14.08594,-6.2835 14.08594,-14.0878 l 0,-154.82237 -73.4668,-86.60351 z"
         id="path5240"
         inkscape:connector-curvature="0" />
    </clipPath>
    <clipPath
       id="clipPath4587"
       clipPathUnits="userSpaceOnUse">
      <path
         style="fill:#df7618;fill-opacity:1"
         d="m 151.20117,796.60532 -105.78125,0 c -7.804357,0 -14.087891,6.28158 -14.087891,14.08594 l 0,227.33994 c 0,7.8043 6.283534,14.0878 14.087891,14.0878 l 165.16211,0 c 7.80436,0 14.08594,-6.2835 14.08594,-14.0878 l 0,-154.82237 -73.4668,-86.60351 z"
         id="path4589"
         inkscape:connector-curvature="0" />
    </clipPath>
    <clipPath
       clipPathUnits="userSpaceOnUse"
       id="clipPath4824">
      <path
         style="fill:#df7618;fill-opacity:1"
         d="m 151.20117,796.60532 -105.78125,0 c -7.804357,0 -14.087891,6.28158 -14.087891,14.08594 l 0,227.33994 c 0,7.8043 6.283534,14.0878 14.087891,14.0878 l 165.16211,0 c 7.80436,0 14.08594,-6.2835 14.08594,-14.0878 l 0,-154.82237 -73.4668,-86.60351 z"
         id="path4826"
         inkscape:connector-curvature="0" />
    </clipPath>
    <clipPath
       id="clipPath5041"
       clipPathUnits="userSpaceOnUse">
      <path
         style="fill:#df7618;fill-opacity:1"
         d="m 151.20117,0.24318 -105.78125,0 c -7.804357,0 -14.087891,6.28158 -14.087891,14.08594 l 0,227.33994 c 0,7.8043 6.283534,14.0878 14.087891,14.0878 l 165.16211,0 c 7.80436,0 14.08594,-6.2835 14.08594,-14.0878 l 0,-154.82237 -73.4668,-86.60351 z"
         id="path5043"
         inkscape:connector-curvature="0" />
    </clipPath>
    <clipPath
       clipPathUnits="userSpaceOnUse"
       id="clipPath5730">
      <g
         id="g5732"
         transform="translate(100.29964,5.022605)">
        <path
           inkscape:connector-curvature="0"
           id="path5734"
           d="m 27.5363,791.34247 a 128,128 0 0 0 -127.83594,127.99414 128,128 0 0 0 128,127.99999 128,128 0 0 0 127.99219,-127.83788 L 27.5363,791.34247 Z m 12.42383,0.60742 a 128,128 0 0 1 7.76757,1.1211 128,128 0 0 0 -7.76757,-1.1211 z m 12.58789,1.84961 a 128,128 0 0 1 8.42187,2.08984 128,128 0 0 0 -8.42187,-2.08984 z m 12.36328,3.09766 a 128,128 0 0 1 8.94531,3.19726 128,128 0 0 0 -8.94531,-3.19726 z m 11.98437,4.30468 a 128,128 0 0 1 9.34375,4.43946 128,128 0 0 0 -9.34375,-4.43946 z m 11.49805,5.47852 a 128,128 0 0 1 9.49414,5.73438 128,128 0 0 0 -9.49414,-5.73438 z m 10.90625,6.59961 a 128,128 0 0 1 9.66016,7.24414 128,128 0 0 0 -9.66016,-7.24414 z m 10.17773,7.63867 a 128,128 0 0 1 9.38868,8.62891 128,128 0 0 0 -9.38868,-8.62891 z m 9.38868,8.62891 0.98046,0.98047 a 128,128 0 0 0 -0.98046,-0.98047 z m 7.65039,8.57226 a 128,128 0 0 1 4.5039,5.92188 128,128 0 0 0 -4.5039,-5.92188 z m 7.63867,10.30469 a 128,128 0 0 1 3.81054,6.21289 128,128 0 0 0 -3.81054,-6.21289 z m 6.57617,11.03125 a 128,128 0 0 1 3.08203,6.37695 128,128 0 0 0 -3.08203,-6.37695 z m 5.4375,11.63867 a 128,128 0 0 1 2.37695,6.50782 128,128 0 0 0 -2.37695,-6.50782 z m 4.23242,12.09375 a 128,128 0 0 1 1.68555,6.59375 128,128 0 0 0 -1.68555,-6.59375 z m 3.00781,12.48633 a 128,128 0 0 1 0.99024,6.53906 128,128 0 0 0 -0.99024,-6.53906 z m 1.74024,12.71094 a 128,128 0 0 1 0.55078,10.95117 128,128 0 0 0 -0.55078,-10.95117 z"
           style="fill:#df7618;fill-opacity:1" />
        <path
           inkscape:connector-curvature="0"
           id="path5736"
           d="m 155.31451,919.5046 a 128,128 0 0 0 0.16406,-0.006 L 27.32233,791.34247 a 128,128 0 0 0 -0.008,0.16211 128,128 0 0 0 35.85352,88.80861 l 0.98046,0.98046 a 128,128 0 0 0 91.16603,38.21095 z"
           style="fill:#fdac64;fill-opacity:1" />
      </g>
    </clipPath>
    <clipPath
       id="clipPath5225"
       clipPathUnits="userSpaceOnUse">
      <circle
         r="128"
         cy="924.36212"
         cx="128"
         id="circle5227"
         style="fill:#e51b24;fill-opacity:1;stroke:none;stroke-width:10;stroke-miterlimit:4;stroke-dasharray:none;stroke-opacity:1" />
    </clipPath>
  </defs>
  <metadata
     id="metadata7">
    <rdf:RDF>
      <cc:Work
         rdf:about="">
        <dc:format>image/svg+xml</dc:format>
        <dc:type
           rdf:resource="http://purl.org/dc/dcmitype/StillImage" />
        <dc:title />
      </cc:Work>
    </rdf:RDF>
  </metadata>
  <g
     transform="translate(0,-796.36214)"
     id="layer1"
     inkscape:groupmode="layer"
     inkscape:label="Layer 1">
    <path
       transform="scale(1,-1)"
       id="path1109"
       style="fill:#8d0f15;fill-opacity:1;stroke:none;stroke-width:10;stroke-miterlimit:4;stroke-dasharray:none;stroke-opacity:1"
       sodipodi:type="arc"
       sodipodi:cx="128"
       sodipodi:cy="-924.36212"
       sodipodi:rx="128"
       sodipodi:ry="128"
       sodipodi:start="0"
       sodipodi:end="3.1415927"
       sodipodi:open="true"
       sodipodi:arc-type="arc"
       d="m 256,-924.36212 a 128,128 0 0 1 -64,110.85125 128,128 0 0 1 -128.000003,0 A 128,128 0 0 1 0,-924.36212" />
    <path
       d="m 256,924.36212 a 128,128 0 0 1 -64,110.85128 128,128 0 0 1 -128.000003,0 A 128,128 0 0 1 0,924.36212"
       sodipodi:arc-type="arc"
       sodipodi:open="true"
       sodipodi:end="3.1415927"
       sodipodi:start="0"
       sodipodi:ry="128"
       sodipodi:rx="128"
       sodipodi:cy="924.36212"
       sodipodi:cx="128"
       sodipodi:type="arc"
       style="fill:#e51b24;fill-opacity:1;stroke:none;stroke-width:10;stroke-miterlimit:4;stroke-dasharray:none;stroke-opacity:1"
       id="path4421" />
    <text
       id="text4143"
       y="951.72528"
       x="74.722427"
       style="font-style:normal;font-variant:normal;font-weight:bold;font-stretch:normal;line-height:0%;font-family:FreeSerif;-inkscape-font-specification:'FreeSerif Bold';letter-spacing:0px;word-spacing:0px;fill:#ffffff;fill-opacity:1;stroke:none;stroke-width:1px;stroke-linecap:butt;stroke-linejoin:miter;stroke-opacity:1"
       xml:space="preserve"><tspan
         style="font-size:80px;line-height:1.25"
         y="951.72528"
         x="74.722427"
         id="tspan4145"
         sodipodi:role="line"> </tspan></text>
    <path
       style="fill:#ffffff;fill-opacity:1"
       d="m 122.85776,1005.2923 c -2.59556,-4.3768 -6.67283,-11.33547 -9.06057,-15.46372 -2.38775,-4.12813 -4.57508,-7.51289 -4.86074,-7.52185 -0.28565,-0.0154 -6.66288,2.65828 -14.17162,5.92698 -7.50874,3.26884 -14.990182,6.5008 -16.625417,7.1825 l -2.973162,1.23917 0.253468,-2.27682 c 1.067802,-9.59179 2.879855,-30.82618 2.772675,-32.49126 l -0.132167,-2.05329 -11.119272,-2.48416 c -6.1156,-1.36634 -13.915443,-3.1127 -17.332984,-3.88064 -3.417542,-0.76793 -6.213717,-1.54283 -6.213717,-1.72194 0,-0.41032 11.727616,-14.06936 18.464618,-21.50547 2.795145,-3.08535 5.082083,-5.7599 5.082083,-5.94335 0,-0.1836 -3.384837,-4.1446 -7.521861,-8.80214 -14.747337,-16.60313 -16.574188,-18.70356 -16.40955,-18.86721 0.09164,-0.0912 6.936367,-1.6575 15.210412,-3.48052 19.98047,-4.40254 19.02221,-4.17243 19.790623,-4.75274 0.606396,-0.45791 0.522664,-2.0927 -0.819015,-15.98974 -0.821959,-8.5139 -1.610098,-16.60683 -1.751417,-17.98445 -0.253802,-2.47397 -0.244689,-2.49992 0.745519,-2.12222 0.918722,0.35035 15.193004,6.48782 27.375294,11.7705 3.56233,1.54467 5.16133,2.04231 5.54361,1.72502 0.29546,-0.24525 2.65256,-4.0089 5.23798,-8.36368 10.01935,-16.87622 13.04994,-21.81826 13.46399,-21.95627 0.2363,-0.0789 3.64285,5.30415 7.57011,11.96213 7.12387,12.07725 11.30018,18.86427 11.60801,18.86427 0.0894,0 2.80504,-1.16913 6.03474,-2.59806 10.32633,-4.56851 26.41879,-11.35554 26.92494,-11.35554 0.33214,0 0.40826,0.73641 0.23662,2.28913 -0.1391,1.25924 -0.885,9.32202 -1.6574,17.91738 -1.10621,12.31032 -1.289,15.69934 -0.86095,15.96393 0.29886,0.18469 8.37206,2.05886 17.94039,4.16469 l 17.397,3.82887 -1.19029,1.36448 c -0.65467,0.75032 -5.80154,6.62103 -11.43748,13.0458 -5.63594,6.42476 -10.52411,12.13769 -10.86259,12.69529 -0.59261,0.97611 -0.30967,1.35861 7.63086,10.31451 11.45891,12.92433 15.00048,17.09953 15.00295,17.68712 0.001,0.54971 -1.03677,0.8061 -21.08013,5.20014 -9.80148,2.14864 -13.5218,3.13233 -13.71097,3.62533 -0.1428,0.37214 0.47169,8.43216 1.3655,17.91104 0.89381,9.47897 1.61857,17.36814 1.6106,17.53108 -0.0322,0.65686 -3.41194,-0.70144 -21.76246,-8.74571 -6.0856,-2.66757 -11.29363,-4.85022 -11.57341,-4.85022 -0.27976,0 -3.71749,5.44509 -7.63939,12.10032 -10.98718,18.64442 -11.11756,18.85912 -11.45709,18.85912 -0.17553,0 -2.44278,-3.5811 -5.03834,-7.9578 z m -3.43848,-37.47462 -4.73087,-6.97248 -0.27971,2.54675 c -0.15378,1.4008 -0.30101,4.98302 -0.32703,7.96049 l -0.0473,5.41373 4.68753,8.08494 4.68753,8.08507 0.37037,-9.07286 0.37037,-9.07302 z m 17.72626,16.72717 4.42313,-7.55675 -0.31098,-8.01627 -0.31101,-8.01643 -4.73517,6.93785 -4.73517,6.9377 0,7.59972 c 0,7.67553 0.26947,10.67381 0.901,10.02532 0.18979,-0.19484 2.33546,-3.75478 4.7682,-7.91114 z m -42.03891,-3.94631 10.86078,-4.74434 0.11639,-11.17147 c 0.0672,-6.4512 -0.0502,-11.17133 -0.27778,-11.17133 -0.70771,0 -16.8012,5.74323 -18.45972,6.58765 -1.91405,0.97458 -1.78196,0.41249 -2.96065,12.59855 -0.47556,4.9164 -0.97706,9.77279 -1.11445,10.79217 -0.19128,1.41888 -0.10632,1.85316 0.36241,1.85316 0.33674,0 5.49959,-2.13504 11.47304,-4.74439 z m 77.35679,4.63546 c -8.6e-4,-0.0601 -0.48977,-5.21083 -1.08644,-11.44639 -0.59665,-6.23544 -1.08649,-11.68766 -1.08851,-12.1159 -0.003,-0.51186 -0.7132,-1.0829 -2.07492,-1.66677 -4.15237,-1.78099 -18.44591,-6.61624 -18.72705,-6.33497 -0.86466,0.86468 -0.34989,21.16438 0.55977,22.07418 1.16065,1.16065 22.42708,10.16318 22.41715,9.48985 z m -38.55031,-27.98707 c 4.13236,-6.17225 5.89701,-9.17043 5.74338,-9.75785 -0.33516,-1.28165 -11.38548,-16.21738 -11.88658,-16.06593 -0.23982,0.0726 -3.14765,3.78775 -6.46186,8.25643 l -6.02582,8.12477 6.22411,9.17613 c 3.42324,5.047 6.27303,9.1763 6.33285,9.1763 0.0598,0 2.79309,-4.00938 6.07392,-8.90985 z m -50.3724,-4.43392 c 4.28872,-1.26448 13.05163,-4.61473 13.05163,-4.98996 0,-0.2023 -2.20749,-1.05647 -4.90556,-1.89797 -2.69805,-0.8415 -6.17194,-1.92348 -7.71974,-2.40443 l -2.81416,-0.87441 -8.741153,3.0753 c -4.807632,1.69134 -8.894401,3.2198 -9.081707,3.3966 -0.255672,0.24124 8.969587,2.51724 17.59439,4.34071 0.13634,0.0294 1.31368,-0.2618 2.6163,-0.64584 z m 100.58865,-1.53773 c 4.85652,-1.03915 8.83002,-1.9975 8.83002,-2.12978 0,-0.13137 -3.87573,-1.64777 -8.61271,-3.36817 l -8.61272,-3.12785 -8.0662,2.41957 c -4.43641,1.33079 -8.22633,2.57102 -8.42204,2.75616 -0.3111,0.29442 3.81976,1.95872 11.91117,4.79894 1.31904,0.46303 2.79072,0.77398 3.27038,0.69113 0.47965,-0.0834 4.8456,-1.00083 9.7021,-2.04 z m -71.7203,-12.91675 c 6.20132,-7.93343 8.65812,-11.43883 8.35786,-11.92473 -0.35708,-0.57769 -2.62998,-1.56632 -10.43901,-4.54023 -3.35758,-1.27856 -6.62039,-2.52264 -7.25069,-2.76452 -1.10512,-0.42407 -1.33998,-0.1958 -6.58352,6.3971 -6.8894,8.66228 -8.28625,10.61975 -7.86842,11.02668 0.27919,0.27184 18.88435,6.32971 19.82107,6.45381 0.16429,0.0217 1.94751,-2.06983 3.96271,-4.64811 z m 43.92212,1.87835 c 11.03543,-3.28147 11.6717,-3.48454 12.02624,-3.83907 0.17093,-0.17093 -0.24179,-1.14873 -0.91717,-2.17276 -1.73726,-2.63452 -10.47636,-14.01958 -11.26119,-14.671 -0.82422,-0.68401 -1.50377,-0.50025 -12.47317,3.37126 -4.66553,1.64669 -8.55672,3.21563 -8.64707,3.4867 -0.18426,0.55282 3.86837,6.49787 8.60321,12.6208 2.27424,2.94084 3.33605,3.9916 3.86843,3.82809 0.40358,-0.12358 4.36392,-1.30482 8.80072,-2.62402 z M 70.660491,938.0329 c 4.29492,-1.55827 8.13688,-3.17699 8.537701,-3.5975 1.454858,-1.52599 9.109198,-11.20579 9.109198,-11.51967 0,-0.3675 -1.49116,0.0726 -9.157047,2.70222 -4.836697,1.6592 -5.666499,2.09533 -7.367281,3.87138 -2.433385,2.54102 -9.63866,10.8888 -9.63866,11.16682 0,0.42006 0.843935,0.16012 8.516089,-2.62325 z m 122.021549,1.41564 c -0.44703,-0.56517 -2.85987,-3.32969 -5.36183,-6.14349 -3.79199,-4.26452 -4.9894,-5.3227 -7.19484,-6.35847 -3.68353,-1.72983 -10.28947,-4.09128 -10.59378,-3.78698 -0.13894,0.1391 1.67612,2.7948 4.03342,5.90194 3.94604,5.20123 4.49122,5.74151 6.8732,6.81051 3.35204,1.50419 12.69211,4.94608 12.89792,4.75273 0.0874,-0.0819 -0.20704,-0.61138 -0.65409,-1.17624 z M 82.63874,916.11341 c 4.43682,-1.54886 8.70466,-3.02337 9.48409,-3.27667 0.77945,-0.25314 1.41716,-0.6494 1.41716,-0.88044 0,-0.41047 -10.85569,-14.15436 -12.39148,-15.68822 -0.58752,-0.58681 -1.162094,-0.70798 -2.368061,-0.4995 -4.573548,0.79066 -22.138039,4.6886 -22.455347,4.98332 -0.387108,0.35948 2.138982,3.4014 10.764435,12.96297 4.706314,5.21698 5.314975,5.74398 6.344025,5.4927 0.626042,-0.153 4.768377,-1.5453 9.205178,-3.09416 z m 109.15163,-5.96498 c 4.51333,-4.99245 8.04533,-9.22189 7.8489,-9.39885 -0.27572,-0.24804 -13.39879,-3.14484 -22.84468,-5.04265 -1.27369,-0.25593 -2.24065,0.85077 -9.45584,10.82157 l -4.03616,5.57755 1.20184,0.4709 c 7.58465,2.97113 18.3006,6.86089 18.64382,6.76755 0.23984,-0.0649 4.12879,-4.20349 8.64212,-9.19607 z m -67.82644,-5.22318 -0.11835,-7.82572 -9.59311,-4.0361 c -5.2762,-2.2199 -9.83907,-4.0477 -10.13971,-4.06193 -0.55243,-0.0263 -0.47951,4.73868 0.26935,17.5998 l 0.27727,4.76185 9.37507,3.60138 9.37508,3.60137 0.33646,-2.90747 c 0.18507,-1.59923 0.28318,-6.42909 0.21803,-10.73318 z m 18.89212,9.99136 9.85354,-3.43153 0.26028,-9.4013 c 0.26007,-9.39281 0.0864,-13.10778 -0.61294,-13.10778 -0.48907,0 -19.63246,7.76344 -19.96612,8.0971 -0.40933,0.4094 -1.05476,18.27145 -0.72394,20.03481 0.17743,0.94582 0.50923,1.52089 0.81717,1.41626 0.28517,-0.0974 4.95257,-1.72024 10.37201,-3.60756 z m -46.9778,-22.21961 -0.29827,-8.6136 -5.41124,-6.71082 c -4.83854,-6.00054 -6.2407,-7.44105 -6.2134,-6.38365 0.005,0.17988 0.39579,4.15325 0.8692,8.82995 0.47342,4.6767 0.86207,8.73445 0.86366,9.01726 0.003,0.60613 10.03421,12.9285 10.30427,12.65836 0.10121,-0.102 0.0497,-4.06007 -0.11417,-8.7975 z m 69.62892,2.96464 c 2.2089,-3.03806 4.17123,-6.12866 4.36076,-6.86784 0.45697,-1.78237 1.90024,-17.66595 1.62981,-17.9364 -0.11612,-0.11586 -2.49681,2.77657 -5.29051,6.42801 l -5.0795,6.63912 0,8.63044 c 0,4.74671 0.0817,8.63043 0.18163,8.63043 0.0998,0 1.98888,-2.4857 4.19781,-5.52376 z m -32.07011,-15.6264 c 2.75193,-3.83629 5.43039,-7.77689 5.95214,-8.7567 l 0.94863,-1.78144 -4.71122,-8.02972 c -6.16602,-10.50894 -7.57866,-12.69653 -8.02185,-12.42268 -0.39512,0.24418 -3.32407,5.08115 -9.0424,14.9328 l -3.58664,6.1792 3.95521,5.37617 c 7.30369,9.92753 8.72455,11.73696 9.11454,11.60698 0.21345,-0.0711 2.63968,-3.26817 5.39159,-7.10461 z m 25.89535,-6.79336 c 2.49008,-3.35394 4.43029,-6.1951 4.31159,-6.3138 -0.11873,-0.119 -3.72579,1.33883 -8.01578,3.23897 l -7.80001,3.4547 -4.03346,5.56288 c -2.21839,3.05968 -4.03346,5.71261 -4.03346,5.8956 0,0.18297 3.38485,-1.03376 7.52186,-2.70393 l 7.52186,-3.03652 z m -44.44732,10.42982 c -0.29043,-0.56023 -1.90422,-2.95862 -3.58618,-5.32982 l -3.05813,-4.3112 -5.27915,-2.52264 c -6.70748,-3.20496 -9.763,-4.40454 -10.04732,-3.94446 -0.12357,0.19997 1.87983,2.97762 4.45198,6.17255 l 4.67667,5.8089 6.53544,2.72215 c 3.59448,1.49725 6.60276,2.65495 6.6851,2.57257 0.0824,-0.0819 -0.088,-0.60798 -0.37841,-1.16805 z"
       id="path4138"
       inkscape:connector-curvature="0"
       sodipodi:nodetypes="ssssscsscsssssssssssssssssssssscscsssscscscsssssccssccccccscccccsssscssssssscscssscsssscssssssscsscsssscssssssssssscsssssssssssssssssssscsscsssssssssssssscscsscssscccssscssssssscscscsssssscssssscssscsssssscssscssscssscsss" />
  </g>
</svg>
