<?xml version="1.0" encoding="UTF-8" standalone="no"?>
<svg
   xmlns:dc="http://purl.org/dc/elements/1.1/"
   xmlns:cc="http://creativecommons.org/ns#"
   xmlns:rdf="http://www.w3.org/1999/02/22-rdf-syntax-ns#"
   xmlns:svg="http://www.w3.org/2000/svg"
   xmlns="http://www.w3.org/2000/svg"
   xmlns:sodipodi="http://sodipodi.sourceforge.net/DTD/sodipodi-0.dtd"
   xmlns:inkscape="http://www.inkscape.org/namespaces/inkscape"
   sodipodi:docname="matlab.svg"
   inkscape:version="1.0 (4035a4fb49, 2020-05-01)"
   version="1.1"
   id="svg2"
   viewBox="0 0 256 256"
   height="256"
   width="256">
  <sodipodi:namedview
     inkscape:document-rotation="0"
     inkscape:window-maximized="1"
     inkscape:window-y="0"
     inkscape:window-x="0"
     inkscape:window-height="1048"
     inkscape:window-width="1920"
     units="px"
     showgrid="false"
     inkscape:current-layer="layer1"
     inkscape:document-units="px"
     inkscape:cy="128"
     inkscape:cx="128"
     inkscape:zoom="3.3632812"
     inkscape:pageshadow="2"
     inkscape:pageopacity="0.0"
     borderopacity="1.0"
     bordercolor="#666666"
     pagecolor="#ffffff"
     id="base" />
  <defs
     id="defs4">
    <clipPath
       id="clipPath4382"
       clipPathUnits="userSpaceOnUse">
      <circle
         r="415.10107"
         cy="614.42175"
         cx="452.32669"
         id="circle4384"
         style="fill:#ed690f;fill-opacity:1" />
    </clipPath>
  </defs>
  <metadata
     id="metadata7">
    <rdf:RDF>
      <cc:Work
         rdf:about="">
        <dc:format>image/svg+xml</dc:format>
        <dc:type
           rdf:resource="http://purl.org/dc/dcmitype/StillImage" />
        <dc:title />
      </cc:Work>
    </rdf:RDF>
  </metadata>
  <g
     inkscape:label="Layer 1"
     inkscape:groupmode="layer"
     id="layer1"
     transform="translate(0,-796.36219)">
    <path
       transform="scale(1,-1)"
       id="path892"
       style="fill:#b9470f;fill-opacity:1"
       sodipodi:type="arc"
       sodipodi:cx="128"
       sodipodi:cy="-924.36218"
       sodipodi:rx="128"
       sodipodi:ry="128"
       sodipodi:start="0"
       sodipodi:end="3.1415927"
       sodipodi:open="true"
       sodipodi:arc-type="arc"
       d="m 256,-924.36218 a 128,128 0 0 1 -64,110.85125 128,128 0 0 1 -128.000003,0 A 128,128 0 0 1 0,-924.36218" />
    <path
       d="m 256,924.36218 a 128,128 0 0 1 -64,110.85122 128,128 0 0 1 -128.000003,0 A 128,128 0 0 1 0,924.36218"
       sodipodi:arc-type="arc"
       sodipodi:open="true"
       sodipodi:end="3.1415927"
       sodipodi:start="0"
       sodipodi:ry="128"
       sodipodi:rx="128"
       sodipodi:cy="924.36218"
       sodipodi:cx="128"
       sodipodi:type="arc"
       style="fill:#ed690f;fill-opacity:1"
       id="path4170" />
    <g
       id="g4172"
       transform="matrix(0.30835864,0,0,0.30835864,-11.478839,734.89992)"
       style="fill:#ffffff;fill-opacity:1">
      <path
         inkscape:connector-curvature="0"
         id="path4166"
         d="m 431.51947,859.3631 c 16.6907,-6.69969 34.40788,-19.0954 53.90888,-37.717 11.10608,-10.60524 33.96841,-35.01208 68.65628,-73.2945 17.31583,-19.11019 25.90023,-27.20273 35.68887,-33.64397 18.50494,-12.17685 36.09022,-12.78814 57.74304,-2.00723 13.85088,6.89632 23.84306,14.78582 46.65456,36.83688 16.51996,15.96924 26.8956,24.81454 33.59773,28.64227 0.68877,0.39336 -0.36586,-2.79949 -2.3436,-7.09523 -18.5656,-40.32517 -32.30083,-76.64734 -60.81048,-160.81043 -44.17114,-130.39723 -53.89086,-156.73079 -70.49819,-191 -10.05724,-20.75313 -17.78761,-33.11235 -26.34678,-42.12293 -11.21358,-11.80499 -19.76296,-14.29349 -28.99392,-8.43938 -12.36123,7.83926 -23.11685,27.30309 -49.76799,90.06231 -19.91979,46.90798 -28.50739,66.03756 -41.52482,92.5 -29.19959,59.35828 -58.405,102.48465 -92.44779,136.51366 -10.78871,10.78435 -17.84868,16.8976 -36.0495,31.21543 l -3.46922,2.72909 4,-1.60229 c 5.80503,-2.32533 14.99555,-2.14726 20.71723,0.40141 15.24179,6.78932 27.34638,26.69827 48.78734,80.2427 11.10111,27.72278 20.52919,48.24071 26.34291,57.32903 4.207,6.57659 3.12175,6.49194 16.15545,1.26018 z"
         style="fill:#ffffff;fill-opacity:1" />
      <path
         inkscape:connector-curvature="0"
         id="path4164"
         d="m 313.13078,713.18738 c 32.11802,-24.32324 54.27642,-46.8673 74.2604,-75.55289 2.54395,-3.65167 4.6008,-7.02667 4.57076,-7.5 -0.0672,-1.05846 -61.7513,-48.9287 -62.73796,-48.68806 -0.59958,0.14623 -139.16079,55.85773 -149.12889,59.96046 l -3.42146,1.40823 62.37591,38.97938 c 34.30674,21.43867 62.75561,38.97939 63.2197,38.97939 0.46409,0 5.35179,-3.41393 10.86154,-7.58651 z"
         style="fill:#ffffff;fill-opacity:1" />
      <path
         inkscape:connector-curvature="0"
         id="path4158"
         d="m 405.77452,609.77389 c 20.8927,-34.80794 39.32613,-72.30856 73.97831,-150.5 21.92855,-49.48103 21.25157,-47.5657 10.29198,-29.11819 -14.83215,24.9659 -30.37437,46.04206 -43.74448,59.32008 -11.40865,11.33007 -21.28725,17.42817 -37.48418,23.13913 -11.53764,4.06812 -15.90623,6.34255 -24.49253,12.75163 -14.1302,10.54721 -33.14199,30.29713 -43.27524,44.95538 l -4.97129,7.19123 30.21973,23.03073 c 22.94895,17.48961 30.50307,22.75396 31.3974,21.88037 0.64772,-0.6327 4.28386,-6.32536 8.0803,-12.65036 z"
         style="fill:#ffffff;fill-opacity:1" />
    </g>
  </g>
</svg>
