<?xml version="1.0" encoding="UTF-8" standalone="no"?>
<svg
   xmlns:dc="http://purl.org/dc/elements/1.1/"
   xmlns:cc="http://creativecommons.org/ns#"
   xmlns:rdf="http://www.w3.org/1999/02/22-rdf-syntax-ns#"
   xmlns:svg="http://www.w3.org/2000/svg"
   xmlns="http://www.w3.org/2000/svg"
   xmlns:xlink="http://www.w3.org/1999/xlink"
   xmlns:sodipodi="http://sodipodi.sourceforge.net/DTD/sodipodi-0.dtd"
   xmlns:inkscape="http://www.inkscape.org/namespaces/inkscape"
   sodipodi:docname="monodevelop.svg"
   inkscape:version="1.0 (4035a4fb49, 2020-05-01)"
   version="1.1"
   id="svg2"
   viewBox="0 0 256 256"
   height="256"
   width="256">
  <sodipodi:namedview
     inkscape:document-rotation="0"
     inkscape:window-maximized="1"
     inkscape:window-y="0"
     inkscape:window-x="0"
     inkscape:window-height="1048"
     inkscape:window-width="1920"
     units="px"
     showgrid="true"
     inkscape:current-layer="layer1"
     inkscape:document-units="px"
     inkscape:cy="128"
     inkscape:cx="73.442623"
     inkscape:zoom="3.3359375"
     inkscape:pageshadow="2"
     inkscape:pageopacity="0.0"
     borderopacity="1.0"
     bordercolor="#666666"
     pagecolor="#ffffff"
     id="base">
    <inkscape:grid
       spacingy="5"
       spacingx="5"
       id="grid4168"
       type="xygrid" />
  </sodipodi:namedview>
  <defs
     id="defs4">
    <clipPath
       id="clipPath5002"
       clipPathUnits="userSpaceOnUse">
      <g
         id="g5004">
        <path
           style="fill:#0f9d58;fill-opacity:1;stroke:none;stroke-width:4.85768509;stroke-linejoin:round;stroke-miterlimit:4;stroke-dasharray:none;stroke-opacity:1"
           d="M 88.118406,249.43519 C 46.103287,235.29134 14.771284,201.68742 4.1335861,159.36053 1.3377997,148.23623 0.92261224,144.16281 0.92582381,127.88908 0.92787958,117.47222 1.134384,112.01362 1.6577819,108.54099 4.4653598,89.913336 12.17654,70.638106 23.042737,55.086148 c 3.958678,-5.665755 8.344812,-10.93092 9.101533,-10.925587 0.32809,0.0023 10.488643,18.309713 22.579009,40.683112 12.090365,22.373397 22.374546,41.334697 22.853732,42.136217 0.479186,0.80151 0.924733,2.44098 0.990103,3.64326 0.343424,6.31639 2.524175,14.20976 5.6424,20.42304 2.954444,5.88693 5.065381,8.73258 10.434696,14.06652 6.71418,6.66995 12.88853,10.28643 21.73204,12.72904 3.16587,0.87442 5.10478,1.05037 11.57517,1.05037 8.82596,0 12.60219,-0.76201 19.26429,-3.88733 2.04584,-0.95974 3.93661,-1.66536 4.20172,-1.56805 0.2651,0.0973 -11.0555,17.66459 -25.1569,39.0384 l -25.6389,38.86148 -3.094121,0.11221 c -2.554618,0.0927 -4.195204,-0.25845 -9.409103,-2.01364 z"
           id="path5006"
           inkscape:connector-curvature="0"
           transform="translate(0,796.36216)" />
        <path
           style="fill:#f4b400;fill-opacity:1;stroke:none;stroke-width:4.85768509;stroke-linejoin:round;stroke-miterlimit:4;stroke-dasharray:none;stroke-opacity:1"
           d="m 112.35984,1051.5167 c -10.0014,-1.4495 -12.15632,-1.8201 -12.531784,-2.1556 -0.248854,-0.2223 1.738304,-3.7475 4.550294,-8.0722 7.16635,-11.0213 49.77231,-74.64801 50.25856,-75.05489 3.57509,-2.99158 8.63523,-8.0414 10.57512,-10.55356 3.36154,-4.35318 7.55784,-12.9141 9.06523,-18.494 6.19314,-22.92535 -2.59253,-47.15185 -21.69967,-59.83688 l -2.96081,-1.96565 17.02469,0.29584 c 9.36358,0.1627 31.17032,0.43384 48.45941,0.60252 l 31.43471,0.30668 1.54584,4.18869 c 2.24597,6.08579 4.67816,15.0947 5.93451,21.9816 1.52517,8.36049 1.92536,28.85896 0.73851,37.82758 -3.0805,23.27845 -12.81326,45.72018 -27.80202,64.10577 -20.47622,25.1166 -51.4599,42.1974 -84.14612,46.3885 -5.31244,0.6812 -26.64601,0.9864 -30.44647,0.4356 z"
           id="path5008"
           inkscape:connector-curvature="0" />
        <path
           style="fill:#db4437;fill-opacity:1;stroke:none;stroke-width:10;stroke-linejoin:round;stroke-miterlimit:4;stroke-dasharray:none;stroke-opacity:1"
           d="M 67.989788,108.87302 C 41.284246,59.575543 33.290284,45.149038 32.233625,44.344765 31.651257,43.901497 32.811213,42.549931 38.695603,36.815353 53.43581,22.450419 68.809334,13.040746 87.839196,6.7360352 101.68742,2.1480329 112.58238,0.43719165 127.95142,0.43719165 c 21.3099,0 37.80488,3.80960275 56.83492,13.12633035 25.29351,12.383198 46.19421,33.578863 58.51993,59.345832 1.61138,3.368591 2.92978,6.372442 2.92978,6.675231 0,0.560033 -10.54865,0.49527 -71.16508,-0.436914 l -24.28843,-0.373518 -3.93063,-1.764495 c -6.75732,-3.033425 -10.64587,-3.839529 -18.6576,-3.867747 -5.0296,-0.01773 -7.97946,0.207636 -10.31642,0.788106 -14.50826,3.603659 -26.283291,12.94777 -33.291614,26.418653 -3.58502,6.89086 -5.24713,13.08166 -6.331628,23.58317 l -0.33738,3.26696 -9.92748,-18.32578 z"
           id="path5010"
           inkscape:connector-curvature="0"
           transform="translate(0,796.36216)" />
      </g>
    </clipPath>
    <clipPath
       clipPathUnits="userSpaceOnUse"
       id="clipPath4271">
      <circle
         style="fill:#292929;fill-opacity:0.26020412;stroke:none;stroke-width:10;stroke-linejoin:round;stroke-miterlimit:4;stroke-dasharray:none;stroke-opacity:0.25882353"
         id="circle4273"
         cx="128"
         cy="128.00002"
         r="128" />
    </clipPath>
    <clipPath
       id="clipPath4363"
       clipPathUnits="userSpaceOnUse">
      <circle
         style="fill:#4285f4;fill-opacity:1;stroke:none;stroke-width:10;stroke-linejoin:round;stroke-miterlimit:4;stroke-dasharray:none;stroke-opacity:0.25882353"
         id="circle4365"
         cx="128"
         cy="924.36218"
         r="128" />
    </clipPath>
    <clipPath
       clipPathUnits="userSpaceOnUse"
       id="clipPath4452">
      <circle
         style="fill:#4285f4;fill-opacity:1;stroke:none;stroke-width:10;stroke-linejoin:round;stroke-miterlimit:4;stroke-dasharray:none;stroke-opacity:0.25882353"
         id="circle4454"
         cx="128"
         cy="924.36218"
         r="128" />
    </clipPath>
    <clipPath
       id="clipPath5177"
       clipPathUnits="userSpaceOnUse">
      <circle
         style="fill:#4285f4;fill-opacity:1;stroke:none;stroke-width:10;stroke-linejoin:round;stroke-miterlimit:4;stroke-dasharray:none;stroke-opacity:0.25882353"
         id="circle5179"
         cx="128"
         cy="924.36218"
         r="128" />
    </clipPath>
    <clipPath
       clipPathUnits="userSpaceOnUse"
       id="clipPath4342">
      <circle
         style="fill:#4285f4;fill-opacity:1;stroke:none;stroke-width:10;stroke-linejoin:round;stroke-miterlimit:4;stroke-dasharray:none;stroke-opacity:0.25882353"
         id="circle4344"
         cx="128"
         cy="933.48718"
         r="128" />
    </clipPath>
    <clipPath
       id="clipPath4681"
       clipPathUnits="userSpaceOnUse">
      <circle
         style="fill:#9d5fad;fill-opacity:1;stroke:none;stroke-width:10;stroke-linejoin:round;stroke-miterlimit:4;stroke-dasharray:none;stroke-opacity:0.25882353"
         id="circle4683"
         cx="127.00293"
         cy="930.43964"
         r="128" />
    </clipPath>
    <clipPath
       clipPathUnits="userSpaceOnUse"
       id="clipPath4235">
      <circle
         style="fill:#0f9d58;fill-opacity:1;stroke:none;stroke-width:10;stroke-linejoin:round;stroke-miterlimit:4;stroke-dasharray:none;stroke-opacity:0.25882353"
         id="circle4237"
         cx="128"
         cy="924.36218"
         r="128" />
    </clipPath>
    <clipPath
       id="clipPath4771"
       clipPathUnits="userSpaceOnUse">
      <circle
         style="fill:#0f9d58;fill-opacity:1;stroke:none;stroke-width:10;stroke-linejoin:round;stroke-miterlimit:4;stroke-dasharray:none;stroke-opacity:0.25882353"
         id="circle4773"
         cx="128"
         cy="924.36218"
         r="128" />
    </clipPath>
    <clipPath
       clipPathUnits="userSpaceOnUse"
       id="clipPath4842">
      <circle
         style="fill:#0f9d58;fill-opacity:1;stroke:none;stroke-width:10;stroke-linejoin:round;stroke-miterlimit:4;stroke-dasharray:none;stroke-opacity:0.25882353"
         id="circle4844"
         cx="128"
         cy="924.36218"
         r="128" />
    </clipPath>
    <clipPath
       id="clipPath4458"
       clipPathUnits="userSpaceOnUse">
      <circle
         style="fill:#ff3b38;fill-opacity:1;stroke:none;stroke-width:10;stroke-linejoin:round;stroke-miterlimit:4;stroke-dasharray:none;stroke-opacity:0.25882353"
         id="circle4460"
         cx="128"
         cy="924.36218"
         r="128" />
    </clipPath>
    <clipPath
       clipPathUnits="userSpaceOnUse"
       id="clipPath4783">
      <circle
         style="fill:#ff3b38;fill-opacity:1;stroke:none;stroke-width:10;stroke-linejoin:round;stroke-miterlimit:4;stroke-dasharray:none;stroke-opacity:0.25882353"
         id="circle4785"
         cx="128"
         cy="924.36218"
         r="128" />
    </clipPath>
    <clipPath
       id="clipPath4522"
       clipPathUnits="userSpaceOnUse">
      <circle
         style="fill:#61a71d;fill-opacity:1;stroke:none;stroke-width:10;stroke-linejoin:round;stroke-miterlimit:4;stroke-dasharray:none;stroke-opacity:0.25882353"
         id="circle4524"
         cx="128"
         cy="924.36218"
         r="128" />
    </clipPath>
    <linearGradient
       gradientTransform="matrix(-0.58262316,0,0,0.57548257,1368.144,-7657.5592)"
       gradientUnits="userSpaceOnUse"
       xlink:href="#linearGradient7985"
       id="linearGradient2983"
       y2="14844.775"
       x2="2128.5525"
       y1="15026.778"
       x1="2128.5525" />
    <linearGradient
       id="linearGradient7985">
      <stop
         offset="0"
         style="stop-color:#42699a;stop-opacity:1"
         id="stop7991" />
      <stop
         offset="1"
         style="stop-color:#99b8e1;stop-opacity:1"
         id="stop7989" />
    </linearGradient>
    <clipPath
       clipPathUnits="userSpaceOnUse"
       id="clipPath4475">
      <circle
         style="fill:#61a71d;fill-opacity:1;stroke:none;stroke-width:10;stroke-linejoin:round;stroke-miterlimit:4;stroke-dasharray:none;stroke-opacity:0.25882353"
         id="circle4477"
         cx="128"
         cy="924.36218"
         r="128" />
    </clipPath>
    <clipPath
       id="clipPath1276"
       clipPathUnits="userSpaceOnUse">
      <circle
         style="fill:#bbceb5;fill-opacity:1;stroke:none;stroke-width:7.30290699;stroke-linejoin:round;stroke-miterlimit:4;stroke-dasharray:none;stroke-opacity:0.25882353"
         id="circle1278"
         cx="127.99938"
         cy="924.45453"
         r="93.477211" />
    </clipPath>
  </defs>
  <metadata
     id="metadata7">
    <rdf:RDF>
      <cc:Work
         rdf:about="">
        <dc:format>image/svg+xml</dc:format>
        <dc:type
           rdf:resource="http://purl.org/dc/dcmitype/StillImage" />
        <dc:title />
      </cc:Work>
    </rdf:RDF>
  </metadata>
  <g
     inkscape:label="Layer 1"
     inkscape:groupmode="layer"
     id="layer1"
     transform="translate(0,-796.36216)">
    <path
       transform="scale(1,-1)"
       style="fill:#3e415e;fill-opacity:1;stroke:none;stroke-width:10;stroke-linejoin:round;stroke-miterlimit:4;stroke-dasharray:none;stroke-opacity:0.258824"
       id="path948"
       sodipodi:type="arc"
       sodipodi:cx="128"
       sodipodi:cy="-924.36218"
       sodipodi:rx="128"
       sodipodi:ry="128"
       sodipodi:start="0"
       sodipodi:end="3.1415927"
       sodipodi:open="true"
       sodipodi:arc-type="arc"
       d="m 256,-924.36218 a 128,128 0 0 1 -64,110.85125 128,128 0 0 1 -128.000003,0 A 128,128 0 0 1 0,-924.36218" />
    <path
       d="m 256,924.36218 a 128,128 0 0 1 -64,110.85122 128,128 0 0 1 -128.000003,0 A 128,128 0 0 1 0,924.36218"
       sodipodi:arc-type="arc"
       sodipodi:open="true"
       sodipodi:end="3.1415927"
       sodipodi:start="0"
       sodipodi:ry="128"
       sodipodi:rx="128"
       sodipodi:cy="924.36218"
       sodipodi:cx="128"
       sodipodi:type="arc"
       id="path4152"
       style="fill:#7175a1;fill-opacity:1;stroke:none;stroke-width:10;stroke-linejoin:round;stroke-miterlimit:4;stroke-dasharray:none;stroke-opacity:0.258824" />
    <text
       xml:space="preserve"
       style="font-style:normal;font-weight:normal;font-size:40px;line-height:125%;font-family:sans-serif;letter-spacing:0px;word-spacing:0px;fill:#000000;fill-opacity:1;stroke:none;stroke-width:1px;stroke-linecap:butt;stroke-linejoin:miter;stroke-opacity:1"
       x="120"
       y="927.36218"
       id="text4914" />
    <g
       id="g4241"
       transform="translate(-4.11162,138)"
       style="stroke:none">
      <g
         id="g4446"
         style="stroke:none">
        <g
           style="fill:none;fill-rule:evenodd;stroke:none;stroke-width:10;stroke-linecap:round;stroke-linejoin:miter;stroke-miterlimit:4;stroke-dasharray:none;stroke-opacity:1"
           id="g4448">
          <path
             inkscape:connector-curvature="0"
             d="m 129.98857,850.41168 c 0,15 0,15 0,15 L -82.143464,1077.5437 c 0,0 0,0 0,-15 z"
             id="path4450"
             style="stroke:none" />
        </g>
        <path
           style="fill:none;fill-rule:evenodd;stroke:none;stroke-width:10;stroke-linecap:round;stroke-linejoin:miter;stroke-miterlimit:4;stroke-dasharray:none;stroke-opacity:1"
           d="m 129.98857,850.41168 c 0,15 0,15 0,15"
           id="path4247"
           inkscape:connector-curvature="0" />
      </g>
      <g
         id="g4453"
         style="stroke:none">
        <g
           style="fill:none;fill-rule:evenodd;stroke:none;stroke-width:10;stroke-linecap:round;stroke-linejoin:miter;stroke-miterlimit:4;stroke-dasharray:none;stroke-opacity:1"
           id="g4455">
          <path
             inkscape:connector-curvature="0"
             d="m 111.58095,850.41168 c 0,15 0,15 0,15 l -212.13203,212.13202 c 0,0 0,0 0,-15 z"
             id="path4457"
             style="stroke:none" />
        </g>
        <path
           inkscape:connector-curvature="0"
           id="path4245"
           d="m 111.58095,850.41168 c 0,15 0,15 0,15"
           style="fill:none;fill-rule:evenodd;stroke:none;stroke-width:10;stroke-linecap:round;stroke-linejoin:miter;stroke-miterlimit:4;stroke-dasharray:none;stroke-opacity:1" />
      </g>
      <g
         id="g4460"
         style="stroke:none">
        <g
           style="fill:none;fill-rule:evenodd;stroke:none;stroke-width:10;stroke-linecap:round;stroke-linejoin:miter;stroke-miterlimit:4;stroke-dasharray:none;stroke-opacity:1"
           id="g4462">
          <path
             inkscape:connector-curvature="0"
             d="m 93.173333,850.41168 c 0,15 0,15 0,15 L -118.9587,1077.5437 c 0,0 0,0 0,-15 z"
             id="path4464"
             style="stroke:none" />
        </g>
        <path
           style="fill:none;fill-rule:evenodd;stroke:none;stroke-width:10;stroke-linecap:round;stroke-linejoin:miter;stroke-miterlimit:4;stroke-dasharray:none;stroke-opacity:1"
           d="m 93.173333,850.41168 c 0,15 0,15 0,15"
           id="path4243"
           inkscape:connector-curvature="0" />
      </g>
      <g
         id="g4467"
         style="stroke:none">
        <g
           style="fill:none;fill-rule:evenodd;stroke:none;stroke-width:10;stroke-linecap:round;stroke-linejoin:miter;stroke-miterlimit:4;stroke-dasharray:none;stroke-opacity:1"
           id="g4469">
          <path
             inkscape:connector-curvature="0"
             d="m 166.80381,850.41168 c 0,15 0,15 0,15 L -45.328224,1077.5437 c 0,0 0,0 0,-15 z"
             id="path4471"
             style="stroke:none" />
        </g>
        <path
           style="fill:none;fill-rule:evenodd;stroke:none;stroke-width:10;stroke-linecap:round;stroke-linejoin:miter;stroke-miterlimit:4;stroke-dasharray:none;stroke-opacity:1"
           d="m 166.80381,850.41168 c 0,15 0,15 0,15"
           id="path4251"
           inkscape:connector-curvature="0" />
      </g>
      <g
         id="g4474"
         style="stroke:none">
        <g
           style="fill:none;fill-rule:evenodd;stroke:none;stroke-width:10;stroke-linecap:round;stroke-linejoin:miter;stroke-miterlimit:4;stroke-dasharray:none;stroke-opacity:1"
           id="g4476">
          <path
             inkscape:connector-curvature="0"
             d="m 148.39619,850.41168 c 0,15 0,15 0,15 L -63.735844,1077.5437 c 0,0 0,0 0,-15 z"
             id="path4478"
             style="stroke:none" />
        </g>
        <path
           inkscape:connector-curvature="0"
           id="path4249"
           d="m 148.39619,850.41168 c 0,15 0,15 0,15"
           style="fill:none;fill-rule:evenodd;stroke:none;stroke-width:10;stroke-linecap:round;stroke-linejoin:miter;stroke-miterlimit:4;stroke-dasharray:none;stroke-opacity:1" />
      </g>
    </g>
    <path
       style="display:inline;fill:#a9c4e3;fill-opacity:1;fill-rule:evenodd;stroke:none;stroke-width:1.36931765"
       id="path4292"
       inkscape:connector-curvature="0"
       d="m 192.9955,859.87183 c 8.49305,20.49296 19.75253,38.55093 20.00283,72.01777 0.25862,34.57608 -29.49887,56.96161 -53.01762,56.96289 -28.47467,0.007 -53.52778,-23.96331 -54.84876,-43.8134 -1.19214,-17.91755 5.20397,-43.97374 38.21869,-43.7788 15.76386,0.0912 32.14385,13.75981 32.23018,34.09505 0.0934,21.94362 -27.48737,24.08571 -34.44251,18.49851 -2.70159,-2.17005 -2.61916,-6.46364 -0.22904,-5.68905 14.85015,4.81994 24.02433,-4.67955 23.34303,-14.12845 -0.92485,-12.82146 -8.55655,-20.44831 -22.23703,-21.09715 -19.73408,-0.9343 -25.25874,18.19578 -24.75424,25.95837 0.61308,9.43955 8.87047,28.85579 34.55681,32.40002 12.12836,1.67367 22.18002,-1.9471 29.5222,-9.04229 7.34226,-7.09645 11.47013,-14.43388 12.07315,-26.4681 0.6237,-12.45014 -2.10336,-19.75427 -9.5738,-36.08808 -2.66836,-5.83545 -10.12202,-17.60215 -15.89404,-29.38882 l 25.04983,-10.43847 z" />
    <path
       style="display:inline;fill:#eeeeec;fill-opacity:1;fill-rule:evenodd;stroke:none;stroke-width:1.36931765"
       id="path4290"
       inkscape:connector-curvature="0"
       d="m 63.004488,988.85249 c -8.492974,-20.49155 -19.752531,-38.55024 -20.002815,-72.01634 -0.258609,-34.5761 29.498814,-56.96164 53.017622,-56.96432 28.474645,-0.003 53.527755,23.96399 54.848775,43.81608 1.1922,17.91562 -5.20401,43.97115 -38.21863,43.77748 -15.76386,-0.0912 -32.143867,-13.75976 -32.230188,-34.09566 -0.09339,-21.94431 27.487338,-24.08511 34.442488,-18.49851 2.70162,2.17005 2.61904,6.4643 0.22873,5.68905 -14.85021,-4.81932 -24.02449,4.67886 -23.343186,14.1284 0.924878,12.82148 8.556646,20.44969 22.237116,21.09853 19.73411,0.93431 25.25875,-18.19509 24.75421,-25.95902 -0.61307,-9.43964 -8.87052,-28.85451 -34.55672,-32.40141 -12.128413,-1.67297 -22.180091,1.94781 -29.522372,9.043 -7.342117,7.0958 -11.469926,14.4332 -12.072987,26.46943 -0.623724,12.44949 2.103245,19.75428 9.573708,36.08802 2.668431,5.83349 10.121969,17.60283 15.894136,29.38818 L 63.00442,988.85249 Z" />
    <path
       d="m 63.004488,988.85249 c -8.492974,-20.49155 -19.752531,-38.55024 -20.002815,-72.01634 -0.258609,-34.5761 29.498814,-56.96164 53.017622,-56.96432 28.474645,-0.003 53.527755,23.96399 54.848775,43.81608 1.1922,17.91562 -5.20401,43.97115 -38.21863,43.77748 -15.76386,-0.0912 -32.143867,-13.75976 -32.230188,-34.09566 -0.09339,-21.94431 27.487338,-24.08511 34.442488,-18.49851 2.70162,2.17005 2.61904,6.4643 0.22873,5.68905 -14.85021,-4.81932 -24.02449,4.67886 -23.343186,14.1284 0.924878,12.82148 8.556646,20.44969 22.237116,21.09853 19.73411,0.93431 25.25875,-18.19509 24.75421,-25.95902 -0.61307,-9.43964 -8.87052,-28.85451 -34.55672,-32.40141 -12.128413,-1.67297 -22.180091,1.94781 -29.522372,9.043 -7.342117,7.0958 -11.469926,14.4332 -12.072987,26.46943 -0.623724,12.44949 2.103245,19.75428 9.573708,36.08802 2.668431,5.83349 10.121969,17.60283 15.894136,29.38818 L 63.00442,988.85249 Z"
       inkscape:connector-curvature="0"
       id="path924"
       style="display:inline;fill:#eeeeec;fill-opacity:1;fill-rule:evenodd;stroke:none;stroke-width:1.36931765" />
    <path
       style="display:inline;fill:#a9c4e3;fill-opacity:1;fill-rule:evenodd;stroke:none;stroke-width:1.36931765"
       d="m 105.4071,934.19534 c -0.45025,3.75102 -0.50167,7.44496 -0.27546,10.84488 0.0312,0.46875 0.0871,0.94182 0.14442,1.41478 2.42947,0.65128 4.90951,0.99669 7.37345,1.01094 2.31343,0.0137 4.48313,-0.1153 6.54171,-0.34767 -1.17603,-3.07702 -1.78299,-5.94308 -1.93096,-8.22126 -0.059,-0.90843 -0.0256,-1.98376 0.0937,-3.15317 -1.0753,0.0798 -2.19562,0.0983 -3.36981,0.0427 -3.19727,-0.15164 -6.04885,-0.70003 -8.57695,-1.5913 z"
       id="path928"
       inkscape:connector-curvature="0"
       sodipodi:nodetypes="ccccccccc" />
  </g>
</svg>
