<?xml version="1.0" encoding="UTF-8" standalone="no"?>
<svg
   xmlns:dc="http://purl.org/dc/elements/1.1/"
   xmlns:cc="http://creativecommons.org/ns#"
   xmlns:rdf="http://www.w3.org/1999/02/22-rdf-syntax-ns#"
   xmlns:svg="http://www.w3.org/2000/svg"
   xmlns="http://www.w3.org/2000/svg"
   xmlns:xlink="http://www.w3.org/1999/xlink"
   xmlns:sodipodi="http://sodipodi.sourceforge.net/DTD/sodipodi-0.dtd"
   xmlns:inkscape="http://www.inkscape.org/namespaces/inkscape"
   sodipodi:docname="ooo-impress.svg"
   inkscape:version="1.0 (4035a4fb49, 2020-05-01)"
   version="1.1"
   id="svg2"
   viewBox="0 0 256 256"
   height="256"
   width="256">
  <sodipodi:namedview
     inkscape:document-rotation="0"
     inkscape:window-maximized="1"
     inkscape:window-y="0"
     inkscape:window-x="0"
     inkscape:window-height="1048"
     inkscape:window-width="1920"
     units="px"
     showgrid="true"
     inkscape:current-layer="layer1"
     inkscape:document-units="px"
     inkscape:cy="128.00004"
     inkscape:cx="128"
     inkscape:zoom="3.3437497"
     inkscape:pageshadow="2"
     inkscape:pageopacity="0.0"
     borderopacity="1.0"
     bordercolor="#666666"
     pagecolor="#ffffff"
     id="base">
    <inkscape:grid
       type="xygrid"
       id="grid4168"
       spacingx="5"
       spacingy="5" />
  </sodipodi:namedview>
  <defs
     id="defs4">
    <clipPath
       clipPathUnits="userSpaceOnUse"
       id="clipPath5002">
      <g
         id="g5004">
        <path
           transform="translate(0,796.36216)"
           inkscape:connector-curvature="0"
           id="path5006"
           d="M 88.118406,249.43519 C 46.103287,235.29134 14.771284,201.68742 4.1335861,159.36053 1.3377997,148.23623 0.92261224,144.16281 0.92582381,127.88908 0.92787958,117.47222 1.134384,112.01362 1.6577819,108.54099 4.4653598,89.913336 12.17654,70.638106 23.042737,55.086148 c 3.958678,-5.665755 8.344812,-10.93092 9.101533,-10.925587 0.32809,0.0023 10.488643,18.309713 22.579009,40.683112 12.090365,22.373397 22.374546,41.334697 22.853732,42.136217 0.479186,0.80151 0.924733,2.44098 0.990103,3.64326 0.343424,6.31639 2.524175,14.20976 5.6424,20.42304 2.954444,5.88693 5.065381,8.73258 10.434696,14.06652 6.71418,6.66995 12.88853,10.28643 21.73204,12.72904 3.16587,0.87442 5.10478,1.05037 11.57517,1.05037 8.82596,0 12.60219,-0.76201 19.26429,-3.88733 2.04584,-0.95974 3.93661,-1.66536 4.20172,-1.56805 0.2651,0.0973 -11.0555,17.66459 -25.1569,39.0384 l -25.6389,38.86148 -3.094121,0.11221 c -2.554618,0.0927 -4.195204,-0.25845 -9.409103,-2.01364 z"
           style="fill:#0f9d58;fill-opacity:1;stroke:none;stroke-width:4.85768509;stroke-linejoin:round;stroke-miterlimit:4;stroke-dasharray:none;stroke-opacity:1" />
        <path
           inkscape:connector-curvature="0"
           id="path5008"
           d="m 112.35984,1051.5167 c -10.0014,-1.4495 -12.15632,-1.8201 -12.531784,-2.1556 -0.248854,-0.2223 1.738304,-3.7475 4.550294,-8.0722 7.16635,-11.0213 49.77231,-74.64801 50.25856,-75.05489 3.57509,-2.99158 8.63523,-8.0414 10.57512,-10.55356 3.36154,-4.35318 7.55784,-12.9141 9.06523,-18.494 6.19314,-22.92535 -2.59253,-47.15185 -21.69967,-59.83688 l -2.96081,-1.96565 17.02469,0.29584 c 9.36358,0.1627 31.17032,0.43384 48.45941,0.60252 l 31.43471,0.30668 1.54584,4.18869 c 2.24597,6.08579 4.67816,15.0947 5.93451,21.9816 1.52517,8.36049 1.92536,28.85896 0.73851,37.82758 -3.0805,23.27845 -12.81326,45.72018 -27.80202,64.10577 -20.47622,25.1166 -51.4599,42.1974 -84.14612,46.3885 -5.31244,0.6812 -26.64601,0.9864 -30.44647,0.4356 z"
           style="fill:#f4b400;fill-opacity:1;stroke:none;stroke-width:4.85768509;stroke-linejoin:round;stroke-miterlimit:4;stroke-dasharray:none;stroke-opacity:1" />
        <path
           transform="translate(0,796.36216)"
           inkscape:connector-curvature="0"
           id="path5010"
           d="M 67.989788,108.87302 C 41.284246,59.575543 33.290284,45.149038 32.233625,44.344765 31.651257,43.901497 32.811213,42.549931 38.695603,36.815353 53.43581,22.450419 68.809334,13.040746 87.839196,6.7360352 101.68742,2.1480329 112.58238,0.43719165 127.95142,0.43719165 c 21.3099,0 37.80488,3.80960275 56.83492,13.12633035 25.29351,12.383198 46.19421,33.578863 58.51993,59.345832 1.61138,3.368591 2.92978,6.372442 2.92978,6.675231 0,0.560033 -10.54865,0.49527 -71.16508,-0.436914 l -24.28843,-0.373518 -3.93063,-1.764495 c -6.75732,-3.033425 -10.64587,-3.839529 -18.6576,-3.867747 -5.0296,-0.01773 -7.97946,0.207636 -10.31642,0.788106 -14.50826,3.603659 -26.283291,12.94777 -33.291614,26.418653 -3.58502,6.89086 -5.24713,13.08166 -6.331628,23.58317 l -0.33738,3.26696 -9.92748,-18.32578 z"
           style="fill:#db4437;fill-opacity:1;stroke:none;stroke-width:10;stroke-linejoin:round;stroke-miterlimit:4;stroke-dasharray:none;stroke-opacity:1" />
      </g>
    </clipPath>
    <clipPath
       id="clipPath4271"
       clipPathUnits="userSpaceOnUse">
      <circle
         r="128"
         cy="128.00002"
         cx="128"
         id="circle4273"
         style="fill:#292929;fill-opacity:0.26020412;stroke:none;stroke-width:10;stroke-linejoin:round;stroke-miterlimit:4;stroke-dasharray:none;stroke-opacity:0.25882353" />
    </clipPath>
    <clipPath
       clipPathUnits="userSpaceOnUse"
       id="clipPath4363">
      <circle
         r="128"
         cy="924.36218"
         cx="128"
         id="circle4365"
         style="fill:#4285f4;fill-opacity:1;stroke:none;stroke-width:10;stroke-linejoin:round;stroke-miterlimit:4;stroke-dasharray:none;stroke-opacity:0.25882353" />
    </clipPath>
    <clipPath
       id="clipPath4452"
       clipPathUnits="userSpaceOnUse">
      <circle
         r="128"
         cy="924.36218"
         cx="128"
         id="circle4454"
         style="fill:#4285f4;fill-opacity:1;stroke:none;stroke-width:10;stroke-linejoin:round;stroke-miterlimit:4;stroke-dasharray:none;stroke-opacity:0.25882353" />
    </clipPath>
    <clipPath
       clipPathUnits="userSpaceOnUse"
       id="clipPath4954">
      <circle
         r="128"
         cy="924.36218"
         cx="128"
         id="circle4956"
         style="fill:#f16529;fill-opacity:1;stroke:none;stroke-width:10;stroke-linejoin:round;stroke-miterlimit:4;stroke-dasharray:none;stroke-opacity:0.25882353" />
    </clipPath>
    <clipPath
       id="clipPath5071"
       clipPathUnits="userSpaceOnUse">
      <circle
         r="99.306747"
         cy="933.98254"
         cx="132.21979"
         id="circle5073"
         style="fill:#0f9d58;fill-opacity:1;stroke:none;stroke-width:10;stroke-linejoin:round;stroke-miterlimit:4;stroke-dasharray:none;stroke-opacity:0.25882353" />
    </clipPath>
    <clipPath
       clipPathUnits="userSpaceOnUse"
       id="clipPath4232">
      <circle
         r="128"
         cy="924.36218"
         cx="128"
         id="circle4234"
         style="fill:#72a854;fill-opacity:1;stroke:none;stroke-width:10;stroke-linejoin:round;stroke-miterlimit:4;stroke-dasharray:none;stroke-opacity:0.25882353" />
    </clipPath>
    <radialGradient
       cx="48.193913"
       cy="58.66795"
       r="33.906048"
       fx="48.193913"
       fy="58.66795"
       id="radialGradient3787-5"
       xlink:href="#linearGradient3601-0"
       gradientUnits="userSpaceOnUse"
       gradientTransform="matrix(0.9473764,-0.3327843,0.2051643,0.5840656,36.444325,878.82546)" />
    <linearGradient
       id="linearGradient3601-0">
      <stop
         id="stop3603-9"
         style="stop-color:#b8d9f4;stop-opacity:1"
         offset="0" />
      <stop
         id="stop3605-3"
         style="stop-color:#ebf4fc;stop-opacity:1"
         offset="1" />
    </linearGradient>
    <radialGradient
       cx="48.241459"
       cy="38.667461"
       r="25.550245"
       fx="48.241459"
       fy="38.667461"
       id="radialGradient3789-2"
       xlink:href="#linearGradient3601-0"
       gradientUnits="userSpaceOnUse"
       gradientTransform="matrix(0.8476225,-0.3415184,0.2499426,0.620338,43.631027,866.78283)" />
    <clipPath
       id="clipPath4477"
       clipPathUnits="userSpaceOnUse">
      <circle
         r="128"
         cy="922.84924"
         cx="112.26152"
         id="circle4479"
         style="fill:#0e85cd;fill-opacity:1;stroke:none;stroke-width:10;stroke-linejoin:round;stroke-miterlimit:4;stroke-dasharray:none;stroke-opacity:0.25882353" />
    </clipPath>
  </defs>
  <metadata
     id="metadata7">
    <rdf:RDF>
      <cc:Work
         rdf:about="">
        <dc:format>image/svg+xml</dc:format>
        <dc:type
           rdf:resource="http://purl.org/dc/dcmitype/StillImage" />
        <dc:title />
      </cc:Work>
    </rdf:RDF>
  </metadata>
  <g
     transform="translate(0,-796.36216)"
     id="layer1"
     inkscape:groupmode="layer"
     inkscape:label="Layer 1">
    <path
       transform="scale(1,-1)"
       id="path901"
       style="fill:#b85100;fill-opacity:1;stroke:none;stroke-width:10;stroke-linejoin:round;stroke-miterlimit:4;stroke-dasharray:none;stroke-opacity:0.258824"
       sodipodi:type="arc"
       sodipodi:cx="128"
       sodipodi:cy="-924.36218"
       sodipodi:rx="128"
       sodipodi:ry="128"
       sodipodi:start="0"
       sodipodi:end="3.1415927"
       sodipodi:open="true"
       sodipodi:arc-type="arc"
       d="m 256,-924.36218 a 128,128 0 0 1 -64,110.85125 128,128 0 0 1 -128.000003,0 A 128,128 0 0 1 0,-924.36218" />
    <path
       inkscape:connector-curvature="0"
       id="path4913"
       d="M 154.47438,968.80998 101.03985,1048.476 0.4857685,1048.9618 0,842.0244 l 33.032258,-2.42884 45.176471,83.55218 21.373814,35.4611 26.717267,13.11575 z"
       style="fill:none;fill-rule:evenodd;stroke:none;stroke-width:1px;stroke-linecap:butt;stroke-linejoin:miter;stroke-opacity:1" />
    <path
       d="m 256,924.36218 a 128,128 0 0 1 -64,110.85122 128,128 0 0 1 -128.000003,0 A 128,128 0 0 1 0,924.36218"
       sodipodi:arc-type="arc"
       sodipodi:open="true"
       sodipodi:end="3.1415927"
       sodipodi:start="0"
       sodipodi:ry="128"
       sodipodi:rx="128"
       sodipodi:cy="924.36218"
       sodipodi:cx="128"
       sodipodi:type="arc"
       style="fill:#f26a00;fill-opacity:1;stroke:none;stroke-width:10;stroke-linejoin:round;stroke-miterlimit:4;stroke-dasharray:none;stroke-opacity:0.258824"
       id="path4152" />
    <g
       id="g4272"
       transform="translate(15.738477,1.5129648)">
      <g
         transform="matrix(0.98545546,0.1699339,-0.1699339,0.98545546,169.0307,-12.606861)"
         id="g4258">
        <path
           style="fill:#ffffff;fill-opacity:1;fill-rule:evenodd;stroke:none"
           id="path3617"
           inkscape:connector-curvature="0"
           d="m 170.77331,874.09762 c -11.66217,0.12659 -26.01194,3.85411 -37.36557,16.52858 -48.013723,-17.7681 -70.7275,15.82355 -69.247722,17.54694 0.117714,0.13712 0.436795,0.1138 0.861679,0 4.695598,-7.84691 27.253598,-30.26182 68.386043,-15.04023 19.64448,-21.92986 48.14014,-16.91622 56.40086,-13.23854 1.66919,-0.18399 2.62254,-0.45043 2.35003,-1.01834 -0.71115,-1.48207 -9.72316,-4.90507 -21.38532,-4.77841 z" />
        <g
           id="g4254">
          <path
             d="m 64.147619,908.19447 c -1.479778,-1.72338 21.247899,-35.36041 69.261621,-17.5923 22.70726,-25.34896 57.29117,-14.66315 58.71347,-11.69905 1.57978,3.29226 -33.94858,-4.05036 -54.62484,26.46707 -37.42126,-21.66886 -71.663451,4.78881 -73.350251,2.82428 z"
             inkscape:connector-curvature="0"
             id="path3599"
             style="fill:#ffffff;fill-opacity:1;fill-rule:evenodd;stroke:none" />
          <path
             d="m 189.8086,877.38767 c -8.0072,0.88233 -35.21785,0.20555 -52.32746,25.45872 -34.80957,-20.15656 -66.796425,1.30391 -72.459443,2.82004 -0.785553,1.31277 -1.073759,2.25972 -0.861679,2.50671 1.686799,1.96453 35.899862,-24.48893 73.321122,-2.82004 20.67625,-30.51743 56.25727,-23.18482 54.67749,-26.47707 -0.19176,-0.3998 -1.06209,-0.91498 -2.35003,-1.48836 z"
             inkscape:connector-curvature="0"
             id="path3633"
             style="opacity:0.3;fill:#ffffff;fill-opacity:1;fill-rule:evenodd;stroke:none" />
        </g>
      </g>
      <g
         transform="matrix(0.95650962,0.29170078,-0.29170078,0.95650962,258.54137,7.806525)"
         id="g4268">
        <path
           style="fill:#ffffff;fill-opacity:1;fill-rule:evenodd;stroke:none"
           id="path3622"
           inkscape:connector-curvature="0"
           d="m 193.96033,911.14985 c -17.70057,0.0291 -43.77736,5.75848 -60.55259,30.15879 -60.706296,-17.29077 -92.303752,31.22981 -90.31971,33.21384 0.473972,0.47397 3.198635,-1.03243 7.050107,-3.13338 10.671898,-13.60203 39.8732,-38.14147 85.776313,-25.06705 20.62769,-30.0039 55.24468,-31.81763 71.12774,-29.45378 4.05186,-0.889 6.38032,-1.47497 5.87509,-2.35003 -0.76229,-1.32031 -8.3366,-3.38576 -18.95695,-3.36839 z" />
        <path
           style="fill:#ffffff;fill-opacity:1;fill-rule:evenodd;stroke:none"
           id="path3597"
           inkscape:connector-curvature="0"
           d="m 43.103215,974.53138 c -1.984042,-1.98403 29.574909,-50.47521 90.281205,-33.18443 26.84037,-39.0405 77.51228,-30.36119 79.54504,-26.84035 2.25782,3.91061 -50.26464,1.952 -74.66498,47.82463 -48.06586,-23.12832 -92.899653,14.46178 -95.161265,12.20015 z" />
      </g>
    </g>
  </g>
</svg>
