<?xml version="1.0" encoding="UTF-8" standalone="no"?>
<svg
   xmlns:dc="http://purl.org/dc/elements/1.1/"
   xmlns:cc="http://creativecommons.org/ns#"
   xmlns:rdf="http://www.w3.org/1999/02/22-rdf-syntax-ns#"
   xmlns:svg="http://www.w3.org/2000/svg"
   xmlns="http://www.w3.org/2000/svg"
   xmlns:sodipodi="http://sodipodi.sourceforge.net/DTD/sodipodi-0.dtd"
   xmlns:inkscape="http://www.inkscape.org/namespaces/inkscape"
   sodipodi:docname="opera-developer.svg"
   inkscape:version="1.0.1 (3bc2e813f5, 2020-09-07)"
   version="1.1"
   id="svg2"
   viewBox="0 0 256 256"
   height="256"
   width="256">
  <sodipodi:namedview
     inkscape:window-maximized="1"
     inkscape:window-y="0"
     inkscape:window-x="0"
     inkscape:window-height="1048"
     inkscape:window-width="1920"
     units="px"
     showgrid="false"
     inkscape:current-layer="layer1"
     inkscape:document-units="px"
     inkscape:cy="128"
     inkscape:cx="128"
     inkscape:zoom="3.3125"
     inkscape:pageshadow="2"
     inkscape:pageopacity="0.0"
     borderopacity="1.0"
     bordercolor="#666666"
     pagecolor="#ffffff"
     id="base"
     inkscape:document-rotation="0" />
  <defs
     id="defs4">
    <clipPath
       clipPathUnits="userSpaceOnUse"
       id="clipPath5002">
      <g
         id="g5004">
        <path
           transform="translate(0,796.36216)"
           inkscape:connector-curvature="0"
           id="path5006"
           d="M 88.118406,249.43519 C 46.103287,235.29134 14.771284,201.68742 4.1335861,159.36053 1.3377997,148.23623 0.92261224,144.16281 0.92582381,127.88908 0.92787958,117.47222 1.134384,112.01362 1.6577819,108.54099 4.4653598,89.913336 12.17654,70.638106 23.042737,55.086148 c 3.958678,-5.665755 8.344812,-10.93092 9.101533,-10.925587 0.32809,0.0023 10.488643,18.309713 22.579009,40.683112 12.090365,22.373397 22.374546,41.334697 22.853732,42.136217 0.479186,0.80151 0.924733,2.44098 0.990103,3.64326 0.343424,6.31639 2.524175,14.20976 5.6424,20.42304 2.954444,5.88693 5.065381,8.73258 10.434696,14.06652 6.71418,6.66995 12.88853,10.28643 21.73204,12.72904 3.16587,0.87442 5.10478,1.05037 11.57517,1.05037 8.82596,0 12.60219,-0.76201 19.26429,-3.88733 2.04584,-0.95974 3.93661,-1.66536 4.20172,-1.56805 0.2651,0.0973 -11.0555,17.66459 -25.1569,39.0384 l -25.6389,38.86148 -3.094121,0.11221 c -2.554618,0.0927 -4.195204,-0.25845 -9.409103,-2.01364 z"
           style="fill:#0f9d58;fill-opacity:1;stroke:none;stroke-width:4.85768509;stroke-linejoin:round;stroke-miterlimit:4;stroke-dasharray:none;stroke-opacity:1" />
        <path
           inkscape:connector-curvature="0"
           id="path5008"
           d="m 112.35984,1051.5167 c -10.0014,-1.4495 -12.15632,-1.8201 -12.531784,-2.1556 -0.248854,-0.2223 1.738304,-3.7475 4.550294,-8.0722 7.16635,-11.0213 49.77231,-74.64801 50.25856,-75.05489 3.57509,-2.99158 8.63523,-8.0414 10.57512,-10.55356 3.36154,-4.35318 7.55784,-12.9141 9.06523,-18.494 6.19314,-22.92535 -2.59253,-47.15185 -21.69967,-59.83688 l -2.96081,-1.96565 17.02469,0.29584 c 9.36358,0.1627 31.17032,0.43384 48.45941,0.60252 l 31.43471,0.30668 1.54584,4.18869 c 2.24597,6.08579 4.67816,15.0947 5.93451,21.9816 1.52517,8.36049 1.92536,28.85896 0.73851,37.82758 -3.0805,23.27845 -12.81326,45.72018 -27.80202,64.10577 -20.47622,25.1166 -51.4599,42.1974 -84.14612,46.3885 -5.31244,0.6812 -26.64601,0.9864 -30.44647,0.4356 z"
           style="fill:#f4b400;fill-opacity:1;stroke:none;stroke-width:4.85768509;stroke-linejoin:round;stroke-miterlimit:4;stroke-dasharray:none;stroke-opacity:1" />
        <path
           transform="translate(0,796.36216)"
           inkscape:connector-curvature="0"
           id="path5010"
           d="M 67.989788,108.87302 C 41.284246,59.575543 33.290284,45.149038 32.233625,44.344765 31.651257,43.901497 32.811213,42.549931 38.695603,36.815353 53.43581,22.450419 68.809334,13.040746 87.839196,6.7360352 101.68742,2.1480329 112.58238,0.43719165 127.95142,0.43719165 c 21.3099,0 37.80488,3.80960275 56.83492,13.12633035 25.29351,12.383198 46.19421,33.578863 58.51993,59.345832 1.61138,3.368591 2.92978,6.372442 2.92978,6.675231 0,0.560033 -10.54865,0.49527 -71.16508,-0.436914 l -24.28843,-0.373518 -3.93063,-1.764495 c -6.75732,-3.033425 -10.64587,-3.839529 -18.6576,-3.867747 -5.0296,-0.01773 -7.97946,0.207636 -10.31642,0.788106 -14.50826,3.603659 -26.283291,12.94777 -33.291614,26.418653 -3.58502,6.89086 -5.24713,13.08166 -6.331628,23.58317 l -0.33738,3.26696 -9.92748,-18.32578 z"
           style="fill:#db4437;fill-opacity:1;stroke:none;stroke-width:10;stroke-linejoin:round;stroke-miterlimit:4;stroke-dasharray:none;stroke-opacity:1" />
      </g>
    </clipPath>
    <clipPath
       clipPathUnits="userSpaceOnUse"
       id="clipPath3351">
      <ellipse
         cy="836.73944"
         cx="141.40407"
         id="circle3353"
         style="fill:#ec4447;fill-opacity:1"
         rx="141.40407"
         ry="115.86654" />
    </clipPath>
    <clipPath
       id="clipPath4259"
       clipPathUnits="userSpaceOnUse">
      <circle
         r="128"
         cy="924.36218"
         cx="128"
         id="circle4261"
         style="fill:#ec4447;fill-opacity:1" />
    </clipPath>
    <linearGradient
       x1="0"
       y1="0"
       x2="1.0144141"
       y2="-0.061492726"
       gradientUnits="userSpaceOnUse"
       gradientTransform="matrix(0,156.02837,-156.02837,0,114.57663,846.48862)"
       spreadMethod="pad"
       id="gradiant1">
      <stop
         id="stop2"
         style="stop-color:#ff1b2d;stop-opacity:1"
         offset="0" />
      <stop
         id="stop4"
         style="stop-color:#ff1b2d;stop-opacity:1"
         offset="0.3" />
      <stop
         id="stop6"
         style="stop-color:#ff1b2d;stop-opacity:1"
         offset="0.61" />
      <stop
         id="stop8"
         style="stop-color:#cd0c1f;stop-opacity:1"
         offset="1" />
    </linearGradient>
    <linearGradient
       x1="0"
       y1="0"
       x2="1"
       y2="0"
       gradientUnits="userSpaceOnUse"
       gradientTransform="matrix(0,86.142511,-86.142511,0,115.3534,913.43131)"
       spreadMethod="pad"
       id="gradiant2">
      <stop
         id="stop11"
         style="stop-color:#9c0000;stop-opacity:1"
         offset="0" />
      <stop
         id="stop13"
         style="stop-color:#ff4b4b;stop-opacity:1"
         offset="0.7" />
      <stop
         id="stop15"
         style="stop-color:#ff4b4b;stop-opacity:1"
         offset="1" />
    </linearGradient>
    <clipPath
       clipPathUnits="userSpaceOnUse"
       id="clipPath1104">
      <circle
         r="128"
         cy="924.36218"
         cx="128"
         id="circle1106"
         style="fill:#ff4b4b;fill-opacity:1" />
    </clipPath>
  </defs>
  <metadata
     id="metadata7">
    <rdf:RDF>
      <cc:Work
         rdf:about="">
        <dc:format>image/svg+xml</dc:format>
        <dc:type
           rdf:resource="http://purl.org/dc/dcmitype/StillImage" />
        <dc:title />
      </cc:Work>
    </rdf:RDF>
  </metadata>
  <g
     transform="translate(0,-796.36216)"
     id="layer1"
     inkscape:groupmode="layer"
     inkscape:label="Layer 1">
    <path
       style="fill:#d97373;fill-opacity:1"
       id="path888"
       sodipodi:type="arc"
       sodipodi:cx="128"
       sodipodi:cy="-924.36218"
       sodipodi:rx="128"
       sodipodi:ry="128"
       sodipodi:start="0"
       sodipodi:end="3.1415927"
       sodipodi:arc-type="slice"
       d="m 256,-924.36218 a 128,128 0 0 1 -64,110.85125 128,128 0 0 1 -128.000003,0 A 128,128 0 0 1 0,-924.36218 h 128 z"
       transform="scale(1,-1)" />
    <path
       inkscape:connector-curvature="0"
       id="path4913"
       d="M 154.47438,968.80998 101.03985,1048.476 0.4857685,1048.9618 0,842.0244 l 33.032258,-2.42884 45.176471,83.55218 21.373814,35.4611 26.717267,13.11575 z"
       style="fill:none;fill-rule:evenodd;stroke:none;stroke-width:1px;stroke-linecap:butt;stroke-linejoin:miter;stroke-opacity:1" />
    <path
       style="fill:#ffafaf;fill-opacity:1"
       id="path4152"
       sodipodi:type="arc"
       sodipodi:cx="128"
       sodipodi:cy="924.36218"
       sodipodi:rx="128"
       sodipodi:ry="128"
       sodipodi:start="0"
       sodipodi:end="3.1415927"
       sodipodi:arc-type="slice"
       d="m 256,924.36218 a 128,128 0 0 1 -64,110.85122 128,128 0 0 1 -128.000003,0 A 128,128 0 0 1 0,924.36218 h 128 z" />
    <path
       id="path20"
       d="m 128,843.86216 c -44.455228,0 -80.500008,36.04478 -80.500008,80.50001 v 0 c 0,43.17363 33.994232,78.40143 76.671248,80.40383 v 0 c 1.2816,0.064 2.54717,0.096 3.82876,0.096 v 0 c 20.61761,0 39.40896,-7.75367 53.65065,-20.48948 v 0 c -9.43572,6.26378 -20.47343,9.85224 -32.26408,9.85224 v 0 c -19.17582,0 -36.33314,-9.51582 -47.88349,-24.51045 v 0 C 92.596016,959.20545 86.844872,943.68217 86.444374,926.25252 v 0 c 0,-0.0481 0,-3.74866 0,-3.79672 v 0 c 0.400498,-17.42966 6.151642,-32.96896 15.058706,-43.462 v 0 c 11.55035,-14.99462 28.72369,-24.51045 47.88349,-24.51045 v 0 c 11.79065,0 22.82836,3.60448 32.26408,9.86826 v 0 c -14.16159,-12.67174 -32.85682,-20.40935 -53.34627,-20.48945 v 0 c -0.0961,0 -0.20826,0 -0.30438,0 z"
       style="fill:#ff4b4b;fill-opacity:1;stroke-width:1.60199022"
       inkscape:connector-curvature="0" />
    <path
       id="path22"
       d="m 101.50308,878.9938 c 7.38518,-8.71482 16.93304,-13.98537 27.34597,-13.98537 v 0 c 23.43712,0 42.43673,26.57702 42.43673,59.33772 v 0 c 0,32.77672 -18.99961,59.33771 -42.43673,59.33771 v 0 c -10.42895,0 -19.96079,-5.25452 -27.34597,-13.96935 v 0 c 11.55035,14.99463 28.70767,24.51045 47.88349,24.51045 v 0 c 11.79065,0 22.82836,-3.60448 32.26408,-9.85224 v 0 c 16.48448,-14.73831 26.84936,-36.15692 26.84936,-60.01055 v 0 c 0,-23.83762 -10.36488,-45.27225 -26.84936,-60.01056 v 0 c -9.43572,-6.26378 -20.47343,-9.85224 -32.26408,-9.85224 v 0 c -19.17582,0 -36.33314,9.51583 -47.88349,24.51045"
       style="fill:#b73131;fill-opacity:1;stroke-width:1.60199022"
       inkscape:connector-curvature="0" />
  </g>
</svg>
