<?xml version="1.0" encoding="UTF-8" standalone="no"?>
<!-- Created with Inkscape (http://www.inkscape.org/) -->

<svg
   sodipodi:docname="org.fedoraproject.MediaWriter.svg"
   inkscape:version="1.1 (c68e22c387, 2021-05-23)"
   version="1.1"
   id="svg2"
   viewBox="0 0 256 256"
   height="256"
   width="256"
   xmlns:inkscape="http://www.inkscape.org/namespaces/inkscape"
   xmlns:sodipodi="http://sodipodi.sourceforge.net/DTD/sodipodi-0.dtd"
   xmlns="http://www.w3.org/2000/svg"
   xmlns:svg="http://www.w3.org/2000/svg"
   xmlns:rdf="http://www.w3.org/1999/02/22-rdf-syntax-ns#"
   xmlns:cc="http://creativecommons.org/ns#"
   xmlns:dc="http://purl.org/dc/elements/1.1/">
  <sodipodi:namedview
     inkscape:window-maximized="1"
     inkscape:window-y="0"
     inkscape:window-x="0"
     inkscape:window-height="1054"
     inkscape:window-width="1920"
     units="px"
     showgrid="true"
     inkscape:current-layer="layer1"
     inkscape:document-units="px"
     inkscape:cy="128"
     inkscape:cx="128"
     inkscape:zoom="3.1171875"
     inkscape:pageshadow="2"
     inkscape:pageopacity="0.0"
     borderopacity="1.0"
     bordercolor="#666666"
     pagecolor="#ffffff"
     id="base"
     inkscape:pagecheckerboard="0">
    <inkscape:grid
       spacingy="5"
       spacingx="5"
       id="grid4168"
       type="xygrid" />
  </sodipodi:namedview>
  <defs
     id="defs4">
    <clipPath
       id="clipPath5002"
       clipPathUnits="userSpaceOnUse">
      <g
         id="g5004">
        <path
           style="fill:#0f9d58;fill-opacity:1;stroke:none;stroke-width:4.85768509;stroke-linejoin:round;stroke-miterlimit:4;stroke-dasharray:none;stroke-opacity:1"
           d="M 88.118406,249.43519 C 46.103287,235.29134 14.771284,201.68742 4.1335861,159.36053 1.3377997,148.23623 0.92261224,144.16281 0.92582381,127.88908 0.92787958,117.47222 1.134384,112.01362 1.6577819,108.54099 4.4653598,89.913336 12.17654,70.638106 23.042737,55.086148 c 3.958678,-5.665755 8.344812,-10.93092 9.101533,-10.925587 0.32809,0.0023 10.488643,18.309713 22.579009,40.683112 12.090365,22.373397 22.374546,41.334697 22.853732,42.136217 0.479186,0.80151 0.924733,2.44098 0.990103,3.64326 0.343424,6.31639 2.524175,14.20976 5.6424,20.42304 2.954444,5.88693 5.065381,8.73258 10.434696,14.06652 6.71418,6.66995 12.88853,10.28643 21.73204,12.72904 3.16587,0.87442 5.10478,1.05037 11.57517,1.05037 8.82596,0 12.60219,-0.76201 19.26429,-3.88733 2.04584,-0.95974 3.93661,-1.66536 4.20172,-1.56805 0.2651,0.0973 -11.0555,17.66459 -25.1569,39.0384 l -25.6389,38.86148 -3.094121,0.11221 c -2.554618,0.0927 -4.195204,-0.25845 -9.409103,-2.01364 z"
           id="path5006"
           inkscape:connector-curvature="0"
           transform="translate(0,796.36216)" />
        <path
           style="fill:#f4b400;fill-opacity:1;stroke:none;stroke-width:4.85768509;stroke-linejoin:round;stroke-miterlimit:4;stroke-dasharray:none;stroke-opacity:1"
           d="m 112.35984,1051.5167 c -10.0014,-1.4495 -12.15632,-1.8201 -12.531784,-2.1556 -0.248854,-0.2223 1.738304,-3.7475 4.550294,-8.0722 7.16635,-11.0213 49.77231,-74.64801 50.25856,-75.05489 3.57509,-2.99158 8.63523,-8.0414 10.57512,-10.55356 3.36154,-4.35318 7.55784,-12.9141 9.06523,-18.494 6.19314,-22.92535 -2.59253,-47.15185 -21.69967,-59.83688 l -2.96081,-1.96565 17.02469,0.29584 c 9.36358,0.1627 31.17032,0.43384 48.45941,0.60252 l 31.43471,0.30668 1.54584,4.18869 c 2.24597,6.08579 4.67816,15.0947 5.93451,21.9816 1.52517,8.36049 1.92536,28.85896 0.73851,37.82758 -3.0805,23.27845 -12.81326,45.72018 -27.80202,64.10577 -20.47622,25.1166 -51.4599,42.1974 -84.14612,46.3885 -5.31244,0.6812 -26.64601,0.9864 -30.44647,0.4356 z"
           id="path5008"
           inkscape:connector-curvature="0" />
        <path
           style="fill:#db4437;fill-opacity:1;stroke:none;stroke-width:10;stroke-linejoin:round;stroke-miterlimit:4;stroke-dasharray:none;stroke-opacity:1"
           d="M 67.989788,108.87302 C 41.284246,59.575543 33.290284,45.149038 32.233625,44.344765 31.651257,43.901497 32.811213,42.549931 38.695603,36.815353 53.43581,22.450419 68.809334,13.040746 87.839196,6.7360352 101.68742,2.1480329 112.58238,0.43719165 127.95142,0.43719165 c 21.3099,0 37.80488,3.80960275 56.83492,13.12633035 25.29351,12.383198 46.19421,33.578863 58.51993,59.345832 1.61138,3.368591 2.92978,6.372442 2.92978,6.675231 0,0.560033 -10.54865,0.49527 -71.16508,-0.436914 l -24.28843,-0.373518 -3.93063,-1.764495 c -6.75732,-3.033425 -10.64587,-3.839529 -18.6576,-3.867747 -5.0296,-0.01773 -7.97946,0.207636 -10.31642,0.788106 -14.50826,3.603659 -26.283291,12.94777 -33.291614,26.418653 -3.58502,6.89086 -5.24713,13.08166 -6.331628,23.58317 l -0.33738,3.26696 -9.92748,-18.32578 z"
           id="path5010"
           inkscape:connector-curvature="0"
           transform="translate(0,796.36216)" />
      </g>
    </clipPath>
    <clipPath
       clipPathUnits="userSpaceOnUse"
       id="clipPath4271">
      <circle
         style="fill:#292929;fill-opacity:0.26020412;stroke:none;stroke-width:10;stroke-linejoin:round;stroke-miterlimit:4;stroke-dasharray:none;stroke-opacity:0.25882353"
         id="circle4273"
         cx="128"
         cy="128.00002"
         r="128" />
    </clipPath>
    <clipPath
       id="clipPath4363"
       clipPathUnits="userSpaceOnUse">
      <circle
         style="fill:#4285f4;fill-opacity:1;stroke:none;stroke-width:10;stroke-linejoin:round;stroke-miterlimit:4;stroke-dasharray:none;stroke-opacity:0.25882353"
         id="circle4365"
         cx="128"
         cy="924.36218"
         r="128" />
    </clipPath>
    <clipPath
       clipPathUnits="userSpaceOnUse"
       id="clipPath4452">
      <circle
         style="fill:#4285f4;fill-opacity:1;stroke:none;stroke-width:10;stroke-linejoin:round;stroke-miterlimit:4;stroke-dasharray:none;stroke-opacity:0.25882353"
         id="circle4454"
         cx="128"
         cy="924.36218"
         r="128" />
    </clipPath>
    <clipPath
       id="clipPath5177"
       clipPathUnits="userSpaceOnUse">
      <circle
         style="fill:#4285f4;fill-opacity:1;stroke:none;stroke-width:10;stroke-linejoin:round;stroke-miterlimit:4;stroke-dasharray:none;stroke-opacity:0.25882353"
         id="circle5179"
         cx="128"
         cy="924.36218"
         r="128" />
    </clipPath>
    <clipPath
       clipPathUnits="userSpaceOnUse"
       id="clipPath4342">
      <circle
         style="fill:#4285f4;fill-opacity:1;stroke:none;stroke-width:10;stroke-linejoin:round;stroke-miterlimit:4;stroke-dasharray:none;stroke-opacity:0.25882353"
         id="circle4344"
         cx="128"
         cy="933.48718"
         r="128" />
    </clipPath>
    <clipPath
       id="clipPath4681"
       clipPathUnits="userSpaceOnUse">
      <circle
         style="fill:#9d5fad;fill-opacity:1;stroke:none;stroke-width:10;stroke-linejoin:round;stroke-miterlimit:4;stroke-dasharray:none;stroke-opacity:0.25882353"
         id="circle4683"
         cx="127.00293"
         cy="930.43964"
         r="128" />
    </clipPath>
    <clipPath
       clipPathUnits="userSpaceOnUse"
       id="clipPath4235">
      <circle
         style="fill:#0f9d58;fill-opacity:1;stroke:none;stroke-width:10;stroke-linejoin:round;stroke-miterlimit:4;stroke-dasharray:none;stroke-opacity:0.25882353"
         id="circle4237"
         cx="128"
         cy="924.36218"
         r="128" />
    </clipPath>
    <clipPath
       id="clipPath4771"
       clipPathUnits="userSpaceOnUse">
      <circle
         style="fill:#0f9d58;fill-opacity:1;stroke:none;stroke-width:10;stroke-linejoin:round;stroke-miterlimit:4;stroke-dasharray:none;stroke-opacity:0.25882353"
         id="circle4773"
         cx="128"
         cy="924.36218"
         r="128" />
    </clipPath>
    <clipPath
       clipPathUnits="userSpaceOnUse"
       id="clipPath4842">
      <circle
         style="fill:#0f9d58;fill-opacity:1;stroke:none;stroke-width:10;stroke-linejoin:round;stroke-miterlimit:4;stroke-dasharray:none;stroke-opacity:0.25882353"
         id="circle4844"
         cx="128"
         cy="924.36218"
         r="128" />
    </clipPath>
    <clipPath
       id="clipPath4458"
       clipPathUnits="userSpaceOnUse">
      <circle
         style="fill:#ff3b38;fill-opacity:1;stroke:none;stroke-width:10;stroke-linejoin:round;stroke-miterlimit:4;stroke-dasharray:none;stroke-opacity:0.25882353"
         id="circle4460"
         cx="128"
         cy="924.36218"
         r="128" />
    </clipPath>
    <clipPath
       clipPathUnits="userSpaceOnUse"
       id="clipPath4783">
      <circle
         style="fill:#ff3b38;fill-opacity:1;stroke:none;stroke-width:10;stroke-linejoin:round;stroke-miterlimit:4;stroke-dasharray:none;stroke-opacity:0.25882353"
         id="circle4785"
         cx="128"
         cy="924.36218"
         r="128" />
    </clipPath>
    <clipPath
       id="clipPath4789"
       clipPathUnits="userSpaceOnUse">
      <circle
         style="fill:#80b4ff;fill-opacity:1;stroke:none;stroke-width:10;stroke-linejoin:round;stroke-miterlimit:4;stroke-dasharray:none;stroke-opacity:0.25882353"
         id="circle4791"
         cx="102.64714"
         cy="924.36218"
         r="128" />
    </clipPath>
    <clipPath
       clipPathUnits="userSpaceOnUse"
       id="clipPath4721">
      <circle
         style="fill:#557ae6;fill-opacity:1;stroke:none;stroke-width:10;stroke-linejoin:round;stroke-miterlimit:4;stroke-dasharray:none;stroke-opacity:0.25882353"
         id="circle4723"
         cx="128"
         cy="924.36218"
         r="128" />
    </clipPath>
    <clipPath
       id="clipPath4491"
       clipPathUnits="userSpaceOnUse">
      <circle
         style="fill:#990000;fill-opacity:1;stroke:none;stroke-width:10;stroke-linejoin:round;stroke-miterlimit:4;stroke-dasharray:none;stroke-opacity:0.25882353"
         id="circle4493"
         cx="128"
         cy="924.36218"
         r="128" />
    </clipPath>
    <clipPath
       clipPathUnits="userSpaceOnUse"
       id="clipPath1102">
      <circle
         style="fill:#b40000;fill-opacity:1;stroke:none;stroke-width:10;stroke-linejoin:round;stroke-miterlimit:4;stroke-dasharray:none;stroke-opacity:0.25882353"
         id="circle1104"
         cx="128"
         cy="924.36218"
         r="128" />
    </clipPath>
    <clipPath
       clipPathUnits="userSpaceOnUse"
       id="clipPath1102-3">
      <circle
         style="fill:#b40000;fill-opacity:1;stroke:none;stroke-width:10;stroke-linejoin:round;stroke-miterlimit:4;stroke-dasharray:none;stroke-opacity:0.25882353"
         id="circle1104-6"
         cx="128"
         cy="924.36218"
         r="128" />
    </clipPath>
  </defs>
  <metadata
     id="metadata7">
    <rdf:RDF>
      <cc:Work
         rdf:about="">
        <dc:format>image/svg+xml</dc:format>
        <dc:type
           rdf:resource="http://purl.org/dc/dcmitype/StillImage" />
        <dc:title />
      </cc:Work>
    </rdf:RDF>
  </metadata>
  <g
     inkscape:label="Layer 1"
     inkscape:groupmode="layer"
     id="layer1"
     transform="translate(0,-796.36216)">
    <path
       id="path4907"
       style="fill:#195b88;fill-opacity:1;stroke:none;stroke-width:10;stroke-linejoin:round;stroke-miterlimit:4;stroke-dasharray:none;stroke-opacity:0.258824"
       sodipodi:type="arc"
       sodipodi:cx="128"
       sodipodi:cy="-924.36218"
       sodipodi:rx="128"
       sodipodi:ry="128"
       sodipodi:start="0"
       sodipodi:end="3.1415927"
       sodipodi:arc-type="slice"
       d="m 256,-924.36218 a 128,128 0 0 1 -64,110.85125 128,128 0 0 1 -128.000003,0 A 128,128 0 0 1 0,-924.36218 h 128 z"
       transform="scale(1,-1)" />
    <path
       id="path4152"
       style="fill:#51a2da;fill-opacity:1;stroke:none;stroke-width:10;stroke-linejoin:round;stroke-miterlimit:4;stroke-dasharray:none;stroke-opacity:0.258824"
       sodipodi:type="arc"
       sodipodi:cx="128"
       sodipodi:cy="924.36218"
       sodipodi:rx="128"
       sodipodi:ry="128"
       sodipodi:start="0"
       sodipodi:end="3.1415927"
       sodipodi:arc-type="slice"
       d="m 256,924.36218 a 128,128 0 0 1 -64,110.85122 128,128 0 0 1 -128.000003,0 A 128,128 0 0 1 0,924.36218 h 128 z" />
    <g
       id="g5413"
       transform="translate(0,-24)">
      <path
         style="fill:#ffffff;fill-opacity:1;fill-rule:evenodd;stroke-width:0.775629"
         d="m 149.88029,850.32635 c -12.13857,0 -22.86135,8.99752 -24.3459,20.80255 -0.0999,0.98815 -0.13027,1.69917 -0.13479,2.59502 l 0.0137,48.26764 c 0,9.25787 -7.04263,15.55947 -15.83824,15.55947 -8.80491,0 -15.90036,-6.9264 -15.90036,-15.57463 0.14737,-9.49368 7.86505,-15.51382 16.86232,-15.77613 h 0.0485 l 9.13634,-0.0833 v -12.74329 l -9.13634,0.0682 c -16.38125,-0.14737 -29.38665,12.4882 -29.86165,28.54367 0,15.6134 13.02993,28.34077 28.85274,28.34077 14.92305,0 27.34161,-11.47957 28.69819,-25.84421 0.19553,-4.88801 0.1015,-11.33901 0.1015,-11.33901 0.0274,-2.65651 -0.0426,-1.70257 -0.0151,-6.97761 l 11.33293,-0.0833 c 8.77196,0.062 8.67085,-12.94488 -0.1015,-12.76602 l -11.23915,0.0818 c 0,-6.55404 0.10466,-13.05696 0,-19.61489 0.008,-5.66828 5.46399,-10.68002 11.51776,-10.68002 6.05222,0 12.45701,2.97184 12.45701,10.68002 0,1.10139 -0.0214,1.74167 -0.0833,2.14964 -0.67634,3.57487 1.8042,6.99211 5.45818,7.50783 3.65398,0.50959 7.00941,-2.08913 7.37148,-5.70509 0.20941,-1.42948 0.20149,-2.69197 0.20149,-3.95237 0,-13.59674 -12.34006,-23.44605 -25.40938,-23.44605 z"
         id="path140" />
      <g
         id="g4911"
         transform="translate(-0.4216347,48.885772)">
        <rect
           style="fill:none;fill-rule:evenodd;stroke:#ffffff;stroke-width:4.72837;stroke-miterlimit:4;stroke-dasharray:none;stroke-opacity:1"
           id="rect243"
           width="45.271629"
           height="135.8149"
           x="-947.14801"
           y="60.514187"
           ry="22.635815"
           transform="rotate(-90)" />
        <path
           style="fill:none;stroke:#ffffff;stroke-width:9.649;stroke-linecap:round;stroke-linejoin:miter;stroke-miterlimit:4;stroke-dasharray:none;stroke-opacity:1"
           d="m 83.421635,924.5122 c 89.999995,0 89.999995,0 89.999995,0"
           id="path2285" />
      </g>
    </g>
  </g>
</svg>
