<?xml version="1.0" encoding="UTF-8" standalone="no"?>
<!-- Created with Inkscape (http://www.inkscape.org/) -->

<svg
   xmlns:dc="http://purl.org/dc/elements/1.1/"
   xmlns:cc="http://creativecommons.org/ns#"
   xmlns:rdf="http://www.w3.org/1999/02/22-rdf-syntax-ns#"
   xmlns:svg="http://www.w3.org/2000/svg"
   xmlns="http://www.w3.org/2000/svg"
   xmlns:sodipodi="http://sodipodi.sourceforge.net/DTD/sodipodi-0.dtd"
   xmlns:inkscape="http://www.inkscape.org/namespaces/inkscape"
   width="256"
   height="256"
   viewBox="0 0 256 256"
   id="svg2"
   version="1.1"
   inkscape:version="0.92.4 (unknown)"
   sodipodi:docname="applications-font.svg">
  <sodipodi:namedview
     id="base"
     pagecolor="#ffffff"
     bordercolor="#666666"
     borderopacity="1.0"
     inkscape:pageopacity="0.0"
     inkscape:pageshadow="2"
     inkscape:zoom="3.296875"
     inkscape:cx="62.483412"
     inkscape:cy="128"
     inkscape:document-units="px"
     inkscape:current-layer="layer1"
     showgrid="true"
     units="px"
     inkscape:window-width="1920"
     inkscape:window-height="1048"
     inkscape:window-x="0"
     inkscape:window-y="0"
     inkscape:window-maximized="1">
    <inkscape:grid
       spacingy="5"
       spacingx="5"
       id="grid4168"
       type="xygrid" />
  </sodipodi:namedview>
  <defs
     id="defs4">
    <clipPath
       id="clipPath5002"
       clipPathUnits="userSpaceOnUse">
      <g
         id="g5004">
        <path
           style="fill:#0f9d58;fill-opacity:1;stroke:none;stroke-width:4.85768509;stroke-linejoin:round;stroke-miterlimit:4;stroke-dasharray:none;stroke-opacity:1"
           d="M 88.118406,249.43519 C 46.103287,235.29134 14.771284,201.68742 4.1335861,159.36053 1.3377997,148.23623 0.92261224,144.16281 0.92582381,127.88908 0.92787958,117.47222 1.134384,112.01362 1.6577819,108.54099 4.4653598,89.913336 12.17654,70.638106 23.042737,55.086148 c 3.958678,-5.665755 8.344812,-10.93092 9.101533,-10.925587 0.32809,0.0023 10.488643,18.309713 22.579009,40.683112 12.090365,22.373397 22.374546,41.334697 22.853732,42.136217 0.479186,0.80151 0.924733,2.44098 0.990103,3.64326 0.343424,6.31639 2.524175,14.20976 5.6424,20.42304 2.954444,5.88693 5.065381,8.73258 10.434696,14.06652 6.71418,6.66995 12.88853,10.28643 21.73204,12.72904 3.16587,0.87442 5.10478,1.05037 11.57517,1.05037 8.82596,0 12.60219,-0.76201 19.26429,-3.88733 2.04584,-0.95974 3.93661,-1.66536 4.20172,-1.56805 0.2651,0.0973 -11.0555,17.66459 -25.1569,39.0384 l -25.6389,38.86148 -3.094121,0.11221 c -2.554618,0.0927 -4.195204,-0.25845 -9.409103,-2.01364 z"
           id="path5006"
           inkscape:connector-curvature="0"
           transform="translate(0,796.36216)" />
        <path
           style="fill:#f4b400;fill-opacity:1;stroke:none;stroke-width:4.85768509;stroke-linejoin:round;stroke-miterlimit:4;stroke-dasharray:none;stroke-opacity:1"
           d="m 112.35984,1051.5167 c -10.0014,-1.4495 -12.15632,-1.8201 -12.531784,-2.1556 -0.248854,-0.2223 1.738304,-3.7475 4.550294,-8.0722 7.16635,-11.0213 49.77231,-74.64801 50.25856,-75.05489 3.57509,-2.99158 8.63523,-8.0414 10.57512,-10.55356 3.36154,-4.35318 7.55784,-12.9141 9.06523,-18.494 6.19314,-22.92535 -2.59253,-47.15185 -21.69967,-59.83688 l -2.96081,-1.96565 17.02469,0.29584 c 9.36358,0.1627 31.17032,0.43384 48.45941,0.60252 l 31.43471,0.30668 1.54584,4.18869 c 2.24597,6.08579 4.67816,15.0947 5.93451,21.9816 1.52517,8.36049 1.92536,28.85896 0.73851,37.82758 -3.0805,23.27845 -12.81326,45.72018 -27.80202,64.10577 -20.47622,25.1166 -51.4599,42.1974 -84.14612,46.3885 -5.31244,0.6812 -26.64601,0.9864 -30.44647,0.4356 z"
           id="path5008"
           inkscape:connector-curvature="0" />
        <path
           style="fill:#db4437;fill-opacity:1;stroke:none;stroke-width:10;stroke-linejoin:round;stroke-miterlimit:4;stroke-dasharray:none;stroke-opacity:1"
           d="M 67.989788,108.87302 C 41.284246,59.575543 33.290284,45.149038 32.233625,44.344765 31.651257,43.901497 32.811213,42.549931 38.695603,36.815353 53.43581,22.450419 68.809334,13.040746 87.839196,6.7360352 101.68742,2.1480329 112.58238,0.43719165 127.95142,0.43719165 c 21.3099,0 37.80488,3.80960275 56.83492,13.12633035 25.29351,12.383198 46.19421,33.578863 58.51993,59.345832 1.61138,3.368591 2.92978,6.372442 2.92978,6.675231 0,0.560033 -10.54865,0.49527 -71.16508,-0.436914 l -24.28843,-0.373518 -3.93063,-1.764495 c -6.75732,-3.033425 -10.64587,-3.839529 -18.6576,-3.867747 -5.0296,-0.01773 -7.97946,0.207636 -10.31642,0.788106 -14.50826,3.603659 -26.283291,12.94777 -33.291614,26.418653 -3.58502,6.89086 -5.24713,13.08166 -6.331628,23.58317 l -0.33738,3.26696 -9.92748,-18.32578 z"
           id="path5010"
           inkscape:connector-curvature="0"
           transform="translate(0,796.36216)" />
      </g>
    </clipPath>
    <clipPath
       clipPathUnits="userSpaceOnUse"
       id="clipPath4271">
      <circle
         style="fill:#292929;fill-opacity:0.26020412;stroke:none;stroke-width:10;stroke-linejoin:round;stroke-miterlimit:4;stroke-dasharray:none;stroke-opacity:0.25882353"
         id="circle4273"
         cx="128"
         cy="128.00002"
         r="128" />
    </clipPath>
    <clipPath
       id="clipPath4363"
       clipPathUnits="userSpaceOnUse">
      <circle
         style="fill:#4285f4;fill-opacity:1;stroke:none;stroke-width:10;stroke-linejoin:round;stroke-miterlimit:4;stroke-dasharray:none;stroke-opacity:0.25882353"
         id="circle4365"
         cx="128"
         cy="924.36218"
         r="128" />
    </clipPath>
    <clipPath
       clipPathUnits="userSpaceOnUse"
       id="clipPath4452">
      <circle
         style="fill:#4285f4;fill-opacity:1;stroke:none;stroke-width:10;stroke-linejoin:round;stroke-miterlimit:4;stroke-dasharray:none;stroke-opacity:0.25882353"
         id="circle4454"
         cx="128"
         cy="924.36218"
         r="128" />
    </clipPath>
    <clipPath
       id="clipPath5177"
       clipPathUnits="userSpaceOnUse">
      <circle
         style="fill:#4285f4;fill-opacity:1;stroke:none;stroke-width:10;stroke-linejoin:round;stroke-miterlimit:4;stroke-dasharray:none;stroke-opacity:0.25882353"
         id="circle5179"
         cx="128"
         cy="924.36218"
         r="128" />
    </clipPath>
    <clipPath
       clipPathUnits="userSpaceOnUse"
       id="clipPath4342">
      <circle
         style="fill:#4285f4;fill-opacity:1;stroke:none;stroke-width:10;stroke-linejoin:round;stroke-miterlimit:4;stroke-dasharray:none;stroke-opacity:0.25882353"
         id="circle4344"
         cx="128"
         cy="933.48718"
         r="128" />
    </clipPath>
    <clipPath
       id="clipPath4681"
       clipPathUnits="userSpaceOnUse">
      <circle
         style="fill:#9d5fad;fill-opacity:1;stroke:none;stroke-width:10;stroke-linejoin:round;stroke-miterlimit:4;stroke-dasharray:none;stroke-opacity:0.25882353"
         id="circle4683"
         cx="127.00293"
         cy="930.43964"
         r="128" />
    </clipPath>
    <clipPath
       clipPathUnits="userSpaceOnUse"
       id="clipPath4235">
      <circle
         style="fill:#0f9d58;fill-opacity:1;stroke:none;stroke-width:10;stroke-linejoin:round;stroke-miterlimit:4;stroke-dasharray:none;stroke-opacity:0.25882353"
         id="circle4237"
         cx="128"
         cy="924.36218"
         r="128" />
    </clipPath>
    <clipPath
       id="clipPath4771"
       clipPathUnits="userSpaceOnUse">
      <circle
         style="fill:#0f9d58;fill-opacity:1;stroke:none;stroke-width:10;stroke-linejoin:round;stroke-miterlimit:4;stroke-dasharray:none;stroke-opacity:0.25882353"
         id="circle4773"
         cx="128"
         cy="924.36218"
         r="128" />
    </clipPath>
    <clipPath
       clipPathUnits="userSpaceOnUse"
       id="clipPath4842">
      <circle
         style="fill:#0f9d58;fill-opacity:1;stroke:none;stroke-width:10;stroke-linejoin:round;stroke-miterlimit:4;stroke-dasharray:none;stroke-opacity:0.25882353"
         id="circle4844"
         cx="128"
         cy="924.36218"
         r="128" />
    </clipPath>
    <clipPath
       id="clipPath4510"
       clipPathUnits="userSpaceOnUse">
      <circle
         style="fill:#0f9d58;fill-opacity:1;stroke:none;stroke-width:10;stroke-linejoin:round;stroke-miterlimit:4;stroke-dasharray:none;stroke-opacity:0.25882353"
         id="circle4512"
         cx="128"
         cy="924.36218"
         r="128" />
    </clipPath>
    <clipPath
       clipPathUnits="userSpaceOnUse"
       id="clipPath4442">
      <circle
         style="fill:#dadada;fill-opacity:1;stroke:none;stroke-width:10;stroke-linejoin:round;stroke-miterlimit:4;stroke-dasharray:none;stroke-opacity:0.25882353"
         id="circle4444"
         cx="128"
         cy="924.36218"
         r="128" />
    </clipPath>
    <clipPath
       id="clipPath4389"
       clipPathUnits="userSpaceOnUse">
      <circle
         style="fill:#4285f4;fill-opacity:1;stroke:none;stroke-width:10;stroke-linejoin:round;stroke-miterlimit:4;stroke-dasharray:none;stroke-opacity:0.25882353"
         id="circle4391"
         cx="128"
         cy="924.36218"
         r="128" />
    </clipPath>
    <clipPath
       clipPathUnits="userSpaceOnUse"
       id="clipPath4657">
      <circle
         style="fill:#4285f4;fill-opacity:1;stroke:none;stroke-width:10;stroke-linejoin:round;stroke-miterlimit:4;stroke-dasharray:none;stroke-opacity:0.25882353"
         id="circle4659"
         cx="128"
         cy="924.36218"
         r="128" />
    </clipPath>
  </defs>
  <metadata
     id="metadata7">
    <rdf:RDF>
      <cc:Work
         rdf:about="">
        <dc:format>image/svg+xml</dc:format>
        <dc:type
           rdf:resource="http://purl.org/dc/dcmitype/StillImage" />
        <dc:title />
      </cc:Work>
    </rdf:RDF>
  </metadata>
  <g
     inkscape:label="Layer 1"
     inkscape:groupmode="layer"
     id="layer1"
     transform="translate(0,-796.36216)">
    <path
       d="m 256,-924.36218 a 128,128 0 0 1 -64,110.85125 128,128 0 0 1 -128.000003,0 A 128,128 0 0 1 0,-924.36219 l 128,1e-5 z"
       sodipodi:end="3.1415927"
       sodipodi:start="0"
       sodipodi:ry="128"
       sodipodi:rx="128"
       sodipodi:cy="-924.36218"
       sodipodi:cx="128"
       sodipodi:type="arc"
       style="fill:#813d9c;fill-opacity:1;stroke:none;stroke-width:10;stroke-linejoin:round;stroke-miterlimit:4;stroke-dasharray:none;stroke-opacity:0.25882353"
       id="path887"
       transform="scale(1,-1)" />
    <path
       style="fill:none;fill-rule:evenodd;stroke:none;stroke-width:1px;stroke-linecap:butt;stroke-linejoin:miter;stroke-opacity:1"
       d="M 154.47438,968.80998 101.03985,1048.476 0.4857685,1048.9618 0,842.0244 l 33.032258,-2.42884 45.176471,83.55218 21.373814,35.4611 26.717267,13.11575 z"
       id="path4913"
       inkscape:connector-curvature="0" />
    <path
       id="path4152"
       style="fill:#ac5ac1;fill-opacity:1;stroke:none;stroke-width:10;stroke-linejoin:round;stroke-miterlimit:4;stroke-dasharray:none;stroke-opacity:0.25882353"
       sodipodi:type="arc"
       sodipodi:cx="128"
       sodipodi:cy="924.36218"
       sodipodi:rx="128"
       sodipodi:ry="128"
       sodipodi:start="0"
       sodipodi:end="3.1415927"
       d="m 256,924.36218 a 128,128 0 0 1 -64,110.85122 128,128 0 0 1 -128.000003,0 A 128,128 0 0 1 0,924.36218 l 128,0 z" />
    <text
       xml:space="preserve"
       style="font-style:normal;font-weight:normal;line-height:0%;font-family:sans-serif;letter-spacing:0px;word-spacing:0px;fill:#000000;fill-opacity:1;stroke:none;stroke-width:1px;stroke-linecap:butt;stroke-linejoin:miter;stroke-opacity:1"
       x="120"
       y="927.36218"
       id="text4914"><tspan
         sodipodi:role="line"
         id="tspan4916"
         x="120"
         y="927.36218"
         style="font-size:40px;line-height:1.25"> </tspan></text>
    <g
       transform="translate(0,-2.2617187e-5)"
       id="g4432">
      <g
         aria-label="a"
         style="font-style:normal;font-weight:normal;line-height:0%;font-family:sans-serif;letter-spacing:0px;word-spacing:0px;fill:#ffffff;fill-opacity:1;stroke:none;stroke-width:1px;stroke-linecap:butt;stroke-linejoin:miter;stroke-opacity:1"
         id="text4434">
        <path
           style="font-size:90px;line-height:1.25"
           d="M 115.86719 50.457031 C 113.23047 50.457031 110.52149 50.749997 107.73828 51.335938 C 104.95508 51.892577 102.08398 52.742186 99.125 53.884766 L 99.125 61.355469 C 101.58594 60.007815 104.14844 58.998045 106.81445 58.324219 C 109.48047 57.650385 112.2207 57.3125 115.0332 57.3125 C 119.45703 57.3125 122.88477 58.337885 125.31641 60.388672 C 127.77735 62.410152 129.00781 65.281246 129.00781 69.001953 L 129.00781 69.792969 L 117.66992 69.792969 C 110.31641 69.792969 104.77929 71.199219 101.05859 74.011719 C 97.367185 76.824219 95.521484 80.999996 95.521484 86.537109 C 95.521484 91.283203 97 95.076175 99.958984 97.917969 C 102.94727 100.73047 106.96094 102.13672 112 102.13672 C 115.98437 102.13672 119.35352 101.43359 122.10742 100.02734 C 124.86133 98.591797 127.16211 96.380858 129.00781 93.392578 L 129.00781 100.86328 L 137.09375 100.86328 L 137.09375 72.78125 C 137.09375 65.28125 135.33593 59.685547 131.82031 55.994141 C 128.30469 52.302734 122.98633 50.457031 115.86719 50.457031 z M 120.96484 76.121094 L 129.00781 76.121094 L 129.00781 77.923828 C 129.00781 83.197261 127.64454 87.429687 124.91992 90.623047 C 122.22461 93.787107 118.63672 95.369141 114.1543 95.369141 C 110.90234 95.369141 108.32422 94.535154 106.41992 92.865234 C 104.54492 91.166014 103.60742 88.880859 103.60742 86.009766 C 103.60742 82.406252 104.86719 79.857421 107.38672 78.363281 C 109.90625 76.869141 114.43164 76.121094 120.96484 76.121094 z M 150.48828 91.384766 L 150.48828 159.76367 L 158.61719 159.76367 L 158.61719 152.38086 C 160.31641 155.31055 162.45508 157.49219 165.0332 158.92773 C 167.64062 160.33398 170.74609 161.03711 174.34961 161.03711 C 180.32617 161.03711 185.17578 158.66406 188.89648 153.91797 C 192.64648 149.17188 194.52148 142.93164 194.52148 135.19727 C 194.52148 127.46289 192.64648 121.22266 188.89648 116.47656 C 185.17578 111.73047 180.32617 109.35742 174.34961 109.35742 C 170.74609 109.35742 167.64062 110.07617 165.0332 111.51172 C 162.45508 112.91797 160.31641 115.08594 158.61719 118.01562 L 158.61719 91.384766 L 150.48828 91.384766 z M 115.25195 111 C 106.78841 111 99.361006 112.46484 92.972656 115.39453 C 86.625 118.32422 80.970052 122.85971 76.005859 129.00391 C 71.326497 134.78191 67.725912 141.17123 65.203125 148.16992 C 62.721028 155.16862 61.478516 162.28841 61.478516 169.53125 C 61.478516 180.8431 64.755533 189.67382 71.306641 196.02148 C 77.898437 202.36914 87.032877 205.54297 98.710938 205.54297 C 103.67513 205.54297 108.61947 205.01301 113.54297 203.95508 C 118.50716 202.89712 123.40983 201.33105 128.25195 199.25586 L 131.12109 184.66797 C 126.19759 188.28939 121.13021 191.0166 115.92188 192.84766 C 110.71354 194.63802 105.28287 195.5332 99.626953 195.5332 C 91.448242 195.5332 85.201823 193.35579 80.888672 189.00195 C 76.616211 184.64811 74.480469 178.32031 74.480469 170.01953 C 74.480469 165.05534 75.1097 160.13281 76.371094 155.25 C 77.673177 150.3265 79.544922 145.66797 81.986328 141.27344 C 85.811198 134.4375 90.348633 129.35026 95.597656 126.01367 C 100.88737 122.67709 107.01074 121.00977 113.96875 121.00977 C 119.05501 121.00977 123.77506 121.96452 128.12891 123.87695 C 132.52343 125.78939 136.67382 128.71908 140.58008 132.66602 L 143.08398 119.66602 C 139.05566 116.77702 134.70084 114.62142 130.02148 113.19727 C 125.38281 111.73242 120.46029 111 115.25195 111 z M 172.37305 116.125 C 176.65039 116.125 180.00391 117.82422 182.43555 121.22266 C 184.89649 124.5918 186.12695 129.25 186.12695 135.19727 C 186.12695 141.14453 184.89649 145.81836 182.43555 149.2168 C 180.00391 152.58594 176.65039 154.26953 172.37305 154.26953 C 168.0957 154.26953 164.72656 152.58594 162.26562 149.2168 C 159.83398 145.81836 158.61719 141.14453 158.61719 135.19727 C 158.61719 129.25 159.83398 124.5918 162.26562 121.22266 C 164.72656 117.82422 168.0957 116.125 172.37305 116.125 z "
           transform="translate(0,796.36218)"
           id="path909" />
      </g>
      <g
         aria-label="b"
         style="font-style:normal;font-weight:normal;line-height:0%;font-family:sans-serif;letter-spacing:0px;word-spacing:0px;fill:#ffffff;fill-opacity:1;stroke:none;stroke-width:1px;stroke-linecap:butt;stroke-linejoin:miter;stroke-opacity:1"
         id="text4438" />
      <g
         aria-label="C"
         style="font-style:italic;font-variant:normal;font-weight:normal;font-stretch:normal;line-height:0%;font-family:sans-serif;-inkscape-font-specification:'sans-serif Italic';letter-spacing:0px;word-spacing:0px;fill:#ffffff;fill-opacity:1;stroke:none;stroke-width:1px;stroke-linecap:butt;stroke-linejoin:miter;stroke-opacity:1"
         id="text4442" />
    </g>
  </g>
</svg>
