<?xml version="1.0" encoding="UTF-8" standalone="no"?>
<!-- Created with Inkscape (http://www.inkscape.org/) -->

<svg
   xmlns:dc="http://purl.org/dc/elements/1.1/"
   xmlns:cc="http://creativecommons.org/ns#"
   xmlns:rdf="http://www.w3.org/1999/02/22-rdf-syntax-ns#"
   xmlns:svg="http://www.w3.org/2000/svg"
   xmlns="http://www.w3.org/2000/svg"
   xmlns:xlink="http://www.w3.org/1999/xlink"
   xmlns:sodipodi="http://sodipodi.sourceforge.net/DTD/sodipodi-0.dtd"
   xmlns:inkscape="http://www.inkscape.org/namespaces/inkscape"
   sodipodi:docname="org.gnome.Photos.svg"
   inkscape:version="0.92.3 (2405546, 2018-03-11)"
   version="1.1"
   id="svg2"
   viewBox="0 0 256 256"
   height="256"
   width="256">
  <sodipodi:namedview
     inkscape:window-maximized="1"
     inkscape:window-y="0"
     inkscape:window-x="0"
     inkscape:window-height="1048"
     inkscape:window-width="1920"
     units="px"
     showgrid="true"
     inkscape:current-layer="layer1"
     inkscape:document-units="px"
     inkscape:cy="128"
     inkscape:cx="44.604365"
     inkscape:zoom="3.3359375"
     inkscape:pageshadow="2"
     inkscape:pageopacity="0.0"
     borderopacity="1.0"
     bordercolor="#666666"
     pagecolor="#ffffff"
     id="base">
    <inkscape:grid
       type="xygrid"
       id="grid4168"
       spacingx="5"
       spacingy="5" />
  </sodipodi:namedview>
  <defs
     id="defs4">
    <clipPath
       clipPathUnits="userSpaceOnUse"
       id="clipPath5002">
      <g
         id="g5004">
        <path
           transform="translate(0,796.36216)"
           inkscape:connector-curvature="0"
           id="path5006"
           d="M 88.118406,249.43519 C 46.103287,235.29134 14.771284,201.68742 4.1335861,159.36053 1.3377997,148.23623 0.92261224,144.16281 0.92582381,127.88908 0.92787958,117.47222 1.134384,112.01362 1.6577819,108.54099 4.4653598,89.913336 12.17654,70.638106 23.042737,55.086148 c 3.958678,-5.665755 8.344812,-10.93092 9.101533,-10.925587 0.32809,0.0023 10.488643,18.309713 22.579009,40.683112 12.090365,22.373397 22.374546,41.334697 22.853732,42.136217 0.479186,0.80151 0.924733,2.44098 0.990103,3.64326 0.343424,6.31639 2.524175,14.20976 5.6424,20.42304 2.954444,5.88693 5.065381,8.73258 10.434696,14.06652 6.71418,6.66995 12.88853,10.28643 21.73204,12.72904 3.16587,0.87442 5.10478,1.05037 11.57517,1.05037 8.82596,0 12.60219,-0.76201 19.26429,-3.88733 2.04584,-0.95974 3.93661,-1.66536 4.20172,-1.56805 0.2651,0.0973 -11.0555,17.66459 -25.1569,39.0384 l -25.6389,38.86148 -3.094121,0.11221 c -2.554618,0.0927 -4.195204,-0.25845 -9.409103,-2.01364 z"
           style="fill:#0f9d58;fill-opacity:1;stroke:none;stroke-width:4.85768509;stroke-linejoin:round;stroke-miterlimit:4;stroke-dasharray:none;stroke-opacity:1" />
        <path
           inkscape:connector-curvature="0"
           id="path5008"
           d="m 112.35984,1051.5167 c -10.0014,-1.4495 -12.15632,-1.8201 -12.531784,-2.1556 -0.248854,-0.2223 1.738304,-3.7475 4.550294,-8.0722 7.16635,-11.0213 49.77231,-74.64801 50.25856,-75.05489 3.57509,-2.99158 8.63523,-8.0414 10.57512,-10.55356 3.36154,-4.35318 7.55784,-12.9141 9.06523,-18.494 6.19314,-22.92535 -2.59253,-47.15185 -21.69967,-59.83688 l -2.96081,-1.96565 17.02469,0.29584 c 9.36358,0.1627 31.17032,0.43384 48.45941,0.60252 l 31.43471,0.30668 1.54584,4.18869 c 2.24597,6.08579 4.67816,15.0947 5.93451,21.9816 1.52517,8.36049 1.92536,28.85896 0.73851,37.82758 -3.0805,23.27845 -12.81326,45.72018 -27.80202,64.10577 -20.47622,25.1166 -51.4599,42.1974 -84.14612,46.3885 -5.31244,0.6812 -26.64601,0.9864 -30.44647,0.4356 z"
           style="fill:#f4b400;fill-opacity:1;stroke:none;stroke-width:4.85768509;stroke-linejoin:round;stroke-miterlimit:4;stroke-dasharray:none;stroke-opacity:1" />
        <path
           transform="translate(0,796.36216)"
           inkscape:connector-curvature="0"
           id="path5010"
           d="M 67.989788,108.87302 C 41.284246,59.575543 33.290284,45.149038 32.233625,44.344765 31.651257,43.901497 32.811213,42.549931 38.695603,36.815353 53.43581,22.450419 68.809334,13.040746 87.839196,6.7360352 101.68742,2.1480329 112.58238,0.43719165 127.95142,0.43719165 c 21.3099,0 37.80488,3.80960275 56.83492,13.12633035 25.29351,12.383198 46.19421,33.578863 58.51993,59.345832 1.61138,3.368591 2.92978,6.372442 2.92978,6.675231 0,0.560033 -10.54865,0.49527 -71.16508,-0.436914 l -24.28843,-0.373518 -3.93063,-1.764495 c -6.75732,-3.033425 -10.64587,-3.839529 -18.6576,-3.867747 -5.0296,-0.01773 -7.97946,0.207636 -10.31642,0.788106 -14.50826,3.603659 -26.283291,12.94777 -33.291614,26.418653 -3.58502,6.89086 -5.24713,13.08166 -6.331628,23.58317 l -0.33738,3.26696 -9.92748,-18.32578 z"
           style="fill:#db4437;fill-opacity:1;stroke:none;stroke-width:10;stroke-linejoin:round;stroke-miterlimit:4;stroke-dasharray:none;stroke-opacity:1" />
      </g>
    </clipPath>
    <clipPath
       id="clipPath4271"
       clipPathUnits="userSpaceOnUse">
      <circle
         r="128"
         cy="128.00002"
         cx="128"
         id="circle4273"
         style="fill:#292929;fill-opacity:0.26020412;stroke:none;stroke-width:10;stroke-linejoin:round;stroke-miterlimit:4;stroke-dasharray:none;stroke-opacity:0.25882353" />
    </clipPath>
    <clipPath
       clipPathUnits="userSpaceOnUse"
       id="clipPath4363">
      <circle
         r="128"
         cy="924.36218"
         cx="128"
         id="circle4365"
         style="fill:#4285f4;fill-opacity:1;stroke:none;stroke-width:10;stroke-linejoin:round;stroke-miterlimit:4;stroke-dasharray:none;stroke-opacity:0.25882353" />
    </clipPath>
    <clipPath
       id="clipPath4452"
       clipPathUnits="userSpaceOnUse">
      <circle
         r="128"
         cy="924.36218"
         cx="128"
         id="circle4454"
         style="fill:#4285f4;fill-opacity:1;stroke:none;stroke-width:10;stroke-linejoin:round;stroke-miterlimit:4;stroke-dasharray:none;stroke-opacity:0.25882353" />
    </clipPath>
    <clipPath
       clipPathUnits="userSpaceOnUse"
       id="clipPath4954">
      <circle
         r="128"
         cy="924.36218"
         cx="128"
         id="circle4956"
         style="fill:#f16529;fill-opacity:1;stroke:none;stroke-width:10;stroke-linejoin:round;stroke-miterlimit:4;stroke-dasharray:none;stroke-opacity:0.25882353" />
    </clipPath>
    <clipPath
       id="clipPath5071"
       clipPathUnits="userSpaceOnUse">
      <circle
         r="99.306747"
         cy="933.98254"
         cx="132.21979"
         id="circle5073"
         style="fill:#0f9d58;fill-opacity:1;stroke:none;stroke-width:10;stroke-linejoin:round;stroke-miterlimit:4;stroke-dasharray:none;stroke-opacity:0.25882353" />
    </clipPath>
    <clipPath
       clipPathUnits="userSpaceOnUse"
       id="clipPath6641">
      <circle
         r="128"
         cy="918.68585"
         cx="128.0004"
         id="circle6643"
         style="fill:#62d1f9;fill-opacity:1;stroke:none;stroke-width:10;stroke-linejoin:round;stroke-miterlimit:4;stroke-dasharray:none;stroke-opacity:0.25882353" />
    </clipPath>
    <clipPath
       id="clipPath7343"
       clipPathUnits="userSpaceOnUse">
      <circle
         r="128"
         cy="924.20221"
         cx="126.88464"
         id="circle7345"
         style="fill:#62d1f9;fill-opacity:1;stroke:none;stroke-width:10;stroke-linejoin:round;stroke-miterlimit:4;stroke-dasharray:none;stroke-opacity:0.25882353" />
    </clipPath>
    <clipPath
       clipPathUnits="userSpaceOnUse"
       id="clipPath5934">
      <circle
         r="128"
         cy="924.36218"
         cx="128"
         id="circle5936"
         style="fill:#62d1f9;fill-opacity:1;stroke:none;stroke-width:10;stroke-linejoin:round;stroke-miterlimit:4;stroke-dasharray:none;stroke-opacity:0.25882353" />
    </clipPath>
    <clipPath
       id="clipPath1251"
       clipPathUnits="userSpaceOnUse">
      <circle
         r="104.09154"
         cy="920.43707"
         cx="117.49999"
         id="circle1253"
         style="fill:#13cc72;fill-opacity:1;stroke:none;stroke-width:8.1321516;stroke-linejoin:round;stroke-miterlimit:4;stroke-dasharray:none;stroke-opacity:0.25882353" />
    </clipPath>
    <clipPath
       clipPathUnits="userSpaceOnUse"
       id="clipPath4787">
      <circle
         r="128"
         cy="924.36218"
         cx="128"
         id="circle4789"
         style="fill:#13cc72;fill-opacity:1;stroke:none;stroke-width:10;stroke-linejoin:round;stroke-miterlimit:4;stroke-dasharray:none;stroke-opacity:0.25882353" />
    </clipPath>
    <clipPath
       clipPathUnits="userSpaceOnUse"
       id="clipPath4793">
      <circle
         r="128"
         cy="924.36218"
         cx="128"
         id="circle4795"
         style="fill:#13cc72;fill-opacity:1;stroke:none;stroke-width:10;stroke-linejoin:round;stroke-miterlimit:4;stroke-dasharray:none;stroke-opacity:0.25882353" />
    </clipPath>
  </defs>
  <metadata
     id="metadata7">
    <rdf:RDF>
      <cc:Work
         rdf:about="">
        <dc:format>image/svg+xml</dc:format>
        <dc:type
           rdf:resource="http://purl.org/dc/dcmitype/StillImage" />
        <dc:title />
      </cc:Work>
    </rdf:RDF>
  </metadata>
  <g
     transform="translate(0,-796.36216)"
     id="layer1"
     inkscape:groupmode="layer"
     inkscape:label="Layer 1">
    <g
       id="g918"
       transform="translate(158,61.999977)">
      <path
         d="M 98,862.36218 A 128,128 0 0 1 33.999998,973.21344 128,128 0 0 1 -94.000003,973.21343 128,128 0 0 1 -158,862.36218 l 128,0 z"
         sodipodi:end="3.1415927"
         sodipodi:start="0"
         sodipodi:ry="128"
         sodipodi:rx="128"
         sodipodi:cy="862.36218"
         sodipodi:cx="-30"
         sodipodi:type="arc"
         id="path886"
         style="opacity:1;fill:#fb4c4c;fill-opacity:1;stroke:none;stroke-width:53.47665405;stroke-miterlimit:4;stroke-dasharray:none;stroke-opacity:1" />
      <path
         transform="scale(1,-1)"
         style="opacity:1;fill:#950101;fill-opacity:1;stroke:none;stroke-width:53.47665405;stroke-miterlimit:4;stroke-dasharray:none;stroke-opacity:1"
         id="path888"
         sodipodi:type="arc"
         sodipodi:cx="-30"
         sodipodi:cy="-862.36218"
         sodipodi:rx="128"
         sodipodi:ry="128"
         sodipodi:start="0"
         sodipodi:end="3.1415927"
         d="m 98,-862.36218 a 128,128 0 0 1 -64.000002,110.85125 128,128 0 0 1 -128.000001,0 A 128,128 0 0 1 -158,-862.36219 l 128,1e-5 z" />
    </g>
    <path
       inkscape:connector-curvature="0"
       id="path4913"
       d="M 154.47438,968.80998 101.03985,1048.476 0.4857685,1048.9618 0,842.0244 l 33.032258,-2.42884 45.176471,83.55218 21.373814,35.4611 26.717267,13.11575 z"
       style="fill:none;fill-rule:evenodd;stroke:none;stroke-width:1px;stroke-linecap:butt;stroke-linejoin:miter;stroke-opacity:1" />
    <rect
       y="957.36218"
       x="65"
       height="30"
       width="115"
       id="rect4316"
       style="fill:none;fill-opacity:1;stroke:none;stroke-width:9.19999981;stroke-miterlimit:4;stroke-dasharray:none;stroke-opacity:1" />
    <rect
       y="867.36218"
       x="55"
       height="10"
       width="25"
       id="rect4548"
       style="opacity:1;fill:none;fill-opacity:1;stroke:none;stroke-width:20;stroke-miterlimit:4;stroke-dasharray:none;stroke-opacity:1" />
    <path
       style="opacity:1;fill:#ffffff;fill-opacity:1;stroke:none;stroke-width:6.36226845;stroke-miterlimit:4;stroke-dasharray:none;stroke-opacity:1"
       d="M 98.615861,850.36206 H 156.2601 c 3.40412,0 5.54893,2.40195 6.1446,5.99519 l 5.52584,33.33321 c 0.59565,3.59321 -2.74048,6.5876 -6.1446,6.5876 H 94.1952 c -3.404098,0 -6.641056,-2.9771 -6.144583,-6.5876 l 4.420665,-32.14837 c 0.496477,-3.6105 2.740485,-7.18003 6.144579,-7.18003 z"
       id="rect1018"
       inkscape:connector-curvature="0"
       sodipodi:nodetypes="sssssssss" />
    <rect
       y="864.36224"
       x="53.5"
       height="16.999945"
       width="30"
       id="rect4573"
       style="opacity:1;fill:#ffffff;fill-opacity:1;stroke:none;stroke-width:28.56567001;stroke-miterlimit:4;stroke-dasharray:none;stroke-opacity:1" />
    <rect
       y="864.36224"
       x="173.5"
       height="16.999977"
       width="35"
       id="rect4575"
       style="opacity:1;fill:#ffffff;fill-opacity:1;stroke:none;stroke-width:28.16615486;stroke-miterlimit:4;stroke-dasharray:none;stroke-opacity:1" />
    <g
       id="g4567"
       transform="translate(1.25)">
      <rect
         style="opacity:1;fill:#ffffff;fill-opacity:1;stroke:none;stroke-width:24.8219471;stroke-miterlimit:4;stroke-dasharray:none;stroke-opacity:1"
         id="rect4571"
         width="191"
         height="125"
         x="31.25"
         y="873.36224"
         ry="14.999977" />
      <path
         inkscape:connector-curvature="0"
         id="rect4558"
         d="m 31.25,902.36216 v 83 c 0,8.30999 6.690013,15.00004 15,15.00004 h 161 c 8.30999,0 15,-6.69005 15,-15.00004 v -83 z"
         style="opacity:1;fill:#bcbcbc;fill-opacity:1;stroke:none;stroke-width:24.8219471;stroke-miterlimit:4;stroke-dasharray:none;stroke-opacity:1" />
    </g>
    <circle
       r="38.866772"
       cy="-935.86224"
       cx="-128"
       id="path4577"
       style="opacity:1;fill:#ffffff;fill-opacity:1;stroke:#950101;stroke-width:22.26645851;stroke-miterlimit:4;stroke-dasharray:none;stroke-opacity:1"
       transform="scale(-1)" />
    <g
       aria-label="Like 25 f 1.8"
       style="font-style:normal;font-weight:normal;font-size:40px;line-height:25px;font-family:sans-serif;letter-spacing:0px;word-spacing:0px;fill:#ffffff;fill-opacity:1;stroke:none"
       id="text4571"
       transform="translate(-1.9271161,-2.610325)">
      <path
         d="m 176.62799,938.14579 -0.27075,2.49185 -7.77973,-0.84532 -0.47541,4.37529 -1.88344,-0.20465 0.74616,-6.86714 z"
         style="font-style:normal;font-variant:normal;font-weight:bold;font-stretch:normal;font-size:13.33333302px;font-family:sans-serif;-inkscape-font-specification:'sans-serif Bold';fill:#ffffff;fill-opacity:1"
         id="path4579"
         inkscape:connector-curvature="0" />
      <path
         d="m 172.72528,947.37314 -0.63707,2.24197 -7.01399,-1.99307 0.63707,-2.24197 z m 2.73044,0.77587 -0.63707,2.24197 -1.82864,-0.51962 0.63707,-2.24197 z"
         style="font-style:normal;font-variant:normal;font-weight:bold;font-stretch:normal;font-size:13.33333302px;font-family:sans-serif;-inkscape-font-specification:'sans-serif Bold';fill:#ffffff;fill-opacity:1"
         id="path4581"
         inkscape:connector-curvature="0" />
      <path
         d="m 173.56805,954.16906 -1.00633,2.10229 -4.97384,-2.38089 1.2554,3.57469 -1.16936,2.44288 -1.48077,-4.65699 -5.21709,1.76122 1.21996,-2.54858 3.97076,-1.25348 -2.74236,-1.31272 1.00632,-2.10229 z"
         style="font-style:normal;font-variant:normal;font-weight:bold;font-stretch:normal;font-size:13.33333302px;font-family:sans-serif;-inkscape-font-specification:'sans-serif Bold';fill:#ffffff;fill-opacity:1"
         id="path4583"
         inkscape:connector-curvature="0" />
      <path
         d="m 158.87908,965.36597 -0.5196,-0.41351 3.3932,-4.26382 q -0.69456,-0.44458 -1.33171,-0.30264 -0.63714,0.14194 -1.20471,0.85513 -0.4581,0.57564 -0.76836,1.31053 -0.30923,0.74405 -0.46958,1.65649 l -1.40599,-1.11891 q 0.27034,-0.84155 0.66294,-1.5858 0.38751,-0.74831 0.90236,-1.39527 1.23242,-1.54863 2.70205,-1.78523 1.47067,-0.22745 2.89194,0.90362 1.39581,1.1108 1.52668,2.58782 0.12682,1.48211 -1.04884,2.95942 -1.07026,1.34486 -2.52077,1.50515 -1.45456,0.16538 -2.80961,-0.91298 z m 2.09808,-1.39223 q 0.51961,0.41351 1.07869,0.35921 0.56012,-0.0452 0.9493,-0.5342 0.42162,-0.52979 0.38457,-1.1001 -0.032,-0.56625 -0.52744,-1.0937 z"
         style="font-style:normal;font-variant:normal;font-weight:bold;font-stretch:normal;font-size:13.33333302px;font-family:sans-serif;-inkscape-font-specification:'sans-serif Bold';fill:#ffffff;fill-opacity:1"
         id="path4585"
         inkscape:connector-curvature="0" />
      <path
         d="m 149.76815,970.27784 -3.65704,2.21849 -0.95561,-1.57526 6.03941,-3.66372 0.95561,1.57526 -1.40943,4.51768 q -0.18348,0.61387 -0.16556,1.08273 0.0179,0.46886 0.24752,0.84737 0.35456,0.58446 0.96587,0.70095 0.60575,0.11988 1.257,-0.2752 0.50097,-0.3039 0.96487,-0.88229 0.46728,-0.57283 0.88973,-1.40782 l 1.10756,1.82574 q -0.57842,0.67832 -1.21105,1.22962 -0.62925,0.55686 -1.30834,0.96882 -1.49176,0.90495 -2.71402,0.74788 -1.22782,-0.15369 -1.94031,-1.32817 -0.41195,-0.67909 -0.41921,-1.48185 -0.004,-0.79719 0.52284,-2.46451 z"
         style="font-style:normal;font-variant:normal;font-weight:bold;font-stretch:normal;font-size:13.33333302px;font-family:sans-serif;-inkscape-font-specification:'sans-serif Bold';fill:#ffffff;fill-opacity:1"
         id="path4587"
         inkscape:connector-curvature="0" />
      <path
         d="m 145.7088,981.23341 -5.94161,1.87508 -0.55449,-1.75703 4.03558,-1.27356 -0.4526,-1.43419 q -0.24967,0.16072 -0.51109,0.28418 -0.26567,0.13163 -0.56369,0.22567 -1.69494,0.5349 -2.90707,-0.0179 -1.21018,-0.54655 -1.68825,-2.06145 -0.47416,-1.50247 0.28804,-2.6783 0.75599,-1.17386 2.58132,-1.74991 0.78849,-0.24883 1.61354,-0.33853 0.81689,-0.0939 1.67851,-0.0245 l 0.59368,1.88121 q -0.8946,-0.19557 -1.63991,-0.1993 -0.75152,-0.002 -1.35376,0.18828 -0.8692,0.2743 -1.23265,0.85323 -0.36771,0.5871 -0.13847,1.3135 0.23121,0.73262 0.86733,0.9961 0.62993,0.26543 1.49913,-0.009 0.51531,-0.16262 1.05581,-0.48339 0.54246,-0.31456 1.12482,-0.80555 z"
         style="font-style:normal;font-variant:normal;font-weight:bold;font-stretch:normal;font-size:13.33333302px;font-family:sans-serif;-inkscape-font-specification:'sans-serif Bold';fill:#ffffff;fill-opacity:1"
         id="path4589"
         inkscape:connector-curvature="0" />
      <path
         d="m 124.63213,984.83646 0.0109,-1.52991 1.28902,0.009 q 0.49478,0.004 0.69139,-0.17736 0.19656,-0.17439 0.19972,-0.61708 l 0.004,-0.5078 -1.99213,-0.0142 0.0119,-1.66663 1.99214,0.0142 0.0401,-5.62485 2.33067,0.0166 -0.0401,5.62486 1.15883,0.008 -0.0119,1.66663 -1.15883,-0.008 -0.004,0.5078 q -0.008,1.19138 -0.67658,1.75303 -0.66814,0.56817 -2.06133,0.55823 z"
         style="font-style:normal;font-variant:normal;font-weight:bold;font-stretch:normal;font-size:13.33333302px;font-family:sans-serif;-inkscape-font-specification:'sans-serif Bold';fill:#ffffff;fill-opacity:1"
         id="path4591"
         inkscape:connector-curvature="0" />
      <path
         d="m 118.12615,975.37185 -2.10099,-0.69685 -1.97783,5.9631 2.30417,0.27039 -0.53699,1.619 -2.29181,-0.26629 -2.26166,-0.75014 2.51482,-7.5821 -2.10099,-0.69686 0.54519,-1.64371 6.45128,2.13975 z"
         style="font-style:normal;font-variant:normal;font-weight:bold;font-stretch:normal;font-size:13.33333302px;font-family:sans-serif;-inkscape-font-specification:'sans-serif Bold';fill:#ffffff;fill-opacity:1"
         id="path4593"
         inkscape:connector-curvature="0" />
      <path
         d="m 109.00331,972.65912 -2.05023,-1.13566 1.22084,-2.204 2.05023,1.13567 z"
         style="font-style:normal;font-variant:normal;font-weight:bold;font-stretch:normal;font-size:13.33333302px;font-family:sans-serif;-inkscape-font-specification:'sans-serif Bold';fill:#ffffff;fill-opacity:1"
         id="path4595"
         inkscape:connector-curvature="0" />
      <path
         d="m 100.49921,969.1999 q 0.54226,0.4476 1.07799,0.39174 0.53573,-0.0559 0.99161,-0.60815 0.45589,-0.5523 0.4092,-1.08891 -0.0508,-0.53159 -0.5931,-0.97919 -0.53723,-0.44345 -1.0638,-0.38847 -0.53071,0.06 -0.9866,0.61231 -0.460025,0.55732 -0.414209,1.08476 0.04167,0.53246 0.578909,0.97591 z m 0.88453,1.80224 q 0.51292,0.76949 0.50709,1.48223 -0.006,0.71274 -0.53217,1.3504 -0.78329,0.94895 -1.901536,0.86165 -1.118242,-0.0873 -2.488948,-1.21871 -1.360664,-1.12313 -1.658315,-2.20456 -0.301795,-1.07641 0.485642,-2.03038 0.526339,-0.63766 1.230077,-0.77433 0.698716,-0.14081 1.551479,0.21697 -0.589112,-0.84082 -0.582003,-1.63693 -0.0021,-0.79523 0.594739,-1.51824 0.920057,-1.11464 2.135615,-1.07365 1.20639,0.0419 2.66245,1.24375 1.46108,1.20602 1.74088,2.3909 0.27063,1.18575 -0.64943,2.30039 -0.59679,0.72301 -1.37298,0.87586 -0.78535,0.15372 -1.72259,-0.26535 z m -1.691056,1.12825 q 0.368856,-0.44686 0.321756,-0.89094 -0.05211,-0.44822 -0.514033,-0.82951 -0.451881,-0.373 -0.896836,-0.33507 -0.444956,0.0379 -0.813808,0.48479 -0.368852,0.44686 -0.317615,0.88592 0.04709,0.44408 0.498974,0.81707 0.461923,0.38129 0.911899,0.3475 0.444955,-0.0379 0.809663,-0.47976 z"
         style="font-style:normal;font-variant:normal;font-weight:bold;font-stretch:normal;font-size:13.33333302px;font-family:sans-serif;-inkscape-font-specification:'sans-serif Bold';fill:#ffffff;fill-opacity:1"
         id="path4597"
         inkscape:connector-curvature="0" />
    </g>
    <text
       xml:space="preserve"
       style="font-style:normal;font-variant:normal;font-weight:bold;font-stretch:normal;font-size:13.33333302px;line-height:25px;font-family:sans-serif;-inkscape-font-specification:'sans-serif Bold';letter-spacing:0px;word-spacing:0px;fill:#ffffff;fill-opacity:1;stroke:none;"
       id="text4580"
       x="2"
       transform="translate(4)"><textPath
         xlink:href="#path4577"
         id="textPath4582"><tspan
   id="tspan4578"
   style="fill:#ffffff;fill-opacity:1;">Gnome</tspan></textPath></text>
  </g>
</svg>
