<?xml version="1.0" encoding="UTF-8" standalone="no"?>
<!-- Created with Inkscape (http://www.inkscape.org/) -->

<svg
   xmlns:dc="http://purl.org/dc/elements/1.1/"
   xmlns:cc="http://creativecommons.org/ns#"
   xmlns:rdf="http://www.w3.org/1999/02/22-rdf-syntax-ns#"
   xmlns:svg="http://www.w3.org/2000/svg"
   xmlns="http://www.w3.org/2000/svg"
   xmlns:sodipodi="http://sodipodi.sourceforge.net/DTD/sodipodi-0.dtd"
   xmlns:inkscape="http://www.inkscape.org/namespaces/inkscape"
   sodipodi:docname="org.gnome.PowerStats.svg"
   inkscape:version="0.92.3 (2405546, 2018-03-11)"
   version="1.1"
   id="svg2"
   viewBox="0 0 256 256"
   height="256"
   width="256">
  <sodipodi:namedview
     inkscape:window-maximized="1"
     inkscape:window-y="0"
     inkscape:window-x="0"
     inkscape:window-height="1048"
     inkscape:window-width="1920"
     units="px"
     showgrid="true"
     inkscape:current-layer="layer1"
     inkscape:document-units="px"
     inkscape:cy="103.90588"
     inkscape:cx="62.945882"
     inkscape:zoom="3.3203125"
     inkscape:pageshadow="2"
     inkscape:pageopacity="0.0"
     borderopacity="1.0"
     bordercolor="#666666"
     pagecolor="#ffffff"
     id="base" />
  <defs
     id="defs4">
    <clipPath
       clipPathUnits="userSpaceOnUse"
       id="clipPath5002">
      <g
         id="g5004">
        <path
           transform="translate(0,796.36216)"
           inkscape:connector-curvature="0"
           id="path5006"
           d="M 88.118406,249.43519 C 46.103287,235.29134 14.771284,201.68742 4.1335861,159.36053 1.3377997,148.23623 0.92261224,144.16281 0.92582381,127.88908 0.92787958,117.47222 1.134384,112.01362 1.6577819,108.54099 4.4653598,89.913336 12.17654,70.638106 23.042737,55.086148 c 3.958678,-5.665755 8.344812,-10.93092 9.101533,-10.925587 0.32809,0.0023 10.488643,18.309713 22.579009,40.683112 12.090365,22.373397 22.374546,41.334697 22.853732,42.136217 0.479186,0.80151 0.924733,2.44098 0.990103,3.64326 0.343424,6.31639 2.524175,14.20976 5.6424,20.42304 2.954444,5.88693 5.065381,8.73258 10.434696,14.06652 6.71418,6.66995 12.88853,10.28643 21.73204,12.72904 3.16587,0.87442 5.10478,1.05037 11.57517,1.05037 8.82596,0 12.60219,-0.76201 19.26429,-3.88733 2.04584,-0.95974 3.93661,-1.66536 4.20172,-1.56805 0.2651,0.0973 -11.0555,17.66459 -25.1569,39.0384 l -25.6389,38.86148 -3.094121,0.11221 c -2.554618,0.0927 -4.195204,-0.25845 -9.409103,-2.01364 z"
           style="fill:#0f9d58;fill-opacity:1;stroke:none;stroke-width:4.85768509;stroke-linejoin:round;stroke-miterlimit:4;stroke-dasharray:none;stroke-opacity:1" />
        <path
           inkscape:connector-curvature="0"
           id="path5008"
           d="m 112.35984,1051.5167 c -10.0014,-1.4495 -12.15632,-1.8201 -12.531784,-2.1556 -0.248854,-0.2223 1.738304,-3.7475 4.550294,-8.0722 7.16635,-11.0213 49.77231,-74.64801 50.25856,-75.05489 3.57509,-2.99158 8.63523,-8.0414 10.57512,-10.55356 3.36154,-4.35318 7.55784,-12.9141 9.06523,-18.494 6.19314,-22.92535 -2.59253,-47.15185 -21.69967,-59.83688 l -2.96081,-1.96565 17.02469,0.29584 c 9.36358,0.1627 31.17032,0.43384 48.45941,0.60252 l 31.43471,0.30668 1.54584,4.18869 c 2.24597,6.08579 4.67816,15.0947 5.93451,21.9816 1.52517,8.36049 1.92536,28.85896 0.73851,37.82758 -3.0805,23.27845 -12.81326,45.72018 -27.80202,64.10577 -20.47622,25.1166 -51.4599,42.1974 -84.14612,46.3885 -5.31244,0.6812 -26.64601,0.9864 -30.44647,0.4356 z"
           style="fill:#f4b400;fill-opacity:1;stroke:none;stroke-width:4.85768509;stroke-linejoin:round;stroke-miterlimit:4;stroke-dasharray:none;stroke-opacity:1" />
        <path
           transform="translate(0,796.36216)"
           inkscape:connector-curvature="0"
           id="path5010"
           d="M 67.989788,108.87302 C 41.284246,59.575543 33.290284,45.149038 32.233625,44.344765 31.651257,43.901497 32.811213,42.549931 38.695603,36.815353 53.43581,22.450419 68.809334,13.040746 87.839196,6.7360352 101.68742,2.1480329 112.58238,0.43719165 127.95142,0.43719165 c 21.3099,0 37.80488,3.80960275 56.83492,13.12633035 25.29351,12.383198 46.19421,33.578863 58.51993,59.345832 1.61138,3.368591 2.92978,6.372442 2.92978,6.675231 0,0.560033 -10.54865,0.49527 -71.16508,-0.436914 l -24.28843,-0.373518 -3.93063,-1.764495 c -6.75732,-3.033425 -10.64587,-3.839529 -18.6576,-3.867747 -5.0296,-0.01773 -7.97946,0.207636 -10.31642,0.788106 -14.50826,3.603659 -26.283291,12.94777 -33.291614,26.418653 -3.58502,6.89086 -5.24713,13.08166 -6.331628,23.58317 l -0.33738,3.26696 -9.92748,-18.32578 z"
           style="fill:#db4437;fill-opacity:1;stroke:none;stroke-width:10;stroke-linejoin:round;stroke-miterlimit:4;stroke-dasharray:none;stroke-opacity:1" />
      </g>
    </clipPath>
    <clipPath
       id="clipPath4271"
       clipPathUnits="userSpaceOnUse">
      <circle
         r="128"
         cy="128.00002"
         cx="128"
         id="circle4273"
         style="fill:#292929;fill-opacity:0.26020412;stroke:none;stroke-width:10;stroke-linejoin:round;stroke-miterlimit:4;stroke-dasharray:none;stroke-opacity:0.25882353" />
    </clipPath>
    <clipPath
       clipPathUnits="userSpaceOnUse"
       id="clipPath4363">
      <circle
         r="128"
         cy="924.36218"
         cx="128"
         id="circle4365"
         style="fill:#4285f4;fill-opacity:1;stroke:none;stroke-width:10;stroke-linejoin:round;stroke-miterlimit:4;stroke-dasharray:none;stroke-opacity:0.25882353" />
    </clipPath>
    <clipPath
       id="clipPath4452"
       clipPathUnits="userSpaceOnUse">
      <circle
         r="128"
         cy="924.36218"
         cx="128"
         id="circle4454"
         style="fill:#4285f4;fill-opacity:1;stroke:none;stroke-width:10;stroke-linejoin:round;stroke-miterlimit:4;stroke-dasharray:none;stroke-opacity:0.25882353" />
    </clipPath>
    <clipPath
       clipPathUnits="userSpaceOnUse"
       id="clipPath5177">
      <circle
         r="128"
         cy="924.36218"
         cx="128"
         id="circle5179"
         style="fill:#4285f4;fill-opacity:1;stroke:none;stroke-width:10;stroke-linejoin:round;stroke-miterlimit:4;stroke-dasharray:none;stroke-opacity:0.25882353" />
    </clipPath>
    <clipPath
       id="clipPath4342"
       clipPathUnits="userSpaceOnUse">
      <circle
         r="128"
         cy="933.48718"
         cx="128"
         id="circle4344"
         style="fill:#4285f4;fill-opacity:1;stroke:none;stroke-width:10;stroke-linejoin:round;stroke-miterlimit:4;stroke-dasharray:none;stroke-opacity:0.25882353" />
    </clipPath>
    <clipPath
       clipPathUnits="userSpaceOnUse"
       id="clipPath4681">
      <circle
         r="128"
         cy="930.43964"
         cx="127.00293"
         id="circle4683"
         style="fill:#9d5fad;fill-opacity:1;stroke:none;stroke-width:10;stroke-linejoin:round;stroke-miterlimit:4;stroke-dasharray:none;stroke-opacity:0.25882353" />
    </clipPath>
    <clipPath
       id="clipPath4235"
       clipPathUnits="userSpaceOnUse">
      <circle
         r="128"
         cy="924.36218"
         cx="128"
         id="circle4237"
         style="fill:#0f9d58;fill-opacity:1;stroke:none;stroke-width:10;stroke-linejoin:round;stroke-miterlimit:4;stroke-dasharray:none;stroke-opacity:0.25882353" />
    </clipPath>
    <clipPath
       clipPathUnits="userSpaceOnUse"
       id="clipPath4771">
      <circle
         r="128"
         cy="924.36218"
         cx="128"
         id="circle4773"
         style="fill:#0f9d58;fill-opacity:1;stroke:none;stroke-width:10;stroke-linejoin:round;stroke-miterlimit:4;stroke-dasharray:none;stroke-opacity:0.25882353" />
    </clipPath>
    <clipPath
       id="clipPath4842"
       clipPathUnits="userSpaceOnUse">
      <circle
         r="128"
         cy="924.36218"
         cx="128"
         id="circle4844"
         style="fill:#0f9d58;fill-opacity:1;stroke:none;stroke-width:10;stroke-linejoin:round;stroke-miterlimit:4;stroke-dasharray:none;stroke-opacity:0.25882353" />
    </clipPath>
    <clipPath
       clipPathUnits="userSpaceOnUse"
       id="clipPath4458">
      <circle
         r="128"
         cy="924.36218"
         cx="128"
         id="circle4460"
         style="fill:#ff3b38;fill-opacity:1;stroke:none;stroke-width:10;stroke-linejoin:round;stroke-miterlimit:4;stroke-dasharray:none;stroke-opacity:0.25882353" />
    </clipPath>
    <clipPath
       id="clipPath4783"
       clipPathUnits="userSpaceOnUse">
      <circle
         r="128"
         cy="924.36218"
         cx="128"
         id="circle4785"
         style="fill:#ff3b38;fill-opacity:1;stroke:none;stroke-width:10;stroke-linejoin:round;stroke-miterlimit:4;stroke-dasharray:none;stroke-opacity:0.25882353" />
    </clipPath>
    <clipPath
       clipPathUnits="userSpaceOnUse"
       id="clipPath4789">
      <circle
         r="128"
         cy="924.36218"
         cx="102.64714"
         id="circle4791"
         style="fill:#80b4ff;fill-opacity:1;stroke:none;stroke-width:10;stroke-linejoin:round;stroke-miterlimit:4;stroke-dasharray:none;stroke-opacity:0.25882353" />
    </clipPath>
    <clipPath
       id="clipPath4721"
       clipPathUnits="userSpaceOnUse">
      <circle
         r="128"
         cy="924.36218"
         cx="128"
         id="circle4723"
         style="fill:#557ae6;fill-opacity:1;stroke:none;stroke-width:10;stroke-linejoin:round;stroke-miterlimit:4;stroke-dasharray:none;stroke-opacity:0.25882353" />
    </clipPath>
    <clipPath
       clipPathUnits="userSpaceOnUse"
       id="clipPath4491">
      <circle
         r="128"
         cy="924.36218"
         cx="128"
         id="circle4493"
         style="fill:#990000;fill-opacity:1;stroke:none;stroke-width:10;stroke-linejoin:round;stroke-miterlimit:4;stroke-dasharray:none;stroke-opacity:0.25882353" />
    </clipPath>
    <clipPath
       id="clipPath1102"
       clipPathUnits="userSpaceOnUse">
      <circle
         r="128"
         cy="924.36218"
         cx="128"
         id="circle1104"
         style="fill:#b40000;fill-opacity:1;stroke:none;stroke-width:10;stroke-linejoin:round;stroke-miterlimit:4;stroke-dasharray:none;stroke-opacity:0.25882353" />
    </clipPath>
    <clipPath
       id="clipPath1102-3"
       clipPathUnits="userSpaceOnUse">
      <circle
         r="128"
         cy="924.36218"
         cx="128"
         id="circle1104-6"
         style="fill:#b40000;fill-opacity:1;stroke:none;stroke-width:10;stroke-linejoin:round;stroke-miterlimit:4;stroke-dasharray:none;stroke-opacity:0.25882353" />
    </clipPath>
    <linearGradient
       x1="37.330002"
       y1="33.945999"
       gradientTransform="matrix(4.2403964,0,0,4.2645103,26.318798,820.34308)"
       x2="40.627998"
       gradientUnits="userSpaceOnUse"
       y2="33.945999"
       id="linearGradient5427">
      <stop
         offset="0"
         style="stop-color:#c00"
         id="stop5423" />
      <stop
         offset="1"
         style="stop-color:#c00;stop-opacity:0"
         id="stop5425" />
    </linearGradient>
    <linearGradient
       x1="37.330002"
       y1="24.135"
       gradientTransform="matrix(4.2403964,0,0,4.2645103,26.318798,820.34308)"
       x2="41.688999"
       gradientUnits="userSpaceOnUse"
       y2="24.135"
       id="linearGradient5419">
      <stop
         offset="0"
         style="stop-color:#204a87"
         id="stop5415" />
      <stop
         offset="1"
         style="stop-color:#204a87;stop-opacity:0"
         id="stop5417" />
    </linearGradient>
    <clipPath
       clipPathUnits="userSpaceOnUse"
       id="clipPath5714">
      <circle
         r="128"
         cy="924.36218"
         cx="128"
         id="circle5716"
         style="fill:#e0e3dd;fill-opacity:1;stroke:none;stroke-width:10;stroke-linejoin:round;stroke-miterlimit:4;stroke-dasharray:none;stroke-opacity:0.25882353" />
    </clipPath>
  </defs>
  <metadata
     id="metadata7">
    <rdf:RDF>
      <cc:Work
         rdf:about="">
        <dc:format>image/svg+xml</dc:format>
        <dc:type
           rdf:resource="http://purl.org/dc/dcmitype/StillImage" />
        <dc:title />
      </cc:Work>
    </rdf:RDF>
  </metadata>
  <g
     transform="translate(0,-796.36216)"
     id="layer1"
     inkscape:groupmode="layer"
     inkscape:label="Layer 1">
    <g
       id="g1111"
       transform="translate(166.55059,82.823525)">
      <path
         d="m 89.449409,841.53864 a 128,128 0 0 1 -64.000001,110.85125 128,128 0 0 1 -127.999998,-1e-5 128,128 0 0 1 -64,-110.85125 l 127.999999,10e-6 z"
         sodipodi:end="3.1415927"
         sodipodi:start="0"
         sodipodi:ry="128"
         sodipodi:rx="128"
         sodipodi:cy="841.53864"
         sodipodi:cx="-38.550591"
         sodipodi:type="arc"
         id="path886"
         style="opacity:1;fill:#e0e3dd;fill-opacity:1;stroke:none;stroke-width:53.47665405;stroke-miterlimit:4;stroke-dasharray:none;stroke-opacity:1" />
      <path
         transform="scale(1,-1)"
         style="opacity:1;fill:#888a85;fill-opacity:1;stroke:none;stroke-width:53.47665405;stroke-miterlimit:4;stroke-dasharray:none;stroke-opacity:1"
         id="path888"
         sodipodi:type="arc"
         sodipodi:cx="-38.550591"
         sodipodi:cy="-841.53864"
         sodipodi:rx="128"
         sodipodi:ry="128"
         sodipodi:start="0"
         sodipodi:end="3.1415927"
         d="m 89.449409,-841.53864 a 128,128 0 0 1 -64.000001,110.85126 128,128 0 0 1 -127.999998,-1e-5 128,128 0 0 1 -64,-110.85125 l 127.999999,0 z" />
    </g>
    <g
       id="g4857">
      <path
         inkscape:connector-curvature="0"
         d="m 54.412816,975.24468 30.736513,-50.02697 25.586551,22.99851 33.75779,-51.86072 34.49139,18.67003"
         style="fill:none;fill-opacity:1;stroke:#204a87;stroke-width:4.25199986;stroke-miterlimit:4;stroke-dasharray:none;stroke-opacity:1"
         id="path5409"
         sodipodi:nodetypes="ccccc" />
      <path
         inkscape:connector-curvature="0"
         d="m 54.412816,975.24468 30.685629,-19.29264 25.107385,14.21788 33.70267,-39.62583 34.19031,13.0366 22.48683,-14.32022"
         style="fill:none;stroke:#cc0000;stroke-width:4.25243616px;stroke-opacity:1"
         id="path5411" />
      <path
         inkscape:connector-curvature="0"
         d="m 93.506783,926.89707 a 8.348016,8.5292344 0 1 1 -16.696032,0 8.348016,8.5292344 0 1 1 16.696032,0 z"
         style="color:#000000;fill:none;stroke-width:5.19270039"
         id="path5429" />
      <path
         inkscape:connector-curvature="0"
         d="m 118.94915,948.21962 a 8.3480154,8.5292338 0 1 1 -16.69603,0 8.3480154,8.5292338 0 1 1 16.69603,0 z"
         style="color:#000000;fill:none;stroke-width:5.19270039"
         id="path5431" />
      <path
         inkscape:connector-curvature="0"
         d="m 153.13904,897.04764 a 8.3480154,8.5292338 0 1 1 -16.69602,0 8.3480154,8.5292338 0 1 1 16.69602,0 z"
         style="color:#000000;fill:none;stroke-width:5.19270039"
         id="path5433" />
      <path
         inkscape:connector-curvature="0"
         d="m 186.79506,914.10568 a 8.3480175,8.529236 0 1 1 -16.69601,0 8.3480175,8.529236 0 1 1 16.69601,0 z"
         style="color:#000000;fill:#204a87;stroke-width:5.19270039"
         id="path5435" />
      <path
         inkscape:connector-curvature="0"
         d="m 93.506783,956.74882 a 8.348016,8.5292344 0 1 1 -16.696032,0 8.348016,8.5292344 0 1 1 16.696032,0 z"
         style="color:#000000;fill:none;stroke-width:5.19270039"
         id="path5437" />
      <path
         inkscape:connector-curvature="0"
         d="m 118.94915,969.54217 a 8.3480154,8.5292338 0 1 1 -16.69603,0 8.3480154,8.5292338 0 1 1 16.69603,0 z"
         style="color:#000000;fill:none;stroke-width:5.19270039"
         id="path5439" />
      <path
         inkscape:connector-curvature="0"
         d="m 152.8719,931.16158 a 8.3480175,8.529236 0 1 1 -16.69603,0 8.3480175,8.529236 0 1 1 16.69603,0 z"
         style="color:#000000;fill:none;stroke-width:5.19270039"
         id="path5441" />
      <path
         inkscape:connector-curvature="0"
         d="m 186.79506,943.95511 a 8.3480175,8.529236 0 1 1 -16.69601,0 8.3480175,8.529236 0 1 1 16.69601,0 z"
         style="color:#000000;fill:none;stroke-width:5.19270039"
         id="path5443" />
      <path
         id="path4622"
         style="color:#000000;fill:none;stroke-width:5.19270039"
         d="m 208.17859,928.89629 a 8.3480175,8.529236 0 1 1 -16.69601,0 8.3480175,8.529236 0 1 1 16.69601,0 z"
         inkscape:connector-curvature="0" />
      <path
         inkscape:connector-curvature="0"
         d="m 64.517419,972.86806 a 8.3480175,8.529236 0 1 1 -16.69601,0 8.3480175,8.529236 0 1 1 16.69601,0 z"
         style="color:#000000;fill:none;stroke-width:5.19270039"
         id="path4624" />
      <path
         style="fill:none;stroke:#204a87;stroke-width:4.25199986;stroke-linecap:butt;stroke-linejoin:miter;stroke-miterlimit:4;stroke-dasharray:none;stroke-opacity:1"
         d="m 178.98506,915.02553 17.98435,-40.30044"
         id="path4680"
         inkscape:connector-curvature="0" />
      <path
         id="path4682"
         style="color:#000000;fill:none;stroke-width:5.19270039"
         d="m 204.86565,875.85626 a 8.3480175,8.529236 0 1 1 -16.69601,0 8.3480175,8.529236 0 1 1 16.69601,0 z"
         inkscape:connector-curvature="0" />
      <path
         inkscape:connector-curvature="0"
         d="m 94.37737,925.99347 a 8.348016,8.5292344 0 1 1 -16.69603,0 8.348016,8.5292344 0 1 1 16.69603,0 z"
         style="color:#000000;fill:#204a87;stroke-width:5.19270039"
         id="path5429-3" />
      <path
         inkscape:connector-curvature="0"
         d="m 119.81974,947.31602 a 8.3480154,8.5292338 0 1 1 -16.69603,0 8.3480154,8.5292338 0 1 1 16.69603,0 z"
         style="color:#000000;fill:#204a87;stroke-width:5.19270039"
         id="path5431-6" />
      <path
         inkscape:connector-curvature="0"
         d="m 154.00963,896.14404 a 8.3480154,8.5292338 0 1 1 -16.69602,0 8.3480154,8.5292338 0 1 1 16.69602,0 z"
         style="color:#000000;fill:#204a87;stroke-width:5.19270039"
         id="path5433-7" />
      <path
         inkscape:connector-curvature="0"
         d="m 94.37737,955.84522 a 8.348016,8.5292344 0 1 1 -16.69603,0 8.348016,8.5292344 0 1 1 16.69603,0 z"
         style="color:#000000;fill:#cc0000;stroke-width:5.19270039"
         id="path5437-5" />
      <path
         inkscape:connector-curvature="0"
         d="m 119.81974,968.63857 a 8.3480154,8.5292338 0 1 1 -16.69603,0 8.3480154,8.5292338 0 1 1 16.69603,0 z"
         style="color:#000000;fill:#cc0000;stroke-width:5.19270039"
         id="path5439-3" />
      <path
         inkscape:connector-curvature="0"
         d="m 153.74249,930.25798 a 8.3480175,8.529236 0 1 1 -16.69603,0 8.3480175,8.529236 0 1 1 16.69603,0 z"
         style="color:#000000;fill:#cc0000;stroke-width:5.19270039"
         id="path5441-5" />
      <path
         inkscape:connector-curvature="0"
         d="m 187.66565,943.05151 a 8.3480175,8.529236 0 1 1 -16.69601,0 8.3480175,8.529236 0 1 1 16.69601,0 z"
         style="color:#000000;fill:#cc0000;stroke-width:5.19270039"
         id="path5443-6" />
      <path
         id="path4622-2"
         style="color:#000000;fill:#cc0000;stroke-width:5.19270039"
         d="m 209.04918,927.99269 a 8.3480175,8.529236 0 1 1 -16.69601,0 8.3480175,8.529236 0 1 1 16.69601,0 z"
         inkscape:connector-curvature="0" />
      <path
         inkscape:connector-curvature="0"
         d="m 65.38801,971.96446 a 8.3480175,8.529236 0 1 1 -16.69601,0 8.3480175,8.529236 0 1 1 16.69601,0 z"
         style="color:#000000;fill:#cc0000;stroke-width:5.19270039"
         id="path4624-9" />
      <path
         id="path4682-2"
         style="color:#000000;fill:#204a87;stroke-width:5.19270039"
         d="m 204.86565,875.85626 a 8.3480175,8.529236 0 1 1 -16.69601,0 8.3480175,8.529236 0 1 1 16.69601,0 z"
         inkscape:connector-curvature="0" />
    </g>
  </g>
</svg>
