<?xml version="1.0" encoding="UTF-8" standalone="no"?>
<svg
   xmlns:dc="http://purl.org/dc/elements/1.1/"
   xmlns:cc="http://creativecommons.org/ns#"
   xmlns:rdf="http://www.w3.org/1999/02/22-rdf-syntax-ns#"
   xmlns:svg="http://www.w3.org/2000/svg"
   xmlns="http://www.w3.org/2000/svg"
   xmlns:sodipodi="http://sodipodi.sourceforge.net/DTD/sodipodi-0.dtd"
   xmlns:inkscape="http://www.inkscape.org/namespaces/inkscape"
   sodipodi:docname="org.gnome.Tour.svg"
   inkscape:version="1.0.2 (e86c870879, 2021-01-15)"
   version="1.1"
   id="svg2"
   viewBox="0 0 256 256"
   height="256"
   width="256">
  <sodipodi:namedview
     inkscape:window-maximized="1"
     inkscape:window-y="0"
     inkscape:window-x="0"
     inkscape:window-height="1048"
     inkscape:window-width="1920"
     units="px"
     showgrid="true"
     inkscape:current-layer="layer1"
     inkscape:document-units="px"
     inkscape:cy="128.00002"
     inkscape:cx="128"
     inkscape:zoom="3.328125"
     inkscape:pageshadow="2"
     inkscape:pageopacity="0.0"
     borderopacity="1.0"
     bordercolor="#666666"
     pagecolor="#ffffff"
     id="base"
     inkscape:document-rotation="0">
    <inkscape:grid
       spacingy="5"
       spacingx="5"
       id="grid4168"
       type="xygrid" />
  </sodipodi:namedview>
  <defs
     id="defs4">
    <clipPath
       id="clipPath5002"
       clipPathUnits="userSpaceOnUse">
      <g
         id="g5004">
        <path
           style="fill:#0f9d58;fill-opacity:1;stroke:none;stroke-width:4.85768509;stroke-linejoin:round;stroke-miterlimit:4;stroke-dasharray:none;stroke-opacity:1"
           d="M 88.118406,249.43519 C 46.103287,235.29134 14.771284,201.68742 4.1335861,159.36053 1.3377997,148.23623 0.92261224,144.16281 0.92582381,127.88908 0.92787958,117.47222 1.134384,112.01362 1.6577819,108.54099 4.4653598,89.913336 12.17654,70.638106 23.042737,55.086148 c 3.958678,-5.665755 8.344812,-10.93092 9.101533,-10.925587 0.32809,0.0023 10.488643,18.309713 22.579009,40.683112 12.090365,22.373397 22.374546,41.334697 22.853732,42.136217 0.479186,0.80151 0.924733,2.44098 0.990103,3.64326 0.343424,6.31639 2.524175,14.20976 5.6424,20.42304 2.954444,5.88693 5.065381,8.73258 10.434696,14.06652 6.71418,6.66995 12.88853,10.28643 21.73204,12.72904 3.16587,0.87442 5.10478,1.05037 11.57517,1.05037 8.82596,0 12.60219,-0.76201 19.26429,-3.88733 2.04584,-0.95974 3.93661,-1.66536 4.20172,-1.56805 0.2651,0.0973 -11.0555,17.66459 -25.1569,39.0384 l -25.6389,38.86148 -3.094121,0.11221 c -2.554618,0.0927 -4.195204,-0.25845 -9.409103,-2.01364 z"
           id="path5006"
           inkscape:connector-curvature="0"
           transform="translate(0,796.36216)" />
        <path
           style="fill:#f4b400;fill-opacity:1;stroke:none;stroke-width:4.85768509;stroke-linejoin:round;stroke-miterlimit:4;stroke-dasharray:none;stroke-opacity:1"
           d="m 112.35984,1051.5167 c -10.0014,-1.4495 -12.15632,-1.8201 -12.531784,-2.1556 -0.248854,-0.2223 1.738304,-3.7475 4.550294,-8.0722 7.16635,-11.0213 49.77231,-74.64801 50.25856,-75.05489 3.57509,-2.99158 8.63523,-8.0414 10.57512,-10.55356 3.36154,-4.35318 7.55784,-12.9141 9.06523,-18.494 6.19314,-22.92535 -2.59253,-47.15185 -21.69967,-59.83688 l -2.96081,-1.96565 17.02469,0.29584 c 9.36358,0.1627 31.17032,0.43384 48.45941,0.60252 l 31.43471,0.30668 1.54584,4.18869 c 2.24597,6.08579 4.67816,15.0947 5.93451,21.9816 1.52517,8.36049 1.92536,28.85896 0.73851,37.82758 -3.0805,23.27845 -12.81326,45.72018 -27.80202,64.10577 -20.47622,25.1166 -51.4599,42.1974 -84.14612,46.3885 -5.31244,0.6812 -26.64601,0.9864 -30.44647,0.4356 z"
           id="path5008"
           inkscape:connector-curvature="0" />
        <path
           style="fill:#db4437;fill-opacity:1;stroke:none;stroke-width:10;stroke-linejoin:round;stroke-miterlimit:4;stroke-dasharray:none;stroke-opacity:1"
           d="M 67.989788,108.87302 C 41.284246,59.575543 33.290284,45.149038 32.233625,44.344765 31.651257,43.901497 32.811213,42.549931 38.695603,36.815353 53.43581,22.450419 68.809334,13.040746 87.839196,6.7360352 101.68742,2.1480329 112.58238,0.43719165 127.95142,0.43719165 c 21.3099,0 37.80488,3.80960275 56.83492,13.12633035 25.29351,12.383198 46.19421,33.578863 58.51993,59.345832 1.61138,3.368591 2.92978,6.372442 2.92978,6.675231 0,0.560033 -10.54865,0.49527 -71.16508,-0.436914 l -24.28843,-0.373518 -3.93063,-1.764495 c -6.75732,-3.033425 -10.64587,-3.839529 -18.6576,-3.867747 -5.0296,-0.01773 -7.97946,0.207636 -10.31642,0.788106 -14.50826,3.603659 -26.283291,12.94777 -33.291614,26.418653 -3.58502,6.89086 -5.24713,13.08166 -6.331628,23.58317 l -0.33738,3.26696 -9.92748,-18.32578 z"
           id="path5010"
           inkscape:connector-curvature="0"
           transform="translate(0,796.36216)" />
      </g>
    </clipPath>
    <clipPath
       clipPathUnits="userSpaceOnUse"
       id="clipPath4271">
      <circle
         style="fill:#292929;fill-opacity:0.26020412;stroke:none;stroke-width:10;stroke-linejoin:round;stroke-miterlimit:4;stroke-dasharray:none;stroke-opacity:0.25882353"
         id="circle4273"
         cx="128"
         cy="128.00002"
         r="128" />
    </clipPath>
    <clipPath
       id="clipPath4363"
       clipPathUnits="userSpaceOnUse">
      <circle
         style="fill:#4285f4;fill-opacity:1;stroke:none;stroke-width:10;stroke-linejoin:round;stroke-miterlimit:4;stroke-dasharray:none;stroke-opacity:0.25882353"
         id="circle4365"
         cx="128"
         cy="924.36218"
         r="128" />
    </clipPath>
    <clipPath
       clipPathUnits="userSpaceOnUse"
       id="clipPath4452">
      <circle
         style="fill:#4285f4;fill-opacity:1;stroke:none;stroke-width:10;stroke-linejoin:round;stroke-miterlimit:4;stroke-dasharray:none;stroke-opacity:0.25882353"
         id="circle4454"
         cx="128"
         cy="924.36218"
         r="128" />
    </clipPath>
    <clipPath
       id="clipPath5177"
       clipPathUnits="userSpaceOnUse">
      <circle
         style="fill:#4285f4;fill-opacity:1;stroke:none;stroke-width:10;stroke-linejoin:round;stroke-miterlimit:4;stroke-dasharray:none;stroke-opacity:0.25882353"
         id="circle5179"
         cx="128"
         cy="924.36218"
         r="128" />
    </clipPath>
    <clipPath
       clipPathUnits="userSpaceOnUse"
       id="clipPath4342">
      <circle
         style="fill:#4285f4;fill-opacity:1;stroke:none;stroke-width:10;stroke-linejoin:round;stroke-miterlimit:4;stroke-dasharray:none;stroke-opacity:0.25882353"
         id="circle4344"
         cx="128"
         cy="933.48718"
         r="128" />
    </clipPath>
    <clipPath
       id="clipPath4681"
       clipPathUnits="userSpaceOnUse">
      <circle
         style="fill:#9d5fad;fill-opacity:1;stroke:none;stroke-width:10;stroke-linejoin:round;stroke-miterlimit:4;stroke-dasharray:none;stroke-opacity:0.25882353"
         id="circle4683"
         cx="127.00293"
         cy="930.43964"
         r="128" />
    </clipPath>
    <clipPath
       clipPathUnits="userSpaceOnUse"
       id="clipPath4235">
      <circle
         style="fill:#0f9d58;fill-opacity:1;stroke:none;stroke-width:10;stroke-linejoin:round;stroke-miterlimit:4;stroke-dasharray:none;stroke-opacity:0.25882353"
         id="circle4237"
         cx="128"
         cy="924.36218"
         r="128" />
    </clipPath>
    <clipPath
       id="clipPath4771"
       clipPathUnits="userSpaceOnUse">
      <circle
         style="fill:#0f9d58;fill-opacity:1;stroke:none;stroke-width:10;stroke-linejoin:round;stroke-miterlimit:4;stroke-dasharray:none;stroke-opacity:0.25882353"
         id="circle4773"
         cx="128"
         cy="924.36218"
         r="128" />
    </clipPath>
    <clipPath
       clipPathUnits="userSpaceOnUse"
       id="clipPath4842">
      <circle
         style="fill:#0f9d58;fill-opacity:1;stroke:none;stroke-width:10;stroke-linejoin:round;stroke-miterlimit:4;stroke-dasharray:none;stroke-opacity:0.25882353"
         id="circle4844"
         cx="128"
         cy="924.36218"
         r="128" />
    </clipPath>
    <clipPath
       id="clipPath4458"
       clipPathUnits="userSpaceOnUse">
      <circle
         style="fill:#ff3b38;fill-opacity:1;stroke:none;stroke-width:10;stroke-linejoin:round;stroke-miterlimit:4;stroke-dasharray:none;stroke-opacity:0.25882353"
         id="circle4460"
         cx="128"
         cy="924.36218"
         r="128" />
    </clipPath>
    <clipPath
       clipPathUnits="userSpaceOnUse"
       id="clipPath4783">
      <circle
         style="fill:#ff3b38;fill-opacity:1;stroke:none;stroke-width:10;stroke-linejoin:round;stroke-miterlimit:4;stroke-dasharray:none;stroke-opacity:0.25882353"
         id="circle4785"
         cx="128"
         cy="924.36218"
         r="128" />
    </clipPath>
    <clipPath
       id="clipPath4789"
       clipPathUnits="userSpaceOnUse">
      <circle
         style="fill:#80b4ff;fill-opacity:1;stroke:none;stroke-width:10;stroke-linejoin:round;stroke-miterlimit:4;stroke-dasharray:none;stroke-opacity:0.25882353"
         id="circle4791"
         cx="102.64714"
         cy="924.36218"
         r="128" />
    </clipPath>
    <clipPath
       clipPathUnits="userSpaceOnUse"
       id="clipPath4721">
      <circle
         style="fill:#557ae6;fill-opacity:1;stroke:none;stroke-width:10;stroke-linejoin:round;stroke-miterlimit:4;stroke-dasharray:none;stroke-opacity:0.25882353"
         id="circle4723"
         cx="128"
         cy="924.36218"
         r="128" />
    </clipPath>
    <clipPath
       id="clipPath4491"
       clipPathUnits="userSpaceOnUse">
      <circle
         style="fill:#990000;fill-opacity:1;stroke:none;stroke-width:10;stroke-linejoin:round;stroke-miterlimit:4;stroke-dasharray:none;stroke-opacity:0.25882353"
         id="circle4493"
         cx="128"
         cy="924.36218"
         r="128" />
    </clipPath>
    <clipPath
       clipPathUnits="userSpaceOnUse"
       id="clipPath1102">
      <circle
         style="fill:#b40000;fill-opacity:1;stroke:none;stroke-width:10;stroke-linejoin:round;stroke-miterlimit:4;stroke-dasharray:none;stroke-opacity:0.25882353"
         id="circle1104"
         cx="128"
         cy="924.36218"
         r="128" />
    </clipPath>
    <clipPath
       clipPathUnits="userSpaceOnUse"
       id="clipPath1102-3">
      <circle
         style="fill:#b40000;fill-opacity:1;stroke:none;stroke-width:10;stroke-linejoin:round;stroke-miterlimit:4;stroke-dasharray:none;stroke-opacity:0.25882353"
         id="circle1104-6"
         cx="128"
         cy="924.36218"
         r="128" />
    </clipPath>
    <radialGradient
       id="d"
       gradientUnits="userSpaceOnUse"
       cx="64"
       cy="203.70599"
       fx="64"
       fy="203.70599"
       r="48"
       gradientTransform="matrix(1,0,0,0.98499,63.952697,690.71891)">
      <stop
         offset="0"
         stop-color="#ed686f"
         id="stop2" />
      <stop
         offset=".833"
         stop-color="#a51d2d"
         id="stop4" />
      <stop
         offset="1"
         stop-color="#8a1f24"
         id="stop6" />
    </radialGradient>
    <radialGradient
       id="e"
       gradientUnits="userSpaceOnUse"
       cx="64"
       cy="209.91299"
       fx="64"
       fy="209.91299"
       r="41.212002"
       gradientTransform="matrix(1.55293,0,0,1.31029,28.564697,616.31991)">
      <stop
         offset="0"
         stop-color="#fff"
         id="stop9" />
      <stop
         offset=".519"
         stop-color="#fff"
         id="stop11" />
      <stop
         offset=".734"
         stop-color="#cfcfcf"
         id="stop13" />
      <stop
         offset="1"
         stop-color="#cecece"
         id="stop15" />
    </radialGradient>
    <clipPath
       id="b">
      <path
         d="M 0,0 H 192 V 152 H 0 Z"
         id="path32" />
    </clipPath>
    <mask
       id="g">
      <g
         filter="url(#a)"
         id="g40"
         transform="translate(0,796.36216)">
        <path
           fill-opacity="0.1"
           d="M 0,0 H 128 V 128 H 0 Z"
           id="path38" />
      </g>
    </mask>
    <filter
       id="a"
       filterUnits="objectBoundingBox"
       x="0"
       y="0"
       width="1"
       height="1">
      <feColorMatrix
         in="SourceGraphic"
         values="0 0 0 0 1 0 0 0 0 1 0 0 0 0 1 0 0 0 1 0"
         id="feColorMatrix54" />
    </filter>
    <clipPath
       id="clipPath949">
      <path
         d="M 0,0 H 192 V 152 H 0 Z"
         id="path947" />
    </clipPath>
    <linearGradient
       id="h"
       gradientUnits="userSpaceOnUse"
       x1="46"
       y1="104"
       x2="96.376999"
       y2="104"
       gradientTransform="translate(55.952697,841.36691)">
      <stop
         offset="0"
         stop-color="#9a9996"
         id="stop18" />
      <stop
         offset=".278"
         stop-color="#c0bfbc"
         id="stop20" />
      <stop
         offset=".774"
         stop-color="#9f9e9b"
         id="stop22" />
      <stop
         offset="1"
         stop-color="#77767b"
         id="stop24" />
    </linearGradient>
    <clipPath
       id="c">
      <path
         d="M 0,0 H 192 V 152 H 0 Z"
         id="path35" />
    </clipPath>
    <mask
       id="j">
      <g
         filter="url(#a)"
         id="g45"
         transform="translate(0,796.36216)">
        <path
           fill-opacity="0.3"
           d="M 0,0 H 128 V 128 H 0 Z"
           id="path43" />
      </g>
    </mask>
    <filter
       id="filter963"
       filterUnits="objectBoundingBox"
       x="0"
       y="0"
       width="1"
       height="1">
      <feColorMatrix
         in="SourceGraphic"
         values="0 0 0 0 1 0 0 0 0 1 0 0 0 0 1 0 0 0 1 0"
         id="feColorMatrix961" />
    </filter>
    <clipPath
       id="clipPath967">
      <path
         d="M 0,0 H 192 V 152 H 0 Z"
         id="path965" />
    </clipPath>
    <linearGradient
       id="k"
       gradientUnits="userSpaceOnUse"
       x1="54"
       y1="284"
       x2="66"
       y2="284"
       gradientTransform="translate(63.952697,687.36691)">
      <stop
         offset="0"
         stop-color="#c64600"
         id="stop27" />
      <stop
         offset="1"
         stop-color="#ff7800"
         id="stop29" />
    </linearGradient>
    <clipPath
       clipPathUnits="userSpaceOnUse"
       id="clipPath1277">
      <circle
         r="90.348061"
         cy="923.36218"
         cx="128"
         id="circle1279"
         style="fill:#e35d66;fill-opacity:1;stroke:none;stroke-width:7.05844;stroke-linejoin:round;stroke-miterlimit:4;stroke-dasharray:none;stroke-opacity:0.258824" />
    </clipPath>
  </defs>
  <metadata
     id="metadata7">
    <rdf:RDF>
      <cc:Work
         rdf:about="">
        <dc:format>image/svg+xml</dc:format>
        <dc:type
           rdf:resource="http://purl.org/dc/dcmitype/StillImage" />
        <dc:title />
      </cc:Work>
    </rdf:RDF>
  </metadata>
  <g
     inkscape:label="Layer 1"
     inkscape:groupmode="layer"
     id="layer1"
     transform="translate(0,-796.36216)">
    <path
       id="path949"
       style="fill:#8a1f24;fill-opacity:1;stroke:none;stroke-width:10;stroke-linejoin:round;stroke-miterlimit:4;stroke-dasharray:none;stroke-opacity:0.258824"
       sodipodi:type="arc"
       sodipodi:cx="128"
       sodipodi:cy="-924.36218"
       sodipodi:rx="128"
       sodipodi:ry="128"
       sodipodi:start="0"
       sodipodi:end="3.1415927"
       sodipodi:arc-type="slice"
       d="m 256,-924.36218 a 128,128 0 0 1 -64,110.85125 128,128 0 0 1 -128.000003,0 A 128,128 0 0 1 0,-924.36218 h 128 z"
       transform="scale(1,-1)" />
    <path
       id="path4152"
       style="fill:#bb3341;fill-opacity:1;stroke:none;stroke-width:10;stroke-linejoin:round;stroke-miterlimit:4;stroke-dasharray:none;stroke-opacity:0.258824"
       sodipodi:type="arc"
       sodipodi:cx="128"
       sodipodi:cy="924.36218"
       sodipodi:rx="128"
       sodipodi:ry="128"
       sodipodi:start="0"
       sodipodi:end="3.1415927"
       sodipodi:arc-type="slice"
       d="m 256,924.36218 a 128,128 0 0 1 -64,110.85122 128,128 0 0 1 -128.000003,0 A 128,128 0 0 1 0,924.36218 h 128 z" />
    <path
       d="m 146.35065,958.37072 -7.08372,31.16835"
       fill="none"
       stroke-width="2.83349"
       stroke="#77767b"
       id="path59" />
    <path
       d="m 127.93299,839.36429 c -17.50387,0.12751 -35.247158,5.77181 -48.418624,17.30552 -6.59069,5.76047 -11.970064,12.93911 -15.439668,20.97488 -3.465353,8.04002 -4.992603,16.94 -4.14539,25.65014 0.984636,10.14388 5.091775,19.75081 10.210468,28.56154 a 128.50286,128.50286 0 0 0 20.398273,26.4931 l 9.619691,17.02217 h 53.77957 l 12.24774,-18.41767 a 161.74532,161.74532 0 0 0 18.59476,-25.00268 c 5.33545,-8.84473 9.88461,-18.40774 11.15685,-28.65646 1.08522,-8.73848 -0.29327,-17.73763 -3.70195,-25.86123 -3.40443,-8.12361 -8.81073,-15.36883 -15.45242,-21.15198 -13.28197,-11.57196 -31.23352,-17.04342 -48.8493,-16.91733 z m 0,0"
       fill="url(#d)"
       id="path61"
       style="fill:#ffffff;fill-opacity:1;stroke-width:1.41674" />
    <path
       d="m 129.72092,839.38696 c -24.39491,3.67928 -47.506242,11.75897 -57.871135,39.99466 -9.356172,34.99922 5.18528,51.87688 23.625614,78.9891 l 8.289361,17.01225 h 11.22344 c -6.97746,-20.55978 -24.206471,-56.19937 -24.206471,-74.10275 0,-52.50167 38.651591,-61.7105 38.939191,-61.89326 z m 0.006,0 c 0.0992,0.26493 12.0579,24.42182 12.05224,61.89326 0,19.77348 -2.76124,53.90283 -5.45021,74.10275 h 14.27227 c 34.36169,-61.64533 46.65902,-117.57268 -20.8743,-135.99601 z m 0,0"
       fill="url(#e)"
       id="path63"
       style="fill:#a9a9a9;fill-opacity:1;stroke-width:1.41674" />
    <path
       d="m 110.93207,955.53723 7.08371,32.58509"
       fill="none"
       stroke-width="2.83349"
       stroke="#c0bfbc"
       id="path67" />
    <path
       d="m 90.328371,956.09684 17.149679,32.02548"
       fill="none"
       stroke-width="2.83349"
       stroke="#9a9996"
       id="path71" />
    <path
       d="m 88.264172,952.70374 v 2.83349 c 0,0 0,2.83349 2.650731,2.83349 h 74.037587 c 2.64931,0 2.64931,-2.83349 2.64931,-2.83349 v -2.83349 z m 0,0"
       fill="url(#h)"
       id="path73"
       style="fill:#9a9996;fill-opacity:1;stroke-width:1.41674" />
    <path
       d="m 165.47668,956.95397 -17.09017,31.16835"
       fill="none"
       stroke-width="2.83349"
       stroke="#77767b"
       id="path77" />
    <path
       d="m 150.60088,986.70558 v 16.03182 a 6.6105238,6.6105238 0 0 1 -6.62469,6.6247 h -32.0864 a 6.6105238,6.6105238 0 0 1 -6.6247,-6.6247 v -16.03182 z m 0,0"
       fill="url(#k)"
       id="path79"
       style="fill:#ffffff;fill-opacity:1;stroke-width:1.41674" />
  </g>
</svg>
