<?xml version="1.0" encoding="UTF-8" standalone="no"?>
<svg
   xmlns:dc="http://purl.org/dc/elements/1.1/"
   xmlns:cc="http://creativecommons.org/ns#"
   xmlns:rdf="http://www.w3.org/1999/02/22-rdf-syntax-ns#"
   xmlns:svg="http://www.w3.org/2000/svg"
   xmlns="http://www.w3.org/2000/svg"
   xmlns:sodipodi="http://sodipodi.sourceforge.net/DTD/sodipodi-0.dtd"
   xmlns:inkscape="http://www.inkscape.org/namespaces/inkscape"
   sodipodi:docname="org.gnome.Extensions.svg"
   inkscape:version="1.0.2 (e86c870879, 2021-01-15)"
   version="1.1"
   id="svg2"
   viewBox="0 0 256 256"
   height="256"
   width="256">
  <sodipodi:namedview
     inkscape:window-maximized="1"
     inkscape:window-y="0"
     inkscape:window-x="0"
     inkscape:window-height="1048"
     inkscape:window-width="1920"
     units="px"
     showgrid="true"
     inkscape:current-layer="layer1"
     inkscape:document-units="px"
     inkscape:cy="128.00002"
     inkscape:cx="66.823948"
     inkscape:zoom="3.3170161"
     inkscape:pageshadow="2"
     inkscape:pageopacity="0.0"
     borderopacity="1.0"
     bordercolor="#666666"
     pagecolor="#ffffff"
     id="base"
     inkscape:document-rotation="0">
    <inkscape:grid
       spacingy="5"
       spacingx="5"
       id="grid4168"
       type="xygrid" />
  </sodipodi:namedview>
  <defs
     id="defs4">
    <clipPath
       id="clipPath5002"
       clipPathUnits="userSpaceOnUse">
      <g
         id="g5004">
        <path
           style="fill:#0f9d58;fill-opacity:1;stroke:none;stroke-width:4.85768509;stroke-linejoin:round;stroke-miterlimit:4;stroke-dasharray:none;stroke-opacity:1"
           d="M 88.118406,249.43519 C 46.103287,235.29134 14.771284,201.68742 4.1335861,159.36053 1.3377997,148.23623 0.92261224,144.16281 0.92582381,127.88908 0.92787958,117.47222 1.134384,112.01362 1.6577819,108.54099 4.4653598,89.913336 12.17654,70.638106 23.042737,55.086148 c 3.958678,-5.665755 8.344812,-10.93092 9.101533,-10.925587 0.32809,0.0023 10.488643,18.309713 22.579009,40.683112 12.090365,22.373397 22.374546,41.334697 22.853732,42.136217 0.479186,0.80151 0.924733,2.44098 0.990103,3.64326 0.343424,6.31639 2.524175,14.20976 5.6424,20.42304 2.954444,5.88693 5.065381,8.73258 10.434696,14.06652 6.71418,6.66995 12.88853,10.28643 21.73204,12.72904 3.16587,0.87442 5.10478,1.05037 11.57517,1.05037 8.82596,0 12.60219,-0.76201 19.26429,-3.88733 2.04584,-0.95974 3.93661,-1.66536 4.20172,-1.56805 0.2651,0.0973 -11.0555,17.66459 -25.1569,39.0384 l -25.6389,38.86148 -3.094121,0.11221 c -2.554618,0.0927 -4.195204,-0.25845 -9.409103,-2.01364 z"
           id="path5006"
           inkscape:connector-curvature="0"
           transform="translate(0,796.36216)" />
        <path
           style="fill:#f4b400;fill-opacity:1;stroke:none;stroke-width:4.85768509;stroke-linejoin:round;stroke-miterlimit:4;stroke-dasharray:none;stroke-opacity:1"
           d="m 112.35984,1051.5167 c -10.0014,-1.4495 -12.15632,-1.8201 -12.531784,-2.1556 -0.248854,-0.2223 1.738304,-3.7475 4.550294,-8.0722 7.16635,-11.0213 49.77231,-74.64801 50.25856,-75.05489 3.57509,-2.99158 8.63523,-8.0414 10.57512,-10.55356 3.36154,-4.35318 7.55784,-12.9141 9.06523,-18.494 6.19314,-22.92535 -2.59253,-47.15185 -21.69967,-59.83688 l -2.96081,-1.96565 17.02469,0.29584 c 9.36358,0.1627 31.17032,0.43384 48.45941,0.60252 l 31.43471,0.30668 1.54584,4.18869 c 2.24597,6.08579 4.67816,15.0947 5.93451,21.9816 1.52517,8.36049 1.92536,28.85896 0.73851,37.82758 -3.0805,23.27845 -12.81326,45.72018 -27.80202,64.10577 -20.47622,25.1166 -51.4599,42.1974 -84.14612,46.3885 -5.31244,0.6812 -26.64601,0.9864 -30.44647,0.4356 z"
           id="path5008"
           inkscape:connector-curvature="0" />
        <path
           style="fill:#db4437;fill-opacity:1;stroke:none;stroke-width:10;stroke-linejoin:round;stroke-miterlimit:4;stroke-dasharray:none;stroke-opacity:1"
           d="M 67.989788,108.87302 C 41.284246,59.575543 33.290284,45.149038 32.233625,44.344765 31.651257,43.901497 32.811213,42.549931 38.695603,36.815353 53.43581,22.450419 68.809334,13.040746 87.839196,6.7360352 101.68742,2.1480329 112.58238,0.43719165 127.95142,0.43719165 c 21.3099,0 37.80488,3.80960275 56.83492,13.12633035 25.29351,12.383198 46.19421,33.578863 58.51993,59.345832 1.61138,3.368591 2.92978,6.372442 2.92978,6.675231 0,0.560033 -10.54865,0.49527 -71.16508,-0.436914 l -24.28843,-0.373518 -3.93063,-1.764495 c -6.75732,-3.033425 -10.64587,-3.839529 -18.6576,-3.867747 -5.0296,-0.01773 -7.97946,0.207636 -10.31642,0.788106 -14.50826,3.603659 -26.283291,12.94777 -33.291614,26.418653 -3.58502,6.89086 -5.24713,13.08166 -6.331628,23.58317 l -0.33738,3.26696 -9.92748,-18.32578 z"
           id="path5010"
           inkscape:connector-curvature="0"
           transform="translate(0,796.36216)" />
      </g>
    </clipPath>
    <clipPath
       clipPathUnits="userSpaceOnUse"
       id="clipPath4271">
      <circle
         style="fill:#292929;fill-opacity:0.26020412;stroke:none;stroke-width:10;stroke-linejoin:round;stroke-miterlimit:4;stroke-dasharray:none;stroke-opacity:0.25882353"
         id="circle4273"
         cx="128"
         cy="128.00002"
         r="128" />
    </clipPath>
    <clipPath
       id="clipPath4363"
       clipPathUnits="userSpaceOnUse">
      <circle
         style="fill:#4285f4;fill-opacity:1;stroke:none;stroke-width:10;stroke-linejoin:round;stroke-miterlimit:4;stroke-dasharray:none;stroke-opacity:0.25882353"
         id="circle4365"
         cx="128"
         cy="924.36218"
         r="128" />
    </clipPath>
    <clipPath
       clipPathUnits="userSpaceOnUse"
       id="clipPath4452">
      <circle
         style="fill:#4285f4;fill-opacity:1;stroke:none;stroke-width:10;stroke-linejoin:round;stroke-miterlimit:4;stroke-dasharray:none;stroke-opacity:0.25882353"
         id="circle4454"
         cx="128"
         cy="924.36218"
         r="128" />
    </clipPath>
    <clipPath
       id="clipPath5177"
       clipPathUnits="userSpaceOnUse">
      <circle
         style="fill:#4285f4;fill-opacity:1;stroke:none;stroke-width:10;stroke-linejoin:round;stroke-miterlimit:4;stroke-dasharray:none;stroke-opacity:0.25882353"
         id="circle5179"
         cx="128"
         cy="924.36218"
         r="128" />
    </clipPath>
    <clipPath
       clipPathUnits="userSpaceOnUse"
       id="clipPath4342">
      <circle
         style="fill:#4285f4;fill-opacity:1;stroke:none;stroke-width:10;stroke-linejoin:round;stroke-miterlimit:4;stroke-dasharray:none;stroke-opacity:0.25882353"
         id="circle4344"
         cx="128"
         cy="933.48718"
         r="128" />
    </clipPath>
    <clipPath
       id="clipPath4681"
       clipPathUnits="userSpaceOnUse">
      <circle
         style="fill:#9d5fad;fill-opacity:1;stroke:none;stroke-width:10;stroke-linejoin:round;stroke-miterlimit:4;stroke-dasharray:none;stroke-opacity:0.25882353"
         id="circle4683"
         cx="127.00293"
         cy="930.43964"
         r="128" />
    </clipPath>
    <clipPath
       clipPathUnits="userSpaceOnUse"
       id="clipPath4235">
      <circle
         style="fill:#0f9d58;fill-opacity:1;stroke:none;stroke-width:10;stroke-linejoin:round;stroke-miterlimit:4;stroke-dasharray:none;stroke-opacity:0.25882353"
         id="circle4237"
         cx="128"
         cy="924.36218"
         r="128" />
    </clipPath>
    <clipPath
       id="clipPath4771"
       clipPathUnits="userSpaceOnUse">
      <circle
         style="fill:#0f9d58;fill-opacity:1;stroke:none;stroke-width:10;stroke-linejoin:round;stroke-miterlimit:4;stroke-dasharray:none;stroke-opacity:0.25882353"
         id="circle4773"
         cx="128"
         cy="924.36218"
         r="128" />
    </clipPath>
    <clipPath
       clipPathUnits="userSpaceOnUse"
       id="clipPath4842">
      <circle
         style="fill:#0f9d58;fill-opacity:1;stroke:none;stroke-width:10;stroke-linejoin:round;stroke-miterlimit:4;stroke-dasharray:none;stroke-opacity:0.25882353"
         id="circle4844"
         cx="128"
         cy="924.36218"
         r="128" />
    </clipPath>
    <clipPath
       id="clipPath4458"
       clipPathUnits="userSpaceOnUse">
      <circle
         style="fill:#ff3b38;fill-opacity:1;stroke:none;stroke-width:10;stroke-linejoin:round;stroke-miterlimit:4;stroke-dasharray:none;stroke-opacity:0.25882353"
         id="circle4460"
         cx="128"
         cy="924.36218"
         r="128" />
    </clipPath>
    <clipPath
       clipPathUnits="userSpaceOnUse"
       id="clipPath4783">
      <circle
         style="fill:#ff3b38;fill-opacity:1;stroke:none;stroke-width:10;stroke-linejoin:round;stroke-miterlimit:4;stroke-dasharray:none;stroke-opacity:0.25882353"
         id="circle4785"
         cx="128"
         cy="924.36218"
         r="128" />
    </clipPath>
    <clipPath
       id="clipPath4789"
       clipPathUnits="userSpaceOnUse">
      <circle
         style="fill:#80b4ff;fill-opacity:1;stroke:none;stroke-width:10;stroke-linejoin:round;stroke-miterlimit:4;stroke-dasharray:none;stroke-opacity:0.25882353"
         id="circle4791"
         cx="102.64714"
         cy="924.36218"
         r="128" />
    </clipPath>
    <clipPath
       clipPathUnits="userSpaceOnUse"
       id="clipPath4721">
      <circle
         style="fill:#557ae6;fill-opacity:1;stroke:none;stroke-width:10;stroke-linejoin:round;stroke-miterlimit:4;stroke-dasharray:none;stroke-opacity:0.25882353"
         id="circle4723"
         cx="128"
         cy="924.36218"
         r="128" />
    </clipPath>
    <clipPath
       id="clipPath4491"
       clipPathUnits="userSpaceOnUse">
      <circle
         style="fill:#990000;fill-opacity:1;stroke:none;stroke-width:10;stroke-linejoin:round;stroke-miterlimit:4;stroke-dasharray:none;stroke-opacity:0.25882353"
         id="circle4493"
         cx="128"
         cy="924.36218"
         r="128" />
    </clipPath>
    <clipPath
       clipPathUnits="userSpaceOnUse"
       id="clipPath1102">
      <circle
         style="fill:#b40000;fill-opacity:1;stroke:none;stroke-width:10;stroke-linejoin:round;stroke-miterlimit:4;stroke-dasharray:none;stroke-opacity:0.25882353"
         id="circle1104"
         cx="128"
         cy="924.36218"
         r="128" />
    </clipPath>
    <clipPath
       clipPathUnits="userSpaceOnUse"
       id="clipPath1102-3">
      <circle
         style="fill:#b40000;fill-opacity:1;stroke:none;stroke-width:10;stroke-linejoin:round;stroke-miterlimit:4;stroke-dasharray:none;stroke-opacity:0.25882353"
         id="circle1104-6"
         cx="128"
         cy="924.36218"
         r="128" />
    </clipPath>
    <linearGradient
       id="a"
       gradientUnits="userSpaceOnUse"
       x1="10.23"
       y1="87.43"
       x2="133.23599"
       y2="88.679001"
       gradientTransform="matrix(1.5239145,0,0,1.5239145,18.297426,799.08126)">
      <stop
         offset="0"
         stop-color="#208757"
         id="stop2" />
      <stop
         offset=".077"
         stop-color="#2ec27e"
         id="stop4" />
      <stop
         offset=".147"
         stop-color="#208a5a"
         id="stop6" />
      <stop
         offset=".198"
         stop-color="#26a269"
         id="stop8" />
      <stop
         offset=".364"
         stop-color="#1c774d"
         id="stop10" />
      <stop
         offset=".407"
         stop-color="#26a269"
         id="stop12" />
      <stop
         offset=".493"
         stop-color="#26a269"
         id="stop14" />
      <stop
         offset=".576"
         stop-color="#26a269"
         id="stop16" />
      <stop
         offset=".606"
         stop-color="#2ec27e"
         id="stop18" />
      <stop
         offset=".681"
         stop-color="#26a269"
         id="stop20" />
      <stop
         offset=".784"
         stop-color="#1d7a4e"
         id="stop22" />
      <stop
         offset=".945"
         stop-color="#28ab6f"
         id="stop24" />
      <stop
         offset="1"
         stop-color="#48d493"
         id="stop26" />
    </linearGradient>
  </defs>
  <metadata
     id="metadata7">
    <rdf:RDF>
      <cc:Work
         rdf:about="">
        <dc:format>image/svg+xml</dc:format>
        <dc:type
           rdf:resource="http://purl.org/dc/dcmitype/StillImage" />
        <dc:title />
      </cc:Work>
    </rdf:RDF>
  </metadata>
  <g
     inkscape:label="Layer 1"
     inkscape:groupmode="layer"
     id="layer1"
     transform="translate(0,-796.36216)">
    <path
       id="path4152"
       style="fill:#33d17a;fill-opacity:1;stroke:none;stroke-width:10;stroke-linejoin:round;stroke-miterlimit:4;stroke-dasharray:none;stroke-opacity:0.258824"
       sodipodi:type="arc"
       sodipodi:cx="128"
       sodipodi:cy="924.36218"
       sodipodi:rx="128"
       sodipodi:ry="128"
       sodipodi:start="0"
       sodipodi:end="3.1415927"
       sodipodi:arc-type="slice"
       d="m 256,924.36218 a 128,128 0 0 1 -64,110.85122 128,128 0 0 1 -128.000003,0 A 128,128 0 0 1 0,924.36218 h 128 z" />
    <path
       id="path929"
       style="fill:#208757;fill-opacity:1;stroke:none;stroke-width:10;stroke-linejoin:round;stroke-miterlimit:4;stroke-dasharray:none;stroke-opacity:0.258824"
       sodipodi:type="arc"
       sodipodi:cx="128"
       sodipodi:cy="-924.36218"
       sodipodi:rx="128"
       sodipodi:ry="128"
       sodipodi:start="0"
       sodipodi:end="3.1415927"
       sodipodi:arc-type="slice"
       d="m 256,-924.36218 a 128,128 0 0 1 -64,110.85125 128,128 0 0 1 -128.000003,0 A 128,128 0 0 1 0,-924.36218 h 128 z"
       transform="scale(1,-1)" />
    <path
       d="m 63.961524,851.44754 v 6.09566 l 3.107262,27.04948 c 0.636996,5.54247 1.607729,11.09714 1.286183,16.66857 -0.161534,2.78572 -0.70862,5.58972 -1.994804,8.06608 -0.649187,1.23742 -1.476673,2.39255 -2.505315,3.3389 -1.030166,0.94635 -2.263013,1.68545 -3.602534,2.06643 -1.595538,0.4526 -3.28556,0.39774 -4.934435,0.24992 -1.667163,-0.14934 -3.393758,-0.42974 -4.78052,-1.37609 -0.600422,-0.41603 -1.112457,-0.94026 -1.648875,-1.4401 -0.534894,-0.49985 -1.106362,-0.98293 -1.779932,-1.2679 -1.053025,-0.4526 -2.273681,-0.38707 -3.36328,-0.0351 -1.089599,0.3505 -2.064904,0.97531 -3.005159,1.62449 -1.810411,1.25571 -3.543101,2.67904 -4.852144,4.45288 -2.642468,3.57206 -3.357184,8.32057 -2.607418,12.70335 0.559277,3.27947 1.917085,6.45835 4.096283,8.97586 1.100266,1.27399 2.410832,2.38188 3.910364,3.14383 1.493436,0.76806 3.184981,1.17799 4.868907,1.08198 2.20358,-0.12953 4.251721,-1.11245 6.269384,-2.02223 2.011567,-0.90521 4.142,-1.76774 6.351676,-1.62602 a 7.7917748,7.7917748 0 0 1 3.553768,1.15513 9.0794826,9.0794826 0 0 1 2.701901,2.60132 c 1.292279,1.8927 1.88051,4.17857 2.333113,6.4294 2.791811,13.91791 1.185605,28.68007 -4.541265,41.66991 v 6.09566 c 10.380905,3.57655 21.03002,6.39885 31.828478,8.43485 3.590343,0.672 7.316318,1.2557 10.865508,0.3749 1.77231,-0.442 3.47453,-1.2679 4.79729,-2.5297 a 8.2138992,8.2138992 0 0 0 2.19596,-3.56596 c 0.40536,-1.35171 0.42364,-2.78571 0.38707,-4.19686 l -0.11887,-4.57174 c -0.64918,0.13715 -1.33342,0.0899 -1.95823,-0.12496 a 4.1922888,4.1922888 0 0 1 -1.76774,-1.21913 5.7421098,5.7421098 0 0 1 -1.06674,-1.87594 c -0.48155,-1.3639 -0.53489,-2.84058 -0.54099,-4.28677 -0.0122,-2.39255 0.096,-4.85672 1.04236,-7.0542 0.95854,-2.23254 2.73238,-4.04142 4.75004,-5.38704 4.02314,-2.67904 8.98805,-3.6193 13.82191,-3.67873 4.43459,-0.0533 9.01852,0.6309 12.78107,2.9762 1.8866,1.17342 3.52938,2.75677 4.63727,4.67842 1.10027,1.92318 1.64278,4.174 1.45229,6.38216 -0.14934,1.70221 -0.72691,3.35261 -1.55439,4.84604 a 15.028845,15.028845 0 0 1 -4.16638,4.74395 c 0.0183,1.51782 0.0305,3.03564 0.0305,4.55346 0.005,0.84577 0.005,1.69764 0.10668,2.53579 0.10667,0.83968 0.32002,1.67326 0.72538,2.41691 0.58366,1.0667 1.5422,1.8881 2.57846,2.5251 1.03627,0.6309 2.16701,1.1003 3.31604,1.4995 6.41111,2.2249 13.39978,2.3804 20.12025,1.4051 a 62.108659,62.108659 0 0 0 24.16928,-8.96059 l -0.008,-6.10023 a 91.657362,91.657362 0 0 1 -5.2316,-38.80648 c 0.19049,-2.30416 0.47546,-4.63118 1.36238,-6.76771 0.44194,-1.06674 1.03626,-2.07862 1.79822,-2.94115 0.76805,-0.86254 1.70678,-1.58335 2.77353,-2.02986 1.2496,-0.52422 2.6318,-0.66138 3.98198,-0.55927 1.35172,0.10667 2.66685,0.4526 3.95913,0.86863 2.57237,0.83358 5.09597,1.97652 7.79787,2.16091 2.27368,0.14934 4.56565,-0.40536 6.6016,-1.42791 a 15.07761,15.07761 0 0 0 6.12004,-5.66134 15.101993,15.101993 0 0 0 2.16091,-8.05389 l 0.26821,-3.441 a 25.001341,25.001341 0 0 0 -4.68604,-9.87039 c -1.19627,-1.51782 -2.60132,-2.91678 -4.32029,-3.80369 a 7.9959794,7.9959794 0 0 0 -2.75067,-0.85035 6.3699626,6.3699626 0 0 0 -2.85734,0.32612 c -1.50563,0.5547 -2.70342,1.7144 -4.11914,2.4596 -1.57268,0.82748 -3.35718,1.12465 -5.12645,1.2557 -1.74945,0.13106 -3.54157,0.10668 -5.2194,-0.41755 -2.2554,-0.7071 -4.1801,-2.31635 -5.48914,-4.28525 -1.30295,-1.97042 -2.02986,-4.27458 -2.42303,-6.5955 -0.87473,-5.17978 -0.1783,-10.47082 0.40536,-15.69175 a 346.78198,346.78198 0 0 0 2.04205,-30.43714 757.89297,757.89297 0 0 1 -32.18203,-7.79787 c -2.0649,-0.54861 -4.142,-1.10636 -6.26786,-1.36238 -2.12434,-0.25145 -4.32182,-0.17982 -6.35167,0.50594 a 10.831984,10.831984 0 0 0 -4.46507,2.88629 v 6.09566 c 0,0.6309 0.0244,1.2618 0.16763,1.88204 0.14324,0.61261 0.39317,1.20236 0.67814,1.76164 0.56537,1.12465 1.24961,2.18377 2.0009,3.19565 1.49343,2.02528 3.25508,3.90579 4.21362,6.23891 1.04846,2.55408 1.01798,5.49523 0.10668,8.10265 -0.90978,2.60132 -2.66685,4.8811 -4.84453,6.57112 -2.1792,1.69611 -4.77442,2.82229 -7.45956,3.44709 -2.68971,0.6309 -5.47542,0.77415 -8.23219,0.61871 -4.45897,-0.24992 -9.00023,-1.33342 -12.57229,-4.01246 -1.78603,-1.34562 -3.29775,-3.07069 -4.25629,-5.08988 -0.95245,-2.01766 -1.33952,-4.30963 -1.01798,-6.51778 0.44651,-3.00669 2.13196,-5.65372 3.73359,-8.23828 0.64157,-1.04236 1.26638,-2.10301 1.64278,-3.26118 0.36879,-1.16275 0.45108,-2.39407 0.46937,-3.61473 l 0.0838,-6.91704 a 2.8801984,2.8801984 0 0 1 -2.58303,1.18408 c -0.78634,-0.0716 -1.50715,-0.45718 -2.14872,-0.91587 -0.63852,-0.4587 -1.22066,-0.99512 -1.87594,-1.42944 -1.32733,-0.88082 -2.91677,-1.30294 -4.50622,-1.42181 -1.58944,-0.11429 -3.184977,0.0594 -4.762228,0.29107 -3.661967,0.54251 -7.269073,1.38676 -10.935611,1.92927 -3.660442,0.5349 -7.363555,0.70101 -11.066667,0.75587 z m 0,0"
       fill="url(#a)"
       id="path31"
       style="fill:#707070;stroke-width:1.52391;fill-opacity:1" />
    <path
       d="m 63.961524,851.44754 3.107262,27.04338 c 0.649187,5.66135 1.76774,11.29831 1.667162,16.99013 -0.05334,2.84515 -0.518131,5.74515 -1.88813,8.24437 -0.684238,1.24352 -1.595538,2.38036 -2.720187,3.25051 -1.124649,0.87473 -2.46417,1.48125 -3.875315,1.66107 -2.291967,0.29716 -4.565648,-0.52423 -6.673221,-1.46448 -2.101479,-0.94635 -4.190765,-2.04814 -6.470541,-2.36969 -2.232535,-0.32002 -4.547361,0.14325 -6.542165,1.18408 -1.993281,1.04846 -3.666539,2.66076 -4.887194,4.55498 -2.439787,3.78541 -3.00516,8.54154 -2.398642,13.00661 0.457175,3.38157 1.600111,6.75552 3.828074,9.34617 1.112457,1.29076 2.488552,2.37426 4.047516,3.06459 1.558965,0.69643 3.303847,1.00122 4.999964,0.79244 2.346828,-0.29259 4.458974,-1.52392 6.589406,-2.55408 1.072836,-0.51204 2.167007,-0.9814 3.316038,-1.2618 1.149032,-0.2804 2.363592,-0.36269 3.518719,-0.10058 1.24961,0.27888 2.38645,0.95702 3.297751,1.85613 0.915872,0.89301 1.60011,2.0009 2.095382,3.17888 0.975306,2.36359 1.161223,4.96492 1.280088,7.519 a 187.74627,187.74627 0 0 1 -3.428807,45.66409 203.32067,203.32067 0 0 0 31.828478,8.42725 c 3.584247,0.65071 7.304118,1.19171 10.835028,0.29869 1.76774,-0.44651 3.45929,-1.2618 4.80338,-2.48855 1.34562,-1.22523 2.32854,-2.8802 2.60742,-4.68452 0.20268,-1.33952 0.0183,-2.72628 -0.38098,-4.02313 -0.39926,-1.29838 -1.01797,-2.52513 -1.67783,-3.7153 -1.32276,-2.37579 -2.87562,-4.7028 -3.39376,-7.37575 -0.45717,-2.37426 -0.035,-4.88719 1.03017,-7.0603 1.07131,-2.17157 2.76743,-4.00637 4.75461,-5.38703 3.98352,-2.74915 8.9911,-3.63149 13.82953,-3.67264 4.43459,-0.0351 9.01852,0.6309 12.78564,2.97621 1.88203,1.17341 3.52481,2.75676 4.6327,4.67841 1.11246,1.91709 1.67173,4.1801 1.45229,6.38216 -0.1783,1.69612 -0.79853,3.32213 -1.56049,4.84605 -0.76195,1.53001 -1.66564,2.9823 -2.45198,4.49402 -0.78024,1.51782 -1.44771,3.11945 -1.69154,4.80338 -0.23773,1.69154 -0.029,3.48976 0.84577,4.95272 0.62481,1.04236 1.55439,1.87442 2.58456,2.51294 1.02864,0.64309 2.16091,1.10026 3.30385,1.51172 a 46.067935,46.067935 0 0 0 23.13759,2.02983 45.912496,45.912496 0 0 0 21.15193,-9.58997 l -3.94236,-29.51975 c -0.69034,-5.19045 -1.73726,-10.38243 -1.59554,-15.61403 0.0655,-2.61961 0.51813,-5.27426 1.73879,-7.58909 a 10.356523,10.356523 0 0 1 2.40473,-3.07831 8.1346556,8.1346556 0 0 1 3.4471,-1.79822 c 1.21913,-0.27887 2.49465,-0.24992 3.71987,-0.0305 1.23285,0.22097 2.42303,0.62481 3.58425,1.07894 2.32702,0.90977 4.60679,2.04204 7.08315,2.37425 2.28588,0.30936 4.65556,-0.0945 6.74485,-1.06521 2.09538,-0.97531 3.91036,-2.51141 5.28646,-4.36297 2.75524,-3.70921 3.68482,-8.57202 3.11945,-13.15138 -0.46479,-3.73054 -1.91708,-7.40927 -4.50012,-10.14165 -1.29228,-1.36391 -2.85734,-2.48398 -4.59612,-3.19717 -1.73727,-0.72082 -3.64978,-1.04236 -5.5181,-0.85797 -2.49465,0.23926 -4.8049,1.33343 -7.14411,2.22644 -1.16579,0.4526 -2.36207,0.85187 -3.58882,1.07741 -1.23284,0.22706 -2.51293,0.26821 -3.73359,-0.006 -1.85003,-0.41145 -3.49891,-1.53458 -4.69518,-3.00516 -1.1978,-1.47057 -1.95975,-3.26117 -2.35749,-5.12035 -0.79854,-3.70311 -0.19049,-7.54795 0.3505,-11.2983 a 303.53329,303.53329 0 0 0 3.04782,-37.96681 181.8411,181.8411 0 0 0 -33.98329,-7.41689 c -3.5492,-0.42822 -7.23859,-0.73148 -10.62168,0.41755 -1.69612,0.57604 -3.27947,1.52392 -4.46964,2.85734 -1.19018,1.32581 -1.96433,3.0646 -1.99938,4.85062 -0.0305,1.25571 0.30326,2.50684 0.82749,3.64978 0.52879,1.14293 1.23741,2.19596 1.99937,3.19565 1.52392,2.00699 3.27337,3.89969 4.22582,6.23281 1.04845,2.55408 1.03016,5.49523 0.12496,8.10722 -0.90368,2.60742 -2.66076,4.8872 -4.83843,6.58331 -2.18529,1.69764 -4.78052,2.82229 -7.47175,3.44862 -2.68971,0.62481 -5.47543,0.76196 -8.23829,0.60042 -4.44678,-0.26211 -8.98195,-1.35628 -12.54181,-4.04142 -1.77993,-1.34104 -3.28709,-3.07221 -4.25172,-5.07768 -0.96312,-2.007 -1.38067,-4.29744 -1.0515,-6.50102 0.45107,-2.99449 2.18986,-5.60801 3.65434,-8.25657 0.73148,-1.32733 1.40962,-2.69733 1.82718,-4.14962 0.42212,-1.45229 0.57756,-3.01125 0.25601,-4.48793 -0.33373,-1.54829 -1.17951,-2.95791 -2.30416,-4.0719 -1.12464,-1.10636 -2.5175,-1.92165 -4.00637,-2.46417 -2.97011,-1.08197 -6.21452,-1.0774 -9.369023,-0.89301 a 88.736017,88.736017 0 0 0 -33.913193,8.94081 z m 0,0"
       fill="#33d17a"
       id="path33"
       style="fill:#ffffff;fill-opacity:1;stroke-width:1.52391" />
  </g>
</svg>
