<?xml version="1.0" encoding="UTF-8" standalone="no"?>
<!-- Created with Inkscape (http://www.inkscape.org/) -->

<svg
   xmlns:dc="http://purl.org/dc/elements/1.1/"
   xmlns:cc="http://creativecommons.org/ns#"
   xmlns:rdf="http://www.w3.org/1999/02/22-rdf-syntax-ns#"
   xmlns:svg="http://www.w3.org/2000/svg"
   xmlns="http://www.w3.org/2000/svg"
   xmlns:xlink="http://www.w3.org/1999/xlink"
   xmlns:sodipodi="http://sodipodi.sourceforge.net/DTD/sodipodi-0.dtd"
   xmlns:inkscape="http://www.inkscape.org/namespaces/inkscape"
   sodipodi:docname="pidgin.svg"
   inkscape:version="0.92.4 (unknown)"
   version="1.1"
   id="svg2"
   viewBox="0 0 256 256"
   height="256"
   width="256">
  <sodipodi:namedview
     inkscape:window-maximized="1"
     inkscape:window-y="0"
     inkscape:window-x="0"
     inkscape:window-height="1048"
     inkscape:window-width="1920"
     units="px"
     showgrid="true"
     inkscape:current-layer="layer1"
     inkscape:document-units="px"
     inkscape:cy="127.99998"
     inkscape:cx="128"
     inkscape:zoom="3.3085938"
     inkscape:pageshadow="2"
     inkscape:pageopacity="0.0"
     borderopacity="1.0"
     bordercolor="#666666"
     pagecolor="#ffffff"
     id="base">
    <inkscape:grid
       type="xygrid"
       id="grid4168"
       spacingx="5"
       spacingy="5" />
  </sodipodi:namedview>
  <defs
     id="defs4">
    <clipPath
       clipPathUnits="userSpaceOnUse"
       id="clipPath5002">
      <g
         id="g5004">
        <path
           transform="translate(0,796.36216)"
           inkscape:connector-curvature="0"
           id="path5006"
           d="M 88.118406,249.43519 C 46.103287,235.29134 14.771284,201.68742 4.1335861,159.36053 1.3377997,148.23623 0.92261224,144.16281 0.92582381,127.88908 0.92787958,117.47222 1.134384,112.01362 1.6577819,108.54099 4.4653598,89.913336 12.17654,70.638106 23.042737,55.086148 c 3.958678,-5.665755 8.344812,-10.93092 9.101533,-10.925587 0.32809,0.0023 10.488643,18.309713 22.579009,40.683112 12.090365,22.373397 22.374546,41.334697 22.853732,42.136217 0.479186,0.80151 0.924733,2.44098 0.990103,3.64326 0.343424,6.31639 2.524175,14.20976 5.6424,20.42304 2.954444,5.88693 5.065381,8.73258 10.434696,14.06652 6.71418,6.66995 12.88853,10.28643 21.73204,12.72904 3.16587,0.87442 5.10478,1.05037 11.57517,1.05037 8.82596,0 12.60219,-0.76201 19.26429,-3.88733 2.04584,-0.95974 3.93661,-1.66536 4.20172,-1.56805 0.2651,0.0973 -11.0555,17.66459 -25.1569,39.0384 l -25.6389,38.86148 -3.094121,0.11221 c -2.554618,0.0927 -4.195204,-0.25845 -9.409103,-2.01364 z"
           style="fill:#0f9d58;fill-opacity:1;stroke:none;stroke-width:4.85768509;stroke-linejoin:round;stroke-miterlimit:4;stroke-dasharray:none;stroke-opacity:1" />
        <path
           inkscape:connector-curvature="0"
           id="path5008"
           d="m 112.35984,1051.5167 c -10.0014,-1.4495 -12.15632,-1.8201 -12.531784,-2.1556 -0.248854,-0.2223 1.738304,-3.7475 4.550294,-8.0722 7.16635,-11.0213 49.77231,-74.64801 50.25856,-75.05489 3.57509,-2.99158 8.63523,-8.0414 10.57512,-10.55356 3.36154,-4.35318 7.55784,-12.9141 9.06523,-18.494 6.19314,-22.92535 -2.59253,-47.15185 -21.69967,-59.83688 l -2.96081,-1.96565 17.02469,0.29584 c 9.36358,0.1627 31.17032,0.43384 48.45941,0.60252 l 31.43471,0.30668 1.54584,4.18869 c 2.24597,6.08579 4.67816,15.0947 5.93451,21.9816 1.52517,8.36049 1.92536,28.85896 0.73851,37.82758 -3.0805,23.27845 -12.81326,45.72018 -27.80202,64.10577 -20.47622,25.1166 -51.4599,42.1974 -84.14612,46.3885 -5.31244,0.6812 -26.64601,0.9864 -30.44647,0.4356 z"
           style="fill:#f4b400;fill-opacity:1;stroke:none;stroke-width:4.85768509;stroke-linejoin:round;stroke-miterlimit:4;stroke-dasharray:none;stroke-opacity:1" />
        <path
           transform="translate(0,796.36216)"
           inkscape:connector-curvature="0"
           id="path5010"
           d="M 67.989788,108.87302 C 41.284246,59.575543 33.290284,45.149038 32.233625,44.344765 31.651257,43.901497 32.811213,42.549931 38.695603,36.815353 53.43581,22.450419 68.809334,13.040746 87.839196,6.7360352 101.68742,2.1480329 112.58238,0.43719165 127.95142,0.43719165 c 21.3099,0 37.80488,3.80960275 56.83492,13.12633035 25.29351,12.383198 46.19421,33.578863 58.51993,59.345832 1.61138,3.368591 2.92978,6.372442 2.92978,6.675231 0,0.560033 -10.54865,0.49527 -71.16508,-0.436914 l -24.28843,-0.373518 -3.93063,-1.764495 c -6.75732,-3.033425 -10.64587,-3.839529 -18.6576,-3.867747 -5.0296,-0.01773 -7.97946,0.207636 -10.31642,0.788106 -14.50826,3.603659 -26.283291,12.94777 -33.291614,26.418653 -3.58502,6.89086 -5.24713,13.08166 -6.331628,23.58317 l -0.33738,3.26696 -9.92748,-18.32578 z"
           style="fill:#db4437;fill-opacity:1;stroke:none;stroke-width:10;stroke-linejoin:round;stroke-miterlimit:4;stroke-dasharray:none;stroke-opacity:1" />
      </g>
    </clipPath>
    <clipPath
       id="clipPath4271"
       clipPathUnits="userSpaceOnUse">
      <circle
         r="128"
         cy="128.00002"
         cx="128"
         id="circle4273"
         style="fill:#292929;fill-opacity:0.26020412;stroke:none;stroke-width:10;stroke-linejoin:round;stroke-miterlimit:4;stroke-dasharray:none;stroke-opacity:0.25882353" />
    </clipPath>
    <clipPath
       clipPathUnits="userSpaceOnUse"
       id="clipPath4363">
      <circle
         r="128"
         cy="924.36218"
         cx="128"
         id="circle4365"
         style="fill:#4285f4;fill-opacity:1;stroke:none;stroke-width:10;stroke-linejoin:round;stroke-miterlimit:4;stroke-dasharray:none;stroke-opacity:0.25882353" />
    </clipPath>
    <clipPath
       id="clipPath4452"
       clipPathUnits="userSpaceOnUse">
      <circle
         r="128"
         cy="924.36218"
         cx="128"
         id="circle4454"
         style="fill:#4285f4;fill-opacity:1;stroke:none;stroke-width:10;stroke-linejoin:round;stroke-miterlimit:4;stroke-dasharray:none;stroke-opacity:0.25882353" />
    </clipPath>
    <clipPath
       clipPathUnits="userSpaceOnUse"
       id="clipPath5177">
      <circle
         r="128"
         cy="924.36218"
         cx="128"
         id="circle5179"
         style="fill:#4285f4;fill-opacity:1;stroke:none;stroke-width:10;stroke-linejoin:round;stroke-miterlimit:4;stroke-dasharray:none;stroke-opacity:0.25882353" />
    </clipPath>
    <clipPath
       id="clipPath4342"
       clipPathUnits="userSpaceOnUse">
      <circle
         r="128"
         cy="933.48718"
         cx="128"
         id="circle4344"
         style="fill:#4285f4;fill-opacity:1;stroke:none;stroke-width:10;stroke-linejoin:round;stroke-miterlimit:4;stroke-dasharray:none;stroke-opacity:0.25882353" />
    </clipPath>
    <linearGradient
       id="linearGradient8848"
       inkscape:collect="always">
      <stop
         id="stop8850"
         offset="0"
         style="stop-color:#000000;stop-opacity:1;" />
      <stop
         id="stop8852"
         offset="1"
         style="stop-color:#ffffff;stop-opacity:1" />
    </linearGradient>
    <linearGradient
       y2="23.675837"
       x2="9.7512932"
       y1="25.21174"
       x1="10.48653"
       gradientUnits="userSpaceOnUse"
       id="linearGradient4406"
       xlink:href="#linearGradient8848"
       inkscape:collect="always"
       gradientTransform="matrix(2.214183,0,0,4.2451264,60.665041,784.5477)" />
    <linearGradient
       y2="23.675837"
       x2="9.6415968"
       y1="24.936121"
       x1="10.498732"
       gradientUnits="userSpaceOnUse"
       id="linearGradient4410"
       xlink:href="#linearGradient8848"
       inkscape:collect="always"
       gradientTransform="matrix(2.5119013,0,0,4.8159248,144.53209,772.23801)" />
    <clipPath
       clipPathUnits="userSpaceOnUse"
       id="clipPath4681">
      <circle
         r="128"
         cy="930.43964"
         cx="127.00293"
         id="circle4683"
         style="fill:#9d5fad;fill-opacity:1;stroke:none;stroke-width:10;stroke-linejoin:round;stroke-miterlimit:4;stroke-dasharray:none;stroke-opacity:0.25882353" />
    </clipPath>
  </defs>
  <metadata
     id="metadata7">
    <rdf:RDF>
      <cc:Work
         rdf:about="">
        <dc:format>image/svg+xml</dc:format>
        <dc:type
           rdf:resource="http://purl.org/dc/dcmitype/StillImage" />
        <dc:title />
      </cc:Work>
    </rdf:RDF>
  </metadata>
  <g
     transform="translate(0,-796.36216)"
     id="layer1"
     inkscape:groupmode="layer"
     inkscape:label="Layer 1">
    <path
       d="m 256,-924.36218 a 128,128 0 0 1 -64,110.85125 128,128 0 0 1 -128.000003,0 A 128,128 0 0 1 0,-924.36219 l 128,1e-5 z"
       sodipodi:end="3.1415927"
       sodipodi:start="0"
       sodipodi:ry="128"
       sodipodi:rx="128"
       sodipodi:cy="-924.36218"
       sodipodi:cx="128"
       sodipodi:type="arc"
       id="path4622"
       style="fill:#663972;fill-opacity:1;stroke:none;stroke-width:10;stroke-linejoin:round;stroke-miterlimit:4;stroke-dasharray:none;stroke-opacity:0.25882353"
       transform="scale(1,-1)" />
    <path
       inkscape:connector-curvature="0"
       id="path4913"
       d="M 154.47438,968.80998 101.03985,1048.476 0.4857685,1048.9618 0,842.0244 l 33.032258,-2.42884 45.176471,83.55218 21.373814,35.4611 26.717267,13.11575 z"
       style="fill:none;fill-rule:evenodd;stroke:none;stroke-width:1px;stroke-linecap:butt;stroke-linejoin:miter;stroke-opacity:1" />
    <path
       style="fill:#9d5fad;fill-opacity:1;stroke:none;stroke-width:10;stroke-linejoin:round;stroke-miterlimit:4;stroke-dasharray:none;stroke-opacity:0.25882353"
       id="path4152"
       sodipodi:type="arc"
       sodipodi:cx="128"
       sodipodi:cy="924.36218"
       sodipodi:rx="128"
       sodipodi:ry="128"
       sodipodi:start="0"
       sodipodi:end="3.1415927"
       d="m 256,924.36218 a 128,128 0 0 1 -64,110.85122 128,128 0 0 1 -128.000003,0 A 128,128 0 0 1 0,924.36218 l 128,0 z" />
    <text
       id="text4914"
       y="927.36218"
       x="120"
       style="font-style:normal;font-weight:normal;line-height:0%;font-family:sans-serif;letter-spacing:0px;word-spacing:0px;fill:#000000;fill-opacity:1;stroke:none;stroke-width:1px;stroke-linecap:butt;stroke-linejoin:miter;stroke-opacity:1"
       xml:space="preserve"><tspan
         y="927.36218"
         x="120"
         id="tspan4916"
         sodipodi:role="line"
         style="font-size:40px;line-height:1.25"> </tspan></text>
    <path
       sodipodi:type="inkscape:offset"
       inkscape:radius="1.0174263"
       inkscape:original="M 9.96875 19 C 8.022221 19 6.9374998 21.081214 6.9375 23 C 6.9375 25.208 8.5222219 27 10.46875 27 C 11.889191 27 14 25.489251 14 23.28125 C 14 21.536852 11.915281 19 9.96875 19 z "
       style="opacity:1;fill:#3f004f;fill-opacity:1;stroke:none;stroke-width:1;stroke-miterlimit:4;stroke-opacity:1"
       id="path4377"
       d="m 9.96875,17.982422 c -1.3358726,0 -2.4342498,0.762782 -3.0878906,1.728516 C 6.2272185,20.676671 5.9199218,21.848884 5.9199219,23 c 0,2.694817 1.9778625,5.017578 4.5488281,5.017578 1.070924,0 2.117819,-0.494112 2.990234,-1.302734 0.872415,-0.808622 1.558594,-2.00538 1.558594,-3.433594 0,-1.277506 -0.651176,-2.478259 -1.544922,-3.474609 C 12.57891,18.81029 11.384009,17.982422 9.96875,17.982422 Z"
       transform="matrix(5.4959211,0,0,5.4959211,25.475319,761.35115)" />
    <path
       inkscape:connector-curvature="0"
       style="opacity:1;fill:#ffffff;fill-opacity:1;stroke:none;stroke-width:5.49592113;stroke-miterlimit:4;stroke-opacity:1"
       d="m 102.41821,889.35164 c 0,12.135 -11.573752,20.38938 -19.380383,20.38938 -10.697967,0 -19.38038,-9.8487 -19.38038,-21.98369 0,-10.54551 5.951698,-21.98368 16.649665,-21.98368 10.697981,0 22.111098,13.99091 22.111098,23.57799 z"
       id="path4382"
       sodipodi:nodetypes="csssc" />
    <ellipse
       ry="10.991845"
       rx="8.4426813"
       cy="888.52509"
       cx="82.983696"
       style="opacity:1;fill:#6b1a80;fill-opacity:1;stroke:none;stroke-width:7.59979916;stroke-miterlimit:4;stroke-dasharray:none;stroke-opacity:1"
       id="ellipse4384" />
    <ellipse
       ry="5.4959226"
       rx="2.7479594"
       cy="887.75732"
       cx="83.182487"
       style="opacity:1;fill:url(#linearGradient4406);fill-opacity:1;stroke:none;stroke-width:3.06585813;stroke-miterlimit:4;stroke-dasharray:none;stroke-opacity:1"
       id="ellipse4386" />
    <path
       sodipodi:type="inkscape:offset"
       inkscape:radius="1.0250763"
       inkscape:original="M 24.71875 19 C 23.921039 19.030682 23.197708 19.355158 22.78125 19.8125 C 21.639847 21.065961 21.758036 23.254972 23.0625 24.6875 C 24.196099 25.932389 26.077347 26.565958 27.21875 25.3125 C 28.360153 24.05904 28.061824 21.069247 27.03125 19.9375 C 26.379019 19.221236 25.516461 18.969318 24.71875 19 z "
       style="opacity:1;fill:#3f004f;fill-opacity:1;stroke:none;stroke-width:1;stroke-miterlimit:4;stroke-opacity:1"
       id="path4390"
       d="m 24.679688,17.976562 c -1.051287,0.04044 -2.004469,0.430718 -2.65625,1.146485 -1.565129,1.718786 -1.352469,4.4598 0.28125,6.253906 0.698572,0.767154 1.602879,1.349837 2.623046,1.5625 1.020168,0.212663 2.23148,-0.03991 3.048828,-0.9375 0.873805,-0.95959 1.057345,-2.259697 0.986329,-3.482422 -0.07102,-1.222725 -0.389146,-2.409768 -1.173829,-3.271484 -0.874584,-0.960447 -2.06797,-1.31154 -3.109374,-1.271485 z"
       transform="matrix(6.234901,0,0,6.234901,17.322155,745.92246)" />
    <path
       style="opacity:1;fill:#ffffff;fill-opacity:1;stroke:none;stroke-width:6.23490095;stroke-miterlimit:4;stroke-opacity:1"
       d="m 185.88918,870.31301 c -8.13319,-8.93167 -21.36462,-6.55212 -26.55777,-0.84915 -7.11654,7.8152 -6.29142,21.40684 1.84178,30.33851 7.06787,7.76175 18.69326,11.83265 25.80979,4.01746 7.11654,-7.8152 5.33173,-26.45049 -1.0938,-33.50682 z"
       id="path4392"
       sodipodi:nodetypes="csssc"
       inkscape:connector-curvature="0" />
    <ellipse
       style="opacity:1;fill:#6b1a80;fill-opacity:1;stroke:none;stroke-width:8.6670351;stroke-miterlimit:4;stroke-dasharray:none;stroke-opacity:1"
       id="ellipse4394"
       cx="170.07724"
       cy="889.76068"
       rx="9.3523436"
       ry="12.905279" />
    <ellipse
       style="opacity:1;fill:url(#linearGradient4410);fill-opacity:1;stroke:none;stroke-width:3.47809243;stroke-miterlimit:4;stroke-dasharray:none;stroke-opacity:1"
       id="ellipse4396"
       cx="170.07722"
       cy="889.3252"
       rx="3.117449"
       ry="6.2349024" />
    <rect
       style="opacity:1;fill:#ffffff;fill-opacity:1;stroke:none;stroke-width:1;stroke-miterlimit:4;stroke-dasharray:none;stroke-opacity:1"
       id="rect4400"
       width="38.889999"
       height="10.335259"
       x="112.9654"
       y="936.69415"
       rx="4.5216761"
       ry="5.1676297" />
    <path
       inkscape:connector-curvature="0"
       style="fill:#eb953e;fill-opacity:1;stroke:none;stroke-width:1.0283047;stroke-miterlimit:4;stroke-opacity:1"
       d="m 90.947549,952.47777 43.451771,-12.85852 36.54822,12.54885 c -1.63011,17.60663 -22.56989,33.34404 -28.55954,39.05824 -11.61092,-6.25 -39.8932,-13.20784 -51.440451,-38.74857 z"
       id="path4402"
       sodipodi:nodetypes="ccccc" />
  </g>
</svg>
