<?xml version="1.0" encoding="UTF-8" standalone="no"?>
<!-- Created with Inkscape (http://www.inkscape.org/) -->

<svg
   xmlns:dc="http://purl.org/dc/elements/1.1/"
   xmlns:cc="http://creativecommons.org/ns#"
   xmlns:rdf="http://www.w3.org/1999/02/22-rdf-syntax-ns#"
   xmlns:svg="http://www.w3.org/2000/svg"
   xmlns="http://www.w3.org/2000/svg"
   xmlns:sodipodi="http://sodipodi.sourceforge.net/DTD/sodipodi-0.dtd"
   xmlns:inkscape="http://www.inkscape.org/namespaces/inkscape"
   sodipodi:docname="preferences-desktop-theme.svg"
   inkscape:version="0.92.3 (2405546, 2018-03-11)"
   version="1.1"
   id="svg2"
   viewBox="0 0 256 256"
   height="256"
   width="256">
  <sodipodi:namedview
     showguides="false"
     inkscape:window-maximized="1"
     inkscape:window-y="0"
     inkscape:window-x="0"
     inkscape:window-height="1048"
     inkscape:window-width="1920"
     units="px"
     showgrid="true"
     inkscape:current-layer="layer1"
     inkscape:document-units="px"
     inkscape:cy="128"
     inkscape:cx="62.792453"
     inkscape:zoom="3.3125"
     inkscape:pageshadow="2"
     inkscape:pageopacity="0.0"
     borderopacity="1.0"
     bordercolor="#666666"
     pagecolor="#ffffff"
     id="base">
    <inkscape:grid
       spacingy="5"
       spacingx="5"
       id="grid4168"
       type="xygrid" />
  </sodipodi:namedview>
  <defs
     id="defs4">
    <clipPath
       id="clipPath5002"
       clipPathUnits="userSpaceOnUse">
      <g
         id="g5004">
        <path
           style="fill:#0f9d58;fill-opacity:1;stroke:none;stroke-width:4.85768509;stroke-linejoin:round;stroke-miterlimit:4;stroke-dasharray:none;stroke-opacity:1"
           d="M 88.118406,249.43519 C 46.103287,235.29134 14.771284,201.68742 4.1335861,159.36053 1.3377997,148.23623 0.92261224,144.16281 0.92582381,127.88908 0.92787958,117.47222 1.134384,112.01362 1.6577819,108.54099 4.4653598,89.913336 12.17654,70.638106 23.042737,55.086148 c 3.958678,-5.665755 8.344812,-10.93092 9.101533,-10.925587 0.32809,0.0023 10.488643,18.309713 22.579009,40.683112 12.090365,22.373397 22.374546,41.334697 22.853732,42.136217 0.479186,0.80151 0.924733,2.44098 0.990103,3.64326 0.343424,6.31639 2.524175,14.20976 5.6424,20.42304 2.954444,5.88693 5.065381,8.73258 10.434696,14.06652 6.71418,6.66995 12.88853,10.28643 21.73204,12.72904 3.16587,0.87442 5.10478,1.05037 11.57517,1.05037 8.82596,0 12.60219,-0.76201 19.26429,-3.88733 2.04584,-0.95974 3.93661,-1.66536 4.20172,-1.56805 0.2651,0.0973 -11.0555,17.66459 -25.1569,39.0384 l -25.6389,38.86148 -3.094121,0.11221 c -2.554618,0.0927 -4.195204,-0.25845 -9.409103,-2.01364 z"
           id="path5006"
           inkscape:connector-curvature="0"
           transform="translate(0,796.36216)" />
        <path
           style="fill:#f4b400;fill-opacity:1;stroke:none;stroke-width:4.85768509;stroke-linejoin:round;stroke-miterlimit:4;stroke-dasharray:none;stroke-opacity:1"
           d="m 112.35984,1051.5167 c -10.0014,-1.4495 -12.15632,-1.8201 -12.531784,-2.1556 -0.248854,-0.2223 1.738304,-3.7475 4.550294,-8.0722 7.16635,-11.0213 49.77231,-74.64801 50.25856,-75.05489 3.57509,-2.99158 8.63523,-8.0414 10.57512,-10.55356 3.36154,-4.35318 7.55784,-12.9141 9.06523,-18.494 6.19314,-22.92535 -2.59253,-47.15185 -21.69967,-59.83688 l -2.96081,-1.96565 17.02469,0.29584 c 9.36358,0.1627 31.17032,0.43384 48.45941,0.60252 l 31.43471,0.30668 1.54584,4.18869 c 2.24597,6.08579 4.67816,15.0947 5.93451,21.9816 1.52517,8.36049 1.92536,28.85896 0.73851,37.82758 -3.0805,23.27845 -12.81326,45.72018 -27.80202,64.10577 -20.47622,25.1166 -51.4599,42.1974 -84.14612,46.3885 -5.31244,0.6812 -26.64601,0.9864 -30.44647,0.4356 z"
           id="path5008"
           inkscape:connector-curvature="0" />
        <path
           style="fill:#db4437;fill-opacity:1;stroke:none;stroke-width:10;stroke-linejoin:round;stroke-miterlimit:4;stroke-dasharray:none;stroke-opacity:1"
           d="M 67.989788,108.87302 C 41.284246,59.575543 33.290284,45.149038 32.233625,44.344765 31.651257,43.901497 32.811213,42.549931 38.695603,36.815353 53.43581,22.450419 68.809334,13.040746 87.839196,6.7360352 101.68742,2.1480329 112.58238,0.43719165 127.95142,0.43719165 c 21.3099,0 37.80488,3.80960275 56.83492,13.12633035 25.29351,12.383198 46.19421,33.578863 58.51993,59.345832 1.61138,3.368591 2.92978,6.372442 2.92978,6.675231 0,0.560033 -10.54865,0.49527 -71.16508,-0.436914 l -24.28843,-0.373518 -3.93063,-1.764495 c -6.75732,-3.033425 -10.64587,-3.839529 -18.6576,-3.867747 -5.0296,-0.01773 -7.97946,0.207636 -10.31642,0.788106 -14.50826,3.603659 -26.283291,12.94777 -33.291614,26.418653 -3.58502,6.89086 -5.24713,13.08166 -6.331628,23.58317 l -0.33738,3.26696 -9.92748,-18.32578 z"
           id="path5010"
           inkscape:connector-curvature="0"
           transform="translate(0,796.36216)" />
      </g>
    </clipPath>
    <clipPath
       clipPathUnits="userSpaceOnUse"
       id="clipPath4271">
      <circle
         style="fill:#292929;fill-opacity:0.26020412;stroke:none;stroke-width:10;stroke-linejoin:round;stroke-miterlimit:4;stroke-dasharray:none;stroke-opacity:0.25882353"
         id="circle4273"
         cx="128"
         cy="128.00002"
         r="128" />
    </clipPath>
    <clipPath
       id="clipPath4363"
       clipPathUnits="userSpaceOnUse">
      <circle
         style="fill:#4285f4;fill-opacity:1;stroke:none;stroke-width:10;stroke-linejoin:round;stroke-miterlimit:4;stroke-dasharray:none;stroke-opacity:0.25882353"
         id="circle4365"
         cx="128"
         cy="924.36218"
         r="128" />
    </clipPath>
    <clipPath
       clipPathUnits="userSpaceOnUse"
       id="clipPath4452">
      <circle
         style="fill:#4285f4;fill-opacity:1;stroke:none;stroke-width:10;stroke-linejoin:round;stroke-miterlimit:4;stroke-dasharray:none;stroke-opacity:0.25882353"
         id="circle4454"
         cx="128"
         cy="924.36218"
         r="128" />
    </clipPath>
    <clipPath
       id="clipPath5177"
       clipPathUnits="userSpaceOnUse">
      <circle
         style="fill:#4285f4;fill-opacity:1;stroke:none;stroke-width:10;stroke-linejoin:round;stroke-miterlimit:4;stroke-dasharray:none;stroke-opacity:0.25882353"
         id="circle5179"
         cx="128"
         cy="924.36218"
         r="128" />
    </clipPath>
    <clipPath
       clipPathUnits="userSpaceOnUse"
       id="clipPath4342">
      <circle
         style="fill:#4285f4;fill-opacity:1;stroke:none;stroke-width:10;stroke-linejoin:round;stroke-miterlimit:4;stroke-dasharray:none;stroke-opacity:0.25882353"
         id="circle4344"
         cx="128"
         cy="933.48718"
         r="128" />
    </clipPath>
    <clipPath
       id="clipPath4681"
       clipPathUnits="userSpaceOnUse">
      <circle
         style="fill:#9d5fad;fill-opacity:1;stroke:none;stroke-width:10;stroke-linejoin:round;stroke-miterlimit:4;stroke-dasharray:none;stroke-opacity:0.25882353"
         id="circle4683"
         cx="127.00293"
         cy="930.43964"
         r="128" />
    </clipPath>
    <clipPath
       clipPathUnits="userSpaceOnUse"
       id="clipPath4235">
      <circle
         style="fill:#0f9d58;fill-opacity:1;stroke:none;stroke-width:10;stroke-linejoin:round;stroke-miterlimit:4;stroke-dasharray:none;stroke-opacity:0.25882353"
         id="circle4237"
         cx="128"
         cy="924.36218"
         r="128" />
    </clipPath>
    <clipPath
       id="clipPath4771"
       clipPathUnits="userSpaceOnUse">
      <circle
         style="fill:#0f9d58;fill-opacity:1;stroke:none;stroke-width:10;stroke-linejoin:round;stroke-miterlimit:4;stroke-dasharray:none;stroke-opacity:0.25882353"
         id="circle4773"
         cx="128"
         cy="924.36218"
         r="128" />
    </clipPath>
    <clipPath
       clipPathUnits="userSpaceOnUse"
       id="clipPath4842">
      <circle
         style="fill:#0f9d58;fill-opacity:1;stroke:none;stroke-width:10;stroke-linejoin:round;stroke-miterlimit:4;stroke-dasharray:none;stroke-opacity:0.25882353"
         id="circle4844"
         cx="128"
         cy="924.36218"
         r="128" />
    </clipPath>
    <clipPath
       id="clipPath4510"
       clipPathUnits="userSpaceOnUse">
      <circle
         style="fill:#0f9d58;fill-opacity:1;stroke:none;stroke-width:10;stroke-linejoin:round;stroke-miterlimit:4;stroke-dasharray:none;stroke-opacity:0.25882353"
         id="circle4512"
         cx="128"
         cy="924.36218"
         r="128" />
    </clipPath>
    <clipPath
       clipPathUnits="userSpaceOnUse"
       id="clipPath4442">
      <circle
         style="fill:#dadada;fill-opacity:1;stroke:none;stroke-width:10;stroke-linejoin:round;stroke-miterlimit:4;stroke-dasharray:none;stroke-opacity:0.25882353"
         id="circle4444"
         cx="128"
         cy="924.36218"
         r="128" />
    </clipPath>
    <clipPath
       id="clipPath4389"
       clipPathUnits="userSpaceOnUse">
      <circle
         style="fill:#4285f4;fill-opacity:1;stroke:none;stroke-width:10;stroke-linejoin:round;stroke-miterlimit:4;stroke-dasharray:none;stroke-opacity:0.25882353"
         id="circle4391"
         cx="128"
         cy="924.36218"
         r="128" />
    </clipPath>
    <clipPath
       clipPathUnits="userSpaceOnUse"
       id="clipPath4657">
      <circle
         style="fill:#4285f4;fill-opacity:1;stroke:none;stroke-width:10;stroke-linejoin:round;stroke-miterlimit:4;stroke-dasharray:none;stroke-opacity:0.25882353"
         id="circle4659"
         cx="128"
         cy="924.36218"
         r="128" />
    </clipPath>
    <clipPath
       id="clipPath1256"
       clipPathUnits="userSpaceOnUse">
      <circle
         style="fill:#4285f4;fill-opacity:1;stroke:none;stroke-width:10;stroke-linejoin:round;stroke-miterlimit:4;stroke-dasharray:none;stroke-opacity:0.25882353"
         id="circle1258"
         cx="128"
         cy="924.36218"
         r="128" />
    </clipPath>
    <clipPath
       clipPathUnits="userSpaceOnUse"
       id="clipPath2229">
      <circle
         style="fill:#40c6ff;fill-opacity:1;stroke:none;stroke-width:10;stroke-linejoin:round;stroke-miterlimit:4;stroke-dasharray:none;stroke-opacity:0.25882353"
         id="circle2231"
         cx="128"
         cy="128.00002"
         r="128" />
    </clipPath>
  </defs>
  <metadata
     id="metadata7">
    <rdf:RDF>
      <cc:Work
         rdf:about="">
        <dc:format>image/svg+xml</dc:format>
        <dc:type
           rdf:resource="http://purl.org/dc/dcmitype/StillImage" />
        <dc:title />
      </cc:Work>
    </rdf:RDF>
  </metadata>
  <g
     inkscape:label="Layer 1"
     inkscape:groupmode="layer"
     id="layer1"
     transform="translate(0,-796.36216)">
    <g
       id="g952"
       transform="translate(175,44.999977)">
      <path
         d="M 81,879.36218 A 128,128 0 0 1 16.999998,990.21344 128,128 0 0 1 -111,990.21343 128,128 0 0 1 -175,879.36218 l 128,0 z"
         sodipodi:end="3.1415927"
         sodipodi:start="0"
         sodipodi:ry="128"
         sodipodi:rx="128"
         sodipodi:cy="879.36218"
         sodipodi:cx="-47"
         sodipodi:type="arc"
         id="path886"
         style="opacity:1;fill:#708d9c;fill-opacity:1;stroke:none;stroke-width:53.47665405;stroke-miterlimit:4;stroke-dasharray:none;stroke-opacity:1" />
      <path
         transform="scale(1,-1)"
         style="opacity:1;fill:#485d68;fill-opacity:1;stroke:none;stroke-width:53.47665405;stroke-miterlimit:4;stroke-dasharray:none;stroke-opacity:1"
         id="path888"
         sodipodi:type="arc"
         sodipodi:cx="-47"
         sodipodi:cy="-879.36218"
         sodipodi:rx="128"
         sodipodi:ry="128"
         sodipodi:start="0"
         sodipodi:end="3.1415927"
         d="m 81,-879.36218 a 128,128 0 0 1 -64.000002,110.85125 128,128 0 0 1 -127.999998,0 128,128 0 0 1 -64,-110.85126 l 128,1e-5 z" />
    </g>
    <path
       style="fill:none;fill-rule:evenodd;stroke:none;stroke-width:1px;stroke-linecap:butt;stroke-linejoin:miter;stroke-opacity:1"
       d="M 154.47438,968.80998 101.03985,1048.476 0.4857685,1048.9618 0,842.0244 l 33.032258,-2.42884 45.176471,83.55218 21.373814,35.4611 26.717267,13.11575 z"
       id="path4913"
       inkscape:connector-curvature="0" />
    <g
       id="g1190"
       inkscape:transform-center-x="-0.30188679"
       inkscape:transform-center-y="78.792451"
       transform="matrix(1,0,0,-1,0,1985.6583)" />
    <text
       xml:space="preserve"
       style="font-style:normal;font-weight:normal;line-height:0%;font-family:sans-serif;letter-spacing:0px;word-spacing:0px;fill:#000000;fill-opacity:1;stroke:none;stroke-width:1px;stroke-linecap:butt;stroke-linejoin:miter;stroke-opacity:1"
       x="120"
       y="927.36218"
       id="text4914"><tspan
         sodipodi:role="line"
         id="tspan4916"
         x="120"
         y="927.36218"
         style="font-size:40px;line-height:1.25"> </tspan></text>
    <path
       sodipodi:nodetypes="cssscc"
       inkscape:connector-curvature="0"
       id="rect1002"
       d="m 138.37628,829.36216 v 95.77741 c 0,6.02962 -4.85418,10.8838 -10.8838,10.8838 -6.02962,0 -10.8838,-4.85418 -10.8838,-10.8838 v -95.77741 z"
       style="fill:#cacaca;fill-opacity:1;stroke:none;stroke-width:0.8707037" />
    <path
       inkscape:transform-center-y="-69.565975"
       inkscape:transform-center-x="0.25876011"
       style="fill:#f44336;fill-opacity:1;stroke:none;stroke-width:0.77861881"
       d="m 136.82145,831.69441 v 89.355 c 0,5.62531 -4.16072,10.15399 -9.32897,10.15399 -5.16825,0 -9.32897,-4.52868 -9.32897,-10.15399 v -89.355 z"
       id="path1005"
       inkscape:connector-curvature="0"
       sodipodi:nodetypes="cssscc" />
    <path
       sodipodi:nodetypes="cssscc"
       inkscape:connector-curvature="0"
       id="path1035"
       d="M 174.20843,840.80963 137.556,929.29642 c -2.30744,5.57065 -8.64973,8.19771 -14.22037,5.89027 -5.57065,-2.30743 -8.1977,-8.64972 -5.89027,-14.22037 l 36.65243,-88.48679 z"
       style="fill:#cacaca;fill-opacity:1;stroke:none;stroke-width:0.8707037" />
    <path
       inkscape:transform-center-y="-69.565975"
       inkscape:transform-center-x="0.25876011"
       style="fill:#e91e63;fill-opacity:1;stroke:none;stroke-width:0.77861881"
       d="m 171.87944,842.36934 -34.19468,82.55326 c -2.15271,5.19711 -7.72977,7.78883 -12.50461,5.81102 -4.77484,-1.9778 -6.88579,-7.754 -4.73308,-12.9511 l 34.19468,-82.55326 z"
       id="path1037"
       inkscape:connector-curvature="0"
       sodipodi:nodetypes="cssscc" />
    <path
       style="fill:#cacaca;fill-opacity:1;stroke:none;stroke-width:0.8707037"
       d="m 202.92324,865.10082 -67.72486,67.72486 c -4.26358,4.26358 -11.12843,4.26359 -15.39201,0 -4.26359,-4.26359 -4.26359,-11.12843 0,-15.39202 l 67.72486,-67.72485 z"
       id="path1041"
       inkscape:connector-curvature="0"
       sodipodi:nodetypes="cssscc" />
    <path
       sodipodi:nodetypes="cssscc"
       inkscape:connector-curvature="0"
       id="path1043"
       d="m 200.17466,865.65054 -63.18353,63.18353 c -3.97769,3.97769 -10.12203,4.23788 -13.77653,0.58338 -3.65451,-3.6545 -3.39432,-9.79884 0.58338,-13.77653 l 63.18353,-63.18354 z"
       style="fill:#9c27b0;fill-opacity:1;stroke:none;stroke-width:0.77861881"
       inkscape:transform-center-x="0.25876011"
       inkscape:transform-center-y="-69.565975" />
    <path
       sodipodi:nodetypes="cssscc"
       inkscape:connector-curvature="0"
       id="path1047"
       d="m 220.15252,898.53426 -88.48678,36.65243 c -5.57065,2.30743 -11.91294,-0.31962 -14.22038,-5.89027 -2.30743,-5.57064 0.31963,-11.91293 5.89028,-14.22037 l 88.48679,-36.65242 z"
       style="fill:#cacaca;fill-opacity:1;stroke:none;stroke-width:0.8707037" />
    <path
       inkscape:transform-center-y="-69.565975"
       inkscape:transform-center-x="0.25876011"
       style="fill:#673ab7;fill-opacity:1;stroke:none;stroke-width:0.77861881"
       d="m 217.4028,897.9903 -82.55326,34.19468 c -5.19711,2.15271 -10.9733,0.0418 -12.95111,-4.73308 -1.9778,-4.77484 0.61392,-10.3519 5.81103,-12.50461 l 82.55326,-34.19468 z"
       id="path1049"
       inkscape:connector-curvature="0"
       sodipodi:nodetypes="cssscc" />
    <path
       style="fill:#cacaca;fill-opacity:1;stroke:none;stroke-width:0.8707037"
       d="m 80.547715,840.80963 36.652425,88.48679 c 2.30744,5.57065 8.64973,8.19771 14.22037,5.89027 5.57065,-2.30743 8.1977,-8.64972 5.89027,-14.22037 l -36.65243,-88.48679 z"
       id="path1090"
       inkscape:connector-curvature="0"
       sodipodi:nodetypes="cssscc" />
    <path
       sodipodi:nodetypes="cssscc"
       inkscape:connector-curvature="0"
       id="path1092"
       d="m 82.876701,842.36934 34.194679,82.55326 c 2.15271,5.19711 7.72977,7.78883 12.50461,5.81102 4.77484,-1.9778 6.88579,-7.754 4.73308,-12.9511 l -34.19468,-82.55326 z"
       style="fill:#ff9800;fill-opacity:1;stroke:none;stroke-width:0.77861881"
       inkscape:transform-center-x="0.25876011"
       inkscape:transform-center-y="-69.565975" />
    <path
       sodipodi:nodetypes="cssscc"
       inkscape:connector-curvature="0"
       id="path1096"
       d="m 51.8329,865.10082 67.72486,67.72486 c 4.26358,4.26358 11.12843,4.26359 15.39201,0 4.26359,-4.26359 4.26359,-11.12843 0,-15.39202 L 67.224913,849.70881 Z"
       style="fill:#cacaca;fill-opacity:1;stroke:none;stroke-width:0.8707037" />
    <path
       inkscape:transform-center-y="-69.565975"
       inkscape:transform-center-x="0.25876011"
       style="fill:#ffc107;fill-opacity:1;stroke:none;stroke-width:0.77861881"
       d="m 54.581478,865.65054 63.183532,63.18353 c 3.97769,3.97769 10.12203,4.23788 13.77653,0.58338 3.65451,-3.6545 3.39432,-9.79884 -0.58338,-13.77653 L 67.774632,852.45738 Z"
       id="path1098"
       inkscape:connector-curvature="0"
       sodipodi:nodetypes="cssscc" />
    <path
       style="fill:#cacaca;fill-opacity:1;stroke:none;stroke-width:0.8707037"
       d="m 34.603615,898.53426 88.486785,36.65243 c 5.57065,2.30743 11.91294,-0.31962 14.22038,-5.89027 2.30743,-5.57064 -0.31963,-11.91293 -5.89028,-14.22037 L 42.933713,878.42363 Z"
       id="path1102"
       inkscape:connector-curvature="0"
       sodipodi:nodetypes="cssscc" />
    <path
       sodipodi:nodetypes="cssscc"
       inkscape:connector-curvature="0"
       id="path1104"
       d="m 37.353339,897.9903 82.553261,34.19468 c 5.19711,2.15271 10.9733,0.0418 12.95111,-4.73308 1.9778,-4.77484 -0.61392,-10.3519 -5.81103,-12.50461 L 44.493422,880.75261 Z"
       style="fill:#cddc39;fill-opacity:1;stroke:none;stroke-width:0.77861881"
       inkscape:transform-center-x="0.25876011"
       inkscape:transform-center-y="-69.565975" />
    <path
       sodipodi:nodetypes="cssscc"
       inkscape:connector-curvature="0"
       id="path1160"
       d="m 80.547725,1010.1872 36.652425,-88.4868 c 2.30744,-5.57065 8.64973,-8.19771 14.22037,-5.89027 5.57065,2.30743 8.1977,8.64972 5.89027,14.22037 l -36.65243,88.4868 z"
       style="fill:#cacaca;fill-opacity:1;stroke:none;stroke-width:0.8707037" />
    <path
       inkscape:transform-center-y="-69.565975"
       inkscape:transform-center-x="0.25876011"
       style="fill:#00bcd4;fill-opacity:1;stroke:none;stroke-width:0.77861881"
       d="m 82.876711,1008.6275 34.194679,-82.55328 c 2.15271,-5.19711 7.72977,-7.78883 12.50461,-5.81102 4.77484,1.9778 6.88579,7.754 4.73308,12.9511 l -34.19468,82.5533 z"
       id="path1162"
       inkscape:connector-curvature="0"
       sodipodi:nodetypes="cssscc" />
    <path
       style="fill:#cacaca;fill-opacity:1;stroke:none;stroke-width:0.8707037"
       d="m 51.83291,985.89605 67.72486,-67.72486 c 4.26358,-4.26358 11.12843,-4.26359 15.39201,0 4.26359,4.26359 4.26359,11.12843 0,15.39202 l -67.724857,67.72489 z"
       id="path1166"
       inkscape:connector-curvature="0"
       sodipodi:nodetypes="cssscc" />
    <path
       sodipodi:nodetypes="cssscc"
       inkscape:connector-curvature="0"
       id="path1168"
       d="M 54.581488,985.34633 117.76502,922.1628 c 3.97769,-3.97769 10.12203,-4.23788 13.77653,-0.58338 3.65451,3.6545 3.39432,9.79884 -0.58338,13.77653 l -63.183528,63.18354 z"
       style="fill:#009688;fill-opacity:1;stroke:none;stroke-width:0.77861881"
       inkscape:transform-center-x="0.25876011"
       inkscape:transform-center-y="-69.565975" />
    <path
       sodipodi:nodetypes="cssscc"
       inkscape:connector-curvature="0"
       id="path1172"
       d="m 34.603625,952.46255 88.486785,-36.65243 c 5.57065,-2.30743 11.91294,0.31962 14.22038,5.89027 2.30743,5.57064 -0.31963,11.91293 -5.89028,14.22037 l -88.486787,36.65242 z"
       style="fill:#cacaca;fill-opacity:1;stroke:none;stroke-width:0.8707037" />
    <path
       inkscape:transform-center-y="-69.565975"
       inkscape:transform-center-x="0.25876011"
       style="fill:#4caf50;fill-opacity:1;stroke:none;stroke-width:0.77861881"
       d="m 37.353349,953.00651 82.553261,-34.19468 c 5.19711,-2.15271 10.9733,-0.0418 12.95111,4.73308 1.9778,4.77484 -0.61392,10.3519 -5.81103,12.50461 L 44.493432,970.2442 Z"
       id="path1174"
       inkscape:connector-curvature="0"
       sodipodi:nodetypes="cssscc" />
    <path
       sodipodi:nodetypes="cssscc"
       inkscape:connector-curvature="0"
       id="path1186"
       d="m 138.37628,1019.3622 v -95.77741 c 0,-6.02962 -4.85418,-10.8838 -10.8838,-10.8838 -6.02962,0 -10.8838,4.85418 -10.8838,10.8838 v 95.77741 z"
       style="fill:#cacaca;fill-opacity:1;stroke:none;stroke-width:0.8707037" />
    <path
       inkscape:transform-center-y="-69.565975"
       inkscape:transform-center-x="0.25876011"
       style="fill:#f44336;fill-opacity:1;stroke:none;stroke-width:0.77861881"
       d="m 136.82145,1017.03 v -89.35505 c 0,-5.62531 -4.16072,-10.15399 -9.32897,-10.15399 -5.16825,0 -9.32897,4.52868 -9.32897,10.15399 V 1017.03 Z"
       id="path1188"
       inkscape:connector-curvature="0"
       sodipodi:nodetypes="cssscc" />
    <path
       style="fill:#cacaca;fill-opacity:1;stroke:none;stroke-width:0.8707037"
       d="m 175.45229,1010.1872 -36.65243,-88.4868 c -2.30744,-5.57065 -8.64973,-8.19771 -14.22037,-5.89027 -5.57065,2.30743 -8.1977,8.64972 -5.89027,14.22037 l 36.65243,88.4868 z"
       id="path1192"
       inkscape:connector-curvature="0"
       sodipodi:nodetypes="cssscc" />
    <path
       sodipodi:nodetypes="cssscc"
       inkscape:connector-curvature="0"
       id="path1194"
       d="m 173.1233,1008.6275 -34.19468,-82.55328 c -2.15271,-5.19711 -7.72977,-7.78883 -12.50461,-5.81102 -4.77484,1.9778 -6.88579,7.754 -4.73308,12.9511 l 34.19468,82.5533 z"
       style="fill:#03a9f4;fill-opacity:1;stroke:none;stroke-width:0.77861881"
       inkscape:transform-center-x="0.25876011"
       inkscape:transform-center-y="-69.565975" />
    <path
       sodipodi:nodetypes="cssscc"
       inkscape:connector-curvature="0"
       id="path1198"
       d="m 204.1671,985.89605 -67.72486,-67.72486 c -4.26358,-4.26358 -11.12843,-4.26359 -15.39201,0 -4.26359,4.26359 -4.26359,11.12843 0,15.39202 l 67.72486,67.72489 z"
       style="fill:#cacaca;fill-opacity:1;stroke:none;stroke-width:0.8707037" />
    <path
       inkscape:transform-center-y="-69.565975"
       inkscape:transform-center-x="0.25876011"
       style="fill:#2916f3;fill-opacity:1;stroke:none;stroke-width:0.77861881"
       d="M 201.41852,985.34633 138.23499,922.1628 c -3.97769,-3.97769 -10.12203,-4.23788 -13.77653,-0.58338 -3.65451,3.6545 -3.39432,9.79884 0.58338,13.77653 l 63.18353,63.18354 z"
       id="path1200"
       inkscape:connector-curvature="0"
       sodipodi:nodetypes="cssscc" />
    <path
       style="fill:#cacaca;fill-opacity:1;stroke:none;stroke-width:0.8707037"
       d="M 221.39638,952.46255 132.9096,915.81012 c -5.57065,-2.30743 -11.91294,0.31962 -14.22038,5.89027 -2.30743,5.57064 0.31963,11.91293 5.89028,14.22037 l 88.48679,36.65242 z"
       id="path1204"
       inkscape:connector-curvature="0"
       sodipodi:nodetypes="cssscc" />
    <path
       sodipodi:nodetypes="cssscc"
       inkscape:connector-curvature="0"
       id="path1206"
       d="M 218.64666,953.00651 136.0934,918.81183 c -5.19711,-2.15271 -10.9733,-0.0418 -12.95111,4.73308 -1.9778,4.77484 0.61392,10.3519 5.81103,12.50461 l 82.55326,34.19468 z"
       style="fill:#3f51b5;fill-opacity:1;stroke:none;stroke-width:0.77861881"
       inkscape:transform-center-x="0.25876011"
       inkscape:transform-center-y="-69.565975" />
    <path
       style="fill:#cacaca;fill-opacity:1;stroke:none;stroke-width:0.8707037"
       d="m 31.486248,913.47836 h 95.777412 c 6.02962,0 10.8838,4.85418 10.8838,10.8838 0,6.02963 -4.85418,10.8838 -10.8838,10.8838 H 31.486248 Z"
       id="path1178"
       inkscape:connector-curvature="0"
       sodipodi:nodetypes="cssscc" />
    <path
       sodipodi:nodetypes="cssscc"
       inkscape:connector-curvature="0"
       id="path1180"
       d="M 33.818497,915.03319 H 123.1735 c 5.62531,0 10.15399,4.16072 10.15399,9.32897 0,5.16825 -4.52868,9.32897 -10.15399,9.32897 H 33.818497 Z"
       style="fill:#f44336;fill-opacity:1;stroke:none;stroke-width:0.77861881"
       inkscape:transform-center-x="0.25876011"
       inkscape:transform-center-y="-69.565975" />
    <g
       id="g994"
       transform="translate(1.5e-6,-1.49511)">
      <g
         id="g981">
        <path
           sodipodi:nodetypes="cssscc"
           inkscape:connector-curvature="0"
           id="path1210"
           d="m 224.51375,914.97347 h -95.77741 c -6.02962,0 -10.8838,4.85418 -10.8838,10.8838 0,6.02963 4.85418,10.8838 10.8838,10.8838 h 95.77741 z"
           style="fill:#cacaca;fill-opacity:1;stroke:none;stroke-width:0.8707037" />
        <path
           inkscape:transform-center-y="-69.565975"
           inkscape:transform-center-x="0.25876011"
           style="fill:#f44336;fill-opacity:1;stroke:none;stroke-width:0.77861881"
           d="m 222.1815,916.5283 h -89.355 c -5.62531,0 -10.15399,4.16072 -10.15399,9.32897 0,5.16825 4.52868,9.32897 10.15399,9.32897 h 89.355 z"
           id="path1212"
           inkscape:connector-curvature="0"
           sodipodi:nodetypes="cssscc" />
      </g>
    </g>
  </g>
</svg>
