<?xml version="1.0" encoding="UTF-8" standalone="no"?>
<svg
   xmlns:dc="http://purl.org/dc/elements/1.1/"
   xmlns:cc="http://creativecommons.org/ns#"
   xmlns:rdf="http://www.w3.org/1999/02/22-rdf-syntax-ns#"
   xmlns:svg="http://www.w3.org/2000/svg"
   xmlns="http://www.w3.org/2000/svg"
   xmlns:sodipodi="http://sodipodi.sourceforge.net/DTD/sodipodi-0.dtd"
   xmlns:inkscape="http://www.inkscape.org/namespaces/inkscape"
   sodipodi:docname="cs-language.svg"
   inkscape:version="1.0 (4035a4fb49, 2020-05-01)"
   version="1.1"
   id="svg2"
   viewBox="0 0 256 256"
   height="256"
   width="256">
  <sodipodi:namedview
     inkscape:document-rotation="0"
     inkscape:window-maximized="1"
     inkscape:window-y="0"
     inkscape:window-x="0"
     inkscape:window-height="1048"
     inkscape:window-width="1920"
     units="px"
     showgrid="true"
     inkscape:current-layer="layer1"
     inkscape:document-units="px"
     inkscape:cy="128.00002"
     inkscape:cx="128"
     inkscape:zoom="3.34375"
     inkscape:pageshadow="2"
     inkscape:pageopacity="0.0"
     borderopacity="1.0"
     bordercolor="#666666"
     pagecolor="#ffffff"
     id="base">
    <inkscape:grid
       spacingy="5"
       spacingx="5"
       id="grid4168"
       type="xygrid" />
  </sodipodi:namedview>
  <defs
     id="defs4">
    <inkscape:path-effect
       fuse_tolerance="0"
       vertical_pattern="false"
       prop_units="false"
       tang_offset="0"
       normal_offset="0"
       spacing="0"
       scale_y_rel="false"
       prop_scale="1"
       copytype="single_stretched"
       pattern="M 0,0 1,0"
       is_visible="true"
       id="path-effect4235"
       effect="skeletal" />
    <clipPath
       id="clipPath5002"
       clipPathUnits="userSpaceOnUse">
      <g
         id="g5004">
        <path
           style="fill:#0f9d58;fill-opacity:1;stroke:none;stroke-width:4.85768509;stroke-linejoin:round;stroke-miterlimit:4;stroke-dasharray:none;stroke-opacity:1"
           d="M 88.118406,249.43519 C 46.103287,235.29134 14.771284,201.68742 4.1335861,159.36053 1.3377997,148.23623 0.92261224,144.16281 0.92582381,127.88908 0.92787958,117.47222 1.134384,112.01362 1.6577819,108.54099 4.4653598,89.913336 12.17654,70.638106 23.042737,55.086148 c 3.958678,-5.665755 8.344812,-10.93092 9.101533,-10.925587 0.32809,0.0023 10.488643,18.309713 22.579009,40.683112 12.090365,22.373397 22.374546,41.334697 22.853732,42.136217 0.479186,0.80151 0.924733,2.44098 0.990103,3.64326 0.343424,6.31639 2.524175,14.20976 5.6424,20.42304 2.954444,5.88693 5.065381,8.73258 10.434696,14.06652 6.71418,6.66995 12.88853,10.28643 21.73204,12.72904 3.16587,0.87442 5.10478,1.05037 11.57517,1.05037 8.82596,0 12.60219,-0.76201 19.26429,-3.88733 2.04584,-0.95974 3.93661,-1.66536 4.20172,-1.56805 0.2651,0.0973 -11.0555,17.66459 -25.1569,39.0384 l -25.6389,38.86148 -3.094121,0.11221 c -2.554618,0.0927 -4.195204,-0.25845 -9.409103,-2.01364 z"
           id="path5006"
           inkscape:connector-curvature="0"
           transform="translate(0,796.36216)" />
        <path
           style="fill:#f4b400;fill-opacity:1;stroke:none;stroke-width:4.85768509;stroke-linejoin:round;stroke-miterlimit:4;stroke-dasharray:none;stroke-opacity:1"
           d="m 112.35984,1051.5167 c -10.0014,-1.4495 -12.15632,-1.8201 -12.531784,-2.1556 -0.248854,-0.2223 1.738304,-3.7475 4.550294,-8.0722 7.16635,-11.0213 49.77231,-74.64801 50.25856,-75.05489 3.57509,-2.99158 8.63523,-8.0414 10.57512,-10.55356 3.36154,-4.35318 7.55784,-12.9141 9.06523,-18.494 6.19314,-22.92535 -2.59253,-47.15185 -21.69967,-59.83688 l -2.96081,-1.96565 17.02469,0.29584 c 9.36358,0.1627 31.17032,0.43384 48.45941,0.60252 l 31.43471,0.30668 1.54584,4.18869 c 2.24597,6.08579 4.67816,15.0947 5.93451,21.9816 1.52517,8.36049 1.92536,28.85896 0.73851,37.82758 -3.0805,23.27845 -12.81326,45.72018 -27.80202,64.10577 -20.47622,25.1166 -51.4599,42.1974 -84.14612,46.3885 -5.31244,0.6812 -26.64601,0.9864 -30.44647,0.4356 z"
           id="path5008"
           inkscape:connector-curvature="0" />
        <path
           style="fill:#db4437;fill-opacity:1;stroke:none;stroke-width:10;stroke-linejoin:round;stroke-miterlimit:4;stroke-dasharray:none;stroke-opacity:1"
           d="M 67.989788,108.87302 C 41.284246,59.575543 33.290284,45.149038 32.233625,44.344765 31.651257,43.901497 32.811213,42.549931 38.695603,36.815353 53.43581,22.450419 68.809334,13.040746 87.839196,6.7360352 101.68742,2.1480329 112.58238,0.43719165 127.95142,0.43719165 c 21.3099,0 37.80488,3.80960275 56.83492,13.12633035 25.29351,12.383198 46.19421,33.578863 58.51993,59.345832 1.61138,3.368591 2.92978,6.372442 2.92978,6.675231 0,0.560033 -10.54865,0.49527 -71.16508,-0.436914 l -24.28843,-0.373518 -3.93063,-1.764495 c -6.75732,-3.033425 -10.64587,-3.839529 -18.6576,-3.867747 -5.0296,-0.01773 -7.97946,0.207636 -10.31642,0.788106 -14.50826,3.603659 -26.283291,12.94777 -33.291614,26.418653 -3.58502,6.89086 -5.24713,13.08166 -6.331628,23.58317 l -0.33738,3.26696 -9.92748,-18.32578 z"
           id="path5010"
           inkscape:connector-curvature="0"
           transform="translate(0,796.36216)" />
      </g>
    </clipPath>
    <clipPath
       clipPathUnits="userSpaceOnUse"
       id="clipPath4271">
      <circle
         style="fill:#292929;fill-opacity:0.26020412;stroke:none;stroke-width:10;stroke-linejoin:round;stroke-miterlimit:4;stroke-dasharray:none;stroke-opacity:0.25882353"
         id="circle4273"
         cx="128"
         cy="128.00002"
         r="128" />
    </clipPath>
    <clipPath
       id="clipPath4363"
       clipPathUnits="userSpaceOnUse">
      <circle
         style="fill:#4285f4;fill-opacity:1;stroke:none;stroke-width:10;stroke-linejoin:round;stroke-miterlimit:4;stroke-dasharray:none;stroke-opacity:0.25882353"
         id="circle4365"
         cx="128"
         cy="924.36218"
         r="128" />
    </clipPath>
    <clipPath
       clipPathUnits="userSpaceOnUse"
       id="clipPath4452">
      <circle
         style="fill:#4285f4;fill-opacity:1;stroke:none;stroke-width:10;stroke-linejoin:round;stroke-miterlimit:4;stroke-dasharray:none;stroke-opacity:0.25882353"
         id="circle4454"
         cx="128"
         cy="924.36218"
         r="128" />
    </clipPath>
    <clipPath
       id="clipPath5177"
       clipPathUnits="userSpaceOnUse">
      <circle
         style="fill:#4285f4;fill-opacity:1;stroke:none;stroke-width:10;stroke-linejoin:round;stroke-miterlimit:4;stroke-dasharray:none;stroke-opacity:0.25882353"
         id="circle5179"
         cx="128"
         cy="924.36218"
         r="128" />
    </clipPath>
    <clipPath
       clipPathUnits="userSpaceOnUse"
       id="clipPath4342">
      <circle
         style="fill:#4285f4;fill-opacity:1;stroke:none;stroke-width:10;stroke-linejoin:round;stroke-miterlimit:4;stroke-dasharray:none;stroke-opacity:0.25882353"
         id="circle4344"
         cx="128"
         cy="933.48718"
         r="128" />
    </clipPath>
    <clipPath
       id="clipPath4681"
       clipPathUnits="userSpaceOnUse">
      <circle
         style="fill:#9d5fad;fill-opacity:1;stroke:none;stroke-width:10;stroke-linejoin:round;stroke-miterlimit:4;stroke-dasharray:none;stroke-opacity:0.25882353"
         id="circle4683"
         cx="127.00293"
         cy="930.43964"
         r="128" />
    </clipPath>
    <clipPath
       clipPathUnits="userSpaceOnUse"
       id="clipPath4480">
      <circle
         style="fill:#df7618;fill-opacity:1;stroke:none;stroke-width:10;stroke-linejoin:round;stroke-miterlimit:4;stroke-dasharray:none;stroke-opacity:0.25882353"
         id="circle4482"
         cx="128"
         cy="924.36218"
         r="128" />
    </clipPath>
    <clipPath
       id="clipPath11131"
       clipPathUnits="userSpaceOnUse">
      <circle
         style="fill:#358bde;fill-opacity:1;stroke:none;stroke-width:10;stroke-linejoin:round;stroke-miterlimit:4;stroke-dasharray:none;stroke-opacity:0.25882353"
         id="circle11133"
         cx="128"
         cy="924.36218"
         r="128" />
    </clipPath>
  </defs>
  <metadata
     id="metadata7">
    <rdf:RDF>
      <cc:Work
         rdf:about="">
        <dc:format>image/svg+xml</dc:format>
        <dc:type
           rdf:resource="http://purl.org/dc/dcmitype/StillImage" />
        <dc:title />
      </cc:Work>
    </rdf:RDF>
  </metadata>
  <g
     inkscape:label="Layer 1"
     inkscape:groupmode="layer"
     id="layer1"
     transform="translate(0,-796.36216)">
    <path
       transform="scale(1,-1)"
       style="fill:#1a5e9f;fill-opacity:1;stroke:none;stroke-width:10;stroke-linejoin:round;stroke-miterlimit:4;stroke-dasharray:none;stroke-opacity:0.258824"
       id="path2944"
       sodipodi:type="arc"
       sodipodi:cx="128"
       sodipodi:cy="-924.36218"
       sodipodi:rx="128"
       sodipodi:ry="128"
       sodipodi:start="0"
       sodipodi:end="3.1415927"
       sodipodi:open="true"
       sodipodi:arc-type="arc"
       d="m 256,-924.36218 a 128,128 0 0 1 -64,110.85125 128,128 0 0 1 -128.000003,0 A 128,128 0 0 1 0,-924.36218" />
    <path
       style="fill:none;fill-rule:evenodd;stroke:none;stroke-width:1px;stroke-linecap:butt;stroke-linejoin:miter;stroke-opacity:1"
       d="M 154.47438,968.80998 101.03985,1048.476 0.4857685,1048.9618 0,842.0244 l 33.032258,-2.42884 45.176471,83.55218 21.373814,35.4611 26.717267,13.11575 z"
       id="path4913"
       inkscape:connector-curvature="0" />
    <path
       d="m 256,924.36218 a 128,128 0 0 1 -64,110.85122 128,128 0 0 1 -128.000003,0 A 128,128 0 0 1 0,924.36218"
       sodipodi:arc-type="arc"
       sodipodi:open="true"
       sodipodi:end="3.1415927"
       sodipodi:start="0"
       sodipodi:ry="128"
       sodipodi:rx="128"
       sodipodi:cy="924.36218"
       sodipodi:cx="128"
       sodipodi:type="arc"
       id="path4152"
       style="fill:#358bde;fill-opacity:1;stroke:none;stroke-width:10;stroke-linejoin:round;stroke-miterlimit:4;stroke-dasharray:none;stroke-opacity:0.258824" />
    <text
       xml:space="preserve"
       style="font-style:normal;font-weight:normal;line-height:0%;font-family:sans-serif;letter-spacing:0px;word-spacing:0px;fill:#000000;fill-opacity:1;stroke:none;stroke-width:1px;stroke-linecap:butt;stroke-linejoin:miter;stroke-opacity:1"
       x="120"
       y="927.36218"
       id="text4914"><tspan
         style="font-size:40px;line-height:1.25"
         sodipodi:role="line"
         id="tspan4916"
         x="120"
         y="927.36218"> </tspan></text>
    <path
       inkscape:connector-curvature="0"
       id="path4816"
       d="m 107.7079,998.79183 c -0.3904,-0.3149 -0.83914,-0.6818 -0.99721,-0.815 -0.54669,-0.4609 -1.46338,-1.2038 -1.74131,-1.4111 -0.15346,-0.1143 -0.27903,-0.2389 -0.27903,-0.2763 0,-0.067 0.53625,-0.607 1.67448,-1.6848 2.07023,-1.9601 4.37175,-3.8969 6.52033,-5.4873 0.3877,-0.2868 0.85031,-0.63261 1.02801,-0.76814 0.59004,-0.44998 3.18624,-2.16738 4.22958,-2.79779 2.04374,-1.2349 2.97079,-1.74817 4.93268,-2.7312 0.79244,-0.39706 1.3987,-0.73366 1.35111,-0.75016 -0.19575,-0.0684 -0.84708,-0.21886 -1.33145,-0.30831 -0.79033,-0.14614 -2.38569,-0.13353 -3.24875,0.0259 -1.92541,0.35486 -3.84716,1.23466 -6.16814,2.82407 -0.81117,0.55545 -2.66725,1.88428 -3.17218,2.27121 -0.4179,0.32009 -2.42811,1.64916 -2.72484,1.80162 -0.12552,0.065 -0.4956,0.2973 -0.82241,0.5176 -1.69846,1.1445 -3.90181,2.2501 -5.88118,2.9507 -4.420244,1.5647 -8.503884,1.9852 -12.659364,1.3034 -1.834152,-0.3009 -3.49774,-0.8305 -5.933157,-1.8891 -2.383737,-1.036 -4.725364,-2.4875 -6.520598,-4.04179 -0.570058,-0.49358 -1.737165,-1.65388 -2.035742,-2.02394 -0.09122,-0.11315 -0.251871,-0.29818 -0.35694,-0.41121 -0.10501,-0.11314 -0.191269,-0.24019 -0.191551,-0.2825 -5.9e-4,-0.0872 0.03642,-0.0695 0.410693,0.19376 0.933045,0.65752 2.805556,1.53979 4.46456,2.1035 1.038325,0.35286 2.812085,0.76359 3.965226,0.91833 0.258471,0.0342 0.694645,0.0931 0.969285,0.12894 0.274629,0.0365 1.299672,0.079 2.277879,0.0943 1.895115,0.0307 2.949385,-0.0353 4.565805,-0.28721 1.78692,-0.27814 3.74393,-0.81274 5.22822,-1.42771 0.49145,-0.20366 0.68356,-0.2884 1.38049,-0.60885 0.4536,-0.2086 3.451924,-1.53225 4.376444,-1.9319 3.14488,-1.35994 6.00785,-2.43785 8.07731,-3.04116 3.8268,-1.11563 6.6274,-1.56216 9.81027,-1.56446 1.88284,0 3.77108,0.16494 5.13738,0.45237 0.22523,0.0471 0.66649,0.12469 0.98057,0.17195 0.57267,0.086 0.90071,0.18079 2.04749,0.59128 0.56601,0.2026 0.67003,0.22122 1.26299,0.22487 0.6857,0.0118 0.87374,-0.0519 1.35113,-0.40742 0.21083,-0.15687 0.37814,-0.2105 1.26299,-0.40484 3.79864,-0.83425 8.10916,-0.93696 12.27752,-0.29264 3.69364,0.57102 7.11385,1.64516 10.5152,3.30233 0.59773,0.29123 1.23216,0.58198 1.40985,0.64633 0.17771,0.0648 0.60067,0.22781 0.93992,0.36358 0.33925,0.13577 0.77542,0.30784 0.96928,0.38245 0.19385,0.0743 1.34376,0.53118 2.55536,1.01474 2.79506,1.11539 3.66368,1.40402 5.2576,1.74698 5.81735,1.25152 12.31238,0.32399 16.88893,-2.41204 0.30695,-0.1835 0.71008,-0.43843 0.89586,-0.56642 0.18578,-0.12799 0.33778,-0.20507 0.33778,-0.17125 0,0.11433 -1.03817,1.2639 -1.88841,2.09019 -3.95442,3.84314 -9.33927,6.42684 -14.64806,7.02824 -0.92407,0.1049 -4.19897,0.1049 -4.93451,0 -1.78616,-0.2535 -2.29427,-0.3465 -3.59386,-0.6583 -3.79194,-0.9098 -8.29474,-3.0825 -11.89632,-5.74024 -0.30082,-0.22204 -0.87741,-0.62428 -1.28127,-0.89382 -0.40387,-0.26966 -0.99864,-0.67956 -1.32175,-0.91091 -2.66983,-1.91187 -3.92846,-2.57964 -5.61006,-2.97634 -0.96479,-0.22747 -3.51555,-0.20778 -5.02262,0.0389 -0.88202,0.14437 -0.90554,0.10843 0.53455,0.82629 0.70752,0.35298 1.61439,0.82016 2.01525,1.0382 0.40086,0.21803 0.73574,0.39658 0.74418,0.39658 0.008,0 0.21656,0.11892 0.46249,0.26435 0.24592,0.14544 0.45799,0.26435 0.47127,0.26435 0.0359,0 2.13261,1.26814 2.90967,1.75995 3.67512,2.32579 8.01697,5.72629 11.27221,8.82839 l 0.55139,0.5254 -0.55139,0.558 c -0.81489,0.8248 -2.69691,2.4663 -3.05341,2.6631 -0.0729,0.04 -0.22102,-0.086 -0.67555,-0.5761 -2.9067,-3.1346 -6.18615,-6.2898 -8.80588,-8.4722 -0.29056,-0.2422 -0.58135,-0.4881 -0.64618,-0.5467 -0.0648,-0.058 -0.26326,-0.2167 -0.44096,-0.3513 -0.17769,-0.1345 -0.50813,-0.3934 -0.7343,-0.5753 -0.98554,-0.79246 -3.04632,-2.24563 -4.25895,-3.00321 -1.27694,-0.79777 -1.98073,-1.20131 -3.29218,-1.88735 l -0.73681,-0.38551 -0.43299,0.0896 c -0.56591,0.11668 -1.12052,0.34108 -2.17002,0.87638 -1.28276,0.65434 -1.51936,0.7927 -2.70568,1.58246 -3.24232,2.15842 -5.73175,4.09543 -8.49116,6.60683 -1.45607,1.3252 -4.31469,4.363 -5.22823,5.5558 -0.0969,0.1266 -0.28277,0.3631 -0.41299,0.5255 -0.13022,0.1625 -0.31527,0.4072 -0.41121,0.5438 -0.0959,0.1366 -0.20153,0.2489 -0.23463,0.2496 -0.033,7e-4 -0.37959,-0.2564 -0.77,-0.5715 z M 80.987092,984.20854 c -1.58209,-0.11196 -3.536241,-0.42994 -4.903138,-0.79659 -0.875684,-0.23477 -2.718425,-0.86176 -3.526648,-1.19977 -0.788387,-0.32977 -2.308285,-1.07603 -3.07976,-1.5121 -3.558587,-2.01131 -6.861721,-4.94664 -9.107801,-8.0934 -0.673973,-0.94429 -1.676046,-2.60121 -1.676046,-2.77127 0,-0.0248 0.298294,0.25899 0.662894,0.6297 1.958418,1.9914 4.12121,3.41575 6.722733,4.42757 0.752877,0.29275 1.749246,0.63412 2.160293,0.74011 1.328853,0.34252 1.81422,0.46318 2.085408,0.51851 0.177703,0.0363 0.512167,0.10583 0.74326,0.15451 0.231092,0.0486 0.614396,0.11727 0.851794,0.15221 0.237386,0.0344 0.577013,0.0857 0.754716,0.11385 0.805029,0.12542 1.22567,0.18111 1.980468,0.26225 1.933444,0.20782 2.68367,0.26457 7.800434,0.59003 3.619577,0.23017 6.324807,0.53468 8.341667,0.93898 0.42001,0.0839 1.04123,0.20401 1.38048,0.26633 0.33925,0.0619 0.9737,0.19419 1.40986,0.29329 0.96856,0.22 2.03515,0.33031 2.40851,0.24917 l 0.26435,-0.0574 -0.38185,-0.17669 c -0.38804,-0.17953 -1.13062,-0.39193 -2.08541,-0.59638 -1.15933,-0.24829 -2.27005,-0.66409 -3.81837,-1.42931 -1.88046,-0.92943 -3.764702,-2.57769 -5.258024,-4.59965 -1.152304,-1.56022 -1.948093,-2.95629 -3.905932,-6.85234 -0.791181,-1.57444 -1.518012,-2.99751 -1.615161,-3.16227 -0.09711,-0.16477 -0.176655,-0.31018 -0.176655,-0.32308 0,-0.10442 -1.415571,-2.35379 -1.873337,-2.97688 -0.142406,-0.19375 -0.02381,-0.18499 0.250763,0.0185 0.145918,0.10819 0.399756,0.28922 0.564095,0.40228 0.285613,0.19658 1.552532,1.1163 1.675291,1.21627 0.03229,0.0265 0.177704,0.13921 0.323092,0.25086 0.348076,0.26747 1.985701,1.57798 2.17354,1.73938 2.176215,1.87033 2.854785,2.47776 4.522688,4.04849 0.73638,0.69343 2.83643,2.69835 3.72935,3.56044 0.38853,0.37504 0.78728,0.75841 0.88609,0.85175 0.0988,0.0935 0.66716,0.63501 1.263,1.20355 0.59584,0.56853 1.2023,1.13919 1.34769,1.26807 2.26298,2.00694 5.58008,3.78354 9.075964,4.86104 0.38772,0.11951 0.82389,0.25404 0.96929,0.29894 0.4822,0.14885 2.07448,0.54652 2.81971,0.70431 0.96133,0.20342 0.94355,0.19649 0.75656,0.29547 -0.15562,0.0825 -1.24096,0.24573 -2.69512,0.40566 -0.72427,0.079 -2.11863,0.39953 -4.49392,1.031 -0.485594,0.12917 -1.107074,0.29205 -2.672864,0.7009 -5.12151,1.33731 -8.35537,1.96843 -11.629223,2.26955 -1.157302,0.10607 -4.034538,0.15475 -5.024731,0.0837 z m 90.172238,-0.53495 c -2.93468,-0.17089 -6.5617,-0.8059 -11.54323,-2.021 -1.05788,-0.2581 -1.37227,-0.33306 -3.64213,-0.86942 -1.7835,-0.42146 -2.84123,-0.64633 -4.46455,-0.94969 -0.56826,-0.10607 -1.89211,-0.29623 -2.48195,-0.35634 -0.23278,-0.0239 -0.39642,-0.0681 -0.39628,-0.10701 0,-0.0381 0.63257,-0.22186 1.48328,-0.43073 5.19595,-1.27559 8.64757,-2.8693 11.52831,-5.3228 0.22616,-0.19269 1.74787,-1.67503 3.38157,-3.2942 5.80794,-5.75627 7.09781,-6.97144 9.689,-9.12715 1.59306,-1.32545 4.14224,-3.23472 4.21781,-3.15914 0.0153,0.0151 -0.12983,0.24679 -0.32264,0.51427 -0.98557,1.36725 -1.91564,3.02221 -2.89782,5.15657 -0.18584,0.40386 -0.449,0.97222 -0.58478,1.26303 -0.1358,0.29073 -0.44029,0.95163 -0.67669,1.46855 -2.39684,5.2414 -4.46949,7.77719 -7.95316,9.73013 -1.45882,0.8178 -2.3105,1.16324 -4.3246,1.75388 -0.90263,0.26473 -1.73941,0.55669 -1.96793,0.68671 -0.13128,0.0752 -0.072,0.0805 0.55808,0.0539 0.8707,-0.0371 1.94204,-0.1949 3.43652,-0.50728 2.05765,-0.43011 2.08755,-0.43524 4.40582,-0.75946 1.68384,-0.23557 3.29583,-0.39971 6.37374,-0.64907 0.42001,-0.0345 1.06767,-0.0876 1.43922,-0.118 0.37157,-0.0309 1.03243,-0.0839 1.46861,-0.11862 0.91084,-0.0715 2.99898,-0.27623 3.2603,-0.31927 0.0969,-0.0159 0.49344,-0.0699 0.88117,-0.1188 1.88894,-0.24043 3.9273,-0.64589 5.37508,-1.06902 1.02153,-0.29859 1.22044,-0.36338 1.92169,-0.62626 3.06426,-1.14875 5.52198,-2.81378 7.6203,-5.16264 0.22347,-0.25015 0.41743,-0.44363 0.43103,-0.43002 0.0338,0.0336 -0.6471,1.37079 -0.97419,1.91289 -1.04745,1.73576 -1.98,2.91358 -3.56203,4.49899 -1.52659,1.52971 -2.81378,2.586 -4.55564,3.73828 -1.53228,1.01368 -2.78777,1.70585 -4.61142,2.54239 -0.47189,0.21639 -1.86937,0.74085 -2.81563,1.05658 -2.86394,0.95558 -6.17617,1.34486 -9.69686,1.13991 z m -86.500733,-8.03771 c -0.104774,-0.0611 -1.154814,-0.37036 -1.938558,-0.57127 -1.751922,-0.44904 -4.105287,-0.89639 -7.695471,-1.46299 -5.770855,-0.91061 -9.058148,-1.82962 -11.972238,-3.34706 -0.965714,-0.50285 -3.239774,-1.95425 -4.515391,-2.88194 -0.479192,-0.34852 -0.884488,-0.64897 -0.900634,-0.66779 -0.01615,-0.0186 -0.214228,-0.17891 -0.440158,-0.35587 -1.435077,-1.12382 -3.450925,-3.01315 -4.574048,-4.28689 -0.327605,-0.3716 -0.609505,-0.68884 -0.626441,-0.70492 -0.01697,-0.0159 -0.162371,-0.18802 -0.323198,-0.38186 -0.160826,-0.19385 -0.307934,-0.36568 -0.326909,-0.38185 -0.129583,-0.11031 -1.431517,-1.8946 -1.889872,-2.58999 -0.483906,-0.73418 -1.277185,-2.02612 -1.277185,-2.08004 0,-0.009 -0.09205,-0.18103 -0.20448,-0.37999 -0.542375,-0.95959 -1.29418,-2.6843 -1.742116,-3.99657 -0.351978,-1.03118 -0.873327,-3.10628 -0.872891,-3.47434 2.01e-4,-0.16795 0.04679,-0.10136 0.313993,0.44903 2.101672,4.32847 5.450427,7.5517 10.94023,10.53016 0.70405,0.38194 4.281164,2.18789 4.333692,2.18789 0.11491,0 5.119027,2.49693 6.156068,3.07166 2.244348,1.24385 4.255659,2.61173 5.726717,3.89474 0.575257,0.50163 1.592026,1.25437 2.450338,1.8139 0.724486,0.47237 2.021081,1.18153 2.070227,1.13238 0.01556,-0.0159 -0.270055,-0.29982 -0.634703,-0.63173 -0.930887,-0.84724 -2.518399,-2.40975 -3.046536,-2.99853 -1.309171,-1.45944 -2.75911,-3.61868 -3.502464,-5.21588 -1.133412,-2.43521 -1.769812,-4.81473 -2.453331,-9.17317 -0.142807,-0.91062 -0.188759,-1.21301 -0.419486,-2.76102 -0.668115,-4.48228 -1.380745,-7.24727 -2.488476,-9.65508 -0.101945,-0.22151 -0.173036,-0.41509 -0.157986,-0.43021 0.04973,-0.0495 2.96709,3.61728 3.445468,4.33078 0.04844,0.0725 0.142489,0.20048 0.208936,0.2848 0.717521,0.91088 2.71509,3.99205 3.374672,5.20542 0.0878,0.16149 0.281688,0.51391 0.430836,0.78306 0.358954,0.64774 1.051595,2.07448 1.313672,2.70596 0.466204,1.12328 0.658098,1.66097 2.004252,5.61626 1.310385,3.85028 1.266436,3.72697 1.973915,5.53666 1.083818,2.77242 2.430078,5.24846 3.906852,7.18558 0.866774,1.13698 2.18502,2.54251 3.074457,3.27802 0.248936,0.20587 0.438249,0.3975 0.420712,0.42587 -0.03783,0.0609 -0.03147,0.0609 -0.142465,0 z m 41.561463,-0.44992 c -4.24322,-0.12516 -8.54262,-0.64119 -12.65935,-1.51954 -4.7551,-1.01448 -9.69667,-2.71356 -13.834254,-4.75683 -2.42533,-1.19772 -3.8668,-2.021 -5.81566,-3.3216 -0.84939,-0.56695 -1.15734,-0.779 -2.1951,-1.51159 -0.68627,-0.48457 -2.44931,-1.80254 -2.87559,-2.14965 -0.2482,-0.20216 -0.72882,-0.59144 -1.06807,-0.8651 -0.33924,-0.27367 -0.64324,-0.52655 -0.67556,-0.56191 -0.0323,-0.0354 -0.36274,-0.32591 -0.73429,-0.64561 -2.636386,-2.2685 -5.578266,-5.33103 -7.776933,-8.09576 -4.349391,-5.46926 -7.598322,-11.28158 -9.952819,-17.80537 -1.699888,-4.71007 -2.892039,-10.09254 -3.387648,-15.29477 -0.430977,-4.52401 -0.35384,-9.73596 0.210102,-14.19482 0.318436,-2.51776 0.8218,-5.41208 1.225953,-7.04928 0.03194,-0.12923 0.167308,-0.68441 0.30091,-1.2336 0.364553,-1.49877 0.651521,-2.48036 1.230089,-4.20782 1.276101,-3.80988 3.081894,-7.701 5.320786,-11.46509 0.303621,-0.51046 0.552027,-0.94111 0.552027,-0.95702 0,-0.0159 0.0277,-0.0611 0.06152,-0.0999 0.03382,-0.0389 0.461147,-0.67893 0.949532,-1.42205 0.488373,-0.74311 1.1532,-1.72126 1.477375,-2.17357 0.532475,-0.74293 1.83613,-2.48266 1.914905,-2.55532 0.01744,-0.0159 0.136548,-0.16158 0.264552,-0.32316 2.786946,-3.51704 6.464851,-7.22457 9.900619,-9.9801 3.00887,-2.41329 5.51807,-4.08355 8.81161,-5.86553 1.30597,-0.70661 3.516464,-1.76158 5.210024,-2.48647 3.87964,-1.66054 8.31675,-3.04645 12.3251,-3.8494 0.48463,-0.0971 0.93403,-0.20065 0.99865,-0.23017 0.0646,-0.0291 0.50081,-0.11995 0.96929,-0.20119 2.49495,-0.43223 3.90304,-0.60566 7.2549,-0.89364 1.67415,-0.14381 6.19321,-0.1439 7.93045,-1.8e-4 1.9768,0.16353 4.67675,0.48722 5.69818,0.6831 0.16155,0.031 0.69024,0.1272 1.17489,0.21382 0.48464,0.0866 0.9076,0.17669 0.9399,0.20021 0.0323,0.0239 0.4024,0.1155 0.82242,0.20445 5.59463,1.18419 11.66977,3.43289 16.71271,6.18604 1.47096,0.80304 1.81641,1.00316 3.14281,1.82061 3.26062,2.0096 6.42609,4.37162 9.10534,6.79418 2.07078,1.8725 3.69149,3.52525 5.68165,5.7942 0.58742,0.66975 1.91658,2.33797 2.7337,3.43112 0.7418,0.99238 2.70272,3.88573 2.91431,4.30001 0.0528,0.10336 0.17234,0.3016 0.26571,0.44055 0.1854,0.27605 0.57738,0.94969 1.24075,2.13255 0.36136,0.6443 2.52549,4.91841 2.52549,4.98779 0,0.0124 0.11667,0.27013 0.25924,0.57226 1.24994,2.64858 2.64979,6.68395 3.44083,9.91902 1.29154,5.28187 1.89862,10.26348 1.90421,15.62597 0.002,2.53103 -0.135,5.09033 -0.37598,6.99051 -0.49688,3.91807 -0.90937,5.93323 -1.99605,9.75151 -0.0322,0.11314 -0.13972,0.49641 -0.23896,0.85184 -1.37147,4.91115 -3.76011,10.14309 -6.89269,15.0972 -1.51064,2.38907 -3.35804,4.94122 -4.93259,6.81434 -0.19011,0.2262 -0.39956,0.47731 -0.46543,0.55802 -1.14666,1.40597 -4.05891,4.46247 -5.77047,6.05619 -3.39895,3.16506 -7.60651,6.24424 -11.36699,8.31854 -1.28748,0.71023 -3.00015,1.56772 -4.02396,2.01481 -0.38773,0.16928 -1.00895,0.45231 -1.3805,0.62891 -2.9665,1.41021 -6.20029,2.56656 -9.63403,3.44518 -1.06725,0.27313 -1.35173,0.33809 -2.73857,0.62625 -2.00973,0.41748 -4.14386,0.7379 -6.4549,0.96905 -2.1521,0.21523 -6.05485,0.35188 -8.22419,0.28789 z m 4.15561,-3.34511 c 0.20224,-0.015 0.79065,-0.0548 1.30761,-0.0886 4.30255,-0.28081 9.0986,-1.12612 12.89433,-2.27247 0.37155,-0.1122 0.83416,-0.25095 1.02802,-0.30831 1.25577,-0.37178 2.51224,-0.82161 4.55266,-1.63005 2.42846,-0.96214 5.89096,-2.67571 8.01859,-3.96836 1.79398,-1.08992 3.46528,-2.17485 4.46454,-2.89815 0.19387,-0.14029 0.61682,-0.44683 0.93991,-0.68115 1.53023,-1.10986 4.48158,-3.51943 5.43383,-4.43641 l 0.2056,-0.198 -0.53113,-0.51108 c -0.29212,-0.28109 -0.79437,-0.76017 -1.11613,-1.06451 -0.32175,-0.30433 -0.83614,-0.7942 -1.14307,-1.08855 -0.30694,-0.29426 -0.83589,-0.79871 -1.17544,-1.12081 -2.89518,-2.74652 -2.62819,-2.46783 -2.67248,-2.78983 -0.022,-0.16088 -0.0642,-0.2925 -0.0935,-0.2925 -0.0292,0 -0.0533,0.0239 -0.0533,0.0539 0,0.0292 -0.15497,0.26076 -0.34438,0.51401 -0.56631,0.75699 -1.22355,1.35876 -2.88655,2.6431 -0.33925,0.262 -0.84151,0.67903 -1.11613,0.92671 -0.57209,0.51585 -1.66141,1.25534 -2.64349,1.79462 -1.86501,1.02411 -2.88457,1.93994 -3.38699,3.04245 -0.11326,0.24848 -0.31729,0.5712 -0.45344,0.71714 -0.13616,0.14602 -0.48085,0.60177 -0.766,1.01279 -0.6181,0.89108 -1.05297,1.34516 -1.5862,1.65647 -0.29368,0.17148 -0.42525,0.29046 -0.51456,0.46556 -0.22061,0.43241 -0.6696,0.80702 -1.45166,1.21115 -0.70578,0.36472 -1.41644,0.83231 -1.41644,0.93205 0,0.1348 -0.874,0.66966 -1.24836,0.76389 -0.88964,0.22407 -1.64316,-0.0768 -3.12809,-1.24982 -0.82282,-0.64986 -1.28367,-0.96039 -1.763,-1.18799 -0.50651,-0.2406 -0.60901,-0.2422 -1.791,-0.0292 -3.03628,0.54821 -3.48557,0.61901 -4.49393,0.70838 -0.35541,0.0318 -1.06693,0.10347 -1.58116,0.15981 -0.78896,0.0866 -1.0275,0.0918 -1.52736,0.0336 -0.3258,-0.0381 -0.65324,-0.0858 -0.72763,-0.10666 l -0.13529,-0.038 0.0473,1.13853 c 0.0611,1.47394 0.0607,5.99131 -6.6e-4,7.41708 l -0.0476,1.10914 0.2674,-0.15672 c 0.18615,-0.10902 0.3791,-0.16494 0.63509,-0.18386 z m -4.24479,0.22239 c -6.5e-4,-0.0238 -0.0799,-0.16034 -0.17623,-0.30256 l -0.17516,-0.25846 v -4.2849 c 0,-4.20591 0.002,-4.28776 0.1183,-4.43537 0.0651,-0.0831 0.10773,-0.16097 0.0948,-0.17397 -0.013,-0.0133 -0.21532,0.023 -0.44975,0.0796 -0.40559,0.0979 -0.48055,0.0979 -1.54869,0 -7.79889,-0.70909 -14.71974,-2.7825 -20.86051,-6.24969 -3.191754,-1.80214 -6.185704,-3.97217 -8.806374,-6.3828 -1.10851,-1.01969 -1.09977,-1.01359 -1.15076,-0.80304 -0.0161,0.0662 -1.45684,1.56401 -3.20155,3.32726 -1.7447,1.76325 -3.17971,3.2264 -3.18893,3.25142 -0.0196,0.053 1.92004,1.67786 2.95396,2.47445 1.82619,1.40711 2.9421,2.21042 4.49392,3.23498 1.47182,0.97169 3.17477,2.01909 4.14146,2.54714 0.22616,0.12357 0.67555,0.36922 0.99865,0.54583 1.490624,0.81498 5.603624,2.77259 5.829094,2.77436 0.0249,0 0.11539,0.0371 0.20097,0.0813 0.0856,0.0451 0.37638,0.16459 0.64619,0.26641 0.26979,0.10183 0.5434,0.20808 0.60803,0.23601 0.38487,0.16671 2.04951,0.75585 3.02531,1.0707 2.69127,0.86837 5.75019,1.61466 8.48852,2.07094 2.11647,0.35268 2.90718,0.44559 4.78765,0.5627 1.11833,0.0698 2.23705,0.20092 2.70224,0.31715 0.39384,0.0984 0.47025,0.10643 0.46888,0.0495 z m -0.0577,-12.42877 c 0,-0.0106 -0.0661,-0.21338 -0.14686,-0.45089 l -0.14685,-0.4318 v -4.06268 c 0,-2.23438 -0.0151,-4.07761 -0.0335,-4.096 -0.0184,-0.0186 -0.1836,0.0275 -0.36715,0.10183 -0.31471,0.12754 -0.37395,0.13232 -1.03868,0.0831 -1.69016,-0.12393 -3.32763,-0.34412 -4.58203,-0.6161 -0.38773,-0.0839 -0.8709,-0.18907 -1.07376,-0.23327 -0.20284,-0.0442 -0.80637,-0.20224 -1.34117,-0.35109 -4.06822,-1.13257 -8.10358,-3.13677 -12.05081,-5.98504 -0.43613,-0.31476 -0.41092,-0.23229 0.17211,0.56253 0.48489,0.66109 0.51696,1.1689 0.0977,1.54757 -0.48934,0.44214 -1.03597,0.56598 -2.41495,0.54715 -1.01486,-0.0141 -1.27242,0.0362 -2.21193,0.43029 -0.30955,0.12985 -0.78752,0.32909 -1.062154,0.44285 -0.27461,0.11373 -0.79011,0.27242 -1.1455,0.35277 -0.96629,0.21842 -1.21008,0.15999 -2.07263,-0.49694 -0.61145,-0.46574 -1.12718,-0.73294 -1.36685,-0.70837 -0.17066,0.0177 -0.13872,0.0521 0.65831,0.72146 2.15357,1.80734 4.03996,3.20527 6.188324,4.58586 0.74462,0.47848 2.03948,1.25933 2.526,1.52318 0.22617,0.1226 0.58631,0.32458 0.80033,0.44868 1.09652,0.63589 3.36314,1.69182 5.27969,2.4596 4.21123,1.68688 8.60889,2.70727 13.38026,3.10469 l 1.23475,0.10277 0.31173,0.21823 c 0.27786,0.19446 0.40547,0.25714 0.40547,0.19915 z m 4.20021,-0.30407 c 0.76694,-0.18076 1.96877,-0.35012 3.31905,-0.46786 1.46507,-0.12764 2.81112,-0.26376 3.02256,-0.30548 0.16451,-0.0326 0.15458,-0.0415 -0.19193,-0.18042 -0.20098,-0.0805 -0.49052,-0.25704 -0.64344,-0.39254 -0.20164,-0.17873 -0.36625,-0.26615 -0.59922,-0.31839 -0.74574,-0.16724 -1.33564,-0.74691 -1.87583,-1.84333 -0.5659,-1.14857 -0.57391,-1.45927 -0.0642,-2.48841 0.16128,-0.32564 0.29325,-0.63104 0.29325,-0.67868 0,-0.1515 -0.38362,-0.46547 -0.67625,-0.55351 -0.20457,-0.0619 -0.59926,-0.0849 -1.43319,-0.0858 -0.63297,0 -1.24338,-0.0265 -1.35647,-0.0575 -0.12372,-0.0344 -0.33199,-0.1865 -0.52296,-0.3815 -0.34401,-0.35136 -0.57172,-0.45009 -0.38668,-0.16768 0.3194,0.48749 0.3059,0.39414 0.35971,2.487 0.0628,2.44502 0.0642,3.98472 0.005,4.9269 -0.0434,0.6838 -0.04,0.72428 0.0588,0.686 0.0576,-0.0222 0.3692,-0.103 0.6923,-0.17908 z m -43.70947,-8.25407 c 0.680586,-0.69493 1.858636,-1.90025 2.617906,-2.67846 1.152,-1.18074 1.42667,-1.4323 1.65952,-1.52007 0.3143,-0.11845 0.33556,-0.16079 0.14686,-0.29197 -0.2452,-0.17059 -1.1672,-1.11356 -1.92705,-1.97079 -0.748,-0.84387 -0.75909,-0.85334 -1.19851,-1.01677 -0.8548,-0.31795 -1.651505,-0.97541 -2.113478,-1.74425 -0.150137,-0.24979 -0.202194,-0.41446 -0.229607,-0.72631 -0.05091,-0.57959 -0.112907,-0.6244 -0.411979,-0.29797 -0.212813,0.23221 -0.281653,0.27004 -0.546971,0.30009 -0.406144,0.046 -0.687361,-0.0963 -1.24264,-0.62917 -0.236503,-0.22699 -0.533925,-0.48148 -0.660926,-0.56554 -0.295996,-0.19587 -0.429763,-0.41721 -0.678299,-1.12223 -0.127555,-0.36188 -0.262996,-0.63325 -0.369172,-0.73958 -0.150196,-0.15044 -0.20586,-0.16741 -0.533524,-0.16281 -0.201204,0 -0.414819,-0.0212 -0.474678,-0.053 -0.05987,-0.0318 -0.23121,-0.22974 -0.38077,-0.4394 -0.220992,-0.30964 -0.301994,-0.38106 -0.432532,-0.38106 -0.288076,0 -0.701103,-0.18112 -0.938584,-0.41155 -0.127944,-0.1242 -0.397635,-0.47229 -0.599322,-0.77353 -0.201676,-0.30132 -0.395349,-0.56677 -0.430376,-0.58993 -0.04019,-0.0265 -0.08945,0.0583 -0.133425,0.22965 -0.102063,0.39794 -0.234275,0.50419 -0.622682,0.50065 -0.558379,-0.009 -0.778417,-0.17502 -1.757354,-1.35796 -0.38288,-0.46274 -0.480429,-0.53053 -0.619618,-0.431 -0.402927,0.28833 -0.565085,0.24378 -0.979515,-0.26916 -0.412084,-0.51003 -0.715316,-1.15184 -0.80992,-1.71419 -0.05009,-0.2978 -0.136925,-0.5452 -0.267958,-0.76362 -0.447618,-0.74612 -0.53905,-1.71693 -0.307062,-3.26034 0.06317,-0.41996 0.115381,-0.7973 0.116088,-0.83841 7.43e-4,-0.0407 0.102535,-0.18651 0.226084,-0.32307 0.334629,-0.36983 0.421454,-0.51913 0.421454,-0.72464 0,-0.13745 0.0574,-0.24175 0.220297,-0.40041 0.238128,-0.23204 0.571709,-0.35154 1.14726,-0.4113 l 0.33952,-0.0353 0.293203,0.27428 0.293202,0.2742 0.411366,-0.0733 c 0.515515,-0.0922 0.609258,-0.17688 0.563647,-0.50967 -0.03382,-0.24644 -0.03064,-0.25184 0.243138,-0.42022 0.305412,-0.18784 0.855283,-0.38061 1.383255,-0.48492 0.426097,-0.0839 0.448584,-0.0672 0.932726,0.72101 0.342632,0.55758 0.518391,0.77813 0.400817,0.50295 -0.08132,-0.19012 -0.483894,-1.98766 -0.727821,-3.24929 -0.382231,-1.97698 -0.671368,-4.11961 -0.774775,-5.74133 -0.03088,-0.48439 -0.06494,-0.65907 -0.147073,-0.75373 -0.101946,-0.1175 -0.09817,-0.28993 0.0059,-0.28993 0.02711,0 0.05728,-0.34366 0.06718,-0.7638 0.01179,-0.482 -0.0035,-0.76371 -0.04078,-0.76361 -0.03229,0 -0.204139,0.0566 -0.381831,0.12489 -0.322478,0.12455 -0.331376,0.12473 -4.664019,0.0839 l -4.340917,-0.0407 0.04042,0.7234 c 0.179,3.20467 0.705027,6.95727 1.423043,10.15176 0.513394,2.28415 1.315889,5.10881 1.960975,6.90247 0.09299,0.25846 0.253249,0.70784 0.356197,0.99865 0.634868,1.79321 1.891757,4.70096 2.877931,6.6578 0.747728,1.48383 1.241298,2.41735 1.440793,2.7253 0.07802,0.12048 0.141911,0.23397 0.141911,0.25218 0,0.0186 0.275312,0.47484 0.611803,1.01466 0.875437,1.4042 1.883225,2.83765 3.221294,4.5818 1.086376,1.41605 1.385247,1.80586 1.815364,2.36803 0.237362,0.31017 0.736024,0.95782 1.108155,1.4392 0.372131,0.48139 0.740055,0.96489 0.817616,1.07441 l 0.141003,0.19915 0.529728,-0.55157 c 0.291341,-0.30345 1.086553,-1.12028 1.767125,-1.81522 z m 85.12317,1.88205 c 0.0497,-0.096 0.33727,-0.45954 0.63917,-0.80773 2.33075,-2.68862 4.98618,-6.36803 6.77437,-9.3868 0.92556,-1.56242 1.18001,-2.02905 2.10263,-3.85558 3.62014,-7.16667 5.62281,-14.65012 6.16895,-23.05164 0.0736,-1.13115 0.10808,-1.39579 0.20989,-1.60644 0.13316,-0.2756 0.12243,-0.33889 -0.0429,-0.25323 -0.0638,0.0328 -1.94098,0.0699 -4.59453,0.089 l -4.48671,0.0326 -0.22329,-0.14089 -0.22331,-0.14099 0.12983,0.37124 c 0.11739,0.33572 0.12571,0.43542 0.0869,1.04083 -0.26589,4.13534 -0.94699,7.85692 -2.17058,11.86028 -0.5629,1.84166 -1.48587,4.2575 -2.31165,6.05062 -0.9213,2.0005 -2.18767,4.33238 -3.34982,6.16811 -0.83789,1.32358 -2.05636,3.09054 -2.30054,3.33619 -0.0415,0.0416 -0.48327,0.58365 -0.98172,1.20425 -0.842,1.04833 -1.50755,1.75724 -2.15191,2.29192 l -0.26434,0.21939 0.29259,0.24847 c 1.82007,1.54545 3.85098,3.54807 6.28384,6.1963 0.15584,0.16961 0.29225,0.30839 0.30316,0.30839 0.0106,0 0.0605,-0.0786 0.11008,-0.17457 z m -16.59435,-2.47109 c 1.26632,-0.94403 2.06666,-1.56401 2.76579,-2.14245 0.74827,-0.61901 1.98978,-1.86569 1.81625,-1.82371 -0.49629,0.11996 -0.68731,0.10808 -0.99943,-0.0619 -0.52184,-0.284 -0.875,-0.89037 -0.8837,-1.51717 -0.002,-0.13152 -0.0349,-0.32298 -0.0734,-0.42552 -0.0402,-0.10666 -0.66224,-0.798 -1.45382,-1.61545 -2.23006,-2.30297 -2.3119,-2.39233 -2.42846,-2.65044 -0.0998,-0.22107 -0.11801,-0.23521 -0.17623,-0.13753 -0.24409,0.40951 -0.44403,0.6662 -0.85694,1.10003 l -0.47018,0.49394 v 0.35242 c 6.6e-4,0.86562 0.0918,0.99326 0.96807,1.35364 0.83083,0.34172 1.35121,0.65339 1.81385,1.08616 0.37257,0.34853 0.67638,0.82735 0.78935,1.24412 0.0536,0.19756 0.0402,0.24944 -0.14288,0.55333 -0.11102,0.18448 -0.3796,0.53098 -0.59675,0.77007 -1.3517,1.48818 -1.51515,2.02631 -0.85875,2.82714 0.37853,0.46176 0.35571,0.66878 -0.13171,1.19498 -0.14623,0.15787 -0.25615,0.33385 -0.25615,0.41014 0,0.10949 0.0344,0.0839 0.19092,-0.14355 0.12503,-0.18156 0.46459,-0.48121 0.98397,-0.86836 z m -33.52751,-4.06251 c -0.409,-0.20047 -0.55624,-0.31626 -0.95118,-0.74788 -1.58843,-1.73602 -2.10584,-2.60377 -2.32185,-3.89394 -0.0345,-0.20657 -0.025,-0.22389 0.18603,-0.33244 0.44585,-0.22929 0.69331,-0.62273 0.86949,-1.38237 0.17074,-0.73623 0.30336,-1.00467 0.65513,-1.32624 0.40856,-0.37337 0.71988,-0.58843 1.23292,-0.85174 l 0.40218,-0.20641 H 121.041 c -1.20659,-6.1e-4 -2.44626,-0.38688 -4.10258,-1.27841 -0.29078,-0.15655 -0.9913,-0.53265 -1.55673,-0.83583 -1.06962,-0.57349 -2.62708,-1.57374 -3.43652,-2.20698 -0.56559,-0.44249 -1.07393,-0.95959 -1.29503,-1.31722 l -0.16264,-0.26305 -0.1817,0.22981 c -1.02013,1.29061 -3.94438,4.33166 -5.284,5.49508 -0.60267,0.52337 -0.63014,0.55687 -0.49933,0.60884 0.46074,0.18324 0.66551,0.32033 1.11059,0.744 0.50445,0.48015 0.66444,0.61168 1.75944,1.44592 3.39378,2.58592 7.37427,4.40777 12.89434,5.90187 0.84004,0.22742 1.55378,0.42259 1.58609,0.43383 0.24288,0.0849 0.0965,-0.0186 -0.3077,-0.21656 z m 42.35042,-4.01265 c 0.32519,-0.38769 0.64734,-0.77148 0.71588,-0.85281 1.00519,-1.19267 2.63843,-3.51765 3.63065,-5.16846 2.31916,-3.8585 4.09662,-8.23197 5.21657,-12.83561 0.21078,-0.86634 0.2089,-0.85758 0.49116,-2.29104 0.40268,-2.04477 0.69907,-4.25149 0.83641,-6.22688 0.037,-0.53257 0.0573,-0.60841 0.21728,-0.81206 l 0.17644,-0.2247 -0.40491,0.0371 c -2.05453,0.18908 -8.2012,0.14337 -8.74414,-0.0654 -0.0568,-0.022 -0.0815,0.21913 -0.10783,1.04692 -0.0187,0.59126 -0.0747,1.36593 -0.12453,1.72126 -0.1466,1.04727 -0.25591,1.91016 -0.29766,2.34982 l -0.0391,0.4112 0.53197,0.56634 c 0.58115,0.61865 0.65143,0.74363 0.65143,1.15793 0,0.41226 -0.20177,0.77016 -0.52646,0.93386 -0.32252,0.16264 -0.55659,0.16663 -0.9527,0.0159 -0.16805,-0.0636 -0.31436,-0.10725 -0.32514,-0.0964 -0.0106,0.0106 -0.20168,0.5719 -0.42422,1.24687 -1.6179,4.90753 -3.01863,7.78682 -5.36959,11.03761 -0.28039,0.38769 -0.70082,0.96923 -0.93428,1.29239 -0.6133,0.84874 -1.15428,1.44132 -1.63471,1.79073 -0.34742,0.25272 -0.40668,0.31884 -0.34033,0.37965 0.0442,0.0407 0.33175,0.29567 0.63903,0.56712 0.3073,0.27137 0.76333,0.67426 1.01341,0.89524 0.7314,0.64642 1.00043,0.8575 1.05221,0.8255 0.0266,-0.0167 0.0486,-0.15734 0.0486,-0.31291 0,-0.41634 0.0565,-0.63051 0.20999,-0.79615 0.11862,-0.12799 0.18621,-0.14753 0.50684,-0.14638 0.70371,0 1.03041,0.2696 1.5757,1.2885 0.17184,0.32104 0.37397,0.65534 0.44919,0.74285 0.10795,0.12569 0.13675,0.22848 0.13675,0.4881 0,0.24202 0.0776,0.55377 0.29372,1.18012 0.22107,0.64076 0.29441,0.93854 0.29655,1.20399 l 0.002,0.35277 0.47087,-0.49932 c 0.25896,-0.27464 0.73693,-0.81657 1.06212,-1.20426 z m -62.51633,-6.07794 c 2.09865,-2.33275 5.04905,-5.29495 6.50287,-6.5289 0.16725,-0.14196 0.30603,-0.28516 0.30841,-0.31813 0.002,-0.0328 -0.23687,-0.29726 -0.53164,-0.58736 -0.59452,-0.58516 -1.14684,-1.37857 -2.05104,-2.94647 -1.43354,-2.48576 -2.54024,-5.14725 -3.16582,-7.61331 -0.0965,-0.38062 -0.18985,-0.71518 -0.20736,-0.74346 -0.0261,-0.0424 -0.76788,-0.41501 -0.82585,-0.41501 -0.009,0 -0.0356,0.13878 -0.058,0.30841 -0.0224,0.16961 -0.10654,0.55952 -0.18702,0.86642 -0.0805,0.30698 -0.16073,0.78765 -0.17834,1.0683 -0.0299,0.47679 -0.0442,0.52195 -0.21843,0.69078 -0.18545,0.17979 -0.18777,0.18024 -0.45896,0.0987 -0.1499,-0.0451 -0.511784,-0.25023 -0.804174,-0.45583 -0.47962,-0.33731 -0.54311,-0.40423 -0.64925,-0.68443 -0.14974,-0.39537 -0.14868,-0.60337 0.005,-0.79765 0.14156,-0.17997 0.35838,-0.20118 0.68036,-0.0662 0.11597,0.0486 0.23089,0.0884 0.25532,0.0884 0.0744,0 0.16353,-0.29842 0.237084,-0.79306 0.0878,-0.59072 0.0812,-0.72242 -0.0621,-1.24898 -0.19058,-0.69954 -0.12994,-1.30644 0.13055,-1.30644 0.28549,0 0.66282,0.29753 1.09906,0.86651 0.25629,0.33429 0.41158,0.33068 1.10615,-0.0256 l 0.54275,-0.27843 0.16893,-0.52549 c 0.0929,-0.28914 0.1568,-0.57199 0.14198,-0.62865 -0.0304,-0.1162 -0.21095,-0.3252 -0.3092,-0.35798 -0.0455,-0.015 -0.0377,-0.1257 0.026,-0.37082 0.14113,-0.54184 0.12014,-1.7141 -0.0475,-2.65317 -0.15778,-0.88375 -0.27925,-1.1339 -0.64581,-1.32995 -0.216,-0.1155 -0.33071,-0.13029 -1.00743,-0.13002 -0.6716,0 -0.79899,0.0167 -1.05666,0.13497 -0.87089,0.40059 -0.94095,0.88472 -0.31196,2.1557 0.58692,1.18597 0.65762,1.86942 0.23704,2.29078 l -0.16078,0.16114 -0.77218,-0.0407 c -0.45657,-0.0239 -0.78587,-0.0186 -0.80568,0.0132 -0.0184,0.03 -0.0892,0.42171 -0.15728,0.87084 -0.0681,0.44921 -0.16812,0.89337 -0.22235,0.98716 -0.1552,0.26846 -0.43693,0.37656 -1.13217,0.43419 -0.71968,0.0601 -0.87811,0.14046 -1.02793,0.52363 -0.12586,0.32184 -0.0781,0.57553 0.20876,1.11092 l 0.22411,0.41818 -0.0816,0.31423 c -0.1043,0.40236 -0.10253,0.51639 0.0139,0.85935 0.13461,0.39653 0.37075,0.71863 1.04761,1.42869 0.61418,0.64429 0.93199,1.13814 1.00051,1.55464 0.0213,0.12923 0.10194,0.38168 0.17922,0.56102 0.15045,0.34897 0.2607,1.10411 0.2615,1.7911 8.3e-4,0.6982 0.1805,1.2054 0.56462,1.59379 0.14472,0.1463 0.17728,0.41863 0.23052,1.92846 0.0847,2.40215 0.35903,3.45048 1.12399,4.29559 0.16056,0.17741 0.26648,0.3572 0.28803,0.48908 0.0187,0.11479 0.0724,0.40739 0.11907,0.65039 0.25532,1.32694 0.26352,1.64639 0.0484,1.88407 -0.0588,0.0646 -0.31458,0.24167 -0.56837,0.39264 -0.66822,0.39751 -0.90617,0.84061 -0.49304,0.91814 0.13308,0.0247 0.21867,0.0858 0.26488,0.18668 l 0.0682,0.14982 0.2785,-0.31026 c 0.15316,-0.17068 0.52904,-0.58877 0.83528,-0.92918 z m 33.94149,0.48714 c 0.11751,-0.0876 0.17097,-0.19102 0.19866,-0.38372 0.0502,-0.34923 0.1842,-0.59673 0.41731,-0.77069 0.29834,-0.22266 0.39744,-0.26155 1.22593,-0.48218 0.42762,-0.11385 0.87193,-0.26296 0.98741,-0.33129 1.80521,-1.06946 2.70997,-2.20423 2.70522,-3.39311 -0.002,-0.44771 -0.13414,-0.62299 -0.43381,-0.57429 -0.37579,0.061 -0.84291,0.34579 -1.40031,0.85396 -0.54264,0.49473 -0.7052,0.59753 -0.94491,0.59753 -0.16278,0 -0.51718,-0.18809 -0.74905,-0.3975 -0.23707,-0.21417 -0.52134,-0.3662 -0.68458,-0.3662 -0.18036,0 -0.16814,0.0601 0.0484,0.23821 0.12286,0.10088 0.19635,0.22585 0.22475,0.38177 0.0639,0.35118 -0.0196,0.56041 -0.3032,0.76053 -0.20462,0.14425 -0.3086,0.17625 -0.57388,0.17625 -0.28124,0 -0.38196,-0.0354 -0.76367,-0.26818 -0.52566,-0.32043 -0.72037,-0.40741 -0.91242,-0.40741 -0.13526,0 -0.14409,0.0195 -0.14409,0.31892 0,0.21153 -0.031,0.34995 -0.0923,0.4112 -0.0955,0.0953 -0.37765,0.12879 -0.37765,0.045 0,-0.0813 -0.36506,-0.42587 -0.55432,-0.52372 -0.0988,-0.0513 -0.43059,-0.18261 -0.73731,-0.29222 -0.63994,-0.22868 -0.97023,-0.40873 -1.16664,-0.63589 -0.20855,-0.24123 -0.54209,-0.18527 -0.96912,0.16254 -0.26836,0.21869 -0.38314,0.27225 -0.65551,0.30629 -0.33456,0.0416 -0.38367,0.0831 -0.41179,0.34552 -0.0225,0.20913 -0.0255,0.21506 -0.10996,0.21506 -0.12717,0 -0.551,0.46335 -0.77921,0.85183 -0.31498,0.53619 -0.52834,0.73428 -0.79092,0.73428 -0.28051,0 -0.65144,0.16043 -1.01701,0.43992 -0.33492,0.25608 -0.70902,0.43808 -0.90418,0.43994 -0.10784,0 -0.12919,0.0256 -0.10277,0.1188 0.0183,0.0646 0.0477,0.16865 0.0654,0.23105 0.0554,0.19614 0.72384,0.38575 1.35957,0.38575 h 0.53987 l 0.21542,-0.25166 c 0.25292,-0.29549 0.56809,-0.47051 0.93873,-0.52134 0.14648,-0.0203 0.66864,0 1.16039,0.0363 0.75504,0.0619 0.94969,0.0601 1.25199,-0.0118 0.55807,-0.131 0.74481,0 0.83899,0.58374 0.0952,0.59161 0.10937,0.60434 0.67025,0.60654 0.48483,0 0.53219,0.0142 1.48121,0.37311 0.50014,0.18925 0.99285,0.18801 1.24912,0 z m 12.36268,-0.14868 c 0.2841,-0.11836 0.41327,-0.12976 1.51484,-0.13427 1.11273,-0.009 1.22608,-0.015 1.49156,-0.13533 0.39694,-0.18014 0.56448,-0.3746 0.56448,-0.65525 0,-0.47343 0.226,-1.00096 0.80678,-1.88293 0.30849,-0.46848 0.60188,-0.88481 0.65196,-0.9252 0.0501,-0.0407 0.16339,-0.0733 0.2518,-0.0733 0.30145,0 0.52442,0.44805 0.79309,1.59379 0.0823,0.35119 0.16751,0.63846 0.18929,0.63846 0.0588,0 0.70432,-0.78006 1.60384,-1.93853 1.98137,-2.55171 3.79507,-5.81745 4.68581,-8.43739 0.31924,-0.9389 0.59582,-2.01022 0.52954,-2.05123 -0.0907,-0.0557 -1.16748,0.0839 -1.78725,0.233 -0.3231,0.0778 -0.75928,0.1562 -0.96928,0.17484 -0.21001,0.0185 -0.62197,0.0601 -0.91545,0.092 -0.65328,0.0707 -1.10013,0.008 -1.43476,-0.20366 -0.23373,-0.14753 -0.25078,-0.15009 -0.35747,-0.0539 -0.0616,0.0556 -0.11208,0.15406 -0.11208,0.21841 0,0.16317 -0.37615,0.71307 -0.59373,0.86793 -0.2355,0.16768 -0.62677,0.21197 -0.85058,0.0962 -0.25354,-0.13109 -0.35744,-0.26995 -0.51442,-0.68743 l -0.14139,-0.3761 -0.0661,0.30804 c -0.0363,0.16953 -0.0661,0.34243 -0.0661,0.38433 0,0.0415 -0.0561,0.12649 -0.12464,0.18801 -0.17544,0.15752 -0.49718,0.64774 -0.93688,1.42744 -0.45992,0.81551 -0.56656,0.89427 -1.57744,1.16493 -0.91066,0.24379 -1.08618,0.34579 -1.17044,0.68044 -0.089,0.3533 -0.29519,0.63456 -0.58085,0.79226 -0.13434,0.0743 -0.59592,0.22355 -1.02575,0.332 -0.79748,0.20118 -1.10459,0.30972 -1.10459,0.39043 0,0.0248 0.0784,0.101 0.17395,0.16918 0.12396,0.0884 0.27165,0.12613 0.514,0.13171 0.34327,0.009 0.53628,-0.0566 0.75128,-0.25113 0.0825,-0.0742 0.19807,-0.10324 0.38817,-0.0958 0.48161,0.0186 0.64669,-0.14885 0.98905,-1.00484 0.24829,-0.62077 0.39965,-0.84193 0.62007,-0.90567 0.097,-0.0283 0.38528,-0.12039 0.64077,-0.20524 0.52,-0.17263 0.86465,-0.19455 1.1176,-0.0707 0.24501,0.11969 0.51527,0.54768 0.70511,1.11657 0.13802,0.4136 0.16982,0.62574 0.19537,1.30273 0.0253,0.67152 0.0153,0.82593 -0.059,0.91053 -0.25577,0.29099 -0.37012,0.6731 -0.51387,1.71729 -0.0334,0.24237 -0.11078,0.61246 -0.17219,0.82248 -0.0614,0.20994 -0.14127,0.51126 -0.17765,0.66958 -0.0412,0.17916 -0.18757,0.46007 -0.38795,0.74443 -0.39281,0.55741 -0.55214,0.89691 -0.55384,1.18012 -8.9e-4,0.16547 -0.0415,0.24901 -0.17571,0.36188 -0.44716,0.3762 -1.40511,0.46186 -2.09232,0.18686 -1.48211,-0.59293 -4.82368,-1.36142 -6.63299,-1.52555 -0.22618,-0.0204 -0.47192,-0.0504 -0.54611,-0.0654 -0.16055,-0.0336 -0.48193,0.25447 -0.48193,0.43188 0,0.17661 0.68854,0.43984 1.79171,0.68495 1.51562,0.33677 2.14451,0.57914 3.03487,1.1696 0.37374,0.24785 0.78223,0.48828 0.90775,0.53424 0.34981,0.12827 0.84944,0.11279 1.21,-0.0371 z m -23.25024,-2.41126 c 0.015,-0.0725 0.0391,-0.54192 0.0536,-1.04275 0.048,-1.6571 0.33158,-2.0142 1.58243,-1.99263 0.58049,0.009 0.5971,0.009 0.73269,-0.15106 0.20638,-0.2399 0.16348,-0.49252 -0.10784,-0.63483 -0.29143,-0.15292 -0.39722,-0.36321 -0.46909,-0.93246 -0.0339,-0.26906 -0.0916,-0.56632 -0.12805,-0.66064 -0.0623,-0.16131 -0.0517,-0.18386 0.17988,-0.38345 0.27843,-0.23972 0.29468,-0.30485 0.1287,-0.51585 -0.13451,-0.17104 -0.14054,-0.31486 -0.0338,-0.80905 0.0643,-0.29806 0.0632,-0.37824 -0.008,-0.51939 -0.0757,-0.15009 -0.0733,-0.17891 0.023,-0.28639 0.10607,-0.11827 0.10501,-0.11898 -0.0985,-0.0743 -0.75392,0.16396 -1.53945,0.12304 -2.39965,-0.12517 -1.00669,-0.29037 -3.10243,-1.25491 -3.94472,-1.81549 -0.45876,-0.30531 -0.70958,-0.5597 -0.88195,-0.89443 -0.0707,-0.13736 -0.13633,-0.24972 -0.14587,-0.24972 -0.009,0 -0.10371,0.13463 -0.20925,0.29912 -0.1056,0.16451 -0.22068,0.33041 -0.25579,0.3686 -0.0351,0.038 -0.15561,0.18784 -0.26777,0.33245 -0.40205,0.51833 -0.63666,0.76167 -2.77355,2.87698 -1.19134,1.17924 -2.16529,2.16137 -2.16436,2.18241 0.004,0.0796 1.15465,0.94623 2.04331,1.53838 1.34984,0.89938 2.39638,1.46147 4.10461,2.2044 0.67815,0.29497 2.46396,0.87102 3.37604,1.08909 0.46534,0.11125 0.95184,0.22796 1.08107,0.25942 0.41125,0.10006 0.55264,0.0849 0.58302,-0.0628 z m 12.9212,-5.15008 c 0.13708,-0.0943 0.52256,-0.29169 0.85664,-0.43878 0.79806,-0.35117 1.05164,-0.53212 1.19278,-0.85112 0.0935,-0.21135 0.0996,-0.26606 0.0343,-0.30752 -0.45924,-0.29099 -2.11052,0.59462 -2.40961,1.29229 -0.10807,0.25219 -0.0997,0.47661 0.0178,0.47661 0.0324,0 0.17103,-0.0768 0.3081,-0.17148 z m -26.39773,-2.51608 c 0.28415,-0.40245 0.46823,-0.61247 1.16731,-1.33181 0.34296,-0.35286 0.76234,-0.8003 0.93197,-0.99423 0.29053,-0.33226 0.3084,-0.37115 0.3084,-0.67037 0,-0.22805 -0.0522,-0.4363 -0.1851,-0.73869 -0.12864,-0.29257 -0.20951,-0.60787 -0.26516,-1.03375 -0.0873,-0.66824 -0.16376,-0.97514 -0.28366,-1.1391 -0.0672,-0.0918 -0.095,-0.0958 -0.2045,-0.0292 -0.15696,0.0957 -0.14042,0.32281 0.062,0.85069 0.1102,0.28735 0.12686,0.39661 0.0807,0.52866 -0.10831,0.30991 -0.63999,0.22629 -0.80042,-0.12577 -0.0349,-0.0768 -0.13282,-0.15637 -0.21761,-0.17732 -0.43227,-0.10666 -0.92697,-0.56545 -1.18714,-1.10101 -0.1262,-0.25979 -0.1283,-0.2826 -0.0352,-0.38539 0.14981,-0.16556 0.12074,-0.27517 -0.12138,-0.45805 -0.12117,-0.0916 -0.25522,-0.20047 -0.29792,-0.24202 -0.1122,-0.10925 -0.29296,-0.0929 -0.46441,0.0424 -0.2691,0.21161 -0.60347,0.11503 -0.60347,-0.17448 0,-0.0937 -0.0282,-0.24477 -0.0627,-0.33572 -0.15572,-0.41102 -0.47738,-0.55466 -1.48374,-0.66286 -0.31741,-0.0345 -0.65691,-0.10336 -0.75445,-0.1538 -0.18987,-0.0982 -0.27977,-0.0743 -0.18224,0.0477 0.0845,0.10596 0.50902,1.10571 1.07589,2.5335 0.70965,1.78747 1.41716,3.15287 2.24168,4.32627 0.3746,0.5331 0.76474,1.13452 0.86697,1.33649 0.10218,0.20188 0.19293,0.3671 0.20153,0.3671 0.008,0 0.1043,-0.12552 0.21263,-0.27906 z m -27.823619,-0.29399 c 0.114321,-0.45009 0.24183,-0.65366 0.469634,-0.74939 0.155877,-0.0654 0.175394,-0.103 0.186896,-0.35932 0.0071,-0.16441 0.08073,-0.43135 0.172365,-0.62731 0.160579,-0.34341 0.166178,-0.43701 0.0574,-0.95906 -0.04691,-0.22478 0.209007,-1.56189 0.41793,-2.18434 0.19002,-0.56607 0.518155,-1.12268 0.927918,-1.57409 0.26764,-0.29479 0.366969,-0.36462 0.554985,-0.38981 0.517401,-0.0699 0.834407,-0.31937 1.667567,-1.31502 0.36266,-0.43338 0.51945,-0.57172 0.81531,-0.71959 0.62019,-0.3099 1.09786,-0.2407 1.56225,0.22628 l 0.24544,0.24679 -0.11055,-0.37213 c -0.0608,-0.20463 -0.13805,-0.54396 -0.17158,-0.7539 -0.0771,-0.48253 -0.0776,-1.60838 -8.8e-4,-2.1383 0.0323,-0.22293 0.0444,-0.41959 0.027,-0.43701 -0.0174,-0.0177 -0.15075,0.0265 -0.29629,0.097 -0.26322,0.12782 -0.28325,0.12852 -3.743643,0.12729 -2.569478,0 -3.693697,-0.023 -4.300162,-0.0849 -0.451637,-0.046 -0.831004,-0.0734 -0.843038,-0.0611 -0.01202,0.0124 0.04691,0.11208 0.130892,0.22222 0.140626,0.18439 0.16712,0.31927 0.332507,1.69279 0.09888,0.82082 0.203149,1.70386 0.231812,1.96232 0.294063,2.6523 0.339685,2.91985 0.851606,4.99328 0.441135,1.78675 0.615233,2.73149 0.618474,3.35598 0.0024,0.40192 0.05822,0.345 0.19636,-0.19879 z m 46.047129,-3.56141 c 0.25861,-0.1728 0.37813,-0.43578 0.51045,-1.12311 0.11691,-0.60752 0.26732,-1.07503 0.36942,-1.14857 0.0247,-0.0177 0.0805,-0.15 0.1237,-0.29372 0.13448,-0.44648 0.36958,-0.75699 0.67545,-0.89233 0.31338,-0.1386 0.65296,-0.15362 1.77323,-0.0787 1.05214,0.0707 1.08004,0.0557 1.48774,-0.79932 0.36571,-0.76681 0.61952,-1.48279 0.66846,-1.8855 0.0331,-0.27234 0.0268,-0.28719 -0.20678,-0.48714 -0.14343,-0.12277 -0.31915,-0.36531 -0.43429,-0.59947 -0.17872,-0.36338 -0.19403,-0.44002 -0.20192,-1.01085 -0.008,-0.578 -0.0236,-0.65375 -0.24343,-1.18048 -0.44336,-1.06239 -0.65415,-1.33605 -1.12715,-1.46342 -0.30594,-0.0821 -0.35759,-0.2574 -0.18803,-0.63695 0.0673,-0.15072 0.1378,-0.35473 0.15666,-0.45345 0.019,-0.0994 0.20552,-0.3846 0.41783,-0.639 l 0.38351,-0.45946 -0.14398,-0.15406 c -0.31332,-0.33528 -0.36335,-0.5125 -0.35855,-1.2702 l 0.005,-0.70493 h -0.30861 c -0.36772,0 -0.52859,-0.1023 -0.88659,-0.56367 -0.40965,-0.52797 -0.74466,-0.88711 -0.88916,-0.9534 -0.0753,-0.0345 -0.18817,-0.16335 -0.25082,-0.28613 -0.14769,-0.28948 -0.46026,-0.4919 -0.99182,-0.64234 -0.41055,-0.11621 -0.4414,-0.11715 -0.77559,-0.023 -0.19355,0.0539 -0.42198,0.0813 -0.51466,0.0611 -0.31017,-0.0681 -0.68926,-0.36701 -1.12101,-0.88392 -0.23653,-0.28321 -0.55772,-0.59427 -0.71385,-0.69133 -0.2413,-0.14999 -0.29696,-0.22062 -0.37153,-0.47174 -0.12682,-0.42703 -0.11114,-0.59859 0.0738,-0.80499 0.22426,-0.25033 0.53335,-0.30938 1.19704,-0.22867 0.29201,0.0354 0.54224,0.053 0.55608,0.0398 0.0138,-0.0141 -0.10984,-0.10902 -0.27469,-0.21153 -0.4031,-0.25059 -0.73019,-0.31812 -1.18701,-0.24511 -0.41259,0.0662 -0.98167,0.22487 -0.98167,0.2742 0,0.0177 0.0493,0.10288 0.10937,0.18863 0.15521,0.22133 0.23365,0.49446 0.33325,1.16005 0.0478,0.32007 0.12884,0.7082 0.17989,0.86244 l 0.0929,0.28048 -0.1885,0.29372 c -0.52,0.81038 -1.54307,1.4248 -3.13425,1.8824 -0.59832,0.1721 -0.76949,0.27199 -0.8342,0.48696 -0.0206,0.068 -0.11585,0.3152 -0.2118,0.54838 -0.18574,0.45177 -0.41126,0.66276 -0.7082,0.66276 -0.10171,0 -0.21236,0.0778 -0.35613,0.24971 -0.1148,0.13728 -0.31863,0.36859 -0.45309,0.514 -0.37111,0.40121 -0.48349,0.73286 -0.38855,1.14627 0.0266,0.11633 0.002,0.29107 -0.0738,0.50958 -0.14129,0.41067 -0.22246,0.98072 -0.26986,1.8954 -0.0361,0.69653 -0.0355,0.7013 0.0797,0.59718 0.17815,-0.16123 0.99759,-0.39759 1.13096,-0.32627 0.13528,0.0725 0.1938,0.29109 0.15005,0.56059 -0.0253,0.15574 -0.007,0.2277 0.0748,0.29682 0.36585,0.30849 0.47299,0.43559 0.47299,0.56103 0,0.20197 -0.16474,0.49437 -0.54077,0.95976 -0.43125,0.5338 -0.61991,0.91893 -0.72472,1.4796 -0.1207,0.64544 -0.23292,0.913 -0.43249,1.03092 -0.3527,0.20834 -0.78534,0.0979 -0.92737,-0.23672 -0.13122,-0.3091 -0.17107,-0.12605 -0.0456,0.20959 0.11444,0.30619 0.4386,0.73842 0.63104,0.8414 0.11137,0.0593 0.15257,0.0371 0.36316,-0.19526 0.13064,-0.14435 0.34079,-0.43233 0.46699,-0.64005 0.37136,-0.61105 0.61643,-0.8795 0.94065,-1.03048 0.16417,-0.076 0.33343,-0.13921 0.37612,-0.13956 0.0943,-7.1e-4 0.20459,-0.1069 0.27505,-0.26492 0.0289,-0.0646 0.0537,-0.45302 0.0554,-0.86316 l 0.002,-0.74558 0.19936,-0.20577 c 0.16214,-0.16742 0.25538,-0.21171 0.49932,-0.23725 0.16498,-0.0168 0.70971,-0.0752 1.2105,-0.12809 1.46354,-0.15539 2.14039,-0.0583 2.83095,0.40413 0.41089,0.27535 0.37832,0.17696 0.32858,0.99229 -0.0129,0.21065 0.0143,0.31592 0.11703,0.45514 l 0.13379,0.18103 -0.2469,0.6023 c -0.25403,0.61981 -0.5102,1.10111 -0.69577,1.30732 -0.0752,0.084 -0.1122,0.23982 -0.12832,0.54114 -0.019,0.35667 -0.0508,0.46371 -0.20153,0.67744 -0.0984,0.13966 -0.21006,0.34323 -0.24811,0.45231 -0.10206,0.29275 -0.33374,0.56897 -0.61603,0.73444 -0.29779,0.17449 -0.972,0.32626 -1.44954,0.32626 -0.7253,0 -1.6726,0.18227 -1.6289,0.31335 0.0778,0.23335 1.6854,1.08449 2.61345,1.38361 1.13801,0.36682 1.91566,0.4713 3.39148,0.45539 0.91403,-0.009 1.07916,-0.0256 1.21791,-0.11871 z m -13.82292,-0.81215 c 0.64123,-0.60301 0.91278,-0.80967 1.21373,-0.92396 l 0.27582,-0.10465 -0.40289,-0.21391 c -0.43793,-0.23257 -0.49482,-0.24927 -0.49482,-0.14479 0,0.18571 -0.50215,1.06636 -0.82797,1.45201 -0.42917,0.50808 -0.3499,0.48634 0.23613,-0.0645 z m -20.942784,-2.4246 c 0.0821,-0.1076 0.24234,-0.25315 0.35611,-0.32351 0.11527,-0.0715 0.20685,-0.17563 0.20685,-0.23574 0,-0.0593 -0.12814,-0.24891 -0.28477,-0.4211 -0.43464,-0.47794 -0.44875,-0.52134 -0.30491,-0.93696 0.0673,-0.19455 0.163,-0.60964 0.21259,-0.92238 0.21776,-1.37335 0.37857,-1.8504 0.72077,-2.1383 l 0.17323,-0.14575 -0.84298,0.0283 c -0.7778,0.0265 -0.86836,0.0185 -1.1711,-0.10454 -0.18046,-0.0734 -0.34236,-0.11898 -0.35978,-0.10159 -0.0174,0.0177 0.0335,0.13321 0.11314,0.25739 0.11008,0.17158 0.15345,0.33829 0.18087,0.69565 0.0198,0.25846 0.13161,1.06469 0.2484,1.79163 0.16975,1.05673 0.21826,1.54377 0.24195,2.42911 l 0.0296,1.10728 0.1654,-0.39211 c 0.091,-0.21558 0.23255,-0.48005 0.31464,-0.58771 z m 67.303204,0.22497 c 0.16977,-0.6069 0.27597,-1.22221 0.4345,-2.51715 0.19122,-1.56199 0.25322,-1.96779 0.38593,-2.52599 0.0614,-0.25846 0.11196,-0.4919 0.1122,-0.51877 0,-0.0265 -0.20446,-0.031 -0.45486,-0.009 -0.25039,0.0212 -1.03684,0.038 -1.74764,0.0371 -1.24554,0 -1.96255,-0.0689 -2.64348,-0.24767 -0.42721,-0.11243 -0.49933,-0.1264 -0.49933,-0.0969 0,0.0159 0.2272,0.25041 0.50489,0.52081 0.27768,0.27048 0.55693,0.59302 0.62053,0.71694 0.0636,0.12385 0.16471,0.48077 0.22468,0.79306 0.06,0.31229 0.12831,0.6206 0.15183,0.68531 0.0866,0.23777 0.34148,0.51506 0.66193,0.72004 0.6905,0.4417 1.12647,1.01519 1.69051,2.22386 0.20219,0.43321 0.36116,0.70634 0.39274,0.67479 0.0292,-0.0292 0.10372,-0.23416 0.1656,-0.4554 z m -47.06096,-4.75807 c 0.33925,-0.0486 0.77543,-0.12552 0.96929,-0.17105 0.19385,-0.046 0.52097,-0.0831 0.72693,-0.0839 0.26727,-6.1e-4 0.56468,-0.0619 1.03879,-0.21382 0.43108,-0.13816 0.71665,-0.19986 0.81335,-0.17554 0.20575,0.0513 0.42917,0.30849 0.4734,0.54414 0.10325,0.55059 0.73864,-0.19862 0.73562,-0.8674 -6.5e-4,-0.11397 -0.02,-0.16873 -0.0457,-0.12834 -0.072,0.11337 -0.55335,0.30866 -0.76408,0.31008 -0.31215,0 -0.50217,-0.13568 -0.67554,-0.4897 -0.0872,-0.1782 -0.15864,-0.34844 -0.15864,-0.37832 0,-0.089 -0.27205,-0.91857 -0.35191,-1.07308 -0.13808,-0.26694 -0.30545,-0.41244 -0.39193,-0.34066 -0.0433,0.0363 -0.0786,0.0966 -0.0786,0.13506 0,0.0381 -0.0566,0.13056 -0.12569,0.20472 -0.1677,0.17997 -0.44162,0.13586 -0.76965,-0.1241 -0.22477,-0.17811 -0.27951,-0.19429 -0.65704,-0.19429 h -0.41184 l -0.31308,0.44064 c -0.47368,0.66656 -0.61202,0.99406 -0.63788,1.51018 -0.0121,0.24175 -0.0378,0.46521 -0.0573,0.4965 -0.0193,0.031 -0.22835,0.14868 -0.46443,0.26076 -0.41239,0.1957 -0.54092,0.31945 -0.46296,0.44558 0.0421,0.068 0.67744,0.0256 1.60878,-0.10761 z m -19.679284,-4.26573 c 0.56542,0 1.19324,0.0274 1.39517,0.0575 0.20192,0.031 0.36715,0.0503 0.36715,0.0432 0,-0.009 -0.0397,-0.10725 -0.0882,-0.22336 -0.0516,-0.12349 -0.0892,-0.40034 -0.0906,-0.66799 -0.002,-0.25147 -0.0413,-0.56288 -0.0886,-0.69219 -0.0473,-0.12923 -0.10253,-0.47352 -0.1229,-0.76512 -0.048,-0.69009 0.0603,-1.09103 0.39059,-1.44522 0.18781,-0.20145 0.23466,-0.29593 0.23466,-0.47334 0,-0.30831 0.14395,-0.64906 0.49178,-1.16403 0.16367,-0.24229 0.39668,-0.58799 0.51782,-0.76822 0.12115,-0.18023 0.25883,-0.47573 0.30596,-0.65676 0.20938,-0.80384 0.54675,-1.04222 1.47479,-1.04222 0.530014,0 0.943574,-0.12216 1.195944,-0.35314 0.21019,-0.19242 0.21016,-0.19207 0.0623,-0.71845 -0.0781,-0.27816 -0.0779,-0.27869 0.11539,-0.4782 0.2513,-0.25925 0.62233,-0.45787 1.33704,-0.71588 0.31841,-0.11491 0.63727,-0.24679 0.70857,-0.29311 0.0713,-0.046 0.28054,-0.28914 0.46498,-0.53972 0.42589,-0.57854 1.14082,-1.3182 1.48738,-1.53865 0.14814,-0.0943 0.39902,-0.18907 0.56151,-0.21223 0.60237,-0.0858 0.92206,-0.33324 1.59035,-1.23059 0.60566,-0.81331 0.8603,-1.05744 1.28183,-1.22875 0.18458,-0.0752 0.32761,-0.15963 0.31781,-0.188 -0.009,-0.0283 -0.28216,-0.27437 -0.60527,-0.54662 -1.38825,-1.16978 -1.98238,-1.72516 -4.24601,-3.969 -0.97834,-0.96974 -1.79783,-1.76881 -1.82108,-1.77562 -0.0232,-0.008 -0.10843,0.0743 -0.18915,0.18112 -0.0808,0.10631 -0.24302,0.31016 -0.36055,0.45292 -0.51298,0.62299 -0.77067,0.96136 -1.40568,1.84563 -2.916674,4.06145 -4.916314,8.29942 -5.986294,12.68693 -0.44622,1.82981 -0.58655,2.65116 -0.7078,4.1433 -0.0702,0.86421 -0.19439,1.67503 -0.31933,2.08535 -0.13396,0.44001 -0.13568,0.43824 0.30582,0.30654 0.33315,-0.0994 0.5608,-0.118 1.42454,-0.11632 z m -23.879487,0.069 c 1.825192,-0.0628 3.170274,-0.045 5.452218,0.0715 0.672453,0.0345 1.235758,0.0495 1.251775,0.0336 0.01603,-0.0159 -0.01202,-0.24635 -0.06246,-0.51188 -0.118422,-0.62432 -0.115617,-0.89523 0.02558,-2.41214 0.419285,-4.50711 1.520251,-9.36727 2.986572,-13.18422 0.06211,-0.16158 0.192518,-0.50525 0.289902,-0.76371 0.181935,-0.48288 0.548162,-1.39076 0.687208,-1.70359 1.237632,-2.78461 2.470468,-5.07609 4.045546,-7.51925 0.702894,-1.09032 1.123826,-1.69917 1.421486,-2.056 0.13474,-0.16158 0.72139,-0.92822 1.30367,-1.70359 1.02345,-1.36291 1.72521,-2.14483 2.37306,-2.64389 l 0.2715,-0.20923 -3.13183,-3.13828 -3.131814,-3.13828 -0.06989,-0.35498 c -0.03842,-0.19525 -0.09063,-0.35498 -0.116088,-0.35498 -0.02546,0 -0.09464,0.0628 -0.153897,0.13904 -0.05928,0.076 -0.413805,0.49288 -0.787928,0.9252 -7.869144,9.09449 -12.708333,19.10712 -14.590509,30.18868 -0.425202,2.50344 -0.564319,3.66218 -0.651132,5.42303 -0.07649,1.55103 -0.141557,2.32163 -0.240993,2.85234 l -0.03736,0.19914 0.522091,-0.038 c 0.287145,-0.0212 1.34157,-0.0663 2.343159,-0.101 z m 18.917187,0.0194 c -0.12814,-0.32643 -0.16085,-0.82443 -0.095,-1.4476 0.13788,-1.30564 0.23038,-2.02276 0.38348,-2.9729 1.16372,-7.22155 4.13163,-13.59004 8.82011,-18.9261 0.36893,-0.41986 0.67077,-0.78359 0.67077,-0.80825 0,-0.0248 -0.16521,-0.18713 -0.36716,-0.36118 -0.20192,-0.17403 -0.3963,-0.34322 -0.43193,-0.37592 -0.0356,-0.0326 -0.33965,-0.30902 -0.67557,-0.61389 -0.93866,-0.85175 -3.40735,-3.34431 -4.2219,-4.26271 -0.40117,-0.45239 -0.74709,-0.8301 -0.76869,-0.83937 -0.0216,-0.009 -0.0536,0.0893 -0.0709,0.21929 -0.0282,0.20977 -0.12547,0.37135 -0.49726,0.82541 -0.0397,0.0486 -0.3702,0.47255 -0.7343,0.94208 -0.3641,0.46964 -0.78721,1.01156 -0.94024,1.20426 -1.14328,1.44018 -1.42039,1.81027 -2.10985,2.81777 -1.34943,1.97194 -2.912567,4.80774 -3.804727,6.90246 -0.172011,0.40387 -0.364258,0.85325 -0.427205,0.99865 -0.271871,0.62786 -0.943227,2.46571 -1.276831,3.4953 -1.19234,3.67977 -1.981399,7.54065 -2.435334,11.91615 -0.115264,1.11074 -0.121652,1.28788 -0.04761,1.31624 0.04702,0.0177 1.48975,0 3.205996,-0.0363 4.713931,-0.1036 5.313481,-0.10254 5.558321,0.009 0.26625,0.12226 0.31515,0.12155 0.26593,0 z m 88.440474,-0.0977 0.26619,-0.1417 3.75731,-0.0636 c 3.91369,-0.0662 5.13781,-0.10819 5.13781,-0.17651 0,-0.0222 -0.0241,-0.0654 -0.0534,-0.0964 -0.14518,-0.15168 -0.25086,-0.76309 -0.29902,-1.73001 -0.11882,-2.38562 -0.58786,-5.8437 -1.15135,-8.48848 -0.53674,-2.51935 -1.54219,-5.98592 -2.31726,-7.98925 -0.34332,-0.88746 -0.95645,-2.4322 -1.02586,-2.58467 -0.0441,-0.097 -0.26955,-0.59922 -0.5009,-1.11622 -2.05586,-4.59374 -5.14887,-9.60691 -8.53542,-13.83426 -1.3672,-1.70659 -2.86136,-3.47133 -2.97402,-3.51253 -0.026,-0.009 -0.22753,0.21523 -0.44786,0.49933 -0.22035,0.28418 -0.41511,0.52982 -0.43281,0.546 -0.0177,0.0159 -0.18997,0.21444 -0.38282,0.44055 -0.19285,0.22619 -0.50033,0.56986 -0.68329,0.76371 -0.18297,0.19383 -0.40368,0.43179 -0.49047,0.52866 -0.0867,0.097 -0.96413,1.00017 -1.94962,2.00713 -1.94217,1.98458 -1.75783,1.8398 -2.53351,1.98953 l -0.19185,0.0371 0.27996,0.25306 c 0.15398,0.13913 0.37076,0.40793 0.48171,0.59727 0.21554,0.36779 0.40632,0.60857 0.48222,0.60857 0.0256,0 0.20482,0.10855 0.39814,0.24123 0.50897,0.34923 1.36884,1.26197 2.06862,2.19584 0.3349,0.44691 0.69109,0.92069 0.79154,1.05283 0.31769,0.4181 1.23174,1.31333 1.42694,1.39766 0.0224,0.009 0.16839,0.24035 0.32457,0.51268 0.32814,0.57207 0.63083,1.00501 1.50184,2.14837 1.12734,1.47977 1.53227,2.14837 1.81434,2.99597 0.0968,0.29071 0.1948,0.7005 0.21785,0.91052 0.0245,0.22302 0.1257,0.5773 0.24335,0.85175 0.11079,0.25855 0.31992,0.74754 0.4647,1.08679 2.44944,5.73965 3.79792,11.33886 4.06736,16.88891 0.0421,0.86687 0.037,0.95482 -0.0665,1.13089 -0.13906,0.23681 -0.0635,0.24874 0.31147,0.0495 z m -11.10541,-0.0985 c 0.63003,-0.0345 2.60386,-0.0805 4.38626,-0.10194 1.78242,-0.0222 3.25801,-0.0566 3.27908,-0.0778 0.0211,-0.0212 -0.013,-0.14009 -0.0755,-0.26437 -0.0697,-0.13825 -0.12955,-0.41996 -0.15425,-0.72535 -0.0873,-1.07944 -0.3152,-2.83642 -0.57141,-4.40574 -0.59065,-3.61779 -1.69648,-7.41424 -2.94505,-10.11073 -0.14043,-0.30328 -0.31777,-0.69017 -0.3941,-0.8598 -0.0764,-0.16961 -0.16931,-0.30839 -0.20662,-0.30839 -0.0372,0 -0.32998,0.0921 -0.6504,0.20436 -0.71877,0.2521 -1.05918,0.26783 -1.30575,0.0601 -0.10489,-0.0884 -0.18958,-0.22885 -0.21294,-0.35339 -0.0259,-0.13834 -0.15138,-0.32803 -0.37884,-0.57306 -0.18703,-0.20145 -0.38263,-0.41915 -0.43469,-0.48377 -0.0521,-0.0646 -0.40961,-0.514 -0.79459,-0.99866 -0.38499,-0.48465 -0.93489,-1.10843 -1.22201,-1.38625 l -0.52207,-0.50516 -0.37991,-0.0389 c -0.53691,-0.0548 -0.9796,-0.28391 -1.76425,-0.9137 -0.71847,-0.57659 -1.18442,-0.85096 -1.56035,-0.91857 -0.16818,-0.0301 -0.30582,-0.11801 -0.50411,-0.32114 -0.23038,-0.23609 -0.30188,-0.36956 -0.46011,-0.85899 -0.27711,-0.85696 -0.53605,-1.06698 -1.17309,-0.95118 -0.28508,0.0521 -0.32648,0.0432 -0.63867,-0.13286 -0.65673,-0.37037 -1.06845,-0.76035 -1.39997,-1.32606 -0.12852,-0.2193 -0.16239,-0.38654 -0.23318,-1.15148 -0.12682,-1.37053 -0.32099,-2.08447 -0.76855,-2.82582 -0.27469,-0.45504 -0.82268,-1.00148 -1.09412,-1.09111 -0.30239,-0.0998 -0.61234,0 -1.21016,0.40069 -0.59311,0.39466 -0.80694,0.49013 -1.1162,0.49826 l -0.22868,0.009 0.2228,0.19066 c 0.27354,0.23415 0.39051,0.51435 0.46599,1.11622 0.0634,0.50543 0.12794,0.715 0.29262,0.94995 0.0593,0.0848 0.1416,0.29929 0.18281,0.47696 0.12889,0.55555 0.44772,1.10058 1.16262,1.98759 0.67614,0.83902 0.99959,1.49506 1.05338,2.13671 0.0384,0.45795 0.1082,0.54564 0.39713,0.49871 0.26045,-0.0424 0.2486,-0.053 1.23531,1.16332 0.44544,0.54927 0.84981,1.04507 0.89862,1.10172 0.0762,0.0885 0.0778,0.13612 0.0118,0.33758 -0.10195,0.30884 -0.002,0.65524 0.26437,0.92219 0.26432,0.26438 0.58582,0.26721 1.06612,0.009 0.18905,-0.10135 0.41983,-0.22398 0.51283,-0.27233 0.29906,-0.15557 0.64988,-0.16193 0.85541,-0.0159 0.20609,0.14682 0.35598,0.4013 0.35598,0.60443 0,0.076 -0.12116,0.38521 -0.26924,0.68769 -0.28591,0.584 -0.35166,0.86102 -0.20071,0.84556 0.0484,-0.009 0.28065,-0.0432 0.51598,-0.0858 0.39247,-0.0707 0.44473,-0.0672 0.63151,0.0328 0.18244,0.0983 0.20363,0.13524 0.20363,0.35552 0,0.31141 -0.17508,0.63439 -0.57276,1.05664 -0.3299,0.3503 -0.36812,0.47458 -0.2056,0.66851 0.10737,0.12825 0.67071,0.30133 0.98161,0.30177 0.42011,5.3e-4 0.79132,0.45611 0.79411,0.97462 8.8e-4,0.15989 0.0384,0.27419 0.11219,0.34092 0.0609,0.0548 0.18654,0.26412 0.27904,0.46433 0.25127,0.54396 0.23376,1.14865 -0.0651,2.24383 -0.29058,1.06512 -0.30897,1.66478 -0.0702,2.29077 0.3255,0.85379 0.15137,1.67106 -0.57581,2.7025 -0.20028,0.2841 -0.25511,0.41845 -0.28268,0.69247 -0.0514,0.51188 -0.51788,1.36204 -1.19422,2.17684 -0.0494,0.0593 -0.1817,0.27525 -0.29389,0.47934 -0.2249,0.40918 -0.17582,0.38513 -1.13887,0.55927 -0.63973,0.11573 -0.74413,0.16211 -0.82962,0.36832 -0.11954,0.28825 -0.0907,0.55634 0.11385,1.05921 0.19294,0.47422 0.22929,0.73215 0.12946,0.91865 -0.0541,0.10112 -0.008,0.10996 0.77836,0.14709 0.45977,0.0222 1.17543,0.031 1.59038,0.0204 l 0.75443,-0.0186 -0.13088,-0.16626 c -0.24018,-0.30496 -0.3651,-0.92132 -0.37112,-1.83105 -0.007,-1.09208 0.1186,-1.62554 0.60245,-2.55436 0.14277,-0.2741 0.38787,-0.8689 0.54469,-1.32172 0.48686,-1.40615 0.89601,-2.10002 1.41875,-2.40639 0.5303,-0.31079 0.68641,-0.15805 0.6857,0.6708 -7.1e-4,0.83664 -0.0969,1.52088 -0.29803,2.12133 l -0.18027,0.53804 0.21116,0.4188 c 0.42163,0.83611 0.6032,1.80206 0.66045,3.51368 0.0358,1.07079 0.0408,1.10517 0.15984,1.10446 0.0677,-7.1e-4 0.63837,-0.0291 1.2684,-0.0636 z m -7.39476,-4.1691 c 0.33356,-0.17015 0.61643,-0.54609 1.03086,-1.36999 0.20936,-0.41624 0.44409,-0.85263 0.52163,-0.96984 l 0.14095,-0.21294 -0.2662,-0.96878 c -0.27017,-0.98327 -0.55254,-1.87417 -0.69706,-2.19945 -0.0437,-0.0985 -0.14819,-0.33422 -0.23199,-0.52364 -0.23671,-0.53522 -0.56088,-1.03595 -0.67099,-1.03658 -0.16906,0 -0.66431,-0.32413 -1.21468,-0.79261 -0.59082,-0.50295 -0.86816,-0.68009 -1.27812,-0.81639 -0.40032,-0.13311 -0.72492,-0.36612 -0.83594,-0.6001 -0.0876,-0.18456 -0.0882,-0.22972 -0.005,-0.50914 0.0497,-0.16855 0.21794,-0.51806 0.37381,-0.77652 0.50868,-0.84343 0.57688,-1.14229 0.35845,-1.57047 -0.41726,-0.81788 -1.28563,-1.9905 -2.89471,-3.90905 l -1.1469,-1.36743 -0.0844,0.16326 c -0.1063,0.2056 -0.20345,0.30929 -1.99821,2.13308 -2.83,2.87594 -4.50269,4.60515 -5.79528,5.99105 -1.17808,1.26321 -1.08111,1.13089 -0.9766,1.33296 0.0965,0.18659 0.58734,0.6632 0.68303,0.6632 0.0331,0 0.06,-0.0407 0.06,-0.0913 0,-0.0504 0.10701,-0.41377 0.23776,-0.80773 0.13077,-0.39405 0.26294,-0.84565 0.29373,-1.00352 0.0647,-0.33191 0.22137,-0.5124 0.59003,-0.67964 0.35953,-0.16309 0.74937,-0.14966 1.46771,0.0503 0.56336,0.15707 0.6875,0.17042 1.55223,0.16689 0.80782,0 1.08565,0.022 1.97705,0.18164 0.57042,0.10206 1.19527,0.18562 1.38853,0.18562 0.60443,0 1.00206,0.35392 1.66925,1.48597 0.19994,0.33925 0.44185,0.64561 0.70424,0.89178 0.34718,0.32564 0.39969,0.4021 0.39969,0.58189 0,0.2543 -0.0944,0.48571 -0.28269,0.69326 -0.12259,0.13506 -0.13755,0.1942 -0.10477,0.41314 0.0431,0.28781 0.23022,0.6336 0.34248,0.63307 0.13107,-6.2e-4 0.38865,-0.16123 0.82425,-0.514 0.74839,-0.60593 0.85806,-0.62644 1.87089,-0.34915 0.688,0.18828 0.87138,0.30592 1.06221,0.68133 0.17546,0.34508 0.20182,0.37062 0.76404,0.74099 0.44527,0.29328 0.5729,0.45443 0.61634,0.77829 0.0372,0.27809 -0.12003,0.48758 -0.56213,0.74833 l -0.29876,0.17626 -8.9e-4,0.31008 c -8.8e-4,0.26075 -0.0526,0.40801 -0.32425,0.92608 -0.17771,0.33889 -0.3231,0.67849 -0.3231,0.75469 0,0.3076 0.072,0.49933 0.19761,0.52603 0.21011,0.045 0.63915,-0.0248 0.86678,-0.14135 z m -23.57342,-4.67444 c 0.4981,-0.19676 0.51673,-0.21294 0.56039,-0.4859 0.0468,-0.29275 0.34494,-0.86094 0.58431,-1.11356 0.24852,-0.26235 0.69418,-0.59082 1.12697,-0.83062 0.66905,-0.37081 0.76511,-0.42526 1.14552,-0.64897 0.67263,-0.39574 1.22244,-0.9245 1.474,-1.41764 0.12561,-0.24617 0.0952,-0.26836 -0.21426,-0.15645 -0.16173,0.0583 -0.21127,0.0513 -0.35663,-0.0513 -0.0929,-0.0654 -0.2349,-0.13877 -0.31568,-0.16299 -0.47369,-0.14196 -0.46909,-0.42004 0.0146,-0.88781 0.59611,-0.57632 0.9653,-0.88243 1.19676,-0.99221 l 0.21742,-0.10313 -0.14167,-0.10748 c -0.21091,-0.15991 -2.27416,-1.34348 -3.04952,-1.7493 -1.61747,-0.84652 -3.28439,-1.51857 -4.96388,-2.00119 -0.74926,-0.21533 -1.00368,-0.27004 -1.93856,-0.41641 -1.0253,-0.16062 -1.70321,-0.29073 -2.04714,-0.39282 -0.15667,-0.0469 -0.2971,-0.0725 -0.31211,-0.0575 -0.015,0.015 0.0163,0.22169 0.0695,0.45919 0.0766,0.34182 0.10701,0.96551 0.14554,2.9874 0.0268,1.40543 0.072,2.63206 0.10053,2.72583 0.0482,0.15858 0.12085,0.19429 1.04588,0.51401 0.54679,0.18898 1.03088,0.34357 1.07577,0.34357 0.0449,0 0.21755,-0.13683 0.38367,-0.30397 0.16614,-0.16716 0.67619,-0.55068 1.13343,-0.8522 0.45727,-0.30149 0.91511,-0.6472 1.01743,-0.76812 0.39898,-0.47157 0.41615,-0.48422 0.6569,-0.48422 0.27579,0 0.48809,0.10171 0.71859,0.34412 l 0.1696,0.17846 -0.0319,0.72261 c -0.0345,0.77856 -0.18127,1.44663 -0.42229,1.92226 -0.17524,0.34588 -0.61189,0.83416 -0.9976,1.11569 -0.28614,0.20887 -0.45899,0.31096 -1.35454,0.80048 -0.88467,0.4836 -1.538,0.97223 -1.4627,1.09403 0.0522,0.084 0.49025,0.0539 0.68711,-0.0477 0.10336,-0.0539 0.31645,-0.18562 0.47363,-0.29373 0.57556,-0.39591 1.12039,-0.19437 2.18504,0.80853 0.46794,0.44072 0.50539,0.46352 0.76308,0.46352 0.15444,0 0.43955,-0.0662 0.66286,-0.15478 z m -15.9943,-2.1025 c 0.56373,-0.0984 0.77184,-0.20931 0.90001,-0.47961 0.0445,-0.0941 0.12749,-0.22381 0.18428,-0.28851 0.1831,-0.20826 0.33907,-0.58084 0.55007,-1.31369 0.26154,-0.90849 0.40465,-1.19215 0.76496,-1.5161 0.48937,-0.43994 0.77773,-0.25926 0.64218,0.40244 -0.0862,0.42075 -0.0527,0.50225 0.22583,0.54937 0.28146,0.0477 0.60113,0 1.10866,-0.15009 0.46646,-0.14179 0.97769,-0.15151 1.16262,-0.0222 0.0739,0.0522 0.14988,0.0787 0.16887,0.0593 0.019,-0.0185 -0.008,-0.20012 -0.0601,-0.40254 -0.27659,-1.0752 -0.35335,-2.08898 -0.32546,-4.29764 0.0224,-1.77217 0.0211,-1.79789 -0.0959,-1.7978 -0.29756,3.5e-4 -2.31001,0.37231 -3.1934,0.59037 -3.80553,0.93925 -6.75396,2.52439 -9.43775,5.0739 l -0.52869,0.50224 0.36422,7.1e-4 c 0.22639,6.1e-4 0.38202,0.0283 0.41121,0.0743 0.0936,0.14628 0.41137,0.3244 1.00093,0.56093 0.74423,0.29859 1.12969,0.54635 1.32975,0.85493 0.22076,0.34049 0.20018,0.4508 -0.13712,0.73525 -0.31694,0.2672 -0.32965,0.36647 -0.0612,0.47767 0.0923,0.0379 0.21341,0.11994 0.26923,0.18156 0.0558,0.0619 0.16492,0.1122 0.24245,0.1122 0.11432,0 0.16784,-0.0609 0.28273,-0.32051 0.15306,-0.34605 0.35006,-0.51657 0.59681,-0.51657 0.11908,0 0.26102,0.11232 0.60267,0.47724 0.24579,0.26252 0.4651,0.47732 0.48735,0.47732 0.0223,0 0.18019,-0.0556 0.35102,-0.12296 0.45916,-0.18174 0.96345,-0.14019 1.26298,0.10406 0.15371,0.12534 0.25078,0.16662 0.31406,0.13348 0.0504,-0.0265 0.32792,-0.0892 0.6168,-0.13958 z m 24.40085,-7.01914 c 0.43297,-0.5803 0.91958,-1.10287 2.71243,-2.91305 0.99201,-1.00158 1.87484,-1.90724 1.96183,-2.01261 0.0885,-0.10725 0.4908,-0.37875 0.91334,-0.61662 0.41532,-0.23379 0.73658,-0.4401 0.71384,-0.45849 -0.0227,-0.0185 -0.16027,-0.0831 -0.30566,-0.14382 -0.14538,-0.0609 -0.39652,-0.21903 -0.55807,-0.35197 -0.71243,-0.58613 -1.88678,-1.46519 -2.87846,-2.15456 -1.15866,-0.80552 -3.46631,-2.14121 -4.69953,-2.72018 -3.49438,-1.64056 -6.07292,-2.38403 -10.89704,-3.1419 -0.63002,-0.099 -1.29089,-0.20498 -1.46859,-0.23548 -0.17771,-0.031 -0.48887,-0.0734 -0.69148,-0.0949 l -0.36837,-0.0398 0.12026,0.28064 c 0.11762,0.27437 0.12017,0.37275 0.11527,4.508 -0.002,2.32507 0.006,4.23868 0.02,4.25247 0.0138,0.0141 0.14087,0 0.28246,-0.0345 0.46469,-0.10713 0.68864,-0.0848 2.54844,0.25536 1.82125,0.33298 4.13395,1.01368 5.84504,1.72047 0.85931,0.3549 2.80977,1.3303 3.37779,1.68917 1.11435,0.70405 2.5632,1.73072 2.70725,1.91838 0.0345,0.0451 0.10984,0.20914 0.16731,0.36453 0.0575,0.15548 0.11597,0.2711 0.13002,0.25705 0.014,-0.0141 0.12737,-0.16203 0.25183,-0.32882 z m -33.41603,-0.009 c 0.11008,-0.16299 0.3332,-0.3975 0.49587,-0.52107 0.83264,-0.63289 3.08473,-2.088 4.13943,-2.67457 1.82171,-1.01316 4.12054,-1.91829 5.38749,-2.12132 0.31627,-0.0503 0.91869,-0.16795 1.33871,-0.2605 1.13167,-0.24953 1.66438,-0.31185 2.41897,-0.28303 l 0.67914,0.0265 -0.0397,-0.38592 c -0.24629,-2.39101 -0.25718,-6.18445 -0.0232,-8.08824 0.0372,-0.30354 0.0517,-0.56792 0.0321,-0.58763 -0.0197,-0.0195 -0.1262,0.0203 -0.23678,0.0886 -0.15731,0.0972 -0.39558,0.14373 -1.09576,0.21391 -4.17069,0.41827 -8.07924,1.56676 -11.98555,3.5219 -1.39332,0.69742 -2.36583,1.26004 -4.11412,2.38023 -1.02639,0.65755 -3.81633,2.76058 -3.81633,2.87663 0,0.0265 0.0337,0.0609 0.075,0.0768 0.1109,0.0424 1.21731,0.93317 1.67334,1.34684 0.21773,0.19755 1.14928,1.11604 2.07009,2.04106 1.86926,1.87772 2.6674,2.64656 2.74748,2.64656 0.0296,0 0.1439,-0.1333 0.25396,-0.29621 z m -8.99335,-8.521 c 0.1454,-0.13145 0.43619,-0.39299 0.64619,-0.58127 3.93929,-3.53225 8.89372,-6.20752 14.40739,-7.77967 1.54017,-0.43921 3.08577,-0.80454 3.74454,-0.88506 0.1777,-0.022 0.79892,-0.12172 1.3805,-0.22214 0.91218,-0.15759 1.20543,-0.18315 2.13539,-0.18615 h 1.07801 l -0.0339,-0.32307 c -0.13993,-1.33348 -0.22198,-5.92467 -0.13569,-7.59272 l 0.0478,-0.9252 h -0.26531 c -0.679,0 -3.36149,0.29753 -5.05864,0.56102 -1.44389,0.22416 -3.89409,0.77317 -5.46322,1.22406 -2.36875,0.68071 -3.74673,1.18693 -6.66744,2.44934 -1.21069,0.5233 -4.00119,2.0317 -5.43385,2.93729 -1.53394,0.96966 -2.17264,1.42797 -3.759614,2.69816 -1.60563,1.28514 -2.05342,1.62492 -2.71964,2.06353 -0.34583,0.22769 -0.63662,0.42153 -0.64622,0.43072 -0.009,0.009 0.12258,0.11786 0.29371,0.24123 0.91656,0.661 1.75119,1.42744 3.73177,3.42687 1.628064,1.64366 2.213544,2.2716 2.291024,2.45731 0.0573,0.13718 0.11726,0.24918 0.13342,0.24883 0.0161,-3.6e-4 0.14833,-0.10808 0.29372,-0.23955 z m 46.5716,-3.41628 c -0.29589,-0.34862 -0.75118,-1.21804 -0.75118,-1.43433 0,-0.10619 0.0455,-0.15903 0.17623,-0.20464 0.31704,-0.11043 0.21172,-0.5201 -0.31676,-1.23201 -0.62113,-0.83672 -0.69802,-1.04514 -0.4651,-1.261 0.11161,-0.10348 0.22008,-0.1416 0.40239,-0.1416 0.23928,0 0.27196,0.0239 0.79406,0.5727 0.66617,0.70077 1.25635,1.40366 1.75538,2.09055 l 0.37713,0.51904 0.25062,-0.038 c 0.14315,-0.0212 0.35903,-0.009 0.50345,0.0344 0.13907,0.0398 0.26607,0.0752 0.28223,0.0787 0.0161,0 0.0929,0.0415 0.17044,0.0839 0.12935,0.0715 0.13714,0.0689 0.0936,-0.0318 -0.0262,-0.0601 -0.0768,-0.38724 -0.11267,-0.72649 -0.0645,-0.61 -0.0687,-0.62167 -0.37916,-1.06593 -0.40369,-0.57755 -0.4544,-0.87049 -0.21366,-1.23431 0.18036,-0.27251 0.24127,-0.57993 0.17982,-0.90743 -0.0334,-0.17767 -0.16149,-0.33704 -0.67592,-0.84087 -0.79715,-0.7805 -0.94112,-1.09783 -0.76964,-1.69581 0.0416,-0.14487 0.029,-0.27162 -0.0509,-0.51391 -0.13985,-0.42393 -0.33185,-0.69141 -0.87563,-1.21982 -0.83249,-0.80904 -1.0957,-1.07281 -1.25127,-1.25428 -0.19443,-0.22672 -2.35449,-1.16077 -4.22168,-1.82539 -4.63018,-1.64834 -9.10178,-2.61508 -12.69999,-2.7459 -0.8105,-0.0291 -1.51269,-0.1386 -1.76713,-0.27482 -0.15699,-0.0839 -0.18307,-0.03 -0.0808,0.16786 0.15736,0.30433 0.16731,7.21422 0.0124,8.58607 l -0.0356,0.31548 0.16289,-0.0397 c 0.38612,-0.0946 1.18054,-0.0975 1.749,-0.009 0.32309,0.0522 0.90466,0.13302 1.29236,0.18032 1.24809,0.15221 3.00305,0.50613 4.84639,0.97726 4.2126,1.0768 7.94838,2.72716 11.16108,4.9306 0.37172,0.25502 0.68569,0.4638 0.69769,0.46398 0.012,2.6e-4 -0.0959,-0.13842 -0.23992,-0.30805 z m -55.206944,-5.23973 c 0,-0.15549 2.92348,-2.59962 4.58985,-3.83728 3.534004,-2.62482 7.458644,-4.79803 11.623524,-6.43656 3.20789,-1.26197 7.14074,-2.29289 10.66206,-2.79478 1.79887,-0.25634 3.94432,-0.47449 4.66766,-0.47449 0.19141,0 0.36289,-0.0239 0.38106,-0.053 0.0183,-0.0291 -0.0183,-0.17307 -0.0808,-0.31918 -0.10655,-0.24855 -0.11774,-0.51161 -0.17335,-4.05906 -0.0592,-3.77284 -0.0588,-3.79546 0.0642,-4.20464 0.068,-0.22628 0.1129,-0.42153 0.0997,-0.43391 -0.0412,-0.0389 -2.55552,0.13621 -3.75419,0.26137 -2.30035,0.24034 -4.5219,0.60346 -6.81433,1.11401 -0.9409,0.20957 -1.35738,0.3122 -2.64088,0.65092 -0.7567,0.19959 -3.34985,0.99379 -3.61537,1.1072 -0.0646,0.0273 -0.32896,0.12295 -0.58743,0.21187 -5.11621,1.76025 -10.620114,4.64157 -15.743424,8.24151 -1.11075,0.78051 -2.51452,1.93738 -3.52466,2.90492 -0.26443,0.25325 -1.47564,1.21663 -1.90045,1.51151 -0.21713,0.1508 -0.33993,0.26977 -0.29372,0.28472 0.12495,0.0407 0.71343,0.50409 1.60673,1.26595 0.88006,0.75055 3.19395,3.04485 4.49393,4.45577 0.69625,0.75575 0.80201,0.84892 0.86648,0.76371 0.0404,-0.053 0.0734,-0.12544 0.0734,-0.16017 z m 69.719414,-1.99988 c 0.53407,-0.70828 0.94075,-1.14565 2.43724,-2.62136 1.47919,-1.45865 1.54074,-1.51133 1.98742,-1.70014 0.25353,-0.10713 0.46097,-0.21418 0.46097,-0.23777 0,-0.0354 -1.30119,-1.2313 -1.96792,-1.80895 -1.08316,-0.9382 -1.85102,-1.55809 -3.34411,-2.69941 -1.44905,-1.10773 -3.80498,-2.65707 -5.70249,-3.75012 -1.92012,-1.10597 -3.61764,-1.95117 -6.1094,-3.04158 -5.44641,-2.38358 -12.87978,-4.21029 -18.65126,-4.58358 -1.43993,-0.0931 -2.14683,-0.18085 -2.89593,-0.35949 -0.21961,-0.0521 -0.41149,-0.0831 -0.42638,-0.068 -0.015,0.015 -6.4e-4,0.27578 0.0317,0.57976 0.12535,1.1788 0.18187,3.73661 0.12043,5.45036 -0.0331,0.92493 -0.0596,1.74777 -0.0588,1.82856 0.001,0.13948 0.006,0.14099 0.0681,0.0292 0.0955,-0.16821 0.16642,-0.20366 0.40996,-0.20472 0.24039,0 0.52534,0.19827 0.66231,0.46318 0.11432,0.22098 0.17665,1.0509 0.0948,1.26233 -0.0362,0.0933 -0.0526,0.18288 -0.0364,0.19897 0.0162,0.0159 0.16366,-0.0283 0.32794,-0.0994 0.29813,-0.12817 0.30062,-0.12825 1.27343,-0.0363 5.20514,0.49474 10.04831,1.76476 14.85042,3.89413 1.05203,0.46644 2.89571,1.39491 3.71556,1.87108 0.13733,0.0796 0.24967,0.12128 0.24967,0.0923 0,-0.0849 1.13294,-0.58674 1.6831,-0.7462 0.83876,-0.24308 1.63767,-0.1767 2.16289,0.17979 0.20204,0.13709 0.2551,0.14663 0.61647,0.11102 0.55986,-0.0548 0.778,0.0575 1.50007,0.7744 0.3934,0.39051 0.67477,0.61874 0.8518,0.69069 0.60679,0.24679 1.27061,0.72782 1.99618,1.44655 0.8601,0.85201 1.31446,1.61802 1.61933,2.7299 0.0863,0.31459 0.14429,0.396 0.56402,0.79146 0.25732,0.24238 0.52212,0.52851 0.58841,0.63582 l 0.12057,0.19507 0.26701,-0.45787 c 0.14685,-0.25182 0.38661,-0.61645 0.53279,-0.81029 z m -5.32741,-5.08715 c -0.29258,-0.0884 -0.61397,-0.31998 -0.86884,-0.62617 -0.58215,-0.69928 -0.74776,-0.87942 -0.9733,-1.05832 -0.13333,-0.10584 -0.30211,-0.20728 -0.37507,-0.22558 -0.15811,-0.0397 -0.29188,-0.30132 -0.34767,-0.68009 -0.0362,-0.24581 -0.0244,-0.29178 0.10972,-0.42587 0.19249,-0.19252 0.40563,-0.19296 0.87581,0 0.35582,0.1446 0.64124,0.1538 0.7219,0.023 0.0607,-0.0981 0.2855,-0.0566 0.64339,0.11818 0.62951,0.30787 0.91053,0.6564 0.91053,1.1293 0,0.17025 0.0596,0.43348 0.14687,0.64809 0.17619,0.43366 0.19507,0.86678 0.0437,1.00369 -0.13154,0.11907 -0.63108,0.17281 -0.88713,0.0953 z m -25.79712,-7.07377 c -0.4487,-0.11007 -0.81756,-0.28329 -1.17505,-0.55192 -0.33897,-0.25465 -0.7635,-0.78121 -0.7635,-0.94685 0,-0.0592 0.0924,-0.20543 0.20532,-0.32511 l 0.20532,-0.2177 0.42618,0.0432 c 0.6831,0.0699 0.81893,0.0583 1.16048,-0.0999 0.17769,-0.0822 1.14213,-0.49977 2.14318,-0.92767 l 1.82009,-0.77795 0.70591,0.0662 c 1.82741,0.17218 3.0083,0.59364 3.80713,1.35858 0.53332,0.51073 0.54883,0.6168 0.13667,0.93476 -0.48677,0.37549 -1.19326,0.75707 -1.69889,0.91741 -0.5036,0.15973 -1.27821,0.19598 -1.71524,0.0805 -0.12924,-0.0344 -0.30106,-0.0752 -0.38184,-0.0909 -0.0807,-0.0159 -0.59625,0.0778 -1.1455,0.20772 -0.54926,0.13003 -1.25612,0.2773 -1.57078,0.32723 -0.68984,0.10949 -1.71676,0.11043 -2.15948,0 z m 39.68556,113.1548 c 2.74025,-2.62808 4.70366,-5.71208 6.43873,-10.11375 0.41318,-1.04819 1.36856,-3.77474 1.95655,-5.58359 1.99687,-6.14344 3.47094,-9.54133 5.21156,-12.01321 0.52641,-0.74754 1.7158,-2.45642 2.24877,-3.23091 0.62951,-0.91486 1.54296,-2.18038 1.80166,-2.49611 0.9799,-1.19613 1.37047,-1.65462 1.44594,-1.69766 0.0677,-0.038 0.0826,-0.031 0.0572,0.0292 -0.019,0.045 -0.15662,0.35526 -0.30571,0.68973 -1.1405,2.5586 -1.64466,4.72942 -2.49864,10.75883 -0.58284,4.1151 -0.90355,5.78403 -1.47879,7.69552 -0.65244,2.16799 -1.41838,3.77761 -2.78127,5.84506 -0.40727,0.61786 -1.20569,1.71596 -1.47353,2.02665 -0.0696,0.0805 -0.28985,0.34359 -0.48938,0.58401 -0.72024,0.86792 -1.5807,1.7728 -2.67063,2.80848 -0.72682,0.6907 -0.75809,0.79121 -0.15938,0.5125 0.36637,-0.1706 1.5533,-0.99918 1.76911,-1.2351 0.25306,-0.27658 1.94457,-1.74397 2.46726,-2.14042 0.27462,-0.20825 0.52576,-0.39971 0.55806,-0.42552 0.54708,-0.43683 2.19231,-1.52335 3.3778,-2.23075 1.57328,-0.93885 2.58104,-1.47176 6.49121,-3.43267 1.58316,-0.79394 3.15603,-1.59035 3.49528,-1.76987 4.50471,-2.38358 7.19818,-4.35942 9.49299,-6.96371 1.49035,-1.6913 2.54663,-3.28775 3.2918,-4.97507 0.18059,-0.4089 0.19469,-0.42552 0.19613,-0.23158 8.5e-4,0.11491 -0.0516,0.49817 -0.11656,0.85165 -0.69165,3.76472 -2.37319,7.404 -5.08771,11.01128 -0.35254,0.46848 -0.71009,0.93113 -0.79454,1.02801 -0.0845,0.097 -0.3616,0.42737 -0.61584,0.73436 -0.67053,0.80949 -2.84213,2.9739 -3.89901,3.88602 -1.98282,1.71128 -3.96773,3.12351 -6.14367,4.37126 -0.96271,0.55201 -2.667,1.41012 -3.37288,1.69819 -0.21001,0.0857 -0.46115,0.1919 -0.55806,0.23601 -0.28927,0.13152 -1.55106,0.59275 -2.06288,0.75398 -1.22317,0.38557 -3.23282,0.81489 -7.89427,1.68644 -1.05005,0.19631 -2.29248,0.43763 -2.76097,0.53636 -0.46849,0.0987 -0.97075,0.20172 -1.11613,0.22894 -0.6022,0.11302 -2.90881,0.71509 -3.70089,0.96595 -0.46848,0.14841 -0.90466,0.28506 -0.96927,0.30362 -0.0646,0.0186 0.22791,-0.29743 0.65008,-0.70236 z M 66.61668,961.15976 c -0.440288,-0.29531 -0.841105,-0.56341 -0.890711,-0.59567 -0.915012,-0.59603 -4.466645,-2.86514 -5.495424,-3.51094 -0.858889,-0.53911 -4.477559,-2.94496 -5.198958,-3.45648 -4.095351,-2.9036 -7.276421,-5.73852 -9.419177,-8.39417 -1.429537,-1.77174 -2.540073,-3.509 -3.398408,-5.31635 -0.341948,-0.72005 -0.521679,-1.1514 -1.167555,-2.80194 -0.655528,-1.67531 -1.119941,-3.75146 -1.337727,-5.98036 -0.138375,-1.41595 -0.08321,-7.06165 0.06741,-6.89326 0.0244,0.0273 0.07543,0.31653 0.113496,0.64269 0.137739,1.18039 0.441843,2.40313 0.897169,3.60711 0.419073,1.10818 1.277067,2.7277 2.005088,3.78478 0.09063,0.13153 0.235984,0.34491 0.323091,0.47413 0.405779,0.60213 1.022191,1.38485 1.942377,2.4665 0.909037,1.06858 1.72835,1.9296 4.55624,4.78848 2.905204,2.93691 3.34515,3.40602 4.763455,5.07919 0.531449,0.62697 1.547429,1.97892 1.886089,2.5099 1.059563,1.66115 2.388192,3.65174 2.821691,4.22744 0.566476,0.7524 1.466992,1.73585 1.530905,1.67194 0.04797,-0.0477 -0.284222,-0.67249 -0.731392,-1.37503 -1.610777,-2.53085 -2.698991,-6.05442 -2.951898,-9.55811 -0.204021,-2.82652 0.0627,-5.31565 1.0542,-9.83965 0.561385,-2.56134 0.816709,-3.99683 0.966516,-5.43382 0.171917,-1.64922 0.172164,-2.37748 0.0012,-4.34704 l -0.03559,-0.4112 0.156477,0.32307 c 0.338213,0.6983 0.858913,2.05981 1.213154,3.17214 0.933374,2.93091 1.518754,5.91396 2.011606,10.25092 0.174309,1.53388 0.238034,2.20044 0.623412,6.52053 0.488938,5.4811 0.756413,7.64468 1.270962,10.28027 0.473216,2.42389 0.822,3.42944 2.044747,5.89461 0.414807,0.83637 0.899726,1.87047 1.153518,2.46004 0.05869,0.1363 0.08816,0.25899 0.06553,0.2726 -0.02263,0.0133 -0.401466,-0.21699 -0.841753,-0.51232 z m 121.93896,-0.31352 c -0.0889,-0.0889 -0.0239,-0.36842 0.14801,-0.63784 0.27669,-0.43347 1.05525,-2.01084 1.4047,-2.84587 0.3597,-0.85953 0.96884,-2.67882 1.2195,-3.64211 0.85138,-3.27228 1.30286,-6.65541 1.77179,-13.27625 0.43565,-6.15113 0.80007,-9.11447 1.49897,-12.18938 0.34646,-1.52432 0.68617,-2.64487 1.30891,-4.31768 0.16238,-0.43623 0.43186,-1.16316 0.59884,-1.61546 0.16697,-0.45231 0.33164,-0.84884 0.36593,-0.88119 0.0435,-0.0407 0.0497,-0.0141 0.0206,0.0884 -0.0229,0.0805 -0.0564,0.81321 -0.0747,1.62758 -0.0565,2.5296 0.13915,4.17466 1.03964,8.74074 0.70321,3.56583 0.87808,4.67692 1.02932,6.53997 0.28887,3.55849 -0.19418,6.68598 -1.55239,10.05054 -0.33276,0.82435 -1.19058,2.53827 -1.47244,2.94196 -0.11102,0.15893 -0.64739,1.09827 -0.64739,1.13363 0,0.0118 0.0595,0.0177 0.13217,0.0124 0.14839,-0.0106 0.37287,-0.29346 1.6332,-2.05618 0.2772,-0.38777 1.01574,-1.44511 1.64121,-2.34981 2.05266,-2.96883 2.85299,-4.06489 3.98923,-5.46317 1.05273,-1.29548 1.22348,-1.47686 3.88648,-4.12792 2.67326,-2.66123 3.47351,-3.53038 4.88012,-5.30052 2.56051,-3.22225 4.1154,-6.51928 4.55734,-9.66339 0.14046,-0.99936 0.15665,-0.99574 0.281,0.0628 0.4776,4.0663 -0.0184,8.24035 -1.43768,12.09903 -1.18015,3.20855 -3.07129,6.44539 -5.37012,9.19146 -1.08777,1.29946 -2.56836,2.84782 -3.68,3.8486 -0.67169,0.6047 -0.8072,0.72199 -1.46635,1.26923 -1.54127,1.27974 -3.56188,2.70356 -6.10939,4.30505 -0.14539,0.0913 -0.56835,0.3617 -0.93991,0.60062 -0.37155,0.23901 -0.97473,0.62582 -1.34038,0.8597 -0.63232,0.40431 -3.35185,2.20018 -3.97597,2.62552 -0.68543,0.46715 -2.15857,1.52821 -2.70887,1.95099 -0.32673,0.25112 -0.61089,0.43967 -0.63148,0.41907 z M 54.040452,941.089 c -0.118505,-0.0977 -0.300168,-0.329 -0.403705,-0.51401 -0.84259,-1.50585 -2.593568,-3.94742 -4.014667,-5.59815 -0.09935,-0.11538 -0.233461,-0.27427 -0.29807,-0.35304 -0.06459,-0.0786 -0.621362,-0.75098 -1.237208,-1.49373 -2.25967,-2.72566 -3.104051,-3.84259 -4.173985,-5.52142 -0.905926,-1.42153 -1.712958,-3.10813 -2.136333,-4.4646 -1.140801,-3.65511 -1.81303,-6.98997 -2.089992,-10.36832 -0.07696,-0.93908 -0.09205,-1.62474 -0.06836,-3.11344 0.02958,-1.85968 0.09817,-2.74396 0.309609,-3.99462 0.203702,-1.20479 0.832524,-3.94512 1.193023,-5.19906 0.139966,-0.48686 0.655081,-1.86613 0.790179,-2.11583 0.09358,-0.17299 0.09476,-0.17335 0.09558,-0.0283 4.95e-4,0.0805 -0.02534,0.26049 -0.0574,0.39936 -0.19464,0.84379 -0.30117,3.2074 -0.201134,4.46256 0.234322,2.94001 1.253095,6.27797 3.174788,10.40208 0.110431,0.23716 0.200898,0.43949 0.200898,0.44966 0,0.0106 0.266673,0.59602 0.592616,1.30184 2.46388,5.33544 3.101529,7.25267 4.050979,12.18036 0.333875,1.73274 0.734327,3.38426 1.025538,4.22956 0.422573,1.22653 0.498897,1.35797 0.669305,1.15264 0.04985,-0.0601 0.05033,-0.12455 0.0012,-0.24972 -0.03595,-0.0927 -0.143549,-0.41976 -0.238965,-0.72666 -1.001543,-3.22172 -0.997206,-7.14607 0.0119,-10.77961 0.320982,-1.15573 0.963864,-2.98792 1.31814,-3.75666 0.04537,-0.0985 0.242159,-0.53257 0.437199,-0.96446 0.32275,-0.71483 1.224668,-2.48108 1.638803,-3.20934 0.656907,-1.1552 1.43404,-2.41664 2.479083,-4.02397 0.346603,-0.5331 0.724368,-1.14733 0.839478,-1.36487 0.668834,-1.26436 1.36388,-3.16355 1.820266,-4.97382 0.130231,-0.51665 0.214734,-0.65817 0.258553,-0.43321 0.01179,0.0574 0.03642,0.7653 0.0561,1.57303 0.05834,2.39278 -0.09593,3.97252 -0.889308,9.10536 -0.389338,2.51892 -0.358318,2.35972 -0.886798,4.55265 -0.567784,2.3561 -1.282641,4.94607 -2.375322,8.60604 -1.391387,4.66048 -1.605909,5.4644 -1.79475,6.7262 -0.30025,2.00615 -0.242465,4.97755 0.149489,7.68704 0.09853,0.68132 0.08981,0.69617 -0.247392,0.41827 z m 147.540758,-1.1735 c 0.18092,-1.6883 0.24115,-2.95372 0.24182,-5.08141 8.8e-4,-3.31497 -0.11303,-4.045 -1.08812,-6.96115 -0.68241,-2.04088 -0.85023,-2.57045 -1.47075,-4.64077 -0.25661,-0.85617 -0.5181,-1.7285 -0.58109,-1.93852 -0.18922,-0.63095 -0.91829,-3.3765 -1.13873,-4.28835 -0.38811,-1.60548 -0.44545,-1.85217 -0.64854,-2.79037 -0.6152,-2.84198 -1.06454,-5.60707 -1.38896,-8.54726 -0.10524,-0.95366 -0.11503,-1.29008 -0.0797,-2.74625 0.0222,-0.91274 0.0562,-1.6594 0.0755,-1.65922 0.0194,0 0.0838,0.20507 0.14305,0.45522 0.44026,1.85933 1.53372,4.30205 3.10937,6.94621 0.46641,0.78272 1.40113,2.30244 1.66199,2.70224 0.40919,0.62706 1.50372,2.45933 2.05281,3.43652 0.79684,1.41807 1.56454,3.12572 2.05613,4.57368 0.22345,0.65817 0.55993,2.13891 0.67601,2.97501 0.1082,0.77962 0.12709,1.2016 0.13112,2.93709 0.005,1.94579 -0.001,2.06123 -0.1507,2.89043 -0.0855,0.47502 -0.27652,1.36053 -0.4245,1.96788 -0.40567,1.66495 -0.41247,1.95081 -0.0339,1.42832 0.21133,-0.29177 0.46759,-1.30962 1.39044,-5.52292 0.59325,-2.70842 1.20606,-5.0281 1.72432,-6.52688 0.37527,-1.08536 1.10851,-2.82324 2.26509,-5.36876 0.0734,-0.16158 0.21944,-0.49199 0.32452,-0.73436 0.10513,-0.24229 0.25707,-0.58596 0.33773,-0.76363 0.25602,-0.56412 1.07347,-2.62533 1.34733,-3.39744 1.05196,-2.96547 1.51541,-5.10668 1.67535,-7.74041 0.0747,-1.23158 0.009,-2.77269 -0.16273,-3.83286 -0.15983,-0.98452 -0.10926,-0.94951 0.3784,0.2627 2.42222,6.01994 2.77551,13.20261 1.00329,20.39712 -0.80137,3.25319 -2.33022,7.03938 -3.50518,8.68055 -0.67099,0.93723 -2.21728,2.97174 -3.39332,4.46478 -3.34221,4.24309 -4.56747,5.87003 -5.83453,7.74722 -0.7259,1.07548 -0.73773,1.08705 -0.69364,0.67559 z M 49.52961,918.32782 c 0,-0.5513 -0.376704,-2.69287 -0.656294,-3.73103 -0.06529,-0.24229 -0.154215,-0.57279 -0.197681,-0.73428 -0.26659,-0.99079 -0.900516,-2.81848 -1.660582,-4.78768 -0.255654,-0.66232 -0.704062,-1.82547 -0.996475,-2.58476 -1.488666,-3.86539 -2.155567,-6.46342 -2.367496,-9.22284 -0.09947,-1.2946 0.01249,-5.37752 0.180249,-6.5793 0.512109,-3.66695 1.675044,-6.88495 3.794335,-10.49949 0.669471,-1.14177 1.984676,-3.06703 2.868821,-4.1996 0.322526,-0.41315 0.626783,-0.64712 0.720114,-0.55378 0.02004,0.0203 -0.05787,0.18899 -0.173001,0.37558 -1.132434,1.83466 -1.821858,4.05782 -2.044983,6.59432 -0.168629,1.91705 -0.03017,4.78008 0.380829,7.87176 0.831912,6.2588 0.974282,8.2387 0.777203,10.80887 -0.15867,2.06936 -0.212672,2.80248 -0.27477,3.73033 -0.03241,0.48456 -0.0838,1.15864 -0.114085,1.49789 -0.03029,0.33925 -0.07272,0.9611 -0.0944,1.38175 -0.03418,0.66339 -0.02687,0.77538 0.05528,0.84353 0.08203,0.0681 0.102417,0.0583 0.15247,-0.0733 0.127203,-0.33466 0.238223,-0.87968 0.384483,-1.88753 0.184999,-1.27479 0.358259,-2.06696 0.648904,-2.96662 1.050748,-3.2524 3.173798,-6.24871 7.13939,-10.0761 0.667514,-0.64429 2.221461,-2.07898 3.799638,-3.50802 1.30474,-1.18153 2.34422,-2.50026 3.018652,-3.82951 0.301488,-0.59425 0.437825,-0.77131 0.376256,-0.48863 -0.01579,0.0725 -0.07166,0.42297 -0.124055,0.77838 -0.365001,2.47587 -1.300438,5.60929 -2.49022,8.34141 -0.365378,0.83902 -0.568609,1.22325 -1.382713,2.61437 -0.710826,1.21468 -2.075449,3.24222 -3.993205,5.93315 -1.818216,2.55136 -2.043392,2.87452 -2.803282,4.02397 -1.639192,2.47958 -2.813877,4.63006 -3.542122,6.48489 -0.603012,1.53572 -1.075875,3.20069 -1.232529,4.33962 -0.04761,0.34623 -0.148747,0.41606 -0.148747,0.10265 z m 156.61597,-1.10605 c -0.0916,-0.24087 -0.22556,-0.79199 -0.30256,-1.24448 -0.0384,-0.2262 -0.1859,-0.82098 -0.32758,-1.32173 -0.86999,-3.07507 -2.42243,-5.91185 -5.50231,-10.05434 -0.47486,-0.63872 -2.74038,-3.63062 -2.81777,-3.72123 -0.0754,-0.0884 -0.97917,-1.31907 -1.23417,-1.68077 -0.12273,-0.17405 -0.40332,-0.57093 -0.62353,-0.88189 -0.468,-0.66082 -1.5153,-2.31296 -1.70836,-2.69491 -0.0734,-0.14539 -0.15101,-0.27755 -0.17229,-0.29372 -0.0791,-0.0601 -0.94171,-1.81708 -1.23858,-2.5228 -0.89431,-2.12593 -1.82029,-5.10068 -2.25932,-7.25806 -0.0854,-0.42004 -0.16884,-0.80995 -0.18529,-0.86652 -0.0692,-0.23795 0.0865,-0.0707 0.35525,0.38186 0.70504,1.18693 1.76785,2.49336 3.14302,3.86344 0.79389,0.79094 1.5425,1.47032 3.94026,3.57582 2.91904,2.56321 4.43174,4.16222 5.54106,5.85723 0.49525,0.75672 0.96947,1.66221 1.27382,2.4322 0.13409,0.33925 0.33657,0.83672 0.44997,1.10534 0.34668,0.82152 0.49112,1.38785 0.81182,3.183 0.23583,1.32014 0.41767,2.15846 0.49539,2.28388 0.10607,0.17113 0.19642,0 0.16182,-0.30928 -0.0185,-0.16521 -0.0879,-0.763 -0.15394,-1.32836 -0.28724,-2.45722 -0.41519,-4.94572 -0.41484,-8.06791 6.6e-4,-2.88671 0.0767,-4.77822 0.29924,-7.41124 0.0328,-0.38769 0.084,-1.00891 0.11409,-1.38043 0.0299,-0.3716 0.0821,-0.90027 0.11585,-1.17491 0.37811,-3.0718 0.36237,-2.84393 0.29526,-4.27677 -0.19188,-4.0968 -0.81382,-6.50301 -2.26678,-8.76982 -0.14745,-0.23 -0.2553,-0.431 -0.23969,-0.44656 0.0547,-0.0548 0.66539,0.44328 1.0256,0.83645 0.19998,0.21825 0.68193,0.862 1.07102,1.43072 0.38909,0.56863 0.89124,1.28504 1.1159,1.59194 0.3449,0.47122 0.54795,0.77618 0.93872,1.40985 1.25931,2.04214 2.3423,4.71441 3.02351,7.46048 0.37902,1.52795 0.61409,2.87585 0.80416,4.61142 0.12286,1.12197 0.10465,4.87785 -0.0292,6.01386 -0.3679,3.1229 -0.95126,5.35728 -2.08007,7.96732 -0.9936,2.29732 -1.95381,5.27755 -2.5646,7.9598 -0.22099,0.97047 -0.55051,2.68376 -0.63058,3.27874 -0.0767,0.57005 -0.13649,0.69326 -0.22428,0.46238 z M 52.114857,896.13643 c 2.6e-4,-0.52505 0.03819,-1.50974 0.08427,-2.18824 0.163843,-2.41364 0.164232,-2.45696 0.03547,-3.96519 -0.06753,-0.79155 -0.13511,-1.50532 -0.150148,-1.58611 -0.09923,-0.53292 -0.226567,-3.40902 -0.228913,-5.16944 -0.0035,-2.50141 0.0904,-3.68507 0.441667,-5.58073 0.587819,-3.17169 1.731355,-5.65091 3.576512,-7.7542 0.21259,-0.24238 0.461066,-0.5331 0.552169,-0.64624 0.0911,-0.11303 0.388489,-0.43754 0.660843,-0.7211 2.059562,-2.14405 4.045569,-3.43563 6.536013,-4.25043 0.77164,-0.25245 1.001401,-0.28109 0.712453,-0.0886 -1.534453,1.02164 -3.005134,2.76942 -3.986181,4.73712 -0.688776,1.38158 -1.152623,2.71577 -1.646287,4.73544 -0.279567,1.14379 -0.415549,1.77642 -0.951948,4.42862 -0.539452,2.66732 -1.060542,4.5773 -1.835093,6.72621 -0.145564,0.40386 -0.397906,1.10445 -0.56076,1.55676 -0.466428,1.29556 -0.8321,2.5061 -0.8321,2.75474 0,0.22186 0.114792,0.053 0.385071,-0.5665 0.294111,-0.67408 0.860634,-1.74336 1.314958,-2.48197 0.223868,-0.3639 1.382477,-2.00924 1.468536,-2.08543 0.01827,-0.0159 0.122358,-0.13506 0.23134,-0.26429 1.420521,-1.6845 2.312339,-2.50769 4.391583,-4.05341 0.521526,-0.38769 1.089982,-0.8048 1.263218,-0.92679 2.13849,-1.50655 3.430242,-2.45217 4.04214,-2.95884 2.039349,-1.68873 3.142978,-2.88044 4.133301,-4.46309 0.322396,-0.51525 0.76187,-1.39731 0.925772,-1.85802 0.09134,-0.25677 0.180639,-0.29319 0.144186,-0.0583 -0.01379,0.0889 -0.03984,0.45231 -0.05775,0.80774 -0.05457,1.08015 -0.371742,2.63647 -0.784262,3.84771 -1.64875,4.84115 -5.613965,9.50012 -12.024272,14.12816 -0.484637,0.34986 -1.109027,0.83664 -1.387534,1.08166 -0.628444,0.55289 -2.772815,2.70144 -3.284854,3.29128 -0.208782,0.24052 -0.461183,0.53125 -0.560901,0.64616 -0.622269,0.71721 -1.693382,2.28547 -2.219139,3.2492 -0.189418,0.34721 -0.354641,0.6313 -0.367157,0.6313 -0.01249,0 -0.02251,-0.42959 -0.02227,-0.95464 z m 151.096093,-0.38185 c -0.2429,-0.50508 -1.02114,-1.73231 -1.53558,-2.42151 -1.34988,-1.80842 -3.36489,-3.79672 -5.84816,-5.77069 -0.19129,-0.15212 -0.57251,-0.45717 -0.84714,-0.67788 -0.27463,-0.22072 -0.76367,-0.6024 -1.08676,-0.84821 -0.32309,-0.24582 -0.88265,-0.68097 -1.24343,-0.96701 -0.36081,-0.28604 -0.94178,-0.74479 -1.29106,-1.01943 -1.92462,-1.51328 -3.8351,-3.30304 -4.93289,-4.62114 -1.64702,-1.97751 -2.88242,-4.45276 -3.75684,-7.52713 -0.25882,-0.90991 -0.79139,-3.25283 -0.7864,-3.45949 0.001,-0.0583 0.136,0.15804 0.29908,0.48111 0.82442,1.6334 1.68424,2.78525 3.1135,4.17089 1.24917,1.21097 2.31989,2.02577 5.45522,4.15107 1.90716,1.29273 3.24959,2.28936 4.2579,3.16099 0.46183,0.39918 1.89863,1.85994 2.3128,2.35132 0.23148,0.27463 0.59345,0.69609 0.80437,0.93661 0.57728,0.65816 0.86067,1.12152 1.70716,2.79133 0.69418,1.36937 0.90427,1.71746 0.90427,1.49824 0,-0.0389 -0.13453,-0.37796 -0.29895,-0.7538 -1.0126,-2.31464 -1.89047,-5.07875 -2.87572,-9.05445 -2.04867,-8.26679 -2.13282,-8.55434 -2.97298,-10.15795 -0.82929,-1.58293 -1.81071,-2.85569 -3.07714,-3.99065 -0.49251,-0.44143 -0.58502,-0.51594 -1.11302,-0.89665 -0.14477,-0.10442 -0.2352,-0.19914 -0.20097,-0.21055 0.0997,-0.0336 1.41882,0.36374 2.08513,0.62759 1.36013,0.5384 3.03343,1.57436 4.25346,2.63329 1.52058,1.31988 3.07695,3.16939 4.06294,4.82816 1.66149,2.79523 2.44343,5.39149 2.66238,8.84002 0.11067,1.74212 0.0676,3.67755 -0.18065,8.15241 -0.10029,1.80727 -0.0403,4.98028 0.11703,6.19294 0.0679,0.52293 0.161,1.1301 0.20695,1.34931 0.046,0.21921 0.0708,0.41916 0.0552,0.44444 -0.0585,0.0946 -0.11932,0.038 -0.24969,-0.23318 z M 59.846086,878.60577 c 0.273662,-0.61882 0.301759,-0.68918 0.512203,-1.28212 0.371518,-1.04692 0.556812,-1.66929 1.154343,-3.87715 0.822283,-3.0383 1.432472,-4.55035 2.479036,-6.143 1.264031,-1.9235 1.455017,-2.20804 1.554806,-2.3164 0.05964,-0.0646 0.227357,-0.27446 0.372744,-0.46609 0.593654,-0.78254 2.030274,-2.16853 3.113444,-3.00374 1.529939,-1.17969 3.928667,-2.55499 6.080015,-3.48593 0.323091,-0.13984 0.666748,-0.28869 0.763673,-0.33085 0.851582,-0.37001 1.627972,-0.6869 2.702232,-1.10278 0.290787,-0.11267 0.885572,-0.34331 1.321746,-0.51267 1.105562,-0.42933 1.369985,-0.52611 1.437587,-0.52611 0.03229,0 -0.125918,0.16458 -0.351636,0.36576 -0.640007,0.57031 -2.103463,2.05591 -2.852769,2.89591 -0.888365,0.99582 -2.719062,3.25106 -3.122331,3.84638 -0.05468,0.0805 -0.391872,0.54335 -0.749247,1.028 -0.673784,0.91371 -1.09822,1.50594 -1.72617,2.40851 -0.862543,1.23979 -2.237996,3.18557 -2.426707,3.43307 -0.672629,0.88198 -2.472047,2.7147 -3.781229,3.85125 -0.56373,0.48934 -1.784627,1.51751 -2.200306,1.85297 -0.25847,0.2086 -0.483163,0.39343 -0.499321,0.41084 -0.01615,0.0177 -0.373027,0.31317 -0.793043,0.65747 -1.124525,0.92175 -1.687725,1.39889 -2.399754,2.03292 -0.350587,0.3123 -0.660655,0.57632 -0.689046,0.58693 -0.0284,0.0106 0.0165,-0.13489 0.09971,-0.32317 z m 134.566184,-1.24756 c -0.82374,-0.6183 -1.70918,-1.31183 -2.42815,-1.90185 -0.40167,-0.32961 -2.16282,-1.84624 -2.23227,-1.92235 -0.0162,-0.0177 -0.24085,-0.22778 -0.49933,-0.4668 -3.85531,-3.56512 -7.38773,-7.68376 -10.17654,-11.86533 -0.9267,-1.38952 -0.87225,-1.32942 -4.55904,-5.03862 -0.77754,-0.78227 -1.39795,-1.43805 -1.3787,-1.45732 0.0192,-0.0194 0.20281,0.0354 0.40789,0.12189 0.20508,0.0866 0.57142,0.23141 0.81411,0.32245 0.3871,0.14514 3.10939,1.18004 4.08336,1.55235 0.67017,0.25607 1.54787,0.61591 1.93486,0.79315 0.21366,0.0978 0.39773,0.17792 0.40905,0.17792 0.0118,0 0.35892,0.16239 0.77246,0.36074 2.01474,0.96665 3.83795,2.16569 5.16246,3.39532 3.56194,3.30657 5.93314,7.62435 7.55095,13.74967 0.2145,0.81215 0.30215,1.0874 0.47709,1.49798 0.0275,0.0646 0.15654,0.36657 0.28669,0.67107 0.13015,0.30443 0.23663,0.56218 0.23663,0.5727 0,0.0672 -0.17308,-0.046 -0.86152,-0.56297 z"
       style="fill:#ffffff;fill-opacity:1;stroke-width:1.17856" />
  </g>
</svg>
