<?xml version="1.0" encoding="UTF-8" standalone="no"?>
<svg
   xmlns:dc="http://purl.org/dc/elements/1.1/"
   xmlns:cc="http://creativecommons.org/ns#"
   xmlns:rdf="http://www.w3.org/1999/02/22-rdf-syntax-ns#"
   xmlns:svg="http://www.w3.org/2000/svg"
   xmlns="http://www.w3.org/2000/svg"
   xmlns:sodipodi="http://sodipodi.sourceforge.net/DTD/sodipodi-0.dtd"
   xmlns:inkscape="http://www.inkscape.org/namespaces/inkscape"
   sodipodi:docname="cs-color.svg"
   inkscape:version="1.0 (4035a4fb49, 2020-05-01)"
   version="1.1"
   id="svg2"
   viewBox="0 0 256 256"
   height="256"
   width="256">
  <sodipodi:namedview
     inkscape:document-rotation="0"
     inkscape:window-maximized="1"
     inkscape:window-y="0"
     inkscape:window-x="0"
     inkscape:window-height="1048"
     inkscape:window-width="1920"
     units="px"
     showgrid="true"
     inkscape:current-layer="layer1"
     inkscape:document-units="px"
     inkscape:cy="128"
     inkscape:cx="128"
     inkscape:zoom="2.0507812"
     inkscape:pageshadow="2"
     inkscape:pageopacity="0.0"
     borderopacity="1.0"
     bordercolor="#666666"
     pagecolor="#ffffff"
     id="base">
    <inkscape:grid
       spacingy="5"
       spacingx="5"
       id="grid4168"
       type="xygrid" />
  </sodipodi:namedview>
  <defs
     id="defs4">
    <inkscape:path-effect
       fuse_tolerance="0"
       vertical_pattern="false"
       prop_units="false"
       tang_offset="0"
       normal_offset="0"
       spacing="0"
       scale_y_rel="false"
       prop_scale="1"
       copytype="single_stretched"
       pattern="M 0,0 1,0"
       is_visible="true"
       id="path-effect4235"
       effect="skeletal" />
    <clipPath
       id="clipPath5002"
       clipPathUnits="userSpaceOnUse">
      <g
         id="g5004">
        <path
           style="fill:#0f9d58;fill-opacity:1;stroke:none;stroke-width:4.85768509;stroke-linejoin:round;stroke-miterlimit:4;stroke-dasharray:none;stroke-opacity:1"
           d="M 88.118406,249.43519 C 46.103287,235.29134 14.771284,201.68742 4.1335861,159.36053 1.3377997,148.23623 0.92261224,144.16281 0.92582381,127.88908 0.92787958,117.47222 1.134384,112.01362 1.6577819,108.54099 4.4653598,89.913336 12.17654,70.638106 23.042737,55.086148 c 3.958678,-5.665755 8.344812,-10.93092 9.101533,-10.925587 0.32809,0.0023 10.488643,18.309713 22.579009,40.683112 12.090365,22.373397 22.374546,41.334697 22.853732,42.136217 0.479186,0.80151 0.924733,2.44098 0.990103,3.64326 0.343424,6.31639 2.524175,14.20976 5.6424,20.42304 2.954444,5.88693 5.065381,8.73258 10.434696,14.06652 6.71418,6.66995 12.88853,10.28643 21.73204,12.72904 3.16587,0.87442 5.10478,1.05037 11.57517,1.05037 8.82596,0 12.60219,-0.76201 19.26429,-3.88733 2.04584,-0.95974 3.93661,-1.66536 4.20172,-1.56805 0.2651,0.0973 -11.0555,17.66459 -25.1569,39.0384 l -25.6389,38.86148 -3.094121,0.11221 c -2.554618,0.0927 -4.195204,-0.25845 -9.409103,-2.01364 z"
           id="path5006"
           inkscape:connector-curvature="0"
           transform="translate(0,796.36216)" />
        <path
           style="fill:#f4b400;fill-opacity:1;stroke:none;stroke-width:4.85768509;stroke-linejoin:round;stroke-miterlimit:4;stroke-dasharray:none;stroke-opacity:1"
           d="m 112.35984,1051.5167 c -10.0014,-1.4495 -12.15632,-1.8201 -12.531784,-2.1556 -0.248854,-0.2223 1.738304,-3.7475 4.550294,-8.0722 7.16635,-11.0213 49.77231,-74.64801 50.25856,-75.05489 3.57509,-2.99158 8.63523,-8.0414 10.57512,-10.55356 3.36154,-4.35318 7.55784,-12.9141 9.06523,-18.494 6.19314,-22.92535 -2.59253,-47.15185 -21.69967,-59.83688 l -2.96081,-1.96565 17.02469,0.29584 c 9.36358,0.1627 31.17032,0.43384 48.45941,0.60252 l 31.43471,0.30668 1.54584,4.18869 c 2.24597,6.08579 4.67816,15.0947 5.93451,21.9816 1.52517,8.36049 1.92536,28.85896 0.73851,37.82758 -3.0805,23.27845 -12.81326,45.72018 -27.80202,64.10577 -20.47622,25.1166 -51.4599,42.1974 -84.14612,46.3885 -5.31244,0.6812 -26.64601,0.9864 -30.44647,0.4356 z"
           id="path5008"
           inkscape:connector-curvature="0" />
        <path
           style="fill:#db4437;fill-opacity:1;stroke:none;stroke-width:10;stroke-linejoin:round;stroke-miterlimit:4;stroke-dasharray:none;stroke-opacity:1"
           d="M 67.989788,108.87302 C 41.284246,59.575543 33.290284,45.149038 32.233625,44.344765 31.651257,43.901497 32.811213,42.549931 38.695603,36.815353 53.43581,22.450419 68.809334,13.040746 87.839196,6.7360352 101.68742,2.1480329 112.58238,0.43719165 127.95142,0.43719165 c 21.3099,0 37.80488,3.80960275 56.83492,13.12633035 25.29351,12.383198 46.19421,33.578863 58.51993,59.345832 1.61138,3.368591 2.92978,6.372442 2.92978,6.675231 0,0.560033 -10.54865,0.49527 -71.16508,-0.436914 l -24.28843,-0.373518 -3.93063,-1.764495 c -6.75732,-3.033425 -10.64587,-3.839529 -18.6576,-3.867747 -5.0296,-0.01773 -7.97946,0.207636 -10.31642,0.788106 -14.50826,3.603659 -26.283291,12.94777 -33.291614,26.418653 -3.58502,6.89086 -5.24713,13.08166 -6.331628,23.58317 l -0.33738,3.26696 -9.92748,-18.32578 z"
           id="path5010"
           inkscape:connector-curvature="0"
           transform="translate(0,796.36216)" />
      </g>
    </clipPath>
    <clipPath
       clipPathUnits="userSpaceOnUse"
       id="clipPath4271">
      <circle
         style="fill:#292929;fill-opacity:0.26020412;stroke:none;stroke-width:10;stroke-linejoin:round;stroke-miterlimit:4;stroke-dasharray:none;stroke-opacity:0.25882353"
         id="circle4273"
         cx="128"
         cy="128.00002"
         r="128" />
    </clipPath>
    <clipPath
       id="clipPath4363"
       clipPathUnits="userSpaceOnUse">
      <circle
         style="fill:#4285f4;fill-opacity:1;stroke:none;stroke-width:10;stroke-linejoin:round;stroke-miterlimit:4;stroke-dasharray:none;stroke-opacity:0.25882353"
         id="circle4365"
         cx="128"
         cy="924.36218"
         r="128" />
    </clipPath>
    <clipPath
       clipPathUnits="userSpaceOnUse"
       id="clipPath4452">
      <circle
         style="fill:#4285f4;fill-opacity:1;stroke:none;stroke-width:10;stroke-linejoin:round;stroke-miterlimit:4;stroke-dasharray:none;stroke-opacity:0.25882353"
         id="circle4454"
         cx="128"
         cy="924.36218"
         r="128" />
    </clipPath>
    <clipPath
       id="clipPath5177"
       clipPathUnits="userSpaceOnUse">
      <circle
         style="fill:#4285f4;fill-opacity:1;stroke:none;stroke-width:10;stroke-linejoin:round;stroke-miterlimit:4;stroke-dasharray:none;stroke-opacity:0.25882353"
         id="circle5179"
         cx="128"
         cy="924.36218"
         r="128" />
    </clipPath>
    <clipPath
       clipPathUnits="userSpaceOnUse"
       id="clipPath4342">
      <circle
         style="fill:#4285f4;fill-opacity:1;stroke:none;stroke-width:10;stroke-linejoin:round;stroke-miterlimit:4;stroke-dasharray:none;stroke-opacity:0.25882353"
         id="circle4344"
         cx="128"
         cy="933.48718"
         r="128" />
    </clipPath>
    <clipPath
       id="clipPath4681"
       clipPathUnits="userSpaceOnUse">
      <circle
         style="fill:#9d5fad;fill-opacity:1;stroke:none;stroke-width:10;stroke-linejoin:round;stroke-miterlimit:4;stroke-dasharray:none;stroke-opacity:0.25882353"
         id="circle4683"
         cx="127.00293"
         cy="930.43964"
         r="128" />
    </clipPath>
    <clipPath
       clipPathUnits="userSpaceOnUse"
       id="clipPath4480">
      <circle
         style="fill:#df7618;fill-opacity:1;stroke:none;stroke-width:10;stroke-linejoin:round;stroke-miterlimit:4;stroke-dasharray:none;stroke-opacity:0.25882353"
         id="circle4482"
         cx="128"
         cy="924.36218"
         r="128" />
    </clipPath>
    <clipPath
       id="clipPath11131"
       clipPathUnits="userSpaceOnUse">
      <circle
         style="fill:#358bde;fill-opacity:1;stroke:none;stroke-width:10;stroke-linejoin:round;stroke-miterlimit:4;stroke-dasharray:none;stroke-opacity:0.25882353"
         id="circle11133"
         cx="128"
         cy="924.36218"
         r="128" />
    </clipPath>
    <clipPath
       id="clipPath6292"
       clipPathUnits="userSpaceOnUse">
      <circle
         style="fill:#358bde;fill-opacity:1;stroke:none;stroke-width:10;stroke-linejoin:round;stroke-miterlimit:4;stroke-dasharray:none;stroke-opacity:0.25882353"
         id="circle6294"
         cx="128"
         cy="924.36218"
         r="128" />
    </clipPath>
    <clipPath
       clipPathUnits="userSpaceOnUse"
       id="clipPath4276">
      <circle
         style="opacity:1;fill:#ff8080;fill-opacity:1;stroke:none;stroke-width:10;stroke-linecap:round;stroke-linejoin:round;stroke-miterlimit:4;stroke-dasharray:none;stroke-opacity:1"
         id="circle4278"
         cx="128"
         cy="924.36218"
         r="128" />
    </clipPath>
    <clipPath
       id="clipPath5733"
       clipPathUnits="userSpaceOnUse">
      <circle
         style="opacity:1;fill:#e3e3e3;fill-opacity:1;stroke:none;stroke-width:10;stroke-linecap:round;stroke-linejoin:round;stroke-miterlimit:4;stroke-dasharray:none;stroke-opacity:1"
         id="circle5735"
         cx="128"
         cy="924.36218"
         r="128" />
    </clipPath>
  </defs>
  <metadata
     id="metadata7">
    <rdf:RDF>
      <cc:Work
         rdf:about="">
        <dc:format>image/svg+xml</dc:format>
        <dc:type
           rdf:resource="http://purl.org/dc/dcmitype/StillImage" />
        <dc:title />
      </cc:Work>
    </rdf:RDF>
  </metadata>
  <g
     inkscape:label="Layer 1"
     inkscape:groupmode="layer"
     id="layer1"
     transform="translate(0,-796.36216)">
    <path
       transform="scale(1,-1)"
       style="opacity:1;fill:#919191;fill-opacity:1;stroke:none;stroke-width:10;stroke-linecap:round;stroke-linejoin:round;stroke-miterlimit:4;stroke-dasharray:none;stroke-opacity:1"
       id="path975"
       sodipodi:type="arc"
       sodipodi:cx="128"
       sodipodi:cy="-924.36218"
       sodipodi:rx="128"
       sodipodi:ry="128"
       sodipodi:start="0"
       sodipodi:end="3.1415927"
       sodipodi:open="true"
       sodipodi:arc-type="arc"
       d="m 256,-924.36218 a 128,128 0 0 1 -64,110.85125 128,128 0 0 1 -128.000003,0 A 128,128 0 0 1 0,-924.36218" />
    <path
       style="fill:none;fill-rule:evenodd;stroke:none;stroke-width:1px;stroke-linecap:butt;stroke-linejoin:miter;stroke-opacity:1"
       d="M 154.47438,968.80998 101.03985,1048.476 0.4857685,1048.9618 0,842.0244 l 33.032258,-2.42884 45.176471,83.55218 21.373814,35.4611 26.717267,13.11575 z"
       id="path4913"
       inkscape:connector-curvature="0" />
    <text
       xml:space="preserve"
       style="font-style:normal;font-weight:normal;line-height:0%;font-family:sans-serif;letter-spacing:0px;word-spacing:0px;fill:#000000;fill-opacity:1;stroke:none;stroke-width:1px;stroke-linecap:butt;stroke-linejoin:miter;stroke-opacity:1"
       x="120"
       y="927.36218"
       id="text4914"><tspan
         style="font-size:40px;line-height:1.25"
         sodipodi:role="line"
         id="tspan4916"
         x="120"
         y="927.36218"> </tspan></text>
    <path
       inkscape:original-d="m 90,171 c -0.04428,0.15876 -0.292221,0.43434 -0.132827,0.47628 0.626374,0.1648 1.295382,0 1.943074,0 2.428842,0 4.857685,0 7.286527,0 5.667296,0 11.334596,0 17.001896,0 11.01075,0 22.02151,0 33.03226,0 3.40038,0 6.80076,0 10.20114,0 1.13346,0 2.26692,0 3.40038,0 0.64769,0 1.29538,0 1.94307,0 0.16192,0 0.32605,0.0266 0.48577,0 0.81441,-0.13573 1.61443,-0.35003 2.42884,-0.48577 0.15972,-0.0266 0.32385,0 0.48577,0 0.64769,0 1.29538,0 1.94308,0 1.61922,0 3.23845,0 4.85768,0 1.94307,0 3.88615,0 5.82922,0 0.64769,0 1.31472,0.15709 1.94308,0 0.22215,-0.0555 0.26852,-0.41335 0.48576,-0.48577 0.30723,-0.10241 0.6477,0 0.97154,0 0.48577,0 0.98604,0.11782 1.45731,0 0.22215,-0.0555 0.28095,-0.38336 0.48577,-0.48576 0.10887,-0.0544 1.82764,0 1.94307,0 1.29538,0 2.59077,0 3.88615,0 0.25402,0 1.81534,0.0639 1.94307,0 0.20482,-0.10241 0.28095,-0.38336 0.48577,-0.48577 0.14338,-0.0717 2.89994,0 3.40038,0 0.22904,0 2.40683,-0.022 2.42884,0 0.1145,0.11449 -0.11449,0.37127 0,0.48577 0.1145,0.11449 0.50811,-0.16038 0.48577,0 -0.0534,0.38356 -0.41493,0.65401 -0.62239,0.98102"
       inkscape:path-effect="#path-effect4235"
       id="path4233"
       d="m 90,171 c -0.02835,0.10164 -0.09512,0.18781 -0.142791,0.28195 -0.03402,0.0672 -0.06286,0.17517 0.01,0.19433 0.629139,0.16553 1.292524,0 1.943074,0 2.428842,0 4.857682,0 7.286524,0 h 3e-6 17.001886 1e-5 33.03226 10.20114 3.40038 1.94307 c 0,0 0,0 1e-5,0 0.16221,0 0.32574,0.0266 0.48575,0 1e-5,0 1e-5,0 1e-5,0 0.8145,-0.13574 1.61434,-0.35002 2.42884,-0.48577 0.16001,-0.0266 0.32355,0 0.48577,0 h 1.94308 4.85768 5.82922 c 0.65029,0 1.31221,0.15772 1.94308,0 0.23054,-0.0576 0.26034,-0.41062 0.48576,-0.48577 0.30935,-0.10312 0.64546,0 0.97153,0 1e-5,0 1e-5,0 1e-5,0 0.48771,0 0.98416,0.11829 1.45731,0 0.22811,-0.057 0.27547,-0.38062 0.48577,-0.48576 0.0332,-0.0166 0.073,-0.0132 0.11001,-0.0156 0,0 0,0 0,0 0.0743,-0.005 0.14882,-0.006 0.22329,-0.007 0.21191,-0.003 0.42387,-6e-4 0.63578,0.003 0.32447,0.005 0.64948,0.0204 0.97399,0.0204 h 3.88615 c 0.33969,0 0.67926,0.0178 1.01889,0.024 1e-5,0 1e-5,0 1e-5,0 0.20078,0.004 0.40162,0.007 0.6024,0.003 0,0 0,0 10e-6,0 0.10737,-0.002 0.22572,0.0211 0.32176,-0.027 0.20741,-0.1037 0.27836,-0.38207 0.48577,-0.48577 0.0501,-0.0251 0.11077,-0.0175 0.16675,-0.0206 0.1181,-0.006 0.2364,-0.008 0.35467,-0.01 0,0 0,0 0,0 0.34828,-0.004 0.6966,-6.9e-4 1.04487,0.003 0.61137,0.007 1.22268,0.0269 1.83409,0.0269 0.43027,0 0.86055,-0.006 1.29082,-0.008 0.26002,-0.001 0.52005,-0.002 0.78008,-0.001 0.0852,4.2e-4 0.17049,9e-4 0.25571,0.003 0,0 0,0 0,0 1e-5,0 1e-5,0 1e-5,0 0.0244,5.9e-4 0.0489,0.001 0.0733,0.003 0.009,5.7e-4 0.0217,-0.003 0.0289,0.004 0.0602,0.0602 0.0251,0.16159 5e-5,0.24293 -0.0251,0.0813 -0.0602,0.1827 0,0.24289 0.0726,0.0726 0.19615,0.0134 0.2942,-0.0172 0.0707,-0.0221 0.20179,-0.0562 0.19157,0.0172 -0.054,0.38821 -0.41242,0.65005 -0.62239,0.98102"
       style="fill:none;stroke:black;stroke-opacity:1;stroke-width:1px;stroke-linejoin:miter;stroke-linecap:butt;fill-rule:evenodd" />
    <path
       d="m 256,924.36218 a 128,128 0 0 1 -64,110.85122 128,128 0 0 1 -128.000003,0 A 128,128 0 0 1 0,924.36218"
       sodipodi:arc-type="arc"
       sodipodi:open="true"
       sodipodi:end="3.1415927"
       sodipodi:start="0"
       sodipodi:ry="128"
       sodipodi:rx="128"
       sodipodi:cy="924.36218"
       sodipodi:cx="128"
       sodipodi:type="arc"
       id="path7278"
       style="opacity:1;fill:#e3e3e3;fill-opacity:1;stroke:none;stroke-width:10;stroke-linecap:round;stroke-linejoin:round;stroke-miterlimit:4;stroke-dasharray:none;stroke-opacity:1" />
    <path
       id="path5324"
       d="m 165.34632,814.54166 0.32729,0.72527 c 0.79635,1.78242 1.82962,6.28706 2.04746,9.33868 0.45844,6.42401 -0.68693,9.98141 -4.75596,14.80708 -1.26132,1.49583 -1.92123,2.04369 -2.57377,2.24639 -0.65254,0.20274 -1.7568,0.15512 -3.96651,-0.27604 -0.13373,-0.0262 -0.60486,-0.27506 -1.11037,-0.89217 -0.50552,-0.61715 -1.03269,-1.53379 -1.45697,-2.58014 -0.84851,-2.09273 -1.25427,-4.71903 -0.93064,-6.44401 0.2251,-1.20054 2.36552,-4.76313 5.8214,-8.49146 1.58114,-1.70576 3.14145,-3.54046 4.39655,-5.14748 1.04294,-1.3354 1.68092,-2.32435 2.20148,-3.28618 z"
       style="color:#000000;font-style:normal;font-variant:normal;font-weight:normal;font-stretch:normal;font-size:medium;line-height:normal;font-family:sans-serif;text-indent:0;text-align:start;text-decoration:none;text-decoration-line:none;text-decoration-style:solid;text-decoration-color:#000000;letter-spacing:normal;word-spacing:normal;text-transform:none;direction:ltr;block-progression:tb;writing-mode:lr-tb;baseline-shift:baseline;text-anchor:start;white-space:normal;clip-rule:nonzero;display:inline;overflow:visible;visibility:visible;opacity:1;isolation:auto;mix-blend-mode:normal;color-interpolation:sRGB;color-interpolation-filters:linearRGB;solid-color:#000000;solid-opacity:1;fill:#e32121;fill-opacity:1;fill-rule:nonzero;stroke:none;stroke-width:1;stroke-linecap:butt;stroke-linejoin:miter;stroke-miterlimit:4;stroke-dasharray:none;stroke-dashoffset:0;stroke-opacity:1;color-rendering:auto;image-rendering:auto;shape-rendering:auto;text-rendering:auto;enable-background:accumulate"
       inkscape:connector-curvature="0" />
    <path
       sodipodi:nodetypes="csssssscssscsccccssccccsscssscccccssscssccsccccccccccssssssccsccccccscccccsccccccccccccccssccssc"
       inkscape:connector-curvature="0"
       id="path5326"
       d="m 139.18359,839.77405 c -11.67797,-0.0125 -17.10987,0.95925 -29.60547,5.30664 -29.617665,10.30442 -54.992958,32.04592 -66.691402,57.00976 -4.287135,9.14851 -5.617739,15.97266 -4.519531,22.37695 1.667669,9.725 7.385294,17.69546 15.886718,22.17579 5.435323,2.86451 9.965412,3.76424 21.804688,4.2539 5.483171,0.22677 8.833835,0.47494 11.222656,1.0918 2.388873,0.61686 3.862868,1.78462 4.90625,3.37695 1.036547,1.58205 1.43308,3.68679 1.443359,5.78906 0.01028,2.10241 -0.369111,4.19767 -1.40039,5.77149 -0.551795,0.8421 -1.461912,1.63 -2.683594,2.625 -1.221669,0.99499 -2.70809,2.08691 -4.201172,3.05273 -7.592254,4.91138 -11.784421,9.11041 -12.994141,12.75196 -0.60486,1.82077 -0.547234,3.51733 0.175782,5.36914 0.723015,1.8519 2.161124,3.852 4.355468,6.0078 6.188121,6.07898 14.146463,10.00328 23.593749,11.59378 5.60619,0.9437 17.17506,0.8051 24.59961,-0.3399 31.5493,-4.865 64.90421,-24.02497 79.38672,-45.38278 13.75561,-20.28568 17.29221,-46.58605 9.39453,-69.875 -6.08761,-17.95147 -19.67722,-34.12937 -36.71875,-43.67773 -4.39207,-2.63964 -8.26984,-4.09862 -14.19336,-5.90039 -0.15863,-0.0488 -0.29335,-0.0853 -0.44922,-0.13281 -0.0143,0.13164 -0.0262,0.26889 -0.11523,0.66992 -6.71272,29.78659 -19.02274,74.22641 -29.23633,105.53906 -3.33895,10.23642 -8.37601,24.776 -12.70312,36.86328 -1.10858,3.09667 -1.92408,5.25197 -2.89844,7.91407 5.65058,-32.48986 10.91507,-58.30971 18.54101,-88.8418 2.93322,-11.74381 7.27622,-27.86097 11.01172,-41.16016 1.86775,-6.64958 3.58604,-12.59974 4.89453,-16.93359 0.65427,-2.16694 1.20367,-3.93058 1.61719,-5.16406 0.13903,-0.41463 0.23224,-0.6691 0.33594,-0.95313 0.19986,0.0242 0.32747,0.0304 0.58203,0.0664 5.35697,0.4741 -9.64042,-1.22661 -15.3418,-1.24413 z m 43.07227,21.04296 c 2.40404,-0.0714 4.74989,0.65555 6.73633,1.93165 3.97295,2.55219 6.34069,7.12871 4.53515,12.5996 -0.65222,1.97622 -2.86443,5.18466 -4.09961,6.15625 -1.494,1.17516 -3.99325,1.97128 -6.51757,2.06641 -2.52435,0.0949 -5.02592,-0.5222 -6.5,-1.55469 -6.67775,-4.67731 -7.22039,-13.36844 -1.27735,-18.36914 2.24925,-1.89263 4.71903,-2.75862 7.12305,-2.83008 z m 17.07422,27.30079 c 1.90002,0.0263 3.83849,0.72181 5.75,2.51757 3.46565,3.25574 3.52658,9.41317 0.0488,12.89063 -3.47739,3.47741 -9.63489,3.41648 -12.89063,-0.0488 -2.05234,-2.1846 -2.66699,-4.39489 -2.48828,-6.55273 0.17842,-2.15787 1.24852,-4.29151 2.86719,-5.91016 1.61865,-1.6187 3.74449,-2.68848 5.90234,-2.86719 0.26973,-0.0223 0.53912,-0.0331 0.81055,-0.0293 z M 93.773437,908.9635 c 0.878771,0.0221 1.734398,0.12458 2.552734,0.3125 2.182268,0.50128 4.106389,1.60189 5.560549,3.33008 2.68473,3.19057 3.2431,5.23478 2.63672,9.75586 -0.67348,5.02118 -4.49427,9.64563 -9.298832,12.34765 -4.804548,2.70204 -10.402994,3.3899 -14.464843,1.14844 -5.296006,-2.92254 -7.186232,-10.10504 -4.025391,-16.30078 2.647862,-5.19026 7.548374,-8.74231 12.496094,-10.03711 1.236933,-0.3237 2.464711,-0.51034 3.65625,-0.55274 0.297888,-0.0106 0.593794,-0.0113 0.886719,-0.004 z m 107.216793,5.20117 c 3.47709,0 4.28732,0.37848 6.22657,2.84375 1.80414,2.29359 2.41254,4.14308 2.27148,5.875 -0.14076,1.73197 -1.09185,3.64067 -3.29883,5.84766 -2.04396,2.04391 -3.57402,2.95831 -4.81836,3.21484 -1.24432,0.25666 -2.51979,0.0207 -4.56836,-1.10156 -4.67587,-2.55748 -5.9038,-6.63464 -5.01367,-10.16602 0.89008,-3.53141 3.88559,-6.51367 9.20117,-6.51367 z m -8.56054,25.29883 0.002,0 c 4.94753,8.1e-4 7.95081,3.0187 8.91797,6.58008 0.96733,3.56184 -0.0768,7.43439 -4.38086,9.66015 -2.76366,1.42912 -4.25517,1.78898 -5.37305,1.59571 -1.11795,-0.19337 -2.54119,-1.09201 -4.86328,-3.41407 -1.73736,-1.73731 -2.53535,-2.80912 -2.82226,-3.54492 -0.28701,-0.73585 -0.30106,-1.433 0.0391,-3.1289 0.59672,-2.98364 1.59828,-4.85202 2.87695,-5.99415 1.27837,-1.14175 2.96732,-1.75359 5.60352,-1.7539 z m -17.79688,18.89258 c 4.99057,0 8.12407,3.12003 9.14649,6.80664 1.02246,3.68657 -0.0369,7.68817 -4.36524,9.92578 -1.99241,1.03026 -3.42147,1.44344 -4.70703,1.44726 -1.2763,0.005 -2.56918,-0.38981 -4.35742,-1.375 l -0.0332,-0.0156 c -7.46127,-4.13201 -4.20656,-16.78906 4.3164,-16.78906 z m -24.33008,12.10156 c 2.40404,-0.0714 4.74989,0.65749 6.73633,1.93359 3.97295,2.55219 6.3407,7.12677 4.53516,12.59766 -0.65222,1.97621 -2.86248,5.18463 -4.09766,6.15623 -1.494,1.1751 -3.99326,1.9713 -6.51758,2.0664 -2.52435,0.095 -5.02787,-0.5222 -6.50195,-1.5547 -6.67776,-4.67729 -7.21843,-13.36646 -1.27539,-18.36715 2.24925,-1.89264 4.71707,-2.76056 7.12109,-2.83203 z"
       style="color:#000000;font-style:normal;font-variant:normal;font-weight:normal;font-stretch:normal;font-size:medium;line-height:normal;font-family:sans-serif;text-indent:0;text-align:start;text-decoration:none;text-decoration-line:none;text-decoration-style:solid;text-decoration-color:#000000;letter-spacing:normal;word-spacing:normal;text-transform:none;direction:ltr;block-progression:tb;writing-mode:lr-tb;baseline-shift:baseline;text-anchor:start;white-space:normal;clip-rule:nonzero;display:inline;overflow:visible;visibility:visible;opacity:1;isolation:auto;mix-blend-mode:normal;color-interpolation:sRGB;color-interpolation-filters:linearRGB;solid-color:#000000;solid-opacity:1;fill:#e32121;fill-opacity:1;fill-rule:nonzero;stroke:none;stroke-width:1;stroke-linecap:butt;stroke-linejoin:miter;stroke-miterlimit:4;stroke-dasharray:none;stroke-dashoffset:0;stroke-opacity:1;color-rendering:auto;image-rendering:auto;shape-rendering:auto;text-rendering:auto;enable-background:accumulate" />
  </g>
</svg>
