<?xml version="1.0" encoding="UTF-8" standalone="no"?>
<!-- Created with Inkscape (http://www.inkscape.org/) -->

<svg
   xmlns:dc="http://purl.org/dc/elements/1.1/"
   xmlns:cc="http://creativecommons.org/ns#"
   xmlns:rdf="http://www.w3.org/1999/02/22-rdf-syntax-ns#"
   xmlns:svg="http://www.w3.org/2000/svg"
   xmlns="http://www.w3.org/2000/svg"
   xmlns:sodipodi="http://sodipodi.sourceforge.net/DTD/sodipodi-0.dtd"
   xmlns:inkscape="http://www.inkscape.org/namespaces/inkscape"
   width="256"
   height="256"
   viewBox="0 0 256 256"
   id="svg2"
   version="1.1"
   inkscape:version="0.92.3 (2405546, 2018-03-11)"
   sodipodi:docname="ptbl.svg">
  <sodipodi:namedview
     id="base"
     pagecolor="#ffffff"
     bordercolor="#666666"
     borderopacity="1.0"
     inkscape:pageopacity="0.0"
     inkscape:pageshadow="2"
     inkscape:zoom="3.3125"
     inkscape:cx="128"
     inkscape:cy="127.99998"
     inkscape:document-units="px"
     inkscape:current-layer="layer1"
     showgrid="true"
     units="px"
     inkscape:window-width="1920"
     inkscape:window-height="1048"
     inkscape:window-x="0"
     inkscape:window-y="0"
     inkscape:window-maximized="1">
    <inkscape:grid
       spacingy="5"
       spacingx="5"
       id="grid4136"
       type="xygrid" />
  </sodipodi:namedview>
  <defs
     id="defs4">
    <clipPath
       clipPathUnits="userSpaceOnUse"
       id="clipPath4224">
      <g
         id="g4226"
         transform="matrix(1.0698649,0,0,0.93469746,0,-2.1140227e-5)">
        <path
           d="M 256,924.36218 A 128,128 0 0 1 128,1052.3622 l 0,-128.00002 z"
           sodipodi:end="1.5707963"
           sodipodi:start="0"
           sodipodi:ry="128"
           sodipodi:rx="128"
           sodipodi:cy="924.36218"
           sodipodi:cx="128"
           sodipodi:type="arc"
           id="path4228"
           style="opacity:0.46200005;fill:#70ffc4;fill-opacity:1;stroke:none" />
        <path
           transform="scale(-1,1)"
           style="opacity:0.46200005;fill:#70b6ff;fill-opacity:1;stroke:none"
           id="path4230"
           sodipodi:type="arc"
           sodipodi:cx="-128"
           sodipodi:cy="924.36218"
           sodipodi:rx="128"
           sodipodi:ry="128"
           sodipodi:start="0"
           sodipodi:end="1.5707963"
           d="m 0,924.36218 a 128,128 0 0 1 -128,128.00002 l 0,-128.00002 z" />
        <path
           transform="scale(1,-1)"
           style="opacity:1;fill:#ff7070;fill-opacity:1;stroke:none"
           id="path4232"
           sodipodi:type="arc"
           sodipodi:cx="128"
           sodipodi:cy="-924.36218"
           sodipodi:rx="128"
           sodipodi:ry="128"
           sodipodi:start="0"
           sodipodi:end="1.5707963"
           d="m 256,-924.36218 a 128,128 0 0 1 -128,128 l 0,-128 z" />
        <path
           d="m 0,-924.36218 a 128,128 0 0 1 -128,128 l 0,-128 z"
           sodipodi:end="1.5707963"
           sodipodi:start="0"
           sodipodi:ry="128"
           sodipodi:rx="128"
           sodipodi:cy="-924.36218"
           sodipodi:cx="-128"
           sodipodi:type="arc"
           id="path4234"
           style="opacity:0.46200005;fill:#ff7070;fill-opacity:1;stroke:none"
           transform="scale(-1,-1)" />
      </g>
    </clipPath>
    <clipPath
       id="clipPath4253"
       clipPathUnits="userSpaceOnUse">
      <g
         id="g4255">
        <path
           d="M 256,924.36218 A 128,128 0 0 1 128,1052.3622 l 0,-128.00002 z"
           sodipodi:end="1.5707963"
           sodipodi:start="0"
           sodipodi:ry="128"
           sodipodi:rx="128"
           sodipodi:cy="924.36218"
           sodipodi:cx="128"
           sodipodi:type="arc"
           id="path4257"
           style="opacity:1;fill:#70ffc4;fill-opacity:1;stroke:none" />
        <path
           transform="scale(-1,1)"
           style="opacity:1;fill:#70b6ff;fill-opacity:1;stroke:none"
           id="path4259"
           sodipodi:type="arc"
           sodipodi:cx="-128"
           sodipodi:cy="924.36218"
           sodipodi:rx="128"
           sodipodi:ry="128"
           sodipodi:start="0"
           sodipodi:end="1.5707963"
           d="m 0,924.36218 a 128,128 0 0 1 -128,128.00002 l 0,-128.00002 z" />
        <path
           transform="scale(1,-1)"
           style="opacity:1;fill:#ff7070;fill-opacity:1;stroke:none"
           id="path4261"
           sodipodi:type="arc"
           sodipodi:cx="128"
           sodipodi:cy="-924.36218"
           sodipodi:rx="128"
           sodipodi:ry="128"
           sodipodi:start="0"
           sodipodi:end="1.5707963"
           d="m 256,-924.36218 a 128,128 0 0 1 -128,128 l 0,-128 z" />
        <path
           d="m 0,-924.36218 a 128,128 0 0 1 -128,128 l 0,-128 z"
           sodipodi:end="1.5707963"
           sodipodi:start="0"
           sodipodi:ry="128"
           sodipodi:rx="128"
           sodipodi:cy="-924.36218"
           sodipodi:cx="-128"
           sodipodi:type="arc"
           id="path4263"
           style="opacity:1;fill:#f9ff70;fill-opacity:1;stroke:none"
           transform="scale(-1,-1)" />
      </g>
    </clipPath>
    <clipPath
       clipPathUnits="userSpaceOnUse"
       id="clipPath975">
      <g
         id="g985"
         transform="translate(-12,3e-5)">
        <path
           d="M 256,924.36218 A 128,128 0 0 1 128,1052.3622 l 0,-128.00002 z"
           sodipodi:end="1.5707963"
           sodipodi:start="0"
           sodipodi:ry="128"
           sodipodi:rx="128"
           sodipodi:cy="924.36218"
           sodipodi:cx="128"
           sodipodi:type="arc"
           id="path977"
           style="opacity:1;fill:#70ffc4;fill-opacity:1;stroke:none" />
        <path
           transform="scale(-1,1)"
           style="opacity:1;fill:#70b6ff;fill-opacity:1;stroke:none"
           id="path979"
           sodipodi:type="arc"
           sodipodi:cx="-128"
           sodipodi:cy="924.36218"
           sodipodi:rx="128"
           sodipodi:ry="128"
           sodipodi:start="0"
           sodipodi:end="1.5707963"
           d="m 0,924.36218 a 128,128 0 0 1 -128,128.00002 l 0,-128.00002 z" />
        <path
           transform="scale(1,-1)"
           style="opacity:1;fill:#ff7070;fill-opacity:1;stroke:none"
           id="path981"
           sodipodi:type="arc"
           sodipodi:cx="128"
           sodipodi:cy="-924.36218"
           sodipodi:rx="128"
           sodipodi:ry="128"
           sodipodi:start="0"
           sodipodi:end="1.5707963"
           d="m 256,-924.36218 a 128,128 0 0 1 -128,128 l 0,-128 z" />
        <path
           d="m 0,-924.36218 a 128,128 0 0 1 -128,128 l 0,-128 z"
           sodipodi:end="1.5707963"
           sodipodi:start="0"
           sodipodi:ry="128"
           sodipodi:rx="128"
           sodipodi:cy="-924.36218"
           sodipodi:cx="-128"
           sodipodi:type="arc"
           id="path983"
           style="opacity:1;fill:#d872e5;fill-opacity:1;stroke:none"
           transform="scale(-1)" />
      </g>
    </clipPath>
    <clipPath
       clipPathUnits="userSpaceOnUse"
       id="clipPath1025">
      <path
         transform="scale(-1)"
         style="opacity:1;fill:#d872e5;fill-opacity:1;stroke:none"
         id="path1027"
         sodipodi:type="arc"
         sodipodi:cx="-116"
         sodipodi:cy="-924.36218"
         sodipodi:rx="128"
         sodipodi:ry="128"
         sodipodi:start="0"
         sodipodi:end="1.5707963"
         d="m 12,-924.36218 a 128,128 0 0 1 -128,128 l 0,-128 z" />
    </clipPath>
    <clipPath
       clipPathUnits="userSpaceOnUse"
       id="clipPath1067">
      <path
         d="m 12,924.36218 a 128,128 0 0 1 -128,128.00002 l 0,-128.00002 z"
         sodipodi:end="1.5707963"
         sodipodi:start="0"
         sodipodi:ry="128"
         sodipodi:rx="128"
         sodipodi:cy="924.36218"
         sodipodi:cx="-116"
         sodipodi:type="arc"
         id="path1069"
         style="opacity:1;fill:#70b6ff;fill-opacity:1;stroke:none"
         transform="scale(-1,1)" />
    </clipPath>
    <clipPath
       clipPathUnits="userSpaceOnUse"
       id="clipPath1109">
      <path
         d="m 244,-924.36218 a 128,128 0 0 1 -128,128 l 0,-128 z"
         sodipodi:end="1.5707963"
         sodipodi:start="0"
         sodipodi:ry="128"
         sodipodi:rx="128"
         sodipodi:cy="-924.36218"
         sodipodi:cx="116"
         sodipodi:type="arc"
         id="path1111"
         style="opacity:1;fill:#ff7070;fill-opacity:1;stroke:none"
         transform="scale(1,-1)" />
    </clipPath>
    <clipPath
       clipPathUnits="userSpaceOnUse"
       id="clipPath1469">
      <path
         style="opacity:1;fill:#70ffc4;fill-opacity:1;stroke:none"
         id="path1471"
         sodipodi:type="arc"
         sodipodi:cx="116"
         sodipodi:cy="924.36218"
         sodipodi:rx="128"
         sodipodi:ry="128"
         sodipodi:start="0"
         sodipodi:end="1.5707963"
         d="M 244,924.36218 A 128,128 0 0 1 116,1052.3622 l 0,-128.00002 z" />
    </clipPath>
  </defs>
  <metadata
     id="metadata7">
    <rdf:RDF>
      <cc:Work
         rdf:about="">
        <dc:format>image/svg+xml</dc:format>
        <dc:type
           rdf:resource="http://purl.org/dc/dcmitype/StillImage" />
        <dc:title />
      </cc:Work>
    </rdf:RDF>
  </metadata>
  <g
     transform="translate(0,-796.36216)"
     id="layer1"
     inkscape:groupmode="layer"
     inkscape:label="Layer 1">
    <path
       d="M 256,924.36218 A 128,128 0 0 1 128,1052.3622 l 0,-128.00002 z"
       sodipodi:end="1.5707963"
       sodipodi:start="0"
       sodipodi:ry="128"
       sodipodi:rx="128"
       sodipodi:cy="924.36218"
       sodipodi:cx="128"
       sodipodi:type="arc"
       id="path4141"
       style="opacity:1;fill:#70ffc4;fill-opacity:1;stroke:none" />
    <path
       transform="scale(-1,1)"
       style="opacity:1;fill:#70b6ff;fill-opacity:1;stroke:none"
       id="path4145"
       sodipodi:type="arc"
       sodipodi:cx="-128"
       sodipodi:cy="924.36218"
       sodipodi:rx="128"
       sodipodi:ry="128"
       sodipodi:start="0"
       sodipodi:end="1.5707963"
       d="m 0,924.36218 a 128,128 0 0 1 -128,128.00002 l 0,-128.00002 z" />
    <path
       transform="scale(1,-1)"
       style="opacity:1;fill:#a70000;fill-opacity:1;stroke:none"
       id="path4147"
       sodipodi:type="arc"
       sodipodi:cx="128"
       sodipodi:cy="-924.36218"
       sodipodi:rx="128"
       sodipodi:ry="128"
       sodipodi:start="0"
       sodipodi:end="1.5707963"
       d="m 256,-924.36218 a 128,128 0 0 1 -128,128 l 0,-128 z" />
    <path
       d="m 0,-924.36218 a 128,128 0 0 1 -128,128 l 0,-128 z"
       sodipodi:end="1.5707963"
       sodipodi:start="0"
       sodipodi:ry="128"
       sodipodi:rx="128"
       sodipodi:cy="-924.36218"
       sodipodi:cx="-128"
       sodipodi:type="arc"
       id="path4149"
       style="opacity:1;fill:#a020b0;fill-opacity:1;stroke:none"
       transform="scale(-1,-1)" />
    <g
       transform="translate(12,-3e-5)"
       style="font-style:normal;font-weight:normal;font-size:219.47756958px;line-height:125%;font-family:sans-serif;letter-spacing:0px;word-spacing:0px;fill:#ffffff;fill-opacity:1;stroke:none;stroke-width:1px;stroke-linecap:butt;stroke-linejoin:miter;stroke-opacity:1"
       id="text4158">
      <path
         inkscape:connector-curvature="0"
         d="m 97.993301,862.15186 v 60.12057 h 27.220359 q 15.11052,0 23.36236,-7.82318 8.25184,-7.82317 8.25184,-22.29069 0,-14.36035 -8.25184,-22.18352 -8.25184,-7.82318 -23.36236,-7.82318 z m -21.64769,-17.78968 h 48.868049 q 26.89887,0 40.61621,12.21701 13.82452,12.10985 13.82452,35.57937 0,23.68386 -13.82452,35.79371 -13.71734,12.10984 -40.61621,12.10984 H 97.993301 v 64.30009 h -21.64769 z"
         style="fill:#ffffff;fill-opacity:1"
         id="path4163" />
    </g>
  </g>
</svg>
