<?xml version="1.0" encoding="UTF-8" standalone="no"?>
<svg
   xmlns:dc="http://purl.org/dc/elements/1.1/"
   xmlns:cc="http://creativecommons.org/ns#"
   xmlns:rdf="http://www.w3.org/1999/02/22-rdf-syntax-ns#"
   xmlns:svg="http://www.w3.org/2000/svg"
   xmlns="http://www.w3.org/2000/svg"
   xmlns:xlink="http://www.w3.org/1999/xlink"
   xmlns:sodipodi="http://sodipodi.sourceforge.net/DTD/sodipodi-0.dtd"
   xmlns:inkscape="http://www.inkscape.org/namespaces/inkscape"
   sodipodi:docname="seahorse.svg"
   inkscape:version="1.0beta2 (2b71d25, 2019-12-03)"
   version="1.1"
   id="svg2"
   viewBox="0 0 256 256"
   height="256"
   width="256">
  <sodipodi:namedview
     inkscape:document-rotation="0"
     inkscape:window-maximized="1"
     inkscape:window-y="0"
     inkscape:window-x="0"
     inkscape:window-height="1048"
     inkscape:window-width="1920"
     units="px"
     showgrid="true"
     inkscape:current-layer="layer1"
     inkscape:document-units="px"
     inkscape:cy="128"
     inkscape:cx="62.792453"
     inkscape:zoom="3.3125"
     inkscape:pageshadow="2"
     inkscape:pageopacity="0.0"
     borderopacity="1.0"
     bordercolor="#666666"
     pagecolor="#ffffff"
     id="base">
    <inkscape:grid
       type="xygrid"
       id="grid4168"
       spacingx="5"
       spacingy="5" />
  </sodipodi:namedview>
  <defs
     id="defs4">
    <clipPath
       clipPathUnits="userSpaceOnUse"
       id="clipPath5002">
      <g
         id="g5004">
        <path
           transform="translate(0,796.36216)"
           inkscape:connector-curvature="0"
           id="path5006"
           d="M 88.118406,249.43519 C 46.103287,235.29134 14.771284,201.68742 4.1335861,159.36053 1.3377997,148.23623 0.92261224,144.16281 0.92582381,127.88908 0.92787958,117.47222 1.134384,112.01362 1.6577819,108.54099 4.4653598,89.913336 12.17654,70.638106 23.042737,55.086148 c 3.958678,-5.665755 8.344812,-10.93092 9.101533,-10.925587 0.32809,0.0023 10.488643,18.309713 22.579009,40.683112 12.090365,22.373397 22.374546,41.334697 22.853732,42.136217 0.479186,0.80151 0.924733,2.44098 0.990103,3.64326 0.343424,6.31639 2.524175,14.20976 5.6424,20.42304 2.954444,5.88693 5.065381,8.73258 10.434696,14.06652 6.71418,6.66995 12.88853,10.28643 21.73204,12.72904 3.16587,0.87442 5.10478,1.05037 11.57517,1.05037 8.82596,0 12.60219,-0.76201 19.26429,-3.88733 2.04584,-0.95974 3.93661,-1.66536 4.20172,-1.56805 0.2651,0.0973 -11.0555,17.66459 -25.1569,39.0384 l -25.6389,38.86148 -3.094121,0.11221 c -2.554618,0.0927 -4.195204,-0.25845 -9.409103,-2.01364 z"
           style="fill:#0f9d58;fill-opacity:1;stroke:none;stroke-width:4.85768509;stroke-linejoin:round;stroke-miterlimit:4;stroke-dasharray:none;stroke-opacity:1" />
        <path
           inkscape:connector-curvature="0"
           id="path5008"
           d="m 112.35984,1051.5167 c -10.0014,-1.4495 -12.15632,-1.8201 -12.531784,-2.1556 -0.248854,-0.2223 1.738304,-3.7475 4.550294,-8.0722 7.16635,-11.0213 49.77231,-74.64801 50.25856,-75.05489 3.57509,-2.99158 8.63523,-8.0414 10.57512,-10.55356 3.36154,-4.35318 7.55784,-12.9141 9.06523,-18.494 6.19314,-22.92535 -2.59253,-47.15185 -21.69967,-59.83688 l -2.96081,-1.96565 17.02469,0.29584 c 9.36358,0.1627 31.17032,0.43384 48.45941,0.60252 l 31.43471,0.30668 1.54584,4.18869 c 2.24597,6.08579 4.67816,15.0947 5.93451,21.9816 1.52517,8.36049 1.92536,28.85896 0.73851,37.82758 -3.0805,23.27845 -12.81326,45.72018 -27.80202,64.10577 -20.47622,25.1166 -51.4599,42.1974 -84.14612,46.3885 -5.31244,0.6812 -26.64601,0.9864 -30.44647,0.4356 z"
           style="fill:#f4b400;fill-opacity:1;stroke:none;stroke-width:4.85768509;stroke-linejoin:round;stroke-miterlimit:4;stroke-dasharray:none;stroke-opacity:1" />
        <path
           transform="translate(0,796.36216)"
           inkscape:connector-curvature="0"
           id="path5010"
           d="M 67.989788,108.87302 C 41.284246,59.575543 33.290284,45.149038 32.233625,44.344765 31.651257,43.901497 32.811213,42.549931 38.695603,36.815353 53.43581,22.450419 68.809334,13.040746 87.839196,6.7360352 101.68742,2.1480329 112.58238,0.43719165 127.95142,0.43719165 c 21.3099,0 37.80488,3.80960275 56.83492,13.12633035 25.29351,12.383198 46.19421,33.578863 58.51993,59.345832 1.61138,3.368591 2.92978,6.372442 2.92978,6.675231 0,0.560033 -10.54865,0.49527 -71.16508,-0.436914 l -24.28843,-0.373518 -3.93063,-1.764495 c -6.75732,-3.033425 -10.64587,-3.839529 -18.6576,-3.867747 -5.0296,-0.01773 -7.97946,0.207636 -10.31642,0.788106 -14.50826,3.603659 -26.283291,12.94777 -33.291614,26.418653 -3.58502,6.89086 -5.24713,13.08166 -6.331628,23.58317 l -0.33738,3.26696 -9.92748,-18.32578 z"
           style="fill:#db4437;fill-opacity:1;stroke:none;stroke-width:10;stroke-linejoin:round;stroke-miterlimit:4;stroke-dasharray:none;stroke-opacity:1" />
      </g>
    </clipPath>
    <clipPath
       id="clipPath4271"
       clipPathUnits="userSpaceOnUse">
      <circle
         r="128"
         cy="128.00002"
         cx="128"
         id="circle4273"
         style="fill:#292929;fill-opacity:0.26020412;stroke:none;stroke-width:10;stroke-linejoin:round;stroke-miterlimit:4;stroke-dasharray:none;stroke-opacity:0.25882353" />
    </clipPath>
    <clipPath
       clipPathUnits="userSpaceOnUse"
       id="clipPath4363">
      <circle
         r="128"
         cy="924.36218"
         cx="128"
         id="circle4365"
         style="fill:#4285f4;fill-opacity:1;stroke:none;stroke-width:10;stroke-linejoin:round;stroke-miterlimit:4;stroke-dasharray:none;stroke-opacity:0.25882353" />
    </clipPath>
    <clipPath
       id="clipPath4452"
       clipPathUnits="userSpaceOnUse">
      <circle
         r="128"
         cy="924.36218"
         cx="128"
         id="circle4454"
         style="fill:#4285f4;fill-opacity:1;stroke:none;stroke-width:10;stroke-linejoin:round;stroke-miterlimit:4;stroke-dasharray:none;stroke-opacity:0.25882353" />
    </clipPath>
    <clipPath
       clipPathUnits="userSpaceOnUse"
       id="clipPath4368">
      <circle
         r="128"
         cy="924.36218"
         cx="128"
         id="circle4370"
         style="fill:#b0ceff;fill-opacity:1;stroke:none;stroke-width:10;stroke-linejoin:round;stroke-miterlimit:4;stroke-dasharray:none;stroke-opacity:0.25882353" />
    </clipPath>
    <clipPath
       id="clipPath-284952804">
      <g
         transform="translate(0,-1004.3622)"
         id="g5628">
        <path
           style="fill:#1890d0"
           inkscape:connector-curvature="0"
           d="m -24,13 c 0,1.105 -0.672,2 -1.5,2 -0.828,0 -1.5,-0.895 -1.5,-2 0,-1.105 0.672,-2 1.5,-2 0.828,0 1.5,0.895 1.5,2 z"
           transform="matrix(15.333333,0,0,11.5,414.99999,878.8622)"
           id="path5630" />
      </g>
    </clipPath>
    <clipPath
       id="clipPath4286"
       clipPathUnits="userSpaceOnUse">
      <circle
         r="128"
         cy="128.00002"
         cx="128"
         id="circle4288"
         style="fill:#00c3ff;fill-opacity:1;stroke:none;stroke-width:10;stroke-linejoin:round;stroke-miterlimit:4;stroke-dasharray:none;stroke-opacity:0.25882353" />
    </clipPath>
    <clipPath
       clipPathUnits="userSpaceOnUse"
       id="clipPath4263">
      <circle
         r="128"
         cy="932.54675"
         cx="-34.452808"
         id="circle4265"
         style="fill:#00c3ff;fill-opacity:1;stroke:none;stroke-width:10;stroke-linejoin:round;stroke-miterlimit:4;stroke-dasharray:none;stroke-opacity:0.25882353"
         transform="matrix(0.98480775,-0.17364818,0.17364818,0.98480775,0,0)" />
    </clipPath>
    <clipPath
       clipPathUnits="userSpaceOnUse"
       id="clipPath4608">
      <circle
         r="67.351463"
         cy="944.67395"
         cx="154.80824"
         id="circle4610"
         style="fill:#00c3ff;fill-opacity:1;stroke:none;stroke-width:10;stroke-linejoin:round;stroke-miterlimit:4;stroke-dasharray:none;stroke-opacity:0.25882353" />
    </clipPath>
    <clipPath
       id="clipPath5376"
       clipPathUnits="userSpaceOnUse">
      <circle
         r="128"
         cy="924.36218"
         cx="128"
         id="circle5378"
         style="fill:#fdac64;fill-opacity:1;stroke:none;stroke-width:10;stroke-linejoin:round;stroke-miterlimit:4;stroke-dasharray:none;stroke-opacity:0.25882353" />
    </clipPath>
    <clipPath
       id="clipPath4565"
       clipPathUnits="userSpaceOnUse">
      <path
         inkscape:connector-curvature="0"
         style="fill:#ff7f2a;fill-opacity:1;stroke:none;stroke-width:0;stroke-linecap:round;stroke-linejoin:round;stroke-miterlimit:4;stroke-dasharray:none;stroke-opacity:1"
         d="m 259.83301,909.7528 a 128,128 0 0 1 -128,128 128,128 0 0 1 -128.0000035,-128 128,128 0 0 1 128.0000035,-128 128,128 0 0 1 128,128 z"
         id="path4567" />
    </clipPath>
    <linearGradient
       gradientUnits="userSpaceOnUse"
       y2="268"
       x2="198"
       y1="268"
       x1="142"
       id="linearGradient1039"
       xlink:href="#linearGradient1296" />
    <linearGradient
       id="linearGradient1296">
      <stop
         id="stop1292"
         offset="0"
         style="stop-color:#77767b;stop-opacity:1;" />
      <stop
         style="stop-color:#c0bfbc;stop-opacity:1"
         offset="0.17589436"
         id="stop1300" />
      <stop
         id="stop1302"
         offset="0.4092612"
         style="stop-color:#77767b;stop-opacity:1" />
      <stop
         id="stop1294"
         offset="1"
         style="stop-color:#3d3846;stop-opacity:1" />
    </linearGradient>
    <linearGradient
       y2="249.87819"
       x2="67.121834"
       y1="238.30762"
       x1="78.692398"
       gradientTransform="translate(55.100502,0.07106726)"
       gradientUnits="userSpaceOnUse"
       id="linearGradient1986"
       xlink:href="#linearGradient969" />
    <linearGradient
       id="linearGradient969">
      <stop
         style="stop-color:#f6f5f4;stop-opacity:1"
         offset="0"
         id="stop963" />
      <stop
         id="stop965"
         offset="0.25731823"
         style="stop-color:#ffffff;stop-opacity:1" />
      <stop
         style="stop-color:#c0bfbc;stop-opacity:1"
         offset="0.5999999"
         id="stop1085" />
      <stop
         id="stop1087"
         offset="0.70312482"
         style="stop-color:#f6f5f4;stop-opacity:1" />
      <stop
         style="stop-color:#f6f5f4;stop-opacity:1"
         offset="1"
         id="stop967" />
    </linearGradient>
    <linearGradient
       y2="70.300697"
       x2="85.886963"
       y1="67.679771"
       x1="88.507896"
       gradientTransform="translate(55.769701,171.28412)"
       gradientUnits="userSpaceOnUse"
       id="linearGradient1988"
       xlink:href="#linearGradient1040" />
    <linearGradient
       id="linearGradient1040">
      <stop
         style="stop-color:#c0bfbc;stop-opacity:1"
         offset="0"
         id="stop1036" />
      <stop
         style="stop-color:#f6f5f4;stop-opacity:1"
         offset="1"
         id="stop1038" />
    </linearGradient>
  </defs>
  <metadata
     id="metadata7">
    <rdf:RDF>
      <cc:Work
         rdf:about="">
        <dc:format>image/svg+xml</dc:format>
        <dc:type
           rdf:resource="http://purl.org/dc/dcmitype/StillImage" />
        <dc:title />
      </cc:Work>
    </rdf:RDF>
  </metadata>
  <g
     transform="translate(0,-796.36216)"
     id="layer1"
     inkscape:groupmode="layer"
     inkscape:label="Layer 1">
    <g
       transform="rotate(180,128,924.36221)"
       id="g1023">
      <path
         d="m 0,-924.36218 a 128,128 0 0 1 -64.000002,110.85125 128,128 0 0 1 -127.999998,0 128,128 0 0 1 -64,-110.85126 l 128,1e-5 z"
         sodipodi:arc-type="slice"
         style="opacity:0.99;fill:#2ec27e;fill-opacity:1;stroke:none;stroke-width:25.0828;stroke-miterlimit:4;stroke-dasharray:none;stroke-opacity:1"
         id="path862"
         sodipodi:type="arc"
         sodipodi:cx="-128"
         sodipodi:cy="-924.36218"
         sodipodi:rx="128"
         sodipodi:ry="128"
         sodipodi:start="0"
         sodipodi:end="3.1415927"
         transform="scale(-1)" />
      <path
         d="m 0,924.36224 a 128,128 0 0 1 -64.000002,110.85126 128,128 0 0 1 -127.999998,0 128,128 0 0 1 -64,-110.85126 l 128,0 z"
         sodipodi:arc-type="slice"
         sodipodi:end="3.1415927"
         sodipodi:start="0"
         sodipodi:ry="128"
         sodipodi:rx="128"
         sodipodi:cy="924.36224"
         sodipodi:cx="-128"
         sodipodi:type="arc"
         id="path864"
         style="opacity:0.99;fill:#26a269;fill-opacity:1;stroke:none;stroke-width:25.0828;stroke-miterlimit:4;stroke-dasharray:none;stroke-opacity:1"
         transform="scale(-1,1)" />
    </g>
    <path
       inkscape:connector-curvature="0"
       id="path4913"
       d="M 154.47438,968.80998 101.03985,1048.476 0.4857685,1048.9618 0,842.0244 l 33.032258,-2.42884 45.176471,83.55218 21.373814,35.4611 26.717267,13.11575 z"
       style="fill:none;fill-rule:evenodd;stroke:none;stroke-width:1px;stroke-linecap:butt;stroke-linejoin:miter;stroke-opacity:1" />
    <g
       transform="matrix(0,-2.3755979,-2.3755979,0,140.64305,-153.39807)"
       id="g6809">
      <g
         id="g4214">
        <g
           style="fill:#ffffff;fill-opacity:1;fill-rule:nonzero;stroke:none"
           id="g4216">
          <path
             inkscape:connector-curvature="0"
             d="m 0,0 c -0.021,-0.11 -0.035,-0.223 -0.057,-0.333 l -424.26407,424.26407 c 0.022,0.11 0.036,0.223 0.057,0.333 z"
             id="path4218" />
          <path
             inkscape:connector-curvature="0"
             d="m -0.057,-0.333 -0.106,0.635 -424.26407,424.26407 0.106,-0.635 z"
             id="path4220" />
          <path
             inkscape:connector-curvature="0"
             d="M -0.163,0.302 C -0.105,0.203 -0.057,0.101 0,0 l -424.26407,424.26407 c -0.057,0.101 -0.105,0.203 -0.163,0.302 z"
             id="path4222" />
          <path
             inkscape:connector-curvature="0"
             d="m 0,0 c 0.324,1.774 0.495,3.59 0.495,5.405 l -424.26407,424.26407 c 0,-1.815 -0.171,-3.631 -0.495,-5.405 z"
             id="path4224" />
          <path
             inkscape:connector-curvature="0"
             d="m 0.495,5.405 c 0,4.026 -0.788,7.931 -2.344,11.607 l -424.26407,424.26407 c 1.556,-3.676 2.344,-7.581 2.344,-11.607 z"
             id="path4226" />
          <path
             inkscape:connector-curvature="0"
             d="m -1.849,17.012 c -1.5012779,3.549293 -3.6489338,6.735935 -6.3860499,9.473051 L -432.49912,450.74912 c 2.73712,-2.73712 4.88477,-5.92376 6.38605,-9.47305 z"
             id="path4228" />
          <path
             inkscape:connector-curvature="0"
             d="m -8.2350499,26.485051 c -0.00132,0.0013 -0.00263,0.0026 -0.00395,0.0039 L -432.50307,450.75302 c 10e-4,-10e-4 0.003,-0.003 0.004,-0.004 z"
             id="path4230" />
          <path
             inkscape:connector-curvature="0"
             d="m -8.239,26.489 c -0.00131,0.0013 -0.00263,0.0026 -0.00394,0.0039 l -424.26407,424.26411 c 10e-4,-10e-4 0.003,-0.003 0.004,-0.004 z"
             id="path4232" />
          <path
             inkscape:connector-curvature="0"
             d="M -8.2429418,26.492943 C -10.980062,29.230062 -14.168703,31.377721 -17.716,32.879 l -424.26407,424.26407 c 3.5473,-1.50128 6.73594,-3.64894 9.47306,-6.38606 z"
             id="path4234" />
          <path
             inkscape:connector-curvature="0"
             d="m -17.716,32.879 c -3.676,1.555 -7.581,2.343 -11.605,2.343 l -424.26407,424.26407 c 4.024,0 7.929,-0.788 11.605,-2.343 z"
             id="path4236" />
          <path
             inkscape:connector-curvature="0"
             d="m -29.321,35.222 c -1.898,0 -3.796,-0.179 -5.647,-0.534 l -424.26407,424.26407 c 1.851,0.355 3.749,0.534 5.647,0.534 z"
             id="path4238" />
          <path
             inkscape:connector-curvature="0"
             d="m -34.968,34.688 c -0.004,0 -0.009,0 -0.013,-0.001 l -424.26407,424.26407 c 0.004,10e-4 0.009,10e-4 0.013,10e-4 z"
             id="path4240" />
          <path
             inkscape:connector-curvature="0"
             d="m -34.981,34.687 c 0.103,-0.056 0.209,-0.105 0.31,-0.162 l -424.26407,424.26407 c -0.101,0.057 -0.207,0.106 -0.31,0.162 z"
             id="path4242" />
          <path
             inkscape:connector-curvature="0"
             d="m -34.671,34.525 -0.626,0.098 -424.26407,424.26407 0.626,-0.098 z"
             id="path4244" />
          <path
             inkscape:connector-curvature="0"
             d="m -35.297,34.623 c 0.105,0.021 0.21,0.041 0.316,0.064 l -424.26407,424.26407 c -0.106,-0.023 -0.211,-0.043 -0.316,-0.064 z"
             id="path4246" />
          <path
             inkscape:connector-curvature="0"
             d="m -34.981,34.687 c -2.538,1.348 -5.39,2.069 -8.278,2.069 l -424.26407,424.26407 c 2.888,0 5.74,-0.721 8.278,-2.069 z"
             id="path4248" />
          <path
             inkscape:connector-curvature="0"
             d="m -43.259,36.756 c -4.714,0 -9.148,-1.836 -12.482,-5.171 l -424.26407,424.26407 c 3.334,3.335 7.768,5.171 12.482,5.171 z"
             id="path4250" />
          <path
             inkscape:connector-curvature="0"
             d="m -55.741,31.585 c -3.333,-3.334 -5.168,-7.767 -5.168,-12.482 l -424.26407,424.26407 c 0,4.715 1.835,9.148 5.168,12.482 z"
             id="path4252" />
          <path
             inkscape:connector-curvature="0"
             d="m -60.909,19.103 c 0,-3.001 0.769,-5.952 2.22,-8.559 l -424.26407,424.26407 c -1.451,2.607 -2.22,5.558 -2.22,8.559 z"
             id="path4254" />
          <path
             inkscape:connector-curvature="0"
             d="m -58.689,10.544 c 0.018,0.109 0.031,0.218 0.051,0.325 l -424.26407,424.26407 c -0.02,-0.107 -0.033,-0.216 -0.051,-0.325 z"
             id="path4256" />
          <path
             inkscape:connector-curvature="0"
             d="m -58.638,10.869 0.109,-0.624 -424.26407,424.26407 -0.109,0.624 z"
             id="path4258" />
          <path
             inkscape:connector-curvature="0"
             d="m -58.529,10.245 c -0.057,0.098 -0.106,0.2 -0.16,0.299 l -424.26407,424.26407 c 0.054,-0.099 0.103,-0.201 0.16,-0.299 z"
             id="path4260" />
          <path
             inkscape:connector-curvature="0"
             d="M -58.689,10.544 C -58.984,8.855 -59.14,7.129 -59.14,5.405 l -424.26407,424.26407 c 0,1.724 0.156,3.45 0.451,5.139 z"
             id="path4262" />
          <path
             inkscape:connector-curvature="0"
             d="m -59.14,5.405 c 0,-4.024 0.79,-7.929 2.346,-11.606 l -424.26407,424.26407 c -1.556,3.677 -2.346,7.582 -2.346,11.606 z"
             id="path4264" />
          <path
             inkscape:connector-curvature="0"
             d="m -56.794,-6.201 c 1.5,-3.553 3.651,-6.74 6.388,-9.477 l -424.26407,424.26407 c -2.737,2.737 -4.888,5.924 -6.388,9.477 z"
             id="path4266" />
          <path
             inkscape:connector-curvature="0"
             d="m -50.406,-15.678 c 2.738,-2.738 5.926,-4.89 9.478,-6.388 l -424.26407,424.26407 c -3.552,1.498 -6.74,3.65 -9.478,6.388 z"
             id="path4268" />
          <path
             inkscape:connector-curvature="0"
             d="m -40.928,-22.066 c 3.676,-1.559 7.582,-2.347 11.607,-2.347 l -424.26407,424.26407 c -4.025,0 -7.931,0.788 -11.607,2.347 z"
             id="path4270" />
          <path
             inkscape:connector-curvature="0"
             d="m -29.321,-24.413 c 1.752,0 3.508,0.159 5.222,0.464 l -424.26407,424.26407 c -1.714,-0.305 -3.47,-0.464 -5.222,-0.464 z"
             id="path4272" />
          <path
             inkscape:connector-curvature="0"
             d="m -24.099,-23.949 c -0.1,0.056 -0.203,0.106 -0.304,0.165 l -424.26407,424.26407 c 0.101,-0.059 0.204,-0.109 0.304,-0.165 z"
             id="path4274" />
          <path
             inkscape:connector-curvature="0"
             d="m -24.403,-23.784 0.636,-0.112 -424.26407,424.26407 -0.636,0.112 z"
             id="path4276" />
          <path
             inkscape:connector-curvature="0"
             d="m -23.767,-23.896 c -0.11,-0.02 -0.22,-0.034 -0.332,-0.053 l -424.26407,424.26407 c 0.112,0.019 0.222,0.033 0.332,0.053 z"
             id="path4278" />
          <path
             inkscape:connector-curvature="0"
             d="M -24.099,-23.949 C -7.8965258,-32.19327 8.2242739,-15.099464 0,0 l -424.26407,424.26407 c 8.22428,-15.09947 -7.89652,-32.19327 -24.099,-23.949 z"
             id="path4280" />
        </g>
        <path
           inkscape:connector-curvature="0"
           id="path6811"
           style="fill:#ffffff;fill-opacity:1;fill-rule:nonzero;stroke:none"
           d="M 0,0 C -0.021,-0.11 -0.035,-0.223 -0.057,-0.333 L -0.163,0.302 C -0.105,0.203 -0.057,0.101 0,0 c 0.324,1.774 0.495,3.59 0.495,5.405 0,4.026 -0.788,7.931 -2.344,11.607 -1.502,3.551 -3.651,6.739 -6.39,9.477 -2.738,2.739 -5.928,4.888 -9.477,6.39 -3.676,1.555 -7.581,2.343 -11.605,2.343 -1.898,0 -3.796,-0.179 -5.647,-0.534 -0.004,0 -0.009,0 -0.013,-0.001 0.103,-0.056 0.209,-0.105 0.31,-0.162 l -0.626,0.098 c 0.105,0.021 0.21,0.041 0.316,0.064 -2.538,1.348 -5.39,2.069 -8.278,2.069 -4.714,0 -9.148,-1.836 -12.482,-5.171 -3.333,-3.334 -5.168,-7.767 -5.168,-12.482 0,-3.001 0.769,-5.952 2.22,-8.559 0.018,0.109 0.031,0.218 0.051,0.325 l 0.109,-0.624 c -0.057,0.098 -0.106,0.2 -0.16,0.299 -0.295,-1.689 -0.451,-3.415 -0.451,-5.139 0,-4.024 0.79,-7.929 2.346,-11.606 1.5,-3.553 3.651,-6.74 6.388,-9.477 2.738,-2.738 5.926,-4.89 9.478,-6.388 3.676,-1.559 7.582,-2.347 11.607,-2.347 1.752,0 3.508,0.159 5.222,0.464 -0.1,0.056 -0.203,0.106 -0.304,0.165 l 0.636,-0.112 c -0.11,-0.02 -0.22,-0.034 -0.332,-0.053 C -7.8965258,-32.19327 8.2242739,-15.099464 0,0"
           sodipodi:nodetypes="ccccscccscccccsssccccscscsccccc" />
      </g>
    </g>
    <path
       inkscape:connector-curvature="0"
       id="path4383"
       d="m 178.29492,871.52121 a 35,52.5 0 0 0 -33.94922,40 l -89.525376,0 c -6.925,0 -12.5,5.57502 -12.5,12.5 0,6.925 5.575,12.50004 12.5,12.50004 l 11.40625,0 c 2.07696,-0.8275 7.79042,0.3566 8.74218,-1.5469 0.66422,-1.32844 -0.38,-5.47157 0.48829,-6.33985 0.45973,-0.45973 1.29906,0 1.94921,0 7.21058,0 4.10412,4.97783 8.777348,7.31445 0.930143,0.4651 3.325702,0 4.388672,0 1.15269,0 2.386118,0.5397 2.925782,0 0.274073,-0.2741 0.833115,-2.3419 0.976562,-2.4375 1.058291,-0.70553 2.37628,-0.94497 3.41211,-1.46289 3.118512,-1.55926 5.129672,2.92579 7.802722,2.92579 0.13367,0 6.36653,-4.59916 6.82618,-5.36524 0.0993,-0.1655 0.1939,-3.07102 2.4375,-1.94922 0.21791,0.10896 2.80998,5.24748 3.41406,5.85156 0.22987,0.22987 -0.14538,0.68385 0,0.97461 0.75899,1.51799 0.14651,-0.15903 0.97461,0.48829 0.56161,0.439 0.89712,1.161 1.48437,1.5469 l 0.0625,0 c -0.2837,-0.3797 -0.92653,-0.8604 -0.57031,-1.0606 0.29984,-0.1685 0.75913,0.7266 0.77539,1.0606 l 23.24609,0 a 35,52.5 0 0 0 33.95508,40 35,52.5 0 0 0 35,-52.50004 35,52.5 0 0 0 -35,-52.5 z m 0.17969,22.5 a 12.5,30 0 0 1 12.5,30 12.5,30 0 0 1 -12.5,30.00004 12.5,30 0 0 1 -12.5,-30.00004 12.5,30 0 0 1 12.5,-30 z"
       style="fill:#ffffff;fill-opacity:1;stroke:none;stroke-width:23;stroke-linecap:round;stroke-linejoin:round;stroke-miterlimit:4;stroke-dasharray:none;stroke-opacity:1" />
    <path
       sodipodi:nodetypes="cssscc"
       inkscape:connector-curvature="0"
       id="path4385"
       d="m 45.929326,917.2268 87.381474,0 c 1.385,0 2.5,1.115 2.5,2.5 0,1.385 -1.11501,2.49759 -2.5,2.5 l -90.422966,0.15761 c -0.723115,-1.18346 1.177621,-5.10132 3.041493,-5.15761 z"
       style="fill:#a4a4a4;fill-opacity:1;stroke:none;stroke-width:23;stroke-linecap:round;stroke-linejoin:round;stroke-miterlimit:4;stroke-dasharray:none;stroke-opacity:1" />
  </g>
</svg>
