<?xml version="1.0" encoding="UTF-8" standalone="no"?>
<svg
   xmlns:dc="http://purl.org/dc/elements/1.1/"
   xmlns:cc="http://creativecommons.org/ns#"
   xmlns:rdf="http://www.w3.org/1999/02/22-rdf-syntax-ns#"
   xmlns:svg="http://www.w3.org/2000/svg"
   xmlns="http://www.w3.org/2000/svg"
   xmlns:sodipodi="http://sodipodi.sourceforge.net/DTD/sodipodi-0.dtd"
   xmlns:inkscape="http://www.inkscape.org/namespaces/inkscape"
   sodipodi:docname="com.spotify.Client.svg"
   inkscape:version="1.0 (4035a4fb49, 2020-05-01)"
   version="1.1"
   id="svg2"
   viewBox="0 0 256 256"
   height="256"
   width="256">
  <sodipodi:namedview
     inkscape:document-rotation="0"
     inkscape:window-maximized="1"
     inkscape:window-y="0"
     inkscape:window-x="0"
     inkscape:window-height="1048"
     inkscape:window-width="1920"
     units="px"
     showgrid="true"
     inkscape:current-layer="layer1"
     inkscape:document-units="px"
     inkscape:cy="128.00003"
     inkscape:cx="128"
     inkscape:zoom="3.3437497"
     inkscape:pageshadow="2"
     inkscape:pageopacity="0.0"
     borderopacity="1.0"
     bordercolor="#666666"
     pagecolor="#ffffff"
     id="base">
    <inkscape:grid
       type="xygrid"
       id="grid5364"
       spacingx="5"
       spacingy="5" />
  </sodipodi:namedview>
  <defs
     id="defs4">
    <inkscape:path-effect
       is_visible="true"
       id="path-effect4285"
       effect="spiro" />
    <inkscape:path-effect
       is_visible="true"
       id="path-effect4267"
       effect="spiro" />
    <inkscape:path-effect
       effect="spiro"
       id="path-effect4263"
       is_visible="true" />
    <inkscape:path-effect
       effect="spiro"
       id="path-effect4259"
       is_visible="true" />
    <inkscape:path-effect
       is_visible="true"
       id="path-effect4255"
       effect="spiro" />
    <inkscape:path-effect
       is_visible="true"
       id="path-effect4251"
       effect="spiro" />
    <inkscape:path-effect
       is_visible="true"
       id="path-effect4247"
       effect="spiro" />
    <inkscape:path-effect
       is_visible="true"
       id="path-effect4243"
       effect="spiro" />
    <inkscape:path-effect
       is_visible="true"
       id="path-effect4239"
       effect="spiro" />
    <inkscape:path-effect
       is_visible="true"
       id="path-effect4235"
       effect="spiro" />
    <inkscape:path-effect
       fuse_tolerance="0"
       vertical_pattern="false"
       prop_units="false"
       tang_offset="0"
       normal_offset="0"
       spacing="0"
       scale_y_rel="false"
       prop_scale="1"
       copytype="single_stretched"
       pattern="m 0,801.36216 c 0,-2.76 2.24,-5 5,-5 2.76,0 5,2.24 5,5 0,2.76 -2.24,5 -5,5 -2.76,0 -5,-2.24 -5,-5 z"
       is_visible="true"
       id="path-effect4231"
       effect="skeletal" />
    <inkscape:path-effect
       is_visible="true"
       id="path-effect4229"
       effect="spiro" />
    <inkscape:path-effect
       is_visible="true"
       id="path-effect4225"
       effect="spiro" />
    <clipPath
       id="clipPath6496"
       clipPathUnits="userSpaceOnUse">
      <circle
         r="128"
         cy="923.80737"
         cx="138.67154"
         id="circle6498"
         style="fill:#ec6155;fill-opacity:1;stroke:none;stroke-width:10;stroke-miterlimit:4;stroke-dasharray:none;stroke-opacity:1" />
    </clipPath>
    <clipPath
       clipPathUnits="userSpaceOnUse"
       id="clipPath4403">
      <path
         style="fill:#0ee132;fill-opacity:1;stroke:none;stroke-width:10;stroke-miterlimit:4;stroke-dasharray:none;stroke-opacity:1"
         d="m 209.35592,964.68798 a 80.79922,80.79922 0 0 1 -70.39733,90.00692 80.79922,80.79922 0 0 1 -90.00691,-70.39734 80.79922,80.79922 0 0 1 70.39733,-90.00691 80.79922,80.79922 0 0 1 90.00691,70.39733 z"
         id="path4405"
         inkscape:connector-curvature="0" />
    </clipPath>
    <clipPath
       id="clipPath5371"
       clipPathUnits="userSpaceOnUse">
      <path
         inkscape:connector-curvature="0"
         style="fill:#84bd00;fill-opacity:1;stroke:none;stroke-width:10;stroke-miterlimit:4;stroke-dasharray:none;stroke-opacity:1"
         d="m 233.40483,929.35779 a 112,112 0 0 1 -112,112.00001 112,112 0 0 1 -112.000005,-112.00001 112,112 0 0 1 112.000005,-112 112,112 0 0 1 112,112 z"
         id="path5373" />
    </clipPath>
  </defs>
  <metadata
     id="metadata7">
    <rdf:RDF>
      <cc:Work
         rdf:about="">
        <dc:format>image/svg+xml</dc:format>
        <dc:type
           rdf:resource="http://purl.org/dc/dcmitype/StillImage" />
        <dc:title />
      </cc:Work>
    </rdf:RDF>
  </metadata>
  <g
     inkscape:label="Layer 1"
     inkscape:groupmode="layer"
     id="layer1"
     transform="translate(0,-796.36216)">
    <path
       transform="scale(1,-1)"
       style="fill:#083418;stroke:none;stroke-width:94.1284;fill-opacity:1"
       id="path915"
       sodipodi:type="arc"
       sodipodi:cx="128"
       sodipodi:cy="-924.36218"
       sodipodi:rx="128"
       sodipodi:ry="128"
       sodipodi:start="0"
       sodipodi:end="3.1415927"
       sodipodi:arc-type="slice"
       d="m 256,-924.36218 a 128,128 0 0 1 -64,110.85125 128,128 0 0 1 -128.000003,0 A 128,128 0 0 1 0,-924.36218 h 128 z" />
    <path
       d="m 256,924.36218 a 128,128 0 0 1 -64,110.85122 128,128 0 0 1 -128.000003,0 A 128,128 0 0 1 0,924.36218 h 128 z"
       sodipodi:arc-type="slice"
       sodipodi:end="3.1415927"
       sodipodi:start="0"
       sodipodi:ry="128"
       sodipodi:rx="128"
       sodipodi:cy="924.36218"
       sodipodi:cx="128"
       sodipodi:type="arc"
       id="path913"
       style="fill:#1db954;stroke:none;stroke-width:94.1284;fill-opacity:1" />
    <path
       id="path4771"
       d="m 104.25206,862.54075 c -20.416078,0.37572 -41.106089,2.29975 -60.587167,8.72025 -7.992697,3.14664 -11.015385,14.58761 -4.970473,20.93022 3.632859,4.63839 10.107905,6.2425 15.570528,4.17461 23.326736,-6.73327 47.988802,-7.01512 72.093392,-5.67038 24.07321,1.81237 48.38651,7.30269 70.01183,18.59225 4.30201,1.87732 8.78494,5.35843 13.70832,3.44969 7.30442,-1.47274 11.85606,-9.50315 10.01052,-16.59176 -2.02439,-7.67539 -10.47373,-10.45742 -16.70566,-13.87666 -30.77234,-14.50174 -65.32992,-19.83123 -99.13129,-19.72822 z"
       style="vector-effect:none;fill:#f4f1f1;fill-opacity:1;stroke:none;stroke-width:1.9953;stroke-miterlimit:4;stroke-dasharray:none" />
    <path
       id="path4773"
       d="m 101.27239,906.50187 c -17.276385,0.29676 -34.716048,2.53598 -51.095783,8.16384 -6.148396,3.31842 -8.367502,12.50767 -3.23469,17.71266 3.182022,4.05377 8.778551,4.96501 13.460898,3.28946 12.216579,-3.28495 24.825163,-5.54641 37.521916,-5.32392 14.865849,-0.3539 29.694149,0.1952 44.181959,3.7894 14.98609,2.93541 28.85492,9.11551 42.2558,16.11759 3.20376,2.12027 7.20581,3.01565 10.81567,1.3582 7.17191,-2.46711 10.03983,-12.52745 4.77089,-18.16627 -6.68133,-5.87538 -15.22925,-9.12537 -23.22847,-12.79864 -23.79051,-9.90821 -49.72797,-14.38472 -75.44819,-14.14232 z"
       style="vector-effect:none;fill:#f3f0f0;fill-opacity:1;stroke:none;stroke-width:1.9953;stroke-miterlimit:4;stroke-dasharray:none" />
    <path
       id="path4775"
       d="m 104.68348,948.3099 c -16.621769,-0.002 -33.268239,2.0554 -49.346895,6.24056 -5.070782,2.2382 -7.937166,9.05393 -4.465462,13.82277 2.107938,4.33793 7.47121,5.19839 11.73697,4.06559 13.57939,-2.74421 27.407663,-4.78995 41.279067,-4.65527 20.3692,-0.47532 40.82355,3.10521 59.02503,12.22386 5.15859,1.89354 9.62288,6.56367 15.41918,6.15207 6.89262,-0.67378 11.45936,-10.25564 6.13271,-15.42953 -6.16286,-5.46659 -14.1065,-8.4175 -21.49876,-11.83635 -18.36801,-7.64745 -38.43254,-10.95917 -58.28184,-10.5837 z"
       style="vector-effect:none;fill:#ffffff;fill-opacity:1;stroke:none;stroke-width:1.9953;stroke-miterlimit:4;stroke-dasharray:none" />
  </g>
</svg>
