<?xml version="1.0" encoding="UTF-8" standalone="no"?>
<!-- Created with Inkscape (http://www.inkscape.org/) -->

<svg
   xmlns:dc="http://purl.org/dc/elements/1.1/"
   xmlns:cc="http://creativecommons.org/ns#"
   xmlns:rdf="http://www.w3.org/1999/02/22-rdf-syntax-ns#"
   xmlns:svg="http://www.w3.org/2000/svg"
   xmlns="http://www.w3.org/2000/svg"
   xmlns:sodipodi="http://sodipodi.sourceforge.net/DTD/sodipodi-0.dtd"
   xmlns:inkscape="http://www.inkscape.org/namespaces/inkscape"
   width="256"
   height="256"
   viewBox="0 0 256 256"
   id="svg4149"
   version="1.1"
   inkscape:version="0.92.3 (2405546, 2018-03-11)"
   sodipodi:docname="sqlitebrowser.svg">
  <sodipodi:namedview
     id="base"
     pagecolor="#ffffff"
     bordercolor="#666666"
     borderopacity="1.0"
     inkscape:pageopacity="0.0"
     inkscape:pageshadow="2"
     inkscape:zoom="3.3046875"
     inkscape:cx="128"
     inkscape:cy="127.99998"
     inkscape:document-units="px"
     inkscape:current-layer="layer1"
     showgrid="false"
     units="px"
     inkscape:window-width="1920"
     inkscape:window-height="1048"
     inkscape:window-x="0"
     inkscape:window-y="0"
     inkscape:window-maximized="1" />
  <defs
     id="defs4151">
    <linearGradient
       id="linearGradient5093">
      <stop
         style="stop-color:#ff8b00;stop-opacity:1"
         offset="0"
         id="stop5095" />
      <stop
         style="stop-color:#ffda2c;stop-opacity:1;"
         offset="1"
         id="stop5097" />
    </linearGradient>
    <clipPath
       id="clipPath4863"
       clipPathUnits="userSpaceOnUse">
      <circle
         r="77.263145"
         cy="924.36218"
         cx="128"
         id="circle4865"
         style="fill:#e9e9e9;fill-opacity:1;stroke:none;stroke-width:20;stroke-miterlimit:4;stroke-dasharray:none;stroke-opacity:1" />
    </clipPath>
    <clipPath
       clipPathUnits="userSpaceOnUse"
       id="clipPath4227">
      <circle
         r="77.263145"
         cy="924.36218"
         cx="128"
         id="circle4229"
         style="fill:#e9e9e9;fill-opacity:1;stroke:none;stroke-width:20;stroke-miterlimit:4;stroke-dasharray:none;stroke-opacity:1" />
    </clipPath>
    <clipPath
       id="clipPath5543"
       clipPathUnits="userSpaceOnUse">
      <circle
         r="128"
         cy="924.36218"
         cx="128"
         id="circle5545"
         style="fill:#9e9fe9;fill-opacity:1;stroke:none;stroke-width:20;stroke-miterlimit:4;stroke-dasharray:none;stroke-opacity:1" />
    </clipPath>
    <linearGradient
       id="linearGradient10825-3">
      <stop
         id="stop10827-7"
         offset="0"
         style="stop-color:#ff8b00;stop-opacity:1" />
      <stop
         id="stop10829-2"
         offset="1"
         style="stop-color:#ffda2c;stop-opacity:1;" />
    </linearGradient>
    <linearGradient
       id="linearGradient12049-8">
      <stop
         id="stop12051-8"
         offset="0"
         style="stop-color:#1c86ee;stop-opacity:1;" />
      <stop
         style="stop-color:#1c86ee;stop-opacity:1;"
         offset="0.02173913"
         id="stop12057-0" />
      <stop
         id="stop12053-3"
         offset="1"
         style="stop-color:#1c86ee;stop-opacity:0;" />
    </linearGradient>
    <clipPath
       id="clipPath5045"
       clipPathUnits="userSpaceOnUse">
      <circle
         style="fill:#9e9fe9;fill-opacity:1;stroke:none;stroke-width:20;stroke-miterlimit:4;stroke-dasharray:none;stroke-opacity:1"
         id="circle5047"
         cx="111.66476"
         cy="1013.8403"
         r="21.5" />
    </clipPath>
    <clipPath
       clipPathUnits="userSpaceOnUse"
       id="clipPath5190">
      <circle
         cy="924.36218"
         cx="128"
         style="display:inline;fill:#1c86ee;fill-opacity:1;stroke:none"
         id="circle5192"
         r="128" />
    </clipPath>
    <clipPath
       id="clipPath4785"
       clipPathUnits="userSpaceOnUse">
      <circle
         cy="966.63623"
         cx="124.62498"
         style="display:inline;fill:#1c86ee;fill-opacity:1;stroke:none;stroke-width:0.57337016"
         id="circle4787"
         r="73.39138" />
    </clipPath>
    <clipPath
       clipPathUnits="userSpaceOnUse"
       id="clipPath1664">
      <circle
         cy="924.36218"
         cx="128"
         style="display:inline;fill:#1c86ee;fill-opacity:1;stroke:none"
         id="circle1666"
         r="128" />
    </clipPath>
  </defs>
  <metadata
     id="metadata4154">
    <rdf:RDF>
      <cc:Work
         rdf:about="">
        <dc:format>image/svg+xml</dc:format>
        <dc:type
           rdf:resource="http://purl.org/dc/dcmitype/StillImage" />
        <dc:title />
      </cc:Work>
    </rdf:RDF>
  </metadata>
  <g
     inkscape:label="Layer 1"
     inkscape:groupmode="layer"
     id="layer1"
     transform="translate(0,-796.36216)">
    <path
       id="path11995"
       style="display:inline;fill:#1c86ee;fill-opacity:1;stroke:none"
       sodipodi:type="arc"
       sodipodi:cx="128"
       sodipodi:cy="924.36218"
       sodipodi:rx="128"
       sodipodi:ry="128"
       sodipodi:start="0"
       sodipodi:end="3.1415927"
       d="m 256,924.36218 a 128,128 0 0 1 -64,110.85122 128,128 0 0 1 -128.000003,0 A 128,128 0 0 1 0,924.36218 l 128,0 z" />
    <path
       d="m 256,-924.36218 a 128,128 0 0 1 -64,110.85125 128,128 0 0 1 -128.000003,0 A 128,128 0 0 1 0,-924.36219 l 128,1e-5 z"
       sodipodi:end="3.1415927"
       sodipodi:start="0"
       sodipodi:ry="128"
       sodipodi:rx="128"
       sodipodi:cy="-924.36218"
       sodipodi:cx="128"
       sodipodi:type="arc"
       style="display:inline;fill:#0a4784;fill-opacity:1;stroke:none"
       id="path907"
       transform="scale(1,-1)" />
    <g
       id="g906"
       style="fill:#ffffff;fill-opacity:1">
      <path
         style="fill:#ffffff;fill-opacity:1;stroke:none;stroke-width:17.44074059;stroke-linejoin:round;stroke-miterlimit:4;stroke-dasharray:none;stroke-opacity:1"
         d="M 217.38131,874.77863 A 89.38131,25.416485 0 0 1 128,900.19511 89.38131,25.416485 0 0 1 38.61869,874.77863 89.38131,25.416485 0 0 1 128,849.36214 a 89.38131,25.416485 0 0 1 89.38131,25.41649 z"
         id="ellipse4212" />
      <path
         style="fill:#ffffff;fill-opacity:1;stroke:none;stroke-width:17.44074059;stroke-linejoin:round;stroke-miterlimit:4;stroke-dasharray:none;stroke-opacity:1"
         d="m 124.35936,965.10886 c -36.134654,-2.0973 -52.450414,-4.52451 -66.436117,-9.88337 -8.553544,-3.27743 -12.975094,-5.98361 -15.837664,-9.69332 -2.64766,-3.43119 -2.820515,-4.40508 -2.725013,-15.35302 l 0.08028,-9.20225 1.408048,1.75987 c 3.188051,3.98463 8.002614,6.82123 17.8778,10.533 12.896759,4.84752 34.575011,7.9499 65.107716,9.3176 9.14803,0.40977 16.39136,0.14336 30.02925,-1.10472 19.94342,-1.82505 27.1759,-3.0785 38.25836,-6.63048 9.50975,-3.04791 20.07436,-7.87695 23.01323,-10.51924 l 1.48124,-1.33177 0.0331,9.08873 c 0.0183,4.9988 0.007,9.42571 -0.0246,9.83757 -0.10883,1.41112 -1.57937,4.18463 -2.82964,5.3371 -1.30846,1.20609 -7.75244,4.61576 -12.30547,6.5111 -7.54694,3.14168 -18.67521,6.33135 -26.95826,7.72699 -13.02956,2.19539 -40.4825,4.16862 -50.1723,3.60621 v 0 z"
         id="path4214"
         inkscape:connector-curvature="0" />
      <path
         inkscape:connector-curvature="0"
         id="path4216"
         d="m 124.35936,930.95248 c -36.134654,-2.09731 -52.450414,-4.52452 -66.436117,-9.88337 -8.553544,-3.27743 -12.975094,-5.98361 -15.837664,-9.69332 -2.64766,-3.43119 -2.820515,-4.40508 -2.725013,-15.35302 l 0.08028,-9.20226 1.408048,1.75988 c 3.188051,3.98463 8.002614,6.82123 17.8778,10.533 12.896759,4.84752 34.575011,7.94989 65.107716,9.3176 9.14803,0.40977 16.39136,0.14336 30.02925,-1.10472 19.94342,-1.82505 27.1759,-3.0785 38.25836,-6.63048 9.50975,-3.04791 20.07436,-7.87695 23.01323,-10.51924 l 1.48124,-1.33178 0.0331,9.08874 c 0.0183,4.9988 0.007,9.42571 -0.0246,9.83757 -0.10883,1.41111 -1.57937,4.18463 -2.82964,5.33709 -1.30846,1.2061 -7.75244,4.61577 -12.30547,6.5111 -7.54694,3.14169 -18.67521,6.33136 -26.95826,7.727 -13.02956,2.19539 -40.4825,4.16862 -50.1723,3.60621 v 0 z"
         style="fill:#ffffff;fill-opacity:1;stroke:none;stroke-width:17.44074059;stroke-linejoin:round;stroke-miterlimit:4;stroke-dasharray:none;stroke-opacity:1" />
      <path
         inkscape:connector-curvature="0"
         id="path4218"
         d="m 124.35936,999.26517 c -36.134654,-2.09725 -52.450414,-4.52448 -66.436117,-9.88332 -8.553544,-3.27746 -12.975094,-5.98357 -15.837664,-9.69335 -2.64766,-3.43119 -2.820515,-4.40508 -2.725013,-15.35302 l 0.08028,-9.20226 1.408048,1.75988 c 3.188051,3.98463 8.002614,6.82123 17.8778,10.533 12.896759,4.84752 34.575011,7.94989 65.107716,9.3176 9.14803,0.40977 16.39136,0.14336 30.02925,-1.10472 19.94342,-1.82505 27.1759,-3.0785 38.25836,-6.63048 9.50975,-3.04791 20.07436,-7.87695 23.01323,-10.51924 l 1.48124,-1.33178 0.0331,9.08874 c 0.0183,4.9988 0.007,9.42571 -0.0246,9.83757 -0.10883,1.41111 -1.57937,4.18463 -2.82964,5.33709 -1.30846,1.20617 -7.75244,4.61584 -12.30547,6.51112 -7.54694,3.1416 -18.67521,6.33134 -26.95826,7.72695 -13.02956,2.19544 -40.4825,4.16868 -50.1723,3.60622 v 0 z"
         style="fill:#ffffff;fill-opacity:1;stroke:none;stroke-width:17.44074059;stroke-linejoin:round;stroke-miterlimit:4;stroke-dasharray:none;stroke-opacity:1" />
    </g>
  </g>
</svg>
