<?xml version="1.0" encoding="UTF-8" standalone="no"?>
<!-- Created with Inkscape (http://www.inkscape.org/) -->

<svg
   xmlns:dc="http://purl.org/dc/elements/1.1/"
   xmlns:cc="http://creativecommons.org/ns#"
   xmlns:rdf="http://www.w3.org/1999/02/22-rdf-syntax-ns#"
   xmlns:svg="http://www.w3.org/2000/svg"
   xmlns="http://www.w3.org/2000/svg"
   xmlns:xlink="http://www.w3.org/1999/xlink"
   xmlns:sodipodi="http://sodipodi.sourceforge.net/DTD/sodipodi-0.dtd"
   xmlns:inkscape="http://www.inkscape.org/namespaces/inkscape"
   sodipodi:docname="cs.svg"
   inkscape:version="0.92.3 (2405546, 2018-03-11)"
   version="1.1"
   id="svg2"
   viewBox="0 0 256 256"
   height="256"
   width="256">
  <sodipodi:namedview
     inkscape:window-maximized="1"
     inkscape:window-y="0"
     inkscape:window-x="0"
     inkscape:window-height="1048"
     inkscape:window-width="1920"
     units="px"
     showgrid="false"
     inkscape:current-layer="layer1"
     inkscape:document-units="px"
     inkscape:cy="128"
     inkscape:cx="128"
     inkscape:zoom="3.3125"
     inkscape:pageshadow="2"
     inkscape:pageopacity="0.0"
     borderopacity="1.0"
     bordercolor="#666666"
     pagecolor="#ffffff"
     id="base" />
  <defs
     id="defs4">
    <clipPath
       id="clipPath5002"
       clipPathUnits="userSpaceOnUse">
      <g
         id="g5004">
        <path
           style="fill:#0f9d58;fill-opacity:1;stroke:none;stroke-width:4.85768509;stroke-linejoin:round;stroke-miterlimit:4;stroke-dasharray:none;stroke-opacity:1"
           d="M 88.118406,249.43519 C 46.103287,235.29134 14.771284,201.68742 4.1335861,159.36053 1.3377997,148.23623 0.92261224,144.16281 0.92582381,127.88908 0.92787958,117.47222 1.134384,112.01362 1.6577819,108.54099 4.4653598,89.913336 12.17654,70.638106 23.042737,55.086148 c 3.958678,-5.665755 8.344812,-10.93092 9.101533,-10.925587 0.32809,0.0023 10.488643,18.309713 22.579009,40.683112 12.090365,22.373397 22.374546,41.334697 22.853732,42.136217 0.479186,0.80151 0.924733,2.44098 0.990103,3.64326 0.343424,6.31639 2.524175,14.20976 5.6424,20.42304 2.954444,5.88693 5.065381,8.73258 10.434696,14.06652 6.71418,6.66995 12.88853,10.28643 21.73204,12.72904 3.16587,0.87442 5.10478,1.05037 11.57517,1.05037 8.82596,0 12.60219,-0.76201 19.26429,-3.88733 2.04584,-0.95974 3.93661,-1.66536 4.20172,-1.56805 0.2651,0.0973 -11.0555,17.66459 -25.1569,39.0384 l -25.6389,38.86148 -3.094121,0.11221 c -2.554618,0.0927 -4.195204,-0.25845 -9.409103,-2.01364 z"
           id="path5006"
           inkscape:connector-curvature="0"
           transform="translate(0,796.36216)" />
        <path
           style="fill:#f4b400;fill-opacity:1;stroke:none;stroke-width:4.85768509;stroke-linejoin:round;stroke-miterlimit:4;stroke-dasharray:none;stroke-opacity:1"
           d="m 112.35984,1051.5167 c -10.0014,-1.4495 -12.15632,-1.8201 -12.531784,-2.1556 -0.248854,-0.2223 1.738304,-3.7475 4.550294,-8.0722 7.16635,-11.0213 49.77231,-74.64801 50.25856,-75.05489 3.57509,-2.99158 8.63523,-8.0414 10.57512,-10.55356 3.36154,-4.35318 7.55784,-12.9141 9.06523,-18.494 6.19314,-22.92535 -2.59253,-47.15185 -21.69967,-59.83688 l -2.96081,-1.96565 17.02469,0.29584 c 9.36358,0.1627 31.17032,0.43384 48.45941,0.60252 l 31.43471,0.30668 1.54584,4.18869 c 2.24597,6.08579 4.67816,15.0947 5.93451,21.9816 1.52517,8.36049 1.92536,28.85896 0.73851,37.82758 -3.0805,23.27845 -12.81326,45.72018 -27.80202,64.10577 -20.47622,25.1166 -51.4599,42.1974 -84.14612,46.3885 -5.31244,0.6812 -26.64601,0.9864 -30.44647,0.4356 z"
           id="path5008"
           inkscape:connector-curvature="0" />
        <path
           style="fill:#db4437;fill-opacity:1;stroke:none;stroke-width:10;stroke-linejoin:round;stroke-miterlimit:4;stroke-dasharray:none;stroke-opacity:1"
           d="M 67.989788,108.87302 C 41.284246,59.575543 33.290284,45.149038 32.233625,44.344765 31.651257,43.901497 32.811213,42.549931 38.695603,36.815353 53.43581,22.450419 68.809334,13.040746 87.839196,6.7360352 101.68742,2.1480329 112.58238,0.43719165 127.95142,0.43719165 c 21.3099,0 37.80488,3.80960275 56.83492,13.12633035 25.29351,12.383198 46.19421,33.578863 58.51993,59.345832 1.61138,3.368591 2.92978,6.372442 2.92978,6.675231 0,0.560033 -10.54865,0.49527 -71.16508,-0.436914 l -24.28843,-0.373518 -3.93063,-1.764495 c -6.75732,-3.033425 -10.64587,-3.839529 -18.6576,-3.867747 -5.0296,-0.01773 -7.97946,0.207636 -10.31642,0.788106 -14.50826,3.603659 -26.283291,12.94777 -33.291614,26.418653 -3.58502,6.89086 -5.24713,13.08166 -6.331628,23.58317 l -0.33738,3.26696 -9.92748,-18.32578 z"
           id="path5010"
           inkscape:connector-curvature="0"
           transform="translate(0,796.36216)" />
      </g>
    </clipPath>
    <radialGradient
       gradientUnits="userSpaceOnUse"
       gradientTransform="matrix(0.7100982,0,0,-0.69667735,-12.931184,1000.262)"
       r="322.22"
       cy="216.92"
       cx="278.95999"
       id="SVGID21">
      <stop
         id="stop131"
         stop-color="#ffffff"
         offset="0.119" />
      <stop
         id="stop133"
         stop-color="#fffffa"
         offset="0.122" />
      <stop
         id="stop135"
         stop-color="#ffe560"
         offset="0.25" />
      <stop
         id="stop137"
         stop-color="#ffdf56"
         offset="0.287" />
      <stop
         id="stop139"
         stop-color="#f8d03b"
         offset="0.347" />
      <stop
         id="stop141"
         stop-color="#f0be1b"
         offset="0.406" />
      <stop
         id="stop143"
         stop-color="#eb9d23"
         offset="0.473" />
      <stop
         id="stop145"
         stop-color="#e57c27"
         offset="0.548" />
      <stop
         id="stop147"
         stop-color="#dd5626"
         offset="0.765" />
      <stop
         id="stop149"
         stop-color="#c33a28"
         offset="0.903" />
      <stop
         id="stop151"
         stop-color="#b02228"
         offset="1" />
    </radialGradient>
    <clipPath
       id="clipPath6128"
       clipPathUnits="userSpaceOnUse">
      <circle
         style="opacity:1;fill:#4285f4;fill-opacity:1;stroke:none;stroke-width:20.51976967;stroke-linecap:round;stroke-linejoin:round;stroke-miterlimit:4;stroke-dasharray:none;stroke-opacity:1"
         id="circle6130"
         cx="128"
         cy="925.362"
         r="128" />
    </clipPath>
    <clipPath
       clipPathUnits="userSpaceOnUse"
       id="clipPath6618">
      <circle
         style="opacity:1;fill:#4285f4;fill-opacity:1;stroke:none;stroke-width:20.51976967;stroke-linecap:round;stroke-linejoin:round;stroke-miterlimit:4;stroke-dasharray:none;stroke-opacity:1"
         id="circle6620"
         cx="128"
         cy="925.362"
         r="128" />
    </clipPath>
    <clipPath
       id="clipPath6303"
       clipPathUnits="userSpaceOnUse">
      <circle
         style="opacity:1;fill:#7f76d5;fill-opacity:1;stroke:none;stroke-width:20.51976967;stroke-linecap:round;stroke-linejoin:round;stroke-miterlimit:4;stroke-dasharray:none;stroke-opacity:1"
         id="circle6305"
         cx="129.64604"
         cy="917.89111"
         r="103.42248" />
    </clipPath>
    <linearGradient
       gradientTransform="matrix(0.99887757,1.7001398e-4,-1.7001398e-4,0.99887757,74.902565,898.57659)"
       gradientUnits="userSpaceOnUse"
       xlink:href="#linearGradient9111"
       id="linearGradient3964"
       y2="72.577919"
       x2="30.154556"
       y1="104.14981"
       x1="70.079597" />
    <linearGradient
       id="linearGradient9111">
      <stop
         offset="0"
         style="stop-color:#729fcf;stop-opacity:1"
         id="stop9113" />
      <stop
         offset="1"
         style="stop-color:#ffffff;stop-opacity:1"
         id="stop9115" />
    </linearGradient>
    <radialGradient
       spreadMethod="pad"
       gradientTransform="matrix(0.7838606,-0.35445714,0.14592105,0.32269526,83.180084,971.76961)"
       gradientUnits="userSpaceOnUse"
       xlink:href="#linearGradient9111"
       id="radialGradient3966"
       fy="65.425926"
       fx="78.836967"
       r="36.617115"
       cy="65.425926"
       cx="78.836967" />
    <linearGradient
       gradientUnits="userSpaceOnUse"
       xlink:href="#linearGradient9111"
       id="linearGradient3968"
       y2="162.24416"
       x2="185.18442"
       y1="178.86754"
       x1="185.18442" />
    <radialGradient
       gradientTransform="matrix(1.765929,0,0,3.004776,-141.8381,-325.2632)"
       gradientUnits="userSpaceOnUse"
       xlink:href="#linearGradient9111"
       id="radialGradient3970"
       fy="162.24416"
       fx="185.18442"
       r="8.3116884"
       cy="162.24416"
       cx="185.18442" />
    <radialGradient
       gradientTransform="matrix(1.765929,0,0,3.004776,-141.8381,-325.2632)"
       gradientUnits="userSpaceOnUse"
       xlink:href="#linearGradient9111"
       id="radialGradient3974"
       fy="162.24416"
       fx="185.18442"
       r="8.3116884"
       cy="162.24416"
       cx="185.18442" />
    <radialGradient
       gradientTransform="matrix(5.2209775,-0.4611487,0.56362604,6.3811936,-164.31628,460.89795)"
       gradientUnits="userSpaceOnUse"
       xlink:href="#linearGradient2762"
       id="radialGradient3976"
       fy="72.531746"
       fx="46.132965"
       r="0.28773159"
       cy="72.531746"
       cx="46.132965" />
    <linearGradient
       id="linearGradient2762">
      <stop
         offset="0"
         style="stop-color:#000000;stop-opacity:0.70588237"
         id="stop2764" />
      <stop
         offset="0.40000001"
         style="stop-color:#000000;stop-opacity:0.35294119"
         id="stop4540" />
      <stop
         offset="1"
         style="stop-color:#000000;stop-opacity:0"
         id="stop2766" />
    </linearGradient>
    <radialGradient
       gradientTransform="matrix(5.1716587,0.85158045,-1.0408204,6.3209147,-39.205782,405.03164)"
       gradientUnits="userSpaceOnUse"
       xlink:href="#linearGradient2762"
       id="radialGradient3978"
       fy="72.531746"
       fx="46.132965"
       r="0.28773159"
       cy="72.531746"
       cx="46.132965" />
    <radialGradient
       gradientTransform="matrix(4.9764756,0.24657052,-0.89794109,18.123022,-49.764913,-422.14819)"
       gradientUnits="userSpaceOnUse"
       xlink:href="#linearGradient12684"
       id="radialGradient3980"
       fy="72.108414"
       fx="47.304798"
       r="0.50028783"
       cy="72.108414"
       cx="47.304798" />
    <linearGradient
       id="linearGradient12684">
      <stop
         offset="0"
         style="stop-color:#ffffff;stop-opacity:1"
         id="stop12686" />
      <stop
         offset="0.34999999"
         style="stop-color:#ffffff;stop-opacity:0.84536082"
         id="stop12692" />
      <stop
         offset="1"
         style="stop-color:#ffffff;stop-opacity:0"
         id="stop12688" />
    </linearGradient>
    <radialGradient
       gradientTransform="matrix(3.2928969,-0.3347118,0.16776525,1.650469,-101.99239,818.31458)"
       gradientUnits="userSpaceOnUse"
       xlink:href="#linearGradient9111"
       id="radialGradient3982"
       fy="141.29233"
       fx="67.904976"
       r="21.288834"
       cy="141.29233"
       cx="67.904976" />
    <linearGradient
       gradientTransform="matrix(0.99887757,1.7001398e-4,-1.7001398e-4,0.99887757,74.902565,898.57659)"
       gradientUnits="userSpaceOnUse"
       xlink:href="#linearGradient9111"
       id="linearGradient3984"
       y2="62.983276"
       x2="82.408028"
       y1="104.45485"
       x1="32.877586" />
    <clipPath
       clipPathUnits="userSpaceOnUse"
       id="clipPath8646">
      <circle
         style="opacity:1;fill:#7f76d5;fill-opacity:1;stroke:none;stroke-width:20.51976967;stroke-linecap:round;stroke-linejoin:round;stroke-miterlimit:4;stroke-dasharray:none;stroke-opacity:1"
         id="circle8648"
         cx="130.47743"
         cy="919.25348"
         r="115.93736" />
    </clipPath>
    <clipPath
       id="clipPath4448"
       clipPathUnits="userSpaceOnUse">
      <circle
         style="opacity:1;fill:#8dc458;fill-opacity:1;stroke:none;stroke-width:20.51976967;stroke-linecap:round;stroke-linejoin:round;stroke-miterlimit:4;stroke-dasharray:none;stroke-opacity:1"
         id="circle4450"
         cx="128"
         cy="128.00002"
         r="128" />
    </clipPath>
    <clipPath
       id="clipPath4227"
       clipPathUnits="userSpaceOnUse">
      <circle
         style="fill:#ffffff;fill-opacity:1;stroke:none"
         id="circle4229"
         cx="98.75238"
         cy="924.36218"
         r="50" />
    </clipPath>
    <clipPath
       id="clipPath4233"
       clipPathUnits="userSpaceOnUse">
      <circle
         style="fill:#ffffff;fill-opacity:1;stroke:none"
         id="circle4235"
         cx="98.75238"
         cy="924.36218"
         r="50" />
    </clipPath>
    <clipPath
       id="clipPath4239"
       clipPathUnits="userSpaceOnUse">
      <circle
         style="fill:#ffffff;fill-opacity:1;stroke:none"
         id="circle4241"
         cx="98.75238"
         cy="924.36218"
         r="50" />
    </clipPath>
    <clipPath
       clipPathUnits="userSpaceOnUse"
       id="clipPath3553">
      <circle
         style="opacity:1;fill:#31afe1;fill-opacity:1;stroke:none;stroke-width:20.51976967;stroke-linecap:round;stroke-linejoin:round;stroke-miterlimit:4;stroke-dasharray:none;stroke-opacity:1"
         id="circle3555"
         cx="128"
         cy="924.36218"
         r="128" />
    </clipPath>
    <clipPath
       id="clipPath5136"
       clipPathUnits="userSpaceOnUse">
      <circle
         style="opacity:1;fill:#575757;fill-opacity:1;stroke:none;stroke-width:20.51976967;stroke-linecap:round;stroke-linejoin:round;stroke-miterlimit:4;stroke-dasharray:none;stroke-opacity:1"
         id="circle5138"
         cx="131.80096"
         cy="917.36902"
         r="128" />
    </clipPath>
    <clipPath
       clipPathUnits="userSpaceOnUse"
       id="clipPath5135">
      <circle
         style="opacity:1;fill:#575757;fill-opacity:1;stroke:none;stroke-width:20.51976967;stroke-linecap:round;stroke-linejoin:round;stroke-miterlimit:4;stroke-dasharray:none;stroke-opacity:1"
         id="circle5137"
         cx="128"
         cy="924.36218"
         r="128" />
    </clipPath>
  </defs>
  <metadata
     id="metadata7">
    <rdf:RDF>
      <cc:Work
         rdf:about="">
        <dc:format>image/svg+xml</dc:format>
        <dc:type
           rdf:resource="http://purl.org/dc/dcmitype/StillImage" />
        <dc:title />
      </cc:Work>
    </rdf:RDF>
  </metadata>
  <g
     inkscape:label="Layer 1"
     inkscape:groupmode="layer"
     id="layer1"
     transform="translate(0,-796.36216)">
    <path
       d="m 256,-924.36218 a 128,128 0 0 1 -64,110.85125 128,128 0 0 1 -128.000003,0 A 128,128 0 0 1 0,-924.36219 l 128,1e-5 z"
       sodipodi:end="3.1415927"
       sodipodi:start="0"
       sodipodi:ry="128"
       sodipodi:rx="128"
       sodipodi:cy="-924.36218"
       sodipodi:cx="128"
       sodipodi:type="arc"
       style="opacity:1;fill:#b25009;fill-opacity:1;stroke:none;stroke-width:20.51976967;stroke-linecap:round;stroke-linejoin:round;stroke-miterlimit:4;stroke-dasharray:none;stroke-opacity:1"
       id="path1009"
       transform="scale(1,-1)" />
    <path
       id="path4152"
       style="opacity:1;fill:#dd992a;fill-opacity:1;stroke:none;stroke-width:20.51976967;stroke-linecap:round;stroke-linejoin:round;stroke-miterlimit:4;stroke-dasharray:none;stroke-opacity:1"
       sodipodi:type="arc"
       sodipodi:cx="128"
       sodipodi:cy="924.36218"
       sodipodi:rx="128"
       sodipodi:ry="128"
       sodipodi:start="0"
       sodipodi:end="3.1415927"
       d="m 256,924.36218 a 128,128 0 0 1 -64,110.85122 128,128 0 0 1 -128.000003,0 A 128,128 0 0 1 0,924.36218 l 128,0 z" />
    <path
       inkscape:connector-curvature="0"
       id="path3779"
       d="m 116.68833,839.36636 c -0.66055,-0.0158 -1.40848,0.0141 -2.32754,0.0726 -4.75225,0.3026 -7.69088,2.08635 -10.26638,6.22883 -1.2843,2.06571 -1.52718,3.31824 -1.51901,7.83699 0.005,2.95806 -0.0877,5.3783 -0.20627,5.3783 -0.11856,0 -0.74845,-0.28507 -1.4006,-0.63409 -2.169988,-1.16135 -7.834999,0.83629 -10.514668,3.70903 -3.765642,4.03697 -5.377202,9.03775 -5.522175,17.13442 l -0.122234,6.8451 -2.992191,0.35269 c -1.645661,0.19409 -3.104483,0.48745 -3.241743,0.65192 -0.51118,0.61253 -1.860024,16.88629 -1.454077,17.54313 0.232245,0.37578 1.184112,0.68375 2.114903,0.68375 1.634096,0 1.652304,0.0434 0.546233,1.26562 -1.351706,1.49362 -1.398533,2.20544 -0.715581,10.94632 0.450773,5.7694 0.384115,6.7239 -0.499119,7.06283 -1.287225,0.49396 -2.130862,4.07762 -1.182873,5.0256 0.426672,0.42668 0.471647,0.98157 0.113322,1.41334 -0.353846,0.42635 -0.318206,1.9838 0.08913,3.89365 0.493584,2.31426 0.459072,4.53731 -0.124783,8.13876 -0.441757,2.72497 -0.798537,6.86114 -0.793243,9.19172 0.009,3.9443 -0.2154,4.6065 -3.244293,9.5737 -3.416145,5.6024 -5.00831,9.3149 -5.05616,11.7893 -0.01571,0.8138 -0.757153,2.6328 -1.646339,4.0413 -1.924231,3.0482 -2.786929,7.4419 -1.715097,8.7334 0.568718,0.6853 0.273198,2.8822 -1.250353,9.29356 -2.358327,9.92417 -2.228746,13.04827 0.558965,13.47497 2.967549,0.4543 6.196809,0.4656 8.828862,0.031 l 2.524892,-0.4164 -0.519491,-3.3245 c -1.191146,-7.62377 0.310227,-15.78543 3.132248,-17.02363 0.975441,-0.4279 1.935262,-1.9511 2.86868,-4.5544 0.771345,-2.1514 2.018132,-5.4555 2.770637,-7.3417 0.752506,-1.8863 1.367489,-4.5561 1.367489,-5.9335 0,-1.6423 0.560158,-3.266 1.625967,-4.7187 0.893853,-1.2184 2.242228,-3.1689 2.997282,-4.3342 0.755055,-1.1653 1.626058,-2.1188 1.935372,-2.1188 0.461387,0 1.383611,-2.5745 2.218043,-6.1932 0.08268,-0.3585 0.496048,-1.532 0.919297,-2.6076 0.423249,-1.07566 1.10257,-2.83583 1.50882,-3.91149 0.40626,-1.07566 1.4248,-2.88981 2.26388,-4.03118 0.83908,-1.14137 1.525378,-2.38816 1.525378,-2.77064 0,-1.05763 0.38053,-0.866 2.50707,1.26054 1.07566,1.07566 2.49248,1.96525 3.14753,1.97739 0.76925,0.0143 2.69102,2.26504 5.42795,6.35617 3.86996,5.78481 4.43516,6.35351 6.5166,6.55101 1.2535,0.1189 2.64696,0.5206 3.0966,0.8938 1.15689,0.9601 1.04105,6.0415 -0.16044,7.0386 -1.33099,1.1046 -1.25514,6.6982 0.1859,13.6903 0.62812,3.0477 1.33233,5.84 1.56485,6.2059 0.94332,1.4843 0.65482,10.59066 -0.48257,15.22956 -1.15585,4.71407 -1.15393,4.83027 0.0802,5.75517 0.83011,0.6222 2.14836,0.8288 3.86693,0.6073 1.43421,-0.1847 4.36783,0.081 6.51915,0.5908 4.56938,1.0825 11.24194,1.2267 13.69148,0.2954 1.36881,-0.5204 1.67339,-1.0145 1.50882,-2.4447 -0.16597,-1.4424 -0.90648,-2.1414 -3.7918,-3.5779 -4.31191,-2.14667 -8.28883,-6.33697 -8.84923,-9.32403 -0.2249,-1.1989 -0.2087,-3.7361 0.0357,-5.6393 0.24435,-1.9032 0.53017,-5.8077 0.63537,-8.6761 0.10519,-2.8684 0.54238,-8.938 0.97023,-13.4878 0.55502,-5.9022 0.57811,-8.6445 0.0815,-9.5724 -0.38283,-0.7154 -0.69648,-1.8761 -0.69648,-2.5784 0,-0.70231 -0.40214,-1.43091 -0.89384,-1.6196 -0.49169,-0.18867 -1.10037,-1.16371 -1.35221,-2.16711 -0.48079,-1.91562 -2.41613,-6.35071 -5.68133,-13.01665 -1.07184,-2.18818 -3.28557,-5.50538 -4.91865,-7.37223 -2.34406,-2.67962 -3.04013,-4.02569 -3.30668,-6.39056 l -0.33742,-2.99473 1.97866,0.39599 c 3.7737,0.75475 5.04849,-2.08979 5.71444,-12.74799 l 0.47748,-7.63962 -2.03596,-1.90227 c -1.30575,-1.21976 -1.89442,-2.27614 -1.6387,-2.94253 0.21936,-0.57164 0.52086,-1.03899 0.66974,-1.03899 0.14887,0 2.53871,1.137 5.30954,2.52744 2.77083,1.39044 6.51509,2.72948 8.32082,2.97563 3.16682,0.43169 3.40394,0.35046 6.68977,-2.32244 3.34982,-2.72496 3.62084,-3.22772 4.96831,-9.21084 0.28261,-1.25488 0.81133,-1.79277 1.76475,-1.79277 1.12746,0 1.29236,-0.28036 0.95368,-1.62978 -0.22504,-0.89663 -0.583,-2.89284 -0.79452,-4.43608 -0.35965,-2.62391 -0.20889,-2.98842 2.31607,-5.6164 l 2.70061,-2.81011 7.07302,0.10441 c 5.6362,0.0837 7.27992,-0.10123 8.08909,-0.91039 0.83556,-0.83556 2.77179,-1.00579 10.92849,-0.96132 10.10062,0.0551 11.40313,-0.2498 10.5516,-2.46887 -0.29059,-0.75723 -1.77135,-0.83808 -8.41378,-0.45965 -7.80398,0.44459 -8.06235,0.41706 -8.06235,-0.85691 0,-0.75358 -0.54,-1.45725 -1.26309,-1.64634 -0.96084,-0.25126 -1.31162,-1.01035 -1.46681,-3.173 -0.25568,-3.5631 -1.44255,-3.72655 -1.69981,-0.23427 l -0.19226,2.60765 -18.22433,-0.18335 c -11.20804,-0.11243 -18.22433,-0.42617 -18.22433,-0.81489 0,-0.34764 -0.44005,-0.63154 -0.97788,-0.63154 -0.60844,0 -0.97786,-0.6157 -0.97786,-1.62979 0,-1.01409 -0.36943,-1.62979 -0.97788,-1.62979 -0.60346,0 -0.97787,0.61233 -0.97787,1.59923 0,1.17605 -0.56062,1.84876 -2.11872,2.54272 -3.84839,1.71402 -4.85003,1.70763 -5.64314,-0.0331 -0.79178,-1.73773 -0.46691,-2.80501 0.85437,-2.80501 0.4611,0 1.35914,-0.57551 1.99522,-1.27837 0.93907,-1.03766 1.09385,-2.04882 0.82253,-5.37829 -0.31512,-3.86696 -0.85786,-7.01627 -1.26818,-7.36588 -0.10089,-0.0859 -2.02411,-1.10732 -4.27437,-2.26897 -2.7233,-1.40584 -3.92505,-1.87376 -5.9067,-1.92136 z"
       style="fill:#ffffff;fill-rule:evenodd;stroke:none;stroke-width:0.65191478px;stroke-linecap:butt;stroke-linejoin:miter;stroke-opacity:1;fill-opacity:1" />
  </g>
</svg>
