<?xml version="1.0" encoding="UTF-8" standalone="no"?>
<svg
   xmlns:dc="http://purl.org/dc/elements/1.1/"
   xmlns:cc="http://creativecommons.org/ns#"
   xmlns:rdf="http://www.w3.org/1999/02/22-rdf-syntax-ns#"
   xmlns:svg="http://www.w3.org/2000/svg"
   xmlns="http://www.w3.org/2000/svg"
   xmlns:sodipodi="http://sodipodi.sourceforge.net/DTD/sodipodi-0.dtd"
   xmlns:inkscape="http://www.inkscape.org/namespaces/inkscape"
   sodipodi:docname="openjdk-6.svg"
   inkscape:version="1.0 (4035a4fb49, 2020-05-01)"
   version="1.1"
   id="svg4149"
   viewBox="0 0 256 256"
   height="256"
   width="256">
  <sodipodi:namedview
     inkscape:document-rotation="0"
     inkscape:window-maximized="1"
     inkscape:window-y="0"
     inkscape:window-x="0"
     inkscape:window-height="1048"
     inkscape:window-width="1920"
     units="px"
     showgrid="false"
     inkscape:current-layer="layer1"
     inkscape:document-units="px"
     inkscape:cy="128.00002"
     inkscape:cx="127.99999"
     inkscape:zoom="3.34375"
     inkscape:pageshadow="2"
     inkscape:pageopacity="0.0"
     borderopacity="1.0"
     bordercolor="#666666"
     pagecolor="#ffffff"
     id="base" />
  <defs
     id="defs4151">
    <clipPath
       id="clipPath4863"
       clipPathUnits="userSpaceOnUse">
      <circle
         r="77.263145"
         cy="924.36218"
         cx="128"
         id="circle4865"
         style="fill:#e9e9e9;fill-opacity:1;stroke:none;stroke-width:20;stroke-miterlimit:4;stroke-dasharray:none;stroke-opacity:1" />
    </clipPath>
    <clipPath
       clipPathUnits="userSpaceOnUse"
       id="clipPath4227">
      <circle
         r="77.263145"
         cy="924.36218"
         cx="128"
         id="circle4229"
         style="fill:#e9e9e9;fill-opacity:1;stroke:none;stroke-width:20;stroke-miterlimit:4;stroke-dasharray:none;stroke-opacity:1" />
    </clipPath>
    <clipPath
       id="clipPath5543"
       clipPathUnits="userSpaceOnUse">
      <circle
         r="128"
         cy="924.36218"
         cx="128"
         id="circle5545"
         style="fill:#9e9fe9;fill-opacity:1;stroke:none;stroke-width:20;stroke-miterlimit:4;stroke-dasharray:none;stroke-opacity:1" />
    </clipPath>
    <clipPath
       id="clipPath5522"
       clipPathUnits="userSpaceOnUse">
      <path
         inkscape:connector-curvature="0"
         id="path5524"
         d="m 153.38672,796.84847 -105.781251,0 c -7.804357,0 -14.087891,6.28158 -14.087891,14.08594 l 0,227.33989 c 0,7.8043 6.283534,14.0878 14.087891,14.0878 l 165.162111,0 c 7.80436,0 14.08594,-6.2835 14.08594,-14.0878 l 0,-154.82232 -73.4668,-86.60351 z"
         style="fill:#db4437;fill-opacity:1" />
    </clipPath>
    <clipPath
       id="clipPath7273"
       clipPathUnits="userSpaceOnUse">
      <circle
         r="87.222778"
         cy="965.23419"
         cx="125.3036"
         id="circle7275"
         style="fill:#9e9fe9;fill-opacity:1;stroke:none;stroke-width:20;stroke-miterlimit:4;stroke-dasharray:none;stroke-opacity:1" />
    </clipPath>
  </defs>
  <metadata
     id="metadata4154">
    <rdf:RDF>
      <cc:Work
         rdf:about="">
        <dc:format>image/svg+xml</dc:format>
        <dc:type
           rdf:resource="http://purl.org/dc/dcmitype/StillImage" />
        <dc:title />
      </cc:Work>
    </rdf:RDF>
  </metadata>
  <g
     inkscape:label="Layer 1"
     inkscape:groupmode="layer"
     id="layer1"
     transform="translate(0,-796.36216)">
    <path
       transform="scale(1,-1)"
       id="path919"
       style="fill:#9f271d;fill-opacity:1;stroke:none;stroke-width:20;stroke-miterlimit:4;stroke-dasharray:none;stroke-opacity:1"
       sodipodi:type="arc"
       sodipodi:cx="128"
       sodipodi:cy="-924.36218"
       sodipodi:rx="128"
       sodipodi:ry="128"
       sodipodi:start="0"
       sodipodi:end="3.1415927"
       sodipodi:open="true"
       sodipodi:arc-type="arc"
       d="m 256,-924.36218 a 128,128 0 0 1 -64,110.85125 128,128 0 0 1 -128.000003,0 A 128,128 0 0 1 0,-924.36218" />
    <path
       d="m 256,924.36218 a 128,128 0 0 1 -64,110.85122 128,128 0 0 1 -128.000003,0 A 128,128 0 0 1 0,924.36218"
       sodipodi:arc-type="arc"
       sodipodi:open="true"
       sodipodi:end="3.1415927"
       sodipodi:start="0"
       sodipodi:ry="128"
       sodipodi:rx="128"
       sodipodi:cy="924.36218"
       sodipodi:cx="128"
       sodipodi:type="arc"
       style="fill:#db4437;fill-opacity:1;stroke:none;stroke-width:20;stroke-miterlimit:4;stroke-dasharray:none;stroke-opacity:1"
       id="path4723" />
    <g
       id="g4231"
       transform="matrix(1.4675066,0,0,1.4675066,-55.894946,695.06052)">
      <path
         inkscape:connector-curvature="0"
         id="path4233"
         d="m 110.70313,175.48437 c 0,0 -5.04688,2.79688 3.57812,3.73438 10.46875,1.14062 15.79687,0.98437 27.3125,-1.09375 0,0 3,1.78125 7.23437,3.32812 -25.79687,10.5 -58.374995,-0.60937 -38.12499,-5.96875"
         style="fill:#ffffff;fill-opacity:1;fill-rule:evenodd;stroke:none" />
      <path
         inkscape:connector-curvature="0"
         id="path4235"
         d="m 107.53125,161.8125 c 0,0 -5.65625,3.98437 2.96875,4.79687 11.1875,1.09375 19.98437,1.1875 35.23437,-1.59375 0,0 2.125,2.04688 5.42188,3.14063 -31.17187,8.67187 -65.953125,0.6875 -43.625,-6.34375"
         style="fill:#ffffff;fill-opacity:1;fill-rule:evenodd;stroke:none" />
      <path
         inkscape:connector-curvature="0"
         id="path4237"
         d="m 134.14062,138.625 c 6.34375,6.90625 -1.70312,13.17187 -1.70312,13.17187 0,0 16.15625,-7.9375 8.75,-17.8125 -6.92188,-9.23437 -12.25,-13.79687 16.51562,-29.62499 0,0 -45.12499,10.70312 -23.5625,34.26562"
         style="fill:#ffffff;fill-opacity:1;fill-rule:evenodd;stroke:none" />
      <path
         inkscape:connector-curvature="0"
         id="path4239"
         d="m 168.23437,185.60937 c 0,0 3.75,2.9375 -4.10937,5.17188 -14.89063,4.26562 -61.96875,5.5625 -75.0625,0.15625 -4.671875,-1.90625 4.109375,-4.64063 6.921875,-5.17188 C 98.875,185.15625 100.5,185.28125 100.5,185.28125 c -5.21875,-3.5 -33.8125,6.84375 -14.484375,9.8125 52.609375,8.09375 95.890625,-3.625 82.218745,-9.48438"
         style="fill:#ffffff;fill-opacity:1;fill-rule:evenodd;stroke:none" />
      <path
         inkscape:connector-curvature="0"
         id="path4241"
         d="m 113.10938,147.65625 c 0,0 -23.968755,5.35937 -8.46875,7.3125 6.51562,0.85937 19.53125,0.65625 31.70312,-0.32813 9.875,-0.76562 19.84375,-2.4375 19.84375,-2.4375 0,0 -3.5,1.39063 -6.01563,3.0625 -24.32812,6.0625 -71.32812,3.20313 -57.812495,-2.98437 11.468755,-5.23438 20.750005,-4.625 20.750005,-4.625"
         style="fill:#ffffff;fill-opacity:1;fill-rule:evenodd;stroke:none" />
      <path
         inkscape:connector-curvature="0"
         id="path4243"
         d="m 156.07812,170.39062 c 24.73438,-12.15625 13.29688,-23.875 5.32813,-22.29687 -1.95313,0.375 -2.8125,0.73437 -2.8125,0.73437 0,0 0.6875,-1.09375 2.10937,-1.54687 15.79688,-5.28125 27.92188,15.5 -5.125,23.76562 0,0 0.40625,-0.32812 0.5,-0.65625"
         style="fill:#ffffff;fill-opacity:1;fill-rule:evenodd;stroke:none" />
      <path
         inkscape:connector-curvature="0"
         id="path4245"
         d="m 141.1875,78.84375 c 0,0 13.70312,12.984375 -12.98438,32.96875 -21.40624,16.01563 -4.89062,25.14062 0,35.59375 -12.48437,-10.70313 -21.68749,-20.09375 -15.54687,-28.84375 9.03125,-12.85937 34.0625,-19.078125 28.53125,-39.71875"
         style="fill:#ffffff;fill-opacity:1;fill-rule:evenodd;stroke:none" />
      <path
         inkscape:connector-curvature="0"
         id="path4247"
         d="m 115.54688,203.4375 c 23.71874,1.42187 60.17187,-0.82813 61.07812,-11.4375 0,0 -1.67188,4.03125 -19.65625,7.23437 -20.26563,3.57813 -45.25,3.17188 -60.046875,0.85938 0,0 3.046875,2.40625 18.625005,3.34375"
         style="fill:#ffffff;fill-opacity:1;fill-rule:evenodd;stroke:none" />
    </g>
  </g>
</svg>
