<?xml version="1.0" encoding="UTF-8" standalone="no"?>
<svg
   xmlns:dc="http://purl.org/dc/elements/1.1/"
   xmlns:cc="http://creativecommons.org/ns#"
   xmlns:rdf="http://www.w3.org/1999/02/22-rdf-syntax-ns#"
   xmlns:svg="http://www.w3.org/2000/svg"
   xmlns="http://www.w3.org/2000/svg"
   xmlns:xlink="http://www.w3.org/1999/xlink"
   xmlns:sodipodi="http://sodipodi.sourceforge.net/DTD/sodipodi-0.dtd"
   xmlns:inkscape="http://www.inkscape.org/namespaces/inkscape"
   sodipodi:docname="tigervnc.svg"
   inkscape:version="1.0.1 (3bc2e813f5, 2020-09-07)"
   version="1.1"
   id="svg2"
   viewBox="0 0 256 256"
   height="256"
   width="256">
  <sodipodi:namedview
     inkscape:window-maximized="1"
     inkscape:window-y="0"
     inkscape:window-x="0"
     inkscape:window-height="1048"
     inkscape:window-width="1920"
     units="px"
     showgrid="true"
     inkscape:current-layer="layer1"
     inkscape:document-units="px"
     inkscape:cy="128"
     inkscape:cx="128"
     inkscape:zoom="3.3359375"
     inkscape:pageshadow="2"
     inkscape:pageopacity="0.0"
     borderopacity="1.0"
     bordercolor="#666666"
     pagecolor="#ffffff"
     id="base"
     inkscape:document-rotation="0">
    <inkscape:grid
       spacingy="5"
       spacingx="5"
       id="grid4168"
       type="xygrid" />
  </sodipodi:namedview>
  <defs
     id="defs4">
    <clipPath
       id="clipPath5002"
       clipPathUnits="userSpaceOnUse">
      <g
         id="g5004">
        <path
           style="fill:#0f9d58;fill-opacity:1;stroke:none;stroke-width:4.85768509;stroke-linejoin:round;stroke-miterlimit:4;stroke-dasharray:none;stroke-opacity:1"
           d="M 88.118406,249.43519 C 46.103287,235.29134 14.771284,201.68742 4.1335861,159.36053 1.3377997,148.23623 0.92261224,144.16281 0.92582381,127.88908 0.92787958,117.47222 1.134384,112.01362 1.6577819,108.54099 4.4653598,89.913336 12.17654,70.638106 23.042737,55.086148 c 3.958678,-5.665755 8.344812,-10.93092 9.101533,-10.925587 0.32809,0.0023 10.488643,18.309713 22.579009,40.683112 12.090365,22.373397 22.374546,41.334697 22.853732,42.136217 0.479186,0.80151 0.924733,2.44098 0.990103,3.64326 0.343424,6.31639 2.524175,14.20976 5.6424,20.42304 2.954444,5.88693 5.065381,8.73258 10.434696,14.06652 6.71418,6.66995 12.88853,10.28643 21.73204,12.72904 3.16587,0.87442 5.10478,1.05037 11.57517,1.05037 8.82596,0 12.60219,-0.76201 19.26429,-3.88733 2.04584,-0.95974 3.93661,-1.66536 4.20172,-1.56805 0.2651,0.0973 -11.0555,17.66459 -25.1569,39.0384 l -25.6389,38.86148 -3.094121,0.11221 c -2.554618,0.0927 -4.195204,-0.25845 -9.409103,-2.01364 z"
           id="path5006"
           inkscape:connector-curvature="0"
           transform="translate(0,796.36216)" />
        <path
           style="fill:#f4b400;fill-opacity:1;stroke:none;stroke-width:4.85768509;stroke-linejoin:round;stroke-miterlimit:4;stroke-dasharray:none;stroke-opacity:1"
           d="m 112.35984,1051.5167 c -10.0014,-1.4495 -12.15632,-1.8201 -12.531784,-2.1556 -0.248854,-0.2223 1.738304,-3.7475 4.550294,-8.0722 7.16635,-11.0213 49.77231,-74.64801 50.25856,-75.05489 3.57509,-2.99158 8.63523,-8.0414 10.57512,-10.55356 3.36154,-4.35318 7.55784,-12.9141 9.06523,-18.494 6.19314,-22.92535 -2.59253,-47.15185 -21.69967,-59.83688 l -2.96081,-1.96565 17.02469,0.29584 c 9.36358,0.1627 31.17032,0.43384 48.45941,0.60252 l 31.43471,0.30668 1.54584,4.18869 c 2.24597,6.08579 4.67816,15.0947 5.93451,21.9816 1.52517,8.36049 1.92536,28.85896 0.73851,37.82758 -3.0805,23.27845 -12.81326,45.72018 -27.80202,64.10577 -20.47622,25.1166 -51.4599,42.1974 -84.14612,46.3885 -5.31244,0.6812 -26.64601,0.9864 -30.44647,0.4356 z"
           id="path5008"
           inkscape:connector-curvature="0" />
        <path
           style="fill:#db4437;fill-opacity:1;stroke:none;stroke-width:10;stroke-linejoin:round;stroke-miterlimit:4;stroke-dasharray:none;stroke-opacity:1"
           d="M 67.989788,108.87302 C 41.284246,59.575543 33.290284,45.149038 32.233625,44.344765 31.651257,43.901497 32.811213,42.549931 38.695603,36.815353 53.43581,22.450419 68.809334,13.040746 87.839196,6.7360352 101.68742,2.1480329 112.58238,0.43719165 127.95142,0.43719165 c 21.3099,0 37.80488,3.80960275 56.83492,13.12633035 25.29351,12.383198 46.19421,33.578863 58.51993,59.345832 1.61138,3.368591 2.92978,6.372442 2.92978,6.675231 0,0.560033 -10.54865,0.49527 -71.16508,-0.436914 l -24.28843,-0.373518 -3.93063,-1.764495 c -6.75732,-3.033425 -10.64587,-3.839529 -18.6576,-3.867747 -5.0296,-0.01773 -7.97946,0.207636 -10.31642,0.788106 -14.50826,3.603659 -26.283291,12.94777 -33.291614,26.418653 -3.58502,6.89086 -5.24713,13.08166 -6.331628,23.58317 l -0.33738,3.26696 -9.92748,-18.32578 z"
           id="path5010"
           inkscape:connector-curvature="0"
           transform="translate(0,796.36216)" />
      </g>
    </clipPath>
    <clipPath
       clipPathUnits="userSpaceOnUse"
       id="clipPath4271">
      <circle
         style="fill:#292929;fill-opacity:0.26020412;stroke:none;stroke-width:10;stroke-linejoin:round;stroke-miterlimit:4;stroke-dasharray:none;stroke-opacity:0.25882353"
         id="circle4273"
         cx="128"
         cy="128.00002"
         r="128" />
    </clipPath>
    <clipPath
       id="clipPath4363"
       clipPathUnits="userSpaceOnUse">
      <circle
         style="fill:#4285f4;fill-opacity:1;stroke:none;stroke-width:10;stroke-linejoin:round;stroke-miterlimit:4;stroke-dasharray:none;stroke-opacity:0.25882353"
         id="circle4365"
         cx="128"
         cy="924.36218"
         r="128" />
    </clipPath>
    <clipPath
       clipPathUnits="userSpaceOnUse"
       id="clipPath4452">
      <circle
         style="fill:#4285f4;fill-opacity:1;stroke:none;stroke-width:10;stroke-linejoin:round;stroke-miterlimit:4;stroke-dasharray:none;stroke-opacity:0.25882353"
         id="circle4454"
         cx="128"
         cy="924.36218"
         r="128" />
    </clipPath>
    <clipPath
       id="clipPath5177"
       clipPathUnits="userSpaceOnUse">
      <circle
         style="fill:#4285f4;fill-opacity:1;stroke:none;stroke-width:10;stroke-linejoin:round;stroke-miterlimit:4;stroke-dasharray:none;stroke-opacity:0.25882353"
         id="circle5179"
         cx="128"
         cy="924.36218"
         r="128" />
    </clipPath>
    <clipPath
       clipPathUnits="userSpaceOnUse"
       id="clipPath4342">
      <circle
         style="fill:#4285f4;fill-opacity:1;stroke:none;stroke-width:10;stroke-linejoin:round;stroke-miterlimit:4;stroke-dasharray:none;stroke-opacity:0.25882353"
         id="circle4344"
         cx="128"
         cy="933.48718"
         r="128" />
    </clipPath>
    <clipPath
       id="clipPath4681"
       clipPathUnits="userSpaceOnUse">
      <circle
         style="fill:#9d5fad;fill-opacity:1;stroke:none;stroke-width:10;stroke-linejoin:round;stroke-miterlimit:4;stroke-dasharray:none;stroke-opacity:0.25882353"
         id="circle4683"
         cx="127.00293"
         cy="930.43964"
         r="128" />
    </clipPath>
    <clipPath
       clipPathUnits="userSpaceOnUse"
       id="clipPath4235">
      <circle
         style="fill:#0f9d58;fill-opacity:1;stroke:none;stroke-width:10;stroke-linejoin:round;stroke-miterlimit:4;stroke-dasharray:none;stroke-opacity:0.25882353"
         id="circle4237"
         cx="128"
         cy="924.36218"
         r="128" />
    </clipPath>
    <clipPath
       id="clipPath4771"
       clipPathUnits="userSpaceOnUse">
      <circle
         style="fill:#0f9d58;fill-opacity:1;stroke:none;stroke-width:10;stroke-linejoin:round;stroke-miterlimit:4;stroke-dasharray:none;stroke-opacity:0.25882353"
         id="circle4773"
         cx="128"
         cy="924.36218"
         r="128" />
    </clipPath>
    <clipPath
       clipPathUnits="userSpaceOnUse"
       id="clipPath4842">
      <circle
         style="fill:#0f9d58;fill-opacity:1;stroke:none;stroke-width:10;stroke-linejoin:round;stroke-miterlimit:4;stroke-dasharray:none;stroke-opacity:0.25882353"
         id="circle4844"
         cx="128"
         cy="924.36218"
         r="128" />
    </clipPath>
    <clipPath
       id="clipPath4458"
       clipPathUnits="userSpaceOnUse">
      <circle
         style="fill:#ff3b38;fill-opacity:1;stroke:none;stroke-width:10;stroke-linejoin:round;stroke-miterlimit:4;stroke-dasharray:none;stroke-opacity:0.25882353"
         id="circle4460"
         cx="128"
         cy="924.36218"
         r="128" />
    </clipPath>
    <clipPath
       clipPathUnits="userSpaceOnUse"
       id="clipPath4783">
      <circle
         style="fill:#ff3b38;fill-opacity:1;stroke:none;stroke-width:10;stroke-linejoin:round;stroke-miterlimit:4;stroke-dasharray:none;stroke-opacity:0.25882353"
         id="circle4785"
         cx="128"
         cy="924.36218"
         r="128" />
    </clipPath>
    <clipPath
       id="clipPath4789"
       clipPathUnits="userSpaceOnUse">
      <circle
         style="fill:#80b4ff;fill-opacity:1;stroke:none;stroke-width:10;stroke-linejoin:round;stroke-miterlimit:4;stroke-dasharray:none;stroke-opacity:0.25882353"
         id="circle4791"
         cx="102.64714"
         cy="924.36218"
         r="128" />
    </clipPath>
    <clipPath
       clipPathUnits="userSpaceOnUse"
       id="clipPath4721">
      <circle
         style="fill:#557ae6;fill-opacity:1;stroke:none;stroke-width:10;stroke-linejoin:round;stroke-miterlimit:4;stroke-dasharray:none;stroke-opacity:0.25882353"
         id="circle4723"
         cx="128"
         cy="924.36218"
         r="128" />
    </clipPath>
    <clipPath
       id="clipPath4491"
       clipPathUnits="userSpaceOnUse">
      <circle
         style="fill:#990000;fill-opacity:1;stroke:none;stroke-width:10;stroke-linejoin:round;stroke-miterlimit:4;stroke-dasharray:none;stroke-opacity:0.25882353"
         id="circle4493"
         cx="128"
         cy="924.36218"
         r="128" />
    </clipPath>
    <clipPath
       clipPathUnits="userSpaceOnUse"
       id="clipPath1102">
      <circle
         style="fill:#b40000;fill-opacity:1;stroke:none;stroke-width:10;stroke-linejoin:round;stroke-miterlimit:4;stroke-dasharray:none;stroke-opacity:0.25882353"
         id="circle1104"
         cx="128"
         cy="924.36218"
         r="128" />
    </clipPath>
    <clipPath
       clipPathUnits="userSpaceOnUse"
       id="clipPath1102-3">
      <circle
         style="fill:#b40000;fill-opacity:1;stroke:none;stroke-width:10;stroke-linejoin:round;stroke-miterlimit:4;stroke-dasharray:none;stroke-opacity:0.25882353"
         id="circle1104-6"
         cx="128"
         cy="924.36218"
         r="128" />
    </clipPath>
    <radialGradient
       r="40"
       fy="741.36218"
       fx="412"
       cy="741.36218"
       cx="412"
       gradientUnits="userSpaceOnUse"
       id="e"
       xlink:href="#a" />
    <linearGradient
       id="a">
      <stop
         offset="0"
         stop-color="#00b33b"
         id="stop980" />
      <stop
         offset="1"
         stop-color="#faffb7"
         id="stop982" />
    </linearGradient>
  </defs>
  <metadata
     id="metadata7">
    <rdf:RDF>
      <cc:Work
         rdf:about="">
        <dc:format>image/svg+xml</dc:format>
        <dc:type
           rdf:resource="http://purl.org/dc/dcmitype/StillImage" />
        <dc:title />
      </cc:Work>
    </rdf:RDF>
  </metadata>
  <g
     inkscape:label="Layer 1"
     inkscape:groupmode="layer"
     id="layer1"
     transform="translate(0,-796.36216)">
    <path
       id="path1674"
       style="fill:#c76321;fill-opacity:1;stroke:none;stroke-width:10;stroke-linejoin:round;stroke-miterlimit:4;stroke-dasharray:none;stroke-opacity:0.258824"
       sodipodi:type="arc"
       sodipodi:cx="128"
       sodipodi:cy="-924.36218"
       sodipodi:rx="128"
       sodipodi:ry="128"
       sodipodi:start="0"
       sodipodi:end="3.1415927"
       sodipodi:arc-type="slice"
       d="m 256,-924.36218 a 128,128 0 0 1 -64,110.85125 128,128 0 0 1 -128.000003,0 A 128,128 0 0 1 0,-924.36218 h 128 z"
       transform="scale(1,-1)" />
    <path
       id="path4152"
       style="fill:#ff7f2a;fill-opacity:1;stroke:none;stroke-width:10;stroke-linejoin:round;stroke-miterlimit:4;stroke-dasharray:none;stroke-opacity:0.258824"
       sodipodi:type="arc"
       sodipodi:cx="128"
       sodipodi:cy="924.36218"
       sodipodi:rx="128"
       sodipodi:ry="128"
       sodipodi:start="0"
       sodipodi:end="3.1415927"
       sodipodi:arc-type="slice"
       d="m 256,924.36218 a 128,128 0 0 1 -64,110.85122 128,128 0 0 1 -128.000003,0 A 128,128 0 0 1 0,924.36218 h 128 z" />
    <path
       d="m 112.65331,904.50822 c -5.11966,2.77315 -19.198751,15.78564 -25.385019,16.4256 -6.186261,0.63997 -8.746095,-2.77315 -13.865763,-0.85328 -5.119667,1.91988 -31.784606,10.23933 -34.984398,12.37253 -3.199792,2.13319 -4.266389,6.39958 -2.133195,8.31946 2.133195,1.91987 28.371491,3.62643 31.997926,5.54631 3.626428,1.91987 25.171698,12.58584 31.35796,12.37253 6.186269,-0.2133 29.011449,1.70655 37.757549,-1.91988 8.7461,-3.62643 23.67846,-26.23829 31.57129,-31.99792 7.89281,-5.75962 17.06555,-13.01249 25.81165,-15.57232 8.7461,-2.55983 18.98544,-9.38606 22.82519,-14.50573 3.83975,-5.11966 4.90634,-9.81269 0,-10.87929 -4.90635,-1.0666 -11.73258,5.33299 -17.70552,6.61291 -5.97295,1.27991 -25.1717,1.27991 -36.69095,0 -11.51926,-1.27992 -50.13008,14.50572 -50.55672,14.07908 z"
       fill-rule="evenodd"
       id="path1008"
       style="stroke-width:0.853278" />
    <circle
       r="34.131115"
       cy="931.59979"
       cx="124.81252"
       fill="url(#e)"
       id="circle1010"
       style="fill:#9df7bb;fill-opacity:1;stroke-width:0.853278" />
    <circle
       r="8.5327787"
       cy="931.59979"
       cx="124.81252"
       stroke="#000000"
       stroke-linecap="round"
       id="circle1012"
       style="fill:#000000;fill-opacity:1;stroke-width:0.853278" />
    <path
       d="m 182.33881,889.62389 c -18.06722,-4.33584 -40.91741,0.25998 -54.12751,3.46465 -12.10964,2.93767 -23.47906,9.42275 -28.12549,13.91466 -2.47084,2.38859 -7.687613,6.93707 -10.45795,8.26298 -2.100003,1.00507 -5.07052,1.28409 -8.011001,0.85481 -3.818931,-0.55747 -6.751728,-3.10166 -8.102466,-7.77259 -1.720636,-5.95017 -3.283248,-11.08161 -1.018475,-17.72174 0.316594,-0.8909 -0.14899,-1.86987 -1.039973,-2.18652 -0.890914,-0.31659 -1.869878,0.14899 -2.186527,1.03998 -3.1288,8.76077 -3.345706,17.38332 -1.093222,24.15843 2.2524,6.77502 7.183063,11.79084 13.972428,12.50581 4.596265,0.48406 8.315194,-0.40554 11.519251,-2.13319 3.204142,-1.72755 5.909718,-4.22125 8.959415,-6.90618 6.0994,-5.36985 13.51686,-11.73445 28.42482,-15.75902 31.28954,-8.44677 17.06744,-7.67097 51.36666,-8.30897 0.94252,-0.0224 1.68863,-0.80404 1.66661,-1.74657 -0.0224,-0.94244 -0.80413,-1.68864 -1.74657,-1.66654 z"
       fill-rule="evenodd"
       id="path1016"
       style="stroke-width:0.853278" />
    <path
       d="m 215.39335,881.4006 c -1.78412,0.26704 -3.52225,1.00653 -5.3597,1.86654 -9.12052,5.5109 -18.08591,6.25939 -28.42482,5.54631 -6.45786,-0.45054 -13.33187,-1.09049 -19.38536,-0.45327 -11.95204,1.25816 -20.21202,6.34625 -20.21202,6.34625 l 2.23985,3.62644 c 0,0 7.44989,-4.57758 18.42543,-5.73301 5.41029,-0.5695 12.12448,0 18.63883,0.45334 6.51435,0.45445 12.81393,0.84756 17.89213,-0.50666 4.89014,-1.30399 9.22453,-3.81458 12.63918,-5.41294 1.70732,-0.79918 3.17214,-1.34546 4.15973,-1.49324 0.98758,-0.1478 1.27198,-0.0616 1.65322,0.31995 0.67462,0.67462 0.94373,1.22591 1.03998,1.81322 0.0961,0.58728 0.028,1.323 -0.47993,2.39984 -1.01703,2.15367 -3.83063,5.3835 -8.85276,9.51934 -4.72341,3.88992 -11.31285,6.28976 -18.58551,9.09278 -7.27266,2.80302 -14.75778,6.64627 -22.45187,12.02585 -8.47911,5.92857 -9.02436,11.99683 -18.48482,20.50017 -5.96244,5.35927 -13.28289,12.83552 -22.04639,13.86653 -25.32964,2.97999 -31.957141,-3.02214 -48.2364,-6.84849 -10.304354,-2.42194 -20.456829,-5.6545 -29.038077,-6.42621 -4.290655,-0.38581 -8.001561,-0.77619 -10.346027,-1.4932 -1.172319,-0.35854 -1.968512,-0.8014 -2.373222,-1.17326 -0.404624,-0.37185 -0.513161,-0.59439 -0.533298,-1.17325 -0.06314,-1.82397 0.351891,-2.41154 1.786593,-3.33316 1.434701,-0.92154 4.035237,-1.75801 7.439474,-2.63979 6.808643,-1.76364 16.77126,-3.92183 27.99818,-10.186 l -2.079862,-3.7331 c -10.656079,5.94573 -20.023108,7.98276 -26.984915,9.786 -3.480862,0.90165 -6.394636,1.69699 -8.692769,3.17316 -2.298048,1.47618 -3.838642,4.05469 -3.733091,7.09288 0.05634,1.61448 0.807883,3.13784 1.919875,4.15973 1.112078,1.02188 2.470837,1.63889 3.999741,2.10649 3.057977,0.93527 6.884758,1.26523 11.199275,1.65322 8.629024,0.77597 19.130235,1.66398 27.464877,5.97295 16.330121,8.44267 29.587326,17.74655 55.543106,14.69293 10.44915,-1.22932 22.78499,-10.50675 27.95219,-18.29735 5.16719,-7.79068 9.02298,-13.90126 15.70356,-18.94729 4.71939,-3.56474 8.97238,-8.48133 16.18036,-13.60595 6.29583,-4.47604 13.55842,-8.40197 19.0921,-12.95916 5.23494,-4.3111 8.45214,-7.73598 9.99939,-11.01257 0.77359,-1.63829 1.11532,-3.30654 0.85328,-4.90635 -0.26201,-1.59981 -1.1044,-2.99756 -2.23985,-4.13311 -1.42882,-1.42872 -3.49555,-1.81355 -5.27966,-1.54656 z"
       fill-rule="evenodd"
       id="path1018"
       style="stroke-width:0.853278" />
  </g>
</svg>
