<?xml version="1.0" encoding="UTF-8" standalone="no"?>
<svg
   xmlns:dc="http://purl.org/dc/elements/1.1/"
   xmlns:cc="http://creativecommons.org/ns#"
   xmlns:rdf="http://www.w3.org/1999/02/22-rdf-syntax-ns#"
   xmlns:svg="http://www.w3.org/2000/svg"
   xmlns="http://www.w3.org/2000/svg"
   xmlns:sodipodi="http://sodipodi.sourceforge.net/DTD/sodipodi-0.dtd"
   xmlns:inkscape="http://www.inkscape.org/namespaces/inkscape"
   width="256"
   height="256"
   viewBox="0 0 256 256"
   id="svg2"
   version="1.1"
   inkscape:version="1.0 (4035a4fb49, 2020-05-01)"
   sodipodi:docname="cs-user-accounts.svg">
  <sodipodi:namedview
     inkscape:document-rotation="0"
     id="base"
     pagecolor="#ffffff"
     bordercolor="#666666"
     borderopacity="1.0"
     inkscape:pageopacity="0.0"
     inkscape:pageshadow="2"
     inkscape:zoom="3.34375"
     inkscape:cx="128"
     inkscape:cy="128.00002"
     inkscape:document-units="px"
     inkscape:current-layer="layer1"
     showgrid="true"
     units="px"
     inkscape:window-width="1920"
     inkscape:window-height="1048"
     inkscape:window-x="0"
     inkscape:window-y="0"
     inkscape:window-maximized="1">
    <inkscape:grid
       spacingy="5"
       spacingx="5"
       id="grid4168"
       type="xygrid" />
  </sodipodi:namedview>
  <defs
     id="defs4">
    <inkscape:path-effect
       fuse_tolerance="0"
       vertical_pattern="false"
       prop_units="false"
       tang_offset="0"
       normal_offset="0"
       spacing="0"
       scale_y_rel="false"
       prop_scale="1"
       copytype="single_stretched"
       pattern="M 0,0 1,0"
       is_visible="true"
       id="path-effect4235"
       effect="skeletal" />
    <clipPath
       id="clipPath5002"
       clipPathUnits="userSpaceOnUse">
      <g
         id="g5004">
        <path
           style="fill:#0f9d58;fill-opacity:1;stroke:none;stroke-width:4.85768509;stroke-linejoin:round;stroke-miterlimit:4;stroke-dasharray:none;stroke-opacity:1"
           d="M 88.118406,249.43519 C 46.103287,235.29134 14.771284,201.68742 4.1335861,159.36053 1.3377997,148.23623 0.92261224,144.16281 0.92582381,127.88908 0.92787958,117.47222 1.134384,112.01362 1.6577819,108.54099 4.4653598,89.913336 12.17654,70.638106 23.042737,55.086148 c 3.958678,-5.665755 8.344812,-10.93092 9.101533,-10.925587 0.32809,0.0023 10.488643,18.309713 22.579009,40.683112 12.090365,22.373397 22.374546,41.334697 22.853732,42.136217 0.479186,0.80151 0.924733,2.44098 0.990103,3.64326 0.343424,6.31639 2.524175,14.20976 5.6424,20.42304 2.954444,5.88693 5.065381,8.73258 10.434696,14.06652 6.71418,6.66995 12.88853,10.28643 21.73204,12.72904 3.16587,0.87442 5.10478,1.05037 11.57517,1.05037 8.82596,0 12.60219,-0.76201 19.26429,-3.88733 2.04584,-0.95974 3.93661,-1.66536 4.20172,-1.56805 0.2651,0.0973 -11.0555,17.66459 -25.1569,39.0384 l -25.6389,38.86148 -3.094121,0.11221 c -2.554618,0.0927 -4.195204,-0.25845 -9.409103,-2.01364 z"
           id="path5006"
           inkscape:connector-curvature="0"
           transform="translate(0,796.36216)" />
        <path
           style="fill:#f4b400;fill-opacity:1;stroke:none;stroke-width:4.85768509;stroke-linejoin:round;stroke-miterlimit:4;stroke-dasharray:none;stroke-opacity:1"
           d="m 112.35984,1051.5167 c -10.0014,-1.4495 -12.15632,-1.8201 -12.531784,-2.1556 -0.248854,-0.2223 1.738304,-3.7475 4.550294,-8.0722 7.16635,-11.0213 49.77231,-74.64801 50.25856,-75.05489 3.57509,-2.99158 8.63523,-8.0414 10.57512,-10.55356 3.36154,-4.35318 7.55784,-12.9141 9.06523,-18.494 6.19314,-22.92535 -2.59253,-47.15185 -21.69967,-59.83688 l -2.96081,-1.96565 17.02469,0.29584 c 9.36358,0.1627 31.17032,0.43384 48.45941,0.60252 l 31.43471,0.30668 1.54584,4.18869 c 2.24597,6.08579 4.67816,15.0947 5.93451,21.9816 1.52517,8.36049 1.92536,28.85896 0.73851,37.82758 -3.0805,23.27845 -12.81326,45.72018 -27.80202,64.10577 -20.47622,25.1166 -51.4599,42.1974 -84.14612,46.3885 -5.31244,0.6812 -26.64601,0.9864 -30.44647,0.4356 z"
           id="path5008"
           inkscape:connector-curvature="0" />
        <path
           style="fill:#db4437;fill-opacity:1;stroke:none;stroke-width:10;stroke-linejoin:round;stroke-miterlimit:4;stroke-dasharray:none;stroke-opacity:1"
           d="M 67.989788,108.87302 C 41.284246,59.575543 33.290284,45.149038 32.233625,44.344765 31.651257,43.901497 32.811213,42.549931 38.695603,36.815353 53.43581,22.450419 68.809334,13.040746 87.839196,6.7360352 101.68742,2.1480329 112.58238,0.43719165 127.95142,0.43719165 c 21.3099,0 37.80488,3.80960275 56.83492,13.12633035 25.29351,12.383198 46.19421,33.578863 58.51993,59.345832 1.61138,3.368591 2.92978,6.372442 2.92978,6.675231 0,0.560033 -10.54865,0.49527 -71.16508,-0.436914 l -24.28843,-0.373518 -3.93063,-1.764495 c -6.75732,-3.033425 -10.64587,-3.839529 -18.6576,-3.867747 -5.0296,-0.01773 -7.97946,0.207636 -10.31642,0.788106 -14.50826,3.603659 -26.283291,12.94777 -33.291614,26.418653 -3.58502,6.89086 -5.24713,13.08166 -6.331628,23.58317 l -0.33738,3.26696 -9.92748,-18.32578 z"
           id="path5010"
           inkscape:connector-curvature="0"
           transform="translate(0,796.36216)" />
      </g>
    </clipPath>
    <clipPath
       clipPathUnits="userSpaceOnUse"
       id="clipPath4271">
      <circle
         style="fill:#292929;fill-opacity:0.26020412;stroke:none;stroke-width:10;stroke-linejoin:round;stroke-miterlimit:4;stroke-dasharray:none;stroke-opacity:0.25882353"
         id="circle4273"
         cx="128"
         cy="128.00002"
         r="128" />
    </clipPath>
    <clipPath
       id="clipPath4363"
       clipPathUnits="userSpaceOnUse">
      <circle
         style="fill:#4285f4;fill-opacity:1;stroke:none;stroke-width:10;stroke-linejoin:round;stroke-miterlimit:4;stroke-dasharray:none;stroke-opacity:0.25882353"
         id="circle4365"
         cx="128"
         cy="924.36218"
         r="128" />
    </clipPath>
    <clipPath
       clipPathUnits="userSpaceOnUse"
       id="clipPath4452">
      <circle
         style="fill:#4285f4;fill-opacity:1;stroke:none;stroke-width:10;stroke-linejoin:round;stroke-miterlimit:4;stroke-dasharray:none;stroke-opacity:0.25882353"
         id="circle4454"
         cx="128"
         cy="924.36218"
         r="128" />
    </clipPath>
    <clipPath
       id="clipPath5177"
       clipPathUnits="userSpaceOnUse">
      <circle
         style="fill:#4285f4;fill-opacity:1;stroke:none;stroke-width:10;stroke-linejoin:round;stroke-miterlimit:4;stroke-dasharray:none;stroke-opacity:0.25882353"
         id="circle5179"
         cx="128"
         cy="924.36218"
         r="128" />
    </clipPath>
    <clipPath
       clipPathUnits="userSpaceOnUse"
       id="clipPath4342">
      <circle
         style="fill:#4285f4;fill-opacity:1;stroke:none;stroke-width:10;stroke-linejoin:round;stroke-miterlimit:4;stroke-dasharray:none;stroke-opacity:0.25882353"
         id="circle4344"
         cx="128"
         cy="933.48718"
         r="128" />
    </clipPath>
    <clipPath
       id="clipPath4681"
       clipPathUnits="userSpaceOnUse">
      <circle
         style="fill:#9d5fad;fill-opacity:1;stroke:none;stroke-width:10;stroke-linejoin:round;stroke-miterlimit:4;stroke-dasharray:none;stroke-opacity:0.25882353"
         id="circle4683"
         cx="127.00293"
         cy="930.43964"
         r="128" />
    </clipPath>
    <clipPath
       clipPathUnits="userSpaceOnUse"
       id="clipPath4480">
      <circle
         style="fill:#df7618;fill-opacity:1;stroke:none;stroke-width:10;stroke-linejoin:round;stroke-miterlimit:4;stroke-dasharray:none;stroke-opacity:0.25882353"
         id="circle4482"
         cx="128"
         cy="924.36218"
         r="128" />
    </clipPath>
    <clipPath
       id="clipPath4532"
       clipPathUnits="userSpaceOnUse">
      <circle
         style="fill:#df7618;fill-opacity:1;stroke:none;stroke-width:10;stroke-linejoin:round;stroke-miterlimit:4;stroke-dasharray:none;stroke-opacity:0.25882353"
         id="circle4534"
         cx="145.46286"
         cy="927.47681"
         r="128" />
    </clipPath>
    <clipPath
       clipPathUnits="userSpaceOnUse"
       id="clipPath4430">
      <circle
         style="fill:#df7618;fill-opacity:1;stroke:none;stroke-width:10;stroke-linejoin:round;stroke-miterlimit:4;stroke-dasharray:none;stroke-opacity:0.25882353"
         id="circle4432"
         cx="128"
         cy="924.36218"
         r="117.19496" />
    </clipPath>
    <clipPath
       id="clipPath3562"
       clipPathUnits="userSpaceOnUse">
      <circle
         style="fill:#df7618;fill-opacity:1;stroke:none;stroke-width:10;stroke-linejoin:round;stroke-miterlimit:4;stroke-dasharray:none;stroke-opacity:0.25882353"
         id="circle3564"
         cx="128"
         cy="922.25391"
         r="108.73927" />
    </clipPath>
  </defs>
  <metadata
     id="metadata7">
    <rdf:RDF>
      <cc:Work
         rdf:about="">
        <dc:format>image/svg+xml</dc:format>
        <dc:type
           rdf:resource="http://purl.org/dc/dcmitype/StillImage" />
        <dc:title />
      </cc:Work>
    </rdf:RDF>
  </metadata>
  <g
     inkscape:label="Layer 1"
     inkscape:groupmode="layer"
     id="layer1"
     transform="translate(0,-796.36216)">
    <path
       transform="scale(1,-1)"
       style="fill:#7f430e;fill-opacity:1;stroke:none;stroke-width:10;stroke-linejoin:round;stroke-miterlimit:4;stroke-dasharray:none;stroke-opacity:0.258824"
       id="path879"
       sodipodi:type="arc"
       sodipodi:cx="128"
       sodipodi:cy="-924.36218"
       sodipodi:rx="128"
       sodipodi:ry="128"
       sodipodi:start="0"
       sodipodi:end="3.1415927"
       sodipodi:open="true"
       sodipodi:arc-type="arc"
       d="m 256,-924.36218 a 128,128 0 0 1 -64,110.85125 128,128 0 0 1 -128.000003,0 A 128,128 0 0 1 0,-924.36218" />
    <path
       style="fill:none;fill-rule:evenodd;stroke:none;stroke-width:1px;stroke-linecap:butt;stroke-linejoin:miter;stroke-opacity:1"
       d="M 154.47438,968.80998 101.03985,1048.476 0.4857685,1048.9618 0,842.0244 l 33.032258,-2.42884 45.176471,83.55218 21.373814,35.4611 26.717267,13.11575 z"
       id="path4913"
       inkscape:connector-curvature="0" />
    <path
       d="m 256,924.36218 a 128,128 0 0 1 -64,110.85122 128,128 0 0 1 -128.000003,0 A 128,128 0 0 1 0,924.36218"
       sodipodi:arc-type="arc"
       sodipodi:open="true"
       sodipodi:end="3.1415927"
       sodipodi:start="0"
       sodipodi:ry="128"
       sodipodi:rx="128"
       sodipodi:cy="924.36218"
       sodipodi:cx="128"
       sodipodi:type="arc"
       id="path4152"
       style="fill:#df7618;fill-opacity:1;stroke:none;stroke-width:10;stroke-linejoin:round;stroke-miterlimit:4;stroke-dasharray:none;stroke-opacity:0.258824" />
    <text
       xml:space="preserve"
       style="font-style:normal;font-weight:normal;line-height:0%;font-family:sans-serif;letter-spacing:0px;word-spacing:0px;fill:#000000;fill-opacity:1;stroke:none;stroke-width:1px;stroke-linecap:butt;stroke-linejoin:miter;stroke-opacity:1"
       x="120"
       y="927.36218"
       id="text4914"><tspan
         style="font-size:40px;line-height:1.25"
         sodipodi:role="line"
         id="tspan4916"
         x="120"
         y="927.36218"> </tspan></text>
    <g
       transform="matrix(1.1771276,0,0,1.1771276,-21.796145,-161.24838)"
       inkscape:transform-center-y="42.406956"
       inkscape:transform-center-x="120.41476"
       id="g4223"
       style="fill:#ffffff;fill-opacity:1">
      <ellipse
         ry="37.5"
         rx="27.5"
         cy="904.86218"
         cx="128"
         id="ellipse4225"
         style="opacity:1;fill:#ffffff;fill-opacity:1;stroke:none;stroke-width:0;stroke-linecap:round;stroke-linejoin:round;stroke-miterlimit:4;stroke-dasharray:none;stroke-opacity:1" />
      <path
         sodipodi:nodetypes="ccsc"
         inkscape:connector-curvature="0"
         id="path4227"
         d="m 191.71442,976.62121 c -53.54269,0.69921 -80.97153,0.69921 -127.428838,0 10e-7,-12.99545 28.467971,-33.48861 62.985768,-33.48861 34.5178,0 64.44307,20.49316 64.44307,33.48861 z"
         style="opacity:1;fill:#ffffff;fill-opacity:1;stroke:none;stroke-width:0;stroke-linecap:round;stroke-linejoin:round;stroke-miterlimit:4;stroke-dasharray:none;stroke-opacity:1" />
    </g>
    <path
       style="fill:#000000;fill-opacity:1;stroke-width:1.09471"
       id="path3762"
       inkscape:connector-curvature="0"
       d="m 48.0002,958.97694 c 0.0632,9.99965 0.087,19.99894 0.0822,29.99953 h 2.06154 c -0.008,-9.99999 -0.0344,-19.99976 -0.0706,-29.99953 H 48 Z m 3.52226,0 c 0.0216,9.99977 0.0216,19.99966 0.0706,29.99953 h 0.89532 c -0.0216,-9.99987 -0.0448,-19.99976 -0.0706,-29.99953 z m 3.581221,0 c 0.35346,9.99545 0.120199,19.99942 0.059,29.99953 h 3.21599 c -2.2e-4,-9.99987 -0.008,-19.99976 -0.0344,-29.99953 h -3.23955 -4e-5 z m 5.807674,0 c 0.0388,9.99977 0.0216,19.99978 0.05907,29.99953 h 2.09688 c 2.26e-4,-7.99591 -0.018,-19.7892 -0.04707,-29.99953 h -2.10868 z m 4.82992,0 c -0.0628,2.6487 -0.06053,10.87532 0.012,29.99953 h 0.789279 c 0.03013,-7.86529 0.0013,-19.72149 -0.04747,-29.99953 h -0.753946 v 0 z m 4.629613,0 c 0.012,9.99977 0.018,19.99978 0.07053,29.99953 h 0.718573 c 0.04867,-9.99975 0.0344,-19.99976 0.02587,-29.99953 h -0.81284 z m 3.51052,0 c 0.0344,9.99977 0.03013,19.9999 0.09427,29.99953 h 2.073319 c -0.05307,-9.99987 -0.0896,-19.99964 -0.117999,-29.99953 h -2.049747 z m 4.700334,0 c 0.004,9.99989 0.03013,19.9999 0.09427,29.99953 h 0.836426 c -0.0216,-9.99987 -0.06467,-19.99964 -0.08227,-29.99953 h -0.848187 z m 3.510516,0 c 0.0429,11.05664 0.0765,24.34193 0.0823,29.61831 1.7e-4,0.15142 -1.9e-4,0.23422 0,0.38122 h 3.28673 c -0.0301,-9.99987 -0.0661,-19.99976 -0.118,-29.99941 h -3.25137 z m 4.86526,0 c 0.012,9.99977 0.0259,19.99966 0.0705,29.99953 h 2.00264 c -0.004,-9.99987 -0.0216,-19.99976 -0.0471,-29.99953 h -2.026201 z m 3.593,0 c -0.018,9.99977 -0.018,19.99966 0,29.99953 h 2.03799 c 0.008,-9.99999 -0.0259,-19.99976 -0.0707,-29.99953 h -1.96735 z m 3.56943,0 c 0.0301,9.99977 0.0301,19.99978 0.0825,29.99953 h 1.97908 c -0.0431,-9.99987 -0.0823,-19.99976 -0.118,-29.99953 h -1.94375 z m 5.85477,0 c 0.012,9.99989 0.0612,19.99966 0.0943,29.99953 h 2.02624 c -0.018,-9.99987 -0.018,-19.99976 -0.0344,-29.99953 h -2.085155 v 0 z m 5.984372,0 c 0.052,9.99953 -0.0431,20.00014 0.0344,29.99953 h 0.87176 c -0.008,-9.99999 -0.0529,-19.99988 -0.106,-29.99953 h -0.80108 4e-5 z m 2.30896,0 c 0.0647,9.99965 0.0603,19.99978 0.118,29.99953 H 109.14 c 0.0259,-7.64766 0.018,-19.6249 -0.012,-29.99953 h -0.85999 v 0 z m 4.8888,0 c 0.018,12.49195 0.0647,25.42204 0.1296,29.99953 h 1.99087 c -7.5e-4,-9.99987 -0.0388,-19.99976 -0.0591,-29.99953 h -2.06158 z m 6.00792,0 c 0.0556,9.99965 0.0388,19.99966 0.0821,29.99953 h 0.82462 c -0.0216,-9.99987 -0.0624,-19.99976 -0.0823,-29.99953 h -0.82464 z m 2.34432,0 c 0.0429,9.99977 0.0796,19.99966 0.10574,29.99953 h 3.23953 c -0.0388,-9.99987 -0.0585,-19.99976 -0.0707,-29.99953 h -3.27489 v 0 z m 4.79456,0 c 0.0216,9.99977 0.0767,19.99966 0.106,29.99953 h 3.08642 c 0.012,-8.00334 0.004,-19.7753 -0.012,-29.99953 h -3.18066 -4e-5 z m 4.81812,0 c -7.4e-4,9.99977 -0.001,19.99966 0.0344,29.99953 h 4.40584 c -0.0344,-9.99987 -0.0545,-19.99976 -0.0705,-29.99953 H 131.121 v 0 z m 5.99616,0 c 0.012,9.99977 0.008,19.99966 0.0469,29.99953 h 0.88352 c -0.018,-9.99987 -0.0344,-19.99976 -0.0707,-29.99953 h -0.85999 z m 2.32072,0 c 0.0433,11.01888 0.0865,24.33281 0.0941,29.63248 v 0.36683 h 0.88353 c -0.0525,-9.99977 -0.0973,-19.99966 -0.1296,-29.99955 h -0.84817 z m 2.5563,0 c 3.4e-4,9.99977 -0.004,19.99966 0.012,29.99953 h 1.94373 l -0.0344,-29.99953 h -1.92015 z m 7.12708,0 c 0.004,9.99977 -0.018,19.99966 0.0216,29.99953 h 0.87173 c -10e-4,-9.99999 -0.0504,-19.99976 -0.0943,-29.99953 h -0.80104 z m 3.66365,0 c 0.004,10.23681 0.0301,22.01584 0.0705,29.99953 h 0.88352 c -0.0388,-9.99987 -0.0616,-19.99976 -0.10586,-29.99953 h -0.84818 z m 2.48564,0 c 0.018,9.99977 0.0431,19.99966 0.0707,29.99953 h 0.7893 c -0.0431,-9.99987 -0.0607,-19.99976 -0.106,-29.99953 h -0.75394 z m 3.55763,0 0.0591,29.99953 h 4.59434 c -0.0444,-9.99987 -0.09,-19.99976 -0.1412,-29.99953 h -4.51184 z m 7.13886,0 c 0.0388,9.99977 0.0695,19.99966 0.0943,29.99953 h 2.22648 c -0.0593,-9.99987 -0.10933,-19.99964 -0.1532,-29.99953 h -2.16757 v 0 z m 3.62831,0 0.0821,29.99953 h 4.52364 c -0.0469,-9.99987 -0.0867,-19.99976 -0.1412,-29.99953 h -4.46474 z m 6.05508,0 c 0.008,10.23238 0.0444,22.01752 0.0823,29.99953 h 2.15577 c -0.0431,-9.99987 -0.0796,-19.99976 -0.118,-29.99953 h -2.12044 z m 3.7108,0 c 0.008,10.13052 0.0344,21.79989 0.0821,29.99953 h 0.96598 c -0.0753,-9.99963 -0.0979,-19.99964 -0.118,-29.99953 h -0.93064 z m 3.61649,0 c 0.001,7.71887 0.008,17.02225 0.0344,29.99953 h 2.2147 c -0.0581,-9.99987 -0.1072,-19.99964 -0.1412,-29.99953 h -2.10867 v 0 z m 3.67546,0 c 0.0479,9.91504 0.0388,19.83021 0.0707,29.74536 4e-4,0.10905 -3.3e-4,0.14767 0,0.2544 h 0.76575 c -0.018,-9.99986 -0.012,-19.99975 -0.0344,-29.99952 h -0.80104 -4e-5 z m 5.92548,0 c 0.0259,9.99977 0.0259,19.99978 0.0827,29.99953 h 2.19112 c -0.0388,-9.99987 -0.0792,-19.99976 -0.118,-29.99953 h -2.15578 z m 6.04332,0 0.0705,29.99953 h 3.27488 c -0.0388,-9.99987 -0.0603,-19.99976 -0.106,-29.99953 h -3.23953 z m 4.81811,0 0.0707,29.99953 h 0.93062 c -0.0344,-9.99987 -0.0651,-19.99976 -0.106,-29.99953 h -0.89528 z m 2.3325,0 c 0.0216,9.99989 0.0572,19.99978 0.118,29.99953 H 208 c -0.0435,-9.99975 -0.056,-19.99976 -0.0707,-29.99953 h -2.15578 z" />
  </g>
</svg>
