<?xml version="1.0" encoding="UTF-8" standalone="no"?>
<svg
   xmlns:dc="http://purl.org/dc/elements/1.1/"
   xmlns:cc="http://creativecommons.org/ns#"
   xmlns:rdf="http://www.w3.org/1999/02/22-rdf-syntax-ns#"
   xmlns:svg="http://www.w3.org/2000/svg"
   xmlns="http://www.w3.org/2000/svg"
   xmlns:sodipodi="http://sodipodi.sourceforge.net/DTD/sodipodi-0.dtd"
   xmlns:inkscape="http://www.inkscape.org/namespaces/inkscape"
   width="256"
   height="256"
   viewBox="0 0 256 256"
   id="svg2"
   version="1.1"
   inkscape:version="1.0.1 (3bc2e813f5, 2020-09-07)"
   sodipodi:docname="virt-viewer.svg">
  <sodipodi:namedview
     id="base"
     pagecolor="#ffffff"
     bordercolor="#666666"
     borderopacity="1.0"
     inkscape:pageopacity="0.0"
     inkscape:pageshadow="2"
     inkscape:zoom="3.3437497"
     inkscape:cx="128"
     inkscape:cy="128.00003"
     inkscape:document-units="px"
     inkscape:current-layer="layer1"
     showgrid="true"
     units="px"
     inkscape:window-width="1920"
     inkscape:window-height="1048"
     inkscape:window-x="0"
     inkscape:window-y="0"
     inkscape:window-maximized="1"
     inkscape:document-rotation="0">
    <inkscape:grid
       spacingy="5"
       spacingx="5"
       id="grid5364"
       type="xygrid" />
  </sodipodi:namedview>
  <defs
     id="defs4">
    <inkscape:path-effect
       effect="spiro"
       id="path-effect4285"
       is_visible="true" />
    <inkscape:path-effect
       effect="spiro"
       id="path-effect4267"
       is_visible="true" />
    <inkscape:path-effect
       is_visible="true"
       id="path-effect4263"
       effect="spiro" />
    <inkscape:path-effect
       is_visible="true"
       id="path-effect4259"
       effect="spiro" />
    <inkscape:path-effect
       effect="spiro"
       id="path-effect4255"
       is_visible="true" />
    <inkscape:path-effect
       effect="spiro"
       id="path-effect4251"
       is_visible="true" />
    <inkscape:path-effect
       effect="spiro"
       id="path-effect4247"
       is_visible="true" />
    <inkscape:path-effect
       effect="spiro"
       id="path-effect4243"
       is_visible="true" />
    <inkscape:path-effect
       effect="spiro"
       id="path-effect4239"
       is_visible="true" />
    <inkscape:path-effect
       effect="spiro"
       id="path-effect4235"
       is_visible="true" />
    <inkscape:path-effect
       effect="skeletal"
       id="path-effect4231"
       is_visible="true"
       pattern="m 0,801.36216 c 0,-2.76 2.24,-5 5,-5 2.76,0 5,2.24 5,5 0,2.76 -2.24,5 -5,5 -2.76,0 -5,-2.24 -5,-5 z"
       copytype="single_stretched"
       prop_scale="1"
       scale_y_rel="false"
       spacing="0"
       normal_offset="0"
       tang_offset="0"
       prop_units="false"
       vertical_pattern="false"
       fuse_tolerance="0" />
    <inkscape:path-effect
       effect="spiro"
       id="path-effect4229"
       is_visible="true" />
    <inkscape:path-effect
       effect="spiro"
       id="path-effect4225"
       is_visible="true" />
    <clipPath
       clipPathUnits="userSpaceOnUse"
       id="clipPath6496">
      <circle
         style="fill:#ec6155;fill-opacity:1;stroke:none;stroke-width:10;stroke-miterlimit:4;stroke-dasharray:none;stroke-opacity:1"
         id="circle6498"
         cx="138.67154"
         cy="923.80737"
         r="128" />
    </clipPath>
    <clipPath
       id="clipPath4403"
       clipPathUnits="userSpaceOnUse">
      <path
         inkscape:connector-curvature="0"
         id="path4405"
         d="m 209.35592,964.68798 a 80.79922,80.79922 0 0 1 -70.39733,90.00692 80.79922,80.79922 0 0 1 -90.00691,-70.39734 80.79922,80.79922 0 0 1 70.39733,-90.00691 80.79922,80.79922 0 0 1 90.00691,70.39733 z"
         style="fill:#0ee132;fill-opacity:1;stroke:none;stroke-width:10;stroke-miterlimit:4;stroke-dasharray:none;stroke-opacity:1" />
    </clipPath>
    <clipPath
       clipPathUnits="userSpaceOnUse"
       id="clipPath5371">
      <path
         id="path5373"
         d="m 233.40483,929.35779 a 112,112 0 0 1 -112,112.00001 112,112 0 0 1 -112.000005,-112.00001 112,112 0 0 1 112.000005,-112 112,112 0 0 1 112,112 z"
         style="fill:#84bd00;fill-opacity:1;stroke:none;stroke-width:10;stroke-miterlimit:4;stroke-dasharray:none;stroke-opacity:1"
         inkscape:connector-curvature="0" />
    </clipPath>
    <clipPath
       id="clipPath4518"
       clipPathUnits="userSpaceOnUse">
      <path
         inkscape:connector-curvature="0"
         id="path4520"
         d="m 248.49746,924.36218 a 128,128 0 0 1 -128,128.00002 128,128 0 0 1 -128,-128.00002 128,128 0 0 1 128,-128 128,128 0 0 1 128,128 z"
         style="fill:#a56273;fill-opacity:1;stroke:none;stroke-width:10;stroke-miterlimit:4;stroke-dasharray:none;stroke-opacity:1" />
    </clipPath>
    <clipPath
       clipPathUnits="userSpaceOnUse"
       id="clipPath3685">
      <path
         id="path3687"
         d="M 231.73154,928.88428 A 106.05714,106.05714 0 0 1 125.6744,1034.9414 106.05714,106.05714 0 0 1 19.617263,928.88428 106.05714,106.05714 0 0 1 125.6744,822.82714 106.05714,106.05714 0 0 1 231.73154,928.88428 Z"
         style="fill:#a56273;fill-opacity:1;stroke:none;stroke-width:10;stroke-miterlimit:4;stroke-dasharray:none;stroke-opacity:1"
         inkscape:connector-curvature="0" />
    </clipPath>
  </defs>
  <metadata
     id="metadata7">
    <rdf:RDF>
      <cc:Work
         rdf:about="">
        <dc:format>image/svg+xml</dc:format>
        <dc:type
           rdf:resource="http://purl.org/dc/dcmitype/StillImage" />
        <dc:title />
      </cc:Work>
    </rdf:RDF>
  </metadata>
  <g
     transform="translate(0,-796.36216)"
     id="layer1"
     inkscape:groupmode="layer"
     inkscape:label="Layer 1">
    <g
       id="g915"
       transform="translate(0,-15.000023)">
      <path
         style="fill:#631428;fill-opacity:1;stroke:none;stroke-width:151.778"
         id="path901"
         sodipodi:type="arc"
         sodipodi:cx="128"
         sodipodi:cy="-939.36218"
         sodipodi:rx="128"
         sodipodi:ry="128"
         sodipodi:start="0"
         sodipodi:end="3.1415927"
         sodipodi:arc-type="slice"
         d="m 256,-939.36218 a 128,128 0 0 1 -64,110.85125 128,128 0 0 1 -128.000003,0 A 128,128 0 0 1 0,-939.36218 h 128 z"
         transform="scale(1,-1)" />
      <path
         style="fill:#a56273;fill-opacity:1;stroke:none;stroke-width:151.778"
         id="path899"
         sodipodi:type="arc"
         sodipodi:cx="128"
         sodipodi:cy="939.36218"
         sodipodi:rx="128"
         sodipodi:ry="128"
         sodipodi:start="0"
         sodipodi:end="3.1415927"
         sodipodi:arc-type="slice"
         d="m 256,939.36218 a 128,128 0 0 1 -64,110.85122 128,128 0 0 1 -128.000003,0 A 128,128 0 0 1 0,939.36218 h 128 z" />
    </g>
    <g
       transform="matrix(1.2068966,0,0,1.2068966,-23.676008,-196.7051)"
       id="g4262">
      <ellipse
         style="fill:#ffffff;fill-opacity:1;stroke:none;stroke-width:10;stroke-linejoin:miter;stroke-miterlimit:4;stroke-dasharray:none;stroke-opacity:1"
         id="path4258"
         cx="125.6744"
         cy="973.10059"
         rx="32.5"
         ry="10" />
      <path
         style="fill:#ffffff;fill-opacity:1;stroke:none;stroke-width:10;stroke-linejoin:miter;stroke-miterlimit:4;stroke-dasharray:none;stroke-opacity:1"
         d="m 58.174404,874.66794 c -2.769987,0 -5,2.23001 -5,5 l 0,80 c 0,2.76999 2.230013,5 5,5 l 134.999996,0 c 2.76999,0 5,-2.23001 5,-5 l 0,-80 c 0,-2.76999 -2.23001,-5 -5,-5 l -134.999996,0 z m 9.519531,9.36914 106.523435,0 3.95703,69.2832 -113.828121,0 3.347656,-69.2832 z m 119.261715,1.06445 a 5,2.5 0 0 1 5,2.5 5,2.5 0 0 1 -5,2.5 5,2.5 0 0 1 -5,-2.5 5,2.5 0 0 1 5,-2.5 z m 0,7.83789 a 5,2.5 0 0 1 5,2.5 5,2.5 0 0 1 -5,2.5 5,2.5 0 0 1 -5,-2.5 5,2.5 0 0 1 5,-2.5 z m 0,7.83985 a 5,2.5 0 0 1 5,2.5 5,2.5 0 0 1 -5,2.5 5,2.5 0 0 1 -5,-2.5 5,2.5 0 0 1 5,-2.5 z m 0,7.83789 a 5,2.5 0 0 1 5,2.5 5,2.5 0 0 1 -5,2.5 5,2.5 0 0 1 -5,-2.5 5,2.5 0 0 1 5,-2.5 z m 0,7.83789 a 5,2.5 0 0 1 5,2.5 5,2.5 0 0 1 -5,2.5 5,2.5 0 0 1 -5,-2.5 5,2.5 0 0 1 5,-2.5 z"
         id="rect4225"
         inkscape:connector-curvature="0" />
    </g>
  </g>
</svg>
