<?xml version="1.0" encoding="UTF-8" standalone="no"?>
<!-- Created with Inkscape (http://www.inkscape.org/) -->

<svg
   xmlns:dc="http://purl.org/dc/elements/1.1/"
   xmlns:cc="http://creativecommons.org/ns#"
   xmlns:rdf="http://www.w3.org/1999/02/22-rdf-syntax-ns#"
   xmlns:svg="http://www.w3.org/2000/svg"
   xmlns="http://www.w3.org/2000/svg"
   xmlns:sodipodi="http://sodipodi.sourceforge.net/DTD/sodipodi-0.dtd"
   xmlns:inkscape="http://www.inkscape.org/namespaces/inkscape"
   width="256"
   height="256"
   viewBox="0 0 256 256"
   id="svg2"
   version="1.1"
   inkscape:version="0.92.4 (unknown)"
   sodipodi:docname="computer-crash.svg">
  <sodipodi:namedview
     id="base"
     pagecolor="#ffffff"
     bordercolor="#666666"
     borderopacity="1.0"
     inkscape:pageopacity="0.0"
     inkscape:pageshadow="2"
     inkscape:zoom="3.3046875"
     inkscape:cx="128"
     inkscape:cy="127.99998"
     inkscape:document-units="px"
     inkscape:current-layer="layer1"
     showgrid="false"
     units="px"
     inkscape:window-width="1920"
     inkscape:window-height="1048"
     inkscape:window-x="0"
     inkscape:window-y="0"
     inkscape:window-maximized="1" />
  <defs
     id="defs4">
    <clipPath
       clipPathUnits="userSpaceOnUse"
       id="clipPath4311">
      <circle
         style="fill:#d44040;fill-opacity:1;stroke:none;stroke-width:1.55499995;stroke-miterlimit:4;stroke-dasharray:none;stroke-opacity:1"
         id="circle4313"
         cx="128"
         cy="924.36218"
         r="128" />
    </clipPath>
  </defs>
  <metadata
     id="metadata7">
    <rdf:RDF>
      <cc:Work
         rdf:about="">
        <dc:format>image/svg+xml</dc:format>
        <dc:type
           rdf:resource="http://purl.org/dc/dcmitype/StillImage" />
        <dc:title />
      </cc:Work>
    </rdf:RDF>
  </metadata>
  <g
     transform="translate(0,-796.36216)"
     id="layer1"
     inkscape:groupmode="layer"
     inkscape:label="Layer 1">
    <path
       d="m 256,-924.36218 a 128,128 0 0 1 -64,110.85125 128,128 0 0 1 -128.000003,0 A 128,128 0 0 1 0,-924.36219 l 128,1e-5 z"
       sodipodi:end="3.1415927"
       sodipodi:start="0"
       sodipodi:ry="128"
       sodipodi:rx="128"
       sodipodi:cy="-924.36218"
       sodipodi:cx="128"
       sodipodi:type="arc"
       style="fill:#8d2020;fill-opacity:1;stroke:none;stroke-width:1.55499995;stroke-miterlimit:4;stroke-dasharray:none;stroke-opacity:1"
       id="path845"
       transform="scale(1,-1)" />
    <path
       id="path4136"
       style="fill:#d44040;fill-opacity:1;stroke:none;stroke-width:1.55499995;stroke-miterlimit:4;stroke-dasharray:none;stroke-opacity:1"
       sodipodi:type="arc"
       sodipodi:cx="128"
       sodipodi:cy="924.36218"
       sodipodi:rx="128"
       sodipodi:ry="128"
       sodipodi:start="0"
       sodipodi:end="3.1415927"
       d="m 256,924.36218 a 128,128 0 0 1 -64,110.85122 128,128 0 0 1 -128.000003,0 A 128,128 0 0 1 0,924.36218 l 128,0 z" />
    <g
       id="g4200">
      <path
         style="fill:#ffffff;fill-opacity:1;stroke:none;stroke-width:1.55499995;stroke-miterlimit:4;stroke-dasharray:none;stroke-opacity:1"
         d="M 68.308594 56.384766 C 57.057525 56.384766 48 65.442291 48 76.693359 L 48 144.74609 C 48 155.99716 57.057525 165.05469 68.308594 165.05469 L 187.69141 165.05469 C 198.94247 165.05469 208 155.99716 208 144.74609 L 208 76.693359 C 208 65.442291 198.94247 56.384766 187.69141 56.384766 L 68.308594 56.384766 z M 157.49805 82.478516 A 13.161751 12.339141 0 0 1 170.66016 94.818359 A 13.161751 12.339141 0 0 1 157.49805 107.15625 A 13.161751 12.339141 0 0 1 144.33594 94.818359 A 13.161751 12.339141 0 0 1 157.49805 82.478516 z M 99.142578 82.775391 A 13.161751 12.339141 0 0 1 112.30273 95.115234 A 13.161751 12.339141 0 0 1 99.142578 107.45312 A 13.161751 12.339141 0 0 1 85.980469 95.115234 A 13.161751 12.339141 0 0 1 99.142578 82.775391 z M 126.70312 118.27148 C 140.01639 118.18021 153.11942 121.85485 163.625 129.79883 A 5.1644945 5.1644945 0 1 1 157.39648 138.03516 C 148.97327 131.6658 138.1408 128.52171 126.77539 128.59961 C 115.41001 128.67757 103.5844 132.00177 93.466797 138.30078 A 5.1644945 5.1644945 0 1 1 88.007812 129.5332 C 99.792963 122.19601 113.38984 118.36278 126.70312 118.27148 z "
         transform="translate(0,796.36216)"
         id="rect4146" />
      <path
         style="fill:#ffffff;fill-opacity:1;stroke:none;stroke-width:1.55499995;stroke-miterlimit:4;stroke-dasharray:none;stroke-opacity:1"
         d="m 57.501193,962.84201 142.137767,-0.3563 7.60094,28.50357 -158.859848,0 z"
         id="rect4148"
         inkscape:connector-curvature="0"
         sodipodi:nodetypes="ccccc" />
      <path
         sodipodi:nodetypes="ccccc"
         inkscape:connector-curvature="0"
         id="path4151"
         d="m 48.570077,990.81111 158.859833,0 0,5.16625 -158.859833,0 z"
         style="fill:#ffffff;fill-opacity:1;stroke:none;stroke-width:1.55499995;stroke-miterlimit:4;stroke-dasharray:none;stroke-opacity:1" />
    </g>
  </g>
</svg>
