<?xml version="1.0" encoding="UTF-8" standalone="no"?>
<!-- Created with Inkscape (http://www.inkscape.org/) -->

<svg
   xmlns:dc="http://purl.org/dc/elements/1.1/"
   xmlns:cc="http://creativecommons.org/ns#"
   xmlns:rdf="http://www.w3.org/1999/02/22-rdf-syntax-ns#"
   xmlns:svg="http://www.w3.org/2000/svg"
   xmlns="http://www.w3.org/2000/svg"
   xmlns:sodipodi="http://sodipodi.sourceforge.net/DTD/sodipodi-0.dtd"
   xmlns:inkscape="http://www.inkscape.org/namespaces/inkscape"
   width="256"
   height="256"
   viewBox="0 0 256 256"
   id="svg2"
   version="1.1"
   inkscape:version="0.92.4 (unknown)"
   sodipodi:docname="dialog-password.svg">
  <sodipodi:namedview
     id="base"
     pagecolor="#ffffff"
     bordercolor="#666666"
     borderopacity="1.0"
     inkscape:pageopacity="0.0"
     inkscape:pageshadow="2"
     inkscape:zoom="3.3046872"
     inkscape:cx="128"
     inkscape:cy="127.99997"
     inkscape:document-units="px"
     inkscape:current-layer="layer1"
     showgrid="true"
     units="px"
     inkscape:window-width="1920"
     inkscape:window-height="1048"
     inkscape:window-x="0"
     inkscape:window-y="0"
     inkscape:window-maximized="1">
    <inkscape:grid
       id="grid4628"
       type="xygrid"
       spacingx="5"
       spacingy="5" />
  </sodipodi:namedview>
  <defs
     id="defs4">
    <clipPath
       id="clipPath4174"
       clipPathUnits="userSpaceOnUse">
      <circle
         r="128"
         cy="924.36218"
         cx="128"
         id="circle4176"
         style="fill:#cc2828;fill-opacity:1;stroke:none;stroke-width:0;stroke-linecap:round;stroke-linejoin:round;stroke-miterlimit:4;stroke-dasharray:none;stroke-opacity:1" />
    </clipPath>
    <clipPath
       clipPathUnits="userSpaceOnUse"
       id="clipPath4297">
      <circle
         r="88.941673"
         cy="917.04779"
         cx="128"
         id="circle4299"
         style="fill:#00baff;fill-opacity:1;stroke:none;stroke-width:0;stroke-linecap:round;stroke-linejoin:round;stroke-miterlimit:4;stroke-dasharray:none;stroke-opacity:1" />
    </clipPath>
    <clipPath
       id="clipPath4598"
       clipPathUnits="userSpaceOnUse">
      <circle
         r="128"
         cy="924.36218"
         cx="132.61426"
         id="circle4600"
         style="fill:#00baff;fill-opacity:1;stroke:none;stroke-width:0;stroke-linecap:round;stroke-linejoin:round;stroke-miterlimit:4;stroke-dasharray:none;stroke-opacity:1" />
    </clipPath>
    <clipPath
       clipPathUnits="userSpaceOnUse"
       id="clipPath4714">
      <ellipse
         cy="924.36218"
         cx="127.99999"
         id="circle4716"
         style="fill:#ff6600;fill-opacity:1;stroke:none;stroke-width:0;stroke-linecap:round;stroke-linejoin:round;stroke-miterlimit:4;stroke-dasharray:none;stroke-opacity:1"
         rx="87.920212"
         ry="116.72266" />
    </clipPath>
    <clipPath
       id="clipPath4377"
       clipPathUnits="userSpaceOnUse">
      <path
         inkscape:connector-curvature="0"
         id="path4379"
         d="M 256,924.36218 A 128,128 0 0 1 128,1052.3622 128,128 0 0 1 0,924.36218 a 128,128 0 0 1 128,-128 128,128 0 0 1 128,128 z"
         style="fill:#ff6600;fill-opacity:1;stroke:none;stroke-width:0;stroke-linecap:round;stroke-linejoin:round;stroke-miterlimit:4;stroke-dasharray:none;stroke-opacity:1" />
    </clipPath>
    <clipPath
       clipPathUnits="userSpaceOnUse"
       id="clipPath4565">
      <path
         id="path4567"
         d="m 259.83301,909.7528 a 128,128 0 0 1 -128,128 128,128 0 0 1 -128.0000035,-128 128,128 0 0 1 128.0000035,-128 128,128 0 0 1 128,128 z"
         style="fill:#ff7f2a;fill-opacity:1;stroke:none;stroke-width:0;stroke-linecap:round;stroke-linejoin:round;stroke-miterlimit:4;stroke-dasharray:none;stroke-opacity:1"
         inkscape:connector-curvature="0" />
    </clipPath>
  </defs>
  <metadata
     id="metadata7">
    <rdf:RDF>
      <cc:Work
         rdf:about="">
        <dc:format>image/svg+xml</dc:format>
        <dc:type
           rdf:resource="http://purl.org/dc/dcmitype/StillImage" />
        <dc:title />
      </cc:Work>
    </rdf:RDF>
  </metadata>
  <g
     inkscape:label="Layer 1"
     inkscape:groupmode="layer"
     id="layer1"
     transform="translate(0,-796.36216)">
    <path
       style="fill:#ff7f2a;fill-opacity:1;stroke:none;stroke-width:112.63999939;stroke-miterlimit:4;stroke-dasharray:none;stroke-opacity:1"
       id="path875"
       sodipodi:type="arc"
       sodipodi:cx="128"
       sodipodi:cy="924.36218"
       sodipodi:rx="128"
       sodipodi:ry="128"
       sodipodi:start="0"
       sodipodi:end="3.1415927"
       d="m 256,924.36218 a 128,128 0 0 1 -64,110.85122 128,128 0 0 1 -128.000003,0 A 128,128 0 0 1 0,924.36218 l 128,0 z" />
    <path
       d="m 256,-924.36218 a 128,128 0 0 1 -64,110.85125 128,128 0 0 1 -128.000003,0 A 128,128 0 0 1 0,-924.36219 l 128,1e-5 z"
       sodipodi:end="3.1415927"
       sodipodi:start="0"
       sodipodi:ry="128"
       sodipodi:rx="128"
       sodipodi:cy="-924.36218"
       sodipodi:cx="128"
       sodipodi:type="arc"
       id="path877"
       style="fill:#e05900;fill-opacity:1;stroke:none;stroke-width:112.63999939;stroke-miterlimit:4;stroke-dasharray:none;stroke-opacity:1"
       transform="scale(1,-1)" />
    <path
       style="fill:#f6f1ec;fill-opacity:1;stroke:none;stroke-width:23;stroke-linecap:round;stroke-linejoin:round;stroke-miterlimit:4;stroke-dasharray:none;stroke-opacity:1"
       d="m 178.4873,871.86216 a 35,52.5 0 0 0 -33.94922,40 l -89.525383,0 c -6.925,0 -12.5,5.57502 -12.5,12.5 0,6.925 5.575,12.50001 12.5,12.5 l 11.40625,0 c 2.076958,-0.82742 7.79042,0.35666 8.742188,-1.54687 0.664215,-1.32843 -0.380001,-5.47156 0.488281,-6.33984 0.459731,-0.45973 1.29906,0 1.949219,0 7.210576,0 4.104112,4.97783 8.777343,7.31445 0.930143,0.46507 3.325702,0 4.388672,0 1.15269,0 2.386118,0.53966 2.925782,0 0.274073,-0.27408 0.833115,-2.3419 0.976562,-2.4375 1.058291,-0.70553 2.37628,-0.94497 3.41211,-1.46289 3.118516,-1.55926 5.129676,2.92578 7.802726,2.92578 0.13367,0 6.36653,-4.59915 6.82618,-5.36523 0.0993,-0.1655 0.1939,-3.07102 2.4375,-1.94922 0.21791,0.10896 2.80998,5.24748 3.41406,5.85156 0.22987,0.22987 -0.14538,0.68385 0,0.97461 0.75899,1.51798 0.14651,-0.15903 0.97461,0.48828 0.56161,0.439 0.89712,1.16104 1.48437,1.54687 l 0.0625,0 c -0.2837,-0.37964 -0.92653,-0.86039 -0.57031,-1.06054 0.29984,-0.16848 0.75913,0.72661 0.77539,1.06054 l 23.24609,0 a 35,52.5 0 0 0 33.95508,40 35,52.5 0 0 0 35,-52.5 35,52.5 0 0 0 -35,-52.5 z m 0.17969,22.5 a 12.5,30 0 0 1 12.5,30 12.5,30 0 0 1 -12.5,30 12.5,30 0 0 1 -12.5,-30 12.5,30 0 0 1 12.5,-30 z"
       id="path4383"
       inkscape:connector-curvature="0" />
    <path
       style="fill:#c5a584;fill-opacity:1;stroke:none;stroke-width:23;stroke-linecap:round;stroke-linejoin:round;stroke-miterlimit:4;stroke-dasharray:none;stroke-opacity:1"
       d="m 46.285517,916.97156 87.381473,0 c 1.385,0 2.5,1.115 2.5,2.5 0,1.385 -1.11501,2.49759 -2.5,2.5 l -90.422965,0.15761 c -0.723115,-1.18346 1.177621,-5.10132 3.041493,-5.15761 z"
       id="path4385"
       inkscape:connector-curvature="0"
       sodipodi:nodetypes="cssscc" />
  </g>
</svg>
