<?xml version="1.0" encoding="UTF-8" standalone="no"?>
<svg
   xmlns:dc="http://purl.org/dc/elements/1.1/"
   xmlns:cc="http://creativecommons.org/ns#"
   xmlns:rdf="http://www.w3.org/1999/02/22-rdf-syntax-ns#"
   xmlns:svg="http://www.w3.org/2000/svg"
   xmlns="http://www.w3.org/2000/svg"
   xmlns:sodipodi="http://sodipodi.sourceforge.net/DTD/sodipodi-0.dtd"
   xmlns:inkscape="http://www.inkscape.org/namespaces/inkscape"
   sodipodi:docname="gnome-stock-trash.svg"
   inkscape:version="1.0beta2 (2b71d25, 2019-12-03)"
   version="1.1"
   id="svg2"
   viewBox="0 0 256 256"
   height="256"
   width="256">
  <sodipodi:namedview
     inkscape:document-rotation="0"
     inkscape:window-maximized="1"
     inkscape:window-y="0"
     inkscape:window-x="0"
     inkscape:window-height="1048"
     inkscape:window-width="1920"
     units="px"
     showgrid="true"
     inkscape:current-layer="layer1"
     inkscape:document-units="px"
     inkscape:cy="157.50002"
     inkscape:cx="-18.5"
     inkscape:zoom="2.291439"
     inkscape:pageshadow="2"
     inkscape:pageopacity="0.0"
     borderopacity="1.0"
     bordercolor="#666666"
     pagecolor="#ffffff"
     id="base">
    <inkscape:grid
       spacingy="5"
       spacingx="5"
       id="grid4168"
       type="xygrid" />
  </sodipodi:namedview>
  <defs
     id="defs4">
    <inkscape:path-effect
       effect="spiro"
       id="path-effect4229"
       is_visible="true" />
    <inkscape:path-effect
       effect="spiro"
       id="path-effect4220"
       is_visible="true" />
    <inkscape:path-effect
       is_visible="true"
       id="path-effect4208"
       effect="spiro" />
    <inkscape:path-effect
       effect="spiro"
       id="path-effect4196"
       is_visible="true" />
    <clipPath
       id="clipPath5002"
       clipPathUnits="userSpaceOnUse">
      <g
         id="g5004">
        <path
           style="fill:#0f9d58;fill-opacity:1;stroke:none;stroke-width:4.85768509;stroke-linejoin:round;stroke-miterlimit:4;stroke-dasharray:none;stroke-opacity:1"
           d="M 88.118406,249.43519 C 46.103287,235.29134 14.771284,201.68742 4.1335861,159.36053 1.3377997,148.23623 0.92261224,144.16281 0.92582381,127.88908 0.92787958,117.47222 1.134384,112.01362 1.6577819,108.54099 4.4653598,89.913336 12.17654,70.638106 23.042737,55.086148 c 3.958678,-5.665755 8.344812,-10.93092 9.101533,-10.925587 0.32809,0.0023 10.488643,18.309713 22.579009,40.683112 12.090365,22.373397 22.374546,41.334697 22.853732,42.136217 0.479186,0.80151 0.924733,2.44098 0.990103,3.64326 0.343424,6.31639 2.524175,14.20976 5.6424,20.42304 2.954444,5.88693 5.065381,8.73258 10.434696,14.06652 6.71418,6.66995 12.88853,10.28643 21.73204,12.72904 3.16587,0.87442 5.10478,1.05037 11.57517,1.05037 8.82596,0 12.60219,-0.76201 19.26429,-3.88733 2.04584,-0.95974 3.93661,-1.66536 4.20172,-1.56805 0.2651,0.0973 -11.0555,17.66459 -25.1569,39.0384 l -25.6389,38.86148 -3.094121,0.11221 c -2.554618,0.0927 -4.195204,-0.25845 -9.409103,-2.01364 z"
           id="path5006"
           inkscape:connector-curvature="0"
           transform="translate(0,796.36216)" />
        <path
           style="fill:#f4b400;fill-opacity:1;stroke:none;stroke-width:4.85768509;stroke-linejoin:round;stroke-miterlimit:4;stroke-dasharray:none;stroke-opacity:1"
           d="m 112.35984,1051.5167 c -10.0014,-1.4495 -12.15632,-1.8201 -12.531784,-2.1556 -0.248854,-0.2223 1.738304,-3.7475 4.550294,-8.0722 7.16635,-11.0213 49.77231,-74.64801 50.25856,-75.05489 3.57509,-2.99158 8.63523,-8.0414 10.57512,-10.55356 3.36154,-4.35318 7.55784,-12.9141 9.06523,-18.494 6.19314,-22.92535 -2.59253,-47.15185 -21.69967,-59.83688 l -2.96081,-1.96565 17.02469,0.29584 c 9.36358,0.1627 31.17032,0.43384 48.45941,0.60252 l 31.43471,0.30668 1.54584,4.18869 c 2.24597,6.08579 4.67816,15.0947 5.93451,21.9816 1.52517,8.36049 1.92536,28.85896 0.73851,37.82758 -3.0805,23.27845 -12.81326,45.72018 -27.80202,64.10577 -20.47622,25.1166 -51.4599,42.1974 -84.14612,46.3885 -5.31244,0.6812 -26.64601,0.9864 -30.44647,0.4356 z"
           id="path5008"
           inkscape:connector-curvature="0" />
        <path
           style="fill:#db4437;fill-opacity:1;stroke:none;stroke-width:10;stroke-linejoin:round;stroke-miterlimit:4;stroke-dasharray:none;stroke-opacity:1"
           d="M 67.989788,108.87302 C 41.284246,59.575543 33.290284,45.149038 32.233625,44.344765 31.651257,43.901497 32.811213,42.549931 38.695603,36.815353 53.43581,22.450419 68.809334,13.040746 87.839196,6.7360352 101.68742,2.1480329 112.58238,0.43719165 127.95142,0.43719165 c 21.3099,0 37.80488,3.80960275 56.83492,13.12633035 25.29351,12.383198 46.19421,33.578863 58.51993,59.345832 1.61138,3.368591 2.92978,6.372442 2.92978,6.675231 0,0.560033 -10.54865,0.49527 -71.16508,-0.436914 l -24.28843,-0.373518 -3.93063,-1.764495 c -6.75732,-3.033425 -10.64587,-3.839529 -18.6576,-3.867747 -5.0296,-0.01773 -7.97946,0.207636 -10.31642,0.788106 -14.50826,3.603659 -26.283291,12.94777 -33.291614,26.418653 -3.58502,6.89086 -5.24713,13.08166 -6.331628,23.58317 l -0.33738,3.26696 -9.92748,-18.32578 z"
           id="path5010"
           inkscape:connector-curvature="0"
           transform="translate(0,796.36216)" />
      </g>
    </clipPath>
    <clipPath
       clipPathUnits="userSpaceOnUse"
       id="clipPath4271">
      <circle
         style="fill:#292929;fill-opacity:0.26020412;stroke:none;stroke-width:10;stroke-linejoin:round;stroke-miterlimit:4;stroke-dasharray:none;stroke-opacity:0.25882353"
         id="circle4273"
         cx="128"
         cy="128.00002"
         r="128" />
    </clipPath>
    <clipPath
       id="clipPath4363"
       clipPathUnits="userSpaceOnUse">
      <circle
         style="fill:#4285f4;fill-opacity:1;stroke:none;stroke-width:10;stroke-linejoin:round;stroke-miterlimit:4;stroke-dasharray:none;stroke-opacity:0.25882353"
         id="circle4365"
         cx="128"
         cy="924.36218"
         r="128" />
    </clipPath>
    <clipPath
       clipPathUnits="userSpaceOnUse"
       id="clipPath4452">
      <circle
         style="fill:#4285f4;fill-opacity:1;stroke:none;stroke-width:10;stroke-linejoin:round;stroke-miterlimit:4;stroke-dasharray:none;stroke-opacity:0.25882353"
         id="circle4454"
         cx="128"
         cy="924.36218"
         r="128" />
    </clipPath>
    <filter
       style="color-interpolation-filters:sRGB;"
       inkscape:label="Drop Shadow"
       id="filter5743">
      <feFlood
         flood-opacity="0.498039"
         flood-color="rgb(0,0,0)"
         result="flood"
         id="feFlood5745" />
      <feComposite
         in="flood"
         in2="SourceGraphic"
         operator="in"
         result="composite1"
         id="feComposite5747" />
      <feGaussianBlur
         in="composite1"
         stdDeviation="3.7"
         result="blur"
         id="feGaussianBlur5749" />
      <feOffset
         dx="-3.7"
         dy="-4"
         result="offset"
         id="feOffset5751" />
      <feComposite
         in="SourceGraphic"
         in2="offset"
         operator="over"
         result="composite2"
         id="feComposite5753" />
    </filter>
    <filter
       style="color-interpolation-filters:sRGB;"
       inkscape:label="Drop Shadow"
       id="filter4254">
      <feFlood
         flood-opacity="0.498039"
         flood-color="rgb(0,0,0)"
         result="flood"
         id="feFlood4256" />
      <feComposite
         in="flood"
         in2="SourceGraphic"
         operator="in"
         result="composite1"
         id="feComposite4258" />
      <feGaussianBlur
         in="composite1"
         stdDeviation="1.6"
         result="blur"
         id="feGaussianBlur4260" />
      <feOffset
         dx="-2.6"
         dy="-2.9"
         result="offset"
         id="feOffset4262" />
      <feComposite
         in="SourceGraphic"
         in2="offset"
         operator="over"
         result="composite2"
         id="feComposite4264" />
    </filter>
    <filter
       style="color-interpolation-filters:sRGB;"
       inkscape:label="Drop Shadow"
       id="filter4263">
      <feFlood
         flood-opacity="0.498039"
         flood-color="rgb(0,0,0)"
         result="flood"
         id="feFlood4265" />
      <feComposite
         in="flood"
         in2="SourceGraphic"
         operator="in"
         result="composite1"
         id="feComposite4267" />
      <feGaussianBlur
         in="composite1"
         stdDeviation="0"
         result="blur"
         id="feGaussianBlur4269" />
      <feOffset
         dx="0"
         dy="2.9"
         result="offset"
         id="feOffset4271" />
      <feComposite
         in="SourceGraphic"
         in2="offset"
         operator="over"
         result="composite2"
         id="feComposite4273" />
    </filter>
    <clipPath
       id="clipPath4586"
       clipPathUnits="userSpaceOnUse">
      <circle
         style="fill:#68bdff;fill-opacity:1;stroke:none;stroke-width:10;stroke-linejoin:round;stroke-miterlimit:4;stroke-dasharray:none;stroke-opacity:0.25882353"
         id="circle4588"
         cx="128"
         cy="924.36218"
         r="128" />
    </clipPath>
    <clipPath
       id="clipPath4590"
       clipPathUnits="userSpaceOnUse">
      <circle
         style="fill:#68bdff;fill-opacity:1;stroke:none;stroke-width:10;stroke-linejoin:round;stroke-miterlimit:4;stroke-dasharray:none;stroke-opacity:0.25882353"
         id="circle4592"
         cx="128"
         cy="924.36218"
         r="128" />
    </clipPath>
    <clipPath
       id="clipPath4596"
       clipPathUnits="userSpaceOnUse">
      <circle
         style="fill:#68bdff;fill-opacity:1;stroke:none;stroke-width:10;stroke-linejoin:round;stroke-miterlimit:4;stroke-dasharray:none;stroke-opacity:0.25882353"
         id="circle4598"
         cx="128"
         cy="924.36218"
         r="128" />
    </clipPath>
    <clipPath
       clipPathUnits="userSpaceOnUse"
       id="clipPath4517">
      <path
         style="fill:#68bdff;fill-opacity:1;stroke:none;stroke-width:10;stroke-linejoin:round;stroke-miterlimit:4;stroke-dasharray:none;stroke-opacity:0.25882353"
         d="m 128,796.36216 a 128,128 0 0 0 -128,128 128,128 0 0 0 128,128.00004 128,128 0 0 0 128,-128.00004 128,128 0 0 0 -128,-128 z"
         id="path4519"
         inkscape:connector-curvature="0" />
    </clipPath>
    <clipPath
       clipPathUnits="userSpaceOnUse"
       id="clipPath5734">
      <path
         style="fill:#68bdff;fill-opacity:1;stroke:none;stroke-width:10;stroke-linejoin:round;stroke-miterlimit:4;stroke-dasharray:none;stroke-opacity:0.25882353"
         d="M 128,0 A 128,128 0 0 0 0,128 128,128 0 0 0 128,256 128,128 0 0 0 256,128 128,128 0 0 0 128,0 Z"
         id="path5736"
         inkscape:connector-curvature="0" />
    </clipPath>
    <filter
       y="-0.15"
       height="1.3"
       x="-0.15"
       width="1.3"
       inkscape:menu-tooltip="Aquarelle paper effect which can be used for pictures as for objects"
       inkscape:menu="Textures"
       inkscape:label="Rough Paper"
       style="color-interpolation-filters:sRGB;"
       id="filter4223">
      <feTurbulence
         type="fractalNoise"
         baseFrequency="0.04"
         numOctaves="5"
         seed="0"
         result="result4"
         id="feTurbulence4225" />
      <feDisplacementMap
         in="SourceGraphic"
         in2="result4"
         yChannelSelector="G"
         xChannelSelector="R"
         scale="10"
         result="result3"
         id="feDisplacementMap4227" />
      <feDiffuseLighting
         lighting-color="rgb(233,230,215)"
         diffuseConstant="1"
         surfaceScale="2"
         result="result1"
         in="result4"
         id="feDiffuseLighting4229">
        <feDistantLight
           azimuth="235"
           elevation="40"
           id="feDistantLight4231" />
      </feDiffuseLighting>
      <feComposite
         operator="in"
         in="result3"
         in2="result1"
         result="result2"
         id="feComposite4233" />
      <feComposite
         in2="result1"
         result="result5"
         operator="arithmetic"
         k1="1.7"
         id="feComposite4235" />
      <feBlend
         in="result5"
         in2="result3"
         mode="normal"
         id="feBlend4237"
         result="fbSourceGraphic" />
      <feColorMatrix
         result="fbSourceGraphicAlpha"
         in="fbSourceGraphic"
         values="0 0 0 -1 0 0 0 0 -1 0 0 0 0 -1 0 0 0 0 1 0"
         id="feColorMatrix4239" />
      <feTurbulence
         id="feTurbulence4241"
         type="fractalNoise"
         baseFrequency="0.04"
         numOctaves="5"
         seed="0"
         result="result4"
         in="fbSourceGraphic" />
      <feDisplacementMap
         id="feDisplacementMap4243"
         in2="result4"
         in="fbSourceGraphic"
         yChannelSelector="G"
         xChannelSelector="R"
         scale="10"
         result="result3" />
      <feDiffuseLighting
         id="feDiffuseLighting4245"
         lighting-color="rgb(233,230,215)"
         diffuseConstant="1"
         surfaceScale="2"
         result="result1"
         in="result4">
        <feDistantLight
           id="feDistantLight4247"
           azimuth="235"
           elevation="40" />
      </feDiffuseLighting>
      <feComposite
         id="feComposite4249"
         in2="result1"
         operator="in"
         in="result3"
         result="result2" />
      <feComposite
         id="feComposite4251"
         in2="result1"
         result="result5"
         operator="arithmetic"
         k1="1.7" />
      <feBlend
         id="feBlend4253"
         in2="result3"
         in="result5"
         mode="normal" />
    </filter>
    <filter
       style="color-interpolation-filters:sRGB;"
       inkscape:label="Rough Paper"
       id="filter4275"
       y="-0.15"
       height="1.3"
       x="-0.15"
       width="1.3"
       inkscape:menu-tooltip="Aquarelle paper effect which can be used for pictures as for objects"
       inkscape:menu="Textures">
      <feTurbulence
         type="fractalNoise"
         numOctaves="5"
         seed="1"
         baseFrequency="0.013 0.013"
         result="turbulence"
         id="feTurbulence4277" />
      <feDisplacementMap
         in="SourceGraphic"
         in2="turbulence"
         scale="6.6"
         yChannelSelector="G"
         xChannelSelector="R"
         id="feDisplacementMap4279"
         result="fbSourceGraphic" />
      <feColorMatrix
         result="fbSourceGraphicAlpha"
         in="fbSourceGraphic"
         values="0 0 0 -1 0 0 0 0 -1 0 0 0 0 -1 0 0 0 0 1 0"
         id="feColorMatrix4281" />
      <feTurbulence
         id="feTurbulence4283"
         type="fractalNoise"
         numOctaves="5"
         seed="1"
         baseFrequency="0.013 0.013"
         result="turbulence"
         in="fbSourceGraphic" />
      <feDisplacementMap
         id="feDisplacementMap4285"
         in2="turbulence"
         in="fbSourceGraphic"
         scale="6.6"
         yChannelSelector="G"
         xChannelSelector="R"
         result="fbSourceGraphic" />
      <feColorMatrix
         result="fbSourceGraphicAlpha"
         in="fbSourceGraphic"
         values="0 0 0 -1 0 0 0 0 -1 0 0 0 0 -1 0 0 0 0 1 0"
         id="feColorMatrix4287" />
      <feTurbulence
         id="feTurbulence4289"
         type="fractalNoise"
         numOctaves="5"
         seed="1"
         baseFrequency="0.013 0.013"
         result="turbulence"
         in="fbSourceGraphic" />
      <feDisplacementMap
         id="feDisplacementMap4291"
         in2="turbulence"
         in="fbSourceGraphic"
         scale="6.6"
         yChannelSelector="G"
         xChannelSelector="R"
         result="fbSourceGraphic" />
      <feColorMatrix
         result="fbSourceGraphicAlpha"
         in="fbSourceGraphic"
         values="0 0 0 -1 0 0 0 0 -1 0 0 0 0 -1 0 0 0 0 1 0"
         id="feColorMatrix4293" />
      <feTurbulence
         id="feTurbulence4295"
         type="fractalNoise"
         numOctaves="5"
         seed="1"
         baseFrequency="0.013 0.013"
         result="turbulence"
         in="fbSourceGraphic" />
      <feDisplacementMap
         id="feDisplacementMap4297"
         in2="turbulence"
         in="fbSourceGraphic"
         scale="6.6"
         yChannelSelector="G"
         xChannelSelector="R"
         result="fbSourceGraphic" />
      <feColorMatrix
         result="fbSourceGraphicAlpha"
         in="fbSourceGraphic"
         values="0 0 0 -1 0 0 0 0 -1 0 0 0 0 -1 0 0 0 0 1 0"
         id="feColorMatrix4299" />
      <feTurbulence
         id="feTurbulence4301"
         type="fractalNoise"
         baseFrequency="0.04"
         numOctaves="5"
         seed="0"
         result="result4"
         in="fbSourceGraphic" />
      <feDisplacementMap
         id="feDisplacementMap4303"
         in2="result4"
         in="fbSourceGraphic"
         yChannelSelector="G"
         xChannelSelector="R"
         scale="10"
         result="result3" />
      <feDiffuseLighting
         id="feDiffuseLighting4305"
         lighting-color="rgb(233,230,215)"
         diffuseConstant="1"
         surfaceScale="2"
         result="result1"
         in="result4">
        <feDistantLight
           id="feDistantLight4307"
           azimuth="235"
           elevation="40" />
      </feDiffuseLighting>
      <feComposite
         id="feComposite4309"
         in2="result1"
         operator="in"
         in="result3"
         result="result2" />
      <feComposite
         id="feComposite4311"
         in2="result1"
         result="result5"
         operator="arithmetic"
         k1="1.7" />
      <feBlend
         id="feBlend4313"
         in2="result3"
         in="result5"
         mode="normal"
         result="fbSourceGraphic" />
      <feColorMatrix
         result="fbSourceGraphicAlpha"
         in="fbSourceGraphic"
         values="0 0 0 -1 0 0 0 0 -1 0 0 0 0 -1 0 0 0 0 1 0"
         id="feColorMatrix4315" />
      <feTurbulence
         id="feTurbulence4317"
         type="fractalNoise"
         baseFrequency="0.04"
         numOctaves="5"
         seed="0"
         result="result4"
         in="fbSourceGraphic" />
      <feDisplacementMap
         id="feDisplacementMap4319"
         in2="result4"
         in="fbSourceGraphic"
         yChannelSelector="G"
         xChannelSelector="R"
         scale="10"
         result="result3" />
      <feDiffuseLighting
         id="feDiffuseLighting4321"
         lighting-color="rgb(233,230,215)"
         diffuseConstant="1"
         surfaceScale="2"
         result="result1"
         in="result4">
        <feDistantLight
           id="feDistantLight4323"
           azimuth="235"
           elevation="40" />
      </feDiffuseLighting>
      <feComposite
         id="feComposite4325"
         in2="result1"
         operator="in"
         in="result3"
         result="result2" />
      <feComposite
         id="feComposite4327"
         in2="result1"
         result="result5"
         operator="arithmetic"
         k1="1.7" />
      <feBlend
         id="feBlend4329"
         in2="result3"
         in="result5"
         mode="normal" />
    </filter>
    <filter
       y="-0.15"
       height="1.3"
       x="-0.15"
       width="1.3"
       inkscape:menu-tooltip="Aquarelle paper effect which can be used for pictures as for objects"
       inkscape:menu="Textures"
       inkscape:label="Rough Paper"
       style="color-interpolation-filters:sRGB;"
       id="filter4356">
      <feTurbulence
         type="fractalNoise"
         baseFrequency="0.04"
         numOctaves="5"
         seed="0"
         result="result4"
         id="feTurbulence4358" />
      <feDisplacementMap
         in="SourceGraphic"
         in2="result4"
         yChannelSelector="G"
         xChannelSelector="R"
         scale="10"
         result="result3"
         id="feDisplacementMap4360" />
      <feDiffuseLighting
         lighting-color="rgb(233,230,215)"
         diffuseConstant="1"
         surfaceScale="2"
         result="result1"
         in="result4"
         id="feDiffuseLighting4362">
        <feDistantLight
           azimuth="235"
           elevation="40"
           id="feDistantLight4364" />
      </feDiffuseLighting>
      <feComposite
         operator="in"
         in="result3"
         in2="result1"
         result="result2"
         id="feComposite4366" />
      <feComposite
         in2="result1"
         result="result5"
         operator="arithmetic"
         k1="1.7"
         id="feComposite4368" />
      <feBlend
         in="result5"
         in2="result3"
         mode="normal"
         id="feBlend4370" />
    </filter>
    <clipPath
       id="clipPath1381"
       clipPathUnits="userSpaceOnUse">
      <path
         inkscape:connector-curvature="0"
         style="fill:#68bdff;fill-opacity:1;stroke:none;stroke-width:10;stroke-linejoin:round;stroke-miterlimit:4;stroke-dasharray:none;stroke-opacity:0.25882353"
         d="m 128,796.36216 a 128,128 0 0 0 -128,128 128,128 0 0 0 128,128.00004 128,128 0 0 0 128,-128.00004 128,128 0 0 0 -128,-128 z"
         id="path1383" />
    </clipPath>
    <clipPath
       id="clipPath1387"
       clipPathUnits="userSpaceOnUse">
      <path
         inkscape:connector-curvature="0"
         style="fill:#68bdff;fill-opacity:1;stroke:none;stroke-width:10;stroke-linejoin:round;stroke-miterlimit:4;stroke-dasharray:none;stroke-opacity:0.25882353"
         d="m 125,796.36216 a 128,128 0 0 0 -128,128 128,128 0 0 0 128,128.00004 128,128 0 0 0 128,-128.00004 128,128 0 0 0 -128,-128 z"
         id="path1389" />
    </clipPath>
  </defs>
  <metadata
     id="metadata7">
    <rdf:RDF>
      <cc:Work
         rdf:about="">
        <dc:format>image/svg+xml</dc:format>
        <dc:type
           rdf:resource="http://purl.org/dc/dcmitype/StillImage" />
        <dc:title />
      </cc:Work>
    </rdf:RDF>
  </metadata>
  <g
     inkscape:label="Layer 1"
     inkscape:groupmode="layer"
     id="layer1"
     transform="translate(0,-796.36216)">
    <path
       transform="scale(1,-1)"
       style="fill:#b91c1c;fill-opacity:1;stroke:none;stroke-width:24.0941;stroke-opacity:1"
       id="path1002"
       sodipodi:type="arc"
       sodipodi:cx="128"
       sodipodi:cy="-924.36218"
       sodipodi:rx="128"
       sodipodi:ry="128"
       sodipodi:start="0"
       sodipodi:end="3.1415927"
       sodipodi:arc-type="slice"
       d="m 256,-924.36218 a 128,128 0 0 1 -64,110.85125 128,128 0 0 1 -128.000003,0 A 128,128 0 0 1 0,-924.36219 l 128,1e-5 z" />
    <path
       d="m 256,924.36218 a 128,128 0 0 1 -64,110.85122 128,128 0 0 1 -128.000003,0 A 128,128 0 0 1 0,924.36218 l 128,0 z"
       sodipodi:arc-type="slice"
       sodipodi:end="3.1415927"
       sodipodi:start="0"
       sodipodi:ry="128"
       sodipodi:rx="128"
       sodipodi:cy="924.36218"
       sodipodi:cx="128"
       sodipodi:type="arc"
       id="path1000"
       style="fill:#ff6f6f;fill-opacity:1;stroke:none;stroke-width:24.0941;stroke-opacity:1" />
    <path
       style="fill:#007fe2;fill-opacity:1;stroke:none;stroke-width:1;stroke-linecap:round;stroke-linejoin:round;stroke-miterlimit:4;stroke-dasharray:none;stroke-opacity:1"
       d="m 98.362299,897.3324 c 3.005841,0 5.425711,2.41987 5.425711,5.42571 l 0,89.14857 c 0,3.00585 -2.41987,5.42572 -5.425711,5.42572 -3.005846,0 -5.425715,-2.41987 -5.425715,-5.42572 l 0,-89.14857 c 0,-3.00584 2.419869,-5.42571 5.425715,-5.42571 z"
       id="rect4244"
       inkscape:connector-curvature="0" />
    <path
       style="fill:#007fe2;fill-opacity:1;stroke:none;stroke-width:1;stroke-linecap:round;stroke-linejoin:round;stroke-miterlimit:4;stroke-dasharray:none;stroke-opacity:1"
       d="m 129.32611,897.3324 c 3.00584,0 5.42571,2.41987 5.42571,5.42571 l 0,89.14857 c 0,3.00585 -2.41987,5.42572 -5.42571,5.42572 -3.00585,0 -5.42572,-2.41987 -5.42572,-5.42572 l 0,-89.14857 c 0,-3.00584 2.41987,-5.42571 5.42572,-5.42571 z"
       id="rect4246"
       inkscape:connector-curvature="0" />
    <path
       style="fill:#007fe2;fill-opacity:1;stroke:none;stroke-width:1;stroke-linecap:round;stroke-linejoin:round;stroke-miterlimit:4;stroke-dasharray:none;stroke-opacity:1"
       d="m 160.28993,897.3324 c 3.00584,0 5.42571,2.41987 5.42571,5.42571 l 0,89.14857 c 0,3.00585 -2.41987,5.42572 -5.42571,5.42572 -3.00585,0 -5.42572,-2.41987 -5.42572,-5.42572 l 0,-89.14857 c 0,-3.00584 2.41987,-5.42571 5.42572,-5.42571 z"
       id="rect4248"
       inkscape:connector-curvature="0" />
    <path
       style="fill:#007fe2;fill-opacity:1;stroke:none;stroke-width:1;stroke-linecap:round;stroke-linejoin:round;stroke-miterlimit:4;stroke-dasharray:none;stroke-opacity:1"
       d="m 98.362299,897.3324 c 3.005841,0 5.425711,2.41987 5.425711,5.42571 l 0,89.14857 c 0,3.00585 -2.41987,5.42572 -5.425711,5.42572 -3.005846,0 -5.425715,-2.41987 -5.425715,-5.42572 l 0,-89.14857 c 0,-3.00584 2.419869,-5.42571 5.425715,-5.42571 z"
       id="rect4349"
       inkscape:connector-curvature="0" />
    <path
       style="fill:#007fe2;fill-opacity:1;stroke:none;stroke-width:1;stroke-linecap:round;stroke-linejoin:round;stroke-miterlimit:4;stroke-dasharray:none;stroke-opacity:1"
       d="m 129.32611,897.3324 c 3.00584,0 5.42571,2.41987 5.42571,5.42571 l 0,89.14857 c 0,3.00585 -2.41987,5.42572 -5.42571,5.42572 -3.00585,0 -5.42572,-2.41987 -5.42572,-5.42572 l 0,-89.14857 c 0,-3.00584 2.41987,-5.42571 5.42572,-5.42571 z"
       id="rect4351"
       inkscape:connector-curvature="0" />
    <path
       inkscape:connector-curvature="0"
       id="path4292"
       d="M 154.10105,968.47093 100.66652,1048.137 0.1124385,1048.6228 -0.37333,841.68535 l 33.032258,-2.42884 45.176471,83.55218 21.373814,35.4611 26.717267,13.11575 z"
       style="fill:none;fill-rule:evenodd;stroke:none;stroke-width:1px;stroke-linecap:butt;stroke-linejoin:miter;stroke-opacity:1" />
    <path
       id="path4294"
       d="m 97.988969,896.99335 c 3.005841,0 5.425711,2.41987 5.425711,5.42571 v 89.14857 c 0,3.00585 -2.41987,5.42572 -5.425711,5.42572 -3.005846,0 -5.425715,-2.41987 -5.425715,-5.42572 v -89.14857 c 0,-3.00584 2.419869,-5.42571 5.425715,-5.42571 z"
       style="fill:#800000;fill-opacity:1;stroke:none;stroke-width:1;stroke-linecap:round;stroke-linejoin:round;stroke-miterlimit:4;stroke-dasharray:none;stroke-opacity:1"
       inkscape:connector-curvature="0" />
    <path
       id="path4296"
       d="m 128.95278,896.99335 c 3.00584,0 5.42571,2.41987 5.42571,5.42571 v 89.14857 c 0,3.00585 -2.41987,5.42572 -5.42571,5.42572 -3.00585,0 -5.42572,-2.41987 -5.42572,-5.42572 v -89.14857 c 0,-3.00584 2.41987,-5.42571 5.42572,-5.42571 z"
       style="fill:#800000;fill-opacity:1;stroke:none;stroke-width:1;stroke-linecap:round;stroke-linejoin:round;stroke-miterlimit:4;stroke-dasharray:none;stroke-opacity:1"
       inkscape:connector-curvature="0" />
    <path
       inkscape:connector-curvature="0"
       style="fill:#ffffff;fill-opacity:1;stroke:none;stroke-width:1;stroke-linecap:round;stroke-linejoin:round;stroke-miterlimit:4;stroke-dasharray:none;stroke-opacity:1"
       d="m 81.077362,871.02313 h 92.035198 c 7.74625,0 13.9824,6.23615 13.9824,13.9824 v 122.03527 c 0,7.7462 -6.23615,13.9824 -13.9824,13.9824 H 81.077362 c -7.746249,0 -13.9824,-6.2362 -13.9824,-13.9824 V 885.00553 c 0,-7.74625 6.236151,-13.9824 13.9824,-13.9824 z"
       id="path4298" />
    <path
       id="path4300"
       d="m 159.9166,896.99335 c 3.00584,0 5.42571,2.41987 5.42571,5.42571 v 89.14857 c 0,3.00585 -2.41987,5.42572 -5.42571,5.42572 -3.00585,0 -5.42572,-2.41987 -5.42572,-5.42572 v -89.14857 c 0,-3.00584 2.41987,-5.42571 5.42572,-5.42571 z"
       style="fill:#c5c5c5;fill-opacity:1;stroke:none;stroke-width:1;stroke-linecap:round;stroke-linejoin:round;stroke-miterlimit:4;stroke-dasharray:none;stroke-opacity:1"
       inkscape:connector-curvature="0" />
    <rect
       style="fill:#c5c5c5;fill-opacity:1;stroke:none;stroke-width:1;stroke-linecap:round;stroke-linejoin:round;stroke-miterlimit:4;stroke-dasharray:none;stroke-opacity:1"
       id="rect4302"
       width="10.851429"
       height="100"
       x="92.563255"
       y="896.99335"
       ry="5.4257145" />
    <rect
       ry="5.4257145"
       y="896.99335"
       x="123.52706"
       height="100"
       width="10.851429"
       id="rect4304"
       style="fill:#c5c5c5;fill-opacity:1;stroke:none;stroke-width:1;stroke-linecap:round;stroke-linejoin:round;stroke-miterlimit:4;stroke-dasharray:none;stroke-opacity:1" />
    <rect
       style="fill:#ffffff;fill-opacity:1;stroke:none;stroke-opacity:1"
       id="rect4310"
       width="120"
       height="15"
       x="67.094963"
       y="871.02313" />
    <path
       style="fill:#c5c5c5;fill-opacity:1;stroke:none;stroke-opacity:1"
       d="m 63,842.36218 h 130 l 10,34.99998 H 53 Z"
       id="rect975"
       inkscape:connector-curvature="0"
       sodipodi:nodetypes="ccccc" />
    <g
       style="opacity:1"
       id="g994">
      <path
         id="path998"
         d="M 103.54297 822.61133 C 97.98791 822.57383 93.336327 827.16369 93.298828 832.71875 L 93.203125 846.86719 C 93.165626 852.42223 97.755506 857.07381 103.31055 857.11133 L 152.45703 857.44336 C 158.01209 857.48086 162.66366 852.89104 162.70117 847.33594 L 162.79688 833.1875 C 162.83434 827.6325 158.24452 822.98088 152.68945 822.94336 L 103.54297 822.61133 z M 103.47852 832.11133 L 152.62695 832.44336 C 153.08349 832.44644 153.29995 832.66852 153.29688 833.125 L 153.20117 847.27148 C 153.19809 847.72808 152.97799 847.94644 152.52148 847.94336 L 103.37305 847.61133 C 102.91653 847.60824 102.70004 847.38813 102.70312 846.93164 L 102.79883 832.7832 C 102.80191 832.32671 103.02201 832.10825 103.47852 832.11133 z "
         style="color:#000000;font-style:normal;font-variant:normal;font-weight:normal;font-stretch:normal;font-size:medium;line-height:normal;font-family:sans-serif;font-variant-ligatures:normal;font-variant-position:normal;font-variant-caps:normal;font-variant-numeric:normal;font-variant-alternates:normal;font-variant-east-asian:normal;font-feature-settings:normal;font-variation-settings:normal;text-indent:0;text-align:start;text-decoration:none;text-decoration-line:none;text-decoration-style:solid;text-decoration-color:#000000;letter-spacing:normal;word-spacing:normal;text-transform:none;writing-mode:lr-tb;direction:ltr;text-orientation:mixed;dominant-baseline:auto;baseline-shift:baseline;text-anchor:start;white-space:normal;shape-padding:0;shape-margin:0;inline-size:0;clip-rule:nonzero;display:inline;overflow:visible;visibility:visible;isolation:auto;mix-blend-mode:normal;color-interpolation:sRGB;color-interpolation-filters:linearRGB;solid-color:#000000;solid-opacity:1;vector-effect:none;fill:#c5c5c5;fill-opacity:1;fill-rule:nonzero;stroke:none;stroke-width:9.5;stroke-linecap:round;stroke-linejoin:round;stroke-miterlimit:4;stroke-dasharray:none;stroke-dashoffset:0;stroke-opacity:1;anonymous:0;color-rendering:auto;image-rendering:auto;shape-rendering:auto;text-rendering:auto;enable-background:accumulate;stop-color:#000000;stop-opacity:1" />
    </g>
  </g>
</svg>
