<?xml version="1.0" encoding="UTF-8" standalone="no"?>
<!-- Created with Inkscape (http://www.inkscape.org/) -->

<svg
   xmlns:dc="http://purl.org/dc/elements/1.1/"
   xmlns:cc="http://creativecommons.org/ns#"
   xmlns:rdf="http://www.w3.org/1999/02/22-rdf-syntax-ns#"
   xmlns:svg="http://www.w3.org/2000/svg"
   xmlns="http://www.w3.org/2000/svg"
   xmlns:sodipodi="http://sodipodi.sourceforge.net/DTD/sodipodi-0.dtd"
   xmlns:inkscape="http://www.inkscape.org/namespaces/inkscape"
   sodipodi:docname="mail-attachment.svg"
   viewBox="0 0 256 256"
   height="256"
   width="256"
   inkscape:version="0.92.4 (unknown)"
   version="1.1"
   id="svg2">
  <sodipodi:namedview
     showguides="true"
     inkscape:current-layer="svg2"
     inkscape:window-maximized="1"
     inkscape:window-y="0"
     inkscape:window-x="0"
     inkscape:cy="128"
     inkscape:cx="128"
     inkscape:zoom="3.3046875"
     showgrid="true"
     id="namedview4"
     inkscape:window-height="1048"
     inkscape:window-width="1920"
     inkscape:pageshadow="2"
     inkscape:pageopacity="0"
     guidetolerance="10"
     gridtolerance="10"
     objecttolerance="10"
     borderopacity="1"
     bordercolor="#666666"
     pagecolor="#ffffff">
    <inkscape:grid
       spacingy="5"
       spacingx="5"
       id="grid4156"
       type="xygrid" />
  </sodipodi:namedview>
  <metadata
     id="metadata8">
    <rdf:RDF>
      <cc:Work
         rdf:about="">
        <dc:format>image/svg+xml</dc:format>
        <dc:type
           rdf:resource="http://purl.org/dc/dcmitype/StillImage" />
        <dc:title />
      </cc:Work>
    </rdf:RDF>
  </metadata>
  <defs
     id="defs6">
    <clipPath
       id="clipPath4209"
       clipPathUnits="userSpaceOnUse">
      <circle
         r="128"
         cy="128"
         cx="128"
         id="circle4211"
         style="opacity:1;fill:#66a767;fill-opacity:1;stroke:none;stroke-width:3.5;stroke-linecap:round;stroke-linejoin:round;stroke-miterlimit:4;stroke-dasharray:none;stroke-opacity:1" />
    </clipPath>
    <clipPath
       clipPathUnits="userSpaceOnUse"
       id="clipPath4300">
      <circle
         r="128"
         cy="128"
         cx="128"
         id="circle4302"
         style="opacity:1;fill:#f4b2b2;fill-opacity:1;stroke:none;stroke-width:3.5;stroke-linecap:round;stroke-linejoin:round;stroke-miterlimit:4;stroke-dasharray:none;stroke-opacity:1" />
    </clipPath>
  </defs>
  <path
     d="M 256,-128 A 128,128 0 0 1 192,-17.148747 128,128 0 0 1 63.999997,-17.14875 128,128 0 0 1 0,-128.00001 l 128,1e-5 z"
     sodipodi:end="3.1415927"
     sodipodi:start="0"
     sodipodi:ry="128"
     sodipodi:rx="128"
     sodipodi:cy="-128"
     sodipodi:cx="128"
     sodipodi:type="arc"
     id="path4547"
     style="opacity:1;fill:#29603e;fill-opacity:1;stroke:none;stroke-width:3.5;stroke-linecap:round;stroke-linejoin:round;stroke-miterlimit:4;stroke-dasharray:none;stroke-opacity:1"
     transform="scale(1,-1)" />
  <path
     style="opacity:1;fill:#3a8757;fill-opacity:1;stroke:none;stroke-width:3.5;stroke-linecap:round;stroke-linejoin:round;stroke-miterlimit:4;stroke-dasharray:none;stroke-opacity:1"
     id="path4166"
     sodipodi:type="arc"
     sodipodi:cx="128"
     sodipodi:cy="128"
     sodipodi:rx="128"
     sodipodi:ry="128"
     sodipodi:start="0"
     sodipodi:end="3.1415927"
     d="m 256,128 a 128,128 0 0 1 -64,110.85125 128,128 0 0 1 -128.000003,0 A 128,128 0 0 1 0,127.99999 L 128,128 Z" />
  <text
     xml:space="preserve"
     style="font-style:normal;font-weight:normal;font-size:40px;line-height:1.25;font-family:sans-serif;letter-spacing:0px;word-spacing:0px;fill:#000000;fill-opacity:1;stroke:none"
     x="-100"
     y="44"
     id="text839"><tspan
       sodipodi:role="line"
       id="tspan837"
       x="-100"
       y="79.390625" /></text>
  <text
     xml:space="preserve"
     style="font-style:normal;font-weight:normal;font-size:40px;line-height:1.25;font-family:sans-serif;letter-spacing:0px;word-spacing:0px;fill:#000000;fill-opacity:1;stroke:none"
     x="62"
     y="181"
     id="text847"><tspan
       sodipodi:role="line"
       id="tspan845"
       x="62"
       y="216.39062"
       style="font-size:192px" /></text>
  <path
     inkscape:connector-curvature="0"
     d="M 140.65174,204.03578 62.870226,126.25425 c -15.55789,-15.55789 -15.55789,-41.011087 10e-7,-56.568978 15.557555,-15.557561 41.010753,-15.557559 56.568643,3.31e-4 l 81.31684,81.316837 c 9.89895,9.89895 9.89928,25.4565 3.3e-4,35.35545 -9.89861,9.89862 -25.4565,9.89862 -35.35544,-3.3e-4 L 84.083428,105.04038 c -3.887642,-3.88764 -3.887326,-10.25458 3.25e-4,-14.142232 3.887662,-3.887656 10.254283,-3.887655 14.141918,-6e-6 l 67.175259,67.175258 10.6066,-10.6066 -67.17526,-67.17526 c -9.898933,-9.898285 -25.456504,-9.898616 -35.355458,3.31e-4 -9.898935,9.898939 -9.898931,25.456849 -3.21e-4,35.355459 l 81.317169,81.31717 c 15.55624,15.55624 41.01109,15.55789 56.56898,0 15.5579,-15.55791 15.55624,-41.01276 1e-5,-56.56899 L 130.0458,59.078669 c -21.56587,-21.565208 -56.216967,-21.565207 -77.782174,2e-6 -21.565209,21.565208 -21.565541,56.216639 -1e-6,77.782179 l 77.781515,77.78154 z"
     id="Icon_3_"
     style="stroke-width:0.46875003;fill:#ffffff;fill-opacity:1" />
</svg>
