<?xml version="1.0" encoding="UTF-8" standalone="no"?>
<svg
   xmlns:dc="http://purl.org/dc/elements/1.1/"
   xmlns:cc="http://creativecommons.org/ns#"
   xmlns:rdf="http://www.w3.org/1999/02/22-rdf-syntax-ns#"
   xmlns:svg="http://www.w3.org/2000/svg"
   xmlns="http://www.w3.org/2000/svg"
   xmlns:sodipodi="http://sodipodi.sourceforge.net/DTD/sodipodi-0.dtd"
   xmlns:inkscape="http://www.inkscape.org/namespaces/inkscape"
   sodipodi:docname="network-wired-disconnected.svg"
   inkscape:version="1.0beta2 (unknown)"
   version="1.1"
   id="svg2"
   viewBox="0 0 256 256"
   height="256"
   width="256">
  <sodipodi:namedview
     inkscape:document-rotation="0"
     showguides="false"
     inkscape:window-maximized="1"
     inkscape:window-y="0"
     inkscape:window-x="0"
     inkscape:window-height="1048"
     inkscape:window-width="1920"
     units="px"
     showgrid="true"
     inkscape:current-layer="layer1"
     inkscape:document-units="px"
     inkscape:cy="128"
     inkscape:cx="128"
     inkscape:zoom="3.3632812"
     inkscape:pageshadow="2"
     inkscape:pageopacity="0.0"
     borderopacity="1.0"
     bordercolor="#666666"
     pagecolor="#ffffff"
     id="base">
    <inkscape:grid
       spacingy="5"
       spacingx="5"
       id="grid4136"
       type="xygrid" />
  </sodipodi:namedview>
  <defs
     id="defs4">
    <clipPath
       id="clipPath4828"
       clipPathUnits="userSpaceOnUse">
      <circle
         style="opacity:1;fill:#68bdff;fill-opacity:1;stroke:none;stroke-width:52.82038116;stroke-linecap:round;stroke-linejoin:round;stroke-miterlimit:4;stroke-dasharray:none;stroke-opacity:1"
         id="circle4830"
         cx="128"
         cy="924.36218"
         r="128" />
    </clipPath>
    <clipPath
       id="clipPath4851"
       clipPathUnits="userSpaceOnUse">
      <path
         inkscape:connector-curvature="0"
         style="opacity:1;fill:#68bdff;fill-opacity:1;stroke:none;stroke-width:52.82038116;stroke-linecap:round;stroke-linejoin:round;stroke-miterlimit:4;stroke-dasharray:none;stroke-opacity:1"
         d="m 128,796.36216 a 128,128 0 0 0 -87.652344,34.83789 l 86.988284,87.51367 90.69336,-85.25976 A 128,128 0 0 0 128,796.36216 Z M 23.730469,850.28404 A 128,128 0 0 0 0,924.36216 128,128 0 0 0 128,1052.3622 128,128 0 0 0 256,924.36216 128,128 0 0 0 234.1582,852.93052 l -95.94336,90.19922 c -0.48074,0.45195 -0.99482,0.84265 -1.52148,1.20508 -0.25351,0.30378 -0.51825,0.602 -0.80469,0.88672 -4.95863,4.92876 -12.91888,4.90394 -17.84765,-0.0547 L 23.730469,850.28404 Z"
         id="path4853" />
    </clipPath>
    <clipPath
       id="clipPath4147"
       clipPathUnits="userSpaceOnUse">
      <path
         inkscape:connector-curvature="0"
         style="opacity:1;fill:#fff168;fill-opacity:1;stroke:none;stroke-width:52.82038116;stroke-linecap:round;stroke-linejoin:round;stroke-miterlimit:4;stroke-dasharray:none;stroke-opacity:1"
         d="M 23.730469,850.28404 A 128,128 0 0 0 0,924.36216 128,128 0 0 0 128,1052.3622 128,128 0 0 0 256,924.36216 128,128 0 0 0 234.1582,852.93052 l -95.94336,90.19922 c -0.48074,0.45195 -0.99482,0.84265 -1.52148,1.20508 -0.25351,0.30378 -0.51825,0.602 -0.80469,0.88672 -4.95863,4.92876 -12.91888,4.90394 -17.84765,-0.0547 l -94.310551,-94.8828 z"
         id="path4149" />
    </clipPath>
    <clipPath
       clipPathUnits="userSpaceOnUse"
       id="clipPath4292">
      <circle
         style="fill:#ffaa31;fill-opacity:1;stroke:none;stroke-width:9.51799965;stroke-linecap:butt;stroke-linejoin:miter;stroke-miterlimit:4;stroke-dasharray:none;stroke-opacity:1"
         id="circle4294"
         cx="132.27344"
         cy="904.67468"
         r="105.41177" />
    </clipPath>
    <clipPath
       id="clipPath4203"
       clipPathUnits="userSpaceOnUse">
      <circle
         style="fill:#62b7dc;fill-opacity:1;stroke:none;stroke-width:9.51799965;stroke-linecap:butt;stroke-linejoin:miter;stroke-miterlimit:4;stroke-dasharray:none;stroke-opacity:1"
         id="circle4205"
         cx="128"
         cy="924.36218"
         r="128" />
    </clipPath>
    <clipPath
       id="clipPath4290"
       clipPathUnits="userSpaceOnUse">
      <circle
         r="128"
         cy="924.36218"
         cx="128"
         id="circle4292"
         style="fill:#bbbbbb;fill-opacity:1;stroke:none;stroke-width:9.51799965;stroke-linecap:butt;stroke-linejoin:miter;stroke-miterlimit:4;stroke-dasharray:none;stroke-opacity:1" />
    </clipPath>
    <clipPath
       clipPathUnits="userSpaceOnUse"
       id="clipPath4254">
      <circle
         style="fill:#d64843;fill-opacity:1;stroke:none;stroke-width:9.51799965;stroke-linecap:butt;stroke-linejoin:miter;stroke-miterlimit:4;stroke-dasharray:none;stroke-opacity:1"
         id="circle4256"
         cx="128"
         cy="924.36218"
         r="128" />
    </clipPath>
    <clipPath
       id="clipPath4402"
       clipPathUnits="userSpaceOnUse">
      <circle
         style="fill:#6ac18d;fill-opacity:1;stroke:none;stroke-width:9.51799965;stroke-linecap:butt;stroke-linejoin:miter;stroke-miterlimit:4;stroke-dasharray:none;stroke-opacity:1"
         id="circle4404"
         cx="128"
         cy="924.36218"
         r="128" />
    </clipPath>
  </defs>
  <metadata
     id="metadata7">
    <rdf:RDF>
      <cc:Work
         rdf:about="">
        <dc:format>image/svg+xml</dc:format>
        <dc:type
           rdf:resource="http://purl.org/dc/dcmitype/StillImage" />
        <dc:title />
      </cc:Work>
    </rdf:RDF>
  </metadata>
  <g
     transform="translate(0,-796.36216)"
     id="layer1"
     inkscape:groupmode="layer"
     inkscape:label="Layer 1">
    <path
       transform="scale(1,-1)"
       style="fill:#880606;fill-opacity:1;stroke:none;stroke-width:9.518;stroke-linecap:butt;stroke-linejoin:miter;stroke-miterlimit:4;stroke-dasharray:none;stroke-opacity:1"
       id="path896"
       sodipodi:type="arc"
       sodipodi:cx="128"
       sodipodi:cy="-924.36218"
       sodipodi:rx="128"
       sodipodi:ry="128"
       sodipodi:start="0"
       sodipodi:end="3.1415927"
       sodipodi:open="true"
       sodipodi:arc-type="arc"
       d="m 256,-924.36218 a 128,128 0 0 1 -64,110.85125 128,128 0 0 1 -128.000003,0 A 128,128 0 0 1 0,-924.36219" />
    <path
       d="m 256,924.36218 a 128,128 0 0 1 -64,110.85122 128,128 0 0 1 -128.000003,0 A 128,128 0 0 1 0,924.36218"
       sodipodi:arc-type="arc"
       sodipodi:open="true"
       sodipodi:end="3.1415927"
       sodipodi:start="0"
       sodipodi:ry="128"
       sodipodi:rx="128"
       sodipodi:cy="924.36218"
       sodipodi:cx="128"
       sodipodi:type="arc"
       id="path4145"
       style="fill:#f85656;fill-opacity:1;stroke:none;stroke-width:9.518;stroke-linecap:butt;stroke-linejoin:miter;stroke-miterlimit:4;stroke-dasharray:none;stroke-opacity:1" />
    <g
       id="g4206">
      <path
         id="rect4170"
         transform="translate(0,796.36216)"
         d="M 53 87.867188 L 53 203.25195 L 76.333984 203.25195 L 76.333984 171 C 76.333984 168.23001 78.563997 166 81.333984 166 C 84.103972 166 86.333984 168.23001 86.333984 171 L 86.333984 203.25195 L 99.666016 203.25195 L 99.666016 171 C 99.666016 168.23001 101.89603 166 104.66602 166 C 107.436 166 109.66602 168.23001 109.66602 171 L 109.66602 203.25195 L 123 203.25195 L 123 171 C 123 168.23001 125.23001 166 128 166 C 130.76999 166 133 168.23001 133 171 L 133 203.25195 L 146.33398 203.25195 L 146.33398 171 C 146.33398 168.23001 148.564 166 151.33398 166 C 154.10397 166 156.33398 168.23001 156.33398 171 L 156.33398 203.25195 L 169.66602 203.25195 L 169.66602 171 C 169.66602 168.23001 171.89603 166 174.66602 166 C 177.436 166 179.66602 168.23001 179.66602 171 L 179.66602 203.25195 L 203 203.25195 L 203 87.867188 L 53 87.867188 z "
         style="fill:#ffffff;fill-opacity:1;stroke:none;stroke-opacity:1" />
      <rect
         y="870.06903"
         x="76.07692"
         height="17.307693"
         width="103.84616"
         id="rect4175"
         style="fill:#ffffff;fill-opacity:1;stroke:none;stroke-opacity:1" />
      <rect
         style="fill:#ffffff;fill-opacity:1;stroke:none;stroke-opacity:1"
         id="rect4177"
         width="57.69231"
         height="23.076923"
         x="99.153839"
         y="849.1109" />
    </g>
  </g>
</svg>
