<?xml version="1.0" encoding="UTF-8" standalone="no"?>
<svg
   xmlns:dc="http://purl.org/dc/elements/1.1/"
   xmlns:cc="http://creativecommons.org/ns#"
   xmlns:rdf="http://www.w3.org/1999/02/22-rdf-syntax-ns#"
   xmlns:svg="http://www.w3.org/2000/svg"
   xmlns="http://www.w3.org/2000/svg"
   xmlns:sodipodi="http://sodipodi.sourceforge.net/DTD/sodipodi-0.dtd"
   xmlns:inkscape="http://www.inkscape.org/namespaces/inkscape"
   sodipodi:docname="notification-disabled-symbolic.svg"
   inkscape:version="1.0 (4035a4fb49, 2020-05-01)"
   version="1.1"
   id="svg2"
   viewBox="0 0 256 256"
   height="256"
   width="256">
  <sodipodi:namedview
     inkscape:document-rotation="0"
     inkscape:window-maximized="1"
     inkscape:window-y="0"
     inkscape:window-x="0"
     inkscape:window-height="1048"
     inkscape:window-width="1920"
     units="px"
     showgrid="true"
     inkscape:current-layer="layer1"
     inkscape:document-units="px"
     inkscape:cy="128"
     inkscape:cx="128"
     inkscape:zoom="3.3125"
     inkscape:pageshadow="2"
     inkscape:pageopacity="0.0"
     borderopacity="1.0"
     bordercolor="#666666"
     pagecolor="#ffffff"
     id="base">
    <inkscape:grid
       spacingy="5"
       spacingx="5"
       id="grid4136"
       type="xygrid" />
  </sodipodi:namedview>
  <defs
     id="defs4">
    <clipPath
       id="clipPath4828"
       clipPathUnits="userSpaceOnUse">
      <circle
         style="opacity:1;fill:#68bdff;fill-opacity:1;stroke:none;stroke-width:52.82038116;stroke-linecap:round;stroke-linejoin:round;stroke-miterlimit:4;stroke-dasharray:none;stroke-opacity:1"
         id="circle4830"
         cx="128"
         cy="924.36218"
         r="128" />
    </clipPath>
    <clipPath
       id="clipPath4851"
       clipPathUnits="userSpaceOnUse">
      <path
         inkscape:connector-curvature="0"
         style="opacity:1;fill:#68bdff;fill-opacity:1;stroke:none;stroke-width:52.82038116;stroke-linecap:round;stroke-linejoin:round;stroke-miterlimit:4;stroke-dasharray:none;stroke-opacity:1"
         d="m 128,796.36216 a 128,128 0 0 0 -87.652344,34.83789 l 86.988284,87.51367 90.69336,-85.25976 A 128,128 0 0 0 128,796.36216 Z M 23.730469,850.28404 A 128,128 0 0 0 0,924.36216 128,128 0 0 0 128,1052.3622 128,128 0 0 0 256,924.36216 128,128 0 0 0 234.1582,852.93052 l -95.94336,90.19922 c -0.48074,0.45195 -0.99482,0.84265 -1.52148,1.20508 -0.25351,0.30378 -0.51825,0.602 -0.80469,0.88672 -4.95863,4.92876 -12.91888,4.90394 -17.84765,-0.0547 L 23.730469,850.28404 Z"
         id="path4853" />
    </clipPath>
    <clipPath
       id="clipPath4147"
       clipPathUnits="userSpaceOnUse">
      <path
         inkscape:connector-curvature="0"
         style="opacity:1;fill:#fff168;fill-opacity:1;stroke:none;stroke-width:52.82038116;stroke-linecap:round;stroke-linejoin:round;stroke-miterlimit:4;stroke-dasharray:none;stroke-opacity:1"
         d="M 23.730469,850.28404 A 128,128 0 0 0 0,924.36216 128,128 0 0 0 128,1052.3622 128,128 0 0 0 256,924.36216 128,128 0 0 0 234.1582,852.93052 l -95.94336,90.19922 c -0.48074,0.45195 -0.99482,0.84265 -1.52148,1.20508 -0.25351,0.30378 -0.51825,0.602 -0.80469,0.88672 -4.95863,4.92876 -12.91888,4.90394 -17.84765,-0.0547 l -94.310551,-94.8828 z"
         id="path4149" />
    </clipPath>
    <clipPath
       clipPathUnits="userSpaceOnUse"
       id="clipPath4292">
      <circle
         style="fill:#ffaa31;fill-opacity:1;stroke:none;stroke-width:9.51799965;stroke-linecap:butt;stroke-linejoin:miter;stroke-miterlimit:4;stroke-dasharray:none;stroke-opacity:1"
         id="circle4294"
         cx="132.27344"
         cy="904.67468"
         r="105.41177" />
    </clipPath>
    <clipPath
       id="clipPath4712"
       clipPathUnits="userSpaceOnUse">
      <circle
         style="fill:#94d6d8;fill-opacity:1;stroke:none;stroke-width:9.51799965;stroke-linecap:butt;stroke-linejoin:miter;stroke-miterlimit:4;stroke-dasharray:none;stroke-opacity:1"
         id="circle4714"
         cx="125.25592"
         cy="925.57971"
         r="128" />
    </clipPath>
  </defs>
  <metadata
     id="metadata7">
    <rdf:RDF>
      <cc:Work
         rdf:about="">
        <dc:format>image/svg+xml</dc:format>
        <dc:type
           rdf:resource="http://purl.org/dc/dcmitype/StillImage" />
        <dc:title />
      </cc:Work>
    </rdf:RDF>
  </metadata>
  <g
     transform="translate(0,-796.36216)"
     id="layer1"
     inkscape:groupmode="layer"
     inkscape:label="Layer 1">
    <path
       id="path4145"
       transform="translate(0,796.36216)"
       d="M 128 0 A 128 128 0 0 0 0 128 A 128 128 0 0 0 128 256 A 128 128 0 0 0 256 128 A 128 128 0 0 0 128 0 z M 128 28 A 13.793103 13.793103 0 0 1 141.79297 41.792969 L 141.79297 41.931641 C 166.1378 48.221295 183.14429 71.833811 183.17188 96.964844 C 183.17188 96.964844 183.18087 113.15245 185.7832 130.81445 L 239.69531 162.02734 L 229.30469 179.97461 L 192.88281 158.88867 C 196.09715 166.504 200.37325 172.37582 206.06836 174.50977 C 206.30284 174.6477 206.4004 174.938 206.62109 175.10352 A 9.9999994 9.9999994 0 0 1 208.85547 177.51758 C 209.08995 177.88999 209.37916 178.16629 209.57227 178.58008 A 10.17931 10.17931 0 0 1 210.75781 183.18555 C 210.75781 188.90968 206.15199 193.53125 200.41406 193.53125 L 55.585938 193.53125 C 49.8618 193.53125 45.242188 188.90968 45.242188 183.18555 A 10.17931 10.17931 0 0 1 46.427734 178.58008 C 46.620838 178.18008 46.909927 177.88999 47.158203 177.51758 A 10.013793 10.013793 0 0 1 49.378906 175.10352 C 49.613389 174.92421 49.710951 174.6477 49.931641 174.50977 C 72.828191 165.93046 72.828125 96.964844 72.828125 96.964844 C 72.830818 94.511851 72.99892 92.075398 73.316406 89.666016 L 32.304688 65.921875 L 42.695312 47.974609 L 79.880859 69.503906 C 87.063422 56.215621 99.249637 45.798177 114.20703 41.931641 L 114.20703 41.792969 A 13.793103 13.793103 0 0 1 128 28 z M 79.880859 69.503906 C 76.520058 75.721643 74.252023 82.565684 73.316406 89.666016 L 192.88281 158.88867 C 189.43401 150.71785 187.21695 140.54531 185.7832 130.81445 L 79.880859 69.503906 z M 101.33789 207.31055 L 154.70312 207.31055 A 27.586205 27.586205 0 0 1 128 228 A 27.586205 27.586205 0 0 1 101.33789 207.31055 z "
       style="fill:#ffffff;fill-opacity:0.74757415;stroke:none;stroke-width:9.51799965;stroke-linecap:butt;stroke-linejoin:miter;stroke-miterlimit:4;stroke-dasharray:none;stroke-opacity:1" />
    <g
       id="g4"
       transform="matrix(13.793103,0,0,13.793103,-4023.724,3721.0517)"
       style="color:#bebebe" />
  </g>
</svg>
