<?xml version="1.0" encoding="UTF-8" standalone="no"?>
<!-- Created with Inkscape (http://www.inkscape.org/) -->

<svg
   xmlns:dc="http://purl.org/dc/elements/1.1/"
   xmlns:cc="http://creativecommons.org/ns#"
   xmlns:rdf="http://www.w3.org/1999/02/22-rdf-syntax-ns#"
   xmlns:svg="http://www.w3.org/2000/svg"
   xmlns="http://www.w3.org/2000/svg"
   xmlns:sodipodi="http://sodipodi.sourceforge.net/DTD/sodipodi-0.dtd"
   xmlns:inkscape="http://www.inkscape.org/namespaces/inkscape"
   width="256"
   height="256"
   viewBox="0 0 256 256"
   id="svg2"
   version="1.1"
   inkscape:version="0.92.3 (2405546, 2018-03-11)"
   sodipodi:docname="folder-new.svg">
  <sodipodi:namedview
     id="base"
     pagecolor="#ffffff"
     bordercolor="#666666"
     borderopacity="1.0"
     inkscape:pageopacity="0.0"
     inkscape:pageshadow="2"
     inkscape:zoom="3.3125"
     inkscape:cx="128"
     inkscape:cy="128"
     inkscape:document-units="px"
     inkscape:current-layer="layer1"
     showgrid="true"
     units="px"
     inkscape:window-width="1920"
     inkscape:window-height="1048"
     inkscape:window-x="0"
     inkscape:window-y="0"
     inkscape:window-maximized="1">
    <inkscape:grid
       type="xygrid"
       id="grid4136"
       spacingx="5"
       spacingy="5" />
  </sodipodi:namedview>
  <defs
     id="defs4">
    <filter
       style="color-interpolation-filters:sRGB;"
       inkscape:label="Drop Shadow"
       id="filter4298">
      <feFlood
         flood-opacity="0.498039"
         flood-color="rgb(0,0,0)"
         result="flood"
         id="feFlood4300" />
      <feComposite
         in="flood"
         in2="SourceGraphic"
         operator="in"
         result="composite1"
         id="feComposite4302" />
      <feGaussianBlur
         in="composite1"
         stdDeviation="1.6"
         result="blur"
         id="feGaussianBlur4304" />
      <feOffset
         dx="-2.77556e-17"
         dy="-7.7"
         result="offset"
         id="feOffset4306" />
      <feComposite
         in="SourceGraphic"
         in2="offset"
         operator="over"
         result="composite2"
         id="feComposite4308" />
    </filter>
    <clipPath
       id="clipPath5092"
       clipPathUnits="userSpaceOnUse">
      <path
         style="opacity:0.91000001;fill:#38bae1;fill-opacity:1;stroke:none;stroke-width:0;stroke-linecap:round;stroke-linejoin:round;stroke-miterlimit:4;stroke-dasharray:none;stroke-opacity:1;filter:url(#filter4298)"
         d="m 10.42124,864.27189 42.534575,-0.0913 21.267287,-0.0456 c 7.245384,-0.0152 14.490768,-0.0305 21.736152,-0.0456 8.394956,-10.58827 10.291846,-15.47699 14.084686,-17.71727 3.79283,-2.24028 9.4816,-1.8321 25.46032,-1.82658 23.36644,-0.007 109.60565,-0.67788 109.60565,-0.67788 l -0.0879,12.1518 -0.0879,12.1518 -0.0879,12.15181 -0.0879,12.1518 -0.0879,12.1518 -0.0879,12.1518 -0.0879,12.15181 -0.0879,12.1518 -0.0879,12.1518 -0.0879,12.1518 -0.0879,12.15181 -0.0879,12.1518 -0.0879,12.15181 -0.0879,12.1518 c 0,0 0.59382,8.1589 -0.0879,12.1518 -0.58177,3.4075 -0.78038,7.5176 -3.36995,9.8075 -2.83121,2.5035 -7.3341,1.9515 -11.09295,2.3443 -4.76571,0.4981 -14.375,0 -14.375,0 l -14.375,0 -14.375,0 -14.37501,0 -14.375,0 -14.375,0 -14.375,0 -14.375,0 -14.375,0 -14.375001,0 c 0,0 -9.583334,0 -14.375001,0 -4.791667,0 -9.583334,0 -14.375001,0 -4.791667,0 -9.500662,0.094 -14.375001,0 -4.874339,-0.093 -10.854147,0.062 -15.030858,-0.571 -4.176712,-0.6329 -7.699545,-0.5576 -9.968228,-2.7111 -2.268683,-2.1535 -2.21606,-4.4991 -2.972258,-7.5945 -0.756198,-3.0955 -0.95689,-7.246 -1.188915,-10.8765 -0.232024,-3.6305 -0.136752,-7.251 -0.205128,-10.8765 -0.06838,-3.6255 -0.136752,-7.25106 -0.205128,-10.87658 -0.06838,-3.62552 -0.136753,-7.25102 -0.205129,-10.87653 -0.06838,-3.62551 -0.136752,-7.25103 -0.205128,-10.87654 -0.06838,-3.62551 -0.205129,-10.87653 -0.205129,-10.87653 L 12.062467,951.28418 11.857339,940.40764 11.65221,929.53111 11.447082,918.65457 11.241954,907.77803 11.036825,896.9015 10.831697,886.02496 10.626568,875.14843 Z"
         id="path5094"
         inkscape:connector-curvature="0"
         sodipodi:nodetypes="cccccccccccccccccccccssscccccccccazzzzzzzzzzzsccccccccc"
         transform="matrix(1.2315339,0,0,1.0608965,-109.24268,-939.37809)" />
    </clipPath>
    <clipPath
       id="clipPath4606"
       clipPathUnits="userSpaceOnUse">
      <g
         transform="matrix(1.0750907,0,0,1.0750909,-89.50666,-879.38234)"
         id="g4616">
        <rect
           y="737.36218"
           x="52.372032"
           height="45"
           width="151.25594"
           id="rect4608"
           style="opacity:1;fill:#a7a7a7;fill-opacity:1;stroke:none;stroke-width:11.4685173;stroke-linecap:butt;stroke-linejoin:miter;stroke-miterlimit:4;stroke-dasharray:none;stroke-opacity:1" />
        <rect
           style="opacity:1;fill:#d3d3d3;fill-opacity:1;stroke:none;stroke-width:12.10504246;stroke-linecap:butt;stroke-linejoin:miter;stroke-miterlimit:4;stroke-dasharray:none;stroke-opacity:1"
           id="rect4610"
           width="168.51187"
           height="45"
           x="43.744064"
           y="752.36218" />
        <rect
           y="767.36218"
           x="28"
           height="45"
           width="200"
           id="rect4612"
           style="opacity:1;fill:#ffffff;fill-opacity:1;stroke:none;stroke-width:13.18760967;stroke-linecap:butt;stroke-linejoin:miter;stroke-miterlimit:4;stroke-dasharray:none;stroke-opacity:1" />
        <path
           inkscape:connector-curvature="0"
           style="fill:#2ccaff;fill-opacity:1;fill-rule:evenodd;stroke:none;stroke-width:2.84884405px;stroke-linecap:butt;stroke-linejoin:miter;stroke-opacity:1"
           d="M 5.505859,787.36214 A 128,128 0 0 0 0,824.36214 128,128 0 0 0 128,952.3621 128,128 0 0 0 256,824.36214 a 128,128 0 0 0 -5.58203,-37 z"
           id="path4614" />
      </g>
    </clipPath>
    <clipPath
       clipPathUnits="userSpaceOnUse"
       id="clipPath5137">
      <path
         id="path5139"
         d="M 66.927107,896.43912 A 126.11779,126.11779 0 0 0 61.50221,932.89507 126.11779,126.11779 0 0 0 187.62,1059.0129 126.11779,126.11779 0 0 0 313.7378,932.89507 126.11779,126.11779 0 0 0 308.23785,896.43912 Z"
         style="fill:#2ccaff;fill-opacity:1;fill-rule:evenodd;stroke:none;stroke-width:2.80695248px;stroke-linecap:butt;stroke-linejoin:miter;stroke-opacity:1"
         inkscape:connector-curvature="0" />
    </clipPath>
  </defs>
  <metadata
     id="metadata7">
    <rdf:RDF>
      <cc:Work
         rdf:about="">
        <dc:format>image/svg+xml</dc:format>
        <dc:type
           rdf:resource="http://purl.org/dc/dcmitype/StillImage" />
        <dc:title />
      </cc:Work>
    </rdf:RDF>
  </metadata>
  <g
     inkscape:label="Layer 1"
     inkscape:groupmode="layer"
     id="layer1"
     transform="translate(0,-796.36216)">
    <circle
       r="128"
       cy="924.36218"
       cx="128"
       id="path4152-3"
       style="fill:#218dd7;fill-opacity:1;stroke:none;stroke-width:10;stroke-linejoin:round;stroke-miterlimit:4;stroke-dasharray:none;stroke-opacity:0.25882353" />
    <g
       id="g977"
       transform="translate(0,10.000015)">
      <rect
         style="opacity:1;fill:#a7a7a7;fill-opacity:1;stroke:none;stroke-width:11.4685173;stroke-linecap:butt;stroke-linejoin:miter;stroke-miterlimit:4;stroke-dasharray:none;stroke-opacity:1"
         id="rect4515-3"
         width="151.25594"
         height="45"
         x="52.372032"
         y="845.36218" />
      <rect
         y="860.36218"
         x="43.744064"
         height="45"
         width="168.51187"
         id="rect5393-6"
         style="opacity:1;fill:#d3d3d3;fill-opacity:1;stroke:none;stroke-width:12.10504246;stroke-linecap:butt;stroke-linejoin:miter;stroke-miterlimit:4;stroke-dasharray:none;stroke-opacity:1" />
      <rect
         style="opacity:1;fill:#ffffff;fill-opacity:1;stroke:none;stroke-width:13.18760967;stroke-linecap:butt;stroke-linejoin:miter;stroke-miterlimit:4;stroke-dasharray:none;stroke-opacity:1"
         id="rect5395-7"
         width="200"
         height="45"
         x="28"
         y="875.36218" />
    </g>
    <path
       inkscape:connector-curvature="0"
       style="fill:#2ccaff;fill-opacity:1;fill-rule:evenodd;stroke:none;stroke-width:2.84884405px;stroke-linecap:butt;stroke-linejoin:miter;stroke-opacity:1"
       d="M 0.211321,917.14638 C 0.073171,919.54717 0.00259,921.95334 0,924.36214 c 0,70.6925 57.307552,127.99996 128,127.99996 70.69245,0 128,-57.30746 128,-127.99996 -0.007,-2.3254 -0.0775,-4.64823 -0.21093,-6.96602 z"
       id="path57-5"
       sodipodi:nodetypes="ccsccc" />
    <g
       style="fill:#ffffff;fill-opacity:1"
       id="g4183"
       transform="matrix(1.0149242,0,0,1.0149242,-62.420081,-7.563544)">
      <rect
         style="fill:#ffffff;fill-opacity:1;stroke:none;stroke-width:30;stroke-linecap:round;stroke-linejoin:round;stroke-miterlimit:4;stroke-dasharray:none;stroke-opacity:1"
         id="rect4173"
         width="25.24"
         height="98.529526"
         x="175"
         y="928.46124"
         ry="8.9009171" />
      <rect
         ry="8.9009171"
         y="-236.88477"
         x="965.10602"
         height="98.529526"
         width="25.24"
         id="rect4181"
         style="fill:#ffffff;fill-opacity:1;stroke:none;stroke-width:30;stroke-linecap:round;stroke-linejoin:round;stroke-miterlimit:4;stroke-dasharray:none;stroke-opacity:1"
         transform="rotate(90)" />
    </g>
  </g>
</svg>
