<?xml version="1.0" encoding="UTF-8" standalone="no"?>
<!-- Created with Inkscape (http://www.inkscape.org/) -->

<svg
   sodipodi:docname="audio-headset.svg"
   inkscape:version="1.2.2 (b0a8486541, 2022-12-01)"
   version="1.1"
   id="svg2"
   viewBox="0 0 256 256"
   height="256"
   width="256"
   xmlns:inkscape="http://www.inkscape.org/namespaces/inkscape"
   xmlns:sodipodi="http://sodipodi.sourceforge.net/DTD/sodipodi-0.dtd"
   xmlns="http://www.w3.org/2000/svg"
   xmlns:svg="http://www.w3.org/2000/svg"
   xmlns:rdf="http://www.w3.org/1999/02/22-rdf-syntax-ns#"
   xmlns:cc="http://creativecommons.org/ns#"
   xmlns:dc="http://purl.org/dc/elements/1.1/">
  <sodipodi:namedview
     inkscape:window-maximized="1"
     inkscape:window-y="0"
     inkscape:window-x="0"
     inkscape:window-height="1048"
     inkscape:window-width="1920"
     units="px"
     showgrid="true"
     inkscape:current-layer="layer1"
     inkscape:document-units="px"
     inkscape:cy="127.85134"
     inkscape:cx="67.642277"
     inkscape:zoom="3.3632812"
     inkscape:pageshadow="2"
     inkscape:pageopacity="0.0"
     borderopacity="1.0"
     bordercolor="#666666"
     pagecolor="#ffffff"
     id="base"
     inkscape:showpageshadow="2"
     inkscape:pagecheckerboard="0"
     inkscape:deskcolor="#d1d1d1" />
  <defs
     id="defs4">
    <clipPath
       id="clipPath5002"
       clipPathUnits="userSpaceOnUse">
      <g
         id="g5004">
        <path
           style="fill:#0f9d58;fill-opacity:1;stroke:none;stroke-width:4.85768509;stroke-linejoin:round;stroke-miterlimit:4;stroke-dasharray:none;stroke-opacity:1"
           d="M 88.118406,249.43519 C 46.103287,235.29134 14.771284,201.68742 4.1335861,159.36053 1.3377997,148.23623 0.92261224,144.16281 0.92582381,127.88908 0.92787958,117.47222 1.134384,112.01362 1.6577819,108.54099 4.4653598,89.913336 12.17654,70.638106 23.042737,55.086148 c 3.958678,-5.665755 8.344812,-10.93092 9.101533,-10.925587 0.32809,0.0023 10.488643,18.309713 22.579009,40.683112 12.090365,22.373397 22.374546,41.334697 22.853732,42.136217 0.479186,0.80151 0.924733,2.44098 0.990103,3.64326 0.343424,6.31639 2.524175,14.20976 5.6424,20.42304 2.954444,5.88693 5.065381,8.73258 10.434696,14.06652 6.71418,6.66995 12.88853,10.28643 21.73204,12.72904 3.16587,0.87442 5.10478,1.05037 11.57517,1.05037 8.82596,0 12.60219,-0.76201 19.26429,-3.88733 2.04584,-0.95974 3.93661,-1.66536 4.20172,-1.56805 0.2651,0.0973 -11.0555,17.66459 -25.1569,39.0384 l -25.6389,38.86148 -3.094121,0.11221 c -2.554618,0.0927 -4.195204,-0.25845 -9.409103,-2.01364 z"
           id="path5006"
           inkscape:connector-curvature="0"
           transform="translate(0,796.36216)" />
        <path
           style="fill:#f4b400;fill-opacity:1;stroke:none;stroke-width:4.85768509;stroke-linejoin:round;stroke-miterlimit:4;stroke-dasharray:none;stroke-opacity:1"
           d="m 112.35984,1051.5167 c -10.0014,-1.4495 -12.15632,-1.8201 -12.531784,-2.1556 -0.248854,-0.2223 1.738304,-3.7475 4.550294,-8.0722 7.16635,-11.0213 49.77231,-74.64801 50.25856,-75.05489 3.57509,-2.99158 8.63523,-8.0414 10.57512,-10.55356 3.36154,-4.35318 7.55784,-12.9141 9.06523,-18.494 6.19314,-22.92535 -2.59253,-47.15185 -21.69967,-59.83688 l -2.96081,-1.96565 17.02469,0.29584 c 9.36358,0.1627 31.17032,0.43384 48.45941,0.60252 l 31.43471,0.30668 1.54584,4.18869 c 2.24597,6.08579 4.67816,15.0947 5.93451,21.9816 1.52517,8.36049 1.92536,28.85896 0.73851,37.82758 -3.0805,23.27845 -12.81326,45.72018 -27.80202,64.10577 -20.47622,25.1166 -51.4599,42.1974 -84.14612,46.3885 -5.31244,0.6812 -26.64601,0.9864 -30.44647,0.4356 z"
           id="path5008"
           inkscape:connector-curvature="0" />
        <path
           style="fill:#db4437;fill-opacity:1;stroke:none;stroke-width:10;stroke-linejoin:round;stroke-miterlimit:4;stroke-dasharray:none;stroke-opacity:1"
           d="M 67.989788,108.87302 C 41.284246,59.575543 33.290284,45.149038 32.233625,44.344765 31.651257,43.901497 32.811213,42.549931 38.695603,36.815353 53.43581,22.450419 68.809334,13.040746 87.839196,6.7360352 101.68742,2.1480329 112.58238,0.43719165 127.95142,0.43719165 c 21.3099,0 37.80488,3.80960275 56.83492,13.12633035 25.29351,12.383198 46.19421,33.578863 58.51993,59.345832 1.61138,3.368591 2.92978,6.372442 2.92978,6.675231 0,0.560033 -10.54865,0.49527 -71.16508,-0.436914 l -24.28843,-0.373518 -3.93063,-1.764495 c -6.75732,-3.033425 -10.64587,-3.839529 -18.6576,-3.867747 -5.0296,-0.01773 -7.97946,0.207636 -10.31642,0.788106 -14.50826,3.603659 -26.283291,12.94777 -33.291614,26.418653 -3.58502,6.89086 -5.24713,13.08166 -6.331628,23.58317 l -0.33738,3.26696 -9.92748,-18.32578 z"
           id="path5010"
           inkscape:connector-curvature="0"
           transform="translate(0,796.36216)" />
      </g>
    </clipPath>
    <clipPath
       clipPathUnits="userSpaceOnUse"
       id="clipPath4253">
      <circle
         style="fill:#bababa;fill-opacity:1;stroke:none;stroke-width:0.1;stroke-linecap:round;stroke-linejoin:round;stroke-miterlimit:4;stroke-dasharray:none;stroke-opacity:1"
         id="circle4255"
         cx="128"
         cy="924.36218"
         r="128" />
    </clipPath>
    <clipPath
       id="clipPath4350"
       clipPathUnits="userSpaceOnUse">
      <circle
         style="fill:#7e7e7e;fill-opacity:1;stroke:none;stroke-width:0.1;stroke-linecap:round;stroke-linejoin:round;stroke-miterlimit:4;stroke-dasharray:none;stroke-opacity:1"
         id="circle4352"
         cx="128"
         cy="924.36218"
         r="128" />
    </clipPath>
    <clipPath
       clipPathUnits="userSpaceOnUse"
       id="clipPath4362">
      <circle
         style="fill:#ef7007;fill-opacity:1;stroke:none;stroke-width:0.1;stroke-linecap:round;stroke-linejoin:round;stroke-miterlimit:4;stroke-dasharray:none;stroke-opacity:1"
         id="circle4364"
         cx="195.75423"
         cy="930.83661"
         r="96.217636" />
    </clipPath>
    <clipPath
       id="clipPath4529"
       clipPathUnits="userSpaceOnUse">
      <circle
         style="fill:#ef7109;fill-opacity:1;stroke:none;stroke-width:0.1;stroke-linecap:round;stroke-linejoin:round;stroke-miterlimit:4;stroke-dasharray:none;stroke-opacity:1"
         id="circle4531"
         cx="128"
         cy="922.36218"
         r="120.88889" />
    </clipPath>
    <clipPath
       clipPathUnits="userSpaceOnUse"
       id="clipPath4706">
      <circle
         style="fill:#ef7109;fill-opacity:1;stroke:none;stroke-width:0.1;stroke-linecap:round;stroke-linejoin:round;stroke-miterlimit:4;stroke-dasharray:none;stroke-opacity:1"
         id="circle4708"
         cx="128"
         cy="922.38025"
         r="128" />
    </clipPath>
  </defs>
  <metadata
     id="metadata7">
    <rdf:RDF>
      <cc:Work
         rdf:about="">
        <dc:format>image/svg+xml</dc:format>
        <dc:type
           rdf:resource="http://purl.org/dc/dcmitype/StillImage" />
        <dc:title />
      </cc:Work>
    </rdf:RDF>
  </metadata>
  <g
     inkscape:label="Layer 1"
     inkscape:groupmode="layer"
     id="layer1"
     transform="translate(0,-796.36216)">
    <path
       id="path484"
       style="fill:#8d4305;fill-opacity:1;stroke:none;stroke-width:0.1;stroke-linecap:round;stroke-linejoin:round;stroke-miterlimit:4;stroke-dasharray:none;stroke-opacity:1"
       sodipodi:type="arc"
       sodipodi:cx="-128"
       sodipodi:cy="-924.36218"
       sodipodi:rx="128"
       sodipodi:ry="128"
       sodipodi:start="0"
       sodipodi:end="3.1415927"
       sodipodi:arc-type="slice"
       d="m 0,-924.36218 a 128,128 0 0 1 -64.000002,110.85125 128,128 0 0 1 -127.999998,0 128,128 0 0 1 -64,-110.85125 h 128 z"
       transform="scale(-1)" />
    <path
       style="fill:none;fill-rule:evenodd;stroke:none;stroke-width:1px;stroke-linecap:butt;stroke-linejoin:miter;stroke-opacity:1"
       d="M 154.47438,968.80998 101.03985,1048.476 0.4857685,1048.9618 0,842.0244 l 33.032258,-2.42884 45.176471,83.55218 21.373814,35.4611 26.717267,13.11575 z"
       id="path4913"
       inkscape:connector-curvature="0" />
    <path
       id="path4152"
       style="fill:#ef7109;fill-opacity:1;stroke:none;stroke-width:0.1;stroke-linecap:round;stroke-linejoin:round;stroke-miterlimit:4;stroke-dasharray:none;stroke-opacity:1"
       sodipodi:type="arc"
       sodipodi:cx="128"
       sodipodi:cy="924.36218"
       sodipodi:rx="128"
       sodipodi:ry="128"
       sodipodi:start="0"
       sodipodi:end="3.1415927"
       sodipodi:arc-type="slice"
       d="m 256,924.36218 a 128,128 0 0 1 -64,110.85122 128,128 0 0 1 -128.000003,0 A 128,128 0 0 1 0,924.36218 h 128 z" />
    <g
       transform="translate(-3.6989775e-8,1.9819044)"
       id="g4258">
      <path
         style="fill:none;fill-rule:evenodd;stroke:#ffffff;stroke-width:7;stroke-linecap:butt;stroke-linejoin:miter;stroke-miterlimit:4;stroke-dasharray:none;stroke-opacity:1"
         d="m 178.39722,994.08574 c 3.97695,22.76406 -5.836,27.94886 -27.05692,27.94886"
         id="path4247"
         inkscape:connector-curvature="0" />
      <g
         transform="matrix(1.0588235,0,0,1.0588235,-7.5294076,-72.256596)"
         id="g4195">
        <path
           style="fill:#c0c0c0;fill-opacity:1"
           d="m 126.89309,837.40339 c -9.335,0.0983 -18.68509,1.70637 -27.669044,4.86397 -31.56226,11.09324 -54.205885,41.44664 -56.052605,75.13436 -0.556937,10.1595 0.09991,16.13971 4.11567,37.37099 2.629412,13.90182 5.08857,26.62298 5.464172,28.26925 0.207463,0.90932 0.479353,1.5484 0.94837,2.00068 l -5.14459,-26.49202 c -3.596846,-18.51819 -5.19904,-30.26564 -5.123797,-37.58147 0.333297,-32.40479 18.373958,-60.11134 49.224337,-75.59945 9.441847,-4.74017 20.979677,-7.15221 35.437887,-7.40769 23.15799,-0.4092 42.14273,7.55367 59.66942,25.0266 14.40358,14.35939 22.1155,30.92215 24.51473,52.65927 0.9026,8.17769 0.012,14.81007 -6.90102,51.48225 l -3.39076,17.98265 c 0.52116,-0.45508 0.82041,-1.11347 1.04452,-2.07082 3.68318,-15.73417 9.98794,-54.33832 9.96958,-61.0439 -0.0781,-28.62463 -16.98231,-58.33592 -41.34117,-72.66859 -13.69357,-8.05724 -29.20738,-12.08996 -44.7657,-11.92608 z m -0.46769,10.62435 c -21.37974,0.1379 -37.852128,7.51177 -53.030824,23.73785 -16.699181,17.8515 -23.597289,42.83993 -18.640021,67.524 l 1.496607,7.45446 3.492083,-2.51514 c 4.23762,-3.05244 17.456531,-8.30772 17.46301,-6.94259 0.0053,1.08563 11.549417,61.75056 12.653607,66.49508 0.674231,2.897 0.380457,2.9932 -9.143338,2.9932 -6.973737,0 -10.305384,-0.5606 -11.440211,-1.9279 -0.88067,-1.0612 -2.273659,-5.85028 -3.094545,-10.64254 l -1.491405,-8.71462 -5.451189,0 -4.884752,0 c 0.863615,0.4167 2.174803,0.54563 4.281959,0.54563 l 5.201741,0 1.48361,7.64933 c 0.81595,4.20713 2.04201,8.9963 2.725594,10.6425 1.183157,2.8494 1.951788,2.9933 15.992397,2.9933 24.223707,0 24.364337,-0.2772 17.829367,-35.07677 -2.628801,-13.99877 -5.353424,-27.68929 -6.056577,-30.42062 -1.379739,-5.35945 -4.331207,-7.67011 -9.790311,-7.67011 -3.862337,0 -17.357383,4.30359 -24.857712,7.92734 l -4.905532,2.36963 -1.439444,-8.24952 c -2.463322,-14.14544 -2.514739,-14.02031 5.80194,-14.02031 4.344724,0 7.656788,-0.66475 8.285909,-1.6629 0.576453,-0.91459 2.115883,-5.83496 3.419328,-10.93354 7.99969,-31.29201 38.950619,-50.58917 68.516549,-42.71825 21.8609,5.81972 37.05628,21.05848 42.59353,42.71825 1.30343,5.09858 2.84287,10.01895 3.41934,10.93354 0.62912,0.99815 3.94117,1.6629 8.2859,1.6629 4.1136,0 6.1743,-0.0255 6.91401,1.6551 -0.0931,-5.79146 -0.64348,-11.93673 -1.76163,-17.21358 -2.94925,-13.91826 -9.33074,-25.52591 -19.98854,-36.36286 -15.14292,-15.39746 -32.04338,-22.37171 -53.88045,-22.23086 z m 75.56307,81.79373 c -0.25303,1.73794 -0.58811,3.74297 -1.04711,6.37878 l -1.2108,6.95557 c 1.20618,-2.25933 2.00502,-7.28211 2.25791,-13.33435 z m -32.82402,4.33133 c -3.67473,0 -9.35639,3.83611 -9.35639,6.319 0,0.54948 -2.39457,13.57068 -5.32127,28.93441 -2.9267,15.36373 -5.32127,28.71076 -5.32127,29.65933 0,0.94856 1.47009,3.19276 3.26602,4.98866 3.09049,3.0905 4.0893,3.2661 18.65303,3.2661 17.56682,0 16.57737,0.6971 19.35716,-13.6358 l 1.47322,-7.59216 -0.86263,0.0624 -1.71746,8.51194 c -0.94358,4.68067 -2.38738,9.32002 -3.20887,10.30992 -1.01068,1.2178 -4.69679,1.798 -11.39864,1.798 -8.78845,0 -9.831,-0.2623 -9.26544,-2.328 0.35056,-1.2804 3.46228,-17.17623 6.9166,-35.32616 5.44194,-28.59349 6.56993,-32.87443 8.43401,-32.05754 1.18324,0.51853 4.95567,1.94383 8.38463,3.1673 3.42897,1.22347 7.11615,2.95486 8.19237,3.84805 0.56365,0.46778 1.08485,0.4751 1.56156,0.1039 l -4.35211,-2.10201 c -7.91568,-3.82444 -21.07961,-7.92735 -25.43452,-7.92735 z m 32.43947,51.22501 -5.10821,0.37676 -3.81687,0.2806 4.44825,0 c 2.2727,0 3.61663,-0.15528 4.47683,-0.65736 z"
           id="path4191"
           inkscape:connector-curvature="0" />
        <path
           style="fill:#ffffff;fill-opacity:1"
           d="m 69.229592,1005.0686 c -0.880683,-1.0611 -2.272861,-5.85026 -3.093733,-10.64252 l -1.49251,-8.71318 -5.451481,0 -5.451481,0 -5.232431,-26.93892 c -3.596859,-18.51819 -5.198228,-30.26564 -5.122985,-37.58147 0.333284,-32.40479 18.374676,-60.11333 49.225069,-75.60145 9.44185,-4.74017 20.97844,-7.15158 35.43664,-7.40706 23.15799,-0.4092 42.14372,7.55368 59.67041,25.02661 14.40359,14.3594 22.11412,30.92351 24.51335,52.66063 0.90261,8.17769 0.014,14.80871 -6.89924,51.48089 l -3.43527,18.22297 -5.4455,0.40147 -5.44553,0.40149 -1.71557,8.51028 c -0.94358,4.68066 -2.38771,9.32016 -3.20919,10.30996 -1.01069,1.2178 -4.69589,1.7997 -11.39774,1.7997 -8.78845,0 -9.83233,-0.2623 -9.26678,-2.3281 0.35057,-1.2804 3.46363,-17.17798 6.91795,-35.32791 5.44194,-28.59348 6.56784,-32.87398 8.43192,-32.05708 1.18324,0.51853 4.95687,1.9438 8.38583,3.16727 3.42897,1.22347 7.11503,2.95527 8.19126,3.84846 4.44972,3.69295 6.37179,-21.09505 2.90451,-37.45808 -2.94925,-13.91826 -9.32933,-25.5255 -19.98713,-36.36245 -15.14293,-15.39746 -32.04454,-22.37045 -53.88161,-22.22959 -21.37973,0.1379 -37.85156,7.51087 -53.030255,23.73696 -16.699208,17.8515 -23.597263,42.83998 -18.639995,67.52405 l 1.497193,7.45507 3.491497,-2.51499 c 4.23762,-3.05244 17.457995,-8.30843 17.464474,-6.9433 0.0053,1.08563 11.548419,61.75191 12.652609,66.49649 0.674231,2.897 0.380577,2.9932 -9.143219,2.9932 -6.973736,0 -10.306235,-0.562 -11.441062,-1.9294 z"
           id="path4193"
           inkscape:connector-curvature="0" />
      </g>
      <rect
         style="fill:#c0c0c0;fill-opacity:1;stroke:none;stroke-width:30;stroke-linecap:round;stroke-linejoin:miter;stroke-miterlimit:4;stroke-dasharray:none;stroke-opacity:1"
         id="rect4249"
         width="57.384438"
         height="17.839722"
         x="97.226479"
         y="1012.5201"
         ry="8.9198608" />
    </g>
  </g>
</svg>
