<?xml version="1.0" encoding="UTF-8" standalone="no"?>
<!-- Created with Inkscape (http://www.inkscape.org/) -->

<svg
   xmlns:dc="http://purl.org/dc/elements/1.1/"
   xmlns:cc="http://creativecommons.org/ns#"
   xmlns:rdf="http://www.w3.org/1999/02/22-rdf-syntax-ns#"
   xmlns:svg="http://www.w3.org/2000/svg"
   xmlns="http://www.w3.org/2000/svg"
   xmlns:sodipodi="http://sodipodi.sourceforge.net/DTD/sodipodi-0.dtd"
   xmlns:inkscape="http://www.inkscape.org/namespaces/inkscape"
   width="256"
   height="256"
   viewBox="0 0 256 256"
   id="svg2"
   version="1.1"
   inkscape:version="0.92.4 (unknown)"
   sodipodi:docname="application-info.svg">
  <sodipodi:namedview
     id="base"
     pagecolor="#ffffff"
     bordercolor="#666666"
     borderopacity="1.0"
     inkscape:pageopacity="0.0"
     inkscape:pageshadow="2"
     inkscape:zoom="3.3125"
     inkscape:cx="62.792453"
     inkscape:cy="128"
     inkscape:document-units="px"
     inkscape:current-layer="layer1"
     showgrid="false"
     units="px"
     inkscape:window-width="1920"
     inkscape:window-height="1048"
     inkscape:window-x="0"
     inkscape:window-y="0"
     inkscape:window-maximized="1" />
  <defs
     id="defs4">
    <filter
       id="filter4301"
       inkscape:label="Drop Shadow"
       style="color-interpolation-filters:sRGB;">
      <feFlood
         id="feFlood4303"
         result="flood"
         flood-color="rgb(0,0,0)"
         flood-opacity="0.498039" />
      <feComposite
         id="feComposite4305"
         result="composite1"
         operator="in"
         in2="SourceGraphic"
         in="flood" />
      <feGaussianBlur
         id="feGaussianBlur4307"
         result="blur"
         stdDeviation="3.7"
         in="composite1" />
      <feOffset
         id="feOffset4309"
         result="offset"
         dy="3.7"
         dx="3.8" />
      <feComposite
         id="feComposite4311"
         result="composite2"
         operator="over"
         in2="offset"
         in="SourceGraphic" />
    </filter>
    <clipPath
       clipPathUnits="userSpaceOnUse"
       id="clipPath4403">
      <path
         style="fill:#d7875f;fill-opacity:1"
         d="m 151.20117,796.84847 -105.78125,0 c -7.804357,0 -14.087891,6.28158 -14.087891,14.08594 l 0,227.33989 c 0,7.8043 6.283534,14.0878 14.087891,14.0878 l 165.16211,0 c 7.80436,0 14.08594,-6.2835 14.08594,-14.0878 l 0,-154.82232 -73.4668,-86.60351 z"
         id="path4405"
         inkscape:connector-curvature="0" />
    </clipPath>
    <clipPath
       clipPathUnits="userSpaceOnUse"
       id="clipPath4632">
      <path
         inkscape:connector-curvature="0"
         id="path4634"
         d="m 151.20117,796.60532 -105.78125,0 c -7.804357,0 -14.087891,6.28158 -14.087891,14.08594 l 0,227.33994 c 0,7.8043 6.283534,14.0878 14.087891,14.0878 l 165.16211,0 c 7.80436,0 14.08594,-6.2835 14.08594,-14.0878 l 0,-154.82237 -73.4668,-86.60351 z"
         style="opacity:0.93000016;fill:#f4b400;fill-opacity:1" />
    </clipPath>
    <clipPath
       id="clipPath4288"
       clipPathUnits="userSpaceOnUse">
      <path
         style="fill:#d8d8d8;fill-opacity:1"
         d="m 151.20117,0.48637 -105.78125,0 c -7.804357,0 -14.087891,6.28158 -14.087891,14.08594 l 0,227.33985 c 0,7.8043 6.283534,14.0878 14.087891,14.0878 l 165.16211,0 c 7.80436,0 14.08594,-6.2835 14.08594,-14.0878 l 0,-154.82228 -73.4668,-86.60351 z"
         id="path4290"
         inkscape:connector-curvature="0" />
    </clipPath>
    <clipPath
       clipPathUnits="userSpaceOnUse"
       id="clipPath4440">
      <path
         style="fill:#d8d8d8;fill-opacity:1"
         d="m 151.20117,0.48637 -105.78125,0 c -7.804357,0 -14.087891,6.28158 -14.087891,14.08594 l 0,227.33985 c 0,7.8043 6.283534,14.0878 14.087891,14.0878 l 165.16211,0 c 7.80436,0 14.08594,-6.2835 14.08594,-14.0878 l 0,-154.82228 -73.4668,-86.60351 z"
         id="path4442"
         inkscape:connector-curvature="0" />
    </clipPath>
    <clipPath
       id="clipPath5158"
       clipPathUnits="userSpaceOnUse">
      <g
         transform="matrix(0.91318789,0,0,0.91318789,190.54731,96.328962)"
         id="g5160">
        <path
           style="fill:#d8d8d8;fill-opacity:1"
           d="m -68.65742,787.77129 a 128,128 0 0 0 -127.83594,127.99414 128,128 0 0 0 128,128.00007 A 128,128 0 0 0 59.49883,915.92754 L -68.65742,787.77129 Z m 12.42383,0.60742 a 128,128 0 0 1 7.76757,1.1211 128,128 0 0 0 -7.76757,-1.1211 z m 12.58789,1.84961 a 128,128 0 0 1 8.42187,2.08984 128,128 0 0 0 -8.42187,-2.08984 z m 12.36328,3.09766 a 128,128 0 0 1 8.94531,3.19726 128,128 0 0 0 -8.94531,-3.19726 z m 11.98437,4.30468 a 128,128 0 0 1 9.34375,4.43946 128,128 0 0 0 -9.34375,-4.43946 z M -7.8,803.10918 A 128,128 0 0 1 1.69414,808.84356 128,128 0 0 0 -7.8,803.10918 Z m 10.90625,6.59961 a 128,128 0 0 1 9.66016,7.24414 128,128 0 0 0 -9.66016,-7.24414 z m 10.17773,7.63867 a 128,128 0 0 1 9.38868,8.62891 128,128 0 0 0 -9.38868,-8.62891 z m 9.38868,8.62891 0.98046,0.98047 a 128,128 0 0 0 -0.98046,-0.98047 z m 7.65039,8.57226 a 128,128 0 0 1 4.5039,5.92188 128,128 0 0 0 -4.5039,-5.92188 z m 7.63867,10.30469 a 128,128 0 0 1 3.81054,6.21289 128,128 0 0 0 -3.81054,-6.21289 z m 6.57617,11.03125 a 128,128 0 0 1 3.08203,6.37695 128,128 0 0 0 -3.08203,-6.37695 z m 5.4375,11.63867 a 128,128 0 0 1 2.37695,6.50782 128,128 0 0 0 -2.37695,-6.50782 z m 4.23242,12.09375 a 128,128 0 0 1 1.68555,6.59375 128,128 0 0 0 -1.68555,-6.59375 z m 3.00781,12.48633 a 128,128 0 0 1 0.99024,6.53906 128,128 0 0 0 -0.99024,-6.53906 z m 1.74024,12.71094 a 128,128 0 0 1 0.55078,10.95117 128,128 0 0 0 -0.55078,-10.95117 z"
           id="path5162"
           inkscape:connector-curvature="0" />
        <path
           style="fill:#eaeaea;fill-opacity:1"
           d="m 59.12079,915.1475 a 128,128 0 0 0 0.16406,-0.006 L -68.87139,786.98538 a 128,128 0 0 0 -0.008,0.16211 128,128 0 0 0 35.85352,88.80861 l 0.98046,0.98046 a 128,128 0 0 0 91.16603,38.21094 z"
           id="path5164"
           inkscape:connector-curvature="0" />
      </g>
    </clipPath>
    <clipPath
       clipPathUnits="userSpaceOnUse"
       id="clipPath1013">
      <path
         inkscape:connector-curvature="0"
         id="path1015"
         d="M 127.83422,807.46654 A 129.34648,121.63316 0 0 0 -1.3464776,929.09413 129.34648,121.63316 0 0 0 128,1050.7274 129.34648,121.63316 0 0 0 257.33859,929.24818 Z m 12.55452,0.5772 a 129.34648,121.63316 0 0 1 7.84928,1.06534 129.34648,121.63316 0 0 0 -7.84928,-1.06534 z m 12.72031,1.75761 a 129.34648,121.63316 0 0 1 8.51046,1.98589 129.34648,121.63316 0 0 0 -8.51046,-1.98589 z m 12.49333,2.94358 a 129.34648,121.63316 0 0 1 9.03941,3.03823 129.34648,121.63316 0 0 0 -9.03941,-3.03823 z m 12.11044,4.09056 a 129.34648,121.63316 0 0 1 9.44204,4.21864 129.34648,121.63316 0 0 0 -9.44204,-4.21864 z m 11.619,5.20602 a 129.34648,121.63316 0 0 1 9.59401,5.44914 129.34648,121.63316 0 0 0 -9.59401,-5.44914 z m 11.02098,6.27134 a 129.34648,121.63316 0 0 1 9.76178,6.88381 129.34648,121.63316 0 0 0 -9.76178,-6.88381 z m 10.28479,7.25871 a 129.34648,121.63316 0 0 1 9.48744,8.1997 129.34648,121.63316 0 0 0 -9.48744,-8.1997 z m 9.48744,8.1997 0.99078,0.9317 a 129.34648,121.63316 0 0 0 -0.99078,-0.9317 z m 7.73087,8.14587 a 129.34648,121.63316 0 0 1 4.55128,5.62732 129.34648,121.63316 0 0 0 -4.55128,-5.62732 z m 7.71903,9.79212 a 129.34648,121.63316 0 0 1 3.85062,5.90386 129.34648,121.63316 0 0 0 -3.85062,-5.90386 z m 6.64534,10.48255 a 129.34648,121.63316 0 0 1 3.11445,6.05975 129.34648,121.63316 0 0 0 -3.11445,-6.05975 z m 5.4947,11.05975 a 129.34648,121.63316 0 0 1 2.40196,6.18412 129.34648,121.63316 0 0 0 -2.40196,-6.18412 z m 4.27694,11.4922 a 129.34648,121.63316 0 0 1 1.70329,6.26577 129.34648,121.63316 0 0 0 -1.70329,-6.26577 z m 3.03946,11.86524 a 129.34648,121.63316 0 0 1 1.00065,6.21381 129.34648,121.63316 0 0 0 -1.00065,-6.21381 z m 1.75854,12.07869 a 129.34648,121.63316 0 0 1 0.55658,10.40645 129.34648,121.63316 0 0 0 -0.55658,-10.40645 z"
         style="fill:#c5c5c5;fill-opacity:1;stroke-width:0.97992611" />
    </clipPath>
  </defs>
  <metadata
     id="metadata7">
    <rdf:RDF>
      <cc:Work
         rdf:about="">
        <dc:format>image/svg+xml</dc:format>
        <dc:type
           rdf:resource="http://purl.org/dc/dcmitype/StillImage" />
        <dc:title />
      </cc:Work>
    </rdf:RDF>
  </metadata>
  <g
     transform="translate(0,-796.36214)"
     id="layer1"
     inkscape:groupmode="layer"
     inkscape:label="Layer 1">
    <text
       id="text4143"
       y="951.72528"
       x="74.722427"
       style="font-style:normal;font-variant:normal;font-weight:bold;font-stretch:normal;line-height:0%;font-family:FreeSerif;-inkscape-font-specification:'FreeSerif Bold';letter-spacing:0px;word-spacing:0px;fill:#ffffff;fill-opacity:1;stroke:none;stroke-width:1px;stroke-linecap:butt;stroke-linejoin:miter;stroke-opacity:1"
       xml:space="preserve"><tspan
         style="font-size:80px;line-height:1.25"
         y="951.72528"
         x="74.722427"
         id="tspan4145"
         sodipodi:role="line"> </tspan></text>
    <text
       id="text4162"
       y="922.95557"
       x="69.391937"
       style="font-style:normal;font-weight:normal;line-height:0%;font-family:sans-serif;letter-spacing:0px;word-spacing:0px;fill:#000000;fill-opacity:1;stroke:none;stroke-width:1px;stroke-linecap:butt;stroke-linejoin:miter;stroke-opacity:1"
       xml:space="preserve"><tspan
         style="font-size:80px;line-height:1.25"
         y="922.95557"
         x="69.391937"
         id="tspan4164"
         sodipodi:role="line"> </tspan></text>
    <g
       style="font-style:normal;font-variant:normal;font-weight:bold;font-stretch:normal;font-size:90px;line-height:125%;font-family:'CMU Serif Extra';-inkscape-font-specification:'CMU Serif Extra Bold';letter-spacing:0px;word-spacing:0px;fill:#ffffff;fill-opacity:1;stroke:#ffffff;stroke-width:1px;stroke-linecap:butt;stroke-linejoin:miter;stroke-opacity:1"
       id="text4165" />
    <g
       id="text4186"
       style="font-style:normal;font-variant:normal;font-weight:bold;font-stretch:normal;font-size:98.55583954px;line-height:125%;font-family:'CMU Serif Extra';-inkscape-font-specification:'CMU Serif Extra Bold';letter-spacing:0px;word-spacing:0px;fill:#ffffff;fill-opacity:1;stroke:#ffffff;stroke-width:1.09506488px;stroke-linecap:butt;stroke-linejoin:miter;stroke-opacity:1" />
    <path
       style="fill:#c5c5c5;fill-opacity:1"
       d="M 127.83594,796.75799 A 128,128 0 0 0 0,924.75213 128,128 0 0 0 128,1052.7522 128,128 0 0 0 255.99219,924.91424 L 127.83594,796.75799 Z m 12.42383,0.60742 a 128,128 0 0 1 7.76757,1.1211 128,128 0 0 0 -7.76757,-1.1211 z m 12.58789,1.84961 a 128,128 0 0 1 8.42187,2.08984 128,128 0 0 0 -8.42187,-2.08984 z m 12.36328,3.09766 a 128,128 0 0 1 8.94531,3.19726 128,128 0 0 0 -8.94531,-3.19726 z m 11.98437,4.30468 a 128,128 0 0 1 9.34375,4.43946 128,128 0 0 0 -9.34375,-4.43946 z m 11.49805,5.47852 a 128,128 0 0 1 9.49414,5.73438 128,128 0 0 0 -9.49414,-5.73438 z m 10.90625,6.59961 a 128,128 0 0 1 9.66016,7.24414 128,128 0 0 0 -9.66016,-7.24414 z m 10.17773,7.63867 a 128,128 0 0 1 9.38868,8.62891 128,128 0 0 0 -9.38868,-8.62891 z m 9.38868,8.62891 0.98046,0.98047 a 128,128 0 0 0 -0.98046,-0.98047 z m 7.65039,8.57226 a 128,128 0 0 1 4.5039,5.92188 128,128 0 0 0 -4.5039,-5.92188 z m 7.63867,10.30469 a 128,128 0 0 1 3.81054,6.21289 128,128 0 0 0 -3.81054,-6.21289 z m 6.57617,11.03125 a 128,128 0 0 1 3.08203,6.37695 128,128 0 0 0 -3.08203,-6.37695 z m 5.4375,11.63867 a 128,128 0 0 1 2.37695,6.50782 128,128 0 0 0 -2.37695,-6.50782 z m 4.23242,12.09375 a 128,128 0 0 1 1.68555,6.59375 128,128 0 0 0 -1.68555,-6.59375 z m 3.00781,12.48633 a 128,128 0 0 1 0.99024,6.53906 128,128 0 0 0 -0.99024,-6.53906 z m 1.74024,12.71094 A 128,128 0 0 1 256,924.75213 128,128 0 0 0 255.44922,913.80096 Z"
       id="path4957"
       inkscape:connector-curvature="0" />
    <path
       style="fill:#eeeeee;fill-opacity:1"
       d="m 255.61415,924.1342 a 128,128 0 0 0 0.16406,-0.006 L 127.62197,795.97208 a 128,128 0 0 0 -0.008,0.16211 128,128 0 0 0 35.85352,88.80861 l 0.98046,0.98046 a 128,128 0 0 0 91.16603,38.21094 z"
       id="rect4961"
       inkscape:connector-curvature="0" />
    <g
       transform="matrix(0.98959012,0,0,1.0523446,1.3324609,-52.97506)"
       id="g4328">
      <rect
         ry="15.5446"
         y="910.51776"
         x="75.051239"
         height="99.582542"
         width="105.89753"
         id="rect4330"
         style="fill:none;fill-opacity:1;stroke:#ffffff;stroke-width:10;stroke-miterlimit:4;stroke-dasharray:none;stroke-opacity:1" />
      <text
         id="text4332"
         y="991.58405"
         x="114.905"
         style="font-style:normal;font-variant:normal;font-weight:bold;font-stretch:normal;line-height:0%;font-family:'CMU Serif Extra';-inkscape-font-specification:'CMU Serif Extra Bold';letter-spacing:0px;word-spacing:0px;fill:#ffffff;fill-opacity:1;stroke:#ffffff;stroke-width:1px;stroke-linecap:butt;stroke-linejoin:miter;stroke-opacity:1"
         xml:space="preserve"><tspan
           style="font-size:90px;line-height:1.25"
           y="991.58405"
           x="114.905"
           id="tspan4334"
           sodipodi:role="line">i</tspan></text>
    </g>
  </g>
</svg>
