<?xml version="1.0" encoding="UTF-8" standalone="no"?>
<!-- Created with Inkscape (http://www.inkscape.org/) -->

<svg
   xmlns:dc="http://purl.org/dc/elements/1.1/"
   xmlns:cc="http://creativecommons.org/ns#"
   xmlns:rdf="http://www.w3.org/1999/02/22-rdf-syntax-ns#"
   xmlns:svg="http://www.w3.org/2000/svg"
   xmlns="http://www.w3.org/2000/svg"
   xmlns:sodipodi="http://sodipodi.sourceforge.net/DTD/sodipodi-0.dtd"
   xmlns:inkscape="http://www.inkscape.org/namespaces/inkscape"
   sodipodi:docname="application-x-firmware.svg"
   inkscape:version="0.92.4 (unknown)"
   version="1.1"
   id="svg2"
   viewBox="0 0 256 256"
   height="256"
   width="256">
  <sodipodi:namedview
     inkscape:window-maximized="1"
     inkscape:window-y="0"
     inkscape:window-x="0"
     inkscape:window-height="1048"
     inkscape:window-width="1920"
     units="px"
     showgrid="false"
     inkscape:current-layer="layer1"
     inkscape:document-units="px"
     inkscape:cy="128"
     inkscape:cx="-2.4150942"
     inkscape:zoom="3.3125"
     inkscape:pageshadow="2"
     inkscape:pageopacity="0.0"
     borderopacity="1.0"
     bordercolor="#666666"
     pagecolor="#ffffff"
     id="base" />
  <defs
     id="defs4">
    <filter
       style="color-interpolation-filters:sRGB;"
       inkscape:label="Drop Shadow"
       id="filter4301">
      <feFlood
         flood-opacity="0.498039"
         flood-color="rgb(0,0,0)"
         result="flood"
         id="feFlood4303" />
      <feComposite
         in="flood"
         in2="SourceGraphic"
         operator="in"
         result="composite1"
         id="feComposite4305" />
      <feGaussianBlur
         in="composite1"
         stdDeviation="3.7"
         result="blur"
         id="feGaussianBlur4307" />
      <feOffset
         dx="3.8"
         dy="3.7"
         result="offset"
         id="feOffset4309" />
      <feComposite
         in="SourceGraphic"
         in2="offset"
         operator="over"
         result="composite2"
         id="feComposite4311" />
    </filter>
    <clipPath
       id="clipPath4321"
       clipPathUnits="userSpaceOnUse">
      <path
         inkscape:connector-curvature="0"
         id="path4323"
         d="M 45.894155,-46.540706 A 56.84453,68.796377 0 0 0 -10.877516,22.252521 56.84453,68.796377 0 0 0 45.967014,91.048898 56.84453,68.796377 0 0 0 102.80808,22.339651 L 45.894155,-46.540706 Z m 5.517397,0.326471 a 56.84453,68.796377 0 0 1 3.449561,0.60256 56.84453,68.796377 0 0 0 -3.449561,-0.60256 z m 5.590255,0.994113 a 56.84453,68.796377 0 0 1 3.740135,1.12323 56.84453,68.796377 0 0 0 -3.740135,-1.12323 z m 5.490507,1.664905 a 56.84453,68.796377 0 0 1 3.972593,1.718437 56.84453,68.796377 0 0 0 -3.972593,-1.718437 z m 5.322233,2.313643 a 56.84453,68.796377 0 0 1 4.14954,2.386084 56.84453,68.796377 0 0 0 -4.14954,-2.386084 z m 5.10626,2.94455 a 56.84453,68.796377 0 0 1 4.216327,3.082067 56.84453,68.796377 0 0 0 -4.216327,-3.082067 z m 4.843443,3.547103 a 56.84453,68.796377 0 0 1 4.290056,3.893521 56.84453,68.796377 0 0 0 -4.290056,-3.893521 z m 4.519908,4.105569 a 56.84453,68.796377 0 0 1 4.169493,4.637795 56.84453,68.796377 0 0 0 -4.169493,-4.637795 z m 4.169493,4.637795 0.43542,0.526975 a 56.84453,68.796377 0 0 0 -0.43542,-0.526975 z m 3.397522,4.607347 a 56.84453,68.796377 0 0 1 2.000173,3.182843 56.84453,68.796377 0 0 0 -2.000173,-3.182843 z m 3.392317,5.538479 a 56.84453,68.796377 0 0 1 1.692253,3.339253 56.84453,68.796377 0 0 0 -1.692253,-3.339253 z m 2.920463,5.9289851 a 56.84453,68.796377 0 0 1 1.368724,3.4274301 56.84453,68.796377 0 0 0 -1.368724,-3.4274301 z m 2.414783,6.2554556 a 56.84453,68.796377 0 0 1 1.055598,3.49776908 56.84453,68.796377 0 0 0 -1.055598,-3.49776908 z m 1.879604,6.5000483 a 56.84453,68.796377 0 0 1 0.74855,3.543954 56.84453,68.796377 0 0 0 -0.74855,-3.543954 z m 1.33577,6.711049 a 56.84453,68.796377 0 0 1 0.43976,3.51456 56.84453,68.796377 0 0 0 -0.43976,-3.51456 z m 0.77283,6.83177 a 56.84453,68.796377 0 0 1 0.2446,5.885944 56.84453,68.796377 0 0 0 -0.2446,-5.885944 z"
         style="fill:#ec6155;fill-opacity:1" />
    </clipPath>
    <clipPath
       clipPathUnits="userSpaceOnUse"
       id="clipPath1111">
      <path
         inkscape:connector-curvature="0"
         id="path1113"
         d="M -69.590304,700.13678 A 128.35909,151.27273 0 0 0 -197.78488,851.40259 128.35909,151.27273 0 0 0 -69.425783,1002.6753 128.35909,151.27273 0 0 0 58.925478,851.59417 Z m 12.458684,0.71786 a 128.35909,151.27273 0 0 1 7.789362,1.32494 128.35909,151.27273 0 0 0 -7.789362,-1.32494 z m 12.623205,2.1859 a 128.35909,151.27273 0 0 1 8.445496,2.46981 128.35909,151.27273 0 0 0 -8.445496,-2.46981 z m 12.397964,3.66087 a 128.35909,151.27273 0 0 1 8.970405,3.77858 128.35909,151.27273 0 0 0 -8.970405,-3.77858 z m 12.017991,5.08735 a 128.35909,151.27273 0 0 1 9.369963,5.24664 128.35909,151.27273 0 0 0 -9.369963,-5.24664 z m 11.5303068,6.47462 a 128.35909,151.27273 0 0 1 9.52077501,6.77699 128.35909,151.27273 0 0 0 -9.52077501,-6.77699 z m 10.9368466,7.79954 a 128.35909,151.27273 0 0 1 9.6872606,8.56125 128.35909,151.27273 0 0 0 -9.6872606,-8.56125 z m 10.2062826,9.02752 a 128.35909,151.27273 0 0 1 9.415019,10.1978 128.35909,151.27273 0 0 0 -9.415019,-10.1978 z m 9.415019,10.1978 0.983211,1.15874 a 128.35909,151.27273 0 0 0 -0.983211,-1.15874 z m 7.671853,10.13085 a 128.35909,151.27273 0 0 1 4.516535,6.99859 128.35909,151.27273 0 0 0 -4.516535,-6.99859 z m 7.6601,12.17827 a 128.35909,151.27273 0 0 1 3.82123,7.34251 128.35909,151.27273 0 0 0 -3.82123,-7.34251 z m 6.594618,13.03693 a 128.35909,151.27273 0 0 1 3.090677,7.5364 128.35909,151.27273 0 0 0 -3.090677,-7.5364 z m 5.452755,13.7548 a 128.35909,151.27273 0 0 1 2.383618,7.69106 128.35909,151.27273 0 0 0 -2.383618,-7.69106 z m 4.244294,14.29261 a 128.35909,151.27273 0 0 1 1.690278,7.79261 128.35909,151.27273 0 0 0 -1.690278,-7.79261 z m 3.016248,14.75657 a 128.35909,151.27273 0 0 1 0.993018,7.72798 128.35909,151.27273 0 0 0 -0.993018,-7.72798 z m 1.745122,15.02202 a 128.35909,151.27273 0 0 1 0.552325,12.9423 128.35909,151.27273 0 0 0 -0.552325,-12.9423 z"
         style="fill:#ec6155;fill-opacity:1;stroke-width:1.08863842" />
    </clipPath>
    <clipPath
       id="clipPath1091"
       clipPathUnits="userSpaceOnUse">
      <path
         inkscape:connector-curvature="0"
         id="path1093"
         d="M 127.83594,796.36506 A 128,128 0 0 0 0,924.3592 a 128,128 0 0 0 128,128 128,128 0 0 0 127.99219,-127.83789 z m 12.42383,0.60742 a 128,128 0 0 1 7.76757,1.1211 128,128 0 0 0 -7.76757,-1.1211 z m 12.58789,1.84961 a 128,128 0 0 1 8.42187,2.08984 128,128 0 0 0 -8.42187,-2.08984 z m 12.36328,3.09766 a 128,128 0 0 1 8.94531,3.19726 128,128 0 0 0 -8.94531,-3.19726 z m 11.98437,4.30468 a 128,128 0 0 1 9.34375,4.43946 128,128 0 0 0 -9.34375,-4.43946 z m 11.49805,5.47852 a 128,128 0 0 1 9.49414,5.73438 128,128 0 0 0 -9.49414,-5.73438 z m 10.90625,6.59961 a 128,128 0 0 1 9.66016,7.24414 128,128 0 0 0 -9.66016,-7.24414 z m 10.17773,7.63867 a 128,128 0 0 1 9.38868,8.62891 128,128 0 0 0 -9.38868,-8.62891 z m 9.38868,8.62891 0.98046,0.98047 a 128,128 0 0 0 -0.98046,-0.98047 z m 7.65039,8.57226 a 128,128 0 0 1 4.5039,5.92188 128,128 0 0 0 -4.5039,-5.92188 z m 7.63867,10.30469 a 128,128 0 0 1 3.81054,6.21289 128,128 0 0 0 -3.81054,-6.21289 z m 6.57617,11.03125 a 128,128 0 0 1 3.08203,6.37695 128,128 0 0 0 -3.08203,-6.37695 z m 5.4375,11.63867 a 128,128 0 0 1 2.37695,6.50782 128,128 0 0 0 -2.37695,-6.50782 z m 4.23242,12.09375 a 128,128 0 0 1 1.68555,6.59375 128,128 0 0 0 -1.68555,-6.59375 z m 3.00781,12.48633 a 128,128 0 0 1 0.99024,6.53906 128,128 0 0 0 -0.99024,-6.53906 z m 1.74024,12.71094 A 128,128 0 0 1 256,924.3592 128,128 0 0 0 255.44922,913.40803 Z"
         style="fill:#ecbb55;fill-opacity:1" />
    </clipPath>
    <clipPath
       clipPathUnits="userSpaceOnUse"
       id="clipPath1408">
      <path
         inkscape:connector-curvature="0"
         id="path1410"
         d="M 127.83594,796.36506 A 128,128 0 0 0 0,924.3592 a 128,128 0 0 0 128,128 128,128 0 0 0 127.99219,-127.83789 z m 12.42383,0.60742 a 128,128 0 0 1 7.76757,1.1211 128,128 0 0 0 -7.76757,-1.1211 z m 12.58789,1.84961 a 128,128 0 0 1 8.42187,2.08984 128,128 0 0 0 -8.42187,-2.08984 z m 12.36328,3.09766 a 128,128 0 0 1 8.94531,3.19726 128,128 0 0 0 -8.94531,-3.19726 z m 11.98437,4.30468 a 128,128 0 0 1 9.34375,4.43946 128,128 0 0 0 -9.34375,-4.43946 z m 11.49805,5.47852 a 128,128 0 0 1 9.49414,5.73438 128,128 0 0 0 -9.49414,-5.73438 z m 10.90625,6.59961 a 128,128 0 0 1 9.66016,7.24414 128,128 0 0 0 -9.66016,-7.24414 z m 10.17773,7.63867 a 128,128 0 0 1 9.38868,8.62891 128,128 0 0 0 -9.38868,-8.62891 z m 9.38868,8.62891 0.98046,0.98047 a 128,128 0 0 0 -0.98046,-0.98047 z m 7.65039,8.57226 a 128,128 0 0 1 4.5039,5.92188 128,128 0 0 0 -4.5039,-5.92188 z m 7.63867,10.30469 a 128,128 0 0 1 3.81054,6.21289 128,128 0 0 0 -3.81054,-6.21289 z m 6.57617,11.03125 a 128,128 0 0 1 3.08203,6.37695 128,128 0 0 0 -3.08203,-6.37695 z m 5.4375,11.63867 a 128,128 0 0 1 2.37695,6.50782 128,128 0 0 0 -2.37695,-6.50782 z m 4.23242,12.09375 a 128,128 0 0 1 1.68555,6.59375 128,128 0 0 0 -1.68555,-6.59375 z m 3.00781,12.48633 a 128,128 0 0 1 0.99024,6.53906 128,128 0 0 0 -0.99024,-6.53906 z m 1.74024,12.71094 A 128,128 0 0 1 256,924.3592 128,128 0 0 0 255.44922,913.40803 Z"
         style="fill:#0096c8;fill-opacity:1" />
    </clipPath>
  </defs>
  <metadata
     id="metadata7">
    <rdf:RDF>
      <cc:Work
         rdf:about="">
        <dc:format>image/svg+xml</dc:format>
        <dc:type
           rdf:resource="http://purl.org/dc/dcmitype/StillImage" />
        <dc:title />
      </cc:Work>
    </rdf:RDF>
  </metadata>
  <g
     inkscape:label="Layer 1"
     inkscape:groupmode="layer"
     id="layer1"
     transform="translate(0,-796.36214)">
    <path
       style="fill:#0096c8;fill-opacity:1"
       d="M 127.83594,796.36506 A 128,128 0 0 0 0,924.3592 a 128,128 0 0 0 128,128 128,128 0 0 0 127.99219,-127.83789 L 127.83594,796.36506 Z m 12.42383,0.60742 a 128,128 0 0 1 7.76757,1.1211 128,128 0 0 0 -7.76757,-1.1211 z m 12.58789,1.84961 a 128,128 0 0 1 8.42187,2.08984 128,128 0 0 0 -8.42187,-2.08984 z m 12.36328,3.09766 a 128,128 0 0 1 8.94531,3.19726 128,128 0 0 0 -8.94531,-3.19726 z m 11.98437,4.30468 a 128,128 0 0 1 9.34375,4.43946 128,128 0 0 0 -9.34375,-4.43946 z m 11.49805,5.47852 a 128,128 0 0 1 9.49414,5.73438 128,128 0 0 0 -9.49414,-5.73438 z m 10.90625,6.59961 a 128,128 0 0 1 9.66016,7.24414 128,128 0 0 0 -9.66016,-7.24414 z m 10.17773,7.63867 a 128,128 0 0 1 9.38868,8.62891 128,128 0 0 0 -9.38868,-8.62891 z m 9.38868,8.62891 0.98046,0.98047 a 128,128 0 0 0 -0.98046,-0.98047 z m 7.65039,8.57226 a 128,128 0 0 1 4.5039,5.92188 128,128 0 0 0 -4.5039,-5.92188 z m 7.63867,10.30469 a 128,128 0 0 1 3.81054,6.21289 128,128 0 0 0 -3.81054,-6.21289 z m 6.57617,11.03125 a 128,128 0 0 1 3.08203,6.37695 128,128 0 0 0 -3.08203,-6.37695 z m 5.4375,11.63867 a 128,128 0 0 1 2.37695,6.50782 128,128 0 0 0 -2.37695,-6.50782 z m 4.23242,12.09375 a 128,128 0 0 1 1.68555,6.59375 128,128 0 0 0 -1.68555,-6.59375 z m 3.00781,12.48633 a 128,128 0 0 1 0.99024,6.53906 128,128 0 0 0 -0.99024,-6.53906 z m 1.74024,12.71094 A 128,128 0 0 1 256,924.3592 128,128 0 0 0 255.44922,913.40803 Z"
       id="path4957"
       inkscape:connector-curvature="0" />
    <path
       style="fill:#42d0ff;fill-opacity:1"
       d="m 255.61415,924.52718 a 128,128 0 0 0 0.16406,-0.006 L 127.62197,796.36506 a 128,128 0 0 0 -0.008,0.16211 128,128 0 0 0 35.85352,88.80861 l 0.98046,0.98046 a 128,128 0 0 0 91.16603,38.21094 z"
       id="rect4961"
       inkscape:connector-curvature="0" />
    <g
       id="g1038">
      <g
         id="g4284"
         transform="matrix(0,0.6742574,-0.6742574,0,752.97707,888.12709)">
        <path
           inkscape:connector-curvature="0"
           id="path4286"
           d="m 93.173333,850.41168 c 0,15 0,15 0,15"
           style="fill:none;fill-rule:evenodd;stroke:#ffffff;stroke-width:10;stroke-linecap:round;stroke-linejoin:miter;stroke-miterlimit:4;stroke-dasharray:none;stroke-opacity:1" />
        <path
           style="fill:none;fill-rule:evenodd;stroke:#ffffff;stroke-width:10;stroke-linecap:round;stroke-linejoin:miter;stroke-miterlimit:4;stroke-dasharray:none;stroke-opacity:1"
           d="m 111.58095,850.41168 c 0,15 0,15 0,15"
           id="path4288"
           inkscape:connector-curvature="0" />
        <path
           inkscape:connector-curvature="0"
           id="path4290"
           d="m 129.98857,850.41168 c 0,15 0,15 0,15"
           style="fill:none;fill-rule:evenodd;stroke:#ffffff;stroke-width:10;stroke-linecap:round;stroke-linejoin:miter;stroke-miterlimit:4;stroke-dasharray:none;stroke-opacity:1" />
        <path
           style="fill:none;fill-rule:evenodd;stroke:#ffffff;stroke-width:10;stroke-linecap:round;stroke-linejoin:miter;stroke-miterlimit:4;stroke-dasharray:none;stroke-opacity:1"
           d="m 148.39619,850.41168 c 0,15 0,15 0,15"
           id="path4292"
           inkscape:connector-curvature="0" />
        <path
           inkscape:connector-curvature="0"
           id="path4294"
           d="m 166.80381,850.41168 c 0,15 0,15 0,15"
           style="fill:none;fill-rule:evenodd;stroke:#ffffff;stroke-width:10;stroke-linecap:round;stroke-linejoin:miter;stroke-miterlimit:4;stroke-dasharray:none;stroke-opacity:1" />
      </g>
      <g
         id="g4296"
         transform="matrix(0.6742574,0,0,0.6742574,40.953201,351.61668)">
        <path
           style="fill:none;fill-rule:evenodd;stroke:#ffffff;stroke-width:10;stroke-linecap:round;stroke-linejoin:miter;stroke-miterlimit:4;stroke-dasharray:none;stroke-opacity:1"
           d="m 93.173333,850.41168 c 0,15 0,15 0,15"
           id="path4298"
           inkscape:connector-curvature="0" />
        <path
           inkscape:connector-curvature="0"
           id="path4300"
           d="m 111.58095,850.41168 c 0,15 0,15 0,15"
           style="fill:none;fill-rule:evenodd;stroke:#ffffff;stroke-width:10;stroke-linecap:round;stroke-linejoin:miter;stroke-miterlimit:4;stroke-dasharray:none;stroke-opacity:1" />
        <path
           style="fill:none;fill-rule:evenodd;stroke:#ffffff;stroke-width:10;stroke-linecap:round;stroke-linejoin:miter;stroke-miterlimit:4;stroke-dasharray:none;stroke-opacity:1"
           d="m 129.98857,850.41168 c 0,15 0,15 0,15"
           id="path4302"
           inkscape:connector-curvature="0" />
        <path
           inkscape:connector-curvature="0"
           id="path4304"
           d="m 148.39619,850.41168 c 0,15 0,15 0,15"
           style="fill:none;fill-rule:evenodd;stroke:#ffffff;stroke-width:10;stroke-linecap:round;stroke-linejoin:miter;stroke-miterlimit:4;stroke-dasharray:none;stroke-opacity:1" />
        <path
           style="fill:none;fill-rule:evenodd;stroke:#ffffff;stroke-width:10;stroke-linecap:round;stroke-linejoin:miter;stroke-miterlimit:4;stroke-dasharray:none;stroke-opacity:1"
           d="m 166.80381,850.41168 c 0,15 0,15 0,15"
           id="path4306"
           inkscape:connector-curvature="0" />
      </g>
      <g
         transform="matrix(0,0.6742574,-0.6742574,0,659.92953,888.12709)"
         id="g4308">
        <path
           style="fill:none;fill-rule:evenodd;stroke:#ffffff;stroke-width:10;stroke-linecap:round;stroke-linejoin:miter;stroke-miterlimit:4;stroke-dasharray:none;stroke-opacity:1"
           d="m 93.173333,850.41168 c 0,15 0,15 0,15"
           id="path4310"
           inkscape:connector-curvature="0" />
        <path
           inkscape:connector-curvature="0"
           id="path4312"
           d="m 111.58095,850.41168 c 0,15 0,15 0,15"
           style="fill:none;fill-rule:evenodd;stroke:#ffffff;stroke-width:10;stroke-linecap:round;stroke-linejoin:miter;stroke-miterlimit:4;stroke-dasharray:none;stroke-opacity:1" />
        <path
           style="fill:none;fill-rule:evenodd;stroke:#ffffff;stroke-width:10;stroke-linecap:round;stroke-linejoin:miter;stroke-miterlimit:4;stroke-dasharray:none;stroke-opacity:1"
           d="m 129.98857,850.41168 c 0,15 0,15 0,15"
           id="path4314"
           inkscape:connector-curvature="0" />
        <path
           inkscape:connector-curvature="0"
           id="path4316"
           d="m 148.39619,850.41168 c 0,15 0,15 0,15"
           style="fill:none;fill-rule:evenodd;stroke:#ffffff;stroke-width:10;stroke-linecap:round;stroke-linejoin:miter;stroke-miterlimit:4;stroke-dasharray:none;stroke-opacity:1" />
        <path
           style="fill:none;fill-rule:evenodd;stroke:#ffffff;stroke-width:10;stroke-linecap:round;stroke-linejoin:miter;stroke-miterlimit:4;stroke-dasharray:none;stroke-opacity:1"
           d="m 166.80381,850.41168 c 0,15 0,15 0,15"
           id="path4318"
           inkscape:connector-curvature="0" />
      </g>
      <g
         transform="matrix(0.6742574,0,0,0.6742574,40.953201,444.66421)"
         id="g4320">
        <path
           inkscape:connector-curvature="0"
           id="path4322"
           d="m 93.173333,850.41168 c 0,15 0,15 0,15"
           style="fill:none;fill-rule:evenodd;stroke:#ffffff;stroke-width:10;stroke-linecap:round;stroke-linejoin:miter;stroke-miterlimit:4;stroke-dasharray:none;stroke-opacity:1" />
        <path
           style="fill:none;fill-rule:evenodd;stroke:#ffffff;stroke-width:10;stroke-linecap:round;stroke-linejoin:miter;stroke-miterlimit:4;stroke-dasharray:none;stroke-opacity:1"
           d="m 111.58095,850.41168 c 0,15 0,15 0,15"
           id="path4324"
           inkscape:connector-curvature="0" />
        <path
           inkscape:connector-curvature="0"
           id="path4326"
           d="m 129.98857,850.41168 c 0,15 0,15 0,15"
           style="fill:none;fill-rule:evenodd;stroke:#ffffff;stroke-width:10;stroke-linecap:round;stroke-linejoin:miter;stroke-miterlimit:4;stroke-dasharray:none;stroke-opacity:1" />
        <path
           style="fill:none;fill-rule:evenodd;stroke:#ffffff;stroke-width:10;stroke-linecap:round;stroke-linejoin:miter;stroke-miterlimit:4;stroke-dasharray:none;stroke-opacity:1"
           d="m 148.39619,850.41168 c 0,15 0,15 0,15"
           id="path4328"
           inkscape:connector-curvature="0" />
        <path
           inkscape:connector-curvature="0"
           id="path4330"
           d="m 166.80381,850.41168 c 0,15 0,15 0,15"
           style="fill:none;fill-rule:evenodd;stroke:#ffffff;stroke-width:10;stroke-linecap:round;stroke-linejoin:miter;stroke-miterlimit:4;stroke-dasharray:none;stroke-opacity:1" />
      </g>
      <rect
         style="fill:#ffffff;fill-opacity:1;stroke-width:0.6742574"
         id="rect4301"
         width="67.425743"
         height="67.425743"
         x="94.902306"
         y="943.64508" />
    </g>
  </g>
</svg>
