<?xml version="1.0" encoding="UTF-8" standalone="no"?>
<!-- Created with Inkscape (http://www.inkscape.org/) -->

<svg
   xmlns:dc="http://purl.org/dc/elements/1.1/"
   xmlns:cc="http://creativecommons.org/ns#"
   xmlns:rdf="http://www.w3.org/1999/02/22-rdf-syntax-ns#"
   xmlns:svg="http://www.w3.org/2000/svg"
   xmlns="http://www.w3.org/2000/svg"
   xmlns:sodipodi="http://sodipodi.sourceforge.net/DTD/sodipodi-0.dtd"
   xmlns:inkscape="http://www.inkscape.org/namespaces/inkscape"
   width="256"
   height="256"
   viewBox="0 0 256 256"
   id="svg2"
   version="1.1"
   inkscape:version="0.92.4 (unknown)"
   sodipodi:docname="application-x-executable-symbolic.svg">
  <sodipodi:namedview
     id="base"
     pagecolor="#ffffff"
     bordercolor="#666666"
     borderopacity="1.0"
     inkscape:pageopacity="0.0"
     inkscape:pageshadow="2"
     inkscape:zoom="3.2811297"
     inkscape:cx="131"
     inkscape:cy="126.16669"
     inkscape:document-units="px"
     inkscape:current-layer="layer1"
     showgrid="false"
     units="px"
     inkscape:window-width="1920"
     inkscape:window-height="1043"
     inkscape:window-x="0"
     inkscape:window-y="0"
     inkscape:window-maximized="1" />
  <defs
     id="defs4">
    <filter
       style="color-interpolation-filters:sRGB;"
       inkscape:label="Drop Shadow"
       id="filter4301">
      <feFlood
         flood-opacity="0.498039"
         flood-color="rgb(0,0,0)"
         result="flood"
         id="feFlood4303" />
      <feComposite
         in="flood"
         in2="SourceGraphic"
         operator="in"
         result="composite1"
         id="feComposite4305" />
      <feGaussianBlur
         in="composite1"
         stdDeviation="3.7"
         result="blur"
         id="feGaussianBlur4307" />
      <feOffset
         dx="3.8"
         dy="3.7"
         result="offset"
         id="feOffset4309" />
      <feComposite
         in="SourceGraphic"
         in2="offset"
         operator="over"
         result="composite2"
         id="feComposite4311" />
    </filter>
    <clipPath
       id="clipPath5055"
       clipPathUnits="userSpaceOnUse">
      <path
         inkscape:connector-curvature="0"
         id="path5057"
         d="m 153.38672,796.84847 -105.781251,0 c -7.804357,0 -14.087891,6.28158 -14.087891,14.08594 l 0,227.33989 c 0,7.8043 6.283534,14.0878 14.087891,14.0878 l 165.162111,0 c 7.80436,0 14.08594,-6.2835 14.08594,-14.0878 l 0,-154.82232 -73.4668,-86.60351 z"
         style="fill:#db4437;fill-opacity:1" />
    </clipPath>
    <clipPath
       clipPathUnits="userSpaceOnUse"
       id="clipPath4563">
      <path
         id="path4565"
         d="m 153.38672,796.84847 -105.781251,0 c -7.804357,0 -14.087891,6.28158 -14.087891,14.08594 l 0,227.33989 c 0,7.8043 6.283534,14.0878 14.087891,14.0878 l 165.162111,0 c 7.80436,0 14.08594,-6.2835 14.08594,-14.0878 l 0,-154.82232 -73.4668,-86.60351 z"
         style="fill:#db4437;fill-opacity:1"
         inkscape:connector-curvature="0" />
    </clipPath>
    <clipPath
       id="clipPath4417"
       clipPathUnits="userSpaceOnUse">
      <path
         inkscape:connector-curvature="0"
         id="path4419"
         d="m 150.44107,-2.4143919 -103.348511,0 c -7.624874,0 -13.7639,6.0316356 -13.7639,13.5254569 l 0,218.293965 c 0,7.49382 6.139026,13.52733 13.7639,13.52733 l 161.363741,0 c 7.62487,0 13.76199,-6.03351 13.76199,-13.52733 l 0,-148.661872 -71.77722,-83.1575499 z"
         style="fill:#db4437;fill-opacity:1" />
    </clipPath>
    <clipPath
       clipPathUnits="userSpaceOnUse"
       id="clipPath4384">
      <rect
         style="fill:#958add;fill-opacity:1;stroke:none;stroke-width:9.10000038;stroke-miterlimit:4;stroke-dasharray:none;stroke-opacity:1"
         id="rect4386"
         width="188.88968"
         height="185.64313"
         x="34.040928"
         y="63.353016"
         ry="14.926058" />
    </clipPath>
  </defs>
  <metadata
     id="metadata7">
    <rdf:RDF>
      <cc:Work
         rdf:about="">
        <dc:format>image/svg+xml</dc:format>
        <dc:type
           rdf:resource="http://purl.org/dc/dcmitype/StillImage" />
        <dc:title />
      </cc:Work>
    </rdf:RDF>
  </metadata>
  <g
     inkscape:label="Layer 1"
     inkscape:groupmode="layer"
     id="layer1"
     transform="translate(0,-796.36214)">
    <path
       style="opacity:1;fill:#00c857;fill-opacity:1;stroke:none;stroke-width:6.39768314;stroke-miterlimit:4;stroke-dasharray:none;stroke-opacity:1"
       d="M 128 0 A 128 128 0 0 0 85.173828 7.5175781 C 85.163284 7.7237989 85.158606 7.9287792 85.123047 8.1367188 L 82.421875 23.929688 L 86.183594 26.710938 L 100.11133 19.216797 C 102.34654 18.013937 105.10937 18.666651 106.5957 20.748047 L 110.48633 26.197266 C 111.97156 28.278585 111.72843 31.154348 109.91406 32.945312 L 98.605469 44.107422 L 100.04102 48.605469 L 115.63867 50.871094 C 118.14124 51.235173 119.99967 53.41605 120 55.988281 L 120 62.724609 C 119.99967 65.296842 118.14124 67.477718 115.63867 67.841797 L 100.04102 70.107422 L 98.605469 74.605469 L 109.91406 85.767578 C 111.72843 87.558542 111.97156 90.434305 110.48633 92.515625 L 106.5957 97.964844 C 105.10937 100.04624 102.34654 100.69895 100.11133 99.496094 C 83.316907 90.459671 80.844848 90.734454 85.123047 110.57617 C 85.556448 113.11055 84.093832 115.5836 81.689453 116.37891 L 75.392578 118.45898 C 72.988031 119.25315 70.374981 118.12779 69.261719 115.81836 L 62.324219 101.42578 L 57.675781 101.42578 L 50.738281 115.81836 C 49.625019 118.12779 47.011969 119.25315 44.607422 118.45898 L 38.310547 116.37891 C 35.906166 115.5836 34.443552 113.11055 34.876953 110.57617 L 37.578125 94.783203 L 33.816406 92.001953 L 19.888672 99.496094 C 17.65346 100.69895 14.890633 100.04624 13.404297 97.964844 L 9.5136719 92.515625 C 8.0284265 90.434305 8.2715671 87.558542 10.085938 85.767578 L 21.394531 74.605469 L 19.958984 70.107422 L 14.382812 69.296875 A 128 128 0 0 0 0 128 A 128 128 0 0 0 128 256 A 128 128 0 0 0 140.99805 255.32812 C 138.64272 253.69979 137.35185 250.78 137.86133 247.80078 L 141.80273 224.76953 L 136.31641 220.71484 L 116.00586 231.64453 C 112.74621 233.39868 108.71441 232.44549 106.54688 229.41016 L 100.87305 221.46289 C 98.707105 218.42767 99.065009 214.23484 101.71094 211.62305 L 118.20117 195.3457 L 116.10742 188.78516 L 93.361328 185.48242 C 89.711788 184.95148 87.002433 181.77066 87.001953 178.01953 L 87.001953 168.19531 C 87.002433 164.44418 89.711788 161.26336 93.361328 160.73242 L 116.10742 157.42969 L 118.20117 150.86914 L 101.71094 134.5918 C 99.065009 131.98 98.707105 127.78718 100.87305 124.75195 L 106.54688 116.80469 C 108.71441 113.76935 112.74621 112.81616 116.00586 114.57031 L 136.31641 125.5 L 141.80273 121.44531 L 137.86133 98.414062 C 137.22929 94.71814 139.36474 91.110978 142.87109 89.951172 L 152.05273 86.916016 C 152.82692 86.660972 153.63752 86.537858 154.45117 86.550781 C 157.23765 86.592681 159.76432 88.222131 160.99219 90.767578 L 171.10938 111.75586 L 177.89062 111.75586 L 188.00781 90.767578 C 189.6313 87.399696 193.44067 85.757867 196.94727 86.916016 L 206.12891 89.951172 C 209.63526 91.110978 211.77071 94.71814 211.13867 98.414062 L 207.19727 121.44531 L 212.68359 125.5 L 232.99414 114.57031 C 236.25379 112.81616 240.28559 113.76935 242.45312 116.80469 L 248.12695 124.75195 C 250.29289 127.78718 249.93499 131.98 247.28906 134.5918 L 230.79883 150.86914 L 232.89258 157.42969 L 251.79883 160.17578 A 128 128 0 0 0 256 128 A 128 128 0 0 0 128 0 z M 241.20312 187.57812 L 232.89258 188.78516 L 230.79883 195.3457 L 234.4375 198.9375 A 128 128 0 0 0 241.20312 187.57812 z M 212.74609 223.30859 C 210.47796 223.38692 209.18436 224.63506 208.69141 227.24414 A 128 128 0 0 0 213.22656 223.32227 C 213.06601 223.31719 212.89793 223.30335 212.74609 223.30859 z M 171.10938 234.45898 L 163.15234 250.9668 A 128 128 0 0 0 182.35352 243.71875 L 177.89062 234.45898 L 171.10938 234.45898 z "
       transform="translate(0,796.36214)"
       id="path876" />
    <g
       style="fill:none;stroke:#ffffff;stroke-width:9.09971142;stroke-linejoin:round;stroke-miterlimit:4;stroke-dasharray:none;stroke-opacity:1"
       transform="matrix(1.6283621,0,0,1.6568392,174.5,969.46953)"
       inkscape:label="Gear10"
       id="g4203" />
  </g>
</svg>
