<?xml version="1.0" encoding="UTF-8" standalone="no"?>
<!-- Created with Inkscape (http://www.inkscape.org/) -->

<svg
   xmlns:dc="http://purl.org/dc/elements/1.1/"
   xmlns:cc="http://creativecommons.org/ns#"
   xmlns:rdf="http://www.w3.org/1999/02/22-rdf-syntax-ns#"
   xmlns:svg="http://www.w3.org/2000/svg"
   xmlns="http://www.w3.org/2000/svg"
   xmlns:sodipodi="http://sodipodi.sourceforge.net/DTD/sodipodi-0.dtd"
   xmlns:inkscape="http://www.inkscape.org/namespaces/inkscape"
   sodipodi:docname="application-postscript.svg"
   inkscape:version="0.92.4 (unknown)"
   version="1.1"
   id="svg2"
   viewBox="0 0 256 256"
   height="256"
   width="256">
  <sodipodi:namedview
     inkscape:window-maximized="1"
     inkscape:window-y="0"
     inkscape:window-x="0"
     inkscape:window-height="1048"
     inkscape:window-width="1920"
     units="px"
     showgrid="false"
     inkscape:current-layer="layer1"
     inkscape:document-units="px"
     inkscape:cy="128"
     inkscape:cx="44.679243"
     inkscape:zoom="3.3125"
     inkscape:pageshadow="2"
     inkscape:pageopacity="0.0"
     borderopacity="1.0"
     bordercolor="#666666"
     pagecolor="#ffffff"
     id="base" />
  <defs
     id="defs4">
    <filter
       id="filter4301"
       inkscape:label="Drop Shadow"
       style="color-interpolation-filters:sRGB;">
      <feFlood
         id="feFlood4303"
         result="flood"
         flood-color="rgb(0,0,0)"
         flood-opacity="0.498039" />
      <feComposite
         id="feComposite4305"
         result="composite1"
         operator="in"
         in2="SourceGraphic"
         in="flood" />
      <feGaussianBlur
         id="feGaussianBlur4307"
         result="blur"
         stdDeviation="3.7"
         in="composite1" />
      <feOffset
         id="feOffset4309"
         result="offset"
         dy="3.7"
         dx="3.8" />
      <feComposite
         id="feComposite4311"
         result="composite2"
         operator="over"
         in2="offset"
         in="SourceGraphic" />
    </filter>
    <clipPath
       clipPathUnits="userSpaceOnUse"
       id="clipPath5055">
      <path
         style="fill:#db4437;fill-opacity:1"
         d="m 153.38672,796.84847 -105.781251,0 c -7.804357,0 -14.087891,6.28158 -14.087891,14.08594 l 0,227.33989 c 0,7.8043 6.283534,14.0878 14.087891,14.0878 l 165.162111,0 c 7.80436,0 14.08594,-6.2835 14.08594,-14.0878 l 0,-154.82232 -73.4668,-86.60351 z"
         id="path5057"
         inkscape:connector-curvature="0" />
    </clipPath>
    <clipPath
       id="clipPath4563"
       clipPathUnits="userSpaceOnUse">
      <path
         inkscape:connector-curvature="0"
         style="fill:#db4437;fill-opacity:1"
         d="m 153.38672,796.84847 -105.781251,0 c -7.804357,0 -14.087891,6.28158 -14.087891,14.08594 l 0,227.33989 c 0,7.8043 6.283534,14.0878 14.087891,14.0878 l 165.162111,0 c 7.80436,0 14.08594,-6.2835 14.08594,-14.0878 l 0,-154.82232 -73.4668,-86.60351 z"
         id="path4565" />
    </clipPath>
    <clipPath
       clipPathUnits="userSpaceOnUse"
       id="clipPath4402">
      <path
         style="fill:#db4437;fill-opacity:1"
         d="m 153.38672,796.84847 -105.781251,0 c -7.804357,0 -14.087891,6.28158 -14.087891,14.08594 l 0,227.33989 c 0,7.8043 6.283534,14.0878 14.087891,14.0878 l 165.162111,0 c 7.80436,0 14.08594,-6.2835 14.08594,-14.0878 l 0,-154.82232 -73.4668,-86.60351 z"
         id="path4404"
         inkscape:connector-curvature="0" />
    </clipPath>
    <clipPath
       id="clipPath5280"
       clipPathUnits="userSpaceOnUse">
      <path
         inkscape:connector-curvature="0"
         style="fill:#db4437;fill-opacity:1"
         d="m 153.28865,-10.32993 -103.34851,0 c -7.624873,0 -13.7639,6.0316357 -13.7639,13.5254566 l 0,218.2939634 c 0,7.49382 6.139027,13.52733 13.7639,13.52733 l 161.36374,0 c 7.62487,0 13.76199,-6.03351 13.76199,-13.52733 l 0,-148.66187 -71.77722,-83.15755 z"
         id="path5282" />
    </clipPath>
    <clipPath
       clipPathUnits="userSpaceOnUse"
       id="clipPath4514">
      <g
         id="g4516"
         transform="matrix(0.97700215,0,0,0.96020986,227.16299,-746.66538)">
        <path
           inkscape:connector-curvature="0"
           id="path4518"
           d="M -101.16406,766.36506 A 128,128 0 0 0 -229,894.3592 a 128,128 0 0 0 128,128 A 128,128 0 0 0 26.99219,894.52131 L -101.16406,766.36506 Z m 12.42383,0.60742 a 128,128 0 0 1 7.76757,1.1211 128,128 0 0 0 -7.76757,-1.1211 z m 12.58789,1.84961 a 128,128 0 0 1 8.42187,2.08984 128,128 0 0 0 -8.42187,-2.08984 z m 12.36328,3.09766 a 128,128 0 0 1 8.94531,3.19726 128,128 0 0 0 -8.94531,-3.19726 z m 11.98437,4.30468 a 128,128 0 0 1 9.34375,4.43946 128,128 0 0 0 -9.34375,-4.43946 z m 11.49805,5.47852 a 128,128 0 0 1 9.49414,5.73438 128,128 0 0 0 -9.49414,-5.73438 z m 10.90625,6.59961 a 128,128 0 0 1 9.66016,7.24414 128,128 0 0 0 -9.66016,-7.24414 z m 10.17773,7.63867 a 128,128 0 0 1 9.38868,8.62891 128,128 0 0 0 -9.38868,-8.62891 z m 9.38868,8.62891 0.98046,0.98047 a 128,128 0 0 0 -0.98046,-0.98047 z m 7.65039,8.57226 a 128,128 0 0 1 4.5039,5.92188 128,128 0 0 0 -4.5039,-5.92188 z m 7.63867,10.30469 a 128,128 0 0 1 3.81054,6.21289 128,128 0 0 0 -3.81054,-6.21289 z m 6.57617,11.03125 a 128,128 0 0 1 3.08203,6.37695 128,128 0 0 0 -3.08203,-6.37695 z m 5.4375,11.63867 a 128,128 0 0 1 2.37695,6.50782 128,128 0 0 0 -2.37695,-6.50782 z m 4.23242,12.09375 a 128,128 0 0 1 1.68555,6.59375 128,128 0 0 0 -1.68555,-6.59375 z m 3.00781,12.48633 a 128,128 0 0 1 0.99024,6.53906 128,128 0 0 0 -0.99024,-6.53906 z m 1.74024,12.71094 A 128,128 0 0 1 27,894.3592 128,128 0 0 0 26.44922,883.40803 Z"
           style="fill:#939393;fill-opacity:1" />
        <path
           inkscape:connector-curvature="0"
           id="path4520"
           d="m 26.61415,894.52719 a 128,128 0 0 0 0.16406,-0.006 L -101.37803,766.36506 a 128,128 0 0 0 -0.008,0.16211 128,128 0 0 0 35.85352,88.80861 l 0.98046,0.98046 a 128,128 0 0 0 91.16603,38.21095 z"
           style="fill:#c9c7c6;fill-opacity:1" />
      </g>
    </clipPath>
    <clipPath
       id="clipPath5176"
       clipPathUnits="userSpaceOnUse">
      <path
         style="fill:#df1818;fill-opacity:1;stroke-width:1.62949407"
         d="M -31.801273,634.9021 A 208.57525,208.57525 0 0 0 -240.10919,843.4678 208.57525,208.57525 0 0 0 -31.533938,1052.043 208.57525,208.57525 0 0 0 177.02858,843.73195 Z m 20.244558,0.98978 a 208.57525,208.57525 0 0 1 12.6572102,1.82683 208.57525,208.57525 0 0 0 -12.6572102,-1.82683 z m 20.5118933,3.01393 a 208.57525,208.57525 0 0 1 13.7233877,3.40538 208.57525,208.57525 0 0 0 -13.7233877,-3.40538 z m 20.1458917,5.04762 a 208.57525,208.57525 0 0 1 14.576331,5.20992 208.57525,208.57525 0 0 0 -14.576331,-5.20992 z m 19.528461,7.01445 a 208.57525,208.57525 0 0 1 15.225586,7.23408 208.57525,208.57525 0 0 0 -15.225586,-7.23408 z m 18.736005,8.92722 a 208.57525,208.57525 0 0 1 15.470645,9.34414 208.57525,208.57525 0 0 0 -15.470645,-9.34414 z m 17.77167,10.75402 a 208.57525,208.57525 0 0 1 15.741174,11.80429 208.57525,208.57525 0 0 0 -15.741174,-11.80429 z m 16.584554,12.44717 a 208.57525,208.57525 0 0 1 15.2988,14.06076 208.57525,208.57525 0 0 0 -15.2988,-14.06076 z m 15.2988,14.06076 1.59765,1.59767 a 208.57525,208.57525 0 0 0 -1.59765,-1.59767 z m 12.46626,13.96845 a 208.57525,208.57525 0 0 1 7.33908,9.64967 208.57525,208.57525 0 0 0 -7.33908,-9.64967 z m 12.44717,16.79143 a 208.57525,208.57525 0 0 1 6.20925,10.12387 208.57525,208.57525 0 0 0 -6.20925,-10.12387 z m 10.71583,17.97536 a 208.57525,208.57525 0 0 1 5.02215,10.3912 208.57525,208.57525 0 0 0 -5.02215,-10.3912 z m 8.86037,18.96514 a 208.57525,208.57525 0 0 1 3.87323,10.60445 208.57525,208.57525 0 0 0 -3.87323,-10.60445 z m 6.89671,19.70669 a 208.57525,208.57525 0 0 1 2.74659,10.74448 208.57525,208.57525 0 0 0 -2.74659,-10.74448 z m 4.90121,20.34641 a 208.57525,208.57525 0 0 1 1.61359,10.65536 208.57525,208.57525 0 0 0 -1.61359,-10.65536 z m 2.83571,20.7124 a 208.57525,208.57525 0 0 1 0.89749,17.84487 208.57525,208.57525 0 0 0 -0.89749,-17.84487 z"
         id="path5178"
         inkscape:connector-curvature="0" />
    </clipPath>
    <clipPath
       clipPathUnits="userSpaceOnUse"
       id="clipPath5855">
      <path
         style="fill:#df1818;fill-opacity:1;stroke-width:1.62949407"
         d="M -31.801273,634.9021 A 208.57525,208.57525 0 0 0 -240.10919,843.4678 208.57525,208.57525 0 0 0 -31.533938,1052.043 208.57525,208.57525 0 0 0 177.02858,843.73195 Z m 20.244558,0.98978 a 208.57525,208.57525 0 0 1 12.6572102,1.82683 208.57525,208.57525 0 0 0 -12.6572102,-1.82683 z m 20.5118933,3.01393 a 208.57525,208.57525 0 0 1 13.7233877,3.40538 208.57525,208.57525 0 0 0 -13.7233877,-3.40538 z m 20.1458917,5.04762 a 208.57525,208.57525 0 0 1 14.576331,5.20992 208.57525,208.57525 0 0 0 -14.576331,-5.20992 z m 19.528461,7.01445 a 208.57525,208.57525 0 0 1 15.225586,7.23408 208.57525,208.57525 0 0 0 -15.225586,-7.23408 z m 18.736005,8.92722 a 208.57525,208.57525 0 0 1 15.470645,9.34414 208.57525,208.57525 0 0 0 -15.470645,-9.34414 z m 17.77167,10.75402 a 208.57525,208.57525 0 0 1 15.741174,11.80429 208.57525,208.57525 0 0 0 -15.741174,-11.80429 z m 16.584554,12.44717 a 208.57525,208.57525 0 0 1 15.2988,14.06076 208.57525,208.57525 0 0 0 -15.2988,-14.06076 z m 15.2988,14.06076 1.59765,1.59767 a 208.57525,208.57525 0 0 0 -1.59765,-1.59767 z m 12.46626,13.96845 a 208.57525,208.57525 0 0 1 7.33908,9.64967 208.57525,208.57525 0 0 0 -7.33908,-9.64967 z m 12.44717,16.79143 a 208.57525,208.57525 0 0 1 6.20925,10.12387 208.57525,208.57525 0 0 0 -6.20925,-10.12387 z m 10.71583,17.97536 a 208.57525,208.57525 0 0 1 5.02215,10.3912 208.57525,208.57525 0 0 0 -5.02215,-10.3912 z m 8.86037,18.96514 a 208.57525,208.57525 0 0 1 3.87323,10.60445 208.57525,208.57525 0 0 0 -3.87323,-10.60445 z m 6.89671,19.70669 a 208.57525,208.57525 0 0 1 2.74659,10.74448 208.57525,208.57525 0 0 0 -2.74659,-10.74448 z m 4.90121,20.34641 a 208.57525,208.57525 0 0 1 1.61359,10.65536 208.57525,208.57525 0 0 0 -1.61359,-10.65536 z m 2.83571,20.7124 a 208.57525,208.57525 0 0 1 0.89749,17.84487 208.57525,208.57525 0 0 0 -0.89749,-17.84487 z"
         id="path5857"
         inkscape:connector-curvature="0" />
    </clipPath>
  </defs>
  <metadata
     id="metadata7">
    <rdf:RDF>
      <cc:Work
         rdf:about="">
        <dc:format>image/svg+xml</dc:format>
        <dc:type
           rdf:resource="http://purl.org/dc/dcmitype/StillImage" />
        <dc:title />
      </cc:Work>
    </rdf:RDF>
  </metadata>
  <g
     transform="translate(0,-796.36214)"
     id="layer1"
     inkscape:groupmode="layer"
     inkscape:label="Layer 1">
    <path
       inkscape:connector-curvature="0"
       id="path4957"
       d="M 127.83594,796.36507 A 128,128 0 0 0 0,924.35921 128,128 0 0 0 128,1052.3592 128,128 0 0 0 255.99219,924.52132 Z m 12.42383,0.60742 a 128,128 0 0 1 7.76757,1.1211 128,128 0 0 0 -7.76757,-1.1211 z m 12.58789,1.84961 a 128,128 0 0 1 8.42187,2.08984 128,128 0 0 0 -8.42187,-2.08984 z m 12.36328,3.09766 a 128,128 0 0 1 8.94531,3.19726 128,128 0 0 0 -8.94531,-3.19726 z m 11.98437,4.30468 a 128,128 0 0 1 9.34375,4.43946 128,128 0 0 0 -9.34375,-4.43946 z m 11.49805,5.47852 a 128,128 0 0 1 9.49414,5.73438 128,128 0 0 0 -9.49414,-5.73438 z m 10.90625,6.59961 a 128,128 0 0 1 9.66016,7.24414 128,128 0 0 0 -9.66016,-7.24414 z m 10.17773,7.63867 a 128,128 0 0 1 9.38868,8.62891 128,128 0 0 0 -9.38868,-8.62891 z m 9.38868,8.62891 0.98046,0.98047 a 128,128 0 0 0 -0.98046,-0.98047 z m 7.65039,8.57226 a 128,128 0 0 1 4.5039,5.92188 128,128 0 0 0 -4.5039,-5.92188 z m 7.63867,10.30469 a 128,128 0 0 1 3.81054,6.21289 128,128 0 0 0 -3.81054,-6.21289 z m 6.57617,11.03125 a 128,128 0 0 1 3.08203,6.37695 128,128 0 0 0 -3.08203,-6.37695 z m 5.4375,11.63867 a 128,128 0 0 1 2.37695,6.50782 128,128 0 0 0 -2.37695,-6.50782 z m 4.23242,12.09375 a 128,128 0 0 1 1.68555,6.59375 128,128 0 0 0 -1.68555,-6.59375 z m 3.00781,12.48633 a 128,128 0 0 1 0.99024,6.53906 128,128 0 0 0 -0.99024,-6.53906 z m 1.74024,12.71094 A 128,128 0 0 1 256,924.35921 128,128 0 0 0 255.44922,913.40804 Z"
       style="fill:#df1818;fill-opacity:1" />
    <path
       inkscape:connector-curvature="0"
       id="rect4961"
       d="m 255.61415,924.5272 a 128,128 0 0 0 0.16406,-0.006 L 127.62197,796.36507 a 128,128 0 0 0 -0.008,0.16211 128,128 0 0 0 35.85352,88.80861 l 0.98046,0.98046 a 128,128 0 0 0 91.16603,38.21095 z"
       style="fill:#ff7272;fill-opacity:1" />
    <g
       id="g4201"
       style="fill:none;stroke:#ffffff;stroke-width:9.09971142;stroke-linejoin:round;stroke-miterlimit:4;stroke-dasharray:none;stroke-opacity:1"
       transform="matrix(1.0235392,0,0,1.041439,-3.5102222,807.60646)" />
    <g
       id="g3826"
       transform="matrix(0.61368739,0,0,0.61368739,147.35198,406.73366)"
       style="fill:#ffffff;fill-opacity:1">
      <path
         id="path3773"
         d="m -52.113644,1007.7064 c -5,-0.1579 -10.838068,-0.3101 -12.973484,-0.3384 -2.135417,-0.029 -3.882576,-0.1953 -3.882576,-0.3706 0,-0.1754 0.724432,-0.5295 1.609848,-0.787 2.870974,-0.8349 7.68466,-3.3583 10.743032,-5.6315 6.58379,-4.89359 12.37632,-12.52153 17.320134,-22.80814 1.55196,-3.22916 14.19999,-30.55836 28.10674,-60.73155 l 25.285,-54.86034 2.12292,0.20727 c 1.16762,0.114 3.99794,0.30929 6.2896,0.43398 7.45244,0.40548 26.28848,2.06029 28.11769,2.47023 6.95884,1.55951 13.05857,7.73662 14.66181,14.84783 0.57041,2.53009 1.78101,14.17249 2.57001,24.71592 0.6564,8.77158 0.6564,50.69811 0,59.46969 -0.82201,10.98453 -2.00031,22.24494 -2.57639,24.62122 -1.77711,7.33035 -7.50572,13.11919 -14.59245,14.74579 -4.15608,0.954 -28.54152,2.7788 -48.25642,3.6112 -12.41093,0.524 -43.45751,0.7539 -54.545464,0.4039 z"
         style="fill:#ffffff;stroke-width:0.37878788;fill-opacity:1"
         inkscape:connector-curvature="0" />
      <path
         id="path3771"
         d="m -103.81819,1005.1862 c -10.7454,-1.2678 -15.32723,-2.9088 -19.34848,-6.93009 -3.67705,-3.67705 -4.82605,-6.74911 -5.8199,-15.5606 -3.37411,-29.91485 -3.22008,-71.73013 0.36626,-99.43182 0.45173,-3.48932 0.79329,-4.68059 2.10108,-7.32804 2.57621,-5.2152 6.92686,-8.85389 12.47377,-10.43252 2.48099,-0.70608 15.007632,-1.83508 29.924241,-2.69701 5.9375,-0.34309 11.332352,-0.70035 11.988564,-0.79392 1.013527,-0.14451 2.998065,-2.19063 13.184871,-13.594 10.37965,-11.61924 12.16689,-13.45674 13.29439,-13.66826 1.59612,-0.29944 9.485724,-0.0605 9.844364,0.29815 0.14247,0.14247 -0.0587,0.6571 -0.44703,1.14363 -0.74665,0.93545 -81.16263,94.59072 -82.43201,96.00321 l -0.74158,0.82518 2.27103,-0.70682 c 10.89781,-3.39178 30.600367,-0.45869 44.965484,6.69395 7.842818,3.90507 14.501012,9.149 18.202422,14.33607 4.03395,5.65308 5.65502,10.74195 5.60963,17.60977 -0.0922,13.95056 -6.09102,23.53007 -18.372135,29.33842 -7.727315,3.6547 -13.931784,4.8156 -26.458909,4.9509 -5.104167,0.055 -9.876892,0.03 -10.606062,-0.056 z"
         style="fill:#ffffff;stroke-width:0.37878788;fill-opacity:1"
         inkscape:connector-curvature="0" />
      <path
         id="path3767"
         d="m -43.803434,969.34309 c -0.0209,-6.24886 -0.11966,-7.27059 -1.02823,-10.63895 -1.19551,-4.4321 -4.04747,-10.56568 -6.88252,-14.80188 -8.417225,-12.57722 -23.863065,-23.63596 -37.628778,-26.94101 -1.517791,-0.36441 -2.710973,-0.78833 -2.651515,-0.94205 0.05946,-0.15371 17.143103,-19.91901 37.963653,-43.92288 36.924424,-42.56992 37.884294,-43.63875 39.024334,-43.45374 3.54284,0.57492 11.05974,4.36965 10.66961,5.38631 -0.11269,0.29367 -14.72887,17.45755 -32.4804,38.14195 -17.751534,20.6844 -32.494606,37.86728 -32.762394,38.18418 -0.416814,0.49326 -0.05787,0.89315 2.494095,2.77861 3.689106,2.72562 10.470625,9.62123 13.549375,13.77732 6.18805,8.35347 10.32795,17.29157 12.093734,26.11059 0.9685,4.83706 0.8904,12.89546 -0.16644,17.17397 -0.692294,2.80262 -1.811514,6.06089 -2.081784,6.06046 -0.0493,-8e-5 -0.10003,-3.11088 -0.11274,-6.91288 z"
         style="fill:#ffffff;stroke-width:0.37878788;fill-opacity:1"
         inkscape:connector-curvature="0" />
    </g>
  </g>
</svg>
