<?xml version="1.0" encoding="UTF-8" standalone="no"?>
<!-- Created with Inkscape (http://www.inkscape.org/) -->

<svg
   xmlns:dc="http://purl.org/dc/elements/1.1/"
   xmlns:cc="http://creativecommons.org/ns#"
   xmlns:rdf="http://www.w3.org/1999/02/22-rdf-syntax-ns#"
   xmlns:svg="http://www.w3.org/2000/svg"
   xmlns="http://www.w3.org/2000/svg"
   xmlns:sodipodi="http://sodipodi.sourceforge.net/DTD/sodipodi-0.dtd"
   xmlns:inkscape="http://www.inkscape.org/namespaces/inkscape"
   width="256"
   height="256"
   viewBox="0 0 256 256"
   id="svg2"
   version="1.1"
   inkscape:version="0.92.4 (unknown)"
   sodipodi:docname="application-x-object.svg">
  <sodipodi:namedview
     id="base"
     pagecolor="#ffffff"
     bordercolor="#666666"
     borderopacity="1.0"
     inkscape:pageopacity="0.0"
     inkscape:pageshadow="2"
     inkscape:zoom="3.2851562"
     inkscape:cx="63.771699"
     inkscape:cy="128"
     inkscape:document-units="px"
     inkscape:current-layer="layer1"
     showgrid="false"
     units="px"
     inkscape:window-width="1920"
     inkscape:window-height="1048"
     inkscape:window-x="0"
     inkscape:window-y="0"
     inkscape:window-maximized="1" />
  <defs
     id="defs4">
    <filter
       id="filter4301"
       inkscape:label="Drop Shadow"
       style="color-interpolation-filters:sRGB;">
      <feFlood
         id="feFlood4303"
         result="flood"
         flood-color="rgb(0,0,0)"
         flood-opacity="0.498039" />
      <feComposite
         id="feComposite4305"
         result="composite1"
         operator="in"
         in2="SourceGraphic"
         in="flood" />
      <feGaussianBlur
         id="feGaussianBlur4307"
         result="blur"
         stdDeviation="3.7"
         in="composite1" />
      <feOffset
         id="feOffset4309"
         result="offset"
         dy="3.7"
         dx="3.8" />
      <feComposite
         id="feComposite4311"
         result="composite2"
         operator="over"
         in2="offset"
         in="SourceGraphic" />
    </filter>
    <clipPath
       clipPathUnits="userSpaceOnUse"
       id="clipPath5055">
      <path
         style="fill:#db4437;fill-opacity:1"
         d="m 153.38672,796.84847 -105.781251,0 c -7.804357,0 -14.087891,6.28158 -14.087891,14.08594 l 0,227.33989 c 0,7.8043 6.283534,14.0878 14.087891,14.0878 l 165.162111,0 c 7.80436,0 14.08594,-6.2835 14.08594,-14.0878 l 0,-154.82232 -73.4668,-86.60351 z"
         id="path5057"
         inkscape:connector-curvature="0" />
    </clipPath>
    <clipPath
       id="clipPath4563"
       clipPathUnits="userSpaceOnUse">
      <path
         inkscape:connector-curvature="0"
         style="fill:#db4437;fill-opacity:1"
         d="m 153.38672,796.84847 -105.781251,0 c -7.804357,0 -14.087891,6.28158 -14.087891,14.08594 l 0,227.33989 c 0,7.8043 6.283534,14.0878 14.087891,14.0878 l 165.162111,0 c 7.80436,0 14.08594,-6.2835 14.08594,-14.0878 l 0,-154.82232 -73.4668,-86.60351 z"
         id="path4565" />
    </clipPath>
    <clipPath
       clipPathUnits="userSpaceOnUse"
       id="clipPath4402">
      <path
         style="fill:#db4437;fill-opacity:1"
         d="m 153.38672,796.84847 -105.781251,0 c -7.804357,0 -14.087891,6.28158 -14.087891,14.08594 l 0,227.33989 c 0,7.8043 6.283534,14.0878 14.087891,14.0878 l 165.162111,0 c 7.80436,0 14.08594,-6.2835 14.08594,-14.0878 l 0,-154.82232 -73.4668,-86.60351 z"
         id="path4404"
         inkscape:connector-curvature="0" />
    </clipPath>
    <clipPath
       id="clipPath5280"
       clipPathUnits="userSpaceOnUse">
      <path
         inkscape:connector-curvature="0"
         style="fill:#db4437;fill-opacity:1"
         d="m 153.28865,-10.32993 -103.34851,0 c -7.624873,0 -13.7639,6.0316357 -13.7639,13.5254566 l 0,218.2939634 c 0,7.49382 6.139027,13.52733 13.7639,13.52733 l 161.36374,0 c 7.62487,0 13.76199,-6.03351 13.76199,-13.52733 l 0,-148.66187 -71.77722,-83.15755 z"
         id="path5282" />
    </clipPath>
    <clipPath
       clipPathUnits="userSpaceOnUse"
       id="clipPath4514">
      <g
         id="g4516"
         transform="matrix(0.97700215,0,0,0.96020986,227.16299,-746.66538)">
        <path
           inkscape:connector-curvature="0"
           id="path4518"
           d="M -101.16406,766.36506 A 128,128 0 0 0 -229,894.3592 a 128,128 0 0 0 128,128 A 128,128 0 0 0 26.99219,894.52131 L -101.16406,766.36506 Z m 12.42383,0.60742 a 128,128 0 0 1 7.76757,1.1211 128,128 0 0 0 -7.76757,-1.1211 z m 12.58789,1.84961 a 128,128 0 0 1 8.42187,2.08984 128,128 0 0 0 -8.42187,-2.08984 z m 12.36328,3.09766 a 128,128 0 0 1 8.94531,3.19726 128,128 0 0 0 -8.94531,-3.19726 z m 11.98437,4.30468 a 128,128 0 0 1 9.34375,4.43946 128,128 0 0 0 -9.34375,-4.43946 z m 11.49805,5.47852 a 128,128 0 0 1 9.49414,5.73438 128,128 0 0 0 -9.49414,-5.73438 z m 10.90625,6.59961 a 128,128 0 0 1 9.66016,7.24414 128,128 0 0 0 -9.66016,-7.24414 z m 10.17773,7.63867 a 128,128 0 0 1 9.38868,8.62891 128,128 0 0 0 -9.38868,-8.62891 z m 9.38868,8.62891 0.98046,0.98047 a 128,128 0 0 0 -0.98046,-0.98047 z m 7.65039,8.57226 a 128,128 0 0 1 4.5039,5.92188 128,128 0 0 0 -4.5039,-5.92188 z m 7.63867,10.30469 a 128,128 0 0 1 3.81054,6.21289 128,128 0 0 0 -3.81054,-6.21289 z m 6.57617,11.03125 a 128,128 0 0 1 3.08203,6.37695 128,128 0 0 0 -3.08203,-6.37695 z m 5.4375,11.63867 a 128,128 0 0 1 2.37695,6.50782 128,128 0 0 0 -2.37695,-6.50782 z m 4.23242,12.09375 a 128,128 0 0 1 1.68555,6.59375 128,128 0 0 0 -1.68555,-6.59375 z m 3.00781,12.48633 a 128,128 0 0 1 0.99024,6.53906 128,128 0 0 0 -0.99024,-6.53906 z m 1.74024,12.71094 A 128,128 0 0 1 27,894.3592 128,128 0 0 0 26.44922,883.40803 Z"
           style="fill:#939393;fill-opacity:1" />
        <path
           inkscape:connector-curvature="0"
           id="path4520"
           d="m 26.61415,894.52719 a 128,128 0 0 0 0.16406,-0.006 L -101.37803,766.36506 a 128,128 0 0 0 -0.008,0.16211 128,128 0 0 0 35.85352,88.80861 l 0.98046,0.98046 a 128,128 0 0 0 91.16603,38.21095 z"
           style="fill:#c9c7c6;fill-opacity:1" />
      </g>
    </clipPath>
  </defs>
  <metadata
     id="metadata7">
    <rdf:RDF>
      <cc:Work
         rdf:about="">
        <dc:format>image/svg+xml</dc:format>
        <dc:type
           rdf:resource="http://purl.org/dc/dcmitype/StillImage" />
        <dc:title />
      </cc:Work>
    </rdf:RDF>
  </metadata>
  <g
     transform="translate(0,-796.36214)"
     id="layer1"
     inkscape:groupmode="layer"
     inkscape:label="Layer 1">
    <g
       transform="translate(229,30.00001)"
       id="g4225">
      <path
         style="fill:#939393;fill-opacity:1"
         d="M -101.16406,766.36506 A 128,128 0 0 0 -229,894.3592 a 128,128 0 0 0 128,128 A 128,128 0 0 0 26.99219,894.52131 L -101.16406,766.36506 Z m 12.42383,0.60742 a 128,128 0 0 1 7.76757,1.1211 128,128 0 0 0 -7.76757,-1.1211 z m 12.58789,1.84961 a 128,128 0 0 1 8.42187,2.08984 128,128 0 0 0 -8.42187,-2.08984 z m 12.36328,3.09766 a 128,128 0 0 1 8.94531,3.19726 128,128 0 0 0 -8.94531,-3.19726 z m 11.98437,4.30468 a 128,128 0 0 1 9.34375,4.43946 128,128 0 0 0 -9.34375,-4.43946 z m 11.49805,5.47852 a 128,128 0 0 1 9.49414,5.73438 128,128 0 0 0 -9.49414,-5.73438 z m 10.90625,6.59961 a 128,128 0 0 1 9.66016,7.24414 128,128 0 0 0 -9.66016,-7.24414 z m 10.17773,7.63867 a 128,128 0 0 1 9.38868,8.62891 128,128 0 0 0 -9.38868,-8.62891 z m 9.38868,8.62891 0.98046,0.98047 a 128,128 0 0 0 -0.98046,-0.98047 z m 7.65039,8.57226 a 128,128 0 0 1 4.5039,5.92188 128,128 0 0 0 -4.5039,-5.92188 z m 7.63867,10.30469 a 128,128 0 0 1 3.81054,6.21289 128,128 0 0 0 -3.81054,-6.21289 z m 6.57617,11.03125 a 128,128 0 0 1 3.08203,6.37695 128,128 0 0 0 -3.08203,-6.37695 z m 5.4375,11.63867 a 128,128 0 0 1 2.37695,6.50782 128,128 0 0 0 -2.37695,-6.50782 z m 4.23242,12.09375 a 128,128 0 0 1 1.68555,6.59375 128,128 0 0 0 -1.68555,-6.59375 z m 3.00781,12.48633 a 128,128 0 0 1 0.99024,6.53906 128,128 0 0 0 -0.99024,-6.53906 z m 1.74024,12.71094 A 128,128 0 0 1 27,894.3592 128,128 0 0 0 26.44922,883.40803 Z"
         id="path4957"
         inkscape:connector-curvature="0" />
      <path
         style="fill:#c9c7c6;fill-opacity:1"
         d="m 26.61415,894.52719 a 128,128 0 0 0 0.16406,-0.006 L -101.37803,766.36506 a 128,128 0 0 0 -0.008,0.16211 128,128 0 0 0 35.85352,88.80861 l 0.98046,0.98046 a 128,128 0 0 0 91.16603,38.21095 z"
         id="rect4961"
         inkscape:connector-curvature="0" />
    </g>
    <g
       id="g4201"
       style="fill:none;stroke:#ffffff;stroke-width:9.09971142;stroke-linejoin:round;stroke-miterlimit:4;stroke-dasharray:none;stroke-opacity:1"
       transform="matrix(1.0235392,0,0,1.041439,-3.5102222,807.60646)">
      <g
         id="g4203"
         inkscape:label="Gear10"
         transform="translate(128.48577,156.17457)"
         style="fill:none;stroke:#ffffff;stroke-width:9.09971142;stroke-linejoin:round;stroke-miterlimit:4;stroke-dasharray:none;stroke-opacity:1">
        <path
           sodipodi:nodetypes="ccccccccccccccccccccccccccccccccccccccccc"
           id="path4205"
           style="fill:none;stroke:#ffffff;stroke-width:9.09971142;stroke-linejoin:round;stroke-miterlimit:4;stroke-dasharray:none;stroke-opacity:1"
           d="m 32.40946,-5.35926 16.77566,2.39496 0,5.9286 -16.77566,2.39496 -3.03956,9.35481 12.16407,11.79805 -3.48474,4.79634 -14.97952,-7.92292 -7.95767,5.78158 2.90621,16.69469 -5.63842,1.83204 -7.46172,-15.21452 -9.83622,0 -7.46172,15.21452 -5.63842,-1.83204 2.90621,-16.69469 -7.95767,-5.78158 -14.97952,7.92292 -3.48474,-4.79634 12.16407,-11.79805 -3.03956,-9.35481 -16.77566,-2.39496 0,-5.9286 16.77566,-2.39496 3.03956,-9.35481 -12.16407,-11.79805 3.48474,-4.79634 14.97952,7.92292 7.95767,-5.78158 -2.90621,-16.69469 5.63842,-1.83204 7.46172,15.21452 9.83622,0 7.46172,-15.21452 5.63842,1.83204 -2.90621,16.69469 7.95767,5.78158 14.97952,-7.92292 3.48474,4.79634 -12.16407,11.79805 z"
           inkscape:connector-curvature="0" />
        <path
           id="path4207"
           d="M 14.25,0 A 14.25,14.25 0 0 1 0,14.25 14.25,14.25 0 0 1 -14.25,0 14.25,14.25 0 0 1 0,-14.25 14.25,14.25 0 0 1 14.25,0 Z"
           style="fill:none;stroke:#ffffff;stroke-width:9.09971142;stroke-linejoin:round;stroke-miterlimit:4;stroke-dasharray:none;stroke-opacity:1"
           inkscape:connector-curvature="0" />
      </g>
    </g>
  </g>
</svg>
