<?xml version="1.0" encoding="UTF-8" standalone="no"?>
<!-- Created with Inkscape (http://www.inkscape.org/) -->

<svg
   width="256"
   height="256"
   viewBox="0 0 256 256"
   id="svg2"
   version="1.1"
   inkscape:version="1.1 (c68e22c387, 2021-05-23)"
   sodipodi:docname="application-flash.svg"
   xmlns:inkscape="http://www.inkscape.org/namespaces/inkscape"
   xmlns:sodipodi="http://sodipodi.sourceforge.net/DTD/sodipodi-0.dtd"
   xmlns:xlink="http://www.w3.org/1999/xlink"
   xmlns="http://www.w3.org/2000/svg"
   xmlns:svg="http://www.w3.org/2000/svg"
   xmlns:rdf="http://www.w3.org/1999/02/22-rdf-syntax-ns#"
   xmlns:cc="http://creativecommons.org/ns#"
   xmlns:dc="http://purl.org/dc/elements/1.1/">
  <sodipodi:namedview
     id="base"
     pagecolor="#ffffff"
     bordercolor="#666666"
     borderopacity="1.0"
     inkscape:pageopacity="0.0"
     inkscape:pageshadow="2"
     inkscape:zoom="3.2851562"
     inkscape:cx="63.467302"
     inkscape:cy="127.8478"
     inkscape:document-units="px"
     inkscape:current-layer="layer1"
     showgrid="false"
     units="px"
     inkscape:window-width="1920"
     inkscape:window-height="1048"
     inkscape:window-x="0"
     inkscape:window-y="0"
     inkscape:window-maximized="1"
     inkscape:pagecheckerboard="0" />
  <defs
     id="defs4">
    <radialGradient
       spreadMethod="pad"
       gradientTransform="matrix(45.124908,0,0,-45.124908,74.972946,125.50104)"
       gradientUnits="userSpaceOnUse"
       id="radialGradient4895"
       fy="0"
       fx="0"
       r="1"
       cy="0"
       cx="0">
      <stop
         offset="0"
         style="stop-color:#ebeaea;stop-opacity:1"
         id="stop4899" />
      <stop
         offset="1"
         style="stop-color:#ebeaea;stop-opacity:1"
         id="stop4901" />
    </radialGradient>
    <filter
       style="color-interpolation-filters:sRGB;"
       inkscape:label="Drop Shadow"
       id="filter4301">
      <feFlood
         flood-opacity="0.498039"
         flood-color="rgb(0,0,0)"
         result="flood"
         id="feFlood4303" />
      <feComposite
         in="flood"
         in2="SourceGraphic"
         operator="in"
         result="composite1"
         id="feComposite4305" />
      <feGaussianBlur
         in="composite1"
         stdDeviation="3.7"
         result="blur"
         id="feGaussianBlur4307" />
      <feOffset
         dx="3.8"
         dy="3.7"
         result="offset"
         id="feOffset4309" />
      <feComposite
         in="SourceGraphic"
         in2="offset"
         operator="over"
         result="composite2"
         id="feComposite4311" />
    </filter>
    <radialGradient
       cx="0"
       cy="0"
       r="0.80999798"
       fx="0"
       fy="0"
       id="radialGradient8118"
       xlink:href="#radialGradient4895"
       gradientUnits="userSpaceOnUse"
       gradientTransform="matrix(228.32686,0,0,222.71229,48.684695,874.0012)"
       spreadMethod="pad" />
    <radialGradient
       cx="0"
       cy="0"
       r="1"
       fx="0"
       fy="0"
       id="radialGradient4453"
       gradientUnits="userSpaceOnUse"
       gradientTransform="matrix(45.124908,0,0,-45.124908,74.972946,125.50104)"
       spreadMethod="pad">
      <stop
         id="stop4455"
         style="stop-color:#ffffff;stop-opacity:1"
         offset="0" />
      <stop
         id="stop4457"
         style="stop-color:#ebeaea;stop-opacity:1"
         offset="0.80999798" />
      <stop
         id="stop4459"
         style="stop-color:#ebeaea;stop-opacity:1"
         offset="0.80999798" />
      <stop
         id="stop4461"
         style="stop-color:#d4d3d4;stop-opacity:1"
         offset="1" />
    </radialGradient>
    <clipPath
       id="clipPath5238"
       clipPathUnits="userSpaceOnUse">
      <path
         inkscape:connector-curvature="0"
         id="path5240"
         d="m 151.20117,796.60532 -105.78125,0 c -7.804357,0 -14.087891,6.28158 -14.087891,14.08594 l 0,227.33994 c 0,7.8043 6.283534,14.0878 14.087891,14.0878 l 165.16211,0 c 7.80436,0 14.08594,-6.2835 14.08594,-14.0878 l 0,-154.82237 -73.4668,-86.60351 z"
         style="fill:#df1818;fill-opacity:1" />
    </clipPath>
    <clipPath
       clipPathUnits="userSpaceOnUse"
       id="clipPath5105">
      <path
         inkscape:connector-curvature="0"
         id="path5107"
         d="m 151.20117,0.24318 -105.78125,0 c -7.804357,0 -14.087891,6.28158 -14.087891,14.08594 l 0,227.33994 c 0,7.8043 6.283534,14.0878 14.087891,14.0878 l 165.16211,0 c 7.80436,0 14.08594,-6.2835 14.08594,-14.0878 l 0,-154.82237 -73.4668,-86.60351 z"
         style="fill:#df1818;fill-opacity:1" />
    </clipPath>
    <clipPath
       clipPathUnits="userSpaceOnUse"
       id="clipPath4200">
      <g
         transform="translate(168.80455,-743.41363)"
         id="g4202">
        <path
           style="fill:#df1818;fill-opacity:1"
           d="m -40.96861,743.56636 a 128,128 0 0 0 -127.83594,127.99414 128,128 0 0 0 128,128.00004 A 128,128 0 0 0 87.18764,871.72261 L -40.96861,743.56636 Z m 12.42383,0.60742 a 128,128 0 0 1 7.76757,1.1211 128,128 0 0 0 -7.76757,-1.1211 z m 12.58789,1.84961 a 128,128 0 0 1 8.42187,2.08984 128,128 0 0 0 -8.42187,-2.08984 z m 12.36328,3.09766 a 128,128 0 0 1 8.94531,3.19726 128,128 0 0 0 -8.94531,-3.19726 z m 11.98437,4.30468 a 128,128 0 0 1 9.34375,4.43946 128,128 0 0 0 -9.34375,-4.43946 z m 11.49805,5.47852 a 128,128 0 0 1 9.49414,5.73438 128,128 0 0 0 -9.49414,-5.73438 z m 10.90625,6.59961 a 128,128 0 0 1 9.66016,7.24414 128,128 0 0 0 -9.66016,-7.24414 z m 10.17773,7.63867 a 128,128 0 0 1 9.38868,8.62891 128,128 0 0 0 -9.38868,-8.62891 z m 9.38868,8.62891 0.98046,0.98047 a 128,128 0 0 0 -0.98046,-0.98047 z m 7.65039,8.57226 a 128,128 0 0 1 4.5039,5.92188 128,128 0 0 0 -4.5039,-5.92188 z m 7.63867,10.30469 a 128,128 0 0 1 3.81054,6.21289 128,128 0 0 0 -3.81054,-6.21289 z m 6.57617,11.03125 a 128,128 0 0 1 3.08203,6.37695 128,128 0 0 0 -3.08203,-6.37695 z m 5.4375,11.63867 a 128,128 0 0 1 2.37695,6.50782 128,128 0 0 0 -2.37695,-6.50782 z m 4.23242,12.09375 a 128,128 0 0 1 1.68555,6.59375 128,128 0 0 0 -1.68555,-6.59375 z m 3.00781,12.48633 a 128,128 0 0 1 0.99024,6.53906 128,128 0 0 0 -0.99024,-6.53906 z m 1.74024,12.71094 a 128,128 0 0 1 0.55078,10.95117 128,128 0 0 0 -0.55078,-10.95117 z"
           id="path4204"
           inkscape:connector-curvature="0" />
        <path
           style="fill:#ff7272;fill-opacity:1"
           d="m 86.8096,870.94257 a 128,128 0 0 0 0.16406,-0.006 L -41.18258,742.78045 a 128,128 0 0 0 -0.008,0.16211 128,128 0 0 0 35.85352,88.80861 l 0.98046,0.98046 a 128,128 0 0 0 91.16603,38.21094 z"
           id="path4206"
           inkscape:connector-curvature="0" />
      </g>
    </clipPath>
  </defs>
  <metadata
     id="metadata7">
    <rdf:RDF>
      <cc:Work
         rdf:about="">
        <dc:format>image/svg+xml</dc:format>
        <dc:type
           rdf:resource="http://purl.org/dc/dcmitype/StillImage" />
        <dc:title />
      </cc:Work>
    </rdf:RDF>
  </metadata>
  <g
     inkscape:label="Layer 1"
     inkscape:groupmode="layer"
     id="layer1"
     transform="translate(0,-796.36214)">
    <g
       id="g4232">
      <path
         inkscape:connector-curvature="0"
         id="path4957"
         d="M 127.83594,796.36214 A 128,128 0 0 0 0,924.35628 128,128 0 0 0 128,1052.3563 128,128 0 0 0 255.99219,924.51839 L 127.83594,796.36214 Z m 12.42383,0.60742 a 128,128 0 0 1 7.76757,1.1211 128,128 0 0 0 -7.76757,-1.1211 z m 12.58789,1.84961 a 128,128 0 0 1 8.42187,2.08984 128,128 0 0 0 -8.42187,-2.08984 z m 12.36328,3.09766 a 128,128 0 0 1 8.94531,3.19726 128,128 0 0 0 -8.94531,-3.19726 z m 11.98437,4.30468 a 128,128 0 0 1 9.34375,4.43946 128,128 0 0 0 -9.34375,-4.43946 z m 11.49805,5.47852 a 128,128 0 0 1 9.49414,5.73438 128,128 0 0 0 -9.49414,-5.73438 z m 10.90625,6.59961 a 128,128 0 0 1 9.66016,7.24414 128,128 0 0 0 -9.66016,-7.24414 z m 10.17773,7.63867 a 128,128 0 0 1 9.38868,8.62891 128,128 0 0 0 -9.38868,-8.62891 z m 9.38868,8.62891 0.98046,0.98047 a 128,128 0 0 0 -0.98046,-0.98047 z m 7.65039,8.57226 a 128,128 0 0 1 4.5039,5.92188 128,128 0 0 0 -4.5039,-5.92188 z m 7.63867,10.30469 a 128,128 0 0 1 3.81054,6.21289 128,128 0 0 0 -3.81054,-6.21289 z m 6.57617,11.03125 a 128,128 0 0 1 3.08203,6.37695 128,128 0 0 0 -3.08203,-6.37695 z m 5.4375,11.63867 a 128,128 0 0 1 2.37695,6.50782 128,128 0 0 0 -2.37695,-6.50782 z m 4.23242,12.09375 a 128,128 0 0 1 1.68555,6.59375 128,128 0 0 0 -1.68555,-6.59375 z m 3.00781,12.48633 a 128,128 0 0 1 0.99024,6.53906 128,128 0 0 0 -0.99024,-6.53906 z m 1.74024,12.71094 A 128,128 0 0 1 256,924.35628 128,128 0 0 0 255.44922,913.40511 Z"
         style="fill:#df1818;fill-opacity:1" />
      <path
         inkscape:connector-curvature="0"
         id="rect4961"
         d="m 255.61415,924.52427 a 128,128 0 0 0 0.16406,-0.006 L 127.62197,796.36214 a 128,128 0 0 0 -0.008,0.16211 128,128 0 0 0 35.85352,88.80861 l 0.98046,0.98046 a 128,128 0 0 0 91.16603,38.21095 z"
         style="fill:#ff7272;fill-opacity:1" />
    </g>
    <text
       xml:space="preserve"
       style="font-style:normal;font-variant:normal;font-weight:bold;font-stretch:normal;line-height:0%;font-family:FreeSerif;-inkscape-font-specification:'FreeSerif Bold';letter-spacing:0px;word-spacing:0px;fill:#ffffff;fill-opacity:1;stroke:none;stroke-width:1px;stroke-linecap:butt;stroke-linejoin:miter;stroke-opacity:1"
       x="74.722427"
       y="951.72528"
       id="text4143"><tspan
         sodipodi:role="line"
         id="tspan4145"
         x="74.722427"
         y="951.72528"
         style="font-size:80px;line-height:1.25"> </tspan></text>
    <text
       id="text5142"
       y="952.7796"
       x="91.810249"
       style="font-style:normal;font-weight:normal;line-height:0%;font-family:sans-serif;letter-spacing:0px;word-spacing:0px;fill:#000000;fill-opacity:1;stroke:none;stroke-width:1px;stroke-linecap:butt;stroke-linejoin:miter;stroke-opacity:1"
       xml:space="preserve"><tspan
         y="952.7796"
         x="91.810249"
         id="tspan5144"
         sodipodi:role="line"
         style="font-size:40px;line-height:1.25"> </tspan></text>
    <path
       sodipodi:nodetypes="cccccccccc"
       style="fill:#ffffff;fill-opacity:1;fill-rule:evenodd;stroke:none;stroke-width:0.944203"
       d="m 77.6684,991.91491 0.36803,19.09799 c 0,0 39.30384,10.3778 57.81946,-36.7195 h 32.25 v -21.03427 h -20.09375 c 0,0 9.375,-21.92582 30.14062,-23.79244 0,-0.45968 0.17884,-17.31249 0.17884,-17.31249 0,0 -36.64759,-5.07301 -57.46008,40.15769 -17.95312,44.2695 -43.20312,39.60302 -43.20312,39.60302 z"
       id="path38"
       inkscape:connector-curvature="0" />
  </g>
</svg>
