<?xml version="1.0" encoding="UTF-8" standalone="no"?>
<!-- Created with Inkscape (http://www.inkscape.org/) -->

<svg
   xmlns:dc="http://purl.org/dc/elements/1.1/"
   xmlns:cc="http://creativecommons.org/ns#"
   xmlns:rdf="http://www.w3.org/1999/02/22-rdf-syntax-ns#"
   xmlns:svg="http://www.w3.org/2000/svg"
   xmlns="http://www.w3.org/2000/svg"
   xmlns:sodipodi="http://sodipodi.sourceforge.net/DTD/sodipodi-0.dtd"
   xmlns:inkscape="http://www.inkscape.org/namespaces/inkscape"
   sodipodi:docname="audio-x-generic.svg"
   inkscape:version="0.92.4 (unknown)"
   version="1.1"
   id="svg2"
   viewBox="0 0 256 256"
   height="256"
   width="256">
  <sodipodi:namedview
     inkscape:window-maximized="1"
     inkscape:window-y="0"
     inkscape:window-x="0"
     inkscape:window-height="1048"
     inkscape:window-width="1920"
     units="px"
     showgrid="false"
     inkscape:current-layer="layer1"
     inkscape:document-units="px"
     inkscape:cy="128"
     inkscape:cx="1.0406485"
     inkscape:zoom="3.3632812"
     inkscape:pageshadow="2"
     inkscape:pageopacity="0.0"
     borderopacity="1.0"
     bordercolor="#666666"
     pagecolor="#ffffff"
     id="base" />
  <defs
     id="defs4">
    <filter
       style="color-interpolation-filters:sRGB;"
       inkscape:label="Drop Shadow"
       id="filter4301">
      <feFlood
         flood-opacity="0.498039"
         flood-color="rgb(0,0,0)"
         result="flood"
         id="feFlood4303" />
      <feComposite
         in="flood"
         in2="SourceGraphic"
         operator="in"
         result="composite1"
         id="feComposite4305" />
      <feGaussianBlur
         in="composite1"
         stdDeviation="3.7"
         result="blur"
         id="feGaussianBlur4307" />
      <feOffset
         dx="3.8"
         dy="3.7"
         result="offset"
         id="feOffset4309" />
      <feComposite
         in="SourceGraphic"
         in2="offset"
         operator="over"
         result="composite2"
         id="feComposite4311" />
    </filter>
    <clipPath
       id="clipPath4321"
       clipPathUnits="userSpaceOnUse">
      <path
         inkscape:connector-curvature="0"
         id="path4323"
         d="M 45.894155,-46.540706 A 56.84453,68.796377 0 0 0 -10.877516,22.252521 56.84453,68.796377 0 0 0 45.967014,91.048898 56.84453,68.796377 0 0 0 102.80808,22.339651 L 45.894155,-46.540706 Z m 5.517397,0.326471 a 56.84453,68.796377 0 0 1 3.449561,0.60256 56.84453,68.796377 0 0 0 -3.449561,-0.60256 z m 5.590255,0.994113 a 56.84453,68.796377 0 0 1 3.740135,1.12323 56.84453,68.796377 0 0 0 -3.740135,-1.12323 z m 5.490507,1.664905 a 56.84453,68.796377 0 0 1 3.972593,1.718437 56.84453,68.796377 0 0 0 -3.972593,-1.718437 z m 5.322233,2.313643 a 56.84453,68.796377 0 0 1 4.14954,2.386084 56.84453,68.796377 0 0 0 -4.14954,-2.386084 z m 5.10626,2.94455 a 56.84453,68.796377 0 0 1 4.216327,3.082067 56.84453,68.796377 0 0 0 -4.216327,-3.082067 z m 4.843443,3.547103 a 56.84453,68.796377 0 0 1 4.290056,3.893521 56.84453,68.796377 0 0 0 -4.290056,-3.893521 z m 4.519908,4.105569 a 56.84453,68.796377 0 0 1 4.169493,4.637795 56.84453,68.796377 0 0 0 -4.169493,-4.637795 z m 4.169493,4.637795 0.43542,0.526975 a 56.84453,68.796377 0 0 0 -0.43542,-0.526975 z m 3.397522,4.607347 a 56.84453,68.796377 0 0 1 2.000173,3.182843 56.84453,68.796377 0 0 0 -2.000173,-3.182843 z m 3.392317,5.538479 a 56.84453,68.796377 0 0 1 1.692253,3.339253 56.84453,68.796377 0 0 0 -1.692253,-3.339253 z m 2.920463,5.9289851 a 56.84453,68.796377 0 0 1 1.368724,3.4274301 56.84453,68.796377 0 0 0 -1.368724,-3.4274301 z m 2.414783,6.2554556 a 56.84453,68.796377 0 0 1 1.055598,3.49776908 56.84453,68.796377 0 0 0 -1.055598,-3.49776908 z m 1.879604,6.5000483 a 56.84453,68.796377 0 0 1 0.74855,3.543954 56.84453,68.796377 0 0 0 -0.74855,-3.543954 z m 1.33577,6.711049 a 56.84453,68.796377 0 0 1 0.43976,3.51456 56.84453,68.796377 0 0 0 -0.43976,-3.51456 z m 0.77283,6.83177 a 56.84453,68.796377 0 0 1 0.2446,5.885944 56.84453,68.796377 0 0 0 -0.2446,-5.885944 z"
         style="fill:#ec6155;fill-opacity:1" />
    </clipPath>
    <clipPath
       clipPathUnits="userSpaceOnUse"
       id="clipPath1111">
      <path
         inkscape:connector-curvature="0"
         id="path1113"
         d="M -69.590304,700.13678 A 128.35909,151.27273 0 0 0 -197.78488,851.40259 128.35909,151.27273 0 0 0 -69.425783,1002.6753 128.35909,151.27273 0 0 0 58.925478,851.59417 Z m 12.458684,0.71786 a 128.35909,151.27273 0 0 1 7.789362,1.32494 128.35909,151.27273 0 0 0 -7.789362,-1.32494 z m 12.623205,2.1859 a 128.35909,151.27273 0 0 1 8.445496,2.46981 128.35909,151.27273 0 0 0 -8.445496,-2.46981 z m 12.397964,3.66087 a 128.35909,151.27273 0 0 1 8.970405,3.77858 128.35909,151.27273 0 0 0 -8.970405,-3.77858 z m 12.017991,5.08735 a 128.35909,151.27273 0 0 1 9.369963,5.24664 128.35909,151.27273 0 0 0 -9.369963,-5.24664 z m 11.5303068,6.47462 a 128.35909,151.27273 0 0 1 9.52077501,6.77699 128.35909,151.27273 0 0 0 -9.52077501,-6.77699 z m 10.9368466,7.79954 a 128.35909,151.27273 0 0 1 9.6872606,8.56125 128.35909,151.27273 0 0 0 -9.6872606,-8.56125 z m 10.2062826,9.02752 a 128.35909,151.27273 0 0 1 9.415019,10.1978 128.35909,151.27273 0 0 0 -9.415019,-10.1978 z m 9.415019,10.1978 0.983211,1.15874 a 128.35909,151.27273 0 0 0 -0.983211,-1.15874 z m 7.671853,10.13085 a 128.35909,151.27273 0 0 1 4.516535,6.99859 128.35909,151.27273 0 0 0 -4.516535,-6.99859 z m 7.6601,12.17827 a 128.35909,151.27273 0 0 1 3.82123,7.34251 128.35909,151.27273 0 0 0 -3.82123,-7.34251 z m 6.594618,13.03693 a 128.35909,151.27273 0 0 1 3.090677,7.5364 128.35909,151.27273 0 0 0 -3.090677,-7.5364 z m 5.452755,13.7548 a 128.35909,151.27273 0 0 1 2.383618,7.69106 128.35909,151.27273 0 0 0 -2.383618,-7.69106 z m 4.244294,14.29261 a 128.35909,151.27273 0 0 1 1.690278,7.79261 128.35909,151.27273 0 0 0 -1.690278,-7.79261 z m 3.016248,14.75657 a 128.35909,151.27273 0 0 1 0.993018,7.72798 128.35909,151.27273 0 0 0 -0.993018,-7.72798 z m 1.745122,15.02202 a 128.35909,151.27273 0 0 1 0.552325,12.9423 128.35909,151.27273 0 0 0 -0.552325,-12.9423 z"
         style="fill:#ec6155;fill-opacity:1;stroke-width:1.08863842" />
    </clipPath>
  </defs>
  <metadata
     id="metadata7">
    <rdf:RDF>
      <cc:Work
         rdf:about="">
        <dc:format>image/svg+xml</dc:format>
        <dc:type
           rdf:resource="http://purl.org/dc/dcmitype/StillImage" />
        <dc:title />
      </cc:Work>
    </rdf:RDF>
  </metadata>
  <g
     inkscape:label="Layer 1"
     inkscape:groupmode="layer"
     id="layer1"
     transform="translate(0,-796.36214)">
    <path
       style="fill:#ec6155;fill-opacity:1"
       d="M 127.83594,796.36506 A 128,128 0 0 0 0,924.3592 a 128,128 0 0 0 128,128 128,128 0 0 0 127.99219,-127.83789 L 127.83594,796.36506 Z m 12.42383,0.60742 a 128,128 0 0 1 7.76757,1.1211 128,128 0 0 0 -7.76757,-1.1211 z m 12.58789,1.84961 a 128,128 0 0 1 8.42187,2.08984 128,128 0 0 0 -8.42187,-2.08984 z m 12.36328,3.09766 a 128,128 0 0 1 8.94531,3.19726 128,128 0 0 0 -8.94531,-3.19726 z m 11.98437,4.30468 a 128,128 0 0 1 9.34375,4.43946 128,128 0 0 0 -9.34375,-4.43946 z m 11.49805,5.47852 a 128,128 0 0 1 9.49414,5.73438 128,128 0 0 0 -9.49414,-5.73438 z m 10.90625,6.59961 a 128,128 0 0 1 9.66016,7.24414 128,128 0 0 0 -9.66016,-7.24414 z m 10.17773,7.63867 a 128,128 0 0 1 9.38868,8.62891 128,128 0 0 0 -9.38868,-8.62891 z m 9.38868,8.62891 0.98046,0.98047 a 128,128 0 0 0 -0.98046,-0.98047 z m 7.65039,8.57226 a 128,128 0 0 1 4.5039,5.92188 128,128 0 0 0 -4.5039,-5.92188 z m 7.63867,10.30469 a 128,128 0 0 1 3.81054,6.21289 128,128 0 0 0 -3.81054,-6.21289 z m 6.57617,11.03125 a 128,128 0 0 1 3.08203,6.37695 128,128 0 0 0 -3.08203,-6.37695 z m 5.4375,11.63867 a 128,128 0 0 1 2.37695,6.50782 128,128 0 0 0 -2.37695,-6.50782 z m 4.23242,12.09375 a 128,128 0 0 1 1.68555,6.59375 128,128 0 0 0 -1.68555,-6.59375 z m 3.00781,12.48633 a 128,128 0 0 1 0.99024,6.53906 128,128 0 0 0 -0.99024,-6.53906 z m 1.74024,12.71094 A 128,128 0 0 1 256,924.3592 128,128 0 0 0 255.44922,913.40803 Z"
       id="path4957"
       inkscape:connector-curvature="0" />
    <path
       style="fill:#f39e97;fill-opacity:1"
       d="m 255.61415,924.52718 a 128,128 0 0 0 0.16406,-0.006 L 127.62197,796.36506 a 128,128 0 0 0 -0.008,0.16211 128,128 0 0 0 35.85352,88.80861 l 0.98046,0.98046 a 128,128 0 0 0 91.16603,38.21094 z"
       id="rect4961"
       inkscape:connector-curvature="0" />
    <text
       xml:space="preserve"
       style="font-style:normal;font-weight:normal;line-height:0%;font-family:sans-serif;letter-spacing:0px;word-spacing:0px;fill:#000000;fill-opacity:1;stroke:none;stroke-width:1px;stroke-linecap:butt;stroke-linejoin:miter;stroke-opacity:1"
       x="54.857143"
       y="965.15338"
       id="text4164"><tspan
         style="font-size:40px;line-height:1.25"
         sodipodi:role="line"
         id="tspan4166"
         x="54.857143"
         y="965.15338"> </tspan></text>
    <g
       transform="matrix(0.99720243,0,0,0.84615382,197.23156,203.94165)"
       id="g899"
       style="fill:#ffffff;fill-opacity:1">
      <path
         inkscape:connector-curvature="0"
         id="path864"
         transform="translate(0,796.36214)"
         d="m -14.527344,39.292969 -78.199218,29.376953 v 17.802734 15.464844 37.96094 c -3.202901,-1.86779 -6.979746,-2.96485 -11.041018,-2.96485 -11.49471,0 -20.8125,8.65252 -20.8125,19.32618 0,10.67366 9.31779,19.32617 20.8125,19.32617 11.418492,0 20.684202,-8.53926 20.806642,-19.11524 l 0.234376,-0.004 V 98.181641 l 58.199218,-21.863282 v 43.390621 a 20.813009,19.326366 0 0 0 -10.55664,-2.69531 20.813009,19.326366 0 0 0 -20.814454,19.32617 20.813009,19.326366 0 0 0 20.814454,19.32618 20.813009,19.326366 0 0 0 20.8125,-19.32618 20.813009,19.326366 0 0 0 -0.25586,-2.92578 V 72.5625 65.097656 Z"
         style="color:#000000;font-style:normal;font-variant:normal;font-weight:normal;font-stretch:normal;font-size:medium;line-height:normal;font-family:sans-serif;font-variant-ligatures:normal;font-variant-position:normal;font-variant-caps:normal;font-variant-numeric:normal;font-variant-alternates:normal;font-feature-settings:normal;text-indent:0;text-align:start;text-decoration:none;text-decoration-line:none;text-decoration-style:solid;text-decoration-color:#000000;letter-spacing:normal;word-spacing:normal;text-transform:none;writing-mode:lr-tb;direction:ltr;text-orientation:mixed;dominant-baseline:auto;baseline-shift:baseline;text-anchor:start;white-space:normal;shape-padding:0;clip-rule:nonzero;display:inline;overflow:visible;visibility:visible;opacity:1;isolation:auto;mix-blend-mode:normal;color-interpolation:sRGB;color-interpolation-filters:linearRGB;solid-color:#000000;solid-opacity:1;vector-effect:none;fill:#ffffff;fill-opacity:1;fill-rule:nonzero;stroke:none;stroke-width:26.10282898;stroke-linecap:butt;stroke-linejoin:miter;stroke-miterlimit:4;stroke-dasharray:none;stroke-dashoffset:0;stroke-opacity:1;color-rendering:auto;image-rendering:auto;shape-rendering:auto;text-rendering:auto;enable-background:accumulate" />
    </g>
  </g>
</svg>
