<?xml version="1.0" encoding="UTF-8" standalone="no"?>
<!-- Created with Inkscape (http://www.inkscape.org/) -->

<svg
   xmlns:ns2="http://ns.adobe.com/AdobeIllustrator/10.0/"
   xmlns:dc="http://purl.org/dc/elements/1.1/"
   xmlns:cc="http://creativecommons.org/ns#"
   xmlns:rdf="http://www.w3.org/1999/02/22-rdf-syntax-ns#"
   xmlns:svg="http://www.w3.org/2000/svg"
   xmlns="http://www.w3.org/2000/svg"
   xmlns:sodipodi="http://sodipodi.sourceforge.net/DTD/sodipodi-0.dtd"
   xmlns:inkscape="http://www.inkscape.org/namespaces/inkscape"
   width="256"
   height="256"
   viewBox="0 0 256 256"
   id="svg2"
   version="1.1"
   inkscape:version="0.92.4 (unknown)"
   sodipodi:docname="application-x-deb.svg">
  <sodipodi:namedview
     id="base"
     pagecolor="#ffffff"
     bordercolor="#666666"
     borderopacity="1.0"
     inkscape:pageopacity="0.0"
     inkscape:pageshadow="2"
     inkscape:zoom="3.3125"
     inkscape:cx="62.792453"
     inkscape:cy="128"
     inkscape:document-units="px"
     inkscape:current-layer="layer1"
     showgrid="false"
     units="px"
     inkscape:window-width="1920"
     inkscape:window-height="1048"
     inkscape:window-x="0"
     inkscape:window-y="0"
     inkscape:window-maximized="1" />
  <defs
     id="defs4">
    <filter
       id="filter4301"
       inkscape:label="Drop Shadow"
       style="color-interpolation-filters:sRGB;">
      <feFlood
         id="feFlood4303"
         result="flood"
         flood-color="rgb(0,0,0)"
         flood-opacity="0.498039" />
      <feComposite
         id="feComposite4305"
         result="composite1"
         operator="in"
         in2="SourceGraphic"
         in="flood" />
      <feGaussianBlur
         id="feGaussianBlur4307"
         result="blur"
         stdDeviation="3.7"
         in="composite1" />
      <feOffset
         id="feOffset4309"
         result="offset"
         dy="3.7"
         dx="3.8" />
      <feComposite
         id="feComposite4311"
         result="composite2"
         operator="over"
         in2="offset"
         in="SourceGraphic" />
    </filter>
    <clipPath
       clipPathUnits="userSpaceOnUse"
       id="clipPath4567">
      <path
         style="fill:#d72226;fill-opacity:1"
         d="M 127.83594,796.36506 A 128,128 0 0 0 0,924.3592 a 128,128 0 0 0 128,128 128,128 0 0 0 127.99219,-127.83789 L 127.83594,796.36506 Z m 12.42383,0.60742 a 128,128 0 0 1 7.76757,1.1211 128,128 0 0 0 -7.76757,-1.1211 z m 12.58789,1.84961 a 128,128 0 0 1 8.42187,2.08984 128,128 0 0 0 -8.42187,-2.08984 z m 12.36328,3.09766 a 128,128 0 0 1 8.94531,3.19726 128,128 0 0 0 -8.94531,-3.19726 z m 11.98437,4.30468 a 128,128 0 0 1 9.34375,4.43946 128,128 0 0 0 -9.34375,-4.43946 z m 11.49805,5.47852 a 128,128 0 0 1 9.49414,5.73438 128,128 0 0 0 -9.49414,-5.73438 z m 10.90625,6.59961 a 128,128 0 0 1 9.66016,7.24414 128,128 0 0 0 -9.66016,-7.24414 z m 10.17773,7.63867 a 128,128 0 0 1 9.38868,8.62891 128,128 0 0 0 -9.38868,-8.62891 z m 9.38868,8.62891 0.98046,0.98047 a 128,128 0 0 0 -0.98046,-0.98047 z m 7.65039,8.57226 a 128,128 0 0 1 4.5039,5.92188 128,128 0 0 0 -4.5039,-5.92188 z m 7.63867,10.30469 a 128,128 0 0 1 3.81054,6.21289 128,128 0 0 0 -3.81054,-6.21289 z m 6.57617,11.03125 a 128,128 0 0 1 3.08203,6.37695 128,128 0 0 0 -3.08203,-6.37695 z m 5.4375,11.63867 a 128,128 0 0 1 2.37695,6.50782 128,128 0 0 0 -2.37695,-6.50782 z m 4.23242,12.09375 a 128,128 0 0 1 1.68555,6.59375 128,128 0 0 0 -1.68555,-6.59375 z m 3.00781,12.48633 a 128,128 0 0 1 0.99024,6.53906 128,128 0 0 0 -0.99024,-6.53906 z m 1.74024,12.71094 A 128,128 0 0 1 256,924.3592 128,128 0 0 0 255.44922,913.40803 Z"
         id="path4569"
         inkscape:connector-curvature="0" />
    </clipPath>
    <clipPath
       id="clipPath4830"
       clipPathUnits="userSpaceOnUse">
      <path
         style="fill:#d72226;fill-opacity:1"
         d="M 36.100903,-65.836023 A 92.933449,92.933449 0 0 0 -56.713432,27.093172 92.933449,92.933449 0 0 0 36.220018,120.02662 92.933449,92.933449 0 0 0 129.1478,27.21087 L 36.100903,-65.836023 Z m 9.02023,0.441013 a 92.933449,92.933449 0 0 1 5.639586,0.813966 92.933449,92.933449 0 0 0 -5.639586,-0.813966 z m 9.139344,1.342895 a 92.933449,92.933449 0 0 1 6.114636,1.517313 92.933449,92.933449 0 0 0 -6.114636,-1.517313 z m 8.976267,2.249033 a 92.933449,92.933449 0 0 1 6.494676,2.321347 92.933449,92.933449 0 0 0 -6.494676,-2.321347 z m 8.701163,3.125381 a 92.933449,92.933449 0 0 1 6.78396,3.223237 92.933449,92.933449 0 0 0 -6.78396,-3.223237 z m 8.348074,3.977639 a 92.933449,92.933449 0 0 1 6.89315,4.163404 92.933449,92.933449 0 0 0 -6.89315,-4.163404 z m 7.918402,4.791598 a 92.933449,92.933449 0 0 1 7.013687,5.259554 92.933449,92.933449 0 0 0 -7.013687,-5.259554 z m 7.389465,5.545999 a 92.933449,92.933449 0 0 1 6.816582,6.264956 92.933449,92.933449 0 0 0 -6.816582,-6.264956 z m 6.816582,6.264956 0.71186,0.711863 a 92.933449,92.933449 0 0 0 -0.71186,-0.711863 z m 5.55451,6.223826 a 92.933449,92.933449 0 0 1 3.27002,4.299537 92.933449,92.933449 0 0 0 -3.27002,-4.299537 z m 5.546,7.481644 a 92.933449,92.933449 0 0 1 2.76661,4.510822 92.933449,92.933449 0 0 0 -2.76661,-4.510822 z m 4.77458,8.009157 a 92.933449,92.933449 0 0 1 2.23768,4.629937 92.933449,92.933449 0 0 0 -2.23768,-4.629937 z m 3.94785,8.4501699 a 92.933449,92.933449 0 0 1 1.72577,4.7249544 92.933449,92.933449 0 0 0 -1.72577,-4.7249544 z m 3.07292,8.78057736 a 92.933449,92.933449 0 0 1 1.22378,4.78734324 92.933449,92.933449 0 0 0 -1.22378,-4.78734324 z m 2.1838,9.06560714 a 92.933449,92.933449 0 0 1 0.71896,4.7476356 92.933449,92.933449 0 0 0 -0.71896,-4.7476356 z m 1.26349,9.2286836 a 92.933449,92.933449 0 0 1 0.39989,7.951016 92.933449,92.933449 0 0 0 -0.39989,-7.951016 z"
         id="path4832"
         inkscape:connector-curvature="0" />
    </clipPath>
    <clipPath
       clipPathUnits="userSpaceOnUse"
       id="clipPath1471">
      <path
         style="fill:#d72226;fill-opacity:1;stroke-width:0.79204649"
         d="M 43.350502,-81.680116 A 101.38195,101.38195 0 0 0 -57.901501,19.69719 101.38195,101.38195 0 0 0 43.480445,121.07914 101.38195,101.38195 0 0 0 144.85621,19.825588 Z m 9.840251,0.481105 a 101.38195,101.38195 0 0 1 6.152276,0.887963 101.38195,101.38195 0 0 0 -6.152276,-0.887963 z m 9.970194,1.464977 a 101.38195,101.38195 0 0 1 6.670512,1.65525 101.38195,101.38195 0 0 0 -6.670512,-1.65525 z m 9.792292,2.453491 a 101.38195,101.38195 0 0 1 7.085101,2.532378 101.38195,101.38195 0 0 0 -7.085101,-2.532378 z m 9.492178,3.409506 a 101.38195,101.38195 0 0 1 7.400684,3.516259 101.38195,101.38195 0 0 0 -7.400684,-3.516259 z m 9.106989,4.339243 a 101.38195,101.38195 0 0 1 7.5198,4.541895 101.38195,101.38195 0 0 0 -7.5198,-4.541895 z m 8.638254,5.227197 a 101.38195,101.38195 0 0 1 7.6513,5.737696 101.38195,101.38195 0 0 0 -7.6513,-5.737696 z m 8.06124,6.050182 a 101.38195,101.38195 0 0 1 7.43627,6.834497 101.38195,101.38195 0 0 0 -7.43627,-6.834497 z m 7.43627,6.834497 0.77657,0.776578 a 101.38195,101.38195 0 0 0 -0.77657,-0.776578 z m 6.05946,6.789629 a 101.38195,101.38195 0 0 1 3.5673,4.690404 101.38195,101.38195 0 0 0 -3.5673,-4.690404 z m 6.05018,8.161793 a 101.38195,101.38195 0 0 1 3.01813,4.920897 101.38195,101.38195 0 0 0 -3.01813,-4.920897 z m 5.20864,8.737262 a 101.38195,101.38195 0 0 1 2.44111,5.050841 101.38195,101.38195 0 0 0 -2.44111,-5.050841 z m 4.30675,9.218368 a 101.38195,101.38195 0 0 1 1.88265,5.154496 101.38195,101.38195 0 0 0 -1.88265,-5.154496 z m 3.35227,9.5788116 a 101.38195,101.38195 0 0 1 1.33504,5.2225564 101.38195,101.38195 0 0 0 -1.33504,-5.2225564 z m 2.38233,9.8897535 a 101.38195,101.38195 0 0 1 0.78431,5.1792393 101.38195,101.38195 0 0 0 -0.78431,-5.1792393 z m 1.37835,10.0676549 a 101.38195,101.38195 0 0 1 0.43624,8.673836 101.38195,101.38195 0 0 0 -0.43624,-8.673836 z"
         id="path1473"
         inkscape:connector-curvature="0" />
    </clipPath>
  </defs>
  <metadata
     id="metadata7">
    <rdf:RDF>
      <cc:Work
         rdf:about="">
        <dc:format>image/svg+xml</dc:format>
        <dc:type
           rdf:resource="http://purl.org/dc/dcmitype/StillImage" />
        <dc:title />
      </cc:Work>
    </rdf:RDF>
  </metadata>
  <g
     transform="translate(0,-796.36214)"
     id="layer1"
     inkscape:groupmode="layer"
     inkscape:label="Layer 1">
    <path
       inkscape:connector-curvature="0"
       id="path4957"
       d="M 127.83594,796.36506 A 128,128 0 0 0 0,924.3592 a 128,128 0 0 0 128,128 128,128 0 0 0 127.99219,-127.83789 L 127.83594,796.36506 Z m 12.42383,0.60742 a 128,128 0 0 1 7.76757,1.1211 128,128 0 0 0 -7.76757,-1.1211 z m 12.58789,1.84961 a 128,128 0 0 1 8.42187,2.08984 128,128 0 0 0 -8.42187,-2.08984 z m 12.36328,3.09766 a 128,128 0 0 1 8.94531,3.19726 128,128 0 0 0 -8.94531,-3.19726 z m 11.98437,4.30468 a 128,128 0 0 1 9.34375,4.43946 128,128 0 0 0 -9.34375,-4.43946 z m 11.49805,5.47852 a 128,128 0 0 1 9.49414,5.73438 128,128 0 0 0 -9.49414,-5.73438 z m 10.90625,6.59961 a 128,128 0 0 1 9.66016,7.24414 128,128 0 0 0 -9.66016,-7.24414 z m 10.17773,7.63867 a 128,128 0 0 1 9.38868,8.62891 128,128 0 0 0 -9.38868,-8.62891 z m 9.38868,8.62891 0.98046,0.98047 a 128,128 0 0 0 -0.98046,-0.98047 z m 7.65039,8.57226 a 128,128 0 0 1 4.5039,5.92188 128,128 0 0 0 -4.5039,-5.92188 z m 7.63867,10.30469 a 128,128 0 0 1 3.81054,6.21289 128,128 0 0 0 -3.81054,-6.21289 z m 6.57617,11.03125 a 128,128 0 0 1 3.08203,6.37695 128,128 0 0 0 -3.08203,-6.37695 z m 5.4375,11.63867 a 128,128 0 0 1 2.37695,6.50782 128,128 0 0 0 -2.37695,-6.50782 z m 4.23242,12.09375 a 128,128 0 0 1 1.68555,6.59375 128,128 0 0 0 -1.68555,-6.59375 z m 3.00781,12.48633 a 128,128 0 0 1 0.99024,6.53906 128,128 0 0 0 -0.99024,-6.53906 z m 1.74024,12.71094 A 128,128 0 0 1 256,924.3592 128,128 0 0 0 255.44922,913.40803 Z"
       style="fill:#d72226;fill-opacity:1" />
    <path
       inkscape:connector-curvature="0"
       id="rect4961"
       d="m 255.61415,924.52718 a 128,128 0 0 0 0.16406,-0.006 L 127.62197,796.36506 a 128,128 0 0 0 -0.008,0.16211 128,128 0 0 0 35.85352,88.80861 l 0.98046,0.98046 a 128,128 0 0 0 91.16603,38.21094 z"
       style="fill:#ff7272;fill-opacity:1" />
    <text
       id="text4164"
       y="965.15338"
       x="54.857143"
       style="font-style:normal;font-weight:normal;line-height:0%;font-family:sans-serif;letter-spacing:0px;word-spacing:0px;fill:#000000;fill-opacity:1;stroke:none;stroke-width:1px;stroke-linecap:butt;stroke-linejoin:miter;stroke-opacity:1"
       xml:space="preserve"><tspan
         style="font-size:40px;line-height:1.25"
         y="965.15338"
         x="54.857143"
         id="tspan4166"
         sodipodi:role="line"> </tspan></text>
    <g
       style="fill:#ffffff;fill-opacity:1"
       ns2:rgbTrio="#4F008000FFFF"
       ns2:dimmedPercent="50"
       ns2:layer="yes"
       id="g4964"
       transform="matrix(1.2625522,0,0,1.2625522,73.103668,899.49047)">
      <g
         style="fill:#ffffff;fill-opacity:1"
         id="g4966">
        <path
           id="path4968"
           d="m 51.986,57.297 c -1.797,0.025 0.34,0.926 2.686,1.287 0.648,-0.506 1.236,-1.018 1.76,-1.516 -1.461,0.358 -2.948,0.366 -4.446,0.229"
           ns2:knockout="Off"
           inkscape:connector-curvature="0"
           style="fill:#ffffff;fill-opacity:1" />
        <path
           id="path4970"
           d="m 61.631,54.893 c 1.07,-1.477 1.85,-3.094 2.125,-4.766 -0.24,1.192 -0.887,2.221 -1.496,3.307 -3.359,2.115 -0.316,-1.256 -0.002,-2.537 -3.612,4.546 -0.496,2.726 -0.627,3.996"
           ns2:knockout="Off"
           inkscape:connector-curvature="0"
           style="fill:#ffffff;fill-opacity:1" />
        <path
           id="path4972"
           d="m 65.191,45.629 c 0.217,-3.236 -0.637,-2.213 -0.924,-0.978 0.335,0.174 0.6,2.281 0.924,0.978"
           ns2:knockout="Off"
           inkscape:connector-curvature="0"
           style="fill:#ffffff;fill-opacity:1" />
        <path
           id="path4974"
           d="m 45.172,1.399 c 0.959,0.172 2.072,0.304 1.916,0.533 1.049,-0.23 1.287,-0.442 -1.916,-0.533"
           ns2:knockout="Off"
           inkscape:connector-curvature="0"
           style="fill:#ffffff;fill-opacity:1" />
        <path
           id="path4976"
           d="M 47.088,1.932 46.41,2.072 47.041,2.016 47.088,1.932"
           ns2:knockout="Off"
           inkscape:connector-curvature="0"
           style="fill:#ffffff;fill-opacity:1" />
        <path
           sodipodi:nodetypes="cccccccccccccccccccccccccccccccccccccccccccccccccccccccccccccccccccccccccccccccccccccccccccccccc"
           inkscape:connector-curvature="0"
           id="path4978"
           d="m 76.992,46.856 c 0.107,2.906 -0.85,4.316 -1.713,6.812 l -1.553,0.776 c -1.271,2.468 0.123,1.567 -0.787,3.53 -1.984,1.764 -6.021,5.52 -7.313,5.863 -0.943,-0.021 0.639,-1.113 0.846,-1.541 -2.656,1.824 -2.131,2.738 -6.193,3.846 L 60.16,65.878 C 50.142,70.591 36.226,61.251 36.409,48.507 c -0.107,0.809 -0.304,0.607 -0.526,0.934 -0.517,-6.557 3.028,-13.143 9.007,-15.832 5.848,-2.895 12.704,-1.707 16.893,2.197 -2.301,-3.014 -6.881,-6.209 -12.309,-5.91 -5.317,0.084 -10.291,3.463 -11.951,7.131 -2.724,1.715 -3.04,6.611 -4.227,7.507 -1.597,11.737 3.004,16.808 10.787,22.773 1.225,0.826 0.345,0.951 0.511,1.58 -2.586,-1.211 -4.954,-3.039 -6.901,-5.277 1.033,1.512 2.148,2.982 3.589,4.137 -2.438,-0.826 -5.695,-5.908 -6.646,-6.115 4.203,7.525 17.052,13.197 23.78,10.383 -3.113,0.115 -7.068,0.064 -10.566,-1.229 -1.469,-0.756 -3.467,-2.322 -3.11,-2.615 9.182,3.43 18.667,2.598 26.612,-3.771 2.021,-1.574 4.229,-4.252 4.867,-4.289 -0.961,1.445 0.164,0.695 -0.574,1.971 2.014,-3.248 -0.875,-1.322 2.082,-5.609 l 1.092,1.504 c -0.406,-2.696 3.348,-5.97 2.967,-10.234 0.861,-1.304 0.961,1.403 0.047,4.403 1.268,-3.328 0.334,-3.863 0.66,-6.609 0.352,0.923 0.814,1.904 1.051,2.878 -0.826,-3.216 0.848,-5.416 1.262,-7.285 -0.408,-0.181 -1.275,1.422 -1.473,-2.377 0.029,-1.65 0.459,-0.865 0.625,-1.271 -0.324,-0.186 -1.174,-1.451 -1.691,-3.877 0.375,-0.57 1.002,1.478 1.512,1.562 -0.328,-1.929 -0.893,-3.4 -0.916,-4.88 -1.49,-3.114 -0.527,0.415 -1.736,-1.337 -1.586,-4.947 1.316,-1.148 1.512,-3.396 2.404,3.483 3.775,8.881 4.404,11.117 -0.48,-2.726 -1.256,-5.367 -2.203,-7.922 0.73,0.307 -1.176,-5.609 0.949,-1.691 C 83.519,18.706 76.074,10.902 69.225,7.24 70.063,8.007 71.121,8.97 70.741,9.121 67.335,7.093 67.934,6.935 67.446,6.078 64.671,4.949 64.489,6.169 62.651,6.08 57.421,3.306 56.413,3.601 51.6,1.863 l 0.219,1.023 c -3.465,-1.154 -4.037,0.438 -7.782,0.004 -0.228,-0.178 1.2,-0.644 2.375,-0.815 -3.35,0.442 -3.193,-0.66 -6.471,0.122 0.808,-0.567 1.662,-0.942 2.524,-1.424 -2.732,0.166 -6.522,1.59 -5.352,0.295 -4.456,1.988 -12.37,4.779 -16.811,8.943 l -0.14,-0.933 c -2.035,2.443 -8.874,7.296 -9.419,10.46 l -0.544,0.127 c -1.059,1.793 -1.744,3.825 -2.584,5.67 -1.385,2.36 -2.03,0.908 -1.833,1.278 -2.724,5.523 -4.077,10.164 -5.246,13.97 0.833,1.245 0.02,7.495 0.335,12.497 -1.368,24.704 17.338,48.69 37.785,54.228 2.997,1.072 7.454,1.031 11.245,1.141 -4.473,-1.279 -5.051,-0.678 -9.408,-2.197 -3.143,-1.48 -3.832,-3.17 -6.058,-5.102 l 0.881,1.557 c -4.366,-1.545 -2.539,-1.912 -6.091,-3.037 l 0.941,-1.229 C 28.751,98.334 26.418,96.056 25.78,94.795 l -1.548,0.061 c -1.86,-2.295 -2.851,-3.949 -2.779,-5.23 l -0.5,0.891 c -0.567,-0.973 -6.843,-8.607 -3.587,-6.83 -0.605,-0.553 -1.409,-0.9 -2.281,-2.484 l 0.663,-0.758 c -1.567,-2.016 -2.884,-4.6 -2.784,-5.461 0.836,1.129 1.416,1.34 1.99,1.533 -3.957,-9.818 -4.179,-0.541 -7.176,-9.994 L 8.412,66.472 C 7.926,65.74 7.631,64.945 7.24,64.165 l 0.276,-2.75 C 4.667,58.121 6.719,47.409 7.13,41.534 7.415,39.145 9.508,36.602 11.1,32.614 l -0.97,-0.167 c 1.854,-3.234 10.586,-12.988 14.63,-12.486 1.959,-2.461 -0.389,-0.009 -0.772,-0.629 4.303,-4.453 5.656,-3.146 8.56,-3.947 3.132,-1.859 -2.688,0.725 -1.203,-0.709 5.414,-1.383 3.837,-3.144 10.9,-3.846 0.745,0.424 -1.729,0.655 -2.35,1.205 4.511,-2.207 14.275,-1.705 20.617,1.225 7.359,3.439 15.627,13.605 15.953,23.17 l 0.371,0.1 c -0.188,3.802 0.582,8.199 -0.752,12.238 l 0.908,-1.912"
           style="fill:#ffffff;fill-opacity:1" />
        <path
           id="path4980"
           d="m 32.372,59.764 -0.252,1.26 c 1.181,1.604 2.118,3.342 3.626,4.596 -1.085,-2.118 -1.891,-2.993 -3.374,-5.856"
           ns2:knockout="Off"
           inkscape:connector-curvature="0"
           style="fill:#ffffff;fill-opacity:1" />
        <path
           id="path4982"
           d="m 35.164,59.654 c -0.625,-0.691 -0.995,-1.523 -1.409,-2.352 0.396,1.457 1.207,2.709 1.962,3.982 l -0.553,-1.63"
           ns2:knockout="Off"
           inkscape:connector-curvature="0"
           style="fill:#ffffff;fill-opacity:1" />
        <path
           id="path4986"
           d="M 45.527,0.537 C 46.742,0.092 48.514,0.293 49.803,0 48.123,0.141 46.451,0.225 44.8,0.438 l 0.727,0.099"
           ns2:knockout="Off"
           inkscape:connector-curvature="0"
           style="fill:#ffffff;fill-opacity:1" />
      </g>
    </g>
  </g>
</svg>
