<?xml version="1.0" encoding="UTF-8" standalone="no"?>
<!-- Created with Inkscape (http://www.inkscape.org/) -->

<svg
   xmlns:dc="http://purl.org/dc/elements/1.1/"
   xmlns:cc="http://creativecommons.org/ns#"
   xmlns:rdf="http://www.w3.org/1999/02/22-rdf-syntax-ns#"
   xmlns:svg="http://www.w3.org/2000/svg"
   xmlns="http://www.w3.org/2000/svg"
   xmlns:sodipodi="http://sodipodi.sourceforge.net/DTD/sodipodi-0.dtd"
   xmlns:inkscape="http://www.inkscape.org/namespaces/inkscape"
   width="256"
   height="256"
   viewBox="0 0 256 256"
   id="svg2"
   version="1.1"
   inkscape:version="0.92.4 (unknown)"
   sodipodi:docname="application-x-rpm.svg">
  <sodipodi:namedview
     id="base"
     pagecolor="#ffffff"
     bordercolor="#666666"
     borderopacity="1.0"
     inkscape:pageopacity="0.0"
     inkscape:pageshadow="2"
     inkscape:zoom="2.1328125"
     inkscape:cx="-135.50183"
     inkscape:cy="128"
     inkscape:document-units="px"
     inkscape:current-layer="layer1"
     showgrid="false"
     units="px"
     inkscape:window-width="1920"
     inkscape:window-height="1048"
     inkscape:window-x="0"
     inkscape:window-y="0"
     inkscape:window-maximized="1" />
  <defs
     id="defs4">
    <filter
       id="filter4301"
       inkscape:label="Drop Shadow"
       style="color-interpolation-filters:sRGB;">
      <feFlood
         id="feFlood4303"
         result="flood"
         flood-color="rgb(0,0,0)"
         flood-opacity="0.498039" />
      <feComposite
         id="feComposite4305"
         result="composite1"
         operator="in"
         in2="SourceGraphic"
         in="flood" />
      <feGaussianBlur
         id="feGaussianBlur4307"
         result="blur"
         stdDeviation="3.7"
         in="composite1" />
      <feOffset
         id="feOffset4309"
         result="offset"
         dy="3.7"
         dx="3.8" />
      <feComposite
         id="feComposite4311"
         result="composite2"
         operator="over"
         in2="offset"
         in="SourceGraphic" />
    </filter>
    <clipPath
       clipPathUnits="userSpaceOnUse"
       id="clipPath4567">
      <path
         style="fill:#d72226;fill-opacity:1"
         d="M 127.83594,796.36506 A 128,128 0 0 0 0,924.3592 a 128,128 0 0 0 128,128 128,128 0 0 0 127.99219,-127.83789 L 127.83594,796.36506 Z m 12.42383,0.60742 a 128,128 0 0 1 7.76757,1.1211 128,128 0 0 0 -7.76757,-1.1211 z m 12.58789,1.84961 a 128,128 0 0 1 8.42187,2.08984 128,128 0 0 0 -8.42187,-2.08984 z m 12.36328,3.09766 a 128,128 0 0 1 8.94531,3.19726 128,128 0 0 0 -8.94531,-3.19726 z m 11.98437,4.30468 a 128,128 0 0 1 9.34375,4.43946 128,128 0 0 0 -9.34375,-4.43946 z m 11.49805,5.47852 a 128,128 0 0 1 9.49414,5.73438 128,128 0 0 0 -9.49414,-5.73438 z m 10.90625,6.59961 a 128,128 0 0 1 9.66016,7.24414 128,128 0 0 0 -9.66016,-7.24414 z m 10.17773,7.63867 a 128,128 0 0 1 9.38868,8.62891 128,128 0 0 0 -9.38868,-8.62891 z m 9.38868,8.62891 0.98046,0.98047 a 128,128 0 0 0 -0.98046,-0.98047 z m 7.65039,8.57226 a 128,128 0 0 1 4.5039,5.92188 128,128 0 0 0 -4.5039,-5.92188 z m 7.63867,10.30469 a 128,128 0 0 1 3.81054,6.21289 128,128 0 0 0 -3.81054,-6.21289 z m 6.57617,11.03125 a 128,128 0 0 1 3.08203,6.37695 128,128 0 0 0 -3.08203,-6.37695 z m 5.4375,11.63867 a 128,128 0 0 1 2.37695,6.50782 128,128 0 0 0 -2.37695,-6.50782 z m 4.23242,12.09375 a 128,128 0 0 1 1.68555,6.59375 128,128 0 0 0 -1.68555,-6.59375 z m 3.00781,12.48633 a 128,128 0 0 1 0.99024,6.53906 128,128 0 0 0 -0.99024,-6.53906 z m 1.74024,12.71094 A 128,128 0 0 1 256,924.3592 128,128 0 0 0 255.44922,913.40803 Z"
         id="path4569"
         inkscape:connector-curvature="0" />
    </clipPath>
  </defs>
  <metadata
     id="metadata7">
    <rdf:RDF>
      <cc:Work
         rdf:about="">
        <dc:format>image/svg+xml</dc:format>
        <dc:type
           rdf:resource="http://purl.org/dc/dcmitype/StillImage" />
        <dc:title />
      </cc:Work>
    </rdf:RDF>
  </metadata>
  <g
     transform="translate(0,-796.36214)"
     id="layer1"
     inkscape:groupmode="layer"
     inkscape:label="Layer 1">
    <path
       inkscape:connector-curvature="0"
       id="path4957"
       d="M 127.83594,796.36506 A 128,128 0 0 0 0,924.3592 a 128,128 0 0 0 128,128 128,128 0 0 0 127.99219,-127.83789 L 127.83594,796.36506 Z m 12.42383,0.60742 a 128,128 0 0 1 7.76757,1.1211 128,128 0 0 0 -7.76757,-1.1211 z m 12.58789,1.84961 a 128,128 0 0 1 8.42187,2.08984 128,128 0 0 0 -8.42187,-2.08984 z m 12.36328,3.09766 a 128,128 0 0 1 8.94531,3.19726 128,128 0 0 0 -8.94531,-3.19726 z m 11.98437,4.30468 a 128,128 0 0 1 9.34375,4.43946 128,128 0 0 0 -9.34375,-4.43946 z m 11.49805,5.47852 a 128,128 0 0 1 9.49414,5.73438 128,128 0 0 0 -9.49414,-5.73438 z m 10.90625,6.59961 a 128,128 0 0 1 9.66016,7.24414 128,128 0 0 0 -9.66016,-7.24414 z m 10.17773,7.63867 a 128,128 0 0 1 9.38868,8.62891 128,128 0 0 0 -9.38868,-8.62891 z m 9.38868,8.62891 0.98046,0.98047 a 128,128 0 0 0 -0.98046,-0.98047 z m 7.65039,8.57226 a 128,128 0 0 1 4.5039,5.92188 128,128 0 0 0 -4.5039,-5.92188 z m 7.63867,10.30469 a 128,128 0 0 1 3.81054,6.21289 128,128 0 0 0 -3.81054,-6.21289 z m 6.57617,11.03125 a 128,128 0 0 1 3.08203,6.37695 128,128 0 0 0 -3.08203,-6.37695 z m 5.4375,11.63867 a 128,128 0 0 1 2.37695,6.50782 128,128 0 0 0 -2.37695,-6.50782 z m 4.23242,12.09375 a 128,128 0 0 1 1.68555,6.59375 128,128 0 0 0 -1.68555,-6.59375 z m 3.00781,12.48633 a 128,128 0 0 1 0.99024,6.53906 128,128 0 0 0 -0.99024,-6.53906 z m 1.74024,12.71094 A 128,128 0 0 1 256,924.3592 128,128 0 0 0 255.44922,913.40803 Z"
       style="fill:#d72226;fill-opacity:1" />
    <path
       inkscape:connector-curvature="0"
       id="rect4961"
       d="m 255.61415,924.52718 a 128,128 0 0 0 0.16406,-0.006 L 127.62197,796.36506 a 128,128 0 0 0 -0.008,0.16211 128,128 0 0 0 35.85352,88.80861 l 0.98046,0.98046 a 128,128 0 0 0 91.16603,38.21094 z"
       style="fill:#ff7272;fill-opacity:1" />
    <text
       id="text4164"
       y="965.15338"
       x="54.857143"
       style="font-style:normal;font-weight:normal;line-height:0%;font-family:sans-serif;letter-spacing:0px;word-spacing:0px;fill:#000000;fill-opacity:1;stroke:none;stroke-width:1px;stroke-linecap:butt;stroke-linejoin:miter;stroke-opacity:1"
       xml:space="preserve"><tspan
         y="965.15338"
         x="54.857143"
         id="tspan4166"
         sodipodi:role="line"
         style="font-size:40px;line-height:1.25"> </tspan></text>
    <path
       sodipodi:nodetypes="scssssssccccsssssscccssccsssssscscssssccccccssssccccccscccccccssccccccccssssssssssssscccsscsscccsscsscsccsccsccssc"
       inkscape:connector-curvature="0"
       id="path4256"
       d="m 76.124992,993.6922 0,-24.2574 11.32813,0.1753 c 9.24178,0.143 11.96122,0.2869 14.765628,0.781 11.53562,2.0326 19.27189,6.4275 22.36155,12.7035 0.79094,1.6066 1.01723,2.5186 1.14179,4.6012 0.18557,3.103 -0.46973,5.2092 -2.43579,7.8289 -4.44623,5.9244 -16.37777,11.1595 -27.357578,12.0035 l -2.61623,0.2011 0,3.846 0,3.8459 -1.01562,0.1741 c -1.03686,0.1777 -15.89821,2.3543 -16.07471,2.3543 -0.0534,0 -0.0972,-10.9159 -0.0972,-24.2574 z m 22.03125,8.0299 c 4.611948,-2.2992 8.223578,-5.8487 9.561998,-9.3975 0.99505,-2.6384 0.76566,-6.0683 -0.58993,-8.8208 -2.15231,-4.3702 -7.940208,-8.7571 -12.520008,-9.4894 l -1.29581,-0.2072 0,14.7683 0,14.7683 1.17188,-0.1877 c 0.64453,-0.1032 2.29687,-0.7486 3.67187,-1.434 z m -66.40625,-13.3038 0,-18.9062 8.32492,0 c 7.25191,0 8.3718,0.064 8.68859,0.4973 0.30677,0.4195 0.56508,0.4431 1.65137,0.1506 0.70825,-0.1907 3.11566,-0.4859 5.3498,-0.6559 4.78104,-0.3638 7.65955,-0.053 10.48153,1.1329 1.05052,0.4414 2.29676,0.9621 2.76942,1.1573 0.47265,0.1951 0.85568,0.4294 0.85117,0.5207 -0.004,0.091 -2.02303,1.3979 -4.48559,2.9038 l -4.47739,2.738 -1.84254,-0.863 c -1.69961,-0.796 -2.14143,-0.863 -5.69604,-0.863 -3.45394,0 -3.89947,0.063 -4.29687,0.6066 -0.36818,0.5038 -0.44337,3.1401 -0.44337,15.5469 l 0,14.9403 -8.4375,0 -8.4375,0 z m 105.312508,-0.019 0,-18.9248 34.45311,0.1351 c 35.8191,0.1405 36.35641,0.1596 41.17012,1.4622 1.93918,0.5248 3.66868,1.4507 4.05381,2.1703 0.21074,0.3938 0.32295,6.4213 0.32295,17.3478 l 0,16.7443 -8.51563,-0.083 -8.51562,-0.083 -0.0809,-16.4932 -0.0809,-16.4931 -0.85661,-0.352 c -0.48665,-0.2 -3.52218,-0.4144 -7.02849,-0.4965 l -6.17187,-0.1444 0,17.0677 0,17.0677 -8.59099,0 -8.59099,0 -0.0809,-16.4802 -0.0809,-16.4802 -0.9375,-0.4646 c -0.70479,-0.3493 -2.46952,-0.4941 -7.10938,-0.5836 l -6.17187,-0.1191 0,17.0639 0,17.0638 -8.59375,0 -8.59375,0 0,-18.9248 z m 27.03124,-67.89277 c -3.35811,-1.69206 -3.89105,-1.90669 -9.84374,-3.96425 -11.38466,-3.93514 -24.89358,-5.57034 -37.34375,-4.52031 -11.61604,0.97968 -22.048638,3.74714 -31.174798,8.26974 -5.85363,2.90086 -9.78631,5.66456 -14.009291,9.84504 -5.074899,5.02384 -7.673569,9.24788 -9.266299,15.06202 -0.73028,2.66583 -0.74375,9.65769 -0.0235,12.2036 0.27958,0.98829 0.42421,1.79688 0.32139,1.79688 -0.10282,0 -6.84091,1.19531 -14.97354,2.65625 -8.13264,1.46094 -15.08457,2.65625 -15.44875,2.65625 -0.63777,0 -0.65408,-0.0925 -0.4431,-2.51114 1.97842,-22.68011 24.96817,-42.60237 58.76791,-50.92659 11.490358,-2.82985 20.664998,-3.88716 33.749998,-3.88944 11.29793,-0.002 18.70709,0.68263 28.59374,2.64203 3.55239,0.70404 10.08421,2.34626 11.09375,2.78918 0.34375,0.15082 2.15975,0.78847 4.03556,1.417 m 0,0 c 5.38693,1.80502 8.73827,3.18418 13.77694,5.66956 20.20087,9.96429 32.78789,24.58051 34.84708,40.46492 0.2095,1.61603 0.42261,3.09304 0.47359,3.28225 0.051,0.18921 1.65203,0.5949 3.55789,0.90152 3.249,0.52273 3.46519,0.60248 3.46519,1.27817 0,0.39639 -0.10547,0.77869 -0.23438,0.84949 -0.12889,0.071 -2.83593,-0.3331 -6.01562,-0.89768 l 0,-10e-5 c -6.80362,-1.20813 -39.89436,-7.02705 -62.96875,-11.0729 -8.9375,-1.5671 -18.85145,-3.31538 -22.031,-3.88507 l -5.78099,-1.03581 -0.8836,0.7435 c -1.24173,1.04484 -2.81751,0.99722 -3.93361,-0.11888 -0.47431,-0.4743 -0.92214,-1.04167 -0.99519,-1.2608 -0.0785,-0.23543 -1.37544,-0.60506 -3.1702,-0.90351 -3.02359,-0.50278 -3.03652,-0.50876 -2.84306,-1.31731 0.10688,-0.44674 0.20971,-0.83344 0.2285,-0.85935 0.0188,-0.0259 1.36776,0.20463 2.99771,0.5123 2.85762,0.53941 2.97772,0.53915 3.36034,-0.007 0.50008,-0.71396 2.29773,-1.32358 3.08154,-1.04501 0.82301,0.29249 2.00082,1.39504 2.00082,1.87296 0,0.2177 0.13647,0.48018 0.30328,0.58327 0.49568,0.30635 58.79606,10.48856 59.07332,10.3172 0.5757,-0.3558 1.01171,-4.53542 0.85003,-8.14834 -0.18944,-4.23326 -0.82645,-6.67195 -2.76001,-10.56628 -3.66005,-7.3716 -10.94058,-14.0992 -20.43538,-18.88336"
       style="fill:#ffffff;fill-opacity:1" />
  </g>
</svg>
