<?xml version="1.0" encoding="UTF-8" standalone="no"?>
<!-- Created with Inkscape (http://www.inkscape.org/) -->

<svg
   sodipodi:docname="text-x-chdr.svg"
   inkscape:version="1.1 (c68e22c387, 2021-05-23)"
   version="1.1"
   id="svg2"
   viewBox="0 0 256 256"
   height="256"
   width="256"
   xmlns:inkscape="http://www.inkscape.org/namespaces/inkscape"
   xmlns:sodipodi="http://sodipodi.sourceforge.net/DTD/sodipodi-0.dtd"
   xmlns="http://www.w3.org/2000/svg"
   xmlns:svg="http://www.w3.org/2000/svg"
   xmlns:rdf="http://www.w3.org/1999/02/22-rdf-syntax-ns#"
   xmlns:cc="http://creativecommons.org/ns#"
   xmlns:dc="http://purl.org/dc/elements/1.1/">
  <sodipodi:namedview
     inkscape:window-maximized="1"
     inkscape:window-y="0"
     inkscape:window-x="0"
     inkscape:window-height="1048"
     inkscape:window-width="1920"
     units="px"
     showgrid="false"
     inkscape:current-layer="layer1"
     inkscape:document-units="px"
     inkscape:cy="127.99707"
     inkscape:cx="127.99707"
     inkscape:zoom="3.1172589"
     inkscape:pageshadow="2"
     inkscape:pageopacity="0.0"
     borderopacity="1.0"
     bordercolor="#666666"
     pagecolor="#ffffff"
     id="base"
     inkscape:pagecheckerboard="0" />
  <defs
     id="defs4">
    <filter
       style="color-interpolation-filters:sRGB;"
       inkscape:label="Drop Shadow"
       id="filter4301">
      <feFlood
         flood-opacity="0.498039"
         flood-color="rgb(0,0,0)"
         result="flood"
         id="feFlood4303" />
      <feComposite
         in="flood"
         in2="SourceGraphic"
         operator="in"
         result="composite1"
         id="feComposite4305" />
      <feGaussianBlur
         in="composite1"
         stdDeviation="3.7"
         result="blur"
         id="feGaussianBlur4307" />
      <feOffset
         dx="3.8"
         dy="3.7"
         result="offset"
         id="feOffset4309" />
      <feComposite
         in="SourceGraphic"
         in2="offset"
         operator="over"
         result="composite2"
         id="feComposite4311" />
    </filter>
    <clipPath
       id="clipPath4248"
       clipPathUnits="userSpaceOnUse">
      <path
         inkscape:connector-curvature="0"
         id="path4250"
         d="M 127.83594,796.36506 A 128,128 0 0 0 0,924.3592 a 128,128 0 0 0 128,128 128,128 0 0 0 127.99219,-127.83789 L 127.83594,796.36506 Z m 12.42383,0.60742 a 128,128 0 0 1 7.76757,1.1211 128,128 0 0 0 -7.76757,-1.1211 z m 12.58789,1.84961 a 128,128 0 0 1 8.42187,2.08984 128,128 0 0 0 -8.42187,-2.08984 z m 12.36328,3.09766 a 128,128 0 0 1 8.94531,3.19726 128,128 0 0 0 -8.94531,-3.19726 z m 11.98437,4.30468 a 128,128 0 0 1 9.34375,4.43946 128,128 0 0 0 -9.34375,-4.43946 z m 11.49805,5.47852 a 128,128 0 0 1 9.49414,5.73438 128,128 0 0 0 -9.49414,-5.73438 z m 10.90625,6.59961 a 128,128 0 0 1 9.66016,7.24414 128,128 0 0 0 -9.66016,-7.24414 z m 10.17773,7.63867 a 128,128 0 0 1 9.38868,8.62891 128,128 0 0 0 -9.38868,-8.62891 z m 9.38868,8.62891 0.98046,0.98047 a 128,128 0 0 0 -0.98046,-0.98047 z m 7.65039,8.57226 a 128,128 0 0 1 4.5039,5.92188 128,128 0 0 0 -4.5039,-5.92188 z m 7.63867,10.30469 a 128,128 0 0 1 3.81054,6.21289 128,128 0 0 0 -3.81054,-6.21289 z m 6.57617,11.03125 a 128,128 0 0 1 3.08203,6.37695 128,128 0 0 0 -3.08203,-6.37695 z m 5.4375,11.63867 a 128,128 0 0 1 2.37695,6.50782 128,128 0 0 0 -2.37695,-6.50782 z m 4.23242,12.09375 a 128,128 0 0 1 1.68555,6.59375 128,128 0 0 0 -1.68555,-6.59375 z m 3.00781,12.48633 a 128,128 0 0 1 0.99024,6.53906 128,128 0 0 0 -0.99024,-6.53906 z m 1.74024,12.71094 A 128,128 0 0 1 256,924.3592 128,128 0 0 0 255.44922,913.40803 Z"
         style="fill:#9c3831;fill-opacity:1" />
    </clipPath>
    <clipPath
       clipPathUnits="userSpaceOnUse"
       id="clipPath960">
      <path
         inkscape:connector-curvature="0"
         id="path962"
         d="M 134.92866,754.50297 A 135.10182,121.27149 0 0 0 0,875.76891 135.10182,121.27149 0 0 0 135.10182,997.04041 135.10182,121.27149 0 0 0 270.19541,875.9225 Z m 13.11314,0.57549 a 135.10182,121.27149 0 0 1 8.19854,1.06217 135.10182,121.27149 0 0 0 -8.19854,-1.06217 z m 13.28631,1.75238 a 135.10182,121.27149 0 0 1 8.88914,1.97999 135.10182,121.27149 0 0 0 -8.88914,-1.97999 z m 13.04923,2.93483 a 135.10182,121.27149 0 0 1 9.44162,3.02919 135.10182,121.27149 0 0 0 -9.44162,-3.02919 z m 12.6493,4.0784 a 135.10182,121.27149 0 0 1 9.86217,4.20609 135.10182,121.27149 0 0 0 -9.86217,-4.20609 z m 12.13599,5.19053 a 135.10182,121.27149 0 0 1 10.02091,5.43295 135.10182,121.27149 0 0 0 -10.02091,-5.43295 z m 11.51137,6.2527 a 135.10182,121.27149 0 0 1 10.19613,6.86334 135.10182,121.27149 0 0 0 -10.19613,-6.86334 z m 10.74242,7.23713 a 135.10182,121.27149 0 0 1 9.90959,8.17532 135.10182,121.27149 0 0 0 -9.90959,-8.17532 z m 9.90959,8.17532 1.03486,0.92893 a 135.10182,121.27149 0 0 0 -1.03486,-0.92893 z m 8.07486,8.12164 a 135.10182,121.27149 0 0 1 4.75379,5.61059 135.10182,121.27149 0 0 0 -4.75379,-5.61059 z m 8.06248,9.76301 a 135.10182,121.27149 0 0 1 4.02196,5.8863 135.10182,121.27149 0 0 0 -4.02196,-5.8863 z m 6.94104,10.45138 a 135.10182,121.27149 0 0 1 3.25303,6.04173 135.10182,121.27149 0 0 0 -3.25303,-6.04173 z m 5.73919,11.02686 a 135.10182,121.27149 0 0 1 2.50883,6.16573 135.10182,121.27149 0 0 0 -2.50883,-6.16573 z m 4.46724,11.45803 a 135.10182,121.27149 0 0 1 1.77907,6.24714 135.10182,121.27149 0 0 0 -1.77907,-6.24714 z m 3.1747,11.82997 a 135.10182,121.27149 0 0 1 1.04518,6.19532 135.10182,121.27149 0 0 0 -1.04518,-6.19532 z m 1.83679,12.04277 a 135.10182,121.27149 0 0 1 0.58134,10.3755 135.10182,121.27149 0 0 0 -0.58134,-10.3755 z"
         style="fill:#9c3831;fill-opacity:1" />
    </clipPath>
    <clipPath
       id="clipPath1095"
       clipPathUnits="userSpaceOnUse">
      <path
         inkscape:connector-curvature="0"
         id="path1097"
         d="M 134.90182,714.26849 A 156.04523,140.07093 0 0 0 -20.943411,854.33301 156.04523,140.07093 0 0 0 135.10182,994.40395 156.04523,140.07093 0 0 0 291.13754,854.51041 Z m 15.14593,0.66471 a 156.04523,140.07093 0 0 1 9.46947,1.22682 156.04523,140.07093 0 0 0 -9.46947,-1.22682 z m 15.34594,2.02403 a 156.04523,140.07093 0 0 1 10.26713,2.28692 156.04523,140.07093 0 0 0 -10.26713,-2.28692 z m 15.07212,3.38978 a 156.04523,140.07093 0 0 1 10.90525,3.49878 156.04523,140.07093 0 0 0 -10.90525,-3.49878 z m 14.61018,4.71063 a 156.04523,140.07093 0 0 1 11.391,4.85812 156.04523,140.07093 0 0 0 -11.391,-4.85812 z m 14.01731,5.99517 a 156.04523,140.07093 0 0 1 11.57434,6.27516 156.04523,140.07093 0 0 0 -11.57434,-6.27516 z m 13.29585,7.22198 a 156.04523,140.07093 0 0 1 11.77673,7.92729 156.04523,140.07093 0 0 0 -11.77673,-7.92729 z m 12.40771,8.35903 a 156.04523,140.07093 0 0 1 11.44577,9.44265 156.04523,140.07093 0 0 0 -11.44577,-9.44265 z m 11.44577,9.44265 1.19528,1.07293 a 156.04523,140.07093 0 0 0 -1.19528,-1.07293 z m 9.32661,9.38066 a 156.04523,140.07093 0 0 1 5.49072,6.48034 156.04523,140.07093 0 0 0 -5.49072,-6.48034 z m 9.31233,11.27647 a 156.04523,140.07093 0 0 1 4.64544,6.79879 156.04523,140.07093 0 0 0 -4.64544,-6.79879 z m 8.01703,12.07154 a 156.04523,140.07093 0 0 1 3.75732,6.97832 156.04523,140.07093 0 0 0 -3.75732,-6.97832 z m 6.62888,12.73624 a 156.04523,140.07093 0 0 1 2.89775,7.12154 156.04523,140.07093 0 0 0 -2.89775,-7.12154 z m 5.15976,13.23425 a 156.04523,140.07093 0 0 1 2.05486,7.21556 156.04523,140.07093 0 0 0 -2.05486,-7.21556 z m 3.66683,13.66384 a 156.04523,140.07093 0 0 1 1.2072,7.15572 156.04523,140.07093 0 0 0 -1.2072,-7.15572 z m 2.12153,13.90963 a 156.04523,140.07093 0 0 1 0.67146,11.98391 156.04523,140.07093 0 0 0 -0.67146,-11.98391 z"
         style="fill:#9c3831;fill-opacity:1;stroke-width:1.1550194" />
    </clipPath>
    <clipPath
       clipPathUnits="userSpaceOnUse"
       id="clipPath995">
      <path
         inkscape:connector-curvature="0"
         id="path997"
         d="M 127.83594,796.36506 A 128,128 0 0 0 0,924.3592 a 128,128 0 0 0 128,128 128,128 0 0 0 127.99219,-127.83789 z m 12.42383,0.60742 a 128,128 0 0 1 7.76757,1.1211 128,128 0 0 0 -7.76757,-1.1211 z m 12.58789,1.84961 a 128,128 0 0 1 8.42187,2.08984 128,128 0 0 0 -8.42187,-2.08984 z m 12.36328,3.09766 a 128,128 0 0 1 8.94531,3.19726 128,128 0 0 0 -8.94531,-3.19726 z m 11.98437,4.30468 a 128,128 0 0 1 9.34375,4.43946 128,128 0 0 0 -9.34375,-4.43946 z m 11.49805,5.47852 a 128,128 0 0 1 9.49414,5.73438 128,128 0 0 0 -9.49414,-5.73438 z m 10.90625,6.59961 a 128,128 0 0 1 9.66016,7.24414 128,128 0 0 0 -9.66016,-7.24414 z m 10.17773,7.63867 a 128,128 0 0 1 9.38868,8.62891 128,128 0 0 0 -9.38868,-8.62891 z m 9.38868,8.62891 0.98046,0.98047 a 128,128 0 0 0 -0.98046,-0.98047 z m 7.65039,8.57226 a 128,128 0 0 1 4.5039,5.92188 128,128 0 0 0 -4.5039,-5.92188 z m 7.63867,10.30469 a 128,128 0 0 1 3.81054,6.21289 128,128 0 0 0 -3.81054,-6.21289 z m 6.57617,11.03125 a 128,128 0 0 1 3.08203,6.37695 128,128 0 0 0 -3.08203,-6.37695 z m 5.4375,11.63867 a 128,128 0 0 1 2.37695,6.50782 128,128 0 0 0 -2.37695,-6.50782 z m 4.23242,12.09375 a 128,128 0 0 1 1.68555,6.59375 128,128 0 0 0 -1.68555,-6.59375 z m 3.00781,12.48633 a 128,128 0 0 1 0.99024,6.53906 128,128 0 0 0 -0.99024,-6.53906 z m 1.74024,12.71094 A 128,128 0 0 1 256,924.3592 128,128 0 0 0 255.44922,913.40803 Z"
         style="fill:#9c3831;fill-opacity:1" />
    </clipPath>
  </defs>
  <metadata
     id="metadata7">
    <rdf:RDF>
      <cc:Work
         rdf:about="">
        <dc:format>image/svg+xml</dc:format>
        <dc:type
           rdf:resource="http://purl.org/dc/dcmitype/StillImage" />
      </cc:Work>
    </rdf:RDF>
  </metadata>
  <g
     inkscape:label="Layer 1"
     inkscape:groupmode="layer"
     id="layer1"
     transform="translate(0,-796.36214)">
    <path
       style="fill:#9c3831;fill-opacity:1"
       d="M 127.83594,796.36506 A 128,128 0 0 0 0,924.3592 a 128,128 0 0 0 128,128 128,128 0 0 0 127.99219,-127.83789 L 127.83594,796.36506 Z m 12.42383,0.60742 a 128,128 0 0 1 7.76757,1.1211 128,128 0 0 0 -7.76757,-1.1211 z m 12.58789,1.84961 a 128,128 0 0 1 8.42187,2.08984 128,128 0 0 0 -8.42187,-2.08984 z m 12.36328,3.09766 a 128,128 0 0 1 8.94531,3.19726 128,128 0 0 0 -8.94531,-3.19726 z m 11.98437,4.30468 a 128,128 0 0 1 9.34375,4.43946 128,128 0 0 0 -9.34375,-4.43946 z m 11.49805,5.47852 a 128,128 0 0 1 9.49414,5.73438 128,128 0 0 0 -9.49414,-5.73438 z m 10.90625,6.59961 a 128,128 0 0 1 9.66016,7.24414 128,128 0 0 0 -9.66016,-7.24414 z m 10.17773,7.63867 a 128,128 0 0 1 9.38868,8.62891 128,128 0 0 0 -9.38868,-8.62891 z m 9.38868,8.62891 0.98046,0.98047 a 128,128 0 0 0 -0.98046,-0.98047 z m 7.65039,8.57226 a 128,128 0 0 1 4.5039,5.92188 128,128 0 0 0 -4.5039,-5.92188 z m 7.63867,10.30469 a 128,128 0 0 1 3.81054,6.21289 128,128 0 0 0 -3.81054,-6.21289 z m 6.57617,11.03125 a 128,128 0 0 1 3.08203,6.37695 128,128 0 0 0 -3.08203,-6.37695 z m 5.4375,11.63867 a 128,128 0 0 1 2.37695,6.50782 128,128 0 0 0 -2.37695,-6.50782 z m 4.23242,12.09375 a 128,128 0 0 1 1.68555,6.59375 128,128 0 0 0 -1.68555,-6.59375 z m 3.00781,12.48633 a 128,128 0 0 1 0.99024,6.53906 128,128 0 0 0 -0.99024,-6.53906 z m 1.74024,12.71094 A 128,128 0 0 1 256,924.3592 128,128 0 0 0 255.44922,913.40803 Z"
       id="path4957"
       inkscape:connector-curvature="0" />
    <path
       style="fill:#d1756d;fill-opacity:1"
       d="m 255.61415,924.52718 a 128,128 0 0 0 0.16406,-0.006 L 127.62197,796.36506 a 128,128 0 0 0 -0.008,0.16211 128,128 0 0 0 35.85352,88.80861 l 0.98046,0.98046 a 128,128 0 0 0 91.16603,38.21094 z"
       id="rect4961"
       inkscape:connector-curvature="0" />
    <g
       aria-label="h"
       style="font-style:normal;font-variant:normal;font-weight:bold;font-stretch:normal;font-size:160px;line-height:1.25;font-family:'Roboto Mono';-inkscape-font-specification:'Roboto Mono Bold';letter-spacing:0px;word-spacing:0px;fill:#ffffff;fill-opacity:1;stroke:none;stroke-width:4"
       id="text1001"
       transform="matrix(0.83333347,0,0,0.83333347,21.333317,175.06023)">
      <path
         d="m 111.86719,929.4715 q 4.21875,-6.17188 10.23437,-9.6875 6.09375,-3.51563 13.59375,-3.51563 6.64063,0 12.1875,2.03125 5.54688,1.95313 9.53125,6.17188 3.98438,4.21875 6.17188,10.85937 2.26562,6.5625 2.26562,15.85938 v 51.17185 H 144.13281 V 951.034 q 0,-4.53125 -1.17187,-7.8125 -1.09375,-3.28125 -3.20313,-5.3125 -2.10937,-2.03125 -5.07812,-2.96875 -2.96875,-1.01563 -6.71875,-1.01563 -5.46875,0 -9.53125,1.95313 -3.98438,1.95312 -6.5625,5.46875 v 61.0156 H 90.148437 V 882.36212 h 21.718753 z"
         style="fill:#ffffff;fill-opacity:1;stroke-width:4"
         id="path1003" />
    </g>
  </g>
</svg>
