<?xml version="1.0" encoding="UTF-8" standalone="no"?>
<!-- Created with Inkscape (http://www.inkscape.org/) -->

<svg
   xmlns:dc="http://purl.org/dc/elements/1.1/"
   xmlns:cc="http://creativecommons.org/ns#"
   xmlns:rdf="http://www.w3.org/1999/02/22-rdf-syntax-ns#"
   xmlns:svg="http://www.w3.org/2000/svg"
   xmlns="http://www.w3.org/2000/svg"
   xmlns:sodipodi="http://sodipodi.sourceforge.net/DTD/sodipodi-0.dtd"
   xmlns:inkscape="http://www.inkscape.org/namespaces/inkscape"
   sodipodi:docname="text-x-r.svg"
   inkscape:version="0.92.4 (unknown)"
   version="1.1"
   id="svg2"
   viewBox="0 0 256 256"
   height="256"
   width="256">
  <sodipodi:namedview
     inkscape:window-maximized="1"
     inkscape:window-y="0"
     inkscape:window-x="0"
     inkscape:window-height="1048"
     inkscape:window-width="1920"
     units="px"
     showgrid="false"
     inkscape:current-layer="layer1"
     inkscape:document-units="px"
     inkscape:cy="128"
     inkscape:cx="16.589772"
     inkscape:zoom="3.2851562"
     inkscape:pageshadow="2"
     inkscape:pageopacity="0.0"
     borderopacity="1.0"
     bordercolor="#666666"
     pagecolor="#ffffff"
     id="base" />
  <defs
     id="defs4">
    <filter
       style="color-interpolation-filters:sRGB;"
       inkscape:label="Drop Shadow"
       id="filter4301">
      <feFlood
         flood-opacity="0.498039"
         flood-color="rgb(0,0,0)"
         result="flood"
         id="feFlood4303" />
      <feComposite
         in="flood"
         in2="SourceGraphic"
         operator="in"
         result="composite1"
         id="feComposite4305" />
      <feGaussianBlur
         in="composite1"
         stdDeviation="3.7"
         result="blur"
         id="feGaussianBlur4307" />
      <feOffset
         dx="3.8"
         dy="3.7"
         result="offset"
         id="feOffset4309" />
      <feComposite
         in="SourceGraphic"
         in2="offset"
         operator="over"
         result="composite2"
         id="feComposite4311" />
    </filter>
    <clipPath
       id="clipPath4266"
       clipPathUnits="userSpaceOnUse">
      <path
         inkscape:connector-curvature="0"
         id="path4268"
         d="m 153.38672,796.84847 -105.781251,0 c -7.804357,0 -14.087891,6.28158 -14.087891,14.08594 l 0,227.33989 c 0,7.8043 6.283534,14.0878 14.087891,14.0878 l 165.162111,0 c 7.80436,0 14.08594,-6.2835 14.08594,-14.0878 l 0,-154.82232 -73.4668,-86.60351 z"
         style="fill:#db4437;fill-opacity:1" />
    </clipPath>
    <clipPath
       clipPathUnits="userSpaceOnUse"
       id="clipPath6136">
      <path
         id="path6138"
         d="m 151.20117,796.84847 -105.78125,0 c -7.804357,0 -14.087891,6.28158 -14.087891,14.08594 l 0,227.33989 c 0,7.8043 6.283534,14.0878 14.087891,14.0878 l 165.16211,0 c 7.80436,0 14.08594,-6.2835 14.08594,-14.0878 l 0,-154.82232 -73.4668,-86.60351 z"
         style="fill:#db4437;fill-opacity:1"
         inkscape:connector-curvature="0" />
    </clipPath>
    <clipPath
       id="clipPath4461"
       clipPathUnits="userSpaceOnUse">
      <path
         id="path4463"
         d="m 152.17271,796.3627 -105.781253,0 c -7.804357,0 -14.087891,6.28158 -14.087891,14.08594 l 0,227.33986 c 0,7.8043 6.283534,14.0878 14.087891,14.0878 l 165.162113,0 c 7.80436,0 14.08594,-6.2835 14.08594,-14.0878 l 0,-154.82229 -73.4668,-86.60351 z"
         style="fill:#db4437;fill-opacity:1"
         inkscape:connector-curvature="0" />
    </clipPath>
    <clipPath
       clipPathUnits="userSpaceOnUse"
       id="clipPath4484">
      <g
         transform="translate(0,0.389985)"
         id="g4486">
        <path
           id="path4488"
           d="M 127.83594,796.36802 A 128,128 0 0 0 0,924.36216 128,128 0 0 0 128,1052.3622 128,128 0 0 0 255.99219,924.52427 L 127.83594,796.36802 Z m 12.42383,0.60742 a 128,128 0 0 1 7.76757,1.1211 128,128 0 0 0 -7.76757,-1.1211 z m 12.58789,1.84961 a 128,128 0 0 1 8.42187,2.08984 128,128 0 0 0 -8.42187,-2.08984 z m 12.36328,3.09766 a 128,128 0 0 1 8.94531,3.19726 128,128 0 0 0 -8.94531,-3.19726 z m 11.98437,4.30468 a 128,128 0 0 1 9.34375,4.43946 128,128 0 0 0 -9.34375,-4.43946 z m 11.49805,5.47852 a 128,128 0 0 1 9.49414,5.73438 128,128 0 0 0 -9.49414,-5.73438 z m 10.90625,6.59961 a 128,128 0 0 1 9.66016,7.24414 128,128 0 0 0 -9.66016,-7.24414 z m 10.17773,7.63867 a 128,128 0 0 1 9.38868,8.62891 128,128 0 0 0 -9.38868,-8.62891 z m 9.38868,8.62891 0.98046,0.98047 a 128,128 0 0 0 -0.98046,-0.98047 z m 7.65039,8.57226 a 128,128 0 0 1 4.5039,5.92188 128,128 0 0 0 -4.5039,-5.92188 z m 7.63867,10.30469 a 128,128 0 0 1 3.81054,6.21289 128,128 0 0 0 -3.81054,-6.21289 z m 6.57617,11.03125 a 128,128 0 0 1 3.08203,6.37695 128,128 0 0 0 -3.08203,-6.37695 z m 5.4375,11.63867 a 128,128 0 0 1 2.37695,6.50782 128,128 0 0 0 -2.37695,-6.50782 z m 4.23242,12.09375 a 128,128 0 0 1 1.68555,6.59375 128,128 0 0 0 -1.68555,-6.59375 z m 3.00781,12.48633 a 128,128 0 0 1 0.99024,6.53906 128,128 0 0 0 -0.99024,-6.53906 z m 1.74024,12.71094 A 128,128 0 0 1 256,924.36216 128,128 0 0 0 255.44922,913.41099 Z"
           style="fill:#db4437;fill-opacity:1"
           inkscape:connector-curvature="0" />
        <path
           inkscape:connector-curvature="0"
           id="path4490"
           d="m 255.61415,923.74423 a 128,128 0 0 0 0.16406,-0.006 L 127.62197,795.58211 a 128,128 0 0 0 -0.008,0.16211 128,128 0 0 0 35.85352,88.80861 l 0.98046,0.98046 a 128,128 0 0 0 91.16603,38.21094 z"
           style="fill:#ef7e74;fill-opacity:1" />
      </g>
    </clipPath>
  </defs>
  <metadata
     id="metadata7">
    <rdf:RDF>
      <cc:Work
         rdf:about="">
        <dc:format>image/svg+xml</dc:format>
        <dc:type
           rdf:resource="http://purl.org/dc/dcmitype/StillImage" />
        <dc:title />
      </cc:Work>
    </rdf:RDF>
  </metadata>
  <g
     inkscape:label="Layer 1"
     inkscape:groupmode="layer"
     id="layer1"
     transform="translate(0,-796.36214)">
    <g
       id="g4277"
       transform="translate(0,0.389985)">
      <path
         inkscape:connector-curvature="0"
         style="fill:#db4437;fill-opacity:1"
         d="M 127.83594,796.36802 A 128,128 0 0 0 0,924.36216 128,128 0 0 0 128,1052.3622 128,128 0 0 0 255.99219,924.52427 L 127.83594,796.36802 Z m 12.42383,0.60742 a 128,128 0 0 1 7.76757,1.1211 128,128 0 0 0 -7.76757,-1.1211 z m 12.58789,1.84961 a 128,128 0 0 1 8.42187,2.08984 128,128 0 0 0 -8.42187,-2.08984 z m 12.36328,3.09766 a 128,128 0 0 1 8.94531,3.19726 128,128 0 0 0 -8.94531,-3.19726 z m 11.98437,4.30468 a 128,128 0 0 1 9.34375,4.43946 128,128 0 0 0 -9.34375,-4.43946 z m 11.49805,5.47852 a 128,128 0 0 1 9.49414,5.73438 128,128 0 0 0 -9.49414,-5.73438 z m 10.90625,6.59961 a 128,128 0 0 1 9.66016,7.24414 128,128 0 0 0 -9.66016,-7.24414 z m 10.17773,7.63867 a 128,128 0 0 1 9.38868,8.62891 128,128 0 0 0 -9.38868,-8.62891 z m 9.38868,8.62891 0.98046,0.98047 a 128,128 0 0 0 -0.98046,-0.98047 z m 7.65039,8.57226 a 128,128 0 0 1 4.5039,5.92188 128,128 0 0 0 -4.5039,-5.92188 z m 7.63867,10.30469 a 128,128 0 0 1 3.81054,6.21289 128,128 0 0 0 -3.81054,-6.21289 z m 6.57617,11.03125 a 128,128 0 0 1 3.08203,6.37695 128,128 0 0 0 -3.08203,-6.37695 z m 5.4375,11.63867 a 128,128 0 0 1 2.37695,6.50782 128,128 0 0 0 -2.37695,-6.50782 z m 4.23242,12.09375 a 128,128 0 0 1 1.68555,6.59375 128,128 0 0 0 -1.68555,-6.59375 z m 3.00781,12.48633 a 128,128 0 0 1 0.99024,6.53906 128,128 0 0 0 -0.99024,-6.53906 z m 1.74024,12.71094 A 128,128 0 0 1 256,924.36216 128,128 0 0 0 255.44922,913.41099 Z"
         id="path4957" />
      <path
         style="fill:#ef7e74;fill-opacity:1"
         d="m 255.61415,923.74423 a 128,128 0 0 0 0.16406,-0.006 L 127.62197,795.58211 a 128,128 0 0 0 -0.008,0.16211 128,128 0 0 0 35.85352,88.80861 l 0.98046,0.98046 a 128,128 0 0 0 91.16603,38.21094 z"
         id="rect4961"
         inkscape:connector-curvature="0" />
    </g>
    <path
       inkscape:connector-curvature="0"
       id="path4217"
       d="m 114.67353,1012.0814 0.20268,-7.2806 -7.4683,-1.5165 c -16.099934,-3.2691 -28.244615,-9.3622 -38.12986,-19.12996 -5.171393,-5.10992 -7.035477,-7.53909 -9.239535,-12.04058 -2.585598,-5.28073 -2.777316,-6.11714 -3.01604,-13.15845 -0.21389,-6.3085 -0.0036,-8.26373 1.303536,-12.14253 11.375245,-33.74483 70.705459,-48.61921 111.823929,-28.03477 14.73957,7.37884 25.46874,19.32257 28.30819,31.51281 1.17426,5.04125 0.54352,13.56171 -1.38179,18.66609 -2.2876,6.06493 -7.96955,13.60818 -13.9439,18.51159 l -5.30267,4.35217 1.33996,2.21262 c 0.73698,1.21693 3.9744,6.69361 7.19426,12.17041 3.21987,5.4767 6.30366,10.6778 6.85287,11.558 l 0.99854,1.6004 -14.20207,0 -14.20206,0 -4.74869,-8.9514 c -4.18958,-7.8974 -4.92702,-8.9019 -6.26329,-8.5313 -0.83304,0.231 -4.47526,0.9751 -8.09383,1.6535 l -6.57922,1.2334 0,7.2979 0,7.2979 -12.82772,0 -12.8277,0 0.20271,-7.2807 z m 33.48785,-19.61063 c 2.52742,-0.46088 2.63534,-0.58153 1.68261,-1.88094 -0.74093,-1.01052 -2.20216,-1.50168 -5.36791,-1.80436 l -4.34984,-0.41588 0,2.33781 c 0,2.23458 0.11778,2.33601 2.66725,2.29681 1.46697,-0.0226 3.88255,-0.2626 5.36789,-0.53344 z m -33.48066,-28.26264 -0.19555,-25.28135 27.93499,0.20885 c 26.98587,0.20175 28.0478,0.26152 31.25635,1.75945 4.32209,2.01773 8.84872,6.14881 10.71769,9.78116 2.04749,3.97929 2.51645,12.36666 0.98584,17.63181 -1.94131,6.67788 -9.25566,13.28608 -16.30065,14.72692 l -2.0718,0.42375 3.30264,1.51935 3.30265,1.5194 4.30854,-2.87716 c 8.38972,-5.60244 12.51995,-14.31196 11.79596,-24.87458 -0.95783,-13.97435 -10.44168,-23.12742 -28.75003,-27.74727 -5.52569,-1.39435 -8.0542,-1.57673 -21.55239,-1.55462 -13.41524,0.022 -15.96818,0.21269 -20.79901,1.55379 -16.4423,4.56458 -26.731046,11.53999 -31.242854,21.18149 -1.976907,4.22455 -2.162025,5.1988 -1.861652,9.7979 0.521852,7.99032 4.555638,14.25543 12.861423,19.97585 3.467463,2.38812 14.207523,7.5076 15.792073,7.52761 0.46464,0.007 0.64347,-8.75765 0.51578,-25.27235 z m 42.79004,4.56169 c 2.45871,-1.12025 3.66836,-4.34067 2.8597,-7.61332 -0.86198,-3.48847 -3.48313,-4.35667 -12.91373,-4.27727 l -7.29049,0.0614 0,6.3164 0,6.31636 7.79048,0 c 4.28476,0 8.58407,-0.36158 9.55404,-0.80351 z"
       style="fill:#ffffff;fill-opacity:1" />
  </g>
</svg>
