<?xml version="1.0" encoding="UTF-8" standalone="no"?>
<!-- Created with Inkscape (http://www.inkscape.org/) -->

<svg
   xmlns:dc="http://purl.org/dc/elements/1.1/"
   xmlns:cc="http://creativecommons.org/ns#"
   xmlns:rdf="http://www.w3.org/1999/02/22-rdf-syntax-ns#"
   xmlns:svg="http://www.w3.org/2000/svg"
   xmlns="http://www.w3.org/2000/svg"
   xmlns:sodipodi="http://sodipodi.sourceforge.net/DTD/sodipodi-0.dtd"
   xmlns:inkscape="http://www.inkscape.org/namespaces/inkscape"
   width="256"
   height="256"
   viewBox="0 0 256 256"
   id="svg2"
   version="1.1"
   inkscape:version="0.92.4 (unknown)"
   sodipodi:docname="application-x-php.svg">
  <sodipodi:namedview
     id="base"
     pagecolor="#ffffff"
     bordercolor="#666666"
     borderopacity="1.0"
     inkscape:pageopacity="0.0"
     inkscape:pageshadow="2"
     inkscape:zoom="2.1328125"
     inkscape:cx="-123.31135"
     inkscape:cy="128"
     inkscape:document-units="px"
     inkscape:current-layer="g4189"
     showgrid="false"
     units="px"
     inkscape:window-width="1920"
     inkscape:window-height="1048"
     inkscape:window-x="0"
     inkscape:window-y="0"
     inkscape:window-maximized="1" />
  <defs
     id="defs4">
    <filter
       id="filter4301"
       inkscape:label="Drop Shadow"
       style="color-interpolation-filters:sRGB;">
      <feFlood
         id="feFlood4303"
         result="flood"
         flood-color="rgb(0,0,0)"
         flood-opacity="0.498039" />
      <feComposite
         id="feComposite4305"
         result="composite1"
         operator="in"
         in2="SourceGraphic"
         in="flood" />
      <feGaussianBlur
         id="feGaussianBlur4307"
         result="blur"
         stdDeviation="3.7"
         in="composite1" />
      <feOffset
         id="feOffset4309"
         result="offset"
         dy="3.7"
         dx="3.8" />
      <feComposite
         id="feComposite4311"
         result="composite2"
         operator="over"
         in2="offset"
         in="SourceGraphic" />
    </filter>
    <clipPath
       clipPathUnits="userSpaceOnUse"
       id="clipPath4480">
      <path
         style="fill:#f16529;fill-opacity:1"
         d="M 127.83594,796.36506 A 128,128 0 0 0 0,924.3592 a 128,128 0 0 0 128,128 128,128 0 0 0 127.99219,-127.83789 L 127.83594,796.36506 Z m 12.42383,0.60742 a 128,128 0 0 1 7.76757,1.1211 128,128 0 0 0 -7.76757,-1.1211 z m 12.58789,1.84961 a 128,128 0 0 1 8.42187,2.08984 128,128 0 0 0 -8.42187,-2.08984 z m 12.36328,3.09766 a 128,128 0 0 1 8.94531,3.19726 128,128 0 0 0 -8.94531,-3.19726 z m 11.98437,4.30468 a 128,128 0 0 1 9.34375,4.43946 128,128 0 0 0 -9.34375,-4.43946 z m 11.49805,5.47852 a 128,128 0 0 1 9.49414,5.73438 128,128 0 0 0 -9.49414,-5.73438 z m 10.90625,6.59961 a 128,128 0 0 1 9.66016,7.24414 128,128 0 0 0 -9.66016,-7.24414 z m 10.17773,7.63867 a 128,128 0 0 1 9.38868,8.62891 128,128 0 0 0 -9.38868,-8.62891 z m 9.38868,8.62891 0.98046,0.98047 a 128,128 0 0 0 -0.98046,-0.98047 z m 7.65039,8.57226 a 128,128 0 0 1 4.5039,5.92188 128,128 0 0 0 -4.5039,-5.92188 z m 7.63867,10.30469 a 128,128 0 0 1 3.81054,6.21289 128,128 0 0 0 -3.81054,-6.21289 z m 6.57617,11.03125 a 128,128 0 0 1 3.08203,6.37695 128,128 0 0 0 -3.08203,-6.37695 z m 5.4375,11.63867 a 128,128 0 0 1 2.37695,6.50782 128,128 0 0 0 -2.37695,-6.50782 z m 4.23242,12.09375 a 128,128 0 0 1 1.68555,6.59375 128,128 0 0 0 -1.68555,-6.59375 z m 3.00781,12.48633 a 128,128 0 0 1 0.99024,6.53906 128,128 0 0 0 -0.99024,-6.53906 z m 1.74024,12.71094 A 128,128 0 0 1 256,924.3592 128,128 0 0 0 255.44922,913.40803 Z"
         id="path4482"
         inkscape:connector-curvature="0" />
    </clipPath>
  </defs>
  <metadata
     id="metadata7">
    <rdf:RDF>
      <cc:Work
         rdf:about="">
        <dc:format>image/svg+xml</dc:format>
        <dc:type
           rdf:resource="http://purl.org/dc/dcmitype/StillImage" />
        <dc:title />
      </cc:Work>
    </rdf:RDF>
  </metadata>
  <g
     transform="translate(0,-796.36214)"
     id="layer1"
     inkscape:groupmode="layer"
     inkscape:label="Layer 1">
    <path
       inkscape:connector-curvature="0"
       id="path4957"
       d="M 127.83594,796.36506 A 128,128 0 0 0 0,924.3592 a 128,128 0 0 0 128,128 128,128 0 0 0 127.99219,-127.83789 L 127.83594,796.36506 Z m 12.42383,0.60742 a 128,128 0 0 1 7.76757,1.1211 128,128 0 0 0 -7.76757,-1.1211 z m 12.58789,1.84961 a 128,128 0 0 1 8.42187,2.08984 128,128 0 0 0 -8.42187,-2.08984 z m 12.36328,3.09766 a 128,128 0 0 1 8.94531,3.19726 128,128 0 0 0 -8.94531,-3.19726 z m 11.98437,4.30468 a 128,128 0 0 1 9.34375,4.43946 128,128 0 0 0 -9.34375,-4.43946 z m 11.49805,5.47852 a 128,128 0 0 1 9.49414,5.73438 128,128 0 0 0 -9.49414,-5.73438 z m 10.90625,6.59961 a 128,128 0 0 1 9.66016,7.24414 128,128 0 0 0 -9.66016,-7.24414 z m 10.17773,7.63867 a 128,128 0 0 1 9.38868,8.62891 128,128 0 0 0 -9.38868,-8.62891 z m 9.38868,8.62891 0.98046,0.98047 a 128,128 0 0 0 -0.98046,-0.98047 z m 7.65039,8.57226 a 128,128 0 0 1 4.5039,5.92188 128,128 0 0 0 -4.5039,-5.92188 z m 7.63867,10.30469 a 128,128 0 0 1 3.81054,6.21289 128,128 0 0 0 -3.81054,-6.21289 z m 6.57617,11.03125 a 128,128 0 0 1 3.08203,6.37695 128,128 0 0 0 -3.08203,-6.37695 z m 5.4375,11.63867 a 128,128 0 0 1 2.37695,6.50782 128,128 0 0 0 -2.37695,-6.50782 z m 4.23242,12.09375 a 128,128 0 0 1 1.68555,6.59375 128,128 0 0 0 -1.68555,-6.59375 z m 3.00781,12.48633 a 128,128 0 0 1 0.99024,6.53906 128,128 0 0 0 -0.99024,-6.53906 z m 1.74024,12.71094 A 128,128 0 0 1 256,924.3592 128,128 0 0 0 255.44922,913.40803 Z"
       style="fill:#f16529;fill-opacity:1" />
    <path
       inkscape:connector-curvature="0"
       id="rect4961"
       d="m 255.61415,924.52718 a 128,128 0 0 0 0.16406,-0.006 L 127.62197,796.36506 a 128,128 0 0 0 -0.008,0.16211 128,128 0 0 0 35.85352,88.80861 l 0.98046,0.98046 a 128,128 0 0 0 91.16603,38.21094 z"
       style="fill:#fe976b;fill-opacity:1" />
    <text
       id="text4164"
       y="965.15338"
       x="54.857143"
       style="font-style:normal;font-weight:normal;line-height:0%;font-family:sans-serif;letter-spacing:0px;word-spacing:0px;fill:#000000;fill-opacity:1;stroke:none;stroke-width:1px;stroke-linecap:butt;stroke-linejoin:miter;stroke-opacity:1"
       xml:space="preserve"><tspan
         y="965.15338"
         x="54.857143"
         id="tspan4166"
         sodipodi:role="line"
         style="font-size:40px;line-height:1.25"> </tspan></text>
    <g
       id="g4189"
       clip-path="url(#clipPath4480)"
       style="fill:#b04e24;fill-opacity:1">
      <path
         sodipodi:nodetypes="cccccccscscccsccccccccccscsccccccssscccccscscccsccccccccssccsscsccsssssccsscsccssss"
         inkscape:connector-curvature="0"
         style="fill:#b04e24;fill-opacity:1;stroke:none;stroke-width:10;stroke-linejoin:round;stroke-miterlimit:4;stroke-dasharray:none;stroke-opacity:1"
         d="m 128,933.17704 c -40.912611,-1.1e-4 -74.079197,17.50703 -74.080082,39.10352 0.02407,8.50214 5.296838,16.7685 15.019531,23.54684 l 9.392582,-48.2402 5.79297,0 -1.03907,5.34961 c 1.55299,-2.03568 3.37988,-3.57764 5.47852,-4.62695 2.11962,-1.04932 4.46946,-1.57422 7.05078,-1.57422 3.60965,0 6.410599,1.18713 8.404299,3.55859 1.9937,2.35047 2.99023,5.65579 2.99023,9.91602 0,3.48373 -0.61727,6.80957 -1.85546,9.97851 -1.2382,3.14796 -3.02208,5.97138 -5.351569,8.46875 -1.55299,1.65792 -3.30608,2.92717 -5.25781,3.8086 -1.95173,0.86044 -4.00833,1.29101 -6.16992,1.29101 -2.49738,0 -4.59698,-0.51464 -6.29688,-1.54297 -1.69989,-1.04931 -2.96914,-2.60349 -3.80859,-4.66015 l -3.61914,18.6992 -5.13477,0 c 14.022908,9.5403 35.608969,15.1257 58.484379,15.1329 101.33302,-2.4742 71.17527,-77.06731 0,-78.20906 z m -6.22461,0.6836 5.79101,0 -3.74609,19.26562 c 1.46905,-1.97272 3.34725,-3.52494 5.63477,-4.6582 2.28751,-1.15425 4.69062,-1.73242 7.20898,-1.73242 3.10598,0 5.50909,0.84062 7.20898,2.51953 1.72089,1.67891 2.58204,4.03901 2.58204,7.08203 0,0.75551 -0.0533,1.56339 -0.15821,2.42383 -0.0839,0.86044 -0.21932,1.79539 -0.4082,2.80273 l -4.125,21.2793 -5.82422,0 4.125,-21.05859 c 0.18888,-0.98636 0.33452,-1.85778 0.43945,-2.61329 0.10494,-0.7555 0.15821,-1.3542 0.15821,-1.79492 0,-1.76285 -0.55569,-3.13669 -1.66797,-4.12304 -1.11228,-0.98636 -2.66645,-1.48047 -4.66016,-1.48047 -3.10598,0 -5.80233,1.0498 -8.08984,3.14843 -2.26653,2.09864 -3.73469,4.88932 -4.40625,8.37305 l -3.80859,19.54883 -5.79297,0 z m 55.68555,12.875 c 3.60965,0 6.41254,1.18713 8.40625,3.55859 1.9937,2.35047 2.99023,5.65579 2.99023,9.91602 0,3.48373 -0.61923,6.80957 -1.85742,9.97851 -1.2382,3.14796 -3.02208,5.97138 -5.35156,8.46875 -1.55299,1.65792 -3.30609,2.92717 -5.25782,3.8086 -1.95173,0.86044 -4.00832,1.29101 -6.16992,1.29101 -2.49738,0 -4.59503,-0.51464 -6.29492,-1.54297 -1.6999,-1.04931 -2.96914,-2.60349 -3.80859,-4.66015 l -3.6211,18.6992 -5.79101,0 9.47461,-48.666 5.79296,0 -1.03906,5.34961 c 1.55299,-2.03568 3.37793,-3.57764 5.47656,-4.62695 2.11963,-1.04932 4.46946,-1.57422 7.05079,-1.57422 z m -84.238289,4.84765 c -1.72088,0 -3.36743,0.44084 -4.9414,1.32227 -1.55299,0.88143 -2.93905,2.16289 -4.15625,3.8418 -1.19623,1.65792 -2.1517,3.66124 -2.86524,6.01171 -0.71353,2.35048 -1.07031,4.67979 -1.07031,6.98829 0,2.93809 0.6725,5.20581 2.01562,6.80078 1.34313,1.57397 3.25213,2.35937 5.72852,2.35937 1.82581,0 3.51537,-0.42862 5.06836,-1.28906 1.57398,-0.86044 2.91702,-2.10916 4.0293,-3.74609 1.19622,-1.72089 2.16196,-3.74669 2.89648,-6.07618 0.734529,-2.32948 1.101569,-4.5542 1.101569,-6.67382 0,-3.085 -0.67055,-5.4451 -2.013679,-7.08203 -1.34313,-1.63694 -3.27461,-2.45704 -5.79297,-2.45704 z m 81.847659,0 c -1.72088,0 -3.36938,0.44084 -4.94336,1.32227 -1.55299,0.88143 -2.93709,2.16289 -4.1543,3.8418 -1.19622,1.65792 -2.15169,3.66124 -2.86523,6.01171 -0.71354,2.35048 -1.07031,4.67979 -1.07031,6.98829 0,2.93809 0.67054,5.20581 2.01367,6.80078 1.34313,1.57397 3.25408,2.35937 5.73047,2.35937 1.82581,0 3.51537,-0.42862 5.06836,-1.28906 1.57397,-0.86044 2.91702,-2.10916 4.02929,-3.74609 1.19623,-1.72089 2.16197,-3.74669 2.89649,-6.07618 0.73452,-2.32948 1.10156,-4.5542 1.10156,-6.67382 0,-3.085 -0.6725,-5.4451 -2.01562,-7.08203 -1.34313,-1.63694 -3.27266,-2.45704 -5.79102,-2.45704 z"
         id="path4171" />
    </g>
    <path
       id="path5670"
       d="m 128,933.17704 a 74.079697,39.104366 0 0 0 -74.080082,39.10352 74.079697,39.104366 0 0 0 15.019531,23.54684 l 9.392582,-48.2402 5.79297,0 -1.03907,5.34961 c 1.55299,-2.03568 3.37988,-3.57764 5.47852,-4.62695 2.11962,-1.04932 4.46946,-1.57422 7.05078,-1.57422 3.60965,0 6.410599,1.18713 8.404299,3.55859 1.9937,2.35047 2.99023,5.65579 2.99023,9.91602 0,3.48373 -0.61727,6.80957 -1.85546,9.97851 -1.2382,3.14796 -3.02208,5.97138 -5.351569,8.46875 -1.55299,1.65792 -3.30608,2.92717 -5.25781,3.8086 -1.95173,0.86044 -4.00833,1.29101 -6.16992,1.29101 -2.49738,0 -4.59698,-0.51464 -6.29688,-1.54297 -1.69989,-1.04931 -2.96914,-2.60349 -3.80859,-4.66015 l -3.61914,18.6992 -5.13477,0 A 74.079697,39.104366 0 0 0 128,1011.3861 74.079697,39.104366 0 0 0 202.08008,972.28056 74.079697,39.104366 0 0 0 128,933.17704 Z m -6.22461,0.6836 5.79101,0 -3.74609,19.26562 c 1.46905,-1.97272 3.34725,-3.52494 5.63477,-4.6582 2.28751,-1.15425 4.69062,-1.73242 7.20898,-1.73242 3.10598,0 5.50909,0.84062 7.20898,2.51953 1.72089,1.67891 2.58204,4.03901 2.58204,7.08203 0,0.75551 -0.0533,1.56339 -0.15821,2.42383 -0.0839,0.86044 -0.21932,1.79539 -0.4082,2.80273 l -4.125,21.2793 -5.82422,0 4.125,-21.05859 c 0.18888,-0.98636 0.33452,-1.85778 0.43945,-2.61329 0.10494,-0.7555 0.15821,-1.3542 0.15821,-1.79492 0,-1.76285 -0.55569,-3.13669 -1.66797,-4.12304 -1.11228,-0.98636 -2.66645,-1.48047 -4.66016,-1.48047 -3.10598,0 -5.80233,1.0498 -8.08984,3.14843 -2.26653,2.09864 -3.73469,4.88932 -4.40625,8.37305 l -3.80859,19.54883 -5.79297,0 9.53906,-48.98242 z m 55.68555,12.875 c 3.60965,0 6.41254,1.18713 8.40625,3.55859 1.9937,2.35047 2.99023,5.65579 2.99023,9.91602 0,3.48373 -0.61923,6.80957 -1.85742,9.97851 -1.2382,3.14796 -3.02208,5.97138 -5.35156,8.46875 -1.55299,1.65792 -3.30609,2.92717 -5.25782,3.8086 -1.95173,0.86044 -4.00832,1.29101 -6.16992,1.29101 -2.49738,0 -4.59503,-0.51464 -6.29492,-1.54297 -1.6999,-1.04931 -2.96914,-2.60349 -3.80859,-4.66015 l -3.6211,18.6992 -5.79101,0 9.47461,-48.666 5.79296,0 -1.03906,5.34961 c 1.55299,-2.03568 3.37793,-3.57764 5.47656,-4.62695 2.11963,-1.04932 4.46946,-1.57422 7.05079,-1.57422 z m -84.238289,4.84765 c -1.72088,0 -3.36743,0.44084 -4.9414,1.32227 -1.55299,0.88143 -2.93905,2.16289 -4.15625,3.8418 -1.19623,1.65792 -2.1517,3.66124 -2.86524,6.01171 -0.71353,2.35048 -1.07031,4.67979 -1.07031,6.98829 0,2.93809 0.6725,5.20581 2.01562,6.80078 1.34313,1.57397 3.25213,2.35937 5.72852,2.35937 1.82581,0 3.51537,-0.42862 5.06836,-1.28906 1.57398,-0.86044 2.91702,-2.10916 4.0293,-3.74609 1.19622,-1.72089 2.16196,-3.74669 2.89648,-6.07618 0.734529,-2.32948 1.101569,-4.5542 1.101569,-6.67382 0,-3.085 -0.67055,-5.4451 -2.013679,-7.08203 -1.34313,-1.63694 -3.27461,-2.45704 -5.79297,-2.45704 z m 81.847659,0 c -1.72088,0 -3.36938,0.44084 -4.94336,1.32227 -1.55299,0.88143 -2.93709,2.16289 -4.1543,3.8418 -1.19622,1.65792 -2.15169,3.66124 -2.86523,6.01171 -0.71354,2.35048 -1.07031,4.67979 -1.07031,6.98829 0,2.93809 0.67054,5.20581 2.01367,6.80078 1.34313,1.57397 3.25408,2.35937 5.73047,2.35937 1.82581,0 3.51537,-0.42862 5.06836,-1.28906 1.57397,-0.86044 2.91702,-2.10916 4.02929,-3.74609 1.19623,-1.72089 2.16197,-3.74669 2.89649,-6.07618 0.73452,-2.32948 1.10156,-4.5542 1.10156,-6.67382 0,-3.085 -0.6725,-5.4451 -2.01562,-7.08203 -1.34313,-1.63694 -3.27266,-2.45704 -5.79102,-2.45704 z"
       style="fill:#ffffff;fill-opacity:1;stroke:none;stroke-width:10;stroke-linejoin:round;stroke-miterlimit:4;stroke-dasharray:none;stroke-opacity:1"
       inkscape:connector-curvature="0" />
  </g>
</svg>
