<?xml version="1.0" encoding="UTF-8" standalone="no"?>
<!-- Created with Inkscape (http://www.inkscape.org/) -->

<svg
   xmlns:dc="http://purl.org/dc/elements/1.1/"
   xmlns:cc="http://creativecommons.org/ns#"
   xmlns:rdf="http://www.w3.org/1999/02/22-rdf-syntax-ns#"
   xmlns:svg="http://www.w3.org/2000/svg"
   xmlns="http://www.w3.org/2000/svg"
   xmlns:sodipodi="http://sodipodi.sourceforge.net/DTD/sodipodi-0.dtd"
   xmlns:inkscape="http://www.inkscape.org/namespaces/inkscape"
   sodipodi:docname="text-x-csharp.svg"
   inkscape:version="0.92.4 (unknown)"
   version="1.1"
   id="svg2"
   viewBox="0 0 256 256"
   height="256"
   width="256">
  <sodipodi:namedview
     inkscape:window-maximized="1"
     inkscape:window-y="0"
     inkscape:window-x="0"
     inkscape:window-height="1048"
     inkscape:window-width="1920"
     units="px"
     showgrid="false"
     inkscape:current-layer="layer1"
     inkscape:document-units="px"
     inkscape:cy="128"
     inkscape:cx="-2.4150942"
     inkscape:zoom="3.3125"
     inkscape:pageshadow="2"
     inkscape:pageopacity="0.0"
     borderopacity="1.0"
     bordercolor="#666666"
     pagecolor="#ffffff"
     id="base" />
  <defs
     id="defs4">
    <filter
       id="filter4301"
       inkscape:label="Drop Shadow"
       style="color-interpolation-filters:sRGB;">
      <feFlood
         id="feFlood4303"
         result="flood"
         flood-color="rgb(0,0,0)"
         flood-opacity="0.498039" />
      <feComposite
         id="feComposite4305"
         result="composite1"
         operator="in"
         in2="SourceGraphic"
         in="flood" />
      <feGaussianBlur
         id="feGaussianBlur4307"
         result="blur"
         stdDeviation="3.7"
         in="composite1" />
      <feOffset
         id="feOffset4309"
         result="offset"
         dy="3.7"
         dx="3.8" />
      <feComposite
         id="feComposite4311"
         result="composite2"
         operator="over"
         in2="offset"
         in="SourceGraphic" />
    </filter>
    <clipPath
       clipPathUnits="userSpaceOnUse"
       id="clipPath4266">
      <path
         style="fill:#7e57c2;fill-opacity:1"
         d="m 153.38672,796.84847 -105.781251,0 c -7.804357,0 -14.087891,6.28158 -14.087891,14.08594 l 0,227.33989 c 0,7.8043 6.283534,14.0878 14.087891,14.0878 l 165.162111,0 c 7.80436,0 14.08594,-6.2835 14.08594,-14.0878 l 0,-154.82232 -73.4668,-86.60351 z"
         id="path4268"
         inkscape:connector-curvature="0" />
    </clipPath>
    <clipPath
       id="clipPath6236"
       clipPathUnits="userSpaceOnUse">
      <path
         inkscape:connector-curvature="0"
         style="fill:#7e57c2;fill-opacity:1"
         d="m 153.38672,796.84847 -105.781251,0 c -7.804357,0 -14.087891,6.28158 -14.087891,14.08594 l 0,227.33989 c 0,7.8043 6.283534,14.0878 14.087891,14.0878 l 165.162111,0 c 7.80436,0 14.08594,-6.2835 14.08594,-14.0878 l 0,-154.82232 -73.4668,-86.60351 z"
         id="path6238" />
    </clipPath>
    <clipPath
       clipPathUnits="userSpaceOnUse"
       id="clipPath4403">
      <g
         id="g4405"
         transform="translate(-64.0761,60.42331)">
        <path
           style="fill:#7e57c2;fill-opacity:1"
           d="M 191.91204,736.33471 A 128,128 0 0 0 64.0761,864.32885 a 128,128 0 0 0 128,128.00001 128,128 0 0 0 127.99219,-127.8379 L 191.91204,736.33471 Z m 12.42383,0.60742 a 128,128 0 0 1 7.76757,1.1211 128,128 0 0 0 -7.76757,-1.1211 z m 12.58789,1.84961 a 128,128 0 0 1 8.42187,2.08984 128,128 0 0 0 -8.42187,-2.08984 z m 12.36328,3.09766 a 128,128 0 0 1 8.94531,3.19726 128,128 0 0 0 -8.94531,-3.19726 z m 11.98437,4.30468 a 128,128 0 0 1 9.34375,4.43946 128,128 0 0 0 -9.34375,-4.43946 z m 11.49805,5.47852 a 128,128 0 0 1 9.49414,5.73438 128,128 0 0 0 -9.49414,-5.73438 z m 10.90625,6.59961 a 128,128 0 0 1 9.66016,7.24414 128,128 0 0 0 -9.66016,-7.24414 z m 10.17773,7.63867 a 128,128 0 0 1 9.38868,8.62891 128,128 0 0 0 -9.38868,-8.62891 z m 9.38868,8.62891 0.98046,0.98047 a 128,128 0 0 0 -0.98046,-0.98047 z m 7.65039,8.57226 a 128,128 0 0 1 4.5039,5.92188 128,128 0 0 0 -4.5039,-5.92188 z m 7.63867,10.30469 a 128,128 0 0 1 3.81054,6.21289 128,128 0 0 0 -3.81054,-6.21289 z m 6.57617,11.03125 a 128,128 0 0 1 3.08203,6.37695 128,128 0 0 0 -3.08203,-6.37695 z m 5.4375,11.63867 a 128,128 0 0 1 2.37695,6.50782 128,128 0 0 0 -2.37695,-6.50782 z m 4.23242,12.09375 a 128,128 0 0 1 1.68555,6.59375 128,128 0 0 0 -1.68555,-6.59375 z m 3.00781,12.48633 a 128,128 0 0 1 0.99024,6.53906 128,128 0 0 0 -0.99024,-6.53906 z m 1.74024,12.71094 a 128,128 0 0 1 0.55078,10.95117 128,128 0 0 0 -0.55078,-10.95117 z"
           id="path4407"
           inkscape:connector-curvature="0" />
        <path
           style="fill:#b39ddb;fill-opacity:1"
           d="m 319.69025,863.71092 a 128,128 0 0 0 0.16406,-0.006 L 191.69807,735.5488 a 128,128 0 0 0 -0.008,0.16211 128,128 0 0 0 35.85352,88.80861 l 0.98046,0.98046 a 128,128 0 0 0 91.16603,38.21094 z"
           id="path4409"
           inkscape:connector-curvature="0" />
      </g>
    </clipPath>
    <clipPath
       id="clipPath1118"
       clipPathUnits="userSpaceOnUse">
      <g
         id="g1124"
         transform="translate(-64.0761,60.42331)">
        <path
           style="fill:#7e57c2;fill-opacity:1"
           d="M 191.91204,736.33471 A 128,128 0 0 0 64.0761,864.32885 a 128,128 0 0 0 128,128.00001 128,128 0 0 0 127.99219,-127.8379 z m 12.42383,0.60742 a 128,128 0 0 1 7.76757,1.1211 128,128 0 0 0 -7.76757,-1.1211 z m 12.58789,1.84961 a 128,128 0 0 1 8.42187,2.08984 128,128 0 0 0 -8.42187,-2.08984 z m 12.36328,3.09766 a 128,128 0 0 1 8.94531,3.19726 128,128 0 0 0 -8.94531,-3.19726 z m 11.98437,4.30468 a 128,128 0 0 1 9.34375,4.43946 128,128 0 0 0 -9.34375,-4.43946 z m 11.49805,5.47852 a 128,128 0 0 1 9.49414,5.73438 128,128 0 0 0 -9.49414,-5.73438 z m 10.90625,6.59961 a 128,128 0 0 1 9.66016,7.24414 128,128 0 0 0 -9.66016,-7.24414 z m 10.17773,7.63867 a 128,128 0 0 1 9.38868,8.62891 128,128 0 0 0 -9.38868,-8.62891 z m 9.38868,8.62891 0.98046,0.98047 a 128,128 0 0 0 -0.98046,-0.98047 z m 7.65039,8.57226 a 128,128 0 0 1 4.5039,5.92188 128,128 0 0 0 -4.5039,-5.92188 z m 7.63867,10.30469 a 128,128 0 0 1 3.81054,6.21289 128,128 0 0 0 -3.81054,-6.21289 z m 6.57617,11.03125 a 128,128 0 0 1 3.08203,6.37695 128,128 0 0 0 -3.08203,-6.37695 z m 5.4375,11.63867 a 128,128 0 0 1 2.37695,6.50782 128,128 0 0 0 -2.37695,-6.50782 z m 4.23242,12.09375 a 128,128 0 0 1 1.68555,6.59375 128,128 0 0 0 -1.68555,-6.59375 z m 3.00781,12.48633 a 128,128 0 0 1 0.99024,6.53906 128,128 0 0 0 -0.99024,-6.53906 z m 1.74024,12.71094 a 128,128 0 0 1 0.55078,10.95117 128,128 0 0 0 -0.55078,-10.95117 z"
           id="path1120"
           inkscape:connector-curvature="0" />
        <path
           style="fill:#b39ddb;fill-opacity:1"
           d="m 319.69025,863.71092 a 128,128 0 0 0 0.16406,-0.006 L 191.69807,735.5488 a 128,128 0 0 0 -0.008,0.16211 128,128 0 0 0 35.85352,88.80861 l 0.98046,0.98046 a 128,128 0 0 0 91.16603,38.21094 z"
           id="path1122"
           inkscape:connector-curvature="0" />
      </g>
    </clipPath>
    <clipPath
       clipPathUnits="userSpaceOnUse"
       id="clipPath1150">
      <g
         id="g1156"
         transform="translate(-64.0761,60.42331)">
        <path
           style="fill:#7e57c2;fill-opacity:1"
           d="M 191.91204,736.33471 A 128,128 0 0 0 64.0761,864.32885 a 128,128 0 0 0 128,128.00001 128,128 0 0 0 127.99219,-127.8379 z m 12.42383,0.60742 a 128,128 0 0 1 7.76757,1.1211 128,128 0 0 0 -7.76757,-1.1211 z m 12.58789,1.84961 a 128,128 0 0 1 8.42187,2.08984 128,128 0 0 0 -8.42187,-2.08984 z m 12.36328,3.09766 a 128,128 0 0 1 8.94531,3.19726 128,128 0 0 0 -8.94531,-3.19726 z m 11.98437,4.30468 a 128,128 0 0 1 9.34375,4.43946 128,128 0 0 0 -9.34375,-4.43946 z m 11.49805,5.47852 a 128,128 0 0 1 9.49414,5.73438 128,128 0 0 0 -9.49414,-5.73438 z m 10.90625,6.59961 a 128,128 0 0 1 9.66016,7.24414 128,128 0 0 0 -9.66016,-7.24414 z m 10.17773,7.63867 a 128,128 0 0 1 9.38868,8.62891 128,128 0 0 0 -9.38868,-8.62891 z m 9.38868,8.62891 0.98046,0.98047 a 128,128 0 0 0 -0.98046,-0.98047 z m 7.65039,8.57226 a 128,128 0 0 1 4.5039,5.92188 128,128 0 0 0 -4.5039,-5.92188 z m 7.63867,10.30469 a 128,128 0 0 1 3.81054,6.21289 128,128 0 0 0 -3.81054,-6.21289 z m 6.57617,11.03125 a 128,128 0 0 1 3.08203,6.37695 128,128 0 0 0 -3.08203,-6.37695 z m 5.4375,11.63867 a 128,128 0 0 1 2.37695,6.50782 128,128 0 0 0 -2.37695,-6.50782 z m 4.23242,12.09375 a 128,128 0 0 1 1.68555,6.59375 128,128 0 0 0 -1.68555,-6.59375 z m 3.00781,12.48633 a 128,128 0 0 1 0.99024,6.53906 128,128 0 0 0 -0.99024,-6.53906 z m 1.74024,12.71094 a 128,128 0 0 1 0.55078,10.95117 128,128 0 0 0 -0.55078,-10.95117 z"
           id="path1152"
           inkscape:connector-curvature="0" />
        <path
           style="fill:#b39ddb;fill-opacity:1"
           d="m 319.69025,863.71092 a 128,128 0 0 0 0.16406,-0.006 L 191.69807,735.5488 a 128,128 0 0 0 -0.008,0.16211 128,128 0 0 0 35.85352,88.80861 l 0.98046,0.98046 a 128,128 0 0 0 91.16603,38.21094 z"
           id="path1154"
           inkscape:connector-curvature="0" />
      </g>
    </clipPath>
    <clipPath
       id="clipPath1170"
       clipPathUnits="userSpaceOnUse">
      <g
         id="g1176"
         transform="translate(-64.0761,60.42331)">
        <path
           style="fill:#7e57c2;fill-opacity:1"
           d="M 191.91204,736.33471 A 128,128 0 0 0 64.0761,864.32885 a 128,128 0 0 0 128,128.00001 128,128 0 0 0 127.99219,-127.8379 z m 12.42383,0.60742 a 128,128 0 0 1 7.76757,1.1211 128,128 0 0 0 -7.76757,-1.1211 z m 12.58789,1.84961 a 128,128 0 0 1 8.42187,2.08984 128,128 0 0 0 -8.42187,-2.08984 z m 12.36328,3.09766 a 128,128 0 0 1 8.94531,3.19726 128,128 0 0 0 -8.94531,-3.19726 z m 11.98437,4.30468 a 128,128 0 0 1 9.34375,4.43946 128,128 0 0 0 -9.34375,-4.43946 z m 11.49805,5.47852 a 128,128 0 0 1 9.49414,5.73438 128,128 0 0 0 -9.49414,-5.73438 z m 10.90625,6.59961 a 128,128 0 0 1 9.66016,7.24414 128,128 0 0 0 -9.66016,-7.24414 z m 10.17773,7.63867 a 128,128 0 0 1 9.38868,8.62891 128,128 0 0 0 -9.38868,-8.62891 z m 9.38868,8.62891 0.98046,0.98047 a 128,128 0 0 0 -0.98046,-0.98047 z m 7.65039,8.57226 a 128,128 0 0 1 4.5039,5.92188 128,128 0 0 0 -4.5039,-5.92188 z m 7.63867,10.30469 a 128,128 0 0 1 3.81054,6.21289 128,128 0 0 0 -3.81054,-6.21289 z m 6.57617,11.03125 a 128,128 0 0 1 3.08203,6.37695 128,128 0 0 0 -3.08203,-6.37695 z m 5.4375,11.63867 a 128,128 0 0 1 2.37695,6.50782 128,128 0 0 0 -2.37695,-6.50782 z m 4.23242,12.09375 a 128,128 0 0 1 1.68555,6.59375 128,128 0 0 0 -1.68555,-6.59375 z m 3.00781,12.48633 a 128,128 0 0 1 0.99024,6.53906 128,128 0 0 0 -0.99024,-6.53906 z m 1.74024,12.71094 a 128,128 0 0 1 0.55078,10.95117 128,128 0 0 0 -0.55078,-10.95117 z"
           id="path1172"
           inkscape:connector-curvature="0" />
        <path
           style="fill:#b39ddb;fill-opacity:1"
           d="m 319.69025,863.71092 a 128,128 0 0 0 0.16406,-0.006 L 191.69807,735.5488 a 128,128 0 0 0 -0.008,0.16211 128,128 0 0 0 35.85352,88.80861 l 0.98046,0.98046 a 128,128 0 0 0 91.16603,38.21094 z"
           id="path1174"
           inkscape:connector-curvature="0" />
      </g>
    </clipPath>
    <clipPath
       clipPathUnits="userSpaceOnUse"
       id="clipPath1828">
      <g
         id="g1834"
         transform="translate(-64.0761,60.42331)">
        <path
           style="fill:#7e57c2;fill-opacity:1"
           d="M 191.91204,736.33471 A 128,128 0 0 0 64.0761,864.32885 a 128,128 0 0 0 128,128.00001 128,128 0 0 0 127.99219,-127.8379 z m 12.42383,0.60742 a 128,128 0 0 1 7.76757,1.1211 128,128 0 0 0 -7.76757,-1.1211 z m 12.58789,1.84961 a 128,128 0 0 1 8.42187,2.08984 128,128 0 0 0 -8.42187,-2.08984 z m 12.36328,3.09766 a 128,128 0 0 1 8.94531,3.19726 128,128 0 0 0 -8.94531,-3.19726 z m 11.98437,4.30468 a 128,128 0 0 1 9.34375,4.43946 128,128 0 0 0 -9.34375,-4.43946 z m 11.49805,5.47852 a 128,128 0 0 1 9.49414,5.73438 128,128 0 0 0 -9.49414,-5.73438 z m 10.90625,6.59961 a 128,128 0 0 1 9.66016,7.24414 128,128 0 0 0 -9.66016,-7.24414 z m 10.17773,7.63867 a 128,128 0 0 1 9.38868,8.62891 128,128 0 0 0 -9.38868,-8.62891 z m 9.38868,8.62891 0.98046,0.98047 a 128,128 0 0 0 -0.98046,-0.98047 z m 7.65039,8.57226 a 128,128 0 0 1 4.5039,5.92188 128,128 0 0 0 -4.5039,-5.92188 z m 7.63867,10.30469 a 128,128 0 0 1 3.81054,6.21289 128,128 0 0 0 -3.81054,-6.21289 z m 6.57617,11.03125 a 128,128 0 0 1 3.08203,6.37695 128,128 0 0 0 -3.08203,-6.37695 z m 5.4375,11.63867 a 128,128 0 0 1 2.37695,6.50782 128,128 0 0 0 -2.37695,-6.50782 z m 4.23242,12.09375 a 128,128 0 0 1 1.68555,6.59375 128,128 0 0 0 -1.68555,-6.59375 z m 3.00781,12.48633 a 128,128 0 0 1 0.99024,6.53906 128,128 0 0 0 -0.99024,-6.53906 z m 1.74024,12.71094 a 128,128 0 0 1 0.55078,10.95117 128,128 0 0 0 -0.55078,-10.95117 z"
           id="path1830"
           inkscape:connector-curvature="0" />
        <path
           style="fill:#b39ddb;fill-opacity:1"
           d="m 319.69025,863.71092 a 128,128 0 0 0 0.16406,-0.006 L 191.69807,735.5488 a 128,128 0 0 0 -0.008,0.16211 128,128 0 0 0 35.85352,88.80861 l 0.98046,0.98046 a 128,128 0 0 0 91.16603,38.21094 z"
           id="path1832"
           inkscape:connector-curvature="0" />
      </g>
    </clipPath>
  </defs>
  <metadata
     id="metadata7">
    <rdf:RDF>
      <cc:Work
         rdf:about="">
        <dc:format>image/svg+xml</dc:format>
        <dc:type
           rdf:resource="http://purl.org/dc/dcmitype/StillImage" />
        <dc:title />
      </cc:Work>
    </rdf:RDF>
  </metadata>
  <g
     transform="translate(0,-796.36214)"
     id="layer1"
     inkscape:groupmode="layer"
     inkscape:label="Layer 1">
    <g
       transform="translate(-64.0761,60.42331)"
       id="g4217">
      <path
         inkscape:connector-curvature="0"
         id="path4957"
         d="M 191.91204,736.33471 A 128,128 0 0 0 64.0761,864.32885 a 128,128 0 0 0 128,128.00001 128,128 0 0 0 127.99219,-127.8379 L 191.91204,736.33471 Z m 12.42383,0.60742 a 128,128 0 0 1 7.76757,1.1211 128,128 0 0 0 -7.76757,-1.1211 z m 12.58789,1.84961 a 128,128 0 0 1 8.42187,2.08984 128,128 0 0 0 -8.42187,-2.08984 z m 12.36328,3.09766 a 128,128 0 0 1 8.94531,3.19726 128,128 0 0 0 -8.94531,-3.19726 z m 11.98437,4.30468 a 128,128 0 0 1 9.34375,4.43946 128,128 0 0 0 -9.34375,-4.43946 z m 11.49805,5.47852 a 128,128 0 0 1 9.49414,5.73438 128,128 0 0 0 -9.49414,-5.73438 z m 10.90625,6.59961 a 128,128 0 0 1 9.66016,7.24414 128,128 0 0 0 -9.66016,-7.24414 z m 10.17773,7.63867 a 128,128 0 0 1 9.38868,8.62891 128,128 0 0 0 -9.38868,-8.62891 z m 9.38868,8.62891 0.98046,0.98047 a 128,128 0 0 0 -0.98046,-0.98047 z m 7.65039,8.57226 a 128,128 0 0 1 4.5039,5.92188 128,128 0 0 0 -4.5039,-5.92188 z m 7.63867,10.30469 a 128,128 0 0 1 3.81054,6.21289 128,128 0 0 0 -3.81054,-6.21289 z m 6.57617,11.03125 a 128,128 0 0 1 3.08203,6.37695 128,128 0 0 0 -3.08203,-6.37695 z m 5.4375,11.63867 a 128,128 0 0 1 2.37695,6.50782 128,128 0 0 0 -2.37695,-6.50782 z m 4.23242,12.09375 a 128,128 0 0 1 1.68555,6.59375 128,128 0 0 0 -1.68555,-6.59375 z m 3.00781,12.48633 a 128,128 0 0 1 0.99024,6.53906 128,128 0 0 0 -0.99024,-6.53906 z m 1.74024,12.71094 a 128,128 0 0 1 0.55078,10.95117 128,128 0 0 0 -0.55078,-10.95117 z"
         style="fill:#7e57c2;fill-opacity:1" />
      <path
         inkscape:connector-curvature="0"
         id="rect4961"
         d="m 319.69025,863.71092 a 128,128 0 0 0 0.16406,-0.006 L 191.69807,735.5488 a 128,128 0 0 0 -0.008,0.16211 128,128 0 0 0 35.85352,88.80861 l 0.98046,0.98046 a 128,128 0 0 0 91.16603,38.21094 z"
         style="fill:#b39ddb;fill-opacity:1" />
    </g>
    <g
       id="text6008"
       style="font-style:normal;font-variant:normal;font-weight:bold;font-stretch:normal;font-size:14.39999866px;line-height:0%;font-family:FreeSerif;-inkscape-font-specification:'FreeSerif Bold';letter-spacing:0px;word-spacing:0px;fill:#fefcfc;fill-opacity:1;stroke:none;stroke-width:1.24999988px;stroke-linecap:butt;stroke-linejoin:miter;stroke-opacity:1"
       aria-label="C#">
      <path
         id="path914"
         transform="translate(0,796.36214)"
         d="M 90.472656 114.44141 C 85.420066 114.44141 80.85592 115.41916 76.78125 117.375 C 72.747327 119.29009 69.303441 122.00164 66.451172 125.50586 C 63.598903 129.01007 61.399937 133.2061 59.851562 138.0957 C 58.303188 142.98531 57.529297 148.3847 57.529297 154.29297 L 57.529297 166.27148 C 57.529297 172.139 58.261634 177.5186 59.728516 182.4082 C 61.195396 187.2978 63.315162 191.49383 66.085938 194.99805 C 68.856713 198.46151 72.278846 201.17111 76.353516 203.12695 C 80.428185 205.04203 85.093285 206 90.349609 206 C 94.994733 206 99.232313 205.32702 103.0625 203.98242 C 106.89269 202.59702 110.19407 200.64153 112.96484 198.11523 C 115.73562 195.58894 117.93653 192.53298 119.56641 188.94727 C 121.23702 185.36156 122.21477 181.32784 122.5 176.8457 L 105.32422 176.8457 C 105.03899 182.18352 103.59217 186.05493 100.98438 188.45898 C 98.376588 190.82229 94.831746 192.00391 90.349609 192.00391 C 85.011792 192.00391 81.100783 189.90589 78.615234 185.70898 C 76.170433 181.51207 74.947266 175.03202 74.947266 166.27148 L 74.947266 154.16992 C 74.947266 150.09525 75.254034 146.46926 75.865234 143.29102 C 76.476435 140.07203 77.412634 137.36244 78.675781 135.16211 C 79.979676 132.96179 81.610565 131.2913 83.566406 130.15039 C 85.522248 129.00948 87.824121 128.43945 90.472656 128.43945 C 92.998952 128.43945 95.158317 128.78582 96.951172 129.47852 C 98.784773 130.13046 100.29296 131.12802 101.47461 132.47266 C 102.69701 133.77655 103.6134 135.42724 104.22461 137.42383 C 104.87656 139.42042 105.28428 141.74209 105.44727 144.39062 L 122.56055 144.39062 C 122.15308 139.7455 121.17533 135.56927 119.62695 131.86133 C 118.07857 128.15338 115.95881 125.01627 113.26953 122.44922 C 110.58025 119.88218 107.32043 117.90492 103.49023 116.51953 C 99.700794 115.13414 95.36226 114.44141 90.472656 114.44141 z M 155.62695 115.72656 L 151.04297 141.15234 L 134.8457 141.15234 L 134.8457 151.60352 L 149.20898 151.60352 L 146.03125 169.32812 L 130.26172 169.32812 L 130.26172 179.6582 L 144.19727 179.6582 L 139.73438 204.7168 L 150.67578 204.7168 L 155.13672 179.6582 L 167.42188 179.6582 L 162.96094 204.7168 L 173.90039 204.7168 L 178.36328 179.6582 L 193.82617 179.6582 L 193.82617 169.32812 L 180.19727 169.32812 L 183.375 151.60352 L 198.4707 151.60352 L 198.4707 141.15234 L 185.20898 141.15234 L 189.79297 115.72656 L 178.79102 115.72656 L 174.26758 141.15234 L 161.98242 141.15234 L 166.50586 115.72656 L 155.62695 115.72656 z M 160.08789 151.60352 L 172.37305 151.60352 L 169.25586 169.32812 L 156.9707 169.32812 L 160.08789 151.60352 z "
         style="font-style:normal;font-variant:normal;font-weight:bold;font-stretch:normal;font-size:125.17385101px;line-height:1.25;font-family:'Roboto Mono';-inkscape-font-specification:'Roboto Mono Bold';fill:#fefcfc;fill-opacity:1;stroke-width:1.24999988px" />
      <path
         style="font-style:normal;font-variant:normal;font-weight:bold;font-stretch:normal;font-size:125.17385101px;line-height:1.25;font-family:'Roboto Mono';-inkscape-font-specification:'Roboto Mono Bold';fill:#fefcfc;fill-opacity:1;stroke-width:1.24999988px"
         d="M 90.472656 114.44141 C 85.420066 114.44141 80.85592 115.41916 76.78125 117.375 C 72.747327 119.29009 69.303441 122.00164 66.451172 125.50586 C 63.598903 129.01007 61.399937 133.2061 59.851562 138.0957 C 58.303188 142.98531 57.529297 148.3847 57.529297 154.29297 L 57.529297 166.27148 C 57.529297 172.139 58.261634 177.5186 59.728516 182.4082 C 61.195396 187.2978 63.315162 191.49383 66.085938 194.99805 C 68.856713 198.46151 72.278846 201.17111 76.353516 203.12695 C 80.428185 205.04203 85.093285 206 90.349609 206 C 94.994733 206 99.232313 205.32702 103.0625 203.98242 C 106.89269 202.59702 110.19407 200.64153 112.96484 198.11523 C 115.73562 195.58894 117.93653 192.53298 119.56641 188.94727 C 121.23702 185.36156 122.21477 181.32784 122.5 176.8457 L 105.32422 176.8457 C 105.03899 182.18352 103.59217 186.05493 100.98438 188.45898 C 98.376588 190.82229 94.831746 192.00391 90.349609 192.00391 C 85.011792 192.00391 81.100783 189.90589 78.615234 185.70898 C 76.170433 181.51207 74.947266 175.03202 74.947266 166.27148 L 74.947266 154.16992 C 74.947266 150.09525 75.254034 146.46926 75.865234 143.29102 C 76.476435 140.07203 77.412634 137.36244 78.675781 135.16211 C 79.979676 132.96179 81.610565 131.2913 83.566406 130.15039 C 85.522248 129.00948 87.824121 128.43945 90.472656 128.43945 C 92.998952 128.43945 95.158317 128.78582 96.951172 129.47852 C 98.784773 130.13046 100.29296 131.12802 101.47461 132.47266 C 102.69701 133.77655 103.6134 135.42724 104.22461 137.42383 C 104.87656 139.42042 105.28428 141.74209 105.44727 144.39062 L 122.56055 144.39062 C 122.15308 139.7455 121.17533 135.56927 119.62695 131.86133 C 118.07857 128.15338 115.95881 125.01627 113.26953 122.44922 C 110.58025 119.88218 107.32043 117.90492 103.49023 116.51953 C 99.700794 115.13414 95.36226 114.44141 90.472656 114.44141 z M 155.62695 115.72656 L 151.04297 141.15234 L 134.8457 141.15234 L 134.8457 151.60352 L 149.20898 151.60352 L 146.03125 169.32812 L 130.26172 169.32812 L 130.26172 179.6582 L 144.19727 179.6582 L 139.73438 204.7168 L 150.67578 204.7168 L 155.13672 179.6582 L 167.42188 179.6582 L 162.96094 204.7168 L 173.90039 204.7168 L 178.36328 179.6582 L 193.82617 179.6582 L 193.82617 169.32812 L 180.19727 169.32812 L 183.375 151.60352 L 198.4707 151.60352 L 198.4707 141.15234 L 185.20898 141.15234 L 189.79297 115.72656 L 178.79102 115.72656 L 174.26758 141.15234 L 161.98242 141.15234 L 166.50586 115.72656 L 155.62695 115.72656 z M 160.08789 151.60352 L 172.37305 151.60352 L 169.25586 169.32812 L 156.9707 169.32812 L 160.08789 151.60352 z "
         transform="translate(0,796.36214)"
         id="path920" />
      <path
         id="path1218"
         transform="translate(0,796.36214)"
         d="M 90.472656 114.44141 C 85.420066 114.44141 80.85592 115.41916 76.78125 117.375 C 72.747327 119.29009 69.303441 122.00164 66.451172 125.50586 C 63.598903 129.01007 61.399937 133.2061 59.851562 138.0957 C 58.303188 142.98531 57.529297 148.3847 57.529297 154.29297 L 57.529297 166.27148 C 57.529297 172.139 58.261634 177.5186 59.728516 182.4082 C 61.195396 187.2978 63.315162 191.49383 66.085938 194.99805 C 68.856713 198.46151 72.278846 201.17111 76.353516 203.12695 C 80.428185 205.04203 85.093285 206 90.349609 206 C 94.994733 206 99.232313 205.32702 103.0625 203.98242 C 106.89269 202.59702 110.19407 200.64153 112.96484 198.11523 C 115.73562 195.58894 117.93653 192.53298 119.56641 188.94727 C 121.23702 185.36156 122.21477 181.32784 122.5 176.8457 L 105.32422 176.8457 C 105.03899 182.18352 103.59217 186.05493 100.98438 188.45898 C 98.376588 190.82229 94.831746 192.00391 90.349609 192.00391 C 85.011792 192.00391 81.100783 189.90589 78.615234 185.70898 C 76.170433 181.51207 74.947266 175.03202 74.947266 166.27148 L 74.947266 154.16992 C 74.947266 150.09525 75.254034 146.46926 75.865234 143.29102 C 76.476435 140.07203 77.412634 137.36244 78.675781 135.16211 C 79.979676 132.96179 81.610565 131.2913 83.566406 130.15039 C 85.522248 129.00948 87.824121 128.43945 90.472656 128.43945 C 92.998952 128.43945 95.158317 128.78582 96.951172 129.47852 C 98.784773 130.13046 100.29296 131.12802 101.47461 132.47266 C 102.69701 133.77655 103.6134 135.42724 104.22461 137.42383 C 104.87656 139.42042 105.28428 141.74209 105.44727 144.39062 L 122.56055 144.39062 C 122.15308 139.7455 121.17533 135.56927 119.62695 131.86133 C 118.07857 128.15338 115.95881 125.01627 113.26953 122.44922 C 110.58025 119.88218 107.32043 117.90492 103.49023 116.51953 C 99.700794 115.13414 95.36226 114.44141 90.472656 114.44141 z M 155.62695 115.72656 L 151.04297 141.15234 L 134.8457 141.15234 L 134.8457 151.60352 L 149.20898 151.60352 L 146.03125 169.32812 L 130.26172 169.32812 L 130.26172 179.6582 L 144.19727 179.6582 L 139.73438 204.7168 L 150.67578 204.7168 L 155.13672 179.6582 L 167.42188 179.6582 L 162.96094 204.7168 L 173.90039 204.7168 L 178.36328 179.6582 L 193.82617 179.6582 L 193.82617 169.32812 L 180.19727 169.32812 L 183.375 151.60352 L 198.4707 151.60352 L 198.4707 141.15234 L 185.20898 141.15234 L 189.79297 115.72656 L 178.79102 115.72656 L 174.26758 141.15234 L 161.98242 141.15234 L 166.50586 115.72656 L 155.62695 115.72656 z M 160.08789 151.60352 L 172.37305 151.60352 L 169.25586 169.32812 L 156.9707 169.32812 L 160.08789 151.60352 z "
         style="font-style:normal;font-variant:normal;font-weight:bold;font-stretch:normal;font-size:125.17385101px;line-height:1.25;font-family:'Roboto Mono';-inkscape-font-specification:'Roboto Mono Bold';fill:#fefcfc;fill-opacity:1;stroke-width:1.24999988px" />
    </g>
  </g>
</svg>
