<?xml version="1.0" encoding="UTF-8" standalone="no"?>
<!-- Created with Inkscape (http://www.inkscape.org/) -->

<svg
   xmlns:dc="http://purl.org/dc/elements/1.1/"
   xmlns:cc="http://creativecommons.org/ns#"
   xmlns:rdf="http://www.w3.org/1999/02/22-rdf-syntax-ns#"
   xmlns:svg="http://www.w3.org/2000/svg"
   xmlns="http://www.w3.org/2000/svg"
   xmlns:sodipodi="http://sodipodi.sourceforge.net/DTD/sodipodi-0.dtd"
   xmlns:inkscape="http://www.inkscape.org/namespaces/inkscape"
   width="256"
   height="256"
   viewBox="0 0 256 256"
   id="svg2"
   version="1.1"
   inkscape:version="0.92.4 (unknown)"
   sodipodi:docname="text-x-tex.svg">
  <sodipodi:namedview
     id="base"
     pagecolor="#ffffff"
     bordercolor="#666666"
     borderopacity="1.0"
     inkscape:pageopacity="0.0"
     inkscape:pageshadow="2"
     inkscape:zoom="2.1328125"
     inkscape:cx="-135.50183"
     inkscape:cy="128"
     inkscape:document-units="px"
     inkscape:current-layer="layer1"
     showgrid="false"
     units="px"
     inkscape:window-width="1920"
     inkscape:window-height="1048"
     inkscape:window-x="0"
     inkscape:window-y="0"
     inkscape:window-maximized="1" />
  <defs
     id="defs4">
    <filter
       id="filter4301"
       inkscape:label="Drop Shadow"
       style="color-interpolation-filters:sRGB;">
      <feFlood
         id="feFlood4303"
         result="flood"
         flood-color="rgb(0,0,0)"
         flood-opacity="0.498039" />
      <feComposite
         id="feComposite4305"
         result="composite1"
         operator="in"
         in2="SourceGraphic"
         in="flood" />
      <feGaussianBlur
         id="feGaussianBlur4307"
         result="blur"
         stdDeviation="3.7"
         in="composite1" />
      <feOffset
         id="feOffset4309"
         result="offset"
         dy="3.7"
         dx="3.8" />
      <feComposite
         id="feComposite4311"
         result="composite2"
         operator="over"
         in2="offset"
         in="SourceGraphic" />
    </filter>
    <clipPath
       clipPathUnits="userSpaceOnUse"
       id="clipPath4651">
      <path
         style="fill:#d2a577;fill-opacity:1"
         d="M 126.67481,782.85322 A 128,128 0 0 0 -1.1611335,910.84736 128,128 0 0 0 126.83887,1038.8474 128,128 0 0 0 254.83106,911.00947 L 126.67481,782.85322 Z m 12.42383,0.60742 a 128,128 0 0 1 7.76757,1.1211 128,128 0 0 0 -7.76757,-1.1211 z m 12.58789,1.84961 a 128,128 0 0 1 8.42187,2.08984 128,128 0 0 0 -8.42187,-2.08984 z m 12.36328,3.09766 a 128,128 0 0 1 8.94531,3.19726 128,128 0 0 0 -8.94531,-3.19726 z m 11.98437,4.30468 a 128,128 0 0 1 9.34375,4.43946 128,128 0 0 0 -9.34375,-4.43946 z m 11.49805,5.47852 a 128,128 0 0 1 9.49414,5.73438 128,128 0 0 0 -9.49414,-5.73438 z m 10.90625,6.59961 a 128,128 0 0 1 9.66016,7.24414 128,128 0 0 0 -9.66016,-7.24414 z m 10.17773,7.63867 a 128,128 0 0 1 9.38868,8.62891 128,128 0 0 0 -9.38868,-8.62891 z m 9.38868,8.62891 0.98046,0.98047 a 128,128 0 0 0 -0.98046,-0.98047 z m 7.65039,8.57226 a 128,128 0 0 1 4.5039,5.92188 128,128 0 0 0 -4.5039,-5.92188 z m 7.63867,10.30469 a 128,128 0 0 1 3.81054,6.21289 128,128 0 0 0 -3.81054,-6.21289 z m 6.57617,11.03125 a 128,128 0 0 1 3.08203,6.37695 128,128 0 0 0 -3.08203,-6.37695 z m 5.4375,11.63867 a 128,128 0 0 1 2.37695,6.50782 128,128 0 0 0 -2.37695,-6.50782 z m 4.23242,12.09375 a 128,128 0 0 1 1.68555,6.59375 128,128 0 0 0 -1.68555,-6.59375 z m 3.00781,12.48633 a 128,128 0 0 1 0.99024,6.53906 128,128 0 0 0 -0.99024,-6.53906 z m 1.74024,12.71094 a 128,128 0 0 1 0.55078,10.95117 128,128 0 0 0 -0.55078,-10.95117 z"
         id="path4653"
         inkscape:connector-curvature="0" />
    </clipPath>
  </defs>
  <metadata
     id="metadata7">
    <rdf:RDF>
      <cc:Work
         rdf:about="">
        <dc:format>image/svg+xml</dc:format>
        <dc:type
           rdf:resource="http://purl.org/dc/dcmitype/StillImage" />
        <dc:title />
      </cc:Work>
    </rdf:RDF>
  </metadata>
  <g
     transform="translate(0,-796.36214)"
     id="layer1"
     inkscape:groupmode="layer"
     inkscape:label="Layer 1">
    <path
       inkscape:connector-curvature="0"
       id="path4957"
       d="M 127.83594,796.36506 A 128,128 0 0 0 0,924.3592 a 128,128 0 0 0 128,128 128,128 0 0 0 127.99219,-127.83789 L 127.83594,796.36506 Z m 12.42383,0.60742 a 128,128 0 0 1 7.76757,1.1211 128,128 0 0 0 -7.76757,-1.1211 z m 12.58789,1.84961 a 128,128 0 0 1 8.42187,2.08984 128,128 0 0 0 -8.42187,-2.08984 z m 12.36328,3.09766 a 128,128 0 0 1 8.94531,3.19726 128,128 0 0 0 -8.94531,-3.19726 z m 11.98437,4.30468 a 128,128 0 0 1 9.34375,4.43946 128,128 0 0 0 -9.34375,-4.43946 z m 11.49805,5.47852 a 128,128 0 0 1 9.49414,5.73438 128,128 0 0 0 -9.49414,-5.73438 z m 10.90625,6.59961 a 128,128 0 0 1 9.66016,7.24414 128,128 0 0 0 -9.66016,-7.24414 z m 10.17773,7.63867 a 128,128 0 0 1 9.38868,8.62891 128,128 0 0 0 -9.38868,-8.62891 z m 9.38868,8.62891 0.98046,0.98047 a 128,128 0 0 0 -0.98046,-0.98047 z m 7.65039,8.57226 a 128,128 0 0 1 4.5039,5.92188 128,128 0 0 0 -4.5039,-5.92188 z m 7.63867,10.30469 a 128,128 0 0 1 3.81054,6.21289 128,128 0 0 0 -3.81054,-6.21289 z m 6.57617,11.03125 a 128,128 0 0 1 3.08203,6.37695 128,128 0 0 0 -3.08203,-6.37695 z m 5.4375,11.63867 a 128,128 0 0 1 2.37695,6.50782 128,128 0 0 0 -2.37695,-6.50782 z m 4.23242,12.09375 a 128,128 0 0 1 1.68555,6.59375 128,128 0 0 0 -1.68555,-6.59375 z m 3.00781,12.48633 a 128,128 0 0 1 0.99024,6.53906 128,128 0 0 0 -0.99024,-6.53906 z m 1.74024,12.71094 A 128,128 0 0 1 256,924.3592 128,128 0 0 0 255.44922,913.40803 Z"
       style="fill:#d2a577;fill-opacity:1" />
    <path
       inkscape:connector-curvature="0"
       id="rect4961"
       d="m 255.61415,924.52718 a 128,128 0 0 0 0.16406,-0.006 L 127.62197,796.36506 a 128,128 0 0 0 -0.008,0.16211 128,128 0 0 0 35.85352,88.80861 l 0.98046,0.98046 a 128,128 0 0 0 91.16603,38.21094 z"
       style="fill:#e3c6aa;fill-opacity:1" />
    <text
       id="text4164"
       y="965.15338"
       x="54.857143"
       style="font-style:normal;font-weight:normal;line-height:0%;font-family:sans-serif;letter-spacing:0px;word-spacing:0px;fill:#000000;fill-opacity:1;stroke:none;stroke-width:1px;stroke-linecap:butt;stroke-linejoin:miter;stroke-opacity:1"
       xml:space="preserve"><tspan
         y="965.15338"
         x="54.857143"
         id="tspan4166"
         sodipodi:role="line"
         style="font-size:40px;line-height:1.25"> </tspan></text>
    <g
       style="fill:#ffffff;fill-opacity:1"
       id="g4152"
       transform="translate(1.1611335,13.511836)">
      <g
         style="font-style:normal;font-variant:normal;font-weight:500;font-stretch:normal;font-size:90px;line-height:125%;font-family:'CMU Serif';-inkscape-font-specification:'CMU Serif Medium';letter-spacing:0px;word-spacing:0px;fill:#ffffff;fill-opacity:1;stroke:none;stroke-width:1px;stroke-linecap:butt;stroke-linejoin:miter;stroke-opacity:1"
         id="g4154">
        <g
           style="fill:#ffffff;fill-opacity:1"
           id="g4156">
          <path
             id="path4158"
             transform="translate(0,796.36214)"
             d="m 141.07227,108.41211 0,2.79101 1.70898,0 c 2.46,1e-5 4.26039,0.20891 5.40039,0.62891 1.14,0.42 2.1307,1.26149 2.9707,2.52149 l 16.56055,25.01953 -14.76172,21.77929 c -0.72,1.02 -1.37851,1.85954 -1.97851,2.51954 -0.6,0.59999 -1.92094,1.32015 -3.96094,2.16015 -1.98,0.84 -4.34938,1.26172 -7.10938,1.26172 l 0,2.78906 c 6.48,-0.18 9.81024,-0.26953 9.99024,-0.26953 0.16895,0 0.26389,0.004 0.42969,0.004 -0.23202,1.30256 -0.45663,2.48451 -0.66797,3.43554 -0.36,1.62 -0.8693,3.30102 -1.5293,5.04102 -0.6,1.74 -1.35,3.08883 -2.25,4.04883 -0.9,0.96 -2.01008,1.86117 -3.33008,2.70117 -1.32,0.84 -2.94133,1.43883 -4.86133,1.79883 -1.86,0.3 -4.08015,0.45117 -6.66015,0.45117 l -11.96875,0 c -2.04,0 -3.30125,-0.21086 -3.78125,-0.63086 -0.42,-0.42 -0.62891,-1.4107 -0.62891,-2.9707 l 0,-24.0293 8.09961,0 c 4.14,0 6.77992,0.75 7.91992,2.25 1.2,1.44 1.80078,4.1993 1.80078,8.2793 l 2.25,0 0,-23.84961 -2.25,0 c 0,4.14 -0.60078,6.93109 -1.80078,8.37109 -1.14,1.44 -3.77992,2.15821 -7.91992,2.15821 l -8.09961,0 0,-21.59961 c 0,-1.56 0.20891,-2.54875 0.62891,-2.96875 0.48,-0.42 1.74125,-0.63086 3.78125,-0.63086 l 11.60937,0 c 3.42,0 6.18125,0.30039 8.28125,0.90039 2.16,0.6 3.86891,1.68023 5.12891,3.24023 1.32,1.5 2.25101,3.23875 2.79101,5.21875 0.54,1.98 1.01946,4.68156 1.43946,8.10156 l 2.25,0 -2.51953,-20.25 -39.07227,0 -1.66797,-19.73047 -54.990232,0 -1.708985,20.25 2.25,0 c 0.24,-2.7 0.448906,-4.83062 0.628906,-6.39062 0.24,-1.56 0.600078,-3.06 1.080079,-4.5 0.54,-1.5 1.110937,-2.61008 1.710937,-3.33008 0.66,-0.72 1.589062,-1.34867 2.789063,-1.88867 1.2,-0.6 2.580625,-0.96008 4.140624,-1.08008 1.560001,-0.18 3.50961,-0.27148 5.84961,-0.27148 2.64,0 4.261328,0.0597 4.861328,0.17969 0.6,0.11999 1.019766,0.33085 1.259766,0.63085 0.3,0.3 0.479062,0.63024 0.539062,0.99024 0.06,0.36 0.08984,0.96078 0.08984,1.80078 l 0,47.42969 c 0,1.2 -0.119375,2.03953 -0.359375,2.51953 -0.24,0.48 -1.049688,0.89976 -2.429688,1.25976 -1.38,0.36 -3.600156,0.54102 -6.660156,0.54102 l -3.599609,0 0,2.78906 c 2.46,-0.18 8.129765,-0.26953 17.009765,-0.26953 8.94,0 14.63961,0.0895 17.09961,0.26953 l 0,-2.78906 -3.59961,0 c -3.06,0 -5.280156,-0.18102 -6.660156,-0.54102 -1.38,-0.36 -2.189687,-0.77976 -2.429687,-1.25976 -0.24,-0.48 -0.361328,-1.31953 -0.361328,-2.51953 l 0,-47.42969 c 0,-1.08 0.09148,-1.8618 0.271484,-2.3418 0.18,-0.54 0.629609,-0.90008 1.349609,-1.08007 0.66,-0.12 2.368906,-0.17969 5.128907,-0.17969 2.339999,0 4.291562,0.0915 5.851562,0.27148 1.56,0.12 2.938673,0.48008 4.138674,1.08008 1.2,0.54 2.10117,1.16867 2.70117,1.88867 0.66,0.72 1.22899,1.83008 1.70899,3.33008 0.54,1.44 0.90008,2.94 1.08008,4.5 0.22279,1.44813 0.44518,3.4406 0.66796,5.87109 l -9.33789,0 0,2.78907 2.158204,0 c 3.240006,0 5.221406,0.27054 5.941406,0.81054 0.78,0.54 1.16993,1.67992 1.16993,3.41992 l 0,47.16016 c 0,1.74 -0.38993,2.87992 -1.16993,3.41992 -0.72,0.54 -2.7014,0.81055 -5.941406,0.81055 l -2.158204,0 0,2.78906 51.92969,0 3.29492,-20.24414 c 3.93795,0.0279 7.07726,0.0987 8.82227,0.24414 l 0,-2.78906 c -1.86,-0.06 -3.27047,-0.51156 -4.23047,-1.35156 -0.96,-0.9 -1.43945,-1.82906 -1.43945,-2.78907 0,-0.47999 0.30039,-1.20015 0.90039,-2.16015 l 12.7793,-18.90039 14.2207,21.50976 c 0.3,0.6 0.44922,0.93024 0.44922,0.99024 0,0.6 -0.53914,1.20078 -1.61914,1.80078 -1.02,0.54 -2.43047,0.84039 -4.23047,0.90039 l 0,2.78906 c 2.1,-0.18 6.48062,-0.26953 13.14062,-0.26953 4.02,0 7.91922,0.0895 11.69922,0.26953 l 0,-2.78906 -1.71094,0 c -2.46,0 -4.25843,-0.21086 -5.39843,-0.63086 -1.14,-0.42 -2.16055,-1.28937 -3.06055,-2.60937 l -18.99023,-28.71094 12.33007,-18.08985 c 2.64,-3.84 6.99078,-5.7896 13.05078,-5.84961 l 0,-2.79101 c -0.84,0 -2.00976,0.0298 -3.50976,0.0898 -1.44,0.06 -2.73109,0.12164 -3.87109,0.18164 l -2.60938,0 c -5.28,0 -9.11953,-0.0915 -11.51953,-0.27148 l 0,2.79101 c 1.74,0.06 3.08883,0.50961 4.04883,1.34961 1.02,0.78 1.52929,1.71102 1.52929,2.79102 0,0.54 -0.26859,1.22836 -0.80859,2.06836 L 172.30273,132.6231 160.69141,115.252 c -0.42,-0.66 -0.62891,-1.10961 -0.62891,-1.34961 0,-0.6 0.5093,-1.16898 1.5293,-1.70898 1.08,-0.6 2.52031,-0.93023 4.32031,-0.99024 l 0,-2.79101 c -2.1,0.18 -6.48063,0.27148 -13.14063,0.27148 -4.5,0 -8.39921,-0.0915 -11.69921,-0.27148 z"
             style="fill:#ffffff;fill-opacity:1"
             inkscape:connector-curvature="0" />
        </g>
      </g>
    </g>
  </g>
</svg>
