<?xml version="1.0" encoding="UTF-8" standalone="no"?>
<!-- Created with Inkscape (http://www.inkscape.org/) -->

<svg
   xmlns:dc="http://purl.org/dc/elements/1.1/"
   xmlns:cc="http://creativecommons.org/ns#"
   xmlns:rdf="http://www.w3.org/1999/02/22-rdf-syntax-ns#"
   xmlns:svg="http://www.w3.org/2000/svg"
   xmlns="http://www.w3.org/2000/svg"
   xmlns:xlink="http://www.w3.org/1999/xlink"
   xmlns:sodipodi="http://sodipodi.sourceforge.net/DTD/sodipodi-0.dtd"
   xmlns:inkscape="http://www.inkscape.org/namespaces/inkscape"
   width="256"
   height="256"
   viewBox="0 0 256 256"
   id="svg2"
   version="1.1"
   inkscape:version="0.92.4 (unknown)"
   sodipodi:docname="text-x-mathematica.svg">
  <sodipodi:namedview
     id="base"
     pagecolor="#ffffff"
     bordercolor="#666666"
     borderopacity="1.0"
     inkscape:pageopacity="0.0"
     inkscape:pageshadow="2"
     inkscape:zoom="3.2851562"
     inkscape:cx="63.771699"
     inkscape:cy="128"
     inkscape:document-units="px"
     inkscape:current-layer="layer1"
     showgrid="false"
     units="px"
     inkscape:window-width="1920"
     inkscape:window-height="1048"
     inkscape:window-x="0"
     inkscape:window-y="0"
     inkscape:window-maximized="1" />
  <defs
     id="defs4">
    <radialGradient
       cx="0"
       cy="0"
       r="1"
       fx="0"
       fy="0"
       id="radialGradient4895"
       gradientUnits="userSpaceOnUse"
       gradientTransform="matrix(45.124908,0,0,-45.124908,74.972946,125.50104)"
       spreadMethod="pad">
      <stop
         id="stop4899"
         style="stop-color:#ebeaea;stop-opacity:1"
         offset="0" />
      <stop
         id="stop4901"
         style="stop-color:#ebeaea;stop-opacity:1"
         offset="1" />
    </radialGradient>
    <filter
       id="filter4301"
       inkscape:label="Drop Shadow"
       style="color-interpolation-filters:sRGB;">
      <feFlood
         id="feFlood4303"
         result="flood"
         flood-color="rgb(0,0,0)"
         flood-opacity="0.498039" />
      <feComposite
         id="feComposite4305"
         result="composite1"
         operator="in"
         in2="SourceGraphic"
         in="flood" />
      <feGaussianBlur
         id="feGaussianBlur4307"
         result="blur"
         stdDeviation="3.7"
         in="composite1" />
      <feOffset
         id="feOffset4309"
         result="offset"
         dy="3.7"
         dx="3.8" />
      <feComposite
         id="feComposite4311"
         result="composite2"
         operator="over"
         in2="offset"
         in="SourceGraphic" />
    </filter>
    <radialGradient
       spreadMethod="pad"
       gradientTransform="matrix(228.32686,0,0,222.71229,48.684695,874.0012)"
       gradientUnits="userSpaceOnUse"
       xlink:href="#radialGradient4895"
       id="radialGradient8118"
       fy="0"
       fx="0"
       r="0.80999798"
       cy="0"
       cx="0" />
    <radialGradient
       spreadMethod="pad"
       gradientTransform="matrix(45.124908,0,0,-45.124908,74.972946,125.50104)"
       gradientUnits="userSpaceOnUse"
       id="radialGradient4453"
       fy="0"
       fx="0"
       r="1"
       cy="0"
       cx="0">
      <stop
         offset="0"
         style="stop-color:#ffffff;stop-opacity:1"
         id="stop4455" />
      <stop
         offset="0.80999798"
         style="stop-color:#ebeaea;stop-opacity:1"
         id="stop4457" />
      <stop
         offset="0.80999798"
         style="stop-color:#ebeaea;stop-opacity:1"
         id="stop4459" />
      <stop
         offset="1"
         style="stop-color:#d4d3d4;stop-opacity:1"
         id="stop4461" />
    </radialGradient>
    <clipPath
       clipPathUnits="userSpaceOnUse"
       id="clipPath5238">
      <path
         style="fill:#df1818;fill-opacity:1"
         d="m 151.20117,796.60532 -105.78125,0 c -7.804357,0 -14.087891,6.28158 -14.087891,14.08594 l 0,227.33994 c 0,7.8043 6.283534,14.0878 14.087891,14.0878 l 165.16211,0 c 7.80436,0 14.08594,-6.2835 14.08594,-14.0878 l 0,-154.82237 -73.4668,-86.60351 z"
         id="path5240"
         inkscape:connector-curvature="0" />
    </clipPath>
    <clipPath
       id="clipPath4587"
       clipPathUnits="userSpaceOnUse">
      <path
         style="fill:#df7618;fill-opacity:1"
         d="m 151.20117,796.60532 -105.78125,0 c -7.804357,0 -14.087891,6.28158 -14.087891,14.08594 l 0,227.33994 c 0,7.8043 6.283534,14.0878 14.087891,14.0878 l 165.16211,0 c 7.80436,0 14.08594,-6.2835 14.08594,-14.0878 l 0,-154.82237 -73.4668,-86.60351 z"
         id="path4589"
         inkscape:connector-curvature="0" />
    </clipPath>
    <clipPath
       clipPathUnits="userSpaceOnUse"
       id="clipPath4824">
      <path
         style="fill:#df7618;fill-opacity:1"
         d="m 151.20117,796.60532 -105.78125,0 c -7.804357,0 -14.087891,6.28158 -14.087891,14.08594 l 0,227.33994 c 0,7.8043 6.283534,14.0878 14.087891,14.0878 l 165.16211,0 c 7.80436,0 14.08594,-6.2835 14.08594,-14.0878 l 0,-154.82237 -73.4668,-86.60351 z"
         id="path4826"
         inkscape:connector-curvature="0" />
    </clipPath>
    <clipPath
       id="clipPath5041"
       clipPathUnits="userSpaceOnUse">
      <path
         style="fill:#df7618;fill-opacity:1"
         d="m 151.20117,0.24318 -105.78125,0 c -7.804357,0 -14.087891,6.28158 -14.087891,14.08594 l 0,227.33994 c 0,7.8043 6.283534,14.0878 14.087891,14.0878 l 165.16211,0 c 7.80436,0 14.08594,-6.2835 14.08594,-14.0878 l 0,-154.82237 -73.4668,-86.60351 z"
         id="path5043"
         inkscape:connector-curvature="0" />
    </clipPath>
    <clipPath
       clipPathUnits="userSpaceOnUse"
       id="clipPath5730">
      <g
         id="g5732"
         transform="translate(100.29964,5.022605)">
        <path
           inkscape:connector-curvature="0"
           id="path5734"
           d="m 27.5363,791.34247 a 128,128 0 0 0 -127.83594,127.99414 128,128 0 0 0 128,127.99999 128,128 0 0 0 127.99219,-127.83788 L 27.5363,791.34247 Z m 12.42383,0.60742 a 128,128 0 0 1 7.76757,1.1211 128,128 0 0 0 -7.76757,-1.1211 z m 12.58789,1.84961 a 128,128 0 0 1 8.42187,2.08984 128,128 0 0 0 -8.42187,-2.08984 z m 12.36328,3.09766 a 128,128 0 0 1 8.94531,3.19726 128,128 0 0 0 -8.94531,-3.19726 z m 11.98437,4.30468 a 128,128 0 0 1 9.34375,4.43946 128,128 0 0 0 -9.34375,-4.43946 z m 11.49805,5.47852 a 128,128 0 0 1 9.49414,5.73438 128,128 0 0 0 -9.49414,-5.73438 z m 10.90625,6.59961 a 128,128 0 0 1 9.66016,7.24414 128,128 0 0 0 -9.66016,-7.24414 z m 10.17773,7.63867 a 128,128 0 0 1 9.38868,8.62891 128,128 0 0 0 -9.38868,-8.62891 z m 9.38868,8.62891 0.98046,0.98047 a 128,128 0 0 0 -0.98046,-0.98047 z m 7.65039,8.57226 a 128,128 0 0 1 4.5039,5.92188 128,128 0 0 0 -4.5039,-5.92188 z m 7.63867,10.30469 a 128,128 0 0 1 3.81054,6.21289 128,128 0 0 0 -3.81054,-6.21289 z m 6.57617,11.03125 a 128,128 0 0 1 3.08203,6.37695 128,128 0 0 0 -3.08203,-6.37695 z m 5.4375,11.63867 a 128,128 0 0 1 2.37695,6.50782 128,128 0 0 0 -2.37695,-6.50782 z m 4.23242,12.09375 a 128,128 0 0 1 1.68555,6.59375 128,128 0 0 0 -1.68555,-6.59375 z m 3.00781,12.48633 a 128,128 0 0 1 0.99024,6.53906 128,128 0 0 0 -0.99024,-6.53906 z m 1.74024,12.71094 a 128,128 0 0 1 0.55078,10.95117 128,128 0 0 0 -0.55078,-10.95117 z"
           style="fill:#df7618;fill-opacity:1" />
        <path
           inkscape:connector-curvature="0"
           id="path5736"
           d="m 155.31451,919.5046 a 128,128 0 0 0 0.16406,-0.006 L 27.32233,791.34247 a 128,128 0 0 0 -0.008,0.16211 128,128 0 0 0 35.85352,88.80861 l 0.98046,0.98046 a 128,128 0 0 0 91.16603,38.21095 z"
           style="fill:#fdac64;fill-opacity:1" />
      </g>
    </clipPath>
  </defs>
  <metadata
     id="metadata7">
    <rdf:RDF>
      <cc:Work
         rdf:about="">
        <dc:format>image/svg+xml</dc:format>
        <dc:type
           rdf:resource="http://purl.org/dc/dcmitype/StillImage" />
        <dc:title />
      </cc:Work>
    </rdf:RDF>
  </metadata>
  <g
     transform="translate(0,-796.36214)"
     id="layer1"
     inkscape:groupmode="layer"
     inkscape:label="Layer 1">
    <g
       transform="translate(100.29964,5.022605)"
       id="g4424">
      <path
         style="fill:#df7618;fill-opacity:1"
         d="m 27.5363,791.34247 a 128,128 0 0 0 -127.83594,127.99414 128,128 0 0 0 128,127.99999 128,128 0 0 0 127.99219,-127.83788 L 27.5363,791.34247 Z m 12.42383,0.60742 a 128,128 0 0 1 7.76757,1.1211 128,128 0 0 0 -7.76757,-1.1211 z m 12.58789,1.84961 a 128,128 0 0 1 8.42187,2.08984 128,128 0 0 0 -8.42187,-2.08984 z m 12.36328,3.09766 a 128,128 0 0 1 8.94531,3.19726 128,128 0 0 0 -8.94531,-3.19726 z m 11.98437,4.30468 a 128,128 0 0 1 9.34375,4.43946 128,128 0 0 0 -9.34375,-4.43946 z m 11.49805,5.47852 a 128,128 0 0 1 9.49414,5.73438 128,128 0 0 0 -9.49414,-5.73438 z m 10.90625,6.59961 a 128,128 0 0 1 9.66016,7.24414 128,128 0 0 0 -9.66016,-7.24414 z m 10.17773,7.63867 a 128,128 0 0 1 9.38868,8.62891 128,128 0 0 0 -9.38868,-8.62891 z m 9.38868,8.62891 0.98046,0.98047 a 128,128 0 0 0 -0.98046,-0.98047 z m 7.65039,8.57226 a 128,128 0 0 1 4.5039,5.92188 128,128 0 0 0 -4.5039,-5.92188 z m 7.63867,10.30469 a 128,128 0 0 1 3.81054,6.21289 128,128 0 0 0 -3.81054,-6.21289 z m 6.57617,11.03125 a 128,128 0 0 1 3.08203,6.37695 128,128 0 0 0 -3.08203,-6.37695 z m 5.4375,11.63867 a 128,128 0 0 1 2.37695,6.50782 128,128 0 0 0 -2.37695,-6.50782 z m 4.23242,12.09375 a 128,128 0 0 1 1.68555,6.59375 128,128 0 0 0 -1.68555,-6.59375 z m 3.00781,12.48633 a 128,128 0 0 1 0.99024,6.53906 128,128 0 0 0 -0.99024,-6.53906 z m 1.74024,12.71094 a 128,128 0 0 1 0.55078,10.95117 128,128 0 0 0 -0.55078,-10.95117 z"
         id="path4957"
         inkscape:connector-curvature="0" />
      <path
         style="fill:#fdac64;fill-opacity:1"
         d="m 155.31451,919.5046 a 128,128 0 0 0 0.16406,-0.006 L 27.32233,791.34247 a 128,128 0 0 0 -0.008,0.16211 128,128 0 0 0 35.85352,88.80861 l 0.98046,0.98046 a 128,128 0 0 0 91.16603,38.21095 z"
         id="rect4961"
         inkscape:connector-curvature="0" />
    </g>
    <text
       id="text4143"
       y="951.72528"
       x="74.722427"
       style="font-style:normal;font-variant:normal;font-weight:bold;font-stretch:normal;line-height:0%;font-family:FreeSerif;-inkscape-font-specification:'FreeSerif Bold';letter-spacing:0px;word-spacing:0px;fill:#ffffff;fill-opacity:1;stroke:none;stroke-width:1px;stroke-linecap:butt;stroke-linejoin:miter;stroke-opacity:1"
       xml:space="preserve"><tspan
         y="951.72528"
         x="74.722427"
         id="tspan4145"
         sodipodi:role="line"
         style="font-size:80px;line-height:1.25"> </tspan></text>
    <path
       style="fill:#ffffff;fill-opacity:1"
       d="m 124.0677,1016.0679 c -1.98484,-3.347 -5.10275,-8.6683 -6.92867,-11.8252 -1.82593,-3.1568 -3.49859,-5.74515 -3.71704,-5.752 -0.21844,-0.0118 -5.09514,2.0328 -10.83712,4.5324 -5.74198,2.4997 -11.46308,4.9712 -12.713554,5.4925 l -2.273595,0.9476 0.193829,-1.7411 c 0.816554,-7.3349 2.202242,-23.57296 2.120281,-24.84626 l -0.101069,-1.57016 -8.502973,-1.89965 c -4.676635,-1.04485 -10.641221,-2.3803 -13.254635,-2.96755 -2.613414,-0.58724 -4.751666,-1.17981 -4.751666,-1.31678 0,-0.31377 8.968177,-10.75892 14.120002,-16.44536 2.137464,-2.35938 3.886299,-4.40463 3.886299,-4.54491 0,-0.1404 -2.588405,-3.1694 -5.752011,-6.73105 -11.277376,-12.69651 -12.674379,-14.30272 -12.54848,-14.42787 0.07008,-0.0697 5.304281,-1.2675 11.631492,-2.66157 15.279183,-3.36665 14.546396,-3.19068 15.134006,-3.63445 0.463714,-0.35017 0.399684,-1.6003 -0.626306,-12.22745 -0.628557,-6.51063 -1.231251,-12.69934 -1.339319,-13.75281 -0.194084,-1.89186 -0.187115,-1.91171 0.570103,-1.62288 0.702552,0.26792 11.618176,4.96128 20.934046,9.00097 2.72414,1.18122 3.9469,1.56177 4.23923,1.31914 0.22594,-0.18755 2.02843,-3.06563 4.00552,-6.39576 7.66185,-12.90534 9.97936,-16.68455 10.29599,-16.79009 0.1807,-0.0603 2.78571,4.05612 5.78891,9.14751 5.44766,9.23555 8.64131,14.42562 8.87671,14.42562 0.0684,0 2.14503,-0.89404 4.6148,-1.98675 7.89661,-3.49357 20.20261,-8.68365 20.58966,-8.68365 0.25399,0 0.3122,0.56314 0.18095,1.75051 -0.10637,0.96295 -0.67677,7.12861 -1.26743,13.70153 -0.84592,9.41377 -0.9857,12.00538 -0.65837,12.20771 0.22854,0.14123 6.40216,1.57442 13.71912,3.18476 L 193,932.88281 l -0.91022,1.04343 c -0.50063,0.57377 -4.43647,5.06314 -8.74631,9.9762 -4.30984,4.91305 -8.04785,9.28176 -8.30669,9.70816 -0.45317,0.74644 -0.2368,1.03894 5.83537,7.88757 8.76269,9.88331 11.47095,13.07611 11.47284,13.52544 0.001,0.42037 -0.79282,0.61643 -16.1201,3.97658 -7.49525,1.64308 -10.3402,2.39531 -10.48486,2.77231 -0.1092,0.28458 0.36071,6.44812 1.04421,13.69668 0.6835,7.24862 1.23773,13.28152 1.23163,13.40612 -0.0246,0.5023 -2.60913,-0.5364 -16.64188,-6.6879 -4.65369,-2.0399 -8.6363,-3.70899 -8.85025,-3.70899 -0.21394,0 -2.84279,4.16389 -5.84189,9.25319 -8.40196,14.2575 -8.50166,14.4217 -8.7613,14.4217 -0.13423,0 -1.86801,-2.7385 -3.85285,-6.0854 z m -2.62943,-28.65706 -3.61772,-5.3319 -0.2139,1.94752 c -0.11759,1.0712 -0.23018,3.81054 -0.25008,6.08743 l -0.0362,4.13991 3.58458,6.1826 3.58458,6.1827 0.28323,-6.93807 0.28322,-6.93819 z m 13.55538,12.79136 3.38239,-5.77869 -0.23781,-6.13009 -0.23783,-6.13021 -3.62101,5.30542 -3.62101,5.3053 0,5.81155 c 0,5.86952 0.20606,8.16232 0.689,7.66642 0.14513,-0.149 1.78594,-2.8713 3.64627,-6.0497 z m -32.1474,-3.01776 8.3053,-3.62803 0.089,-8.54289 c 0.0514,-4.93327 -0.0384,-8.54278 -0.21242,-8.54278 -0.54119,0 -12.84797,4.39188 -14.11625,5.03762 -1.46369,0.74526 -1.36268,0.31543 -2.26403,9.63418 -0.36366,3.7596 -0.74716,7.47331 -0.85223,8.25284 -0.14627,1.08502 -0.0813,1.41712 0.27714,1.41712 0.25751,0 4.20557,-1.63268 8.7735,-3.62806 z m 59.15519,3.54476 c -6.6e-4,-0.046 -0.37453,-3.98475 -0.83081,-8.75312 -0.45626,-4.76828 -0.83084,-8.93762 -0.83239,-9.2651 -0.002,-0.39142 -0.54539,-0.8281 -1.5867,-1.27459 -3.17534,-1.36193 -14.1057,-5.05948 -14.32069,-4.84439 -0.66121,0.66123 -0.26756,16.18453 0.42806,16.88026 0.88756,0.88755 17.15012,7.77184 17.14253,7.25694 z m -29.47965,-21.40188 c 3.16004,-4.71995 4.50948,-7.01268 4.392,-7.46188 -0.2563,-0.98009 -8.70655,-12.40153 -9.08974,-12.28571 -0.18339,0.0555 -2.40703,2.89651 -4.94142,6.31374 l -4.60798,6.21306 4.75961,7.01704 c 2.61777,3.85947 4.79702,7.01717 4.84277,7.01717 0.0457,0 2.13589,-3.066 4.64476,-6.81342 z m -38.52007,-3.39064 c 3.27961,-0.96696 9.98066,-3.52891 9.98066,-3.81585 0,-0.1547 -1.68808,-0.80789 -3.75131,-1.45139 -2.06322,-0.6435 -4.71972,-1.4709 -5.90333,-1.83868 l -2.15201,-0.66867 -6.684409,2.3517 c -3.676425,1.29338 -6.801601,2.4622 -6.944835,2.5974 -0.195514,0.18448 6.859096,1.92495 13.454534,3.31937 0.10426,0.0225 1.00458,-0.2002 2.0007,-0.49388 z m 76.92073,-1.17591 c 3.71381,-0.79465 6.75237,-1.5275 6.75237,-1.62866 0,-0.10046 -2.96379,-1.26006 -6.58619,-2.57566 l -6.5862,-2.39188 -6.16827,1.85026 c -3.39255,1.01766 -6.29072,1.96607 -6.44038,2.10765 -0.2379,0.22514 2.92099,1.49784 9.10854,3.66978 1.00868,0.35408 2.13408,0.59186 2.50088,0.52851 0.36679,-0.0638 3.70546,-0.76534 7.41925,-1.56 z m -54.84493,-9.87752 c 4.74218,-6.06674 6.62091,-8.74734 6.3913,-9.11891 -0.27306,-0.44176 -2.01116,-1.19777 -7.98277,-3.47194 -2.56756,-0.97772 -5.06265,-1.92908 -5.54465,-2.11404 -0.84509,-0.32429 -1.02469,-0.14973 -5.03445,4.8919 -5.26837,6.62409 -6.33655,8.12098 -6.01703,8.43216 0.2135,0.20788 14.44097,4.84037 15.15729,4.93527 0.12563,0.0166 1.48927,-1.58281 3.03031,-3.55444 z m 33.5875,1.43639 c 8.43886,-2.50936 8.92542,-2.66465 9.19654,-2.93576 0.13071,-0.13071 -0.1849,-0.87844 -0.70137,-1.66152 -1.32849,-2.01464 -8.01133,-10.72086 -8.6115,-11.219 -0.63028,-0.52307 -1.14994,-0.38255 -9.5383,2.57802 -3.56776,1.25923 -6.54338,2.45901 -6.61247,2.6663 -0.1409,0.42274 2.95817,4.96896 6.57893,9.6512 1.73912,2.24888 2.55109,3.0524 2.95821,2.92736 0.30862,-0.0945 3.33711,-0.9978 6.72996,-2.0066 z m -65.51288,-1.6854 c 3.284351,-1.19162 6.22232,-2.42946 6.52883,-2.75103 1.11254,-1.16693 6.96586,-8.56913 6.96586,-8.80916 0,-0.28103 -1.1403,0.0555 -7.00245,2.06641 -3.698651,1.2688 -4.333205,1.60231 -5.633803,2.96046 -1.860824,1.94314 -7.37074,8.32673 -7.37074,8.53934 0,0.32122 0.645362,0.12244 6.512303,-2.00602 z m 93.3106,1.08255 c -0.34185,-0.43219 -2.18696,-2.54623 -4.10023,-4.69796 -2.89975,-3.26111 -3.81542,-4.0703 -5.50193,-4.86236 -2.81682,-1.32281 -7.86842,-3.12863 -8.10113,-2.89593 -0.10625,0.10637 1.28174,2.1372 3.08438,4.51325 3.01756,3.97741 3.43446,4.39057 5.25598,5.20804 2.56332,1.15026 9.70573,3.78229 9.86311,3.63444 0.0668,-0.0626 -0.15832,-0.46753 -0.50018,-0.89948 z M 93.31198,947.87228 c 3.39286,-1.18442 6.6565,-2.31199 7.25254,-2.50569 0.59605,-0.19358 1.08371,-0.4966 1.08371,-0.67328 0,-0.31389 -8.30141,-10.82392 -9.47584,-11.99687 -0.44928,-0.44874 -0.88866,-0.5414 -1.81087,-0.38197 -3.497419,0.60462 -16.929089,3.5854 -17.171736,3.81077 -0.296024,0.2749 1.635692,2.60107 8.231627,9.91286 3.598946,3.98946 4.064392,4.39246 4.851313,4.2003 0.478738,-0.117 3.646406,-1.1817 7.039256,-2.36612 z m 83.46889,-4.56146 c 3.45137,-3.81775 6.15231,-7.05203 6.0021,-7.18735 -0.21084,-0.18968 -10.24613,-2.40488 -17.46946,-3.85615 -0.974,-0.19571 -1.71344,0.65059 -7.23094,8.27532 l -3.08647,4.26519 0.91905,0.3601 c 5.80003,2.27204 13.99458,5.24656 14.25704,5.17518 0.18341,-0.0496 3.15731,-3.21443 6.60868,-7.03229 z m -51.86728,-3.99419 -0.0905,-5.98438 -7.33591,-3.08643 c -4.03474,-1.69757 -7.52399,-3.0953 -7.75389,-3.10618 -0.42245,-0.0201 -0.36669,3.6237 0.20597,13.45867 l 0.21203,3.64142 7.16917,2.75399 7.16918,2.75399 0.25729,-2.22336 c 0.14153,-1.22294 0.21655,-4.91636 0.16673,-8.20772 z m 14.44692,7.64045 7.53506,-2.62411 0.19904,-7.18923 c 0.19887,-7.18274 0.0661,-10.0236 -0.46872,-10.0236 -0.374,0 -15.01306,5.93675 -15.26821,6.1919 -0.31302,0.31307 -0.80658,13.97229 -0.5536,15.32074 0.13568,0.72327 0.38941,1.16303 0.62489,1.08302 0.21807,-0.0745 3.78726,-1.31548 7.93154,-2.75872 z m -35.9242,-16.99147 -0.22809,-6.58687 -4.13801,-5.1318 c -3.70006,-4.58865 -4.7723,-5.69022 -4.75142,-4.88162 0.004,0.13756 0.30266,3.17602 0.66468,6.75232 0.36203,3.5763 0.65923,6.67928 0.66045,6.89555 0.002,0.46351 7.67322,9.8865 7.87973,9.67992 0.0774,-0.078 0.038,-3.10476 -0.0873,-6.7275 z m 53.24564,2.26708 c 1.68916,-2.32322 3.18977,-4.68662 3.3347,-5.25188 0.34945,-1.36299 1.45313,-13.50925 1.24633,-13.71607 -0.0888,-0.0886 -1.90933,2.12326 -4.04569,4.91554 l -3.88432,5.07697 0,6.59975 c 0,3.62984 0.0625,6.59974 0.13889,6.59974 0.0763,0 1.52091,-1.90083 3.21009,-4.22405 z m -24.5242,-11.9496 c 2.10442,-2.93363 4.15265,-5.94703 4.55164,-6.6963 l 0.72542,-1.36228 -3.6027,-6.14037 c -4.71519,-8.03625 -5.79544,-9.70911 -6.13435,-9.4997 -0.30215,0.18673 -2.54194,3.88559 -6.91478,11.4192 l -2.74272,4.72527 3.02457,4.11119 c 5.58517,7.59164 6.67171,8.97532 6.96994,8.87593 0.16323,-0.0544 2.01858,-2.49919 4.12298,-5.43294 z m 19.80233,-5.19492 c 1.90418,-2.56478 3.38787,-4.73743 3.2971,-4.8282 -0.0908,-0.091 -2.84914,1.02381 -6.12972,2.47686 l -5.96471,2.64183 -3.08441,4.25396 c -1.69642,2.33976 -3.08441,4.36847 -3.08441,4.5084 0,0.13992 2.58841,-0.79052 5.75201,-2.06771 l 5.75201,-2.32204 z m -33.98913,7.97574 c -0.22209,-0.42841 -1.45617,-2.26247 -2.74237,-4.07574 l -2.33857,-3.2968 -4.037,-1.92908 c -5.12925,-2.45085 -7.46582,-3.36818 -7.68324,-3.01635 -0.0945,0.15292 1.43751,2.277 3.40445,4.72018 l 3.57628,4.4421 4.99769,2.08165 c 2.74872,1.14495 5.04917,2.03025 5.11213,1.96726 0.063,-0.0626 -0.0673,-0.46493 -0.28937,-0.89322 z"
       id="path4138"
       inkscape:connector-curvature="0"
       sodipodi:nodetypes="ssssscsscsssssssssssssssssssssscscsssscscscsssssccssccccccscccccsssscssssssscscssscsssscssssssscsscsssscssssssssssscsssssssssssssssssssscsscsssssssssssssscscsscssscccssscssssssscscscsssssscssssscssscsssssscssscssscssscsss" />
  </g>
</svg>
