<?xml version="1.0" encoding="UTF-8" standalone="no"?>
<!-- Created with Inkscape (http://www.inkscape.org/) -->

<svg
   xmlns:dc="http://purl.org/dc/elements/1.1/"
   xmlns:cc="http://creativecommons.org/ns#"
   xmlns:rdf="http://www.w3.org/1999/02/22-rdf-syntax-ns#"
   xmlns:svg="http://www.w3.org/2000/svg"
   xmlns="http://www.w3.org/2000/svg"
   xmlns:sodipodi="http://sodipodi.sourceforge.net/DTD/sodipodi-0.dtd"
   xmlns:inkscape="http://www.inkscape.org/namespaces/inkscape"
   width="256"
   height="256"
   viewBox="0 0 256 256"
   id="svg2"
   version="1.1"
   inkscape:version="0.92.4 (unknown)"
   sodipodi:docname="text-x-sql.svg">
  <sodipodi:namedview
     id="base"
     pagecolor="#ffffff"
     bordercolor="#666666"
     borderopacity="1.0"
     inkscape:pageopacity="0.0"
     inkscape:pageshadow="2"
     inkscape:zoom="3.3907026"
     inkscape:cx="128"
     inkscape:cy="128.00001"
     inkscape:document-units="px"
     inkscape:current-layer="layer1"
     showgrid="false"
     units="px"
     inkscape:window-width="1920"
     inkscape:window-height="1048"
     inkscape:window-x="0"
     inkscape:window-y="0"
     inkscape:window-maximized="1" />
  <defs
     id="defs4">
    <filter
       style="color-interpolation-filters:sRGB;"
       inkscape:label="Drop Shadow"
       id="filter4301">
      <feFlood
         flood-opacity="0.498039"
         flood-color="rgb(0,0,0)"
         result="flood"
         id="feFlood4303" />
      <feComposite
         in="flood"
         in2="SourceGraphic"
         operator="in"
         result="composite1"
         id="feComposite4305" />
      <feGaussianBlur
         in="composite1"
         stdDeviation="3.7"
         result="blur"
         id="feGaussianBlur4307" />
      <feOffset
         dx="3.8"
         dy="3.7"
         result="offset"
         id="feOffset4309" />
      <feComposite
         in="SourceGraphic"
         in2="offset"
         operator="over"
         result="composite2"
         id="feComposite4311" />
    </filter>
    <clipPath
       id="clipPath4419"
       clipPathUnits="userSpaceOnUse">
      <path
         inkscape:connector-curvature="0"
         id="path4421"
         d="M 124.48485,822.97607 A 109.3303,109.3303 0 0 0 15.294678,932.30136 109.3303,109.3303 0 0 0 124.62498,1041.6317 109.3303,109.3303 0 0 0 233.94861,932.43983 L 124.48485,822.97607 Z m 10.61172,0.51882 a 109.3303,109.3303 0 0 1 6.63462,0.95758 109.3303,109.3303 0 0 0 -6.63462,-0.95758 z m 10.75186,1.57983 a 109.3303,109.3303 0 0 1 7.19348,1.78503 109.3303,109.3303 0 0 0 -7.19348,-1.78503 z m 10.56001,2.64585 a 109.3303,109.3303 0 0 1 7.64057,2.73092 109.3303,109.3303 0 0 0 -7.64057,-2.73092 z m 10.23637,3.67681 a 109.3303,109.3303 0 0 1 7.98089,3.79193 109.3303,109.3303 0 0 0 -7.98089,-3.79193 z m 9.82097,4.67944 a 109.3303,109.3303 0 0 1 8.10936,4.89798 109.3303,109.3303 0 0 0 -8.10936,-4.89798 z m 9.3155,5.63701 a 109.3303,109.3303 0 0 1 8.25116,6.18753 109.3303,109.3303 0 0 0 -8.25116,-6.18753 z m 8.69324,6.52452 a 109.3303,109.3303 0 0 1 8.01927,7.37032 109.3303,109.3303 0 0 0 -8.01927,-7.37032 z m 8.01927,7.37032 0.83745,0.83746 a 109.3303,109.3303 0 0 0 -0.83745,-0.83746 z m 6.53453,7.32194 a 109.3303,109.3303 0 0 1 3.84697,5.05813 109.3303,109.3303 0 0 0 -3.84697,-5.05813 z m 6.52451,8.80167 a 109.3303,109.3303 0 0 1 3.25475,5.3067 109.3303,109.3303 0 0 0 -3.25475,-5.3067 z m 5.61699,9.42227 a 109.3303,109.3303 0 0 1 2.6325,5.44683 109.3303,109.3303 0 0 0 -2.6325,-5.44683 z m 4.64441,9.94109 a 109.3303,109.3303 0 0 1 2.03025,5.55861 109.3303,109.3303 0 0 0 -2.03025,-5.55861 z m 3.61509,10.32979 a 109.3303,109.3303 0 0 1 1.4397,5.632 109.3303,109.3303 0 0 0 -1.4397,-5.632 z m 2.5691,10.66511 a 109.3303,109.3303 0 0 1 0.8458,5.58529 109.3303,109.3303 0 0 0 -0.8458,-5.58529 z m 1.48641,10.85696 a 109.3303,109.3303 0 0 1 0.47045,9.35386 109.3303,109.3303 0 0 0 -0.47045,-9.35386 z"
         style="fill:#f16529;fill-opacity:1" />
    </clipPath>
    <clipPath
       clipPathUnits="userSpaceOnUse"
       id="clipPath1144">
      <path
         inkscape:connector-curvature="0"
         id="path1146"
         d="M 124.48485,822.97607 A 109.3303,109.3303 0 0 0 15.294678,932.30136 109.3303,109.3303 0 0 0 124.62498,1041.6317 109.3303,109.3303 0 0 0 233.94861,932.43983 Z m 10.61172,0.51882 a 109.3303,109.3303 0 0 1 6.63462,0.95758 109.3303,109.3303 0 0 0 -6.63462,-0.95758 z m 10.75186,1.57983 a 109.3303,109.3303 0 0 1 7.19348,1.78503 109.3303,109.3303 0 0 0 -7.19348,-1.78503 z m 10.56001,2.64585 a 109.3303,109.3303 0 0 1 7.64057,2.73092 109.3303,109.3303 0 0 0 -7.64057,-2.73092 z m 10.23637,3.67681 a 109.3303,109.3303 0 0 1 7.98089,3.79193 109.3303,109.3303 0 0 0 -7.98089,-3.79193 z m 9.82097,4.67944 a 109.3303,109.3303 0 0 1 8.10936,4.89798 109.3303,109.3303 0 0 0 -8.10936,-4.89798 z m 9.3155,5.63701 a 109.3303,109.3303 0 0 1 8.25116,6.18753 109.3303,109.3303 0 0 0 -8.25116,-6.18753 z m 8.69324,6.52452 a 109.3303,109.3303 0 0 1 8.01927,7.37032 109.3303,109.3303 0 0 0 -8.01927,-7.37032 z m 8.01927,7.37032 0.83745,0.83746 a 109.3303,109.3303 0 0 0 -0.83745,-0.83746 z m 6.53453,7.32194 a 109.3303,109.3303 0 0 1 3.84697,5.05813 109.3303,109.3303 0 0 0 -3.84697,-5.05813 z m 6.52451,8.80167 a 109.3303,109.3303 0 0 1 3.25475,5.3067 109.3303,109.3303 0 0 0 -3.25475,-5.3067 z m 5.61699,9.42227 a 109.3303,109.3303 0 0 1 2.6325,5.44683 109.3303,109.3303 0 0 0 -2.6325,-5.44683 z m 4.64441,9.94109 a 109.3303,109.3303 0 0 1 2.03025,5.55861 109.3303,109.3303 0 0 0 -2.03025,-5.55861 z m 3.61509,10.32979 a 109.3303,109.3303 0 0 1 1.4397,5.632 109.3303,109.3303 0 0 0 -1.4397,-5.632 z m 2.5691,10.66511 a 109.3303,109.3303 0 0 1 0.8458,5.58529 109.3303,109.3303 0 0 0 -0.8458,-5.58529 z m 1.48641,10.85696 a 109.3303,109.3303 0 0 1 0.47045,9.35386 109.3303,109.3303 0 0 0 -0.47045,-9.35386 z"
         style="fill:#f16529;fill-opacity:1;stroke-width:0.85414296" />
    </clipPath>
  </defs>
  <metadata
     id="metadata7">
    <rdf:RDF>
      <cc:Work
         rdf:about="">
        <dc:format>image/svg+xml</dc:format>
        <dc:type
           rdf:resource="http://purl.org/dc/dcmitype/StillImage" />
        <dc:title />
      </cc:Work>
    </rdf:RDF>
  </metadata>
  <g
     inkscape:label="Layer 1"
     inkscape:groupmode="layer"
     id="layer1"
     transform="translate(0,-796.36214)">
    <path
       style="fill:#f16529;fill-opacity:1"
       d="M 127.83594,796.36506 A 128,128 0 0 0 0,924.3592 a 128,128 0 0 0 128,128 128,128 0 0 0 127.99219,-127.83789 L 127.83594,796.36506 Z m 12.42383,0.60742 a 128,128 0 0 1 7.76757,1.1211 128,128 0 0 0 -7.76757,-1.1211 z m 12.58789,1.84961 a 128,128 0 0 1 8.42187,2.08984 128,128 0 0 0 -8.42187,-2.08984 z m 12.36328,3.09766 a 128,128 0 0 1 8.94531,3.19726 128,128 0 0 0 -8.94531,-3.19726 z m 11.98437,4.30468 a 128,128 0 0 1 9.34375,4.43946 128,128 0 0 0 -9.34375,-4.43946 z m 11.49805,5.47852 a 128,128 0 0 1 9.49414,5.73438 128,128 0 0 0 -9.49414,-5.73438 z m 10.90625,6.59961 a 128,128 0 0 1 9.66016,7.24414 128,128 0 0 0 -9.66016,-7.24414 z m 10.17773,7.63867 a 128,128 0 0 1 9.38868,8.62891 128,128 0 0 0 -9.38868,-8.62891 z m 9.38868,8.62891 0.98046,0.98047 a 128,128 0 0 0 -0.98046,-0.98047 z m 7.65039,8.57226 a 128,128 0 0 1 4.5039,5.92188 128,128 0 0 0 -4.5039,-5.92188 z m 7.63867,10.30469 a 128,128 0 0 1 3.81054,6.21289 128,128 0 0 0 -3.81054,-6.21289 z m 6.57617,11.03125 a 128,128 0 0 1 3.08203,6.37695 128,128 0 0 0 -3.08203,-6.37695 z m 5.4375,11.63867 a 128,128 0 0 1 2.37695,6.50782 128,128 0 0 0 -2.37695,-6.50782 z m 4.23242,12.09375 a 128,128 0 0 1 1.68555,6.59375 128,128 0 0 0 -1.68555,-6.59375 z m 3.00781,12.48633 a 128,128 0 0 1 0.99024,6.53906 128,128 0 0 0 -0.99024,-6.53906 z m 1.74024,12.71094 A 128,128 0 0 1 256,924.3592 128,128 0 0 0 255.44922,913.40803 Z"
       id="path4957"
       inkscape:connector-curvature="0" />
    <path
       style="fill:#fe976b;fill-opacity:1"
       d="m 255.61415,924.52718 a 128,128 0 0 0 0.16406,-0.006 L 127.62197,796.36506 a 128,128 0 0 0 -0.008,0.16211 128,128 0 0 0 35.85352,88.80861 l 0.98046,0.98046 a 128,128 0 0 0 91.16603,38.21094 z"
       id="rect4961"
       inkscape:connector-curvature="0" />
    <text
       xml:space="preserve"
       style="font-style:normal;font-weight:normal;line-height:0%;font-family:sans-serif;letter-spacing:0px;word-spacing:0px;fill:#000000;fill-opacity:1;stroke:none;stroke-width:1px;stroke-linecap:butt;stroke-linejoin:miter;stroke-opacity:1"
       x="54.857143"
       y="965.15338"
       id="text4164"><tspan
         style="font-size:40px;line-height:1.25"
         sodipodi:role="line"
         id="tspan4166"
         x="54.857143"
         y="965.15338"> </tspan></text>
    <g
       style="fill:#ffffff;fill-opacity:1"
       transform="matrix(1.1707642,0,0,1.1707642,-17.906462,-167.14586)"
       id="g4210">
      <ellipse
         style="fill:#ffffff;fill-opacity:1;stroke:none;stroke-width:10;stroke-linejoin:round;stroke-miterlimit:4;stroke-dasharray:none;stroke-opacity:1"
         id="ellipse4212"
         cx="124.62498"
         cy="938.20654"
         rx="51.248577"
         ry="14.573054" />
      <path
         inkscape:connector-curvature="0"
         id="path4214"
         d="m 122.53754,989.99919 c -20.71853,-1.20253 -30.0735,-2.59422 -38.092485,-5.66683 -4.904347,-1.87918 -7.439532,-3.43082 -9.080844,-5.55786 -1.518089,-1.96734 -1.617199,-2.52574 -1.562441,-8.80296 l 0.04603,-5.2763 0.807333,1.00906 c 1.827933,2.28467 4.58846,3.91109 10.250597,6.03931 7.394617,2.77942 19.82428,4.55823 37.33082,5.34243 5.24521,0.23495 9.39832,0.0822 17.21788,-0.63341 11.43496,-1.04643 15.58185,-1.76512 21.9362,-3.80172 5.45261,-1.74758 11.51004,-4.51641 13.1951,-6.03142 l 0.8493,-0.7636 0.019,5.21121 c 0.0105,2.86616 0.004,5.40442 -0.0141,5.64057 -0.0624,0.80909 -0.90556,2.39934 -1.62243,3.06013 -0.75023,0.69154 -4.44502,2.64654 -7.05559,3.73327 -4.32719,1.80135 -10.70781,3.63021 -15.45706,4.43043 -7.47076,1.25877 -23.21146,2.39016 -28.7673,2.06769 l 0,0 z"
         style="fill:#ffffff;fill-opacity:1;stroke:none;stroke-width:10;stroke-linejoin:round;stroke-miterlimit:4;stroke-dasharray:none;stroke-opacity:1" />
      <path
         style="fill:#ffffff;fill-opacity:1;stroke:none;stroke-width:10;stroke-linejoin:round;stroke-miterlimit:4;stroke-dasharray:none;stroke-opacity:1"
         d="m 122.53754,970.41494 c -20.71853,-1.20253 -30.0735,-2.59422 -38.092485,-5.66683 -4.904347,-1.87918 -7.439532,-3.43082 -9.080844,-5.55786 -1.518089,-1.96734 -1.617199,-2.52574 -1.562441,-8.80296 l 0.04603,-5.2763 0.807333,1.00906 c 1.827933,2.28467 4.58846,3.91109 10.250597,6.03931 7.394617,2.77942 19.82428,4.55823 37.33082,5.34243 5.24521,0.23495 9.39832,0.0822 17.21788,-0.63341 11.43496,-1.04643 15.58185,-1.76512 21.9362,-3.80172 5.45261,-1.74758 11.51004,-4.51641 13.1951,-6.03142 l 0.8493,-0.7636 0.019,5.21121 c 0.0105,2.86616 0.004,5.40442 -0.0141,5.64057 -0.0624,0.80909 -0.90556,2.39934 -1.62243,3.06013 -0.75023,0.69154 -4.44502,2.64654 -7.05559,3.73327 -4.32719,1.80135 -10.70781,3.63021 -15.45706,4.43043 -7.47076,1.25877 -23.21146,2.39016 -28.7673,2.06769 l 0,0 z"
         id="path4216"
         inkscape:connector-curvature="0" />
      <path
         style="fill:#ffffff;fill-opacity:1;stroke:none;stroke-width:10;stroke-linejoin:round;stroke-miterlimit:4;stroke-dasharray:none;stroke-opacity:1"
         d="m 122.53754,1009.5834 c -20.71853,-1.2025 -30.0735,-2.5942 -38.092485,-5.6668 -4.904347,-1.8792 -7.439532,-3.4308 -9.080844,-5.55788 -1.518089,-1.96734 -1.617199,-2.52574 -1.562441,-8.80296 l 0.04603,-5.2763 0.807333,1.00906 c 1.827933,2.28467 4.58846,3.91109 10.250597,6.03931 7.394617,2.77942 19.82428,4.55823 37.33082,5.34243 5.24521,0.23495 9.39832,0.0822 17.21788,-0.63341 11.43496,-1.04643 15.58185,-1.76512 21.9362,-3.80172 5.45261,-1.74758 11.51004,-4.51641 13.1951,-6.03142 l 0.8493,-0.7636 0.019,5.21121 c 0.0105,2.86616 0.004,5.40442 -0.0141,5.64057 -0.0624,0.80909 -0.90556,2.39934 -1.62243,3.06013 -0.75023,0.69158 -4.44502,2.64658 -7.05559,3.73328 -4.32719,1.8013 -10.70781,3.6302 -15.45706,4.4304 -7.47076,1.2588 -23.21146,2.3902 -28.7673,2.0677 l 0,0 z"
         id="path4218"
         inkscape:connector-curvature="0" />
    </g>
  </g>
</svg>
