<?xml version="1.0" encoding="UTF-8" standalone="no"?>
<!-- Created with Inkscape (http://www.inkscape.org/) -->

<svg
   width="256"
   height="256"
   viewBox="0 0 256 256"
   id="svg2"
   version="1.1"
   inkscape:version="1.1 (c68e22c387, 2021-05-23)"
   sodipodi:docname="text-x-mathematica.svg"
   xmlns:inkscape="http://www.inkscape.org/namespaces/inkscape"
   xmlns:sodipodi="http://sodipodi.sourceforge.net/DTD/sodipodi-0.dtd"
   xmlns:xlink="http://www.w3.org/1999/xlink"
   xmlns="http://www.w3.org/2000/svg"
   xmlns:svg="http://www.w3.org/2000/svg"
   xmlns:rdf="http://www.w3.org/1999/02/22-rdf-syntax-ns#"
   xmlns:cc="http://creativecommons.org/ns#"
   xmlns:dc="http://purl.org/dc/elements/1.1/">
  <sodipodi:namedview
     id="base"
     pagecolor="#ffffff"
     bordercolor="#666666"
     borderopacity="1.0"
     inkscape:pageopacity="0.0"
     inkscape:pageshadow="2"
     inkscape:zoom="3.2851562"
     inkscape:cx="63.771701"
     inkscape:cy="127.8478"
     inkscape:document-units="px"
     inkscape:current-layer="layer1"
     showgrid="false"
     units="px"
     inkscape:window-width="1920"
     inkscape:window-height="1048"
     inkscape:window-x="0"
     inkscape:window-y="0"
     inkscape:window-maximized="1"
     inkscape:pagecheckerboard="0" />
  <defs
     id="defs4">
    <radialGradient
       cx="0"
       cy="0"
       r="1"
       fx="0"
       fy="0"
       id="radialGradient4895"
       gradientUnits="userSpaceOnUse"
       gradientTransform="matrix(45.124908,0,0,-45.124908,74.972946,125.50104)"
       spreadMethod="pad">
      <stop
         id="stop4899"
         style="stop-color:#ebeaea;stop-opacity:1"
         offset="0" />
      <stop
         id="stop4901"
         style="stop-color:#ebeaea;stop-opacity:1"
         offset="1" />
    </radialGradient>
    <filter
       id="filter4301"
       inkscape:label="Drop Shadow"
       style="color-interpolation-filters:sRGB;">
      <feFlood
         id="feFlood4303"
         result="flood"
         flood-color="rgb(0,0,0)"
         flood-opacity="0.498039" />
      <feComposite
         id="feComposite4305"
         result="composite1"
         operator="in"
         in2="SourceGraphic"
         in="flood" />
      <feGaussianBlur
         id="feGaussianBlur4307"
         result="blur"
         stdDeviation="3.7"
         in="composite1" />
      <feOffset
         id="feOffset4309"
         result="offset"
         dy="3.7"
         dx="3.8" />
      <feComposite
         id="feComposite4311"
         result="composite2"
         operator="over"
         in2="offset"
         in="SourceGraphic" />
    </filter>
    <radialGradient
       spreadMethod="pad"
       gradientTransform="matrix(228.32686,0,0,222.71229,48.684695,874.0012)"
       gradientUnits="userSpaceOnUse"
       xlink:href="#radialGradient4895"
       id="radialGradient8118"
       fy="0"
       fx="0"
       r="0.80999798"
       cy="0"
       cx="0" />
    <radialGradient
       spreadMethod="pad"
       gradientTransform="matrix(45.124908,0,0,-45.124908,74.972946,125.50104)"
       gradientUnits="userSpaceOnUse"
       id="radialGradient4453"
       fy="0"
       fx="0"
       r="1"
       cy="0"
       cx="0">
      <stop
         offset="0"
         style="stop-color:#ffffff;stop-opacity:1"
         id="stop4455" />
      <stop
         offset="0.80999798"
         style="stop-color:#ebeaea;stop-opacity:1"
         id="stop4457" />
      <stop
         offset="0.80999798"
         style="stop-color:#ebeaea;stop-opacity:1"
         id="stop4459" />
      <stop
         offset="1"
         style="stop-color:#d4d3d4;stop-opacity:1"
         id="stop4461" />
    </radialGradient>
    <clipPath
       clipPathUnits="userSpaceOnUse"
       id="clipPath5238">
      <path
         style="fill:#df1818;fill-opacity:1"
         d="m 151.20117,796.60532 -105.78125,0 c -7.804357,0 -14.087891,6.28158 -14.087891,14.08594 l 0,227.33994 c 0,7.8043 6.283534,14.0878 14.087891,14.0878 l 165.16211,0 c 7.80436,0 14.08594,-6.2835 14.08594,-14.0878 l 0,-154.82237 -73.4668,-86.60351 z"
         id="path5240"
         inkscape:connector-curvature="0" />
    </clipPath>
    <clipPath
       id="clipPath4587"
       clipPathUnits="userSpaceOnUse">
      <path
         style="fill:#df7618;fill-opacity:1"
         d="m 151.20117,796.60532 -105.78125,0 c -7.804357,0 -14.087891,6.28158 -14.087891,14.08594 l 0,227.33994 c 0,7.8043 6.283534,14.0878 14.087891,14.0878 l 165.16211,0 c 7.80436,0 14.08594,-6.2835 14.08594,-14.0878 l 0,-154.82237 -73.4668,-86.60351 z"
         id="path4589"
         inkscape:connector-curvature="0" />
    </clipPath>
    <clipPath
       clipPathUnits="userSpaceOnUse"
       id="clipPath4824">
      <path
         style="fill:#df7618;fill-opacity:1"
         d="m 151.20117,796.60532 -105.78125,0 c -7.804357,0 -14.087891,6.28158 -14.087891,14.08594 l 0,227.33994 c 0,7.8043 6.283534,14.0878 14.087891,14.0878 l 165.16211,0 c 7.80436,0 14.08594,-6.2835 14.08594,-14.0878 l 0,-154.82237 -73.4668,-86.60351 z"
         id="path4826"
         inkscape:connector-curvature="0" />
    </clipPath>
    <clipPath
       id="clipPath5041"
       clipPathUnits="userSpaceOnUse">
      <path
         style="fill:#df7618;fill-opacity:1"
         d="m 151.20117,0.24318 -105.78125,0 c -7.804357,0 -14.087891,6.28158 -14.087891,14.08594 l 0,227.33994 c 0,7.8043 6.283534,14.0878 14.087891,14.0878 l 165.16211,0 c 7.80436,0 14.08594,-6.2835 14.08594,-14.0878 l 0,-154.82237 -73.4668,-86.60351 z"
         id="path5043"
         inkscape:connector-curvature="0" />
    </clipPath>
    <clipPath
       clipPathUnits="userSpaceOnUse"
       id="clipPath5730">
      <g
         id="g5732"
         transform="translate(100.29964,5.022605)">
        <path
           inkscape:connector-curvature="0"
           id="path5734"
           d="m 27.5363,791.34247 a 128,128 0 0 0 -127.83594,127.99414 128,128 0 0 0 128,127.99999 128,128 0 0 0 127.99219,-127.83788 L 27.5363,791.34247 Z m 12.42383,0.60742 a 128,128 0 0 1 7.76757,1.1211 128,128 0 0 0 -7.76757,-1.1211 z m 12.58789,1.84961 a 128,128 0 0 1 8.42187,2.08984 128,128 0 0 0 -8.42187,-2.08984 z m 12.36328,3.09766 a 128,128 0 0 1 8.94531,3.19726 128,128 0 0 0 -8.94531,-3.19726 z m 11.98437,4.30468 a 128,128 0 0 1 9.34375,4.43946 128,128 0 0 0 -9.34375,-4.43946 z m 11.49805,5.47852 a 128,128 0 0 1 9.49414,5.73438 128,128 0 0 0 -9.49414,-5.73438 z m 10.90625,6.59961 a 128,128 0 0 1 9.66016,7.24414 128,128 0 0 0 -9.66016,-7.24414 z m 10.17773,7.63867 a 128,128 0 0 1 9.38868,8.62891 128,128 0 0 0 -9.38868,-8.62891 z m 9.38868,8.62891 0.98046,0.98047 a 128,128 0 0 0 -0.98046,-0.98047 z m 7.65039,8.57226 a 128,128 0 0 1 4.5039,5.92188 128,128 0 0 0 -4.5039,-5.92188 z m 7.63867,10.30469 a 128,128 0 0 1 3.81054,6.21289 128,128 0 0 0 -3.81054,-6.21289 z m 6.57617,11.03125 a 128,128 0 0 1 3.08203,6.37695 128,128 0 0 0 -3.08203,-6.37695 z m 5.4375,11.63867 a 128,128 0 0 1 2.37695,6.50782 128,128 0 0 0 -2.37695,-6.50782 z m 4.23242,12.09375 a 128,128 0 0 1 1.68555,6.59375 128,128 0 0 0 -1.68555,-6.59375 z m 3.00781,12.48633 a 128,128 0 0 1 0.99024,6.53906 128,128 0 0 0 -0.99024,-6.53906 z m 1.74024,12.71094 a 128,128 0 0 1 0.55078,10.95117 128,128 0 0 0 -0.55078,-10.95117 z"
           style="fill:#df7618;fill-opacity:1" />
        <path
           inkscape:connector-curvature="0"
           id="path5736"
           d="m 155.31451,919.5046 a 128,128 0 0 0 0.16406,-0.006 L 27.32233,791.34247 a 128,128 0 0 0 -0.008,0.16211 128,128 0 0 0 35.85352,88.80861 l 0.98046,0.98046 a 128,128 0 0 0 91.16603,38.21095 z"
           style="fill:#fdac64;fill-opacity:1" />
      </g>
    </clipPath>
  </defs>
  <metadata
     id="metadata7">
    <rdf:RDF>
      <cc:Work
         rdf:about="">
        <dc:format>image/svg+xml</dc:format>
        <dc:type
           rdf:resource="http://purl.org/dc/dcmitype/StillImage" />
        <dc:title />
      </cc:Work>
    </rdf:RDF>
  </metadata>
  <g
     transform="translate(0,-796.36214)"
     id="layer1"
     inkscape:groupmode="layer"
     inkscape:label="Layer 1">
    <g
       transform="translate(100.29964,5.022605)"
       id="g4424">
      <path
         style="fill:#df7618;fill-opacity:1"
         d="m 27.5363,791.34247 a 128,128 0 0 0 -127.83594,127.99414 128,128 0 0 0 128,127.99999 128,128 0 0 0 127.99219,-127.83788 L 27.5363,791.34247 Z m 12.42383,0.60742 a 128,128 0 0 1 7.76757,1.1211 128,128 0 0 0 -7.76757,-1.1211 z m 12.58789,1.84961 a 128,128 0 0 1 8.42187,2.08984 128,128 0 0 0 -8.42187,-2.08984 z m 12.36328,3.09766 a 128,128 0 0 1 8.94531,3.19726 128,128 0 0 0 -8.94531,-3.19726 z m 11.98437,4.30468 a 128,128 0 0 1 9.34375,4.43946 128,128 0 0 0 -9.34375,-4.43946 z m 11.49805,5.47852 a 128,128 0 0 1 9.49414,5.73438 128,128 0 0 0 -9.49414,-5.73438 z m 10.90625,6.59961 a 128,128 0 0 1 9.66016,7.24414 128,128 0 0 0 -9.66016,-7.24414 z m 10.17773,7.63867 a 128,128 0 0 1 9.38868,8.62891 128,128 0 0 0 -9.38868,-8.62891 z m 9.38868,8.62891 0.98046,0.98047 a 128,128 0 0 0 -0.98046,-0.98047 z m 7.65039,8.57226 a 128,128 0 0 1 4.5039,5.92188 128,128 0 0 0 -4.5039,-5.92188 z m 7.63867,10.30469 a 128,128 0 0 1 3.81054,6.21289 128,128 0 0 0 -3.81054,-6.21289 z m 6.57617,11.03125 a 128,128 0 0 1 3.08203,6.37695 128,128 0 0 0 -3.08203,-6.37695 z m 5.4375,11.63867 a 128,128 0 0 1 2.37695,6.50782 128,128 0 0 0 -2.37695,-6.50782 z m 4.23242,12.09375 a 128,128 0 0 1 1.68555,6.59375 128,128 0 0 0 -1.68555,-6.59375 z m 3.00781,12.48633 a 128,128 0 0 1 0.99024,6.53906 128,128 0 0 0 -0.99024,-6.53906 z m 1.74024,12.71094 a 128,128 0 0 1 0.55078,10.95117 128,128 0 0 0 -0.55078,-10.95117 z"
         id="path4957"
         inkscape:connector-curvature="0" />
      <path
         style="fill:#fdac64;fill-opacity:1"
         d="m 155.31451,919.5046 a 128,128 0 0 0 0.16406,-0.006 L 27.32233,791.34247 a 128,128 0 0 0 -0.008,0.16211 128,128 0 0 0 35.85352,88.80861 l 0.98046,0.98046 a 128,128 0 0 0 91.16603,38.21095 z"
         id="rect4961"
         inkscape:connector-curvature="0" />
    </g>
    <text
       id="text4143"
       y="951.72528"
       x="74.722427"
       style="font-style:normal;font-variant:normal;font-weight:bold;font-stretch:normal;line-height:0%;font-family:FreeSerif;-inkscape-font-specification:'FreeSerif Bold';letter-spacing:0px;word-spacing:0px;fill:#ffffff;fill-opacity:1;stroke:none;stroke-width:1px;stroke-linecap:butt;stroke-linejoin:miter;stroke-opacity:1"
       xml:space="preserve"><tspan
         y="951.72528"
         x="74.722427"
         id="tspan4145"
         sodipodi:role="line"
         style="font-size:80px;line-height:1.25"> </tspan></text>
    <path
       style="fill:#ffffff;fill-opacity:1;stroke-width:0.735584"
       d="m 125.10747,1017.677 c -1.46001,-2.462 -3.7535,-6.3763 -5.09662,-8.6985 -1.34312,-2.3221 -2.57351,-4.226 -2.73419,-4.231 -0.16069,-0.01 -3.74791,1.4952 -7.97162,3.3339 -4.22371,1.8388 -8.43206,3.6568 -9.351893,4.0402 l -1.672421,0.6971 0.142578,-1.2808 c 0.600644,-5.3954 1.619936,-17.33987 1.559645,-18.27649 l -0.07435,-1.15498 -6.254653,-1.39736 c -3.44006,-0.76857 -7.827516,-1.75091 -9.749902,-2.18288 -1.922387,-0.43196 -3.495251,-0.86785 -3.495251,-0.9686 0,-0.23081 6.59685,-7.91409 10.386452,-12.09695 1.572285,-1.73552 2.858701,-3.23998 2.858701,-3.34317 0,-0.10327 -1.903991,-2.33136 -4.23109,-4.95125 -8.295461,-9.33935 -9.323074,-10.52086 -9.230465,-10.61292 0.05155,-0.0513 3.901746,-0.93235 8.555943,-1.9578 11.239128,-2.47646 10.700101,-2.34702 11.132338,-2.67345 0.341098,-0.25758 0.293998,-1.17715 -0.460701,-8.99432 -0.462356,-4.78912 -0.905689,-9.34144 -0.985182,-10.11635 -0.142765,-1.39162 -0.137639,-1.40623 0.419359,-1.19377 0.516786,0.19708 8.546152,3.64944 15.398752,6.62098 2.00384,0.86888 2.90328,1.14881 3.11832,0.97033 0.1662,-0.13795 1.49208,-2.25502 2.9464,-4.70462 5.63594,-9.49296 7.34066,-12.27289 7.57357,-12.35052 0.13292,-0.0444 2.04912,2.98362 4.25823,6.72876 4.00721,6.79353 6.35641,10.61126 6.52957,10.61126 0.0503,0 1.57785,-0.65764 3.39457,-1.46142 5.80863,-2.56982 14.86073,-6.38756 15.14542,-6.38756 0.18684,0 0.22965,0.41424 0.13311,1.28765 -0.0782,0.70833 -0.49782,5.24369 -0.9323,10.07863 -0.62225,6.92462 -0.72507,8.83097 -0.48428,8.9798 0.16811,0.10389 4.70932,1.15812 10.09156,2.34266 l 9.78591,2.15376 -0.66954,0.76753 c -0.36826,0.42206 -3.2634,3.72437 -6.43365,7.33834 -3.17025,3.61396 -5.91987,6.82752 -6.11027,7.14117 -0.33335,0.54907 -0.17419,0.76423 4.29241,5.80197 6.44569,7.27001 8.43785,9.61858 8.43924,9.9491 7.3e-4,0.30922 -0.58319,0.45344 -11.8577,2.92511 -5.51338,1.20863 -7.60608,1.76196 -7.71249,2.03927 -0.0803,0.20933 0.26533,4.74314 0.7681,10.07509 0.50277,5.3319 0.91046,9.7696 0.90597,9.8613 -0.0181,0.3695 -1.91924,-0.3946 -12.24151,-4.9195 -3.42318,-1.5005 -6.35273,-2.7283 -6.5101,-2.7283 -0.15737,0 -2.09112,3.0629 -4.29721,6.8065 -6.18035,10.4876 -6.25368,10.6084 -6.44467,10.6084 -0.0987,0 -1.37408,-2.0144 -2.8341,-4.4763 z m -1.93416,-21.07971 -2.66114,-3.92207 -0.15734,1.43257 c -0.0865,0.78796 -0.16932,2.80297 -0.18396,4.47782 l -0.0266,3.04529 2.63676,4.5478 2.63676,4.5479 0.20834,-5.1036 0.20834,-5.1036 z m 9.97112,9.40911 2.48803,-4.2507 -0.17493,-4.5092 -0.17494,-4.50929 -2.66356,3.90259 -2.66356,3.9025 v 4.2749 c 0,4.3175 0.15158,6.004 0.50682,5.6393 0.10676,-0.1096 1.31371,-2.1121 2.68214,-4.4501 z m -23.64713,-2.2198 6.10925,-2.6687 0.0655,-6.28404 c 0.0378,-3.62884 -0.0282,-6.28394 -0.15625,-6.28394 -0.39809,0 -9.45077,3.2306 -10.38369,3.7056 -1.07667,0.5482 -1.00237,0.23202 -1.66539,7.08675 -0.2675,2.76553 -0.5496,5.49723 -0.62688,6.07063 -0.1076,0.7981 -0.0598,1.0424 0.20386,1.0424 0.18942,0 3.09355,-1.2009 6.45364,-2.6687 z m 43.51364,2.6075 c -4.9e-4,-0.034 -0.2755,-2.9312 -0.61113,-6.43869 -0.33562,-3.50748 -0.61116,-6.57438 -0.6123,-6.81527 -0.001,-0.28792 -0.40118,-0.60913 -1.16715,-0.93756 -2.33573,-1.00182 -10.37593,-3.72168 -10.53407,-3.56346 -0.48638,0.48639 -0.19682,11.90508 0.31487,12.41688 0.65288,0.6528 12.61536,5.7168 12.60978,5.3381 z m -21.68477,-15.74292 c 2.32447,-3.47193 3.3171,-5.15842 3.23069,-5.48885 -0.18853,-0.72093 -6.40441,-9.12237 -6.68627,-9.03717 -0.1349,0.0408 -1.77058,2.13063 -3.63484,4.64429 l -3.38955,4.57023 3.50109,5.16162 c 1.92559,2.83897 3.52861,5.16172 3.56227,5.16172 0.0336,0 1.57112,-2.2553 3.41661,-5.01184 z m -28.33476,-2.49411 c 2.41243,-0.71128 7.34161,-2.59581 7.34161,-2.80687 0,-0.1138 -1.24172,-0.59428 -2.7594,-1.06762 -1.51767,-0.47335 -3.47175,-1.08198 -4.3424,-1.35251 l -1.58298,-0.49186 -4.916949,1.72987 c -2.70432,0.95139 -5.003151,1.81116 -5.108512,1.91061 -0.143817,0.1357 5.045444,1.41596 9.896941,2.44167 0.0767,0.0166 0.73896,-0.14726 1.47169,-0.36329 z m 56.58168,-0.86498 c 2.73182,-0.58453 4.96694,-1.1236 4.96694,-1.19801 0,-0.0739 -2.18012,-0.92688 -4.8447,-1.89462 l -4.8447,-1.75943 -4.53729,1.36102 c -2.4955,0.74858 -4.62735,1.44621 -4.73744,1.55036 -0.17499,0.16561 2.14864,1.10179 6.7001,2.69943 0.74197,0.26046 1.5698,0.43536 1.83961,0.38877 0.2698,-0.0469 2.72568,-0.56298 5.45748,-1.14752 z m -40.34307,-7.26575 c 3.48828,-4.46259 4.87024,-6.4344 4.70134,-6.70772 -0.20086,-0.32495 -1.47938,-0.88106 -5.872,-2.55391 -1.88866,-0.71919 -3.72401,-1.419 -4.07856,-1.55505 -0.62163,-0.23854 -0.75374,-0.11014 -3.70326,3.5984 -3.87533,4.87258 -4.66107,5.97367 -4.42603,6.20257 0.15704,0.15291 10.62255,3.5605 11.14946,3.63031 0.0924,0.0122 1.09549,-1.1643 2.22905,-2.6146 z m 24.70644,1.05659 c 6.20749,-1.84585 6.5654,-1.96007 6.76483,-2.1595 0.0961,-0.0961 -0.13601,-0.64617 -0.51592,-1.22219 -0.97721,-1.48193 -5.893,-7.88609 -6.33448,-8.25252 -0.46362,-0.38476 -0.84588,-0.28139 -7.01622,1.89635 -2.62439,0.92627 -4.81321,1.80881 -4.86403,1.96129 -0.10365,0.31096 2.17598,3.65509 4.83935,7.09927 1.27927,1.65424 1.87655,2.2453 2.17602,2.15332 0.22701,-0.0695 2.45472,-0.73396 4.95045,-1.47602 z m -48.190249,-1.23975 c 2.415917,-0.87654 4.577039,-1.78708 4.802509,-2.02362 0.81836,-0.85837 5.12397,-6.30332 5.12397,-6.47988 0,-0.20672 -0.83878,0.0408 -5.15089,1.52002 -2.720669,0.93331 -3.187437,1.17864 -4.144137,2.17767 -1.368793,1.42934 -5.4218,6.12501 -5.4218,6.2814 0,0.23629 0.474718,0.0901 4.790348,-1.47559 z m 68.637819,0.7963 c -0.25146,-0.31791 -1.6087,-1.87296 -3.01607,-3.45574 -2.13301,-2.39882 -2.80656,-2.99405 -4.04713,-3.57668 -2.07201,-0.97304 -5.78789,-2.30137 -5.95907,-2.1302 -0.0782,0.0783 0.94283,1.57209 2.26883,3.31988 2.21967,2.92572 2.52633,3.22963 3.86621,3.83095 1.88554,0.84611 7.13939,2.78219 7.25515,2.67344 0.0491,-0.0461 -0.11646,-0.34391 -0.36792,-0.66165 z m -61.89999,-13.12614 c 2.49574,-0.87124 4.89642,-1.70066 5.33486,-1.84314 0.43844,-0.1424 0.79716,-0.3653 0.79716,-0.49526 0,-0.23089 -6.10639,-7.9619 -6.97028,-8.82471 -0.33048,-0.33008 -0.65368,-0.39824 -1.33205,-0.28097 -2.572643,0.44475 -12.452769,2.63736 -12.631257,2.80314 -0.21775,0.20222 1.20319,1.91331 6.055056,7.29175 2.647328,2.93458 2.989703,3.23102 3.56855,3.08967 0.352152,-0.0861 2.682239,-0.86924 5.177961,-1.74048 z m 61.39841,-3.35534 c 2.53878,-2.80827 4.52555,-5.18736 4.41506,-5.2869 -0.1551,-0.13952 -7.5369,-1.76899 -12.85027,-2.83652 -0.71645,-0.14396 -1.26038,0.47856 -5.31896,6.08719 l -2.27036,3.13741 0.67604,0.26488 c 4.26641,1.67128 10.29419,3.85929 10.48725,3.80679 0.13492,-0.0365 2.32247,-2.36449 4.86124,-5.17285 z m -38.15275,-2.93806 -0.0666,-4.40202 -5.39618,-2.27033 c -2.9679,-1.2487 -5.53454,-2.27685 -5.70365,-2.28485 -0.31074,-0.0148 -0.26973,2.66553 0.15151,9.89998 l 0.15597,2.67857 5.27353,2.0258 5.27354,2.02579 0.18925,-1.63547 c 0.10411,-0.89958 0.15929,-3.6164 0.12265,-6.03747 z m 10.62692,5.6202 5.54268,-1.93026 0.14641,-5.28828 c 0.14628,-5.28352 0.0486,-7.37321 -0.34479,-7.37321 -0.2751,0 -11.04337,4.36698 -11.23105,4.55467 -0.23025,0.23029 -0.59331,10.27779 -0.40722,11.26969 0.0998,0.53203 0.28644,0.85551 0.45966,0.79666 0.16041,-0.0548 2.78585,-0.96765 5.83431,-2.02927 z m -26.42528,-12.49866 -0.16778,-4.8452 -3.04385,-3.77487 c -2.72171,-3.37534 -3.51043,-4.18564 -3.49507,-3.59085 0.003,0.10119 0.22263,2.33623 0.48893,4.9669 0.2663,2.63067 0.48492,4.91318 0.48581,5.07226 10e-4,0.34095 5.6443,7.27236 5.79621,7.1204 0.0569,-0.0574 0.0279,-2.28381 -0.0642,-4.94864 z m 39.16666,1.66762 c 1.24252,-1.70892 2.34635,-3.4474 2.45296,-3.8632 0.25705,-1.00259 1.0689,-9.93719 0.91678,-10.08932 -0.0653,-0.0652 -1.40448,1.56183 -2.97595,3.61579 l -2.85724,3.73454 v 4.85467 c 0,2.67006 0.046,4.85467 0.10216,4.85467 0.0561,0 1.11876,-1.39822 2.36129,-3.10715 z m -18.03961,-8.78993 c 1.54798,-2.15794 3.05462,-4.37455 3.34811,-4.9257 l 0.53361,-1.00207 -2.65009,-4.51676 c -3.46842,-5.91134 -4.26303,-7.14187 -4.51233,-6.98783 -0.22226,0.13736 -1.86981,2.85818 -5.08641,8.39979 l -2.0175,3.47583 2.22483,3.02413 c 4.10836,5.58429 4.9076,6.6021 5.12698,6.52899 0.12007,-0.04 1.48483,-1.83836 3.0328,-3.99638 z m 14.56628,-3.82131 c 1.40069,-1.88661 2.49206,-3.48477 2.4253,-3.55154 -0.0668,-0.0669 -2.09579,0.75309 -4.50893,1.82194 l -4.38755,1.94328 -2.26884,3.12915 c -1.24786,1.72109 -2.26884,3.21338 -2.26884,3.31631 0,0.10292 1.90399,-0.5815 4.23108,-1.52098 l 4.23109,-1.70805 z m -25.00187,5.86683 c -0.16337,-0.31513 -1.07114,-1.66423 -2.01725,-2.99805 l -1.72021,-2.42507 -2.96956,-1.419 c -3.77299,-1.80281 -5.49174,-2.47758 -5.65167,-2.21878 -0.0695,0.11248 1.05741,1.67492 2.50426,3.47209 l 2.63066,3.26754 3.67622,1.53123 c 2.02192,0.8422 3.71409,1.49342 3.76041,1.44708 0.0463,-0.046 -0.0495,-0.34199 -0.21286,-0.65704 z"
       id="path40"
       inkscape:connector-curvature="0"
       sodipodi:nodetypes="ssssscsscsssssssssssssssssssssscscsssscscscsssssccssccccccscccccsssscssssssscscssscsssscssssssscsscsssscssssssssssscsssssssssssssssssssscsscsssssssssssssscscsscssscccssscssssssscscscsssssscssssscssscsssssscssscssscssscsss" />
  </g>
</svg>
