<?xml version="1.0" encoding="UTF-8" standalone="no"?>
<!-- Created with Inkscape (http://www.inkscape.org/) -->

<svg
   xmlns:dc="http://purl.org/dc/elements/1.1/"
   xmlns:cc="http://creativecommons.org/ns#"
   xmlns:rdf="http://www.w3.org/1999/02/22-rdf-syntax-ns#"
   xmlns:svg="http://www.w3.org/2000/svg"
   xmlns="http://www.w3.org/2000/svg"
   xmlns:sodipodi="http://sodipodi.sourceforge.net/DTD/sodipodi-0.dtd"
   xmlns:inkscape="http://www.inkscape.org/namespaces/inkscape"
   width="256"
   height="256"
   viewBox="0 0 256 256"
   id="svg2"
   version="1.1"
   inkscape:version="0.92.4 (unknown)"
   sodipodi:docname="text-x-bib.svg">
  <defs
     id="defs4">
    <filter
       style="color-interpolation-filters:sRGB;"
       inkscape:label="Drop Shadow"
       id="filter4301">
      <feFlood
         flood-opacity="0.498039"
         flood-color="rgb(0,0,0)"
         result="flood"
         id="feFlood4303" />
      <feComposite
         in="flood"
         in2="SourceGraphic"
         operator="in"
         result="composite1"
         id="feComposite4305" />
      <feGaussianBlur
         in="composite1"
         stdDeviation="3.7"
         result="blur"
         id="feGaussianBlur4307" />
      <feOffset
         dx="3.8"
         dy="3.7"
         result="offset"
         id="feOffset4309" />
      <feComposite
         in="SourceGraphic"
         in2="offset"
         operator="over"
         result="composite2"
         id="feComposite4311" />
    </filter>
    <clipPath
       clipPathUnits="userSpaceOnUse"
       id="clipPath5045">
      <path
         inkscape:connector-curvature="0"
         id="path5047"
         d="m 151.20117,796.60532 -105.78125,0 c -7.804357,0 -14.087891,6.28158 -14.087891,14.08594 l 0,227.33994 c 0,7.8043 6.283534,14.0878 14.087891,14.0878 l 165.16211,0 c 7.80436,0 14.08594,-6.2835 14.08594,-14.0878 l 0,-154.82237 -73.4668,-86.60351 z"
         style="fill:#0f9d58;fill-opacity:1" />
    </clipPath>
    <clipPath
       clipPathUnits="userSpaceOnUse"
       id="clipPath4605">
      <path
         inkscape:connector-curvature="0"
         id="path4607"
         d="M 150.87655,763.47141 A 128,128 0 0 0 23.040609,891.46555 128,128 0 0 0 151.04061,1019.4656 128,128 0 0 0 279.0328,891.62766 L 150.87655,763.47141 Z m 12.42383,0.60743 a 128,128 0 0 1 7.76757,1.12109 128,128 0 0 0 -7.76757,-1.12109 z m 12.58789,1.8496 a 128,128 0 0 1 8.42187,2.08984 128,128 0 0 0 -8.42187,-2.08984 z m 12.36328,3.09767 a 128,128 0 0 1 8.94531,3.19726 128,128 0 0 0 -8.94531,-3.19726 z m 11.98437,4.30467 a 128,128 0 0 1 9.34375,4.43947 128,128 0 0 0 -9.34375,-4.43947 z m 11.49805,5.47852 a 128,128 0 0 1 9.49414,5.73438 128,128 0 0 0 -9.49414,-5.73438 z m 10.90625,6.59961 a 128,128 0 0 1 9.66016,7.24414 128,128 0 0 0 -9.66016,-7.24414 z m 10.17773,7.63868 a 128,128 0 0 1 9.38868,8.62891 128,128 0 0 0 -9.38868,-8.62891 z m 9.38868,8.62891 0.98046,0.98047 a 128,128 0 0 0 -0.98046,-0.98047 z m 7.65039,8.57226 a 128,128 0 0 1 4.5039,5.92188 128,128 0 0 0 -4.5039,-5.92188 z m 7.63867,10.30469 a 128,128 0 0 1 3.81054,6.21289 128,128 0 0 0 -3.81054,-6.21289 z m 6.57617,11.03125 a 128,128 0 0 1 3.08203,6.37695 128,128 0 0 0 -3.08203,-6.37695 z m 5.4375,11.63867 a 128,128 0 0 1 2.37695,6.50782 128,128 0 0 0 -2.37695,-6.50782 z m 4.23242,12.09375 a 128,128 0 0 1 1.68555,6.59375 128,128 0 0 0 -1.68555,-6.59375 z m 3.00781,12.48633 a 128,128 0 0 1 0.99024,6.53906 128,128 0 0 0 -0.99024,-6.53906 z m 1.74024,12.71094 a 128,128 0 0 1 0.55078,10.95116 128,128 0 0 0 -0.55078,-10.95116 z"
         style="fill:#d2a577;fill-opacity:1" />
    </clipPath>
    <clipPath
       clipPathUnits="userSpaceOnUse"
       id="clipPath4611">
      <path
         inkscape:connector-curvature="0"
         id="path4613"
         d="M 126.79292,787.25771 A 128,128 0 0 0 -1.0430155,915.25185 128,128 0 0 0 126.95698,1043.2519 128,128 0 0 0 254.94917,915.41396 L 126.79292,787.25771 Z m 12.42383,0.60742 a 128,128 0 0 1 7.76757,1.1211 128,128 0 0 0 -7.76757,-1.1211 z m 12.58789,1.84961 a 128,128 0 0 1 8.42187,2.08984 128,128 0 0 0 -8.42187,-2.08984 z m 12.36328,3.09766 a 128,128 0 0 1 8.94531,3.19726 128,128 0 0 0 -8.94531,-3.19726 z m 11.98437,4.30468 a 128,128 0 0 1 9.34375,4.43946 128,128 0 0 0 -9.34375,-4.43946 z m 11.49805,5.47852 a 128,128 0 0 1 9.49414,5.73438 128,128 0 0 0 -9.49414,-5.73438 z m 10.90625,6.59961 a 128,128 0 0 1 9.66016,7.24414 128,128 0 0 0 -9.66016,-7.24414 z m 10.17773,7.63867 a 128,128 0 0 1 9.38868,8.62891 128,128 0 0 0 -9.38868,-8.62891 z m 9.38868,8.62891 0.98046,0.98047 a 128,128 0 0 0 -0.98046,-0.98047 z m 7.65039,8.57226 a 128,128 0 0 1 4.5039,5.92188 128,128 0 0 0 -4.5039,-5.92188 z m 7.63867,10.30469 a 128,128 0 0 1 3.81054,6.21289 128,128 0 0 0 -3.81054,-6.21289 z m 6.57617,11.03125 a 128,128 0 0 1 3.08203,6.37695 128,128 0 0 0 -3.08203,-6.37695 z m 5.4375,11.63867 a 128,128 0 0 1 2.37695,6.50782 128,128 0 0 0 -2.37695,-6.50782 z m 4.23242,12.09375 a 128,128 0 0 1 1.68555,6.59375 128,128 0 0 0 -1.68555,-6.59375 z m 3.00781,12.48633 a 128,128 0 0 1 0.99024,6.53906 128,128 0 0 0 -0.99024,-6.53906 z m 1.74024,12.71094 a 128,128 0 0 1 0.55078,10.95117 128,128 0 0 0 -0.55078,-10.95117 z"
         style="fill:#d2a577;fill-opacity:1" />
    </clipPath>
  </defs>
  <sodipodi:namedview
     id="base"
     pagecolor="#ffffff"
     bordercolor="#666666"
     borderopacity="1.0"
     inkscape:pageopacity="0.0"
     inkscape:pageshadow="2"
     inkscape:zoom="3.3632812"
     inkscape:cx="11.149824"
     inkscape:cy="128"
     inkscape:document-units="px"
     inkscape:current-layer="layer1"
     showgrid="false"
     units="px"
     inkscape:window-width="1920"
     inkscape:window-height="1048"
     inkscape:window-x="0"
     inkscape:window-y="0"
     inkscape:window-maximized="1" />
  <metadata
     id="metadata7">
    <rdf:RDF>
      <cc:Work
         rdf:about="">
        <dc:format>image/svg+xml</dc:format>
        <dc:type
           rdf:resource="http://purl.org/dc/dcmitype/StillImage" />
        <dc:title />
      </cc:Work>
    </rdf:RDF>
  </metadata>
  <g
     inkscape:label="Layer 1"
     inkscape:groupmode="layer"
     id="layer1"
     transform="translate(0,-796.36214)">
    <path
       style="fill:#d2a577;fill-opacity:1"
       d="M 127.83594,796.36506 A 128,128 0 0 0 0,924.3592 a 128,128 0 0 0 128,128 128,128 0 0 0 127.99219,-127.83789 L 127.83594,796.36506 Z m 12.42383,0.60742 a 128,128 0 0 1 7.76757,1.1211 128,128 0 0 0 -7.76757,-1.1211 z m 12.58789,1.84961 a 128,128 0 0 1 8.42187,2.08984 128,128 0 0 0 -8.42187,-2.08984 z m 12.36328,3.09766 a 128,128 0 0 1 8.94531,3.19726 128,128 0 0 0 -8.94531,-3.19726 z m 11.98437,4.30468 a 128,128 0 0 1 9.34375,4.43946 128,128 0 0 0 -9.34375,-4.43946 z m 11.49805,5.47852 a 128,128 0 0 1 9.49414,5.73438 128,128 0 0 0 -9.49414,-5.73438 z m 10.90625,6.59961 a 128,128 0 0 1 9.66016,7.24414 128,128 0 0 0 -9.66016,-7.24414 z m 10.17773,7.63867 a 128,128 0 0 1 9.38868,8.62891 128,128 0 0 0 -9.38868,-8.62891 z m 9.38868,8.62891 0.98046,0.98047 a 128,128 0 0 0 -0.98046,-0.98047 z m 7.65039,8.57226 a 128,128 0 0 1 4.5039,5.92188 128,128 0 0 0 -4.5039,-5.92188 z m 7.63867,10.30469 a 128,128 0 0 1 3.81054,6.21289 128,128 0 0 0 -3.81054,-6.21289 z m 6.57617,11.03125 a 128,128 0 0 1 3.08203,6.37695 128,128 0 0 0 -3.08203,-6.37695 z m 5.4375,11.63867 a 128,128 0 0 1 2.37695,6.50782 128,128 0 0 0 -2.37695,-6.50782 z m 4.23242,12.09375 a 128,128 0 0 1 1.68555,6.59375 128,128 0 0 0 -1.68555,-6.59375 z m 3.00781,12.48633 a 128,128 0 0 1 0.99024,6.53906 128,128 0 0 0 -0.99024,-6.53906 z m 1.74024,12.71094 A 128,128 0 0 1 256,924.3592 128,128 0 0 0 255.44922,913.40803 Z"
       id="path4957"
       inkscape:connector-curvature="0" />
    <path
       style="fill:#e3c6aa;fill-opacity:1"
       d="m 255.61415,924.52718 a 128,128 0 0 0 0.16406,-0.006 L 127.62197,796.36506 a 128,128 0 0 0 -0.008,0.16211 128,128 0 0 0 35.85352,88.80861 l 0.98046,0.98046 a 128,128 0 0 0 91.16603,38.21094 z"
       id="rect4961"
       inkscape:connector-curvature="0" />
    <text
       xml:space="preserve"
       style="font-style:normal;font-weight:normal;line-height:0%;font-family:sans-serif;letter-spacing:0px;word-spacing:0px;fill:#000000;fill-opacity:1;stroke:none;stroke-width:1px;stroke-linecap:butt;stroke-linejoin:miter;stroke-opacity:1"
       x="54.857143"
       y="965.15338"
       id="text4164"><tspan
         sodipodi:role="line"
         id="tspan4166"
         x="54.857143"
         y="965.15338"
         style="font-size:40px;line-height:1.25"> </tspan></text>
    <g
       transform="translate(1.5e-6,10.237682)"
       style="font-style:normal;font-variant:normal;font-weight:500;font-stretch:normal;font-size:100px;line-height:125%;font-family:'CMU Serif';-inkscape-font-specification:'CMU Serif Medium';letter-spacing:0px;word-spacing:0px;fill:#ffffff;fill-opacity:1;stroke:none;stroke-width:1px;stroke-linecap:butt;stroke-linejoin:miter;stroke-opacity:1"
       id="g4669">
      <path
         inkscape:connector-curvature="0"
         d="m 55.123047,113.15039 0,3.09961 2.400391,0 c 3.6,0 5.799609,0.30039 6.599609,0.90039 0.866667,0.6 1.300781,1.86745 1.300781,3.80078 l 0,52.69922 c 0,1.93333 -0.434114,3.20078 -1.300781,3.80078 -0.8,0.6 -2.99961,0.89844 -6.599609,0.89844 l -2.400391,0 0,3.10156 39.199219,0 c 6.466664,0 11.800004,-1.83333 16.000004,-5.5 4.2,-3.66666 6.30078,-7.93411 6.30078,-12.80078 0,-4.33333 -1.83334,-8.16667 -5.5,-11.5 -3.66667,-3.33333 -8.26745,-5.30039 -13.800784,-5.90039 4.866664,-0.93333 8.833724,-2.86549 11.900394,-5.79883 3.13333,-2.93333 4.70117,-6.23372 4.70117,-9.90039 0,-4.46667 -2.13373,-8.40078 -6.40039,-11.80078 -4.2,-3.4 -9.467448,-5.09961 -15.800784,-5.09961 l -36.599609,0 z m 23.5,3.09961 12.400391,0 c 4.399999,0 7.700388,1.5 9.900392,4.5 2.2,2.93333 3.29883,6.03411 3.29883,9.30078 0,3.66667 -1.39922,7.06589 -4.19922,10.19922 -2.733338,3.06667 -6.66745,4.59961 -11.800784,4.59961 l -14.5,0 0,-24.59961 c 0,-1.73333 0.234505,-2.83216 0.701172,-3.29883 0.533333,-0.46666 1.932552,-0.70117 4.199219,-0.70117 z m 45.968753,12.26758 0,2.40234 2.01562,0 c 2.89334,0 4.67404,0.23227 5.3457,0.69727 0.67167,0.465 1.00782,1.44698 1.00782,2.94531 l 0,40.84375 c 0,1.49833 -0.33615,2.47836 -1.00782,2.94336 -0.67166,0.465 -2.45236,0.69922 -5.3457,0.69922 l -2.01562,0 0,2.40234 c 1.80833,-0.155 5.73429,-0.23242 11.77929,-0.23242 6.09667,0 10.04909,0.0774 11.85743,0.23242 l 0,-2.40234 -2.01368,0 c -2.89333,0 -4.67599,-0.23422 -5.34765,-0.69922 -0.67167,-0.465 -1.00781,-1.44503 -1.00781,-2.94336 l 0,-40.84375 c 0,-1.49833 0.33614,-2.48031 1.00781,-2.94531 0.67166,-0.465 2.45432,-0.69727 5.34765,-0.69727 l 2.01368,0 0,-2.40234 c -1.80834,0.155 -5.7343,0.23242 -11.7793,0.23242 -6.09667,0 -10.04909,-0.0774 -11.85742,-0.23242 z m 28.62304,0 0,2.40234 1.85938,0 c 2.79,0 4.49523,0.23227 5.11523,0.69727 0.67167,0.465 1.00782,1.44698 1.00782,2.94531 l 0,40.84375 c 0,1.49833 -0.33615,2.47836 -1.00782,2.94336 -0.62,0.465 -2.32523,0.69922 -5.11523,0.69922 l -1.85938,0 0,2.40234 30.37891,0 c 5.01167,0 9.14539,-1.422 12.40039,-4.26367 3.255,-2.84167 4.88281,-6.14826 4.88281,-9.91992 0,-3.35834 -1.42005,-6.32878 -4.26172,-8.91211 -2.84166,-2.58333 -6.40697,-4.10727 -10.69531,-4.57227 3.77167,-0.72333 6.84599,-2.22276 9.22266,-4.49609 2.42833,-2.27333 3.64258,-4.83021 3.64258,-7.67188 0,-3.46166 -1.65427,-6.50953 -4.96094,-9.14453 -3.255,-2.635 -7.33581,-3.95312 -12.24414,-3.95312 l -28.36524,0 z m 18.21289,2.40234 9.60938,0 c 3.41,0 5.96687,1.16328 7.67187,3.48828 1.705,2.27334 2.5586,4.67537 2.5586,7.20703 0,2.84167 -1.08586,5.47792 -3.25586,7.90625 -2.11833,2.37667 -5.1662,3.56446 -9.14453,3.56446 l -11.23828,0 0,-19.06446 c 0,-1.34333 0.1813,-2.19692 0.54297,-2.55859 0.41333,-0.36167 1.49919,-0.54297 3.25585,-0.54297 z m -97.705074,16.13086 18.800782,0 c 4.533333,0 8.000392,1.69961 10.400392,5.09961 2.46666,3.33333 3.69922,6.96706 3.69922,10.90039 0,3.93333 -1.39922,7.46628 -4.19922,10.59961 -2.733337,3.13333 -6.500783,4.69922 -11.300783,4.69922 l -12.5,0 c -2.266667,0 -3.665886,-0.23255 -4.199219,-0.69922 -0.466667,-0.46667 -0.701172,-1.56745 -0.701172,-3.30078 l 0,-27.29883 z m 93.906254,7.74024 14.57031,0 c 3.51333,0 6.20055,1.31617 8.06055,3.95117 1.91166,2.58333 2.86718,5.40088 2.86718,8.44922 0,3.04833 -1.08586,5.78651 -3.25586,8.21484 -2.11833,2.42833 -5.03586,3.64258 -8.75586,3.64258 l -9.6875,0 c -1.75666,0 -2.84252,-0.1813 -3.25585,-0.54297 -0.36167,-0.36167 -0.54297,-1.21526 -0.54297,-2.55859 l 0,-21.15625 z"
         transform="translate(0,796.36214)"
         id="path4671" />
    </g>
    <g
       id="g4147"
       style="font-style:normal;font-variant:normal;font-weight:500;font-stretch:normal;font-size:100px;line-height:125%;font-family:'CMU Serif';-inkscape-font-specification:'CMU Serif Medium';letter-spacing:0px;word-spacing:0px;fill:#ffffff;fill-opacity:1;stroke:none;stroke-width:1px;stroke-linecap:butt;stroke-linejoin:miter;stroke-opacity:1"
       transform="translate(1.5e-6,10.237682)">
      <path
         id="path4149"
         transform="translate(0,796.36214)"
         d="m 55.123047,113.15039 0,3.09961 2.400391,0 c 3.6,0 5.799609,0.30039 6.599609,0.90039 0.866667,0.6 1.300781,1.86745 1.300781,3.80078 l 0,52.69922 c 0,1.93333 -0.434114,3.20078 -1.300781,3.80078 -0.8,0.6 -2.99961,0.89844 -6.599609,0.89844 l -2.400391,0 0,3.10156 39.199219,0 c 6.466664,0 11.800004,-1.83333 16.000004,-5.5 4.2,-3.66666 6.30078,-7.93411 6.30078,-12.80078 0,-4.33333 -1.83334,-8.16667 -5.5,-11.5 -3.66667,-3.33333 -8.26745,-5.30039 -13.800784,-5.90039 4.866664,-0.93333 8.833724,-2.86549 11.900394,-5.79883 3.13333,-2.93333 4.70117,-6.23372 4.70117,-9.90039 0,-4.46667 -2.13373,-8.40078 -6.40039,-11.80078 -4.2,-3.4 -9.467448,-5.09961 -15.800784,-5.09961 l -36.599609,0 z m 23.5,3.09961 12.400391,0 c 4.399999,0 7.700388,1.5 9.900392,4.5 2.2,2.93333 3.29883,6.03411 3.29883,9.30078 0,3.66667 -1.39922,7.06589 -4.19922,10.19922 -2.733338,3.06667 -6.66745,4.59961 -11.800784,4.59961 l -14.5,0 0,-24.59961 c 0,-1.73333 0.234505,-2.83216 0.701172,-3.29883 0.533333,-0.46666 1.932552,-0.70117 4.199219,-0.70117 z m 45.968753,12.26758 0,2.40234 2.01562,0 c 2.89334,0 4.67404,0.23227 5.3457,0.69727 0.67167,0.465 1.00782,1.44698 1.00782,2.94531 l 0,40.84375 c 0,1.49833 -0.33615,2.47836 -1.00782,2.94336 -0.67166,0.465 -2.45236,0.69922 -5.3457,0.69922 l -2.01562,0 0,2.40234 c 1.80833,-0.155 5.73429,-0.23242 11.77929,-0.23242 6.09667,0 10.04909,0.0774 11.85743,0.23242 l 0,-2.40234 -2.01368,0 c -2.89333,0 -4.67599,-0.23422 -5.34765,-0.69922 -0.67167,-0.465 -1.00781,-1.44503 -1.00781,-2.94336 l 0,-40.84375 c 0,-1.49833 0.33614,-2.48031 1.00781,-2.94531 0.67166,-0.465 2.45432,-0.69727 5.34765,-0.69727 l 2.01368,0 0,-2.40234 c -1.80834,0.155 -5.7343,0.23242 -11.7793,0.23242 -6.09667,0 -10.04909,-0.0774 -11.85742,-0.23242 z m 28.62304,0 0,2.40234 1.85938,0 c 2.79,0 4.49523,0.23227 5.11523,0.69727 0.67167,0.465 1.00782,1.44698 1.00782,2.94531 l 0,40.84375 c 0,1.49833 -0.33615,2.47836 -1.00782,2.94336 -0.62,0.465 -2.32523,0.69922 -5.11523,0.69922 l -1.85938,0 0,2.40234 30.37891,0 c 5.01167,0 9.14539,-1.422 12.40039,-4.26367 3.255,-2.84167 4.88281,-6.14826 4.88281,-9.91992 0,-3.35834 -1.42005,-6.32878 -4.26172,-8.91211 -2.84166,-2.58333 -6.40697,-4.10727 -10.69531,-4.57227 3.77167,-0.72333 6.84599,-2.22276 9.22266,-4.49609 2.42833,-2.27333 3.64258,-4.83021 3.64258,-7.67188 0,-3.46166 -1.65427,-6.50953 -4.96094,-9.14453 -3.255,-2.635 -7.33581,-3.95312 -12.24414,-3.95312 l -28.36524,0 z m 18.21289,2.40234 9.60938,0 c 3.41,0 5.96687,1.16328 7.67187,3.48828 1.705,2.27334 2.5586,4.67537 2.5586,7.20703 0,2.84167 -1.08586,5.47792 -3.25586,7.90625 -2.11833,2.37667 -5.1662,3.56446 -9.14453,3.56446 l -11.23828,0 0,-19.06446 c 0,-1.34333 0.1813,-2.19692 0.54297,-2.55859 0.41333,-0.36167 1.49919,-0.54297 3.25585,-0.54297 z m -97.705074,16.13086 18.800782,0 c 4.533333,0 8.000392,1.69961 10.400392,5.09961 2.46666,3.33333 3.69922,6.96706 3.69922,10.90039 0,3.93333 -1.39922,7.46628 -4.19922,10.59961 -2.733337,3.13333 -6.500783,4.69922 -11.300783,4.69922 l -12.5,0 c -2.266667,0 -3.665886,-0.23255 -4.199219,-0.69922 -0.466667,-0.46667 -0.701172,-1.56745 -0.701172,-3.30078 l 0,-27.29883 z m 93.906254,7.74024 14.57031,0 c 3.51333,0 6.20055,1.31617 8.06055,3.95117 1.91166,2.58333 2.86718,5.40088 2.86718,8.44922 0,3.04833 -1.08586,5.78651 -3.25586,8.21484 -2.11833,2.42833 -5.03586,3.64258 -8.75586,3.64258 l -9.6875,0 c -1.75666,0 -2.84252,-0.1813 -3.25585,-0.54297 -0.36167,-0.36167 -0.54297,-1.21526 -0.54297,-2.55859 l 0,-21.15625 z"
         inkscape:connector-curvature="0" />
    </g>
  </g>
</svg>
