<?xml version="1.0" encoding="UTF-8" standalone="no"?>
<!-- Created with Inkscape (http://www.inkscape.org/) -->

<svg
   sodipodi:docname="text-x-perl.svg"
   inkscape:version="1.1 (c68e22c387, 2021-05-23)"
   version="1.1"
   id="svg2"
   viewBox="0 0 256 256"
   height="256"
   width="256"
   xmlns:inkscape="http://www.inkscape.org/namespaces/inkscape"
   xmlns:sodipodi="http://sodipodi.sourceforge.net/DTD/sodipodi-0.dtd"
   xmlns="http://www.w3.org/2000/svg"
   xmlns:svg="http://www.w3.org/2000/svg"
   xmlns:rdf="http://www.w3.org/1999/02/22-rdf-syntax-ns#"
   xmlns:cc="http://creativecommons.org/ns#"
   xmlns:dc="http://purl.org/dc/elements/1.1/">
  <sodipodi:namedview
     inkscape:window-maximized="1"
     inkscape:window-y="0"
     inkscape:window-x="0"
     inkscape:window-height="1048"
     inkscape:window-width="1920"
     units="px"
     showgrid="false"
     inkscape:current-layer="layer1"
     inkscape:document-units="px"
     inkscape:cy="128.06827"
     inkscape:cx="127.90738"
     inkscape:zoom="3.1077176"
     inkscape:pageshadow="2"
     inkscape:pageopacity="0.0"
     borderopacity="1.0"
     bordercolor="#666666"
     pagecolor="#ffffff"
     id="base"
     inkscape:pagecheckerboard="0" />
  <defs
     id="defs4">
    <filter
       style="color-interpolation-filters:sRGB;"
       inkscape:label="Drop Shadow"
       id="filter4301">
      <feFlood
         flood-opacity="0.498039"
         flood-color="rgb(0,0,0)"
         result="flood"
         id="feFlood4303" />
      <feComposite
         in="flood"
         in2="SourceGraphic"
         operator="in"
         result="composite1"
         id="feComposite4305" />
      <feGaussianBlur
         in="composite1"
         stdDeviation="3.7"
         result="blur"
         id="feGaussianBlur4307" />
      <feOffset
         dx="3.8"
         dy="3.7"
         result="offset"
         id="feOffset4309" />
      <feComposite
         in="SourceGraphic"
         in2="offset"
         operator="over"
         result="composite2"
         id="feComposite4311" />
    </filter>
    <clipPath
       id="clipPath4266"
       clipPathUnits="userSpaceOnUse">
      <path
         inkscape:connector-curvature="0"
         id="path4268"
         d="m 153.38672,796.84847 -105.781251,0 c -7.804357,0 -14.087891,6.28158 -14.087891,14.08594 l 0,227.33989 c 0,7.8043 6.283534,14.0878 14.087891,14.0878 l 165.162111,0 c 7.80436,0 14.08594,-6.2835 14.08594,-14.0878 l 0,-154.82232 -73.4668,-86.60351 z"
         style="fill:#7e57c2;fill-opacity:1" />
    </clipPath>
    <clipPath
       clipPathUnits="userSpaceOnUse"
       id="clipPath4407">
      <path
         id="path4409"
         d="m 153.38672,796.84847 -105.781251,0 c -7.804357,0 -14.087891,6.28158 -14.087891,14.08594 l 0,227.33989 c 0,7.8043 6.283534,14.0878 14.087891,14.0878 l 165.162111,0 c 7.80436,0 14.08594,-6.2835 14.08594,-14.0878 l 0,-154.82232 -73.4668,-86.60351 z"
         style="fill:#7e57c2;fill-opacity:1"
         inkscape:connector-curvature="0" />
    </clipPath>
    <clipPath
       id="clipPath4610"
       clipPathUnits="userSpaceOnUse">
      <path
         inkscape:connector-curvature="0"
         id="path4612"
         d="m 153.38672,796.84847 -105.781251,0 c -7.804357,0 -14.087891,6.28158 -14.087891,14.08594 l 0,227.33989 c 0,7.8043 6.283534,14.0878 14.087891,14.0878 l 165.162111,0 c 7.80436,0 14.08594,-6.2835 14.08594,-14.0878 l 0,-154.82232 -73.4668,-86.60351 z"
         style="fill:#7e57c2;fill-opacity:1" />
    </clipPath>
    <clipPath
       clipPathUnits="userSpaceOnUse"
       id="clipPath4491">
      <g
         transform="translate(0,0.389985)"
         id="g4493">
        <path
           id="path4495"
           d="M 127.83594,796.36802 A 128,128 0 0 0 0,924.36216 128,128 0 0 0 128,1052.3622 128,128 0 0 0 255.99219,924.52427 L 127.83594,796.36802 Z m 12.42383,0.60742 a 128,128 0 0 1 7.76757,1.1211 128,128 0 0 0 -7.76757,-1.1211 z m 12.58789,1.84961 a 128,128 0 0 1 8.42187,2.08984 128,128 0 0 0 -8.42187,-2.08984 z m 12.36328,3.09766 a 128,128 0 0 1 8.94531,3.19726 128,128 0 0 0 -8.94531,-3.19726 z m 11.98437,4.30468 a 128,128 0 0 1 9.34375,4.43946 128,128 0 0 0 -9.34375,-4.43946 z m 11.49805,5.47852 a 128,128 0 0 1 9.49414,5.73438 128,128 0 0 0 -9.49414,-5.73438 z m 10.90625,6.59961 a 128,128 0 0 1 9.66016,7.24414 128,128 0 0 0 -9.66016,-7.24414 z m 10.17773,7.63867 a 128,128 0 0 1 9.38868,8.62891 128,128 0 0 0 -9.38868,-8.62891 z m 9.38868,8.62891 0.98046,0.98047 a 128,128 0 0 0 -0.98046,-0.98047 z m 7.65039,8.57226 a 128,128 0 0 1 4.5039,5.92188 128,128 0 0 0 -4.5039,-5.92188 z m 7.63867,10.30469 a 128,128 0 0 1 3.81054,6.21289 128,128 0 0 0 -3.81054,-6.21289 z m 6.57617,11.03125 a 128,128 0 0 1 3.08203,6.37695 128,128 0 0 0 -3.08203,-6.37695 z m 5.4375,11.63867 a 128,128 0 0 1 2.37695,6.50782 128,128 0 0 0 -2.37695,-6.50782 z m 4.23242,12.09375 a 128,128 0 0 1 1.68555,6.59375 128,128 0 0 0 -1.68555,-6.59375 z m 3.00781,12.48633 a 128,128 0 0 1 0.99024,6.53906 128,128 0 0 0 -0.99024,-6.53906 z m 1.74024,12.71094 A 128,128 0 0 1 256,924.36216 128,128 0 0 0 255.44922,913.41099 Z"
           style="fill:#7e57c2;fill-opacity:1"
           inkscape:connector-curvature="0" />
        <path
           inkscape:connector-curvature="0"
           id="path4497"
           d="m 255.61415,923.74423 a 128,128 0 0 0 0.16406,-0.006 L 127.62197,795.58211 a 128,128 0 0 0 -0.008,0.16211 128,128 0 0 0 35.85352,88.80861 l 0.98046,0.98046 a 128,128 0 0 0 91.16603,38.21094 z"
           style="fill:#b39ddb;fill-opacity:1" />
      </g>
    </clipPath>
  </defs>
  <metadata
     id="metadata7">
    <rdf:RDF>
      <cc:Work
         rdf:about="">
        <dc:format>image/svg+xml</dc:format>
        <dc:type
           rdf:resource="http://purl.org/dc/dcmitype/StillImage" />
        <dc:title />
      </cc:Work>
    </rdf:RDF>
  </metadata>
  <g
     inkscape:label="Layer 1"
     inkscape:groupmode="layer"
     id="layer1"
     transform="translate(0,-796.36214)">
    <g
       id="g4277"
       transform="translate(0,0.389985)">
      <path
         inkscape:connector-curvature="0"
         style="fill:#7e57c2;fill-opacity:1"
         d="M 127.83594,796.36802 A 128,128 0 0 0 0,924.36216 128,128 0 0 0 128,1052.3622 128,128 0 0 0 255.99219,924.52427 L 127.83594,796.36802 Z m 12.42383,0.60742 a 128,128 0 0 1 7.76757,1.1211 128,128 0 0 0 -7.76757,-1.1211 z m 12.58789,1.84961 a 128,128 0 0 1 8.42187,2.08984 128,128 0 0 0 -8.42187,-2.08984 z m 12.36328,3.09766 a 128,128 0 0 1 8.94531,3.19726 128,128 0 0 0 -8.94531,-3.19726 z m 11.98437,4.30468 a 128,128 0 0 1 9.34375,4.43946 128,128 0 0 0 -9.34375,-4.43946 z m 11.49805,5.47852 a 128,128 0 0 1 9.49414,5.73438 128,128 0 0 0 -9.49414,-5.73438 z m 10.90625,6.59961 a 128,128 0 0 1 9.66016,7.24414 128,128 0 0 0 -9.66016,-7.24414 z m 10.17773,7.63867 a 128,128 0 0 1 9.38868,8.62891 128,128 0 0 0 -9.38868,-8.62891 z m 9.38868,8.62891 0.98046,0.98047 a 128,128 0 0 0 -0.98046,-0.98047 z m 7.65039,8.57226 a 128,128 0 0 1 4.5039,5.92188 128,128 0 0 0 -4.5039,-5.92188 z m 7.63867,10.30469 a 128,128 0 0 1 3.81054,6.21289 128,128 0 0 0 -3.81054,-6.21289 z m 6.57617,11.03125 a 128,128 0 0 1 3.08203,6.37695 128,128 0 0 0 -3.08203,-6.37695 z m 5.4375,11.63867 a 128,128 0 0 1 2.37695,6.50782 128,128 0 0 0 -2.37695,-6.50782 z m 4.23242,12.09375 a 128,128 0 0 1 1.68555,6.59375 128,128 0 0 0 -1.68555,-6.59375 z m 3.00781,12.48633 a 128,128 0 0 1 0.99024,6.53906 128,128 0 0 0 -0.99024,-6.53906 z m 1.74024,12.71094 A 128,128 0 0 1 256,924.36216 128,128 0 0 0 255.44922,913.41099 Z"
         id="path4957" />
      <path
         style="fill:#b39ddb;fill-opacity:1"
         d="m 255.61415,923.74423 a 128,128 0 0 0 0.16406,-0.006 L 127.62197,795.58211 a 128,128 0 0 0 -0.008,0.16211 128,128 0 0 0 35.85352,88.80861 l 0.98046,0.98046 a 128,128 0 0 0 91.16603,38.21094 z"
         id="rect4961"
         inkscape:connector-curvature="0" />
    </g>
    <path
       d="m 141.23706,967.99795 a 143.45076,143.45076 0 0 1 1.7677,15.47764 15.251535,15.251535 0 0 1 -2.69265,9.06459 c -0.43165,1.5416 -1.72659,0 -2.65155,0 -2.28156,0 -3.1243,-2.46656 -4.35758,-3.9876 -1.23328,-1.52104 -0.34943,-2.8982 0.47275,-4.11093 0.88385,-0.63719 1.23328,-2.05546 2.50767,-2.05546 1.27439,0 1.10995,-1.74714 0.92496,-2.6721 0.84274,-1.29494 0.32887,-3.20652 1.15106,-4.62479 1.47993,-0.65775 1.04828,-2.95987 1.56215,-4.25481 0.41109,-0.92496 0,-2.69266 1.17161,-3.08319 0,0 0.14388,0 0.12333,0.20554 m -1.41827,-52.78428 c -1.93213,-0.2261 -3.39151,1.08939 -5.01533,1.82936 a 36.998332,36.998332 0 0 1 -4.11091,1.10995 c -1.0072,2.05546 -3.3299,3.26818 -4.5837,5.20032 a 20.554629,20.554629 0 0 1 -6.8652,9.70178 c -4.5632,2.36379 -6.8653,7.50244 -8.3658,12.33278 -0.5138,1.0894 -0.4316,2.69266 -0.9866,3.61762 -1.8088,0.51386 -0.8427,-1.84992 -1.0483,-2.98042 -0.2672,-1.68548 1.2127,-2.77488 1.3155,-4.41925 a 6.7624727,6.7624727 0 0 0 0.74,-3.80261 c -0.2056,-2.93931 0.6783,-6.51581 -1.3977,-8.92071 -1.2333,-0.71941 -0.8428,-2.24045 -1.295,-3.41206 a 14.943215,14.943215 0 0 0 -4.5837,-4.11093 c -1.4799,-0.14388 -2.8365,-2.05546 -4.3575,-1.17161 -0.9456,1.10995 -2.6927,1.08939 -3.2477,2.56933 -0.3494,1.84991 -2.4254,1.3566 -3.782,1.8088 -1.7266,0.67831 -3.9465,0 -5.3648,1.37716 -1.4183,1.37716 -3.7409,3.39152 -3.0421,5.71419 1.6238,3.18597 5.817,1.58271 8.0986,3.51484 a 65.774812,65.774812 0 0 1 -2.4872,6.28972 37.12166,37.12166 0 0 0 -0.1644,8.40684 c 0.4317,2.79543 -0.2878,6.39249 2.0555,8.36573 1.336,0.49332 1.2538,2.05547 1.7677,3.20653 0.5138,1.15106 1.5005,-0.4111 1.9115,0.69885 1.1922,0.65775 0.1234,2.05547 0.7811,2.87765 a 5.6730776,5.6730776 0 0 1 2.8982,1.5416 24.295572,24.295572 0 0 1 3.5149,2.98042 c 0.8222,1.68548 1.8704,-1.64437 2.7748,-0.39054 a 2.0554629,2.0554629 0 0 0 2.8982,1.02774 10.482861,10.482861 0 0 0 4.6043,-1.99381 c 0.8838,3.14486 0.2055,6.55693 0.5961,9.80456 a 42.93862,42.93862 0 0 1 1.0277,7.21468 34.655105,34.655105 0 0 1 1.0688,7.31745 26.104379,26.104379 0 0 1 -2.5076,14.98428 3.6176147,3.6176147 0 0 1 -2.8571,2.8777 c -1.0277,0.4728 -3.1654,1.3155 -2.446,2.7954 2.3843,2.0555 6.1664,1.8294 8.9001,0.7811 1.8088,-0.8838 0.2467,-3.0832 1.1716,-4.4192 1.2128,-4.6865 0.6167,-9.70184 2.0555,-14.38829 a 13.812711,13.812711 0 0 0 1.2127,-7.58466 c 0.2878,-1.5827 -0.3699,-3.49429 0.6578,-4.78923 a 6.5980358,6.5980358 0 0 1 1.6649,-4.31647 54.346438,54.346438 0 0 0 0.5139,-7.29689 11.202273,11.202273 0 0 1 4.4809,-0.45221 c 0,1.35661 -0.9661,2.91876 -0.6783,4.43981 a 7.153011,7.153011 0 0 1 -0.925,4.95366 c -0.6372,2.6721 -1.0688,5.96084 0.5961,8.22185 2.7543,3.02153 6.35139,5.15921 8.96182,8.38629 a 1.8910259,1.8910259 0 0 1 0.12333,2.83654 5.4675312,5.4675312 0 0 1 -3.49428,3.7204 c -1.08937,0.4316 -2.83657,2.0555 -1.56217,3.186 a 13.58661,13.58661 0 0 0 7.708,-0.5139 c 1.68548,-0.6166 1.06884,-2.6516 1.72659,-3.9259 a 40.574838,40.574838 0 0 1 2.50766,3.8437 c 1.04829,1.5621 2.8571,0.2672 4.11093,-0.2261 a 12.949416,12.949416 0 0 0 -1.33605,-6.61862 c -0.57553,-1.35661 -2.81599,-1.39772 -2.71321,-3.06264 1.10995,-4.11093 3.86427,-7.31745 6.04306,-10.79118 1.80881,-1.72659 0.4522,-4.29592 0.55497,-6.47471 a 24.665555,24.665555 0 0 1 3.84372,-15.95039 57.861282,57.861282 0 0 0 2.446,7.70798 22.610092,22.610092 0 0 0 3.82316,8.13964 c 0.84274,2.91875 0.61664,6.16639 1.17161,9.18792 a 38.354938,38.354938 0 0 1 -0.86329,15.6626 c 0.14388,1.8705 -1.62382,3.2477 -1.45938,5.077 0.49331,1.6855 2.46656,0.3289 3.49429,1.0483 a 3.9053795,3.9053795 0 0 0 4.68646,-2.0555 23.041739,23.041739 0 0 1 -0.8633,-4.3781 27.358211,27.358211 0 0 1 -0.9044,-13.40161 c 0.16443,-2.42545 1.62381,-5.38532 -0.26721,-7.46133 -0.51387,-2.2199 0.36998,-4.62479 -0.16444,-6.90636 a 47.275648,47.275648 0 0 1 -0.43165,-17.77975 c 0.32888,-0.82219 0,-2.34323 0.88385,-2.79543 a 6.7624727,6.7624727 0 0 1 1.10995,4.4398 13.58661,13.58661 0 0 1 0.28776,7.50244 c -1.50048,1.91158 -0.57553,4.50146 -0.39053,6.6597 0.24665,1.52104 1.82936,0.43164 2.05546,-0.51387 a 43.020837,43.020837 0 0 0 3.32985,-8.07797 c 0.94551,-1.27439 0,-2.77487 0,-4.11092 1.45938,-0.185 0.9044,-1.82937 0.12333,-2.54878 -0.78108,-2.63099 -0.59609,-5.67308 -2.36379,-7.91353 a 37.902736,37.902736 0 0 1 -6.86524,-9.82511 c -1.87047,-5.89918 -7.21468,-9.82512 -9.02348,-15.78596 a 12.805534,12.805534 0 0 0 -5.73474,-8.36573 27.214329,27.214329 0 0 0 -4.11093,-1.50049 22.363436,22.363436 0 0 1 -3.63817,0.4522"
       fill="#004065"
       id="path4"
       style="stroke-width:2.05546;fill:#ffffff" />
  </g>
</svg>
