<?xml version="1.0" encoding="UTF-8" standalone="no"?>
<!-- Created with Inkscape (http://www.inkscape.org/) -->

<svg
   xmlns:dc="http://purl.org/dc/elements/1.1/"
   xmlns:cc="http://creativecommons.org/ns#"
   xmlns:rdf="http://www.w3.org/1999/02/22-rdf-syntax-ns#"
   xmlns:svg="http://www.w3.org/2000/svg"
   xmlns="http://www.w3.org/2000/svg"
   xmlns:sodipodi="http://sodipodi.sourceforge.net/DTD/sodipodi-0.dtd"
   xmlns:inkscape="http://www.inkscape.org/namespaces/inkscape"
   sodipodi:docname="text-x-c++src.svg"
   inkscape:version="0.92.4 (unknown)"
   version="1.1"
   id="svg2"
   viewBox="0 0 256 256"
   height="256"
   width="256">
  <sodipodi:namedview
     inkscape:window-maximized="1"
     inkscape:window-y="0"
     inkscape:window-x="0"
     inkscape:window-height="1048"
     inkscape:window-width="1920"
     units="px"
     showgrid="false"
     inkscape:current-layer="layer1"
     inkscape:document-units="px"
     inkscape:cy="128"
     inkscape:cx="-131.88614"
     inkscape:zoom="2.0585938"
     inkscape:pageshadow="2"
     inkscape:pageopacity="0.0"
     borderopacity="1.0"
     bordercolor="#666666"
     pagecolor="#ffffff"
     id="base" />
  <defs
     id="defs4">
    <filter
       style="color-interpolation-filters:sRGB;"
       inkscape:label="Drop Shadow"
       id="filter4301">
      <feFlood
         flood-opacity="0.498039"
         flood-color="rgb(0,0,0)"
         result="flood"
         id="feFlood4303" />
      <feComposite
         in="flood"
         in2="SourceGraphic"
         operator="in"
         result="composite1"
         id="feComposite4305" />
      <feGaussianBlur
         in="composite1"
         stdDeviation="3.7"
         result="blur"
         id="feGaussianBlur4307" />
      <feOffset
         dx="3.8"
         dy="3.7"
         result="offset"
         id="feOffset4309" />
      <feComposite
         in="SourceGraphic"
         in2="offset"
         operator="over"
         result="composite2"
         id="feComposite4311" />
    </filter>
    <clipPath
       id="clipPath4266"
       clipPathUnits="userSpaceOnUse">
      <path
         inkscape:connector-curvature="0"
         id="path4268"
         d="m 153.38672,796.84847 -105.781251,0 c -7.804357,0 -14.087891,6.28158 -14.087891,14.08594 l 0,227.33989 c 0,7.8043 6.283534,14.0878 14.087891,14.0878 l 165.162111,0 c 7.80436,0 14.08594,-6.2835 14.08594,-14.0878 l 0,-154.82232 -73.4668,-86.60351 z"
         style="fill:#7e57c2;fill-opacity:1" />
    </clipPath>
    <clipPath
       clipPathUnits="userSpaceOnUse"
       id="clipPath4372">
      <path
         id="path4374"
         d="m 153.38672,796.84847 -105.781251,0 c -7.804357,0 -14.087891,6.28158 -14.087891,14.08594 l 0,227.33989 c 0,7.8043 6.283534,14.0878 14.087891,14.0878 l 165.162111,0 c 7.80436,0 14.08594,-6.2835 14.08594,-14.0878 l 0,-154.82232 -73.4668,-86.60351 z"
         style="fill:#7e57c2;fill-opacity:1"
         inkscape:connector-curvature="0" />
    </clipPath>
    <clipPath
       id="clipPath6685"
       clipPathUnits="userSpaceOnUse">
      <path
         inkscape:connector-curvature="0"
         id="path6687"
         d="m 153.38672,0.48632812 -105.781251,0 c -7.804357,0 -14.087891,6.28158058 -14.087891,14.08593788 l 0,227.339844 c 0,7.80436 6.283534,14.08789 14.087891,14.08789 l 165.162111,0 c 7.80436,0 14.08594,-6.28353 14.08594,-14.08789 l 0,-154.822266 -73.4668,-86.60351588 z"
         style="fill:#7e57c2;fill-opacity:1" />
    </clipPath>
    <clipPath
       clipPathUnits="userSpaceOnUse"
       id="clipPath4404">
      <g
         transform="translate(0,0.389985)"
         id="g4406">
        <path
           style="fill:#7e57c2;fill-opacity:1"
           d="M 127.83594,796.36802 A 128,128 0 0 0 0,924.36216 128,128 0 0 0 128,1052.3622 128,128 0 0 0 255.99219,924.52427 L 127.83594,796.36802 Z m 12.42383,0.60742 a 128,128 0 0 1 7.76757,1.1211 128,128 0 0 0 -7.76757,-1.1211 z m 12.58789,1.84961 a 128,128 0 0 1 8.42187,2.08984 128,128 0 0 0 -8.42187,-2.08984 z m 12.36328,3.09766 a 128,128 0 0 1 8.94531,3.19726 128,128 0 0 0 -8.94531,-3.19726 z m 11.98437,4.30468 a 128,128 0 0 1 9.34375,4.43946 128,128 0 0 0 -9.34375,-4.43946 z m 11.49805,5.47852 a 128,128 0 0 1 9.49414,5.73438 128,128 0 0 0 -9.49414,-5.73438 z m 10.90625,6.59961 a 128,128 0 0 1 9.66016,7.24414 128,128 0 0 0 -9.66016,-7.24414 z m 10.17773,7.63867 a 128,128 0 0 1 9.38868,8.62891 128,128 0 0 0 -9.38868,-8.62891 z m 9.38868,8.62891 0.98046,0.98047 a 128,128 0 0 0 -0.98046,-0.98047 z m 7.65039,8.57226 a 128,128 0 0 1 4.5039,5.92188 128,128 0 0 0 -4.5039,-5.92188 z m 7.63867,10.30469 a 128,128 0 0 1 3.81054,6.21289 128,128 0 0 0 -3.81054,-6.21289 z m 6.57617,11.03125 a 128,128 0 0 1 3.08203,6.37695 128,128 0 0 0 -3.08203,-6.37695 z m 5.4375,11.63867 a 128,128 0 0 1 2.37695,6.50782 128,128 0 0 0 -2.37695,-6.50782 z m 4.23242,12.09375 a 128,128 0 0 1 1.68555,6.59375 128,128 0 0 0 -1.68555,-6.59375 z m 3.00781,12.48633 a 128,128 0 0 1 0.99024,6.53906 128,128 0 0 0 -0.99024,-6.53906 z m 1.74024,12.71094 A 128,128 0 0 1 256,924.36216 128,128 0 0 0 255.44922,913.41099 Z"
           id="path4408"
           inkscape:connector-curvature="0" />
        <path
           style="fill:#b39ddb;fill-opacity:1"
           d="m 255.61415,923.74423 a 128,128 0 0 0 0.16406,-0.006 L 127.62197,795.58211 a 128,128 0 0 0 -0.008,0.16211 128,128 0 0 0 35.85352,88.80861 l 0.98046,0.98046 a 128,128 0 0 0 91.16603,38.21094 z"
           id="path4410"
           inkscape:connector-curvature="0" />
      </g>
    </clipPath>
  </defs>
  <metadata
     id="metadata7">
    <rdf:RDF>
      <cc:Work
         rdf:about="">
        <dc:format>image/svg+xml</dc:format>
        <dc:type
           rdf:resource="http://purl.org/dc/dcmitype/StillImage" />
        <dc:title />
      </cc:Work>
    </rdf:RDF>
  </metadata>
  <g
     inkscape:label="Layer 1"
     inkscape:groupmode="layer"
     id="layer1"
     transform="translate(0,-796.36214)">
    <g
       id="g4338"
       transform="translate(0,0.389985)">
      <path
         inkscape:connector-curvature="0"
         id="path4957"
         d="M 127.83594,796.36802 A 128,128 0 0 0 0,924.36216 128,128 0 0 0 128,1052.3622 128,128 0 0 0 255.99219,924.52427 L 127.83594,796.36802 Z m 12.42383,0.60742 a 128,128 0 0 1 7.76757,1.1211 128,128 0 0 0 -7.76757,-1.1211 z m 12.58789,1.84961 a 128,128 0 0 1 8.42187,2.08984 128,128 0 0 0 -8.42187,-2.08984 z m 12.36328,3.09766 a 128,128 0 0 1 8.94531,3.19726 128,128 0 0 0 -8.94531,-3.19726 z m 11.98437,4.30468 a 128,128 0 0 1 9.34375,4.43946 128,128 0 0 0 -9.34375,-4.43946 z m 11.49805,5.47852 a 128,128 0 0 1 9.49414,5.73438 128,128 0 0 0 -9.49414,-5.73438 z m 10.90625,6.59961 a 128,128 0 0 1 9.66016,7.24414 128,128 0 0 0 -9.66016,-7.24414 z m 10.17773,7.63867 a 128,128 0 0 1 9.38868,8.62891 128,128 0 0 0 -9.38868,-8.62891 z m 9.38868,8.62891 0.98046,0.98047 a 128,128 0 0 0 -0.98046,-0.98047 z m 7.65039,8.57226 a 128,128 0 0 1 4.5039,5.92188 128,128 0 0 0 -4.5039,-5.92188 z m 7.63867,10.30469 a 128,128 0 0 1 3.81054,6.21289 128,128 0 0 0 -3.81054,-6.21289 z m 6.57617,11.03125 a 128,128 0 0 1 3.08203,6.37695 128,128 0 0 0 -3.08203,-6.37695 z m 5.4375,11.63867 a 128,128 0 0 1 2.37695,6.50782 128,128 0 0 0 -2.37695,-6.50782 z m 4.23242,12.09375 a 128,128 0 0 1 1.68555,6.59375 128,128 0 0 0 -1.68555,-6.59375 z m 3.00781,12.48633 a 128,128 0 0 1 0.99024,6.53906 128,128 0 0 0 -0.99024,-6.53906 z m 1.74024,12.71094 A 128,128 0 0 1 256,924.36216 128,128 0 0 0 255.44922,913.41099 Z"
         style="fill:#7e57c2;fill-opacity:1" />
      <path
         inkscape:connector-curvature="0"
         id="rect4961"
         d="m 255.61415,923.74423 a 128,128 0 0 0 0.16406,-0.006 L 127.62197,795.58211 a 128,128 0 0 0 -0.008,0.16211 128,128 0 0 0 35.85352,88.80861 l 0.98046,0.98046 a 128,128 0 0 0 91.16603,38.21094 z"
         style="fill:#b39ddb;fill-opacity:1" />
    </g>
    <path
       id="path6385"
       d="m 77.367182,915.39256 c -7.84,0 -14.42643,2.66667 -19.75977,8 -5.38666,5.49334 -8.08007,12.37396 -8.08007,20.64063 0,7.84 2.4527,14.39969 7.35937,19.67969 5.33333,5.65333 12.32094,8.48046 20.96094,8.48046 6.29333,0 11.84062,-1.89302 16.64062,-5.67968 1.38667,-1.06667 3.413424,-3.06667 6.080088,-6 l -2.400394,-2 c -0.74667,0.8 -1.49357,1.54494 -2.240234,2.23828 -5.33334,5.06666 -10.72016,7.60156 -16.16016,7.60156 -10.66667,-0.0533 -16.02674,-8.37427 -16.08008,-24.96094 0,-3.89333 0.2942,-7.36039 0.88086,-10.40039 1.81334,-9.97333 6.42651,-14.95898 13.83985,-14.95898 1.12,0 2.23937,0.13372 3.35937,0.40039 5.97333,1.54667 11.09271,6.85325 15.359384,15.91992 l 2,0 0,-18.7207 -2.16016,0 c -0.16,0.32 -0.29177,0.64094 -0.39844,0.96093 -0.853334,1.81334 -1.894434,2.71876 -3.121094,2.71876 -0.8,0 -2.16008,-0.39922 -4.08008,-1.19922 -4.37333,-1.81334 -8.37333,-2.72071 -12,-2.72071 z m 49.203128,6.64063 0,17.83984 -18.32031,0 0,7.67969 18.32031,0 0,18 7.67969,0 0,-18 18.16016,0 0,-7.67969 -18.16016,0 0,-17.83984 -7.67969,0 z m 54.0625,0 0,17.83984 -18.32031,0 0,7.67969 18.32031,0 0,18 7.67969,0 0,-18 18.16016,0 0,-7.67969 -18.16016,0 0,-17.83984 -7.67969,0 z"
       style="font-style:normal;font-variant:normal;font-weight:bold;font-stretch:normal;font-size:medium;line-height:125%;font-family:FreeSerif;-inkscape-font-specification:'FreeSerif Bold';letter-spacing:0px;word-spacing:0px;fill:#ffffff;fill-opacity:1;stroke:none;stroke-width:1px;stroke-linecap:butt;stroke-linejoin:miter;stroke-opacity:1"
       inkscape:connector-curvature="0" />
  </g>
</svg>
