<?xml version="1.0" encoding="UTF-8" standalone="no"?>
<!-- Created with Inkscape (http://www.inkscape.org/) -->

<svg
   xmlns:dc="http://purl.org/dc/elements/1.1/"
   xmlns:cc="http://creativecommons.org/ns#"
   xmlns:rdf="http://www.w3.org/1999/02/22-rdf-syntax-ns#"
   xmlns:svg="http://www.w3.org/2000/svg"
   xmlns="http://www.w3.org/2000/svg"
   xmlns:xlink="http://www.w3.org/1999/xlink"
   xmlns:sodipodi="http://sodipodi.sourceforge.net/DTD/sodipodi-0.dtd"
   xmlns:inkscape="http://www.inkscape.org/namespaces/inkscape"
   width="256"
   height="256"
   viewBox="0 0 256 256"
   id="svg2"
   version="1.1"
   inkscape:version="0.92.4 (unknown)"
   sodipodi:docname="text-x-makefile.svg">
  <sodipodi:namedview
     id="base"
     pagecolor="#ffffff"
     bordercolor="#666666"
     borderopacity="1.0"
     inkscape:pageopacity="0.0"
     inkscape:pageshadow="2"
     inkscape:zoom="3.2851562"
     inkscape:cx="16.589772"
     inkscape:cy="128"
     inkscape:document-units="px"
     inkscape:current-layer="layer1"
     showgrid="false"
     units="px"
     inkscape:window-width="1920"
     inkscape:window-height="1048"
     inkscape:window-x="0"
     inkscape:window-y="0"
     inkscape:window-maximized="1" />
  <defs
     id="defs4">
    <filter
       id="filter4301"
       inkscape:label="Drop Shadow"
       style="color-interpolation-filters:sRGB;">
      <feFlood
         id="feFlood4303"
         result="flood"
         flood-color="rgb(0,0,0)"
         flood-opacity="0.498039" />
      <feComposite
         id="feComposite4305"
         result="composite1"
         operator="in"
         in2="SourceGraphic"
         in="flood" />
      <feGaussianBlur
         id="feGaussianBlur4307"
         result="blur"
         stdDeviation="3.7"
         in="composite1" />
      <feOffset
         id="feOffset4309"
         result="offset"
         dy="3.7"
         dx="3.8" />
      <feComposite
         id="feComposite4311"
         result="composite2"
         operator="over"
         in2="offset"
         in="SourceGraphic" />
    </filter>
    <clipPath
       clipPathUnits="userSpaceOnUse"
       id="clipPath5055">
      <path
         style="fill:#db4437;fill-opacity:1"
         d="m 153.38672,796.84847 -105.781251,0 c -7.804357,0 -14.087891,6.28158 -14.087891,14.08594 l 0,227.33989 c 0,7.8043 6.283534,14.0878 14.087891,14.0878 l 165.162111,0 c 7.80436,0 14.08594,-6.2835 14.08594,-14.0878 l 0,-154.82232 -73.4668,-86.60351 z"
         id="path5057"
         inkscape:connector-curvature="0" />
    </clipPath>
    <clipPath
       id="clipPath4563"
       clipPathUnits="userSpaceOnUse">
      <path
         inkscape:connector-curvature="0"
         style="fill:#db4437;fill-opacity:1"
         d="m 153.38672,796.84847 -105.781251,0 c -7.804357,0 -14.087891,6.28158 -14.087891,14.08594 l 0,227.33989 c 0,7.8043 6.283534,14.0878 14.087891,14.0878 l 165.162111,0 c 7.80436,0 14.08594,-6.2835 14.08594,-14.0878 l 0,-154.82232 -73.4668,-86.60351 z"
         id="path4565" />
    </clipPath>
    <linearGradient
       gradientTransform="matrix(0.06639038,0,0,0.06639038,197.22365,1775.5634)"
       gradientUnits="userSpaceOnUse"
       y2="1721.275"
       x2="-1549.978"
       y1="1794.8141"
       x1="-678.82251"
       id="linearGradient3675"
       xlink:href="#linearGradient3669"
       inkscape:collect="always" />
    <linearGradient
       id="linearGradient3669"
       inkscape:collect="always">
      <stop
         id="stop3671"
         offset="0"
         style="stop-color:#01a300;stop-opacity:1" />
      <stop
         id="stop3673"
         offset="1"
         style="stop-color:#01df00;stop-opacity:1" />
    </linearGradient>
    <linearGradient
       gradientTransform="matrix(0.06639038,0,0,0.06639038,167.25409,1775.5634)"
       gradientUnits="userSpaceOnUse"
       y2="1721.275"
       x2="-316.78384"
       y1="680.41388"
       x1="-933.38092"
       id="linearGradient3659"
       xlink:href="#linearGradient3653"
       inkscape:collect="always" />
    <linearGradient
       id="linearGradient3653"
       inkscape:collect="always">
      <stop
         id="stop3655"
         offset="0"
         style="stop-color:#b40e0e;stop-opacity:1" />
      <stop
         id="stop3657"
         offset="1"
         style="stop-color:#ff5959;stop-opacity:1" />
    </linearGradient>
    <linearGradient
       gradientTransform="matrix(0.06639038,0,0,0.06639038,224.4628,1775.5634)"
       gradientUnits="userSpaceOnUse"
       y2="454.13968"
       x2="-1086.1161"
       y1="1387.5206"
       x1="-1527.3507"
       id="linearGradient3651"
       xlink:href="#linearGradient3645"
       inkscape:collect="always" />
    <linearGradient
       id="linearGradient3645"
       inkscape:collect="always">
      <stop
         id="stop3647"
         offset="0"
         style="stop-color:#1011a1;stop-opacity:1" />
      <stop
         id="stop3649"
         offset="1"
         style="stop-color:#6969e1;stop-opacity:1" />
    </linearGradient>
    <clipPath
       clipPathUnits="userSpaceOnUse"
       id="clipPath4402">
      <path
         style="fill:#db4437;fill-opacity:1"
         d="m 153.38672,796.84847 -105.781251,0 c -7.804357,0 -14.087891,6.28158 -14.087891,14.08594 l 0,227.33989 c 0,7.8043 6.283534,14.0878 14.087891,14.0878 l 165.162111,0 c 7.80436,0 14.08594,-6.2835 14.08594,-14.0878 l 0,-154.82232 -73.4668,-86.60351 z"
         id="path4404"
         inkscape:connector-curvature="0" />
    </clipPath>
    <clipPath
       id="clipPath5280"
       clipPathUnits="userSpaceOnUse">
      <path
         inkscape:connector-curvature="0"
         style="fill:#db4437;fill-opacity:1"
         d="m 153.28865,-10.32993 -103.34851,0 c -7.624873,0 -13.7639,6.0316357 -13.7639,13.5254566 l 0,218.2939634 c 0,7.49382 6.139027,13.52733 13.7639,13.52733 l 161.36374,0 c 7.62487,0 13.76199,-6.03351 13.76199,-13.52733 l 0,-148.66187 -71.77722,-83.15755 z"
         id="path5282" />
    </clipPath>
    <clipPath
       clipPathUnits="userSpaceOnUse"
       id="clipPath4449">
      <g
         transform="matrix(0.97749284,0,0,0.94939596,3.3666869,-764.04768)"
         id="g4451">
        <path
           id="path4453"
           d="M 127.83594,796.36802 A 128,128 0 0 0 0,924.36216 128,128 0 0 0 128,1052.3622 128,128 0 0 0 255.99219,924.52427 L 127.83594,796.36802 Z m 12.42383,0.60742 a 128,128 0 0 1 7.76757,1.1211 128,128 0 0 0 -7.76757,-1.1211 z m 12.58789,1.84961 a 128,128 0 0 1 8.42187,2.08984 128,128 0 0 0 -8.42187,-2.08984 z m 12.36328,3.09766 a 128,128 0 0 1 8.94531,3.19726 128,128 0 0 0 -8.94531,-3.19726 z m 11.98437,4.30468 a 128,128 0 0 1 9.34375,4.43946 128,128 0 0 0 -9.34375,-4.43946 z m 11.49805,5.47852 a 128,128 0 0 1 9.49414,5.73438 128,128 0 0 0 -9.49414,-5.73438 z m 10.90625,6.59961 a 128,128 0 0 1 9.66016,7.24414 128,128 0 0 0 -9.66016,-7.24414 z m 10.17773,7.63867 a 128,128 0 0 1 9.38868,8.62891 128,128 0 0 0 -9.38868,-8.62891 z m 9.38868,8.62891 0.98046,0.98047 a 128,128 0 0 0 -0.98046,-0.98047 z m 7.65039,8.57226 a 128,128 0 0 1 4.5039,5.92188 128,128 0 0 0 -4.5039,-5.92188 z m 7.63867,10.30469 a 128,128 0 0 1 3.81054,6.21289 128,128 0 0 0 -3.81054,-6.21289 z m 6.57617,11.03125 a 128,128 0 0 1 3.08203,6.37695 128,128 0 0 0 -3.08203,-6.37695 z m 5.4375,11.63867 a 128,128 0 0 1 2.37695,6.50782 128,128 0 0 0 -2.37695,-6.50782 z m 4.23242,12.09375 a 128,128 0 0 1 1.68555,6.59375 128,128 0 0 0 -1.68555,-6.59375 z m 3.00781,12.48633 a 128,128 0 0 1 0.99024,6.53906 128,128 0 0 0 -0.99024,-6.53906 z m 1.74024,12.71094 A 128,128 0 0 1 256,924.36216 128,128 0 0 0 255.44922,913.41099 Z"
           style="fill:#db4437;fill-opacity:1"
           inkscape:connector-curvature="0" />
        <path
           inkscape:connector-curvature="0"
           id="path4455"
           d="m 255.61415,923.74423 a 128,128 0 0 0 0.16406,-0.006 L 127.62197,795.58211 a 128,128 0 0 0 -0.008,0.16211 128,128 0 0 0 35.85352,88.80861 l 0.98046,0.98046 a 128,128 0 0 0 91.16603,38.21094 z"
           style="fill:#ef7e74;fill-opacity:1" />
      </g>
    </clipPath>
  </defs>
  <metadata
     id="metadata7">
    <rdf:RDF>
      <cc:Work
         rdf:about="">
        <dc:format>image/svg+xml</dc:format>
        <dc:type
           rdf:resource="http://purl.org/dc/dcmitype/StillImage" />
        <dc:title />
      </cc:Work>
    </rdf:RDF>
  </metadata>
  <g
     transform="translate(0,-796.36214)"
     id="layer1"
     inkscape:groupmode="layer"
     inkscape:label="Layer 1">
    <path
       sodipodi:nodetypes="cccc"
       id="path2828"
       d="m 160.68212,1844.3652 -65.369096,55.8834 59.872126,-119.6328 5.49697,63.7494 z"
       style="fill:url(#linearGradient3651);fill-opacity:1;fill-rule:nonzero;stroke:#000000;stroke-width:0.06639037;stroke-opacity:1"
       inkscape:connector-curvature="0" />
    <path
       sodipodi:nodetypes="cccc"
       id="path2828-4"
       d="m 106.50266,1879.2647 -8.495142,-98.6596 59.948792,119.6544 -51.45365,-20.9948 z"
       style="fill:url(#linearGradient3659);fill-opacity:1;fill-rule:nonzero;stroke:#000000;stroke-width:0.06639037;stroke-opacity:1"
       inkscape:connector-curvature="0" />
    <path
       sodipodi:nodetypes="cccc"
       id="path2828-1"
       d="m 106.89352,1866.9056 81.09386,33.3395 -119.897791,-0.013 38.803931,-33.3263 z"
       style="fill:url(#linearGradient3675);fill-opacity:1;fill-rule:nonzero;stroke:#000000;stroke-width:0.06639037;stroke-opacity:1"
       inkscape:connector-curvature="0" />
    <g
       id="g4277"
       transform="translate(0,0.389985)">
      <path
         inkscape:connector-curvature="0"
         style="fill:#db4437;fill-opacity:1"
         d="M 127.83594,796.36802 A 128,128 0 0 0 0,924.36216 128,128 0 0 0 128,1052.3622 128,128 0 0 0 255.99219,924.52427 L 127.83594,796.36802 Z m 12.42383,0.60742 a 128,128 0 0 1 7.76757,1.1211 128,128 0 0 0 -7.76757,-1.1211 z m 12.58789,1.84961 a 128,128 0 0 1 8.42187,2.08984 128,128 0 0 0 -8.42187,-2.08984 z m 12.36328,3.09766 a 128,128 0 0 1 8.94531,3.19726 128,128 0 0 0 -8.94531,-3.19726 z m 11.98437,4.30468 a 128,128 0 0 1 9.34375,4.43946 128,128 0 0 0 -9.34375,-4.43946 z m 11.49805,5.47852 a 128,128 0 0 1 9.49414,5.73438 128,128 0 0 0 -9.49414,-5.73438 z m 10.90625,6.59961 a 128,128 0 0 1 9.66016,7.24414 128,128 0 0 0 -9.66016,-7.24414 z m 10.17773,7.63867 a 128,128 0 0 1 9.38868,8.62891 128,128 0 0 0 -9.38868,-8.62891 z m 9.38868,8.62891 0.98046,0.98047 a 128,128 0 0 0 -0.98046,-0.98047 z m 7.65039,8.57226 a 128,128 0 0 1 4.5039,5.92188 128,128 0 0 0 -4.5039,-5.92188 z m 7.63867,10.30469 a 128,128 0 0 1 3.81054,6.21289 128,128 0 0 0 -3.81054,-6.21289 z m 6.57617,11.03125 a 128,128 0 0 1 3.08203,6.37695 128,128 0 0 0 -3.08203,-6.37695 z m 5.4375,11.63867 a 128,128 0 0 1 2.37695,6.50782 128,128 0 0 0 -2.37695,-6.50782 z m 4.23242,12.09375 a 128,128 0 0 1 1.68555,6.59375 128,128 0 0 0 -1.68555,-6.59375 z m 3.00781,12.48633 a 128,128 0 0 1 0.99024,6.53906 128,128 0 0 0 -0.99024,-6.53906 z m 1.74024,12.71094 A 128,128 0 0 1 256,924.36216 128,128 0 0 0 255.44922,913.41099 Z"
         id="path4957" />
      <path
         style="fill:#ef7e74;fill-opacity:1"
         d="m 255.61415,923.74423 a 128,128 0 0 0 0.16406,-0.006 L 127.62197,795.58211 a 128,128 0 0 0 -0.008,0.16211 128,128 0 0 0 35.85352,88.80861 l 0.98046,0.98046 a 128,128 0 0 0 91.16603,38.21094 z"
         id="rect4961"
         inkscape:connector-curvature="0" />
    </g>
    <g
       id="g4201"
       style="fill:none;stroke:#ffffff;stroke-width:9.09971142;stroke-linejoin:round;stroke-miterlimit:4;stroke-dasharray:none;stroke-opacity:1"
       transform="matrix(1.0230254,0,0,1.0533013,-3.4442062,805.1624)">
      <g
         id="g4203"
         inkscape:label="Gear10"
         transform="translate(128.48577,156.17457)"
         style="fill:none;stroke:#ffffff;stroke-width:9.09971142;stroke-linejoin:round;stroke-miterlimit:4;stroke-dasharray:none;stroke-opacity:1">
        <path
           sodipodi:nodetypes="ccccccccccccccccccccccccccccccccccccccccc"
           id="path4205"
           style="fill:none;stroke:#ffffff;stroke-width:9.09971142;stroke-linejoin:round;stroke-miterlimit:4;stroke-dasharray:none;stroke-opacity:1"
           d="m 32.40946,-5.35926 16.77566,2.39496 0,5.9286 -16.77566,2.39496 -3.03956,9.35481 12.16407,11.79805 -3.48474,4.79634 -14.97952,-7.92292 -7.95767,5.78158 2.90621,16.69469 -5.63842,1.83204 -7.46172,-15.21452 -9.83622,0 -7.46172,15.21452 -5.63842,-1.83204 2.90621,-16.69469 -7.95767,-5.78158 -14.97952,7.92292 -3.48474,-4.79634 12.16407,-11.79805 -3.03956,-9.35481 -16.77566,-2.39496 0,-5.9286 16.77566,-2.39496 3.03956,-9.35481 -12.16407,-11.79805 3.48474,-4.79634 14.97952,7.92292 7.95767,-5.78158 -2.90621,-16.69469 5.63842,-1.83204 7.46172,15.21452 9.83622,0 7.46172,-15.21452 5.63842,1.83204 -2.90621,16.69469 7.95767,5.78158 14.97952,-7.92292 3.48474,4.79634 -12.16407,11.79805 z"
           inkscape:connector-curvature="0" />
        <path
           id="path4207"
           d="M 14.25,0 A 14.25,14.25 0 0 1 0,14.25 14.25,14.25 0 0 1 -14.25,0 14.25,14.25 0 0 1 0,-14.25 14.25,14.25 0 0 1 14.25,0 Z"
           style="fill:none;stroke:#ffffff;stroke-width:9.09971142;stroke-linejoin:round;stroke-miterlimit:4;stroke-dasharray:none;stroke-opacity:1"
           inkscape:connector-curvature="0" />
      </g>
    </g>
  </g>
</svg>
