<?xml version="1.0" encoding="UTF-8" standalone="no"?>
<!-- Created with Inkscape (http://www.inkscape.org/) -->

<svg
   xmlns:dc="http://purl.org/dc/elements/1.1/"
   xmlns:cc="http://creativecommons.org/ns#"
   xmlns:rdf="http://www.w3.org/1999/02/22-rdf-syntax-ns#"
   xmlns:svg="http://www.w3.org/2000/svg"
   xmlns="http://www.w3.org/2000/svg"
   xmlns:sodipodi="http://sodipodi.sourceforge.net/DTD/sodipodi-0.dtd"
   xmlns:inkscape="http://www.inkscape.org/namespaces/inkscape"
   width="256"
   height="256"
   viewBox="0 0 256 256"
   id="svg2"
   version="1.1"
   inkscape:version="0.92.4 (unknown)"
   sodipodi:docname="vcalendar.svg">
  <sodipodi:namedview
     id="base"
     pagecolor="#ffffff"
     bordercolor="#666666"
     borderopacity="1.0"
     inkscape:pageopacity="0.0"
     inkscape:pageshadow="2"
     inkscape:zoom="2.1328125"
     inkscape:cx="-123.31135"
     inkscape:cy="128"
     inkscape:document-units="px"
     inkscape:current-layer="layer1"
     showgrid="false"
     units="px"
     inkscape:window-width="1920"
     inkscape:window-height="1048"
     inkscape:window-x="0"
     inkscape:window-y="0"
     inkscape:window-maximized="1" />
  <defs
     id="defs4">
    <filter
       id="filter4301"
       inkscape:label="Drop Shadow"
       style="color-interpolation-filters:sRGB;">
      <feFlood
         id="feFlood4303"
         result="flood"
         flood-color="rgb(0,0,0)"
         flood-opacity="0.498039" />
      <feComposite
         id="feComposite4305"
         result="composite1"
         operator="in"
         in2="SourceGraphic"
         in="flood" />
      <feGaussianBlur
         id="feGaussianBlur4307"
         result="blur"
         stdDeviation="3.7"
         in="composite1" />
      <feOffset
         id="feOffset4309"
         result="offset"
         dy="3.7"
         dx="3.8" />
      <feComposite
         id="feComposite4311"
         result="composite2"
         operator="over"
         in2="offset"
         in="SourceGraphic" />
    </filter>
    <clipPath
       clipPathUnits="userSpaceOnUse"
       id="clipPath4456">
      <path
         style="fill:#00d75f;fill-opacity:1"
         d="M 127.81205,761.33197 A 146.6375,146.6375 0 0 0 -18.6375,907.96275 146.6375,146.6375 0 0 0 128,1054.6003 146.6375,146.6375 0 0 0 274.62856,908.14847 L 127.81205,761.33197 Z m 14.23281,0.69586 a 146.6375,146.6375 0 0 1 8.89857,1.28434 146.6375,146.6375 0 0 0 -8.89857,-1.28434 z m 14.42076,2.11892 a 146.6375,146.6375 0 0 1 9.64814,2.39413 146.6375,146.6375 0 0 0 -9.64814,-2.39413 z m 14.16344,3.5487 a 146.6375,146.6375 0 0 1 10.24779,3.6628 146.6375,146.6375 0 0 0 -10.24779,-3.6628 z m 13.72936,4.93146 a 146.6375,146.6375 0 0 1 10.70425,5.08587 146.6375,146.6375 0 0 0 -10.70425,-5.08587 z m 13.17223,6.27623 a 146.6375,146.6375 0 0 1 10.87654,6.56933 146.6375,146.6375 0 0 0 -10.87654,-6.56933 z m 12.49426,7.56055 a 146.6375,146.6375 0 0 1 11.06673,8.29892 146.6375,146.6375 0 0 0 -11.06673,-8.29892 z m 11.65966,8.7509 a 146.6375,146.6375 0 0 1 10.75572,9.88532 146.6375,146.6375 0 0 0 -10.75572,-9.88532 z m 10.75572,9.88532 1.12322,1.12324 a 146.6375,146.6375 0 0 0 -1.12322,-1.12324 z m 8.76433,9.82043 a 146.6375,146.6375 0 0 1 5.1597,6.78414 146.6375,146.6375 0 0 0 -5.1597,-6.78414 z m 8.7509,11.80511 a 146.6375,146.6375 0 0 1 4.36538,7.11752 146.6375,146.6375 0 0 0 -4.36538,-7.11752 z m 7.5337,12.63746 a 146.6375,146.6375 0 0 1 3.53079,7.30547 146.6375,146.6375 0 0 0 -3.53079,-7.30547 z m 6.22923,13.33333 a 146.6375,146.6375 0 0 1 2.72305,7.45539 146.6375,146.6375 0 0 0 -2.72305,-7.45539 z m 4.84868,13.85466 a 146.6375,146.6375 0 0 1 1.93098,7.55384 146.6375,146.6375 0 0 0 -1.93098,-7.55384 z m 3.44577,14.30441 a 146.6375,146.6375 0 0 1 1.13442,7.49118 146.6375,146.6375 0 0 0 -1.13442,-7.49118 z m 1.99363,14.56172 a 146.6375,146.6375 0 0 1 0.63097,12.54572 146.6375,146.6375 0 0 0 -0.63097,-12.54572 z"
         id="path4458"
         inkscape:connector-curvature="0" />
    </clipPath>
  </defs>
  <metadata
     id="metadata7">
    <rdf:RDF>
      <cc:Work
         rdf:about="">
        <dc:format>image/svg+xml</dc:format>
        <dc:type
           rdf:resource="http://purl.org/dc/dcmitype/StillImage" />
        <dc:title />
      </cc:Work>
    </rdf:RDF>
  </metadata>
  <g
     transform="translate(0,-796.36214)"
     id="layer1"
     inkscape:groupmode="layer"
     inkscape:label="Layer 1">
    <path
       inkscape:connector-curvature="0"
       id="path4957"
       d="M 127.83594,796.36506 A 128,128 0 0 0 0,924.3592 a 128,128 0 0 0 128,128 128,128 0 0 0 127.99219,-127.83789 L 127.83594,796.36506 Z m 12.42383,0.60742 a 128,128 0 0 1 7.76757,1.1211 128,128 0 0 0 -7.76757,-1.1211 z m 12.58789,1.84961 a 128,128 0 0 1 8.42187,2.08984 128,128 0 0 0 -8.42187,-2.08984 z m 12.36328,3.09766 a 128,128 0 0 1 8.94531,3.19726 128,128 0 0 0 -8.94531,-3.19726 z m 11.98437,4.30468 a 128,128 0 0 1 9.34375,4.43946 128,128 0 0 0 -9.34375,-4.43946 z m 11.49805,5.47852 a 128,128 0 0 1 9.49414,5.73438 128,128 0 0 0 -9.49414,-5.73438 z m 10.90625,6.59961 a 128,128 0 0 1 9.66016,7.24414 128,128 0 0 0 -9.66016,-7.24414 z m 10.17773,7.63867 a 128,128 0 0 1 9.38868,8.62891 128,128 0 0 0 -9.38868,-8.62891 z m 9.38868,8.62891 0.98046,0.98047 a 128,128 0 0 0 -0.98046,-0.98047 z m 7.65039,8.57226 a 128,128 0 0 1 4.5039,5.92188 128,128 0 0 0 -4.5039,-5.92188 z m 7.63867,10.30469 a 128,128 0 0 1 3.81054,6.21289 128,128 0 0 0 -3.81054,-6.21289 z m 6.57617,11.03125 a 128,128 0 0 1 3.08203,6.37695 128,128 0 0 0 -3.08203,-6.37695 z m 5.4375,11.63867 a 128,128 0 0 1 2.37695,6.50782 128,128 0 0 0 -2.37695,-6.50782 z m 4.23242,12.09375 a 128,128 0 0 1 1.68555,6.59375 128,128 0 0 0 -1.68555,-6.59375 z m 3.00781,12.48633 a 128,128 0 0 1 0.99024,6.53906 128,128 0 0 0 -0.99024,-6.53906 z m 1.74024,12.71094 A 128,128 0 0 1 256,924.3592 128,128 0 0 0 255.44922,913.40803 Z"
       style="fill:#00d75f;fill-opacity:1" />
    <path
       inkscape:connector-curvature="0"
       id="rect4961"
       d="m 255.61415,924.52718 a 128,128 0 0 0 0.16406,-0.006 L 127.62197,796.36506 a 128,128 0 0 0 -0.008,0.16211 128,128 0 0 0 35.85352,88.80861 l 0.98046,0.98046 a 128,128 0 0 0 91.16603,38.21094 z"
       style="fill:#7fe8ad;fill-opacity:1" />
    <text
       id="text4164"
       y="965.15338"
       x="54.857143"
       style="font-style:normal;font-weight:normal;line-height:0%;font-family:sans-serif;letter-spacing:0px;word-spacing:0px;fill:#000000;fill-opacity:1;stroke:none;stroke-width:1px;stroke-linecap:butt;stroke-linejoin:miter;stroke-opacity:1"
       xml:space="preserve"><tspan
         y="965.15338"
         x="54.857143"
         id="tspan4166"
         sodipodi:role="line"
         style="font-size:40px;line-height:1.25"> </tspan></text>
    <g
       style="fill:#fff9f9;fill-opacity:1"
       id="g4269"
       transform="matrix(0.87290085,0,0,0.87290085,16.26869,131.79774)">
      <path
         style="fill:#fff9f9;fill-opacity:1"
         d="m 66.550781,117.07031 c -4.036737,0 -7.287109,3.14079 -7.287109,7.04297 l 0,92.29688 c 0,3.9022 3.250372,7.04296 7.287109,7.04296 l 122.898439,0 c 4.03674,0 7.28711,-3.14076 7.28711,-7.04296 l 0,-92.29688 c 0,-3.90218 -3.25037,-7.04297 -7.28711,-7.04297 l -4.85742,0 0,10.25781 c 0,6.18967 -3.88459,11.17188 -8.70899,11.17188 l -5.89843,0 c -4.8244,0 -8.70899,-4.98221 -8.70899,-11.17188 l 0,-10.25781 -20.88867,0 0,10.25781 c 0,6.18967 -3.88264,11.17188 -8.70703,11.17188 l -5.90039,0 c -4.8244,0 -8.70899,-4.98221 -8.70899,-11.17188 l 0,-10.25781 -20.888669,0 0,10.25781 c 0,6.18967 -3.882638,11.17188 -8.707032,11.17188 l -5.90039,0 c -4.824394,0 -8.708985,-4.98221 -8.708985,-11.17188 l 0,-10.25781 -6.314453,0 z M 78,150.58789 l 100,0 c 3.6522,0 6.5918,3.12492 6.5918,7.00586 l 0,47.19531 c 0,3.88094 -2.9396,7.00586 -6.5918,7.00586 l -100,0 c -3.652199,0 -6.591797,-3.12492 -6.591797,-7.00586 l 0,-47.19531 c 0,-3.88094 2.939598,-7.00586 6.591797,-7.00586 z"
         transform="translate(0,796.36214)"
         id="path4271"
         inkscape:connector-curvature="0" />
      <rect
         ry="11.17268"
         rx="5.6021361"
         y="887.20087"
         x="165.64705"
         height="43.233406"
         width="15"
         id="rect4273"
         style="fill:#fff9f9;fill-opacity:1" />
      <rect
         style="fill:#fff9f9;fill-opacity:1"
         id="rect4275"
         width="15"
         height="43.233406"
         x="77.23719"
         y="887.20087"
         rx="5.6021361"
         ry="11.17268" />
      <rect
         style="fill:#fff9f9;fill-opacity:1"
         id="rect4277"
         width="15"
         height="43.233406"
         x="121.44212"
         y="887.20087"
         rx="5.6021361"
         ry="11.17268" />
    </g>
  </g>
</svg>
