<?xml version="1.0" encoding="UTF-8" standalone="no"?>
<!-- Created with Inkscape (http://www.inkscape.org/) -->

<svg
   xmlns:dc="http://purl.org/dc/elements/1.1/"
   xmlns:cc="http://creativecommons.org/ns#"
   xmlns:rdf="http://www.w3.org/1999/02/22-rdf-syntax-ns#"
   xmlns:svg="http://www.w3.org/2000/svg"
   xmlns="http://www.w3.org/2000/svg"
   xmlns:sodipodi="http://sodipodi.sourceforge.net/DTD/sodipodi-0.dtd"
   xmlns:inkscape="http://www.inkscape.org/namespaces/inkscape"
   sodipodi:docname="x-office-drawing.svg"
   inkscape:version="0.92.4 (unknown)"
   version="1.1"
   id="svg2"
   viewBox="0 0 256 256"
   height="256"
   width="256">
  <sodipodi:namedview
     inkscape:window-maximized="1"
     inkscape:window-y="0"
     inkscape:window-x="0"
     inkscape:window-height="1048"
     inkscape:window-width="1920"
     units="px"
     showgrid="false"
     inkscape:current-layer="layer1"
     inkscape:document-units="px"
     inkscape:cy="128"
     inkscape:cx="0.74331853"
     inkscape:zoom="3.3632812"
     inkscape:pageshadow="2"
     inkscape:pageopacity="0.0"
     borderopacity="1.0"
     bordercolor="#666666"
     pagecolor="#ffffff"
     id="base" />
  <defs
     id="defs4">
    <filter
       id="filter4301"
       inkscape:label="Drop Shadow"
       style="color-interpolation-filters:sRGB;">
      <feFlood
         id="feFlood4303"
         result="flood"
         flood-color="rgb(0,0,0)"
         flood-opacity="0.498039" />
      <feComposite
         id="feComposite4305"
         result="composite1"
         operator="in"
         in2="SourceGraphic"
         in="flood" />
      <feGaussianBlur
         id="feGaussianBlur4307"
         result="blur"
         stdDeviation="3.7"
         in="composite1" />
      <feOffset
         id="feOffset4309"
         result="offset"
         dy="3.7"
         dx="3.8" />
      <feComposite
         id="feComposite4311"
         result="composite2"
         operator="over"
         in2="offset"
         in="SourceGraphic" />
    </filter>
    <clipPath
       clipPathUnits="userSpaceOnUse"
       id="clipPath4369">
      <path
         style="fill:#72a854;fill-opacity:1"
         d="M 121.77164,792.46477 A 124.37042,124.37042 0 0 0 -2.4393803,916.8295 124.37042,124.37042 0 0 0 121.93104,1041.1999 124.37042,124.37042 0 0 0 246.29388,916.98701 L 121.77164,792.46477 Z m 12.07153,0.59019 a 124.37042,124.37042 0 0 1 7.54732,1.08931 124.37042,124.37042 0 0 0 -7.54732,-1.08931 z m 12.23095,1.79717 a 124.37042,124.37042 0 0 1 8.18306,2.03058 124.37042,124.37042 0 0 0 -8.18306,-2.03058 z m 12.01271,3.00982 a 124.37042,124.37042 0 0 1 8.69165,3.1066 124.37042,124.37042 0 0 0 -8.69165,-3.1066 z m 11.64454,4.18261 a 124.37042,124.37042 0 0 1 9.0788,4.31358 124.37042,124.37042 0 0 0 -9.0788,-4.31358 z m 11.17201,5.32317 a 124.37042,124.37042 0 0 1 9.22492,5.57178 124.37042,124.37042 0 0 0 -9.22492,-5.57178 z m 10.59699,6.41248 a 124.37042,124.37042 0 0 1 9.38624,7.03872 124.37042,124.37042 0 0 0 -9.38624,-7.03872 z m 9.88913,7.42206 a 124.37042,124.37042 0 0 1 9.12245,8.38423 124.37042,124.37042 0 0 0 -9.12245,-8.38423 z m 9.12245,8.38423 0.95266,0.95267 a 124.37042,124.37042 0 0 0 -0.95266,-0.95267 z m 7.43346,8.32919 a 124.37042,124.37042 0 0 1 4.37619,5.75395 124.37042,124.37042 0 0 0 -4.37619,-5.75395 z m 7.42207,10.01249 a 124.37042,124.37042 0 0 1 3.70248,6.03671 124.37042,124.37042 0 0 0 -3.70248,-6.03671 z m 6.38969,10.71844 a 124.37042,124.37042 0 0 1 2.99464,6.19613 124.37042,124.37042 0 0 0 -2.99464,-6.19613 z m 5.28332,11.30865 a 124.37042,124.37042 0 0 1 2.30954,6.32328 124.37042,124.37042 0 0 0 -2.30954,-6.32328 z m 4.1124,11.75081 a 124.37042,124.37042 0 0 1 1.63775,6.40678 124.37042,124.37042 0 0 0 -1.63775,-6.40678 z m 2.92252,12.13227 a 124.37042,124.37042 0 0 1 0.96216,6.35364 124.37042,124.37042 0 0 0 -0.96216,-6.35364 z m 1.69089,12.35051 a 124.37042,124.37042 0 0 1 0.53517,10.64064 124.37042,124.37042 0 0 0 -0.53517,-10.64064 z"
         id="path4371"
         inkscape:connector-curvature="0" />
    </clipPath>
    <clipPath
       id="clipPath4571"
       clipPathUnits="userSpaceOnUse">
      <path
         style="fill:#72a854;fill-opacity:1"
         d="M 175.85452,772.36506 A 128,128 0 0 0 48.018585,900.3592 a 128,128 0 0 0 127.999995,128 128,128 0 0 0 127.99219,-127.83789 L 175.85452,772.36506 Z m 12.42383,0.60742 a 128,128 0 0 1 7.76757,1.1211 128,128 0 0 0 -7.76757,-1.1211 z m 12.58789,1.84961 a 128,128 0 0 1 8.42187,2.08984 128,128 0 0 0 -8.42187,-2.08984 z m 12.36328,3.09766 a 128,128 0 0 1 8.94531,3.19726 128,128 0 0 0 -8.94531,-3.19726 z m 11.98437,4.30468 a 128,128 0 0 1 9.34375,4.43946 128,128 0 0 0 -9.34375,-4.43946 z m 11.49806,5.47852 a 128,128 0 0 1 9.49413,5.73438 128,128 0 0 0 -9.49413,-5.73438 z m 10.90625,6.59961 a 128,128 0 0 1 9.66016,7.24414 128,128 0 0 0 -9.66016,-7.24414 z m 10.17772,7.63867 a 128,128 0 0 1 9.38869,8.62891 128,128 0 0 0 -9.38869,-8.62891 z m 9.38869,8.62891 0.98046,0.98047 a 128,128 0 0 0 -0.98046,-0.98047 z m 7.65038,8.57226 a 128,128 0 0 1 4.5039,5.92188 128,128 0 0 0 -4.5039,-5.92188 z m 7.63867,10.30469 a 128,128 0 0 1 3.81054,6.21289 128,128 0 0 0 -3.81054,-6.21289 z m 6.57617,11.03125 a 128,128 0 0 1 3.08203,6.37695 128,128 0 0 0 -3.08203,-6.37695 z m 5.4375,11.63867 a 128,128 0 0 1 2.37695,6.50782 128,128 0 0 0 -2.37695,-6.50782 z m 4.23242,12.09375 a 128,128 0 0 1 1.68555,6.59375 128,128 0 0 0 -1.68555,-6.59375 z m 3.00781,12.48633 a 128,128 0 0 1 0.99024,6.53906 128,128 0 0 0 -0.99024,-6.53906 z m 1.74024,12.71094 a 128,128 0 0 1 0.55079,10.95117 128,128 0 0 0 -0.55079,-10.95117 z"
         id="path4573"
         inkscape:connector-curvature="0" />
    </clipPath>
    <clipPath
       clipPathUnits="userSpaceOnUse"
       id="clipPath1098">
      <path
         style="fill:#72a854;fill-opacity:1"
         d="M 127.83594,788.36506 A 128,128 0 0 0 2.2834631e-6,916.3592 128,128 0 0 0 128,1044.3592 128,128 0 0 0 255.99219,916.52131 Z m 12.42383,0.60742 a 128,128 0 0 1 7.76757,1.1211 128,128 0 0 0 -7.76757,-1.1211 z m 12.58789,1.84961 a 128,128 0 0 1 8.42187,2.08984 128,128 0 0 0 -8.42187,-2.08984 z m 12.36328,3.09766 a 128,128 0 0 1 8.94531,3.19726 128,128 0 0 0 -8.94531,-3.19726 z m 11.98437,4.30468 a 128,128 0 0 1 9.34375,4.43946 128,128 0 0 0 -9.34375,-4.43946 z m 11.49805,5.47852 a 128,128 0 0 1 9.49414,5.73438 128,128 0 0 0 -9.49414,-5.73438 z m 10.90625,6.59961 a 128,128 0 0 1 9.66016,7.24414 128,128 0 0 0 -9.66016,-7.24414 z m 10.17773,7.63867 a 128,128 0 0 1 9.38868,8.62891 128,128 0 0 0 -9.38868,-8.62891 z m 9.38868,8.62891 0.98046,0.98047 a 128,128 0 0 0 -0.98046,-0.98047 z m 7.65039,8.57226 a 128,128 0 0 1 4.5039,5.92188 128,128 0 0 0 -4.5039,-5.92188 z m 7.63867,10.30469 a 128,128 0 0 1 3.81054,6.21289 128,128 0 0 0 -3.81054,-6.21289 z m 6.57617,11.03125 a 128,128 0 0 1 3.08203,6.37695 128,128 0 0 0 -3.08203,-6.37695 z m 5.4375,11.63867 a 128,128 0 0 1 2.37695,6.50782 128,128 0 0 0 -2.37695,-6.50782 z m 4.23242,12.09375 a 128,128 0 0 1 1.68555,6.59375 128,128 0 0 0 -1.68555,-6.59375 z m 3.00781,12.48633 a 128,128 0 0 1 0.99024,6.53906 128,128 0 0 0 -0.99024,-6.53906 z m 1.74024,12.71094 A 128,128 0 0 1 256,916.3592 128,128 0 0 0 255.44922,905.40803 Z"
         id="path1100"
         inkscape:connector-curvature="0" />
    </clipPath>
  </defs>
  <metadata
     id="metadata7">
    <rdf:RDF>
      <cc:Work
         rdf:about="">
        <dc:format>image/svg+xml</dc:format>
        <dc:type
           rdf:resource="http://purl.org/dc/dcmitype/StillImage" />
        <dc:title />
      </cc:Work>
    </rdf:RDF>
  </metadata>
  <g
     transform="translate(0,-796.36214)"
     id="layer1"
     inkscape:groupmode="layer"
     inkscape:label="Layer 1">
    <path
       inkscape:connector-curvature="0"
       id="path4957"
       d="M 127.83594,796.36506 A 128,128 0 0 0 0,924.3592 a 128,128 0 0 0 128,128 128,128 0 0 0 127.99219,-127.83789 L 127.83594,796.36506 Z m 12.42383,0.60742 a 128,128 0 0 1 7.76757,1.1211 128,128 0 0 0 -7.76757,-1.1211 z m 12.58789,1.84961 a 128,128 0 0 1 8.42187,2.08984 128,128 0 0 0 -8.42187,-2.08984 z m 12.36328,3.09766 a 128,128 0 0 1 8.94531,3.19726 128,128 0 0 0 -8.94531,-3.19726 z m 11.98437,4.30468 a 128,128 0 0 1 9.34375,4.43946 128,128 0 0 0 -9.34375,-4.43946 z m 11.49805,5.47852 a 128,128 0 0 1 9.49414,5.73438 128,128 0 0 0 -9.49414,-5.73438 z m 10.90625,6.59961 a 128,128 0 0 1 9.66016,7.24414 128,128 0 0 0 -9.66016,-7.24414 z m 10.17773,7.63867 a 128,128 0 0 1 9.38868,8.62891 128,128 0 0 0 -9.38868,-8.62891 z m 9.38868,8.62891 0.98046,0.98047 a 128,128 0 0 0 -0.98046,-0.98047 z m 7.65039,8.57226 a 128,128 0 0 1 4.5039,5.92188 128,128 0 0 0 -4.5039,-5.92188 z m 7.63867,10.30469 a 128,128 0 0 1 3.81054,6.21289 128,128 0 0 0 -3.81054,-6.21289 z m 6.57617,11.03125 a 128,128 0 0 1 3.08203,6.37695 128,128 0 0 0 -3.08203,-6.37695 z m 5.4375,11.63867 a 128,128 0 0 1 2.37695,6.50782 128,128 0 0 0 -2.37695,-6.50782 z m 4.23242,12.09375 a 128,128 0 0 1 1.68555,6.59375 128,128 0 0 0 -1.68555,-6.59375 z m 3.00781,12.48633 a 128,128 0 0 1 0.99024,6.53906 128,128 0 0 0 -0.99024,-6.53906 z m 1.74024,12.71094 A 128,128 0 0 1 256,924.3592 128,128 0 0 0 255.44922,913.40803 Z"
       style="fill:#72a854;fill-opacity:1" />
    <path
       inkscape:connector-curvature="0"
       id="rect4961"
       d="m 255.61415,924.52718 a 128,128 0 0 0 0.16406,-0.006 L 127.62197,796.36506 a 128,128 0 0 0 -0.008,0.16211 128,128 0 0 0 35.85352,88.80861 l 0.98046,0.98046 a 128,128 0 0 0 91.16603,38.21094 z"
       style="fill:#a4c790;fill-opacity:1" />
    <text
       id="text4164"
       y="965.15338"
       x="54.857143"
       style="font-style:normal;font-weight:normal;line-height:0%;font-family:sans-serif;letter-spacing:0px;word-spacing:0px;fill:#000000;fill-opacity:1;stroke:none;stroke-width:1px;stroke-linecap:butt;stroke-linejoin:miter;stroke-opacity:1"
       xml:space="preserve"><tspan
         style="font-size:40px;line-height:1.25"
         y="965.15338"
         x="54.857143"
         id="tspan4166"
         sodipodi:role="line"> </tspan></text>
    <g
       transform="translate(-2.2834631e-6,8)"
       id="g867"
       style="fill:#ffffff;fill-opacity:1">
      <circle
         r="32.5"
         cy="936.96429"
         cx="98.623329"
         id="circle4199"
         style="fill:#ffffff;fill-opacity:1;stroke:none;stroke-width:8;stroke-miterlimit:4;stroke-dasharray:none;stroke-opacity:1" />
      <path
         style="color:#000000;font-style:normal;font-variant:normal;font-weight:normal;font-stretch:normal;font-size:medium;line-height:normal;font-family:sans-serif;font-variant-ligatures:normal;font-variant-position:normal;font-variant-caps:normal;font-variant-numeric:normal;font-variant-alternates:normal;font-feature-settings:normal;text-indent:0;text-align:start;text-decoration:none;text-decoration-line:none;text-decoration-style:solid;text-decoration-color:#000000;letter-spacing:normal;word-spacing:normal;text-transform:none;writing-mode:lr-tb;direction:ltr;text-orientation:mixed;dominant-baseline:auto;baseline-shift:baseline;text-anchor:start;white-space:normal;shape-padding:0;clip-rule:nonzero;display:inline;overflow:visible;visibility:visible;opacity:1;isolation:auto;mix-blend-mode:normal;color-interpolation:sRGB;color-interpolation-filters:linearRGB;solid-color:#000000;solid-opacity:1;vector-effect:none;fill:#ffffff;fill-opacity:1;fill-rule:nonzero;stroke:none;stroke-width:8;stroke-linecap:butt;stroke-linejoin:miter;stroke-miterlimit:4;stroke-dasharray:none;stroke-dashoffset:0;stroke-opacity:1;color-rendering:auto;image-rendering:auto;shape-rendering:auto;text-rendering:auto;enable-background:accumulate"
         d="m 97.491293,918.33008 v 4 64 h 72.999997 v -68 z m 7.999997,8 h 57 v 52 h -57 z"
         id="rect4201"
         inkscape:connector-curvature="0" />
      <path
         transform="scale(1,-1)"
         inkscape:transform-center-y="-11.249999"
         d="m 150.90553,-943.35706 -19.48557,-33.75 -19.48557,-33.75004 38.97114,0 38.97115,0 -19.48558,33.75004 z"
         inkscape:randomized="0"
         inkscape:rounded="0"
         inkscape:flatsided="false"
         sodipodi:arg2="2.6179939"
         sodipodi:arg1="1.5707963"
         sodipodi:r2="22.5"
         sodipodi:r1="45"
         sodipodi:cy="-988.35706"
         sodipodi:cx="150.90553"
         sodipodi:sides="3"
         id="path4203"
         style="fill:#ffffff;fill-opacity:1;stroke:none;stroke-width:8;stroke-miterlimit:4;stroke-dasharray:none;stroke-opacity:1"
         sodipodi:type="star" />
    </g>
  </g>
</svg>
