<?xml version="1.0" encoding="UTF-8" standalone="no"?>
<!-- Created with Inkscape (http://www.inkscape.org/) -->

<svg
   xmlns:dc="http://purl.org/dc/elements/1.1/"
   xmlns:cc="http://creativecommons.org/ns#"
   xmlns:rdf="http://www.w3.org/1999/02/22-rdf-syntax-ns#"
   xmlns:svg="http://www.w3.org/2000/svg"
   xmlns="http://www.w3.org/2000/svg"
   xmlns:sodipodi="http://sodipodi.sourceforge.net/DTD/sodipodi-0.dtd"
   xmlns:inkscape="http://www.inkscape.org/namespaces/inkscape"
   width="256"
   height="256"
   viewBox="0 0 256 256"
   id="svg4149"
   version="1.1"
   inkscape:version="0.92.3 (2405546, 2018-03-11)"
   sodipodi:docname="distributor-logo-mint.svg">
  <sodipodi:namedview
     id="base"
     pagecolor="#ffffff"
     bordercolor="#666666"
     borderopacity="1.0"
     inkscape:pageopacity="0.0"
     inkscape:pageshadow="2"
     inkscape:zoom="3.3125"
     inkscape:cx="128"
     inkscape:cy="127.99998"
     inkscape:document-units="px"
     inkscape:current-layer="layer1"
     showgrid="false"
     units="px"
     inkscape:window-width="1920"
     inkscape:window-height="1048"
     inkscape:window-x="0"
     inkscape:window-y="0"
     inkscape:window-maximized="1" />
  <defs
     id="defs4151">
    <clipPath
       clipPathUnits="userSpaceOnUse"
       id="clipPath4863">
      <circle
         style="fill:#e9e9e9;fill-opacity:1;stroke:none;stroke-width:20;stroke-miterlimit:4;stroke-dasharray:none;stroke-opacity:1"
         id="circle4865"
         cx="128"
         cy="924.36218"
         r="77.263145" />
    </clipPath>
    <clipPath
       id="clipPath5108"
       clipPathUnits="userSpaceOnUse">
      <circle
         style="fill:#dd4814;fill-opacity:1;stroke:none;stroke-width:20;stroke-miterlimit:4;stroke-dasharray:none;stroke-opacity:1"
         id="circle5110"
         cx="128"
         cy="128.00002"
         r="128" />
    </clipPath>
    <clipPath
       clipPathUnits="userSpaceOnUse"
       id="clipPath5261">
      <circle
         style="fill:#a4e266;fill-opacity:1;stroke:none;stroke-width:20;stroke-miterlimit:4;stroke-dasharray:none;stroke-opacity:1"
         id="circle5263"
         cx="128"
         cy="924.36218"
         r="128" />
    </clipPath>
  </defs>
  <metadata
     id="metadata4154">
    <rdf:RDF>
      <cc:Work
         rdf:about="">
        <dc:format>image/svg+xml</dc:format>
        <dc:type
           rdf:resource="http://purl.org/dc/dcmitype/StillImage" />
        <dc:title />
      </cc:Work>
    </rdf:RDF>
  </metadata>
  <g
     transform="translate(0,-796.36216)"
     id="layer1"
     inkscape:groupmode="layer"
     inkscape:label="Layer 1">
    <path
       d="m 256,-924.36218 a 128,128 0 0 1 -64,110.85125 128,128 0 0 1 -128.000003,0 A 128,128 0 0 1 0,-924.36219 l 128,1e-5 z"
       sodipodi:end="3.1415927"
       sodipodi:start="0"
       sodipodi:ry="128"
       sodipodi:rx="128"
       sodipodi:cy="-924.36218"
       sodipodi:cx="128"
       sodipodi:type="arc"
       style="fill:#4c7423;fill-opacity:1;stroke:none;stroke-width:20;stroke-miterlimit:4;stroke-dasharray:none;stroke-opacity:1"
       id="path854"
       transform="scale(1,-1)" />
    <path
       id="path4723"
       style="fill:#7fc23b;fill-opacity:1;stroke:none;stroke-width:20;stroke-miterlimit:4;stroke-dasharray:none;stroke-opacity:1"
       sodipodi:type="arc"
       sodipodi:cx="128"
       sodipodi:cy="924.36218"
       sodipodi:rx="128"
       sodipodi:ry="128"
       sodipodi:start="0"
       sodipodi:end="3.1415927"
       d="m 256,924.36218 a 128,128 0 0 1 -64,110.85122 128,128 0 0 1 -128.000003,0 A 128,128 0 0 1 0,924.36218 l 128,0 z" />
    <g
       transform="translate(-4e-6,4.9999999e-6)"
       id="g5136">
      <path
         inkscape:connector-curvature="0"
         style="display:inline;overflow:visible;visibility:visible;fill:#ffffff;fill-opacity:1;fill-rule:evenodd;stroke:none;stroke-width:1;marker:none;enable-background:accumulate"
         id="path5138"
         d="m 137.29532,889.17261 c -5.62177,0 -10.61688,2.08718 -14.63036,6.14148 -4.01149,4.05213 -6.11776,9.11092 -6.11775,14.81993 l 0,28.85777 13.08911,0 0,-28.85777 c 0,-2.18818 0.71398,-3.89918 2.27634,-5.4774 1.5675,-1.58328 3.22739,-2.30004 5.38266,-2.30004 2.20045,0 3.83543,0.71315 5.40636,2.30004 1.56237,1.57822 2.27637,3.28922 2.27637,5.4774 l 0,28.85777 13.08908,0 0,-28.85777 c 0,-2.18818 0.71401,-3.89918 2.27639,-5.4774 1.57091,-1.58689 3.20589,-2.30004 5.40638,-2.30004 2.15529,0 3.81514,0.71676 5.38261,2.30004 1.56236,1.57822 2.27637,3.28922 2.27637,5.4774 l 0.0711,33.71885 c 0,7.19287 -6.84988,13.25498 -15.65,13.25498 l -42.20756,-0.16595 c -6.79105,0 -12.59115,-6.61003 -12.59115,-15.10465 l 0,-63.49737 -12.377718,0 0,65.93968 c 0,6.99619 2.560078,13.13132 7.540462,18.09244 4.256856,4.20176 9.376296,6.92543 15.128316,7.54057 l 46.99743,-1.1e-4 c 7.22185,0 13.56658,-2.68529 18.68515,-7.89632 l 0.0238,0 c 4.35329,-4.47264 6.89825,-9.83185 7.51673,-15.86324 l -0.0474,-36.01888 c 0,-5.70901 -2.1062,-10.7678 -6.11773,-14.81993 -4.01345,-4.0543 -9.0086,-6.14148 -14.63035,-6.14148 -5.51822,0 -10.34667,2.05198 -14.25101,5.80944 -3.89292,-3.75127 -8.68762,-5.80944 -14.20356,-5.80944 z" />
      <path
         inkscape:connector-curvature="0"
         style="display:inline;overflow:visible;visibility:visible;opacity:0.3;fill:#52a800;fill-opacity:1;fill-rule:evenodd;stroke:none;stroke-width:1;marker:none;enable-background:accumulate"
         id="path5140"
         d="m 129.59806,956.98577 0,12.92669 30.74458,0 c 7.22182,0 13.52907,-2.69347 18.64762,-7.90449 l 0.0437,0 c 4.35331,-4.47266 6.89298,-9.82129 7.51146,-15.85268 l 0,-7.33677 -13.05771,0 0,5.02219 c 0,7.19291 -6.83422,13.2324 -15.63434,13.2324 l -28.25531,-0.0873 z" />
      <path
         inkscape:connector-curvature="0"
         style="display:inline;overflow:visible;visibility:visible;fill:#ffffff;fill-opacity:1;fill-rule:evenodd;stroke:none;stroke-width:1;marker:none;enable-background:accumulate"
         id="path5142"
         d="m 122.4615,996.0813 c -29.752543,0 -55.571941,-22.55527 -55.571941,-52.28114 l -0.0267,-36.09363 0,-9.20385 -18.862851,0 0,-45.85967 79.545102,0.37461 24.88297,0.0535 c 29.77927,0 55.57192,22.52839 55.57192,52.28095 l 0,90.72916 -85.53848,0 0,0 0,0 z m 73.41801,-24.33808 c 0,-19.76518 0,-66.39111 0,-66.39111 0,-22.18047 -19.45145,-40.16049 -43.45146,-40.16049 l -24.9097,0 0,-0.0535 -67.371208,-0.29437 0,21.53849 c 0,0 2.705957,0 7.546916,0 5.123724,0 11.289135,4.81498 11.289135,11.8808 l 0.05352,45.51059 c 0,22.18048 19.451538,40.16051 43.424767,40.16051 l 59.18982,0 c 7.58817,0 14.22819,-4.80556 14.22819,-12.19089 z" />
    </g>
  </g>
</svg>
