<?xml version="1.0" encoding="UTF-8" standalone="no"?>
<!-- Created with Inkscape (http://www.inkscape.org/) -->

<svg
   xmlns:dc="http://purl.org/dc/elements/1.1/"
   xmlns:cc="http://creativecommons.org/ns#"
   xmlns:rdf="http://www.w3.org/1999/02/22-rdf-syntax-ns#"
   xmlns:svg="http://www.w3.org/2000/svg"
   xmlns="http://www.w3.org/2000/svg"
   xmlns:sodipodi="http://sodipodi.sourceforge.net/DTD/sodipodi-0.dtd"
   xmlns:inkscape="http://www.inkscape.org/namespaces/inkscape"
   width="256"
   height="256"
   viewBox="0 0 256 256"
   id="svg4149"
   version="1.1"
   inkscape:version="0.92.3 (2405546, 2018-03-11)"
   sodipodi:docname="distributor-logo-ubuntu.svg">
  <sodipodi:namedview
     id="base"
     pagecolor="#ffffff"
     bordercolor="#666666"
     borderopacity="1.0"
     inkscape:pageopacity="0.0"
     inkscape:pageshadow="2"
     inkscape:zoom="3.3125"
     inkscape:cx="62.792453"
     inkscape:cy="128"
     inkscape:document-units="px"
     inkscape:current-layer="layer1"
     showgrid="false"
     units="px"
     inkscape:window-width="1920"
     inkscape:window-height="1048"
     inkscape:window-x="0"
     inkscape:window-y="0"
     inkscape:window-maximized="1" />
  <defs
     id="defs4151">
    <clipPath
       clipPathUnits="userSpaceOnUse"
       id="clipPath4863">
      <circle
         style="fill:#e9e9e9;fill-opacity:1;stroke:none;stroke-width:20;stroke-miterlimit:4;stroke-dasharray:none;stroke-opacity:1"
         id="circle4865"
         cx="128"
         cy="924.36218"
         r="77.263145" />
    </clipPath>
    <clipPath
       id="clipPath5108"
       clipPathUnits="userSpaceOnUse">
      <circle
         style="fill:#dd4814;fill-opacity:1;stroke:none;stroke-width:20;stroke-miterlimit:4;stroke-dasharray:none;stroke-opacity:1"
         id="circle5110"
         cx="128"
         cy="128.00002"
         r="128" />
    </clipPath>
    <clipPath
       clipPathUnits="userSpaceOnUse"
       id="clipPath1087">
      <circle
         style="fill:#dd4814;fill-opacity:1;stroke:none;stroke-width:20;stroke-miterlimit:4;stroke-dasharray:none;stroke-opacity:1"
         id="circle1089"
         cx="128"
         cy="924.36218"
         r="128" />
    </clipPath>
  </defs>
  <metadata
     id="metadata4154">
    <rdf:RDF>
      <cc:Work
         rdf:about="">
        <dc:format>image/svg+xml</dc:format>
        <dc:type
           rdf:resource="http://purl.org/dc/dcmitype/StillImage" />
        <dc:title />
      </cc:Work>
    </rdf:RDF>
  </metadata>
  <g
     transform="translate(0,-796.36216)"
     id="layer1"
     inkscape:groupmode="layer"
     inkscape:label="Layer 1">
    <path
       d="m 256,-924.36218 a 128,128 0 0 1 -64,110.85125 128,128 0 0 1 -128.000003,0 A 128,128 0 0 1 0,-924.36219 l 128,1e-5 z"
       sodipodi:end="3.1415927"
       sodipodi:start="0"
       sodipodi:ry="128"
       sodipodi:rx="128"
       sodipodi:cy="-924.36218"
       sodipodi:cx="128"
       sodipodi:type="arc"
       style="fill:#a5360f;fill-opacity:1;stroke:none;stroke-width:20;stroke-miterlimit:4;stroke-dasharray:none;stroke-opacity:1"
       id="path873"
       transform="scale(1,-1)" />
    <path
       id="path4723"
       style="fill:#dd4814;fill-opacity:1;stroke:none;stroke-width:20;stroke-miterlimit:4;stroke-dasharray:none;stroke-opacity:1"
       sodipodi:type="arc"
       sodipodi:cx="128"
       sodipodi:cy="924.36218"
       sodipodi:rx="128"
       sodipodi:ry="128"
       sodipodi:start="0"
       sodipodi:end="3.1415927"
       d="m 256,924.36218 a 128,128 0 0 1 -64,110.85122 128,128 0 0 1 -128.000003,0 A 128,128 0 0 1 0,924.36218 l 128,0 z" />
    <path
       style="fill:#ffffff;fill-opacity:1;stroke-width:0.76756227"
       inkscape:connector-curvature="0"
       id="path4"
       d="m 83.771527,924.35878 c 0,7.72475 -6.262541,13.98882 -13.992663,13.98882 -7.72091,0 -13.983449,-6.26331 -13.983449,-13.98882 0,-7.72168 6.262539,-13.98421 13.983449,-13.98421 7.730122,0 13.992663,6.26253 13.992663,13.98421 z m 79.576253,68.01063 c 3.86313,6.68475 12.41379,8.97759 19.10385,5.11965 6.68931,-3.86315 8.98125,-12.4184 5.11887,-19.10848 -3.86237,-6.6893 -12.41379,-8.97664 -19.10309,-5.11427 -6.69007,3.86314 -8.98201,12.41379 -5.11963,19.1031 z m 24.22195,-122.02859 c 3.86237,-6.69083 1.57504,-15.24379 -5.11886,-19.10232 -6.68548,-3.86238 -15.23995,-1.57044 -19.10385,5.11734 -3.86238,6.68929 -1.57044,15.24147 5.11963,19.10385 6.69007,3.86238 15.24532,1.57043 19.10308,-5.11887 z m -47.33709,14.13312 c 20.84161,0 37.94366,15.97605 39.72979,36.35483 l 20.24215,-0.31932 c -0.961,-15.14169 -7.52902,-28.75978 -17.6501,-38.80103 -5.35758,2.06704 -11.57407,1.78612 -16.93703,-1.31254 -5.3668,-3.09864 -8.71874,-8.34416 -9.60526,-14.0272 -5.0306,-1.36625 -10.32218,-2.09774 -15.77954,-2.09774 -9.57228,0 -18.6203,2.23821 -26.65515,6.21955 l 9.84936,17.68694 c 5.10429,-2.37177 10.80498,-3.70349 16.80578,-3.70349 z m -39.88945,39.88484 c 0,-13.49144 6.70389,-25.42242 16.96082,-32.63675 l -10.39279,-17.373 c -12.038443,8.03945 -21.00587,20.30278 -24.789185,34.68077 4.47719,3.60524 7.345569,9.13168 7.345569,15.32974 0,6.20191 -2.869142,11.72837 -7.345569,15.33437 3.783315,14.3772 12.750742,26.64055 24.789185,34.6846 l 10.39279,-17.373 c -10.25693,-7.2197 -16.96082,-19.14608 -16.96082,-32.64673 z m 39.88945,39.89251 c -6.00004,0 -11.70073,-1.33095 -16.80579,-3.70733 l -9.84936,17.68695 c 8.03485,3.98441 17.08211,6.22032 26.65515,6.22032 5.45659,0 10.74894,-0.72611 15.77954,-2.09467 0.88575,-5.68688 4.23771,-10.93239 9.60527,-14.02567 5.36296,-3.09865 11.57945,-3.38034 16.93703,-1.3133 10.12184,-10.04586 16.6891,-23.66395 17.6501,-38.80564 l -20.24215,-0.31394 c -1.78689,20.37341 -18.88818,36.35328 -39.72979,36.35328 z" />
  </g>
</svg>
